<?xml version="1.0" encoding="UTF-8" standalone="no"?>
<!-- Generator: Adobe Illustrator 10, SVG Export Plug-In . SVG Version: 3.0.0 Build 76)  -->
<svg
   xmlns:dc="http://purl.org/dc/elements/1.1/"
   xmlns:cc="http://creativecommons.org/ns#"
   xmlns:rdf="http://www.w3.org/1999/02/22-rdf-syntax-ns#"
   xmlns:svg="http://www.w3.org/2000/svg"
   xmlns="http://www.w3.org/2000/svg"
   xmlns:sodipodi="http://sodipodi.sourceforge.net/DTD/sodipodi-0.dtd"
   xmlns:inkscape="http://www.inkscape.org/namespaces/inkscape"
   width="348.94748"
   height="466.01947"
   viewBox="0 0 622.944 945.04"
   style="overflow:visible"
   xml:space="preserve"
   id="svg2"
   sodipodi:version="0.32"
   inkscape:version="0.46"
   sodipodi:docname="Arching.svg"
   inkscape:output_extension="org.inkscape.output.svg.inkscape"
   version="1.0"><metadata
   id="metadata268"><rdf:RDF><cc:Work
       rdf:about=""><dc:format>image/svg+xml</dc:format><dc:type
         rdf:resource="http://purl.org/dc/dcmitype/StillImage" /></cc:Work></rdf:RDF></metadata><defs
   id="defs266"><inkscape:perspective
   sodipodi:type="inkscape:persp3d"
   inkscape:vp_x="0 : 472.51999 : 1"
   inkscape:vp_y="0 : 1000 : 0"
   inkscape:vp_z="622.94397 : 472.51999 : 1"
   inkscape:persp3d-origin="311.47198 : 315.01333 : 1"
   id="perspective270" />
		
		
		
		
		
		
		
		
		
		
		
		
		
		
		
		
		
		
	</defs><sodipodi:namedview
   inkscape:window-height="670"
   inkscape:window-width="640"
   inkscape:pageshadow="2"
   inkscape:pageopacity="0.0"
   guidetolerance="10.0"
   gridtolerance="10.0"
   objecttolerance="10.0"
   borderopacity="1.0"
   bordercolor="#666666"
   pagecolor="#ffffff"
   id="base"
   showgrid="false"
   inkscape:zoom="0.48886821"
   inkscape:cx="311.47198"
   inkscape:cy="441.37411"
   inkscape:window-x="179"
   inkscape:window-y="52"
   inkscape:current-layer="svg2" />
	
<g
   transform="matrix(2.0278981,0,0,2.0278981,-111.75183,-734.6903)"
   style="overflow:visible"
   id="g7709"><path
     style="fill:#e8e8f3"
     d="M 34.227,391.92 L 350.523,391.92 L 350.523,828.311 L 34.227,828.311 L 34.227,391.92 z"
     id="path11" /><g
     id="g13">
			<g
   id="g15">
				<g
   id="g17">
					<path
   style="fill:none;stroke:#796b99;stroke-width:5.6869998;stroke-linecap:round;stroke-linejoin:round"
   d="M 54.963,816.432 L 54.963,377.664"
   id="path19" />
				</g>
			</g>
			<g
   id="g21">
				<g
   id="g23">
					<path
   style="fill:none;stroke:#796b99;stroke-width:5.6869998;stroke-linecap:round;stroke-linejoin:round"
   d="M 63.963,816.432 L 63.963,377.664"
   id="path25" />
				</g>
			</g>
			<g
   id="g27">
				<g
   id="g29">
					<path
   style="fill:none;stroke:#796b99;stroke-width:5.6869998;stroke-linecap:round;stroke-linejoin:round"
   d="M 72.891,816.432 L 72.891,377.664"
   id="path31" />
				</g>
			</g>
			<g
   id="g33">
				<g
   id="g35">
					<path
   style="fill:none;stroke:#796b99;stroke-width:5.6869998;stroke-linecap:round;stroke-linejoin:round"
   d="M 81.891,816.432 L 81.891,377.664"
   id="path37" />
				</g>
			</g>
			<g
   id="g39">
				<g
   id="g41">
					<path
   style="fill:none;stroke:#796b99;stroke-width:5.6869998;stroke-linecap:round;stroke-linejoin:round"
   d="M 90.891,816.432 L 90.891,377.664"
   id="path43" />
				</g>
			</g>
			<g
   id="g45">
				<g
   id="g47">
					<path
   style="fill:none;stroke:#796b99;stroke-width:5.6869998;stroke-linecap:round;stroke-linejoin:round"
   d="M 99.819,816.432 L 99.819,377.664"
   id="path49" />
				</g>
			</g>
			<g
   id="g51">
				<g
   id="g53">
					<path
   style="fill:none;stroke:#796b99;stroke-width:5.6869998;stroke-linecap:round;stroke-linejoin:round"
   d="M 108.891,816.432 L 108.891,377.664"
   id="path55" />
				</g>
			</g>
			<g
   id="g57">
				<g
   id="g59">
					<path
   style="fill:none;stroke:#796b99;stroke-width:5.6869998;stroke-linecap:round;stroke-linejoin:round"
   d="M 117.748,816.432 L 117.748,377.664"
   id="path61" />
				</g>
			</g>
			<g
   id="g63">
				<g
   id="g65">
					<path
   style="fill:none;stroke:#796b99;stroke-width:5.6869998;stroke-linecap:round;stroke-linejoin:round"
   d="M 126.748,816.432 L 126.748,377.664"
   id="path67" />
				</g>
			</g>
			<g
   id="g69">
				<g
   id="g71">
					<path
   style="fill:none;stroke:#796b99;stroke-width:5.6869998;stroke-linecap:round;stroke-linejoin:round"
   d="M 135.747,816.432 L 135.747,377.664"
   id="path73" />
				</g>
			</g>
			<g
   id="g75">
				<g
   id="g77">
					<path
   style="fill:none;stroke:#796b99;stroke-width:5.6869998;stroke-linecap:round;stroke-linejoin:round"
   d="M 144.675,816.432 L 144.675,377.664"
   id="path79" />
				</g>
			</g>
			<g
   id="g81">
				<g
   id="g83">
					<path
   style="fill:none;stroke:#796b99;stroke-width:5.6869998;stroke-linecap:round;stroke-linejoin:round"
   d="M 153.675,816.432 L 153.675,377.664"
   id="path85" />
				</g>
			</g>
			<g
   id="g87">
				<g
   id="g89">
					<path
   style="fill:none;stroke:#796b99;stroke-width:5.6869998;stroke-linecap:round;stroke-linejoin:round"
   d="M 162.675,816.432 L 162.675,377.664"
   id="path91" />
				</g>
			</g>
			<g
   id="g93">
				<g
   id="g95">
					<path
   style="fill:none;stroke:#796b99;stroke-width:5.6869998;stroke-linecap:round;stroke-linejoin:round"
   d="M 171.603,816.432 L 171.603,377.664"
   id="path97" />
				</g>
			</g>
		</g><g
     id="g99">
			<g
   id="g101">
				<path
   style="fill:#655249"
   d="M 202.995,396.24 C 203.499,387.312 204.003,378.312 204.291,369.312 C 207.675,370.104 211.203,370.896 214.731,371.976 C 214.443,380.112 213.939,388.176 213.435,396.24 L 202.995,396.24 z"
   id="path103" />
				<path
   style="fill:#655249"
   d="M 174.34,565.439 C 175.851,564.864 177.363,564.288 178.875,563.711 C 178.947,562.919 178.875,562.199 178.875,561.48 C 178.515,541.751 173.475,522.168 168.507,502.368 C 166.275,504.024 169.443,503.448 160.804,505.896 C 152.163,508.271 127.971,493.944 123.363,480.768 C 118.755,467.664 120.267,464.423 122.139,457.007 C 106.011,448.511 90.243,441.024 74.979,434.4 C 76.635,430.368 78.436,426.192 80.379,421.944 C 95.499,428.713 111.195,436.56 127.323,445.632 C 130.419,441.385 129.267,439.441 139.203,436.561 C 149.067,433.752 173.619,456.361 176.643,466.512 C 179.667,476.664 177.147,468.025 177.363,468.96 C 184.923,468.96 192.411,469.608 199.899,470.688 C 199.611,462.697 199.611,454.849 199.899,447.145 C 200.619,429.936 201.915,413.088 202.995,396.241 L 213.435,396.241 C 212.499,411.865 211.347,427.417 210.699,443.184 C 214.011,438.504 218.474,435.84 223.084,437.713 C 233.523,441.817 235.827,445.849 241.443,452.688 C 249.507,443.688 258.147,435.049 267.363,426.913 C 270.172,431.089 272.907,435.266 275.787,439.441 C 266.715,447.793 258.291,456.504 250.299,465.793 C 253.827,471.841 254.836,471.77 258.004,484.298 C 261.316,496.825 249.219,511.225 241.155,508.058 C 233.092,504.746 236.691,506.041 234.459,504.601 C 238.491,521.88 242.523,539.09 244.18,556.441 C 260.668,558.962 277.157,562.345 293.428,565.441 L 231.148,565.441 C 231.436,561.914 231.58,558.458 231.652,554.929 C 233.956,555.217 236.332,555.505 238.635,555.793 C 236.907,534.913 231.364,514.033 226.323,493.081 C 229.203,495.961 229.563,496.825 235.394,499.058 C 241.298,501.362 248.859,495.818 245.763,483.866 C 242.595,471.914 232.874,458.809 223.802,455.282 C 214.802,451.826 211.202,463.706 213.434,471.842 C 215.666,479.977 216.386,480.051 218.69,483.794 C 216.242,483.218 213.722,482.642 211.274,482.138 C 212.354,497.33 214.37,512.81 216.818,528.363 C 213.074,528.722 209.546,529.083 205.802,529.803 C 203.426,513.458 201.41,496.826 200.33,480.41 C 191.402,479.114 182.33,478.61 173.33,479.114 C 173.33,476.306 174.266,477.962 172.035,470.402 C 169.658,462.77 157.922,449.09 148.706,451.681 C 139.49,454.202 135.098,466.729 138.986,478.322 C 142.874,489.986 155.69,496.538 162.242,494.953 C 168.794,493.441 169.586,491.354 171.458,487.322 C 178.226,511.874 185.354,536.354 185.714,561.051 C 188.09,560.403 190.322,559.683 192.698,558.891 C 192.626,561.051 192.554,563.283 192.338,565.442 L 174.34,565.442 L 174.34,565.439 z"
   id="path105" />
				<path
   style="fill:#655249"
   d="M 204.435,565.439 C 204.075,564.072 203.859,562.56 203.859,561.048 C 203.571,554.423 207.027,549.384 211.779,549.888 C 216.459,550.463 220.779,556.656 221.067,563.423 C 221.067,564.144 221.067,564.791 220.923,565.439 L 204.435,565.439 z"
   id="path107" />
				<path
   style="fill:#655249"
   d="M 174.34,565.439 C 155.763,572.568 136.899,581.208 117.675,590.208 C 92.259,602.089 66.411,610.656 41.139,615.12 C 40.635,618 39.987,620.881 39.123,623.904 C 64.107,620.16 89.883,612.311 115.731,601.297 C 136.827,592.152 157.779,583.152 178.299,575.664 C 176.859,590.352 172.899,604.824 168.435,619.297 C 166.852,618.792 171.459,618 163.467,618.72 C 155.475,619.441 129.843,641.184 124.299,653.496 C 118.755,665.736 119.907,667.032 120.843,672.288 C 104.571,685.464 88.804,698.207 73.683,710.519 C 75.051,713.256 76.635,715.992 78.219,718.799 C 92.763,706.272 108.315,693.455 124.515,680.279 C 127.251,683.23 126.459,684.815 135.963,685.247 C 138.483,685.319 142.083,683.88 146.187,681.359 C 131.571,705.047 122.211,728.951 117.963,752.207 C 120.843,751.415 123.579,750.839 126.387,750.335 C 131.643,724.703 143.307,698.352 160.947,672.359 C 166.635,664.151 172.251,655.943 177.867,647.806 C 185.427,648.383 192.915,649.391 200.403,650.542 C 198.387,653.566 199.971,649.03 195.363,660.118 C 190.755,671.134 197.091,696.91 207.243,698.998 C 217.467,701.087 220.275,698.782 226.539,695.038 C 231.795,710.806 237.483,726.358 244.035,741.767 C 246.987,739.39 250.012,737.159 253.18,734.71 C 247.131,719.087 241.659,703.175 236.619,687.047 C 240.651,682.943 241.515,683.949 246.555,671.998 C 251.451,660.118 241.516,633.406 234.459,631.391 C 227.26,629.374 233.739,631.175 233.379,631.175 C 239.859,610.582 245.26,589.702 244.9,568.679 C 264.051,571.342 283.133,575.014 301.924,578.111 C 325.323,581.854 348.723,582.503 372.412,579.191 C 372.771,575.95 372.988,572.711 373.131,569.471 C 349.371,572.494 325.827,571.413 302.428,567.094 C 299.404,566.59 296.379,566.014 293.428,565.438 L 231.148,565.438 C 231.076,565.943 231.076,566.518 231.004,567.023 C 233.811,567.239 236.475,567.598 239.283,570.191 C 238.995,592.583 232.443,614.831 225.027,636.791 C 226.252,636.719 223.731,635.855 228.554,637.151 C 233.523,638.447 240.794,650.903 235.97,662.279 C 231.218,673.726 220.202,681.143 211.419,679.199 C 202.707,677.327 200.979,662.927 204.291,654.791 C 207.675,646.655 209.043,646.079 212.355,642.983 C 202.851,641.327 193.275,640.031 183.627,639.094 C 194.283,623.182 204.219,607.343 212.211,591.359 C 208.467,591.863 204.651,592.583 200.907,593.231 C 193.275,608.422 184.203,623.399 174.555,638.375 C 173.475,638.303 172.323,638.231 171.316,638.159 C 171.459,640.247 171.819,641.039 171.243,643.487 C 167.139,649.823 162.891,656.231 158.643,662.567 C 154.036,666.598 148.707,669.623 144.315,669.623 C 135.459,669.479 132.291,660.695 137.187,649.535 C 142.011,638.518 155.403,628.583 161.667,628.296 C 168.075,628.007 168.435,629.951 170.019,632.976 C 177.003,613.32 183.555,593.448 185.283,573.36 C 187.443,572.639 189.603,571.92 191.763,571.2 C 191.979,569.257 192.195,567.385 192.339,565.439 L 174.34,565.439 L 174.34,565.439 z"
   id="path109" />
				<path
   style="fill:#655249"
   d="M 204.435,565.439 C 205.659,570.12 208.683,573.792 212.355,574.223 C 216.531,574.656 220.275,570.984 220.923,565.439 L 204.435,565.439 z"
   id="path111" />
			</g>
			<g
   id="g113">
				<path
   style="fill:none;stroke:#364239;stroke-width:7.99100018;stroke-linecap:round;stroke-linejoin:round"
   d="M 185.283,573.36 C 183.555,593.448 177.003,613.32 170.019,632.976 C 168.435,629.952 168.075,628.007 161.667,628.296 C 155.403,628.583 142.011,638.519 137.187,649.535 C 132.291,660.695 135.459,669.479 144.315,669.623 C 148.707,669.623 154.036,666.599 158.643,662.567 C 162.891,656.231 167.139,649.823 171.243,643.487 C 171.819,641.039 171.459,640.247 171.316,638.159 C 172.323,638.231 173.475,638.303 174.555,638.375 C 184.203,623.399 193.275,608.423 200.907,593.231 C 204.651,592.583 208.467,591.863 212.211,591.359 C 204.219,607.343 194.283,623.182 183.627,639.094 C 193.275,640.031 202.851,641.326 212.355,642.983 C 209.043,646.079 207.675,646.655 204.291,654.791 C 200.979,662.927 202.707,677.327 211.419,679.199 C 220.203,681.143 231.218,673.726 235.97,662.279 C 240.794,650.903 233.523,638.447 228.554,637.151 C 223.731,635.855 226.251,636.718 225.027,636.791 C 232.443,614.831 238.995,592.583 239.283,570.191 C 236.474,567.598 233.81,567.239 231.004,567.023 C 231.363,562.991 231.579,558.959 231.651,554.926 C 233.955,555.214 236.331,555.502 238.634,555.79 C 236.906,534.91 231.363,514.03 226.322,493.078 C 229.202,495.958 229.562,496.822 235.393,499.055 C 241.297,501.359 248.858,495.815 245.762,483.863 C 242.594,471.911 232.873,458.806 223.801,455.279 C 214.801,451.823 211.201,463.703 213.433,471.839 C 215.665,479.974 216.385,480.048 218.689,483.791 C 216.241,483.215 213.721,482.639 211.273,482.135 C 212.353,497.327 214.369,512.807 216.817,528.36 C 213.073,528.719 209.545,529.08 205.801,529.8 C 203.425,513.455 201.409,496.823 200.329,480.407 C 191.401,479.111 182.329,478.607 173.329,479.111 C 173.329,476.303 174.265,477.959 172.034,470.399 C 169.657,462.767 157.921,449.087 148.705,451.678 C 139.489,454.199 135.097,466.726 138.985,478.319 C 142.873,489.983 155.689,496.535 162.241,494.95 C 168.793,493.438 169.585,491.351 171.457,487.319 C 178.225,511.871 185.353,536.351 185.713,561.048 C 188.089,560.4 190.321,559.68 192.697,558.888 C 192.625,562.992 192.265,567.095 191.761,571.2 C 189.603,571.92 187.443,572.64 185.283,573.36 z"
   id="path115" />
				<path
   style="fill:none;stroke:#364239;stroke-width:7.99100018;stroke-linecap:round;stroke-linejoin:round"
   d="M 178.875,563.712 C 178.947,562.92 178.875,562.2 178.875,561.481 C 178.515,541.752 173.475,522.169 168.507,502.369 C 166.275,504.025 169.443,503.449 160.804,505.897 C 152.163,508.272 127.971,493.945 123.363,480.769 C 118.755,467.665 120.267,464.424 122.139,457.008 C 106.011,448.512 90.243,441.025 74.979,434.401 C 76.635,430.369 78.436,426.193 80.379,421.945 C 95.499,428.714 111.195,436.561 127.323,445.633 C 130.419,441.386 129.267,439.442 139.203,436.562 C 149.067,433.753 173.619,456.362 176.643,466.513 C 179.667,476.665 177.147,468.026 177.363,468.961 C 184.923,468.961 192.411,469.609 199.899,470.689 C 199.611,462.698 199.611,454.85 199.899,447.146 C 200.979,420.721 203.499,395.234 204.291,369.313 C 207.675,370.105 211.203,370.897 214.731,371.977 C 213.795,395.881 211.707,419.281 210.699,443.185 C 214.011,438.505 218.474,435.841 223.084,437.714 C 233.523,441.818 235.827,445.85 241.443,452.689 C 249.507,443.689 258.147,435.05 267.363,426.914 C 270.172,431.09 272.907,435.267 275.787,439.442 C 266.715,447.794 258.291,456.505 250.299,465.794 C 253.827,471.842 254.836,471.771 258.004,484.299 C 261.316,496.826 249.219,511.226 241.155,508.059 C 233.092,504.747 236.691,506.042 234.459,504.602 C 238.491,521.881 242.523,539.091 244.18,556.442 C 263.764,559.466 283.204,563.642 302.428,567.098 C 325.827,571.417 349.371,572.498 373.131,569.475 C 372.988,572.714 372.772,575.954 372.412,579.195 C 348.723,582.507 325.323,581.858 301.924,578.115 C 283.133,575.018 264.051,571.346 244.9,568.683 C 245.26,589.706 239.86,610.586 233.379,631.179 C 233.739,631.179 227.26,629.378 234.459,631.395 C 241.516,633.411 251.451,660.123 246.555,672.002 C 241.516,683.953 240.652,682.946 236.619,687.051 C 241.659,703.179 247.131,719.091 253.18,734.714 C 250.012,737.162 246.988,739.394 244.035,741.771 C 237.483,726.363 231.795,710.81 226.539,695.042 C 220.275,698.786 217.467,701.091 207.243,699.002 C 197.091,696.914 190.755,671.138 195.363,660.122 C 199.971,649.034 198.387,653.57 200.403,650.546 C 192.915,649.395 185.427,648.387 177.867,647.81 C 172.251,655.947 166.635,664.155 160.947,672.363 C 143.307,698.355 131.643,724.707 126.387,750.339 C 123.579,750.843 120.843,751.419 117.963,752.211 C 122.211,728.955 131.571,705.052 146.187,681.363 C 142.083,683.884 138.483,685.323 135.963,685.251 C 126.459,684.819 127.251,683.234 124.515,680.283 C 108.315,693.459 92.763,706.275 78.219,718.803 C 76.635,715.995 75.051,713.26 73.683,710.523 C 88.804,698.211 104.571,685.467 120.843,672.292 C 119.907,667.036 118.755,665.74 124.299,653.5 C 129.843,641.188 155.475,619.444 163.467,618.724 C 171.459,618.004 166.852,618.796 168.435,619.301 C 172.899,604.828 176.859,590.357 178.299,575.668 C 157.779,583.156 136.827,592.156 115.731,601.301 C 89.883,612.316 64.106,620.164 39.123,623.908 C 39.987,620.885 40.635,618.004 41.139,615.124 C 66.411,610.66 92.259,602.093 117.675,590.212 C 138.483,580.487 158.787,571.128 178.875,563.712 z"
   id="path117" />
				<path
   style="fill:none;stroke:#364239;stroke-width:7.99100018;stroke-linecap:round;stroke-linejoin:round"
   d="M 212.355,574.224 C 207.603,573.649 203.931,567.745 203.859,561.049 C 203.571,554.424 207.027,549.385 211.779,549.889 C 216.459,550.464 220.779,556.657 221.067,563.424 C 221.139,570.049 217.035,574.728 212.355,574.224 z"
   id="path119" />
			</g>
		</g><g
     id="g121">
			<path
   style="stroke:#583e4b;stroke-width:0.215;stroke-linecap:round;stroke-linejoin:round"
   d="M 256.059,731.473 C 250.444,731.617 247.707,722.905 250.371,711.96 C 253.252,701.016 260.668,691.728 266.787,691.584 C 272.907,691.368 275.067,700.439 271.756,711.528 C 268.588,722.473 261.747,731.328 256.059,731.473 z"
   id="path123" />
			<path
   style="stroke:#583e4b;stroke-width:0.215;stroke-linecap:round;stroke-linejoin:round"
   d="M 147.34,725.064 C 139.995,728.16 134.667,721.464 135.243,709.944 C 136.107,698.352 143.163,686.328 150.867,683.16 C 158.643,680.207 164.043,687.049 162.675,698.568 C 161.523,710.016 154.611,721.896 147.34,725.064 z"
   id="path125" />
			<path
   style="stroke:#583e4b;stroke-width:0.215;stroke-linecap:round;stroke-linejoin:round"
   d="M 65.907,657.312 C 51.003,660.265 40.779,649.537 44.235,635.281 C 49.563,620.665 68.499,607.561 82.611,605.688 C 96.723,603.312 101.979,612.817 97.443,626.712 C 94.563,640.248 80.811,654.36 65.907,657.312 z"
   id="path127" />
			<path
   style="stroke:#583e4b;stroke-width:0.215;stroke-linecap:round;stroke-linejoin:round"
   d="M 317.764,546.504 C 314.236,544.849 312.795,535.272 315.316,523.897 C 318.196,512.376 324.028,503.737 328.061,505.321 C 331.803,507.553 331.948,519.217 328.852,530.449 C 326.043,541.608 321.363,548.304 317.764,546.504 z"
   id="path129" />
			<path
   style="stroke:#583e4b;stroke-width:0.215;stroke-linecap:round;stroke-linejoin:round"
   d="M 147.051,534.624 C 142.155,534.984 136.467,523.896 134.307,509.784 C 132.291,495.673 135.099,484.08 140.643,483.935 C 146.115,483.576 151.731,494.807 153.099,508.704 C 154.683,522.528 151.947,534.265 147.051,534.624 z"
   id="path131" />
			<path
   style="stroke:#583e4b;stroke-width:0.215;stroke-linecap:round;stroke-linejoin:round"
   d="M 176.067,790.512 C 170.523,792.6 163.467,788.136 161.883,779.569 C 160.804,771.001 165.267,761.785 171.243,759.481 C 177.219,757.465 182.115,763.441 182.835,772.153 C 183.987,780.648 181.539,788.353 176.067,790.512 z"
   id="path133" />
			<path
   style="stroke:#583e4b;stroke-width:0.215;stroke-linecap:round;stroke-linejoin:round"
   d="M 312.436,445.704 C 304.588,446.64 301.492,436.271 306.676,421.656 C 313.156,407.04 327.627,393.504 336.988,391.776 C 346.061,390.912 345.412,402.719 337.635,417.624 C 331.156,432.456 320.283,444.696 312.436,445.704 z"
   id="path135" />
			<path
   style="stroke:#583e4b;stroke-width:0.215;stroke-linecap:round;stroke-linejoin:round"
   d="M 276.291,608.496 C 274.924,608.64 273.915,605.976 274.131,602.448 C 274.276,598.92 275.645,596.04 277.012,595.895 C 278.451,595.824 279.387,598.631 279.316,602.088 C 278.955,605.544 277.659,608.424 276.291,608.496 z"
   id="path137" />
			<path
   style="stroke:#583e4b;stroke-width:0.215;stroke-linecap:round;stroke-linejoin:round"
   d="M 138.339,571.776 C 136.107,571.776 133.947,568.248 133.443,563.927 C 132.939,559.751 134.379,556.223 136.611,556.079 C 138.987,556.007 141.291,559.318 141.723,563.639 C 142.227,567.889 140.571,571.561 138.339,571.776 z"
   id="path139" />
			<path
   style="stroke:#583e4b;stroke-width:0.215;stroke-linecap:round;stroke-linejoin:round"
   d="M 52.804,808.44 C 51.292,808.584 49.059,804.48 48.123,799.368 C 47.187,794.257 47.619,789.935 49.131,789.72 C 50.643,789.576 52.731,793.536 53.595,798.576 C 54.603,803.688 54.243,808.295 52.804,808.44 z"
   id="path141" />
			<path
   style="stroke:#583e4b;stroke-width:0.215;stroke-linecap:round;stroke-linejoin:round"
   d="M 228.987,540.312 C 227.619,540.96 226.611,537.649 226.899,533.257 C 227.043,528.936 228.411,524.832 229.779,524.257 C 231.218,523.752 232.155,526.92 231.867,531.385 C 231.723,535.776 230.355,539.808 228.987,540.312 z"
   id="path143" />
			<path
   style="stroke:#583e4b;stroke-width:0.215;stroke-linecap:round;stroke-linejoin:round"
   d="M 210.339,649.752 C 206.379,650.257 203.931,644.424 204.939,636.792 C 205.731,629.089 209.691,622.248 213.723,621.744 C 217.683,621.096 220.275,626.928 219.34,634.704 C 218.331,642.48 214.227,649.248 210.339,649.752 z"
   id="path145" />
		</g><g
     id="g147">
			<g
   id="g149">
				<g
   id="g151">
					<path
   style="fill:#a3bdc3"
   d="M 198.963,567.096 C 174.123,575.016 148.707,586.033 122.931,597.12 C 97.083,608.136 71.307,616.057 46.323,619.727 C 47.187,616.704 47.835,613.824 48.339,610.944 C 73.683,606.552 99.459,597.912 124.875,586.032 C 150.364,574.152 175.275,562.632 199.899,554.712 C 199.827,558.816 199.539,562.992 198.963,567.096 z"
   id="path153" />
				</g>
				<g
   id="g155">
					<path
   style="fill:none;stroke:#727074;stroke-width:5.6869998;stroke-linecap:round;stroke-linejoin:round"
   d="M 198.963,567.096 C 174.123,575.016 148.707,586.033 122.931,597.12 C 97.083,608.136 71.307,616.057 46.323,619.727 C 47.187,616.704 47.835,613.824 48.339,610.944 C 73.683,606.552 99.459,597.912 124.875,586.032 C 150.364,574.152 175.275,562.632 199.899,554.712 C 199.827,558.816 199.539,562.992 198.963,567.096 z"
   id="path157" />
				</g>
			</g>
			<g
   id="g159">
				<g
   id="g161">
					<path
   style="fill:#a3bdc3"
   d="M 379.611,575.016 C 355.923,578.328 332.523,577.752 309.123,573.936 C 285.795,570.121 262.107,565.295 238.203,562.849 C 238.563,558.817 238.779,554.712 238.851,550.752 C 262.611,553.561 286.298,558.744 309.626,562.992 C 333.026,567.24 356.571,568.319 380.331,565.295 C 380.188,568.536 379.9,571.776 379.611,575.016 z"
   id="path163" />
				</g>
				<g
   id="g165">
					<path
   style="fill:none;stroke:#727074;stroke-width:5.6869998;stroke-linecap:round;stroke-linejoin:round"
   d="M 379.611,575.016 C 355.923,578.328 332.523,577.752 309.123,573.936 C 285.795,570.121 262.107,565.295 238.203,562.849 C 238.563,558.817 238.779,554.712 238.851,550.752 C 262.611,553.561 286.298,558.744 309.626,562.992 C 333.026,567.24 356.571,568.319 380.331,565.295 C 380.188,568.536 379.9,571.776 379.611,575.016 z"
   id="path167" />
				</g>
			</g>
			<g
   id="g169">
				<g
   id="g171">
					<path
   style="fill:#a3bdc3"
   d="M 219.411,587.184 C 205.803,614.257 186.867,640.896 168.147,668.257 C 150.507,694.177 138.843,720.6 133.587,746.16 C 130.707,746.736 128.043,747.311 125.235,748.032 C 129.843,722.544 140.643,696.336 157.779,670.487 C 175.779,643.344 194.355,616.488 208.035,589.128 C 211.851,588.48 215.739,587.761 219.411,587.184 z"
   id="path173" />
				</g>
				<g
   id="g175">
					<path
   style="fill:none;stroke:#727074;stroke-width:5.6869998;stroke-linecap:round;stroke-linejoin:round"
   d="M 219.411,587.184 C 205.803,614.257 186.867,640.896 168.147,668.257 C 150.507,694.177 138.843,720.6 133.587,746.16 C 130.707,746.736 128.043,747.311 125.235,748.032 C 129.843,722.544 140.643,696.336 157.779,670.487 C 175.779,643.344 194.355,616.488 208.035,589.128 C 211.851,588.48 215.739,587.761 219.411,587.184 z"
   id="path177" />
				</g>
			</g>
			<g
   id="g179">
				<g
   id="g181">
					<path
   style="fill:#a3bdc3"
   d="M 209.907,396.24 C 210.555,385.872 211.203,375.576 211.491,365.136 C 214.947,365.928 218.403,366.72 221.931,367.8 C 221.571,377.304 220.994,386.808 220.419,396.24 L 209.907,396.24 z"
   id="path183" />
					<path
   style="fill:#a3bdc3"
   d="M 209.907,396.24 C 208.971,411.719 207.819,427.128 207.099,442.969 C 206.019,469.897 208.971,498.049 213.075,525.624 C 216.747,524.903 220.347,524.544 224.019,524.184 C 219.843,496.969 216.819,469.68 217.755,443.401 C 218.259,427.561 219.41,411.936 220.419,396.241 L 209.907,396.241 L 209.907,396.24 z"
   id="path185" />
				</g>
				<g
   id="g187">
					<path
   style="fill:none;stroke:#727074;stroke-width:5.6869998;stroke-linecap:round;stroke-linejoin:round"
   d="M 221.932,367.8 C 220.995,393.144 218.62,417.984 217.756,443.4 C 216.819,469.679 219.844,496.968 224.02,524.183 C 220.348,524.543 216.748,524.903 213.076,525.623 C 208.972,498.048 206.02,469.895 207.1,442.968 C 208.252,416.543 210.7,391.055 211.492,365.135 C 214.947,365.928 218.403,366.72 221.932,367.8 z"
   id="path189" />
				</g>
			</g>
		</g><g
     id="g191">
			<g
   id="g193">
				<path
   style="fill:#0380b7"
   d="M 186.147,561.265 C 186.147,559.969 186.147,558.6 186.147,557.304 C 185.715,537.649 180.675,517.992 175.707,498.193 C 173.475,499.849 176.643,499.345 168.003,501.72 C 159.435,504.096 135.243,489.769 130.635,476.664 C 125.955,463.488 127.467,460.248 129.339,452.832 C 113.211,444.408 97.443,436.849 82.251,430.297 C 83.835,426.193 85.707,422.016 87.579,417.769 C 102.699,424.537 118.467,432.385 134.595,441.457 C 137.619,437.209 136.539,435.266 146.403,432.386 C 156.267,429.65 180.891,452.185 183.843,462.337 C 186.939,472.488 184.347,463.921 184.563,464.785 C 195.003,464.857 205.443,465.936 215.811,468.169 C 214.803,465.505 216.027,471.121 213.003,459.89 C 209.907,448.729 219.771,429.362 230.283,433.537 C 240.722,437.714 243.027,441.745 248.642,448.513 C 256.706,439.513 265.347,430.946 274.634,422.738 C 277.37,426.914 280.108,431.09 282.987,435.266 C 273.987,443.689 265.491,452.329 257.499,461.618 C 261.027,467.666 262.035,467.594 265.275,480.122 C 268.515,492.722 256.491,507.051 248.355,503.883 C 240.291,500.642 243.89,501.866 241.731,500.426 C 246.339,520.73 251.163,540.891 252.027,561.267 L 246.483,561.267 C 245.763,537.075 239.355,513.027 233.523,488.907 C 236.474,491.787 236.691,492.722 242.595,494.884 C 248.571,497.187 256.058,491.643 252.962,479.691 C 249.866,467.811 240.074,454.635 231.074,451.18 C 222.003,447.652 218.402,459.532 220.634,467.667 C 222.866,475.875 223.658,475.947 225.89,479.619 C 210.914,476.018 195.723,474.147 180.531,474.938 C 180.531,472.13 181.539,473.787 179.235,466.226 C 176.859,458.594 165.123,444.914 155.907,447.506 C 146.691,450.027 142.299,462.555 146.187,474.147 C 150.075,485.81 162.891,492.363 169.515,490.779 C 176.067,489.339 176.859,487.179 178.731,483.147 C 185.427,507.699 192.555,532.251 192.915,556.875 C 192.915,558.314 192.915,559.827 192.915,561.268 L 186.147,561.268 L 186.147,561.265 z"
   id="path195" />
				<path
   style="fill:#0380b7"
   d="M 186.147,561.265 C 185.859,579.336 181.107,597.336 175.563,615.12 C 174.123,614.687 178.659,613.895 170.667,614.616 C 162.747,615.336 137.043,637.008 131.499,649.32 C 125.956,661.56 127.179,662.927 128.043,668.184 C 111.843,681.288 96.002,694.032 80.955,706.414 C 82.323,709.151 83.763,711.888 85.419,714.623 C 99.962,702.095 115.514,689.279 131.714,676.102 C 134.45,679.055 133.658,680.638 143.162,680.998 C 152.666,681.502 178.658,658.967 182.906,648.814 C 187.226,638.589 184.346,645.358 184.85,643.558 C 192.41,644.205 200.042,645.213 207.674,646.366 C 205.658,649.39 207.17,644.854 202.562,655.942 C 197.954,666.958 204.29,692.734 214.442,694.822 C 224.667,696.91 227.473,694.606 233.809,690.862 C 238.994,706.63 244.682,722.182 251.234,737.591 C 254.186,735.286 257.282,732.983 260.378,730.607 C 254.33,714.911 248.858,698.999 243.89,682.871 C 247.923,678.767 248.714,679.775 253.755,667.823 C 258.651,655.943 248.714,629.231 241.658,627.215 C 234.458,625.127 240.938,626.999 240.578,626.999 C 247.13,606.335 252.602,585.384 252.099,564.359 C 252.099,563.351 252.027,562.271 252.027,561.263 L 246.483,561.263 C 246.483,561.334 246.483,561.479 246.483,561.551 C 247.058,585.527 240.147,609.214 232.226,632.614 C 233.451,632.542 230.931,631.678 235.827,632.974 C 240.723,634.27 247.995,646.725 243.172,658.174 C 238.491,669.621 227.403,677.037 218.619,675.022 C 209.907,673.078 208.179,658.822 211.491,650.614 C 214.875,642.478 216.315,641.902 219.627,638.805 C 205.947,636.358 192.267,634.774 178.515,634.054 C 178.731,637.294 179.595,637.366 176.283,645.142 C 173.043,652.917 160.299,665.589 151.515,665.446 C 142.659,665.301 139.491,656.517 144.387,645.429 C 149.283,634.342 162.603,624.406 168.867,624.046 C 175.275,623.829 175.563,625.774 177.219,628.798 C 185.067,606.621 192.411,584.086 192.915,561.262 L 186.147,561.262 L 186.147,561.265 z"
   id="path197" />
			</g>
			<g
   id="g199">
				<path
   style="fill:none;stroke:#d72715;stroke-width:4.53499985;stroke-linecap:round;stroke-linejoin:round"
   d="M 131.715,676.104 C 115.515,689.281 99.963,702.096 85.42,714.625 C 83.763,711.89 82.323,709.153 80.956,706.416 C 96.003,694.033 111.844,681.289 128.044,668.186 C 127.18,662.929 125.956,661.562 131.5,649.322 C 137.044,637.01 162.748,615.338 170.668,614.618 C 178.66,613.897 174.124,614.689 175.564,615.122 C 181.54,596.042 186.58,576.746 186.148,557.306 C 185.716,537.651 180.676,517.994 175.708,498.195 C 173.476,499.851 176.644,499.347 168.004,501.722 C 159.436,504.098 135.244,489.771 130.636,476.666 C 125.956,463.49 127.468,460.25 129.34,452.834 C 113.212,444.41 97.444,436.851 82.252,430.299 C 83.836,426.195 85.708,422.018 87.58,417.771 C 102.7,424.539 118.468,432.387 134.596,441.459 C 137.62,437.211 136.54,435.268 146.404,432.388 C 156.268,429.652 180.892,452.187 183.844,462.339 C 186.94,472.49 184.348,463.923 184.564,464.787 C 195.004,464.859 205.444,465.938 215.812,468.171 C 214.804,465.507 216.028,471.123 213.004,459.892 C 209.908,448.731 219.772,429.364 230.284,433.539 C 240.723,437.716 243.028,441.747 248.643,448.515 C 256.707,439.515 265.348,430.948 274.635,422.74 C 277.371,426.916 280.109,431.092 282.988,435.268 C 273.988,443.691 265.492,452.331 257.5,461.62 C 261.028,467.668 262.036,467.596 265.276,480.124 C 268.516,492.724 256.492,507.053 248.356,503.885 C 240.292,500.644 243.891,501.868 241.732,500.428 C 246.555,521.74 251.669,542.979 252.1,564.365 C 252.604,585.389 247.131,606.341 240.579,627.005 C 240.939,627.005 234.459,625.133 241.659,627.221 C 248.715,629.238 258.651,655.95 253.756,667.829 C 248.715,679.781 247.924,678.773 243.891,682.877 C 248.86,699.005 254.331,714.917 260.379,730.613 C 257.283,732.989 254.188,735.293 251.235,737.597 C 244.683,722.189 238.995,706.636 233.81,690.868 C 227.474,694.612 224.667,696.916 214.443,694.828 C 204.291,692.74 197.955,666.964 202.563,655.948 C 207.171,644.86 205.659,649.396 207.675,646.372 C 200.043,645.22 192.411,644.212 184.851,643.564 C 184.347,645.364 187.227,638.595 182.907,648.82 C 178.659,658.972 152.667,681.508 143.163,681.004 C 133.659,680.64 134.451,679.057 131.715,676.104 z"
   id="path201" />
				<path
   style="fill:none;stroke:#d72715;stroke-width:4.53499985;stroke-linecap:round;stroke-linejoin:round"
   d="M 219.627,638.808 C 216.315,641.905 214.876,642.481 211.491,650.617 C 208.179,658.825 209.907,673.081 218.619,675.025 C 227.403,677.041 238.491,669.625 243.172,658.177 C 247.995,646.728 240.723,634.273 235.827,632.977 C 230.931,631.681 233.451,632.544 232.226,632.617 C 240.147,609.217 247.058,585.529 246.483,561.554 C 245.836,537.289 239.355,513.097 233.523,488.906 C 236.474,491.786 236.691,492.721 242.595,494.883 C 248.571,497.186 256.058,491.642 252.962,479.69 C 249.866,467.81 240.074,454.634 231.074,451.179 C 222.003,447.651 218.402,459.531 220.634,467.666 C 222.866,475.874 223.658,475.946 225.89,479.618 C 210.914,476.017 195.723,474.146 180.531,474.937 C 180.531,472.129 181.539,473.786 179.235,466.225 C 176.859,458.593 165.123,444.913 155.907,447.505 C 146.691,450.026 142.299,462.554 146.187,474.146 C 150.075,485.809 162.891,492.362 169.515,490.778 C 176.067,489.338 176.859,487.178 178.731,483.146 C 185.427,507.698 192.555,532.25 192.915,556.874 C 193.347,581.21 185.572,605.186 177.219,628.803 C 175.563,625.779 175.275,623.834 168.867,624.051 C 162.603,624.41 149.283,634.347 144.387,645.434 C 139.491,656.522 142.659,665.306 151.515,665.451 C 160.299,665.595 173.043,652.923 176.283,645.147 C 179.595,637.371 178.731,637.299 178.515,634.059 C 192.267,634.776 205.947,636.36 219.627,638.808 z"
   id="path203" />
			</g>
		</g><path
     style="fill:#ff0000"
     d="M 219.555,570.049 C 214.804,569.473 211.132,563.64 211.059,556.945 C 210.771,550.32 214.227,545.209 219.051,545.713 C 223.732,546.361 227.979,552.482 228.34,559.178 C 228.411,565.872 224.307,570.553 219.555,570.049 z"
     id="path205" /><g
     id="g207">
			<path
   style="fill:#ffff00;stroke:#ff6600;stroke-width:0.215;stroke-linecap:round;stroke-linejoin:round"
   d="M 263.043,745.944 C 257.355,746.015 254.619,737.303 257.283,726.431 C 260.163,715.415 267.579,706.127 273.771,705.984 C 279.89,705.839 282.05,714.839 278.667,725.927 C 275.499,736.872 268.659,745.8 263.043,745.944 z"
   id="path209" />
			<path
   style="fill:#ffff00;stroke:#ff6600;stroke-width:0.215;stroke-linecap:round;stroke-linejoin:round"
   d="M 154.251,739.465 C 146.979,742.632 141.507,735.936 142.083,724.416 C 143.091,712.752 150.075,700.728 157.852,697.561 C 165.483,694.609 170.883,701.52 169.587,713.04 C 168.435,724.488 161.523,736.368 154.251,739.465 z"
   id="path211" />
			<path
   style="fill:#ffff00;stroke:#ff6600;stroke-width:0.215;stroke-linecap:round;stroke-linejoin:round"
   d="M 72.891,671.712 C 57.915,674.664 47.691,664.008 51.219,649.608 C 56.548,635.064 75.483,622.032 89.595,620.088 C 103.707,617.711 108.963,627.287 104.427,641.111 C 101.476,654.72 87.723,668.832 72.891,671.712 z"
   id="path213" />
			<path
   style="fill:#ffff00;stroke:#ff6600;stroke-width:0.215;stroke-linecap:round;stroke-linejoin:round"
   d="M 324.676,560.975 C 321.075,559.248 319.635,549.673 322.299,538.297 C 325.036,526.849 330.94,518.136 334.971,519.72 C 338.715,522.025 338.932,533.616 335.692,544.92 C 332.955,556.008 328.275,562.632 324.676,560.975 z"
   id="path215" />
			<path
   style="fill:#ffff00;stroke:#ff6600;stroke-width:0.215;stroke-linecap:round;stroke-linejoin:round"
   d="M 153.963,549.024 C 149.139,549.456 143.379,538.296 141.291,524.183 C 139.203,510.144 142.011,498.552 147.555,498.335 C 153.027,498.048 158.643,509.279 160.011,523.103 C 161.523,536.928 158.787,548.664 153.963,549.024 z"
   id="path217" />
			<path
   style="fill:#ffff00;stroke:#ff6600;stroke-width:0.215;stroke-linecap:round;stroke-linejoin:round"
   d="M 182.907,804.984 C 177.435,807 170.379,802.536 168.795,794.04 C 167.715,785.473 172.179,776.183 178.155,773.881 C 184.131,771.936 189.027,777.84 189.675,786.553 C 190.899,795.049 188.451,802.824 182.907,804.984 z"
   id="path219" />
			<path
   style="fill:#ffff00;stroke:#ff6600;stroke-width:0.215;stroke-linecap:round;stroke-linejoin:round"
   d="M 319.348,460.104 C 311.499,461.113 308.475,450.673 313.588,436.128 C 320.139,421.512 334.539,407.977 343.827,406.248 C 352.971,405.385 352.324,417.12 344.474,432.096 C 338.139,446.928 327.195,459.096 319.348,460.104 z"
   id="path221" />
			<path
   style="fill:#ffff00;stroke:#ff6600;stroke-width:0.215;stroke-linecap:round;stroke-linejoin:round"
   d="M 283.204,622.896 C 281.836,623.041 280.756,620.376 281.043,616.777 C 281.26,613.321 282.555,610.512 283.995,610.369 C 285.435,610.224 286.299,613.033 286.156,616.489 C 285.939,620.016 284.572,622.824 283.204,622.896 z"
   id="path223" />
			<path
   style="fill:#ffff00;stroke:#ff6600;stroke-width:0.215;stroke-linecap:round;stroke-linejoin:round"
   d="M 145.251,586.104 C 143.019,586.249 140.931,582.649 140.427,578.401 C 139.851,574.153 141.291,570.625 143.595,570.481 C 145.899,570.481 148.203,573.793 148.707,578.041 C 149.139,582.36 147.483,585.96 145.251,586.104 z"
   id="path225" />
			<path
   style="fill:#ffff00;stroke:#ff6600;stroke-width:0.215;stroke-linecap:round;stroke-linejoin:round"
   d="M 59.715,822.912 C 58.203,823.057 56.043,818.952 55.036,813.768 C 54.1,808.655 54.531,804.335 56.043,804.192 C 57.555,803.904 59.571,807.935 60.579,813.048 C 61.587,818.16 61.228,822.696 59.715,822.912 z"
   id="path227" />
			<path
   style="fill:#ffff00;stroke:#ff6600;stroke-width:0.215;stroke-linecap:round;stroke-linejoin:round"
   d="M 235.827,554.784 C 234.459,555.36 233.596,552.12 233.81,547.656 C 233.955,543.264 235.323,539.16 236.691,538.727 C 238.203,538.152 239.067,541.39 238.851,545.711 C 238.563,550.248 237.195,554.28 235.827,554.784 z"
   id="path229" />
			<path
   style="fill:#ffff00;stroke:#ff6600;stroke-width:0.215;stroke-linecap:round;stroke-linejoin:round"
   d="M 217.18,664.224 C 213.291,664.728 210.915,658.896 211.78,651.193 C 212.716,643.489 216.532,636.72 220.564,636.145 C 224.524,635.497 227.188,641.401 226.252,649.104 C 225.243,656.881 221.067,663.648 217.18,664.224 z"
   id="path231" />
		</g></g></svg>