<?xml version="1.0" encoding="UTF-8" standalone="no"?>
<!-- Generator: Adobe Illustrator 10, SVG Export Plug-In . SVG Version: 3.0.0 Build 76)  -->
<svg
   xmlns:dc="http://purl.org/dc/elements/1.1/"
   xmlns:cc="http://creativecommons.org/ns#"
   xmlns:rdf="http://www.w3.org/1999/02/22-rdf-syntax-ns#"
   xmlns:svg="http://www.w3.org/2000/svg"
   xmlns="http://www.w3.org/2000/svg"
   xmlns:sodipodi="http://sodipodi.sourceforge.net/DTD/sodipodi-0.dtd"
   xmlns:inkscape="http://www.inkscape.org/namespaces/inkscape"
   width="301.996"
   height="422.604"
   viewBox="0 0 621.864 945.04"
   style="overflow:visible"
   xml:space="preserve"
   id="svg2643"
   sodipodi:version="0.32"
   inkscape:version="0.46"
   sodipodi:docname="Blim.svg"
   inkscape:output_extension="org.inkscape.output.svg.inkscape"
   version="1.0"><metadata
   id="metadata2737"><rdf:RDF><cc:Work
       rdf:about=""><dc:format>image/svg+xml</dc:format><dc:type
         rdf:resource="http://purl.org/dc/dcmitype/StillImage" /></cc:Work></rdf:RDF></metadata><defs
   id="defs2735"><inkscape:perspective
   sodipodi:type="inkscape:persp3d"
   inkscape:vp_x="0 : 472.51999 : 1"
   inkscape:vp_y="0 : 1000 : 0"
   inkscape:vp_z="621.86401 : 472.51999 : 1"
   inkscape:persp3d-origin="310.93201 : 315.01333 : 1"
   id="perspective2739" />
		
	
			
			
			
			
			
			
			
			
			
			
			
			
			
			
			
			
		<clipPath
   clipPathUnits="userSpaceOnUse"
   id="clipPath7376"><path
     style="fill:#ffffff"
     d="M 78.067,729.133 L 380.063,729.133 L 380.063,306.529 L 78.067,306.529 L 78.067,729.133 z"
     id="path7378" /></clipPath><clipPath
   clipPathUnits="userSpaceOnUse"
   id="clipPath7380"><path
     style="fill:#ffffff"
     d="M 78.067,729.133 L 380.063,729.133 L 380.063,306.529 L 78.067,306.529 L 78.067,729.133 z"
     id="path7382" /></clipPath><clipPath
   clipPathUnits="userSpaceOnUse"
   id="clipPath7384"><path
     style="fill:#ffffff"
     d="M 78.067,729.133 L 380.063,729.133 L 380.063,306.529 L 78.067,306.529 L 78.067,729.133 z"
     id="path7386" /></clipPath><clipPath
   clipPathUnits="userSpaceOnUse"
   id="clipPath7388"><path
     style="fill:#ffffff"
     d="M 78.067,729.133 L 380.063,729.133 L 380.063,306.529 L 78.067,306.529 L 78.067,729.133 z"
     id="path7390" /></clipPath><clipPath
   clipPathUnits="userSpaceOnUse"
   id="clipPath7392"><path
     style="fill:#ffffff"
     d="M 78.067,729.133 L 380.063,729.133 L 380.063,306.529 L 78.067,306.529 L 78.067,729.133 z"
     id="path7394" /></clipPath><clipPath
   clipPathUnits="userSpaceOnUse"
   id="clipPath7396"><path
     style="fill:#ffffff"
     d="M 78.067,729.133 L 380.063,729.133 L 380.063,306.529 L 78.067,306.529 L 78.067,729.133 z"
     id="path7398" /></clipPath><clipPath
   clipPathUnits="userSpaceOnUse"
   id="clipPath7400"><path
     style="fill:#ffffff"
     d="M 78.067,729.133 L 380.063,729.133 L 380.063,306.529 L 78.067,306.529 L 78.067,729.133 z"
     id="path7402" /></clipPath><clipPath
   clipPathUnits="userSpaceOnUse"
   id="clipPath7404"><path
     style="fill:#ffffff"
     d="M 78.067,729.133 L 380.063,729.133 L 380.063,306.529 L 78.067,306.529 L 78.067,729.133 z"
     id="path7406" /></clipPath></defs><sodipodi:namedview
   inkscape:window-height="670"
   inkscape:window-width="640"
   inkscape:pageshadow="2"
   inkscape:pageopacity="0.0"
   guidetolerance="10.0"
   gridtolerance="10.0"
   objecttolerance="10.0"
   borderopacity="1.0"
   bordercolor="#666666"
   pagecolor="#ffffff"
   id="base"
   showgrid="false"
   inkscape:zoom="0.48886821"
   inkscape:cx="310.93201"
   inkscape:cy="472.51999"
   inkscape:window-x="0"
   inkscape:window-y="64"
   inkscape:current-layer="svg2643" />
	
<g
   transform="matrix(2.2362306,0,0,2.2362306,-201.31016,-685.46953)"
   style="overflow:visible"
   id="g7408"><path
     clip-path="url(#clipPath7404)"
     id="path2648"
     d="M 28.872,25.056 L 0,25.056 L 0,2.232 L 28.872,2.232 L 28.872,25.056 z"
     style="fill:#ffffff" /><path
     clip-path="url(#clipPath7400)"
     id="path2650"
     d="M 621.864,23.4 L 599.256,23.4 L 599.256,0 L 621.864,0 L 621.864,23.4 z"
     style="fill:#ffffff" /><path
     clip-path="url(#clipPath7396)"
     id="path2684"
     d="M 78.067,306.529 L 392.563,306.529 L 392.563,736.945 L 78.067,736.945 L 78.067,306.529 z"
     style="fill:#018ab4" /><g
     clip-path="url(#clipPath7392)"
     id="g2686">
				<path
   id="path2688"
   d="M 278.3,572.138 C 276.572,570.986 274.915,569.978 273.26,568.754 C 271.605,567.817 269.948,566.593 268.076,565.73 C 266.203,564.434 264.907,561.626 265.195,559.466 C 269.227,538.442 273.259,517.13 277.219,496.106 C 281.179,475.009 285.21,453.77 289.243,432.746 C 289.532,430.586 292.555,429.434 296.011,430.442 C 298.747,431.162 301.484,431.81 304.292,432.746 C 307.099,433.394 309.979,434.186 312.786,434.906 C 316.171,435.698 318.186,438.218 317.682,440.379 C 311.994,462.051 306.09,483.794 300.258,505.395 C 294.498,526.995 288.594,548.667 282.834,570.411 C 282.26,572.642 280.244,573.289 278.3,572.138 z"
   style="fill:#560d2b;stroke:#560d2b;stroke-width:7.99100018" />
				<path
   id="path2690"
   d="M 270.02,581.642 C 268.366,580.562 266.636,579.552 264.98,578.33 C 263.324,577.394 261.596,576.242 259.94,575.234 C 258.068,573.938 256.7,571.13 256.989,569.114 C 261.02,547.875 264.98,526.635 269.012,505.61 C 272.972,484.586 277.003,463.274 280.963,442.177 C 281.396,440.161 284.348,439.154 287.732,440.089 C 290.541,440.665 293.348,441.456 296.157,442.321 C 298.892,442.825 301.845,443.689 304.581,444.48 C 308.037,445.345 310.124,447.792 309.549,449.88 C 303.645,471.696 297.885,493.296 292.124,514.897 C 286.294,536.569 280.462,558.313 274.702,579.913 C 274.195,582.146 272.107,582.938 270.02,581.642 z"
   style="fill:#e0d0e6;stroke:#560d2b;stroke-width:7.99100018" />
			</g><g
     clip-path="url(#clipPath7388)"
     id="g2692">
				<path
   id="path2694"
   d="M 218.323,584.233 C 217.531,585.528 216.668,586.825 215.948,588.264 C 215.156,589.489 214.364,590.929 213.572,592.296 C 212.851,593.736 210.907,594.24 209.468,593.521 C 190.892,582.649 172.388,571.993 153.812,561.193 C 135.165,550.68 116.804,539.953 98.084,529.153 C 96.787,528.361 96.428,525.264 97.293,522.096 C 98.228,519.433 99.02,516.553 99.956,513.817 C 100.892,511.153 101.828,508.201 102.548,505.465 C 103.556,502.512 105.428,500.784 106.868,501.864 C 125.371,514.679 143.731,527.856 162.092,540.672 C 180.452,553.776 198.812,566.952 217.316,579.841 C 218.611,580.705 219.188,582.649 218.323,584.233 z"
   style="fill:#560d2b;stroke:#560d2b;stroke-width:7.99100018" />
				<path
   id="path2696"
   d="M 230.275,582.001 C 229.555,583.369 228.836,584.593 228.044,586.033 C 227.18,587.329 226.531,588.697 225.668,589.993 C 224.731,591.433 222.859,591.937 221.564,591.217 C 202.627,580.993 183.764,570.697 164.972,560.546 C 146.108,550.177 127.316,540.097 108.452,529.945 C 107.084,529.153 106.435,526.273 107.371,523.321 C 108.164,520.657 108.811,518.137 109.676,515.472 C 110.468,512.88 111.331,510.216 112.052,507.697 C 112.989,504.817 114.932,503.304 116.3,504.241 C 135.092,516.409 153.956,528.649 172.748,540.817 C 191.684,553.129 210.476,565.441 229.268,577.537 C 230.707,578.546 231.14,580.346 230.275,582.001 z"
   style="fill:#e0d0e6;stroke:#560d2b;stroke-width:7.99100018" />
			</g><g
     clip-path="url(#clipPath7384)"
     id="g2698">
				<path
   id="path2700"
   d="M 239.419,628.441 C 239.707,629.809 240.067,630.962 240.428,632.401 C 240.716,633.553 241.003,634.849 241.436,636.145 C 241.94,638.233 241.869,640.249 241.436,641.977 C 240.86,643.561 239.78,644.712 238.34,645 C 216.668,650.904 195.211,656.665 173.54,662.496 C 151.868,668.257 130.195,674.088 108.523,679.849 C 107.156,680.208 105.715,679.993 104.563,679.345 C 103.483,678.697 102.547,677.616 102.259,676.249 C 102.043,675.384 101.827,674.592 101.611,673.8 C 101.323,672.864 101.107,672.145 100.891,671.137 C 100.531,669.841 100.675,668.328 101.323,667.249 C 102.044,666.024 103.195,665.088 104.419,664.584 C 125.66,657.672 147.044,650.688 168.499,643.633 C 189.668,636.504 210.979,629.521 232.364,622.393 C 233.803,622.033 235.172,622.393 236.395,623.545 C 237.619,624.554 238.771,626.281 239.419,628.441 z"
   style="fill:#560d2b;stroke:#560d2b;stroke-width:7.99100018" />
				<path
   id="path2702"
   d="M 236.107,624.265 C 236.395,625.562 236.683,626.858 236.971,628.154 C 237.404,629.45 237.691,630.746 238.195,631.826 C 238.771,633.986 238.555,636.146 238.123,637.73 C 237.548,639.314 236.468,640.466 235.172,640.898 C 213.499,646.73 191.827,652.49 170.228,658.394 C 148.556,664.082 126.884,669.842 105.211,675.746 C 103.915,676.178 102.476,675.746 101.323,675.169 C 100.244,674.594 99.307,673.37 98.948,672.147 C 98.804,671.139 98.443,670.418 98.227,669.553 C 98.011,668.763 97.868,667.899 97.723,667.107 C 97.147,665.668 97.364,664.227 98.083,663.075 C 98.73,661.924 99.811,660.987 101.106,660.483 C 122.491,653.427 143.802,646.443 165.043,639.386 C 186.427,632.403 207.883,625.347 229.051,618.29 C 230.418,617.785 231.931,618.29 233.083,619.298 C 234.308,620.449 235.46,622.105 236.107,624.265 z"
   style="fill:#e0d0e6;stroke:#560d2b;stroke-width:7.99100018" />
			</g><g
     clip-path="url(#clipPath7380)"
     id="g2704">
				<g
   id="g2706">
					<path
   id="path2708"
   d="M 161.371,637.369 C 155.107,619.081 152.731,598.561 154.531,578.113 C 157.195,547.153 169.003,523.537 186.427,511.729 C 203.635,500.065 228.043,499.489 253.315,508.273 C 278.587,516.985 300.187,531.529 317.179,549.529 C 333.74,566.953 345.475,588.121 347.706,610.512 C 361.747,611.592 375.931,612.528 389.826,612.528 C 403.866,612.528 386.226,612.458 400.122,611.449 C 400.051,620.521 399.618,629.089 399.043,637.369 L 398.971,637.441 C 399.043,635.353 399.115,633.193 399.115,631.033 C 384.355,631.537 385.293,635.137 370.676,634.705 C 355.844,634.201 340.94,632.905 326.108,631.537 C 326.612,628.729 326.684,633.697 327.116,622.897 C 327.549,612.096 319.845,586.321 307.389,571.705 C 294.573,556.729 276.716,544.85 257.132,539.089 C 237.619,533.329 219.619,535.13 206.444,544.274 C 193.124,553.562 184.196,570.842 182.396,592.875 C 181.172,608.21 183.548,623.761 189.092,637.37 L 161.371,637.37 L 161.371,637.369 z"
   style="fill:#051440" />
					<path
   id="path2710"
   d="M 161.371,637.369 C 164.611,646.874 168.932,655.801 174.26,663.722 C 189.236,686.114 224.156,701.81 241.436,703.466 C 258.788,705.121 255.26,704.113 261.884,703.321 C 260.444,716.713 258.572,730.393 256.915,743.713 C 272.323,736.297 327.187,741.265 343.748,741.265 C 373.699,741.265 359.588,738.53 389.395,738.53 C 389.827,709.586 395.731,721.106 395.803,692.522 C 395.874,672.793 397.819,655.585 399.043,637.37 L 398.971,637.442 C 398.323,656.81 396.019,672.65 395.803,692.522 C 395.515,714.626 390.043,716.282 389.395,738.53 C 367.147,738.602 367.794,737.667 345.763,737.667 C 289.891,737.667 281.971,745.802 284.563,722.33 C 286.219,707.427 287.587,692.09 288.883,677.114 C 276.715,682.586 265.556,685.538 247.987,683.593 C 230.418,681.577 209.466,670.058 198.018,653.858 C 194.491,648.818 191.466,643.274 189.09,637.37 L 161.371,637.37 L 161.371,637.369 z"
   style="fill:#051440" />
				</g>
				<g
   id="g2712">
					<path
   id="path2714"
   d="M 347.707,610.513 C 361.748,611.593 375.932,612.529 389.827,612.529 C 403.867,612.529 386.227,612.459 400.123,611.45 C 399.979,640.322 395.875,663.794 395.804,692.522 C 395.732,721.106 389.827,709.585 389.396,738.53 C 359.588,738.53 373.7,741.265 343.749,741.265 C 327.188,741.265 272.324,736.297 256.916,743.713 C 258.573,730.394 260.444,716.713 261.885,703.321 C 255.261,704.113 258.788,705.121 241.437,703.466 C 224.158,701.81 189.237,686.113 174.261,663.722 C 158.708,640.466 151.796,609.146 154.532,578.114 C 157.196,547.154 169.004,523.538 186.428,511.73 C 203.636,500.066 228.044,499.49 253.316,508.274 C 278.588,516.986 300.188,531.53 317.18,549.53 C 333.74,566.953 345.476,588.121 347.707,610.513 z"
   style="fill:none;stroke:#000000;stroke-width:0.215" />
					<path
   id="path2716"
   d="M 326.107,631.537 C 326.611,628.729 326.683,633.697 327.115,622.897 C 327.548,612.096 319.844,586.321 307.388,571.705 C 294.572,556.729 276.715,544.85 257.131,539.089 C 237.618,533.329 219.618,535.13 206.443,544.274 C 193.123,553.562 184.195,570.842 182.395,592.875 C 180.667,614.835 186.21,637.154 198.019,653.858 C 209.467,670.058 230.418,681.578 247.988,683.593 C 265.556,685.537 276.716,682.585 288.884,677.114 C 287.588,692.09 286.22,707.426 284.564,722.33 C 281.972,745.802 289.892,737.667 345.764,737.667 C 367.795,737.667 367.148,738.603 389.396,738.53 C 390.044,716.282 395.516,714.627 395.804,692.522 C 396.02,670.49 398.827,653.426 399.116,631.034 C 384.356,631.538 385.294,635.138 370.677,634.706 C 355.844,634.201 340.939,632.905 326.107,631.537 z"
   style="fill:none;stroke:#000000;stroke-width:0.215" />
				</g>
			</g><g
     clip-path="url(#clipPath7376)"
     id="g2718">
				<g
   id="g2720">
					<path
   id="path2722"
   d="M 177.932,637.009 C 169.94,617.858 166.627,595.825 168.284,573.722 C 170.589,543.265 182.108,520.081 199.532,508.274 C 216.524,496.681 240.932,496.466 266.276,504.673 C 291.62,512.881 313.366,526.489 330.501,544.058 C 347.061,560.906 358.796,581.642 361.245,604.106 C 375.212,604.754 367.221,604.538 381.116,604.322 C 394.868,604.106 386.301,612.529 400.124,611.45 C 400.124,622.178 399.765,629.954 399.332,637.01 L 399.045,637.227 C 399.045,635.21 399.116,633.123 399.116,631.035 C 384.212,631.827 399.045,627.723 384.284,627.579 C 369.596,627.435 354.549,626.355 339.644,625.348 C 340.293,622.324 340.652,627.364 340.868,616.564 C 341.085,605.762 333.38,580.348 320.708,566.164 C 307.677,551.692 289.965,540.1 270.309,534.629 C 250.725,529.156 232.796,531.172 219.765,540.244 C 206.517,549.532 197.589,566.381 196.077,587.98 C 194.852,605.188 198.308,622.468 205.796,637.084 L 177.932,637.009 z"
   style="fill:#b8d1e5" />
					<path
   id="path2724"
   d="M 177.932,637.009 C 180.956,644.281 184.7,651.121 189.02,657.385 C 204.356,679.417 239.06,695.042 256.412,696.626 C 273.765,698.209 270.02,697.273 276.717,696.481 C 275.42,709.8 273.765,728.304 272.324,741.264 C 285.212,741.409 336.476,742.561 355.485,742.561 C 385.148,742.561 393.356,743.497 395.3,729.961 C 395.3,700.873 397.531,706.273 397.531,677.185 C 397.531,658.897 398.54,649.033 399.331,637.008 L 399.044,637.225 C 398.756,656.737 398.756,672.361 398.756,692.521 C 398.756,714.697 396.812,702.601 396.308,724.993 C 404.3,744.505 385.004,740.258 363.116,740.258 C 341.085,740.258 319.845,742.85 297.741,742.489 C 299.396,727.369 297.956,730.177 299.324,715.273 C 300.692,700.512 302.06,685.537 303.14,670.489 C 291.188,676.177 280.1,679.201 262.605,677.185 C 245.108,675.167 224.084,663.792 212.348,647.737 C 209.9,644.353 207.741,640.825 205.795,637.081 L 177.932,637.009 z"
   style="fill:#b8d1e5" />
				</g>
				<g
   id="g2726">
					<path
   id="path2728"
   d="M 361.244,604.105 C 375.211,604.753 367.22,604.537 381.115,604.321 C 394.867,604.105 386.3,612.528 400.123,611.449 C 400.123,640.393 397.531,648.096 397.531,677.185 C 397.531,706.273 395.3,700.873 395.3,729.961 C 393.356,743.496 385.148,742.561 355.485,742.561 C 336.476,742.561 285.212,741.409 272.324,741.264 C 273.764,728.304 275.42,709.8 276.717,696.481 C 270.021,697.273 273.765,698.209 256.412,696.626 C 239.06,695.042 204.356,679.417 189.02,657.385 C 173.18,634.562 165.98,604.177 168.284,573.722 C 170.589,543.265 182.108,520.081 199.532,508.274 C 216.524,496.681 240.932,496.466 266.276,504.673 C 291.62,512.881 313.366,526.489 330.501,544.058 C 347.06,560.905 358.795,581.642 361.244,604.105 z"
   style="fill:none;stroke:#041d44;stroke-width:15.9829998" />
					<path
   id="path2730"
   d="M 339.644,625.346 C 340.293,622.322 340.652,627.362 340.868,616.562 C 341.085,605.76 333.38,580.346 320.708,566.162 C 307.677,551.69 289.965,540.098 270.309,534.627 C 250.725,529.154 232.796,531.17 219.765,540.242 C 206.517,549.53 197.589,566.379 196.077,587.978 C 194.564,609.578 200.396,631.322 212.348,647.738 C 224.084,663.794 245.108,675.169 262.605,677.186 C 280.1,679.202 291.188,676.177 303.14,670.49 C 302.06,685.538 300.692,700.513 299.324,715.274 C 297.956,730.177 299.396,727.37 297.741,742.49 C 319.845,742.85 341.085,740.259 363.116,740.259 C 385.005,740.259 404.301,744.506 396.308,724.994 C 396.812,702.602 398.756,714.698 398.756,692.522 C 398.756,670.274 398.756,653.57 399.115,631.034 C 384.211,631.826 399.044,627.722 384.283,627.578 C 369.596,627.434 354.548,626.354 339.644,625.346 z"
   style="fill:none;stroke:#041d44;stroke-width:15.9829998" />
				</g>
			</g></g></svg>