<?xml version="1.0" encoding="UTF-8" standalone="no"?>
<!-- Generator: Adobe Illustrator 10, SVG Export Plug-In . SVG Version: 3.0.0 Build 76)  -->
<svg
   xmlns:dc="http://purl.org/dc/elements/1.1/"
   xmlns:cc="http://creativecommons.org/ns#"
   xmlns:rdf="http://www.w3.org/1999/02/22-rdf-syntax-ns#"
   xmlns:svg="http://www.w3.org/2000/svg"
   xmlns="http://www.w3.org/2000/svg"
   xmlns:sodipodi="http://sodipodi.sourceforge.net/DTD/sodipodi-0.dtd"
   xmlns:inkscape="http://www.inkscape.org/namespaces/inkscape"
   width="182.07051"
   height="247.2702"
   viewBox="0 0 468.311 327.999"
   style="overflow:visible"
   xml:space="preserve"
   id="svg2741"
   sodipodi:version="0.32"
   inkscape:version="0.46"
   sodipodi:docname="Clowns.svg"
   inkscape:output_extension="org.inkscape.output.svg.inkscape"
   version="1.0"><metadata
   id="metadata2771"><rdf:RDF><cc:Work
       rdf:about=""><dc:format>image/svg+xml</dc:format><dc:type
         rdf:resource="http://purl.org/dc/dcmitype/StillImage" /></cc:Work></rdf:RDF></metadata><defs
   id="defs2769"><inkscape:perspective
   sodipodi:type="inkscape:persp3d"
   inkscape:vp_x="0 : 163.9995 : 1"
   inkscape:vp_y="0 : 1000 : 0"
   inkscape:vp_z="468.311 : 163.9995 : 1"
   inkscape:persp3d-origin="234.1555 : 109.333 : 1"
   id="perspective2773" />
		
		
	</defs><sodipodi:namedview
   inkscape:window-height="670"
   inkscape:window-width="640"
   inkscape:pageshadow="2"
   inkscape:pageopacity="0.0"
   guidetolerance="10.0"
   gridtolerance="10.0"
   objecttolerance="10.0"
   borderopacity="1.0"
   bordercolor="#666666"
   pagecolor="#ffffff"
   id="base"
   showgrid="false"
   inkscape:zoom="1.1616212"
   inkscape:cx="234.1555"
   inkscape:cy="163.9995"
   inkscape:window-x="194"
   inkscape:window-y="11"
   inkscape:current-layer="svg2741" />
	<style
   type="text/css"
   id="style2743">
	
		@font-face{font-family:'Times-Roman';src:url(8B7184E2.cef)}
	
	</style>
	
<g
   transform="matrix(2.5721409,0,0,2.5721409,-16.518289,-154.06915)"
   style="overflow:visible"
   id="g2762">
			<path
   id="path2764"
   d="M 84.614,40.265 C 80.614,61.265 148.652,147.563 143.963,159.165 C 139.275,170.766 88.023,188.457 88.023,188.457 C 88.023,188.457 53.16,186.103 44.773,169.643 C 36.386,153.183 60.565,113.847 55.04,94.324 C 49.515,74.801 35.736,93.062 27.955,102.497 C 20.174,111.931 30.584,170.914 30.584,170.914 L 9.738,196.887 C 9.738,196.887 10.503,223.249 25.293,226.407 C 40.083,229.563 29.753,198.696 41.032,199.803 C 52.311,200.908 68.469,248.192 86.914,243.674 C 105.361,239.156 91.856,234.235 91.856,234.235 L 54.722,198.449 L 77.379,203.044 L 76.442,209.045 C 76.442,209.045 87.844,228.762 105.37,222.622 C 122.896,216.484 116.844,214.664 116.844,214.664 L 113.664,201.923 L 171.097,148.444 L 172.082,147.337 L 171.893,147.151 C 171.893,147.151 188.882,131.793 184.434,117.834 C 179.985,103.876 163.481,120.646 171.454,119.41 C 179.428,118.175 164.591,134.267 164.591,134.267 C 164.591,134.267 130.581,9.34 99.581,3.34 C 86.581,4.34 88.614,19.265 84.614,40.265 z M 36.221,116.109 C 33.716,112.808 35.366,107.34 39.905,103.896 C 44.445,100.453 50.155,100.336 52.659,103.637 C 55.164,106.939 53.514,112.407 48.975,115.851 C 44.436,119.295 38.726,119.411 36.221,116.109 z M 30.113,212.782 C 26.812,215.287 21.343,213.637 17.9,209.098 C 14.456,204.558 14.34,198.848 17.641,196.343 C 20.942,193.838 26.411,195.488 29.855,200.027 C 33.299,204.566 33.415,210.277 30.113,212.782 z M 80.288,228.361 C 83.106,232.075 83.718,236.354 81.654,237.921 C 79.591,239.486 75.634,237.744 72.816,234.03 C 69.998,230.316 69.386,226.037 71.45,224.47 C 73.513,222.905 77.47,224.647 80.288,228.361 z M 103.39,201.675 C 107.147,206.627 106.848,213.179 102.721,216.311 C 98.595,219.442 92.203,217.965 88.447,213.013 C 84.69,208.062 84.989,201.509 89.115,198.378 C 93.241,195.247 99.633,196.724 103.39,201.675 z M 114.998,38.369 C 119.068,43.733 117.022,57.621 112.896,60.752 C 108.769,63.883 102.125,62.071 98.054,56.708 C 93.984,51.343 95.03,33.456 99.156,30.325 C 103.283,27.193 110.928,33.003 114.998,38.369 z"
   style="fill:#8ad09e;stroke:#774c63;stroke-width:6.63199997" />
			<path
   id="path2766"
   d="M 97.403,143.47 C 104.831,137.834 106.791,127.912 101.782,121.311 C 96.772,114.707 86.69,113.924 79.262,119.56 C 71.834,125.196 69.874,135.117 74.883,141.72 C 79.893,148.322 89.976,149.105 97.403,143.47 z"
   style="fill:#8ad09e;stroke:#774c63;stroke-width:6.63199997" />
		</g></svg>