<?xml version="1.0" encoding="UTF-8" standalone="no"?>
<!-- Generator: Adobe Illustrator 10, SVG Export Plug-In . SVG Version: 3.0.0 Build 76)  -->
<svg
   xmlns:dc="http://purl.org/dc/elements/1.1/"
   xmlns:cc="http://creativecommons.org/ns#"
   xmlns:rdf="http://www.w3.org/1999/02/22-rdf-syntax-ns#"
   xmlns:svg="http://www.w3.org/2000/svg"
   xmlns="http://www.w3.org/2000/svg"
   xmlns:sodipodi="http://sodipodi.sourceforge.net/DTD/sodipodi-0.dtd"
   xmlns:inkscape="http://www.inkscape.org/namespaces/inkscape"
   width="558.03662"
   height="746.2301"
   viewBox="0 0 564.556 821.942"
   style="overflow:visible"
   xml:space="preserve"
   id="svg2775"
   sodipodi:version="0.32"
   inkscape:version="0.46"
   sodipodi:docname="DentalisFlower.svg"
   inkscape:output_extension="org.inkscape.output.svg.inkscape"
   version="1.0"><metadata
   id="metadata2933"><rdf:RDF><cc:Work
       rdf:about=""><dc:format>image/svg+xml</dc:format><dc:type
         rdf:resource="http://purl.org/dc/dcmitype/StillImage" /></cc:Work></rdf:RDF></metadata><defs
   id="defs2931"><inkscape:perspective
   sodipodi:type="inkscape:persp3d"
   inkscape:vp_x="0 : 410.97101 : 1"
   inkscape:vp_y="0 : 1000 : 0"
   inkscape:vp_z="564.55603 : 410.97101 : 1"
   inkscape:persp3d-origin="282.27802 : 273.98067 : 1"
   id="perspective2935" />
		
		
	</defs><sodipodi:namedview
   inkscape:window-height="670"
   inkscape:window-width="640"
   inkscape:pageshadow="2"
   inkscape:pageopacity="0.0"
   guidetolerance="10.0"
   gridtolerance="10.0"
   objecttolerance="10.0"
   borderopacity="1.0"
   bordercolor="#666666"
   pagecolor="#ffffff"
   id="base"
   showgrid="false"
   inkscape:zoom="0.56208344"
   inkscape:cx="282.27802"
   inkscape:cy="410.97101"
   inkscape:window-x="0"
   inkscape:window-y="0"
   inkscape:current-layer="svg2775" />
	<style
   type="text/css"
   id="style2777">
	
		@font-face{font-family:'Times-Roman';src:url(7D191E25.cef)}
	
	</style>
	
<g
   transform="matrix(1.1014592,0,0,1.1014592,-32.232447,1.4347517)"
   style="overflow:visible"
   id="g2796">
			<g
   id="g2798">
				<g
   id="g2800">
					<path
   id="path2802"
   d="M 322.925,343.419 C 335.741,317.139 342.149,290.138 344.093,262.491 C 348.27,263.571 352.373,264.651 356.549,265.659 C 360.509,266.667 364.758,267.603 368.789,268.683 C 366.989,294.171 361.445,319.155 350.573,343.419 L 322.925,343.419 z"
   style="fill:#873713" />
					<path
   id="path2804"
   d="M 322.925,343.419 C 319.469,350.618 315.509,357.675 311.045,364.731 C 289.373,398.86 254.453,433.708 199.517,469.635 C 139.181,509.091 94.181,552.507 63.077,598.011 C 30.389,645.819 14.405,693.988 10.517,740.931 C 17.357,739.851 24.557,738.772 31.541,737.763 C 38.597,736.683 45.436,735.604 52.205,734.595 C 56.093,689.091 71.285,642.364 102.029,595.995 C 131.333,551.859 174.029,509.595 231.125,471.146 C 283.253,436.083 316.445,402.026 337.182,368.618 C 342.366,360.339 346.757,351.915 350.574,343.419 L 322.925,343.419 L 322.925,343.419 z"
   style="fill:#873713" />
				</g>
				<g
   id="g2806">
					<path
   id="path2808"
   d="M 344.093,262.491 C 348.27,263.571 352.373,264.651 356.549,265.659 C 360.509,266.667 364.758,267.603 368.789,268.683 C 366.342,303.099 357.125,336.507 337.182,368.619 C 316.446,402.027 283.253,436.084 231.125,471.147 C 174.029,509.595 131.333,551.86 102.029,595.996 C 71.285,642.364 56.092,689.092 52.205,734.596 C 45.436,735.605 38.597,736.684 31.541,737.764 C 24.557,738.773 17.357,739.852 10.517,740.932 C 14.405,693.989 30.389,645.82 63.077,598.012 C 94.181,552.508 139.181,509.092 199.517,469.636 C 254.453,433.708 289.373,398.861 311.045,364.732 C 331.925,331.827 341.645,297.699 344.093,262.491 z"
   style="fill:none;stroke:#514541;stroke-width:7.99100018" />
				</g>
			</g>
			<g
   id="g2810">
				<path
   id="path2812"
   d="M 360.077,306.339 C 361.805,306.771 363.749,307.779 365.404,308.571 C 368.357,310.011 371.165,313.827 371.669,317.283 C 374.981,337.731 379.373,358.179 383.549,378.484 C 387.581,398.427 391.181,418.372 391.181,437.812 C 391.181,441.339 388.013,439.54 384.917,435.003 C 383.837,433.419 381.893,431.835 380.309,430.971 C 377.789,429.603 377.141,425.715 377.141,422.692 C 377.141,404.763 373.326,386.115 368.789,367.611 C 364.181,348.82 359.43,329.595 355.685,310.659 C 355.037,307.419 357.197,305.547 360.077,306.339 z"
   style="fill:#50394e;stroke:#373e45;stroke-width:7.99100018" />
				<path
   id="path2814"
   d="M 381.82,282.507 C 382.613,280.419 383.98,277.611 386.285,277.035 C 395.789,274.731 402.413,274.011 405.148,274.515 C 420.556,277.539 435.749,281.21 450.365,284.811 C 464.404,288.339 478.445,292.227 491.837,296.258 C 494.285,296.979 493.709,298.563 486.365,300.507 C 484.421,301.011 483.125,303.315 482.189,304.97 C 480.82,307.419 478.228,309.219 475.781,308.715 C 461.812,305.475 447.342,302.378 432.653,299.354 C 417.461,296.258 401.404,292.731 385.349,289.563 C 382.469,288.987 380.525,285.819 381.82,282.507 z"
   style="fill:#50394e;stroke:#373e45;stroke-width:7.99100018" />
				<path
   id="path2816"
   d="M 193.757,220.011 C 200.525,220.083 204.845,219.003 207.437,217.707 C 211.397,215.691 216.581,215.043 220.469,216.627 C 241.493,225.483 262.085,233.043 281.741,238.875 C 300.892,244.491 319.541,248.955 337.325,253.275 C 340.421,253.995 341.789,257.019 339.773,259.539 C 338.405,261.123 335.884,262.851 331.564,263.138 C 319.972,264.003 314.644,264.939 311.26,264.219 C 292.036,259.755 271.3,255.003 250.492,249.099 C 228.82,242.907 206.14,234.411 182.812,224.619 C 178.709,222.963 178.205,219.723 193.757,220.011 z"
   style="fill:#50394e;stroke:#373e45;stroke-width:7.99100018" />
				<path
   id="path2818"
   d="M 369.581,113.02 C 371.021,113.02 372.893,113.092 374.404,112.948 C 376.997,112.732 378.508,114.028 378.437,117.484 C 378.077,135.556 379.588,154.42 381.964,173.644 C 384.341,192.508 387.148,211.732 388.948,230.307 C 389.236,233.548 387.219,236.427 384.483,235.852 C 382.899,235.564 380.956,235.06 379.516,234.844 C 376.78,234.484 374.403,231.388 374.188,228.148 C 372.675,210.076 369.94,191.572 367.635,172.924 C 365.331,154.492 363.891,135.772 364.108,118.204 C 364.109,115.035 366.846,113.02 369.581,113.02 z"
   style="fill:#50394e;stroke:#373e45;stroke-width:7.99100018" />
				<path
   id="path2820"
   d="M 225.509,79.828 C 226.877,78.891 228.605,77.884 229.829,77.092 C 232.277,75.58 236.237,76.732 238.541,79.756 C 265.901,115.396 293.405,151.036 320.045,184.66 C 322.277,187.54 322.709,191.283 320.766,193.084 C 319.829,193.948 318.389,195.244 317.309,196.18 C 315.509,197.908 311.981,196.9 309.606,193.948 C 282.821,159.82 254.814,123.892 226.085,88.18 C 223.637,85.155 223.277,81.412 225.509,79.828 z"
   style="fill:#50394e;stroke:#373e45;stroke-width:7.99100018" />
				<path
   id="path2822"
   d="M 412.925,344.139 C 413.717,342.699 414.725,341.043 415.518,339.747 C 417.102,337.299 419.837,337.515 421.997,340.106 C 445.109,368.691 466.421,392.378 484.997,409.875 C 486.293,411.099 486.148,414.194 484.277,416.931 C 483.197,418.515 482.117,420.675 480.605,421.9 C 477.004,424.708 475.781,425.643 474.989,424.635 C 460.012,405.698 437.837,382.515 414.22,353.715 C 411.989,351.051 411.557,346.66 412.925,344.139 z"
   style="fill:#50394e;stroke:#373e45;stroke-width:7.99100018" />
				<path
   id="path2824"
   d="M 476.357,187.251 C 477.004,189.843 477.653,192.435 478.373,194.739 C 479.669,198.843 479.597,201.075 478.013,201.075 C 462.317,201.507 448.421,213.171 434.813,230.091 C 433.589,231.603 430.782,230.523 428.694,227.21 C 427.397,225.195 425.958,223.107 424.662,221.091 C 422.502,217.779 421.926,213.315 423.222,211.659 C 437.406,193.803 452.454,181.419 470.886,179.115 C 472.613,178.899 475.35,183.147 476.357,187.251 z"
   style="fill:#50394e;stroke:#373e45;stroke-width:7.99100018" />
				<path
   id="path2826"
   d="M 296.43,317.067 C 298.085,318.723 300.102,320.595 301.901,322.251 C 304.854,325.131 306.294,329.019 304.854,331.034 C 289.158,353.211 273.03,374.738 249.99,390.795 C 247.614,392.45 243.15,389.715 241.566,386.475 C 240.486,384.316 239.19,382.155 237.75,379.923 C 235.23,375.963 235.446,372.867 237.246,371.499 C 256.254,357.387 271.662,336.938 287.934,315.123 C 289.373,313.251 293.333,314.115 296.43,317.067 z"
   style="fill:#50394e;stroke:#373e45;stroke-width:7.99100018" />
			</g>
			<g
   id="g2828">
				<g
   id="g2830">
					<path
   id="path2832"
   d="M 282.101,268.035 C 283.037,263.282 283.541,258.387 283.541,253.419 C 283.541,222.171 263.381,185.883 252.365,150.531 C 247.325,134.33 261.365,125.979 276.989,135.483 C 309.605,155.282 339.413,181.131 368.789,190.563 C 396.293,199.419 421.781,193.443 446.766,194.378 C 457.637,194.811 466.997,209.067 462.173,219.075 C 453.893,235.995 440.141,250.611 433.301,267.963 L 417.245,268.035 C 422.573,255.795 432.365,245.282 438.413,233.186 C 442.085,225.771 434.957,215.115 426.605,215.043 C 407.957,214.755 388.876,219.579 368.789,213.459 C 347.621,207.051 326.453,189.267 303.557,175.803 C 292.901,169.611 283.182,175.803 286.637,187.107 C 294.27,211.875 308.022,237.219 308.022,259.467 C 308.022,262.347 307.805,265.227 307.374,268.035 L 282.101,268.035 z"
   style="fill:#4d4c47" />
					<path
   id="path2834"
   d="M 251.789,343.419 C 252.005,342.698 252.149,342.051 252.437,341.331 C 261.581,315.987 277.349,293.306 282.101,268.035 L 307.373,268.035 C 304.564,286.683 293.261,303.243 286.781,321.531 C 283.253,331.323 293.045,342.051 303.556,340.251 C 326.596,336.363 347.476,325.779 368.788,329.883 C 379.084,331.826 388.948,337.228 398.668,343.419 L 251.789,343.419 z"
   style="fill:#4d4c47" />
					<path
   id="path2836"
   d="M 435.749,343.419 C 426.893,323.763 413.357,303.819 413.357,285.243 C 413.357,278.979 414.869,273.363 417.245,268.035 L 433.301,267.963 C 430.709,274.515 429.053,281.499 429.053,289.059 C 429.053,306.699 437.766,324.988 447.053,343.419 L 435.749,343.419 z"
   style="fill:#4d4c47" />
					<path
   id="path2838"
   d="M 251.789,343.419 C 248.837,356.667 262.373,369.915 276.989,367.107 C 309.749,360.843 339.269,345.651 368.789,350.692 C 396.437,355.443 421.709,377.98 446.766,391.443 C 457.565,397.276 467.141,387.772 462.245,375.316 C 458.069,364.731 452.453,354.076 447.053,343.42 L 435.749,343.42 C 436.686,345.508 437.621,347.524 438.413,349.611 C 442.157,359.044 434.885,365.883 426.605,361.276 C 417.316,356.164 408.101,349.396 398.668,343.42 L 251.789,343.42 L 251.789,343.419 z"
   style="fill:#4d4c47" />
				</g>
				<g
   id="g2840">
					<path
   id="path2842"
   d="M 276.989,135.483 C 309.605,155.282 339.413,181.131 368.789,190.563 C 396.293,199.419 421.781,193.443 446.766,194.378 C 457.637,194.811 466.997,209.067 462.173,219.075 C 450.797,242.33 429.053,261.267 429.053,289.059 C 429.053,316.923 450.797,346.443 462.245,375.316 C 467.141,387.772 457.564,397.276 446.766,391.443 C 421.709,377.98 396.438,355.443 368.789,350.692 C 339.269,345.651 309.749,360.843 276.989,367.107 C 261.581,370.059 247.397,355.228 252.437,341.332 C 263.309,311.236 283.541,284.812 283.541,253.42 C 283.541,222.172 263.381,185.884 252.365,150.532 C 247.325,134.331 261.365,125.979 276.989,135.483 z"
   style="fill:none;stroke:#40403b;stroke-width:7.99100018" />
					<path
   id="path2844"
   d="M 303.557,175.803 C 292.901,169.611 283.182,175.803 286.637,187.107 C 294.27,211.875 308.022,237.219 308.022,259.467 C 308.022,281.787 294.27,300.507 286.782,321.531 C 283.254,331.323 293.046,342.051 303.557,340.251 C 326.597,336.363 347.477,325.779 368.789,329.883 C 389.021,333.772 407.741,350.907 426.605,361.276 C 434.884,365.883 442.157,359.044 438.413,349.611 C 429.846,327.939 413.357,305.763 413.357,285.243 C 413.357,264.723 429.701,250.611 438.413,233.186 C 442.085,225.771 434.957,215.115 426.605,215.043 C 407.957,214.755 388.876,219.579 368.789,213.459 C 347.621,207.051 326.453,189.267 303.557,175.803 z"
   style="fill:none;stroke:#40403b;stroke-width:7.99100018" />
				</g>
			</g>
			<g
   id="g2846">
				<path
   id="path2848"
   d="M 190.877,9.195 C 195.197,10.995 198.941,14.451 201.605,17.979 C 204.197,21.435 206.357,25.611 206.357,29.283 C 206.357,33.027 204.125,35.403 201.677,37.563 C 198.797,40.155 195.198,43.467 190.949,46.419 C 186.557,48.075 182.596,44.619 178.493,39.579 C 173.813,33.963 168.413,27.483 165.605,20.931 C 166.469,15.027 172.661,11.859 178.133,9.987 C 182.669,8.403 186.557,7.395 190.877,9.195 z"
   style="fill:#767317;stroke:#4d4c36;stroke-width:7.99100018" />
				<path
   id="path2850"
   d="M 379.229,55.779 C 386.213,59.667 390.317,69.531 393.629,75.723 C 396.438,80.907 397.445,85.155 394.205,87.531 C 390.965,89.979 387.797,91.995 385.205,92.931 C 382.758,93.795 379.373,93.507 375.557,91.563 C 371.526,90.123 367.925,87.459 365.045,84.363 C 361.949,80.907 358.925,76.227 356.837,71.331 C 355.325,66.723 358.133,64.203 361.949,61.467 C 366.413,58.227 372.245,51.891 379.229,55.779 z"
   style="fill:#767317;stroke:#4d4c36;stroke-width:7.99100018" />
				<path
   id="path2852"
   d="M 509.117,170.979 C 512.789,172.419 516.316,174.003 519.413,177.099 C 523.085,180.771 526.685,185.811 527.549,190.419 C 526.686,194.306 522.869,196.611 519.413,198.843 C 516.173,200.859 512.861,202.875 509.117,202.083 C 505.517,200.21 502.421,195.963 499.972,191.499 C 497.668,187.251 495.724,182.643 495.724,178.251 C 495.724,173.859 497.453,170.547 499.972,169.323 C 502.205,168.243 505.445,169.54 509.117,170.979 z"
   style="fill:#767317;stroke:#4d4c36;stroke-width:7.99100018" />
				<path
   id="path2854"
   d="M 535.396,308.715 C 538.997,309.651 542.38,311.883 544.541,314.691 C 546.629,317.283 547.564,320.739 545.837,323.907 C 544.253,327.003 541.085,329.307 537.27,330.675 C 533.454,332.043 527.981,332.404 522.149,331.034 C 516.246,329.738 510.557,327.219 506.885,323.835 C 503.789,321.027 504.293,317.643 511.061,315.627 C 517.973,313.611 522.725,311.667 525.893,310.011 C 528.484,308.643 531.797,307.779 535.396,308.715 z"
   style="fill:#767317;stroke:#4d4c36;stroke-width:7.99100018" />
				<path
   id="path2856"
   d="M 508.469,428.019 C 510.485,424.564 512.862,424.923 515.526,427.228 C 518.694,429.963 522.87,433.923 526.038,439.396 C 525.821,446.091 520.782,451.276 517.614,454.515 C 515.382,456.82 513.942,458.043 512.358,455.883 C 510.702,454.587 509.477,452.931 508.469,451.347 C 507.173,449.331 504.725,446.595 502.492,444.003 C 500.693,441.627 501.342,439.251 502.853,437.091 C 504.581,434.572 506.453,431.475 508.469,428.019 z"
   style="fill:#767317;stroke:#4d4c36;stroke-width:7.99100018" />
				<path
   id="path2858"
   d="M 386.357,456.243 C 392.908,456.676 398.812,458.908 402.413,462.004 C 405.653,464.813 406.877,468.988 405.653,473.235 C 404.573,477.411 401.404,481.155 397.877,483.819 C 394.492,486.267 390.461,488.139 386.285,487.923 C 381.965,487.707 377.933,485.692 374.404,482.812 C 370.804,479.788 367.492,475.54 366.197,471.076 C 365.045,466.54 366.342,462.292 369.869,459.772 C 373.541,457.035 379.805,455.812 386.357,456.243 z"
   style="fill:#767317;stroke:#4d4c36;stroke-width:7.99100018" />
				<path
   id="path2860"
   d="M 204.845,381.003 C 209.238,381.507 213.342,384.026 216.149,386.907 C 218.957,389.786 220.829,393.242 220.829,396.987 C 220.829,400.875 218.741,405.339 216.149,409.299 C 213.197,413.835 209.165,418.515 204.845,421.539 C 200.309,424.491 196.061,424.563 193.109,421.683 C 190.013,418.803 188.429,412.971 188.429,405.484 C 188.429,398.355 190.012,391.443 193.109,386.836 C 195.917,382.515 200.453,380.5 204.845,381.003 z"
   style="fill:#767317;stroke:#4d4c36;stroke-width:7.99100018" />
				<path
   id="path2862"
   d="M 125.429,172.779 C 132.773,174.795 139.469,180.627 141.485,187.323 C 143.285,193.299 141.557,200.499 138.461,207.771 C 139.253,216.771 141.773,227.067 140.693,234.123 C 139.757,240.243 132.773,239.234 125.429,229.659 C 118.012,220.011 111.029,211.659 103.757,204.387 C 96.34,196.971 90.005,189.483 89.645,183.651 C 91.589,178.899 97.493,175.515 104.333,173.571 C 110.956,171.627 118.085,170.763 125.429,172.779 z"
   style="fill:#767317;stroke:#4d4c36;stroke-width:7.99100018" />
			</g>
			<g
   id="g2864">
				<g
   id="g2866">
					<path
   id="path2868"
   d="M 334.013,343.419 C 348.629,315.411 355.829,286.539 357.917,256.947 C 362.093,258.027 366.197,259.107 370.373,260.114 C 374.333,261.123 378.581,262.059 382.613,263.138 C 380.669,290.571 374.404,317.427 361.804,343.419 L 334.013,343.419 z"
   style="fill:#67c3b7" />
					<path
   id="path2870"
   d="M 334.013,343.419 C 331.205,348.675 328.182,353.931 324.869,359.188 C 303.197,393.316 268.277,428.164 213.341,464.091 C 153.005,503.547 108.005,546.963 76.901,592.467 C 44.213,640.276 28.229,688.443 24.34,735.387 C 31.181,734.307 38.381,733.227 45.365,732.219 C 52.421,731.139 59.261,730.059 66.029,729.051 C 69.916,683.547 85.108,636.819 115.853,590.45 C 145.157,546.315 187.853,504.051 244.949,465.603 C 297.077,430.539 330.269,396.483 351.005,363.075 C 355.037,356.595 358.637,350.043 361.805,343.419 L 334.013,343.419 L 334.013,343.419 z"
   style="fill:#67c3b7" />
				</g>
				<g
   id="g2872">
					<path
   id="path2874"
   d="M 357.917,256.947 C 362.093,258.027 366.197,259.107 370.373,260.114 C 374.333,261.123 378.581,262.059 382.613,263.138 C 380.165,297.555 370.949,330.963 351.005,363.076 C 330.27,396.484 297.077,430.54 244.949,465.604 C 187.853,504.051 145.157,546.316 115.853,590.451 C 85.108,636.819 69.916,683.548 66.029,729.052 C 59.26,730.06 52.421,731.14 45.365,732.22 C 38.381,733.228 31.181,734.308 24.34,735.388 C 28.229,688.444 44.213,640.277 76.901,592.468 C 108.005,546.964 153.005,503.548 213.341,464.092 C 268.277,428.164 303.197,393.317 324.869,359.189 C 345.749,326.284 355.469,292.155 357.917,256.947 z"
   style="fill:none;stroke:#6a988f;stroke-width:7.99100018" />
				</g>
			</g>
			<g
   id="g2876">
				<path
   id="path2878"
   d="M 373.9,300.795 C 375.629,301.227 377.573,302.234 379.228,303.027 C 382.18,304.467 384.989,308.282 385.492,311.739 C 388.804,332.188 393.197,352.635 397.373,372.939 C 401.404,392.883 405.005,412.827 405.005,432.267 C 405.005,435.795 401.837,433.996 398.741,429.459 C 397.661,427.875 395.717,426.291 394.133,425.427 C 391.613,424.059 390.965,420.171 390.965,417.147 C 390.965,399.219 387.149,380.572 382.613,362.068 C 378.005,343.276 373.253,324.051 369.509,305.114 C 368.861,301.875 371.021,300.003 373.9,300.795 z"
   style="fill:#ffff99;stroke:#78776c;stroke-width:7.99100018" />
				<path
   id="path2880"
   d="M 395.645,276.963 C 396.438,274.875 397.805,272.066 400.11,271.491 C 409.614,269.186 416.238,268.467 418.973,268.971 C 434.381,271.995 449.574,275.667 464.19,279.267 C 478.229,282.795 492.27,286.683 505.662,290.715 C 508.11,291.435 507.534,293.018 500.19,294.963 C 498.246,295.467 496.95,297.771 496.013,299.426 C 494.645,301.875 492.053,303.675 489.606,303.171 C 475.637,299.931 461.166,296.835 446.477,293.811 C 431.286,290.715 415.229,287.186 399.173,284.018 C 396.293,283.443 394.35,280.275 395.645,276.963 z"
   style="fill:#ffff99;stroke:#78776c;stroke-width:7.99100018" />
				<path
   id="path2882"
   d="M 207.581,214.467 C 214.349,214.539 218.669,213.459 221.261,212.162 C 225.221,210.147 230.406,209.499 234.293,211.083 C 255.317,219.939 275.909,227.499 295.564,233.33 C 314.716,238.947 333.365,243.411 351.148,247.731 C 354.245,248.451 355.613,251.475 353.596,253.995 C 352.228,255.579 349.708,257.306 345.388,257.595 C 333.796,258.459 328.468,259.395 325.084,258.675 C 305.86,254.21 285.124,249.459 264.316,243.555 C 242.644,237.363 219.964,228.867 196.636,219.075 C 192.533,217.419 192.029,214.179 207.581,214.467 z"
   style="fill:#ffff99;stroke:#78776c;stroke-width:7.99100018" />
				<path
   id="path2884"
   d="M 383.404,107.475 C 384.845,107.475 386.716,107.547 388.228,107.402 C 390.82,107.187 392.332,108.483 392.26,111.939 C 391.9,130.011 393.412,148.875 395.788,168.099 C 398.164,186.963 400.972,206.186 402.772,224.763 C 403.059,228.003 401.043,230.883 398.307,230.306 C 396.723,230.019 394.78,229.515 393.34,229.299 C 390.604,228.939 388.227,225.843 388.011,222.603 C 386.499,204.531 383.764,186.027 381.459,167.378 C 379.155,148.947 377.715,130.227 377.932,112.659 C 377.934,109.491 380.669,107.475 383.404,107.475 z"
   style="fill:#ffff99;stroke:#78776c;stroke-width:7.99100018" />
				<path
   id="path2886"
   d="M 239.333,74.283 C 240.701,73.347 242.429,72.339 243.653,71.547 C 246.101,70.035 250.061,71.187 252.365,74.211 C 279.725,109.851 307.228,145.491 333.869,179.115 C 336.101,181.995 336.533,185.739 334.589,187.539 C 333.653,188.402 332.213,189.699 331.133,190.635 C 329.333,192.363 325.805,191.354 323.43,188.402 C 296.645,154.275 268.638,118.347 239.909,82.635 C 237.461,79.611 237.101,75.867 239.333,74.283 z"
   style="fill:#ffff99;stroke:#78776c;stroke-width:7.99100018" />
				<path
   id="path2888"
   d="M 426.749,338.595 C 427.541,337.155 428.549,335.499 429.342,334.202 C 430.925,331.755 433.661,331.971 435.821,334.563 C 458.934,363.146 480.246,386.834 498.821,404.331 C 500.118,405.555 499.973,408.65 498.102,411.387 C 497.022,412.971 495.942,415.131 494.43,416.355 C 490.829,419.164 489.606,420.099 488.813,419.091 C 473.837,400.154 451.662,376.971 428.045,348.171 C 425.812,345.507 425.381,341.115 426.749,338.595 z"
   style="fill:#ffff99;stroke:#78776c;stroke-width:7.99100018" />
				<path
   id="path2890"
   d="M 490.181,181.708 C 490.829,184.3 491.477,186.892 492.198,189.196 C 493.493,193.3 493.422,195.532 491.838,195.532 C 476.142,195.964 462.246,207.628 448.638,224.548 C 447.414,226.06 444.607,224.98 442.519,221.668 C 441.222,219.652 439.783,217.564 438.486,215.548 C 436.327,212.235 435.751,207.772 437.047,206.116 C 451.231,188.259 466.279,175.876 484.711,173.572 C 486.438,173.354 489.173,177.604 490.181,181.708 z"
   style="fill:#ffff99;stroke:#78776c;stroke-width:7.99100018" />
				<path
   id="path2892"
   d="M 310.253,311.523 C 311.908,313.179 313.925,315.051 315.725,316.707 C 318.677,319.587 320.118,323.475 318.677,325.491 C 302.981,347.667 286.854,369.194 263.813,385.251 C 261.437,386.907 256.973,384.171 255.389,380.931 C 254.309,378.772 253.013,376.611 251.574,374.379 C 249.053,370.419 249.27,367.322 251.07,365.955 C 270.078,351.843 285.486,331.395 301.758,309.579 C 303.197,307.708 307.157,308.571 310.253,311.523 z"
   style="fill:#ffff99;stroke:#78776c;stroke-width:7.99100018" />
			</g>
			<g
   id="g2894">
				<g
   id="g2896">
					<path
   id="path2898"
   d="M 295.925,262.491 C 296.862,257.739 297.365,252.843 297.365,247.875 C 297.365,216.627 277.205,180.339 266.189,144.987 C 261.149,128.787 275.189,120.435 290.813,129.939 C 323.43,149.739 353.238,175.587 382.614,185.019 C 410.118,193.875 435.606,187.899 460.59,188.835 C 471.462,189.267 480.821,203.523 475.998,213.531 C 467.718,230.451 453.966,245.067 447.126,262.419 L 431.07,262.491 C 436.397,250.251 446.19,239.739 452.238,227.643 C 455.909,220.227 448.782,209.571 440.43,209.499 C 421.782,209.21 402.701,214.035 382.614,207.915 C 361.446,201.507 340.278,183.723 317.382,170.258 C 306.726,164.067 297.006,170.258 300.462,181.563 C 308.094,206.33 321.846,231.675 321.846,253.923 C 321.846,256.803 321.63,259.683 321.199,262.491 L 295.925,262.491 z"
   style="fill:#cbbddc" />
					<path
   id="path2900"
   d="M 265.325,343.419 C 265.037,340.899 265.325,338.379 266.261,335.786 C 275.406,310.443 291.173,287.763 295.925,262.491 L 321.197,262.491 C 318.388,281.138 307.085,297.699 300.605,315.987 C 297.077,325.779 306.869,336.507 317.38,334.707 C 340.42,330.819 361.3,320.235 382.612,324.339 C 395.86,326.86 408.532,335.139 420.988,343.419 L 265.325,343.419 z"
   style="fill:#cbbddc" />
					<path
   id="path2902"
   d="M 451.949,343.419 C 443.381,321.963 427.18,300.003 427.18,279.699 C 427.18,273.435 428.693,267.819 431.069,262.491 L 447.125,262.419 C 444.533,268.971 442.877,275.955 442.877,283.515 C 442.877,302.955 453.461,323.187 463.758,343.419 L 451.949,343.419 z"
   style="fill:#cbbddc" />
					<path
   id="path2904"
   d="M 265.325,343.419 C 266.477,354.507 278.213,363.939 290.812,361.564 C 323.573,355.299 353.092,340.107 382.613,345.147 C 410.26,349.9 435.533,372.435 460.589,385.9 C 471.389,391.731 480.965,382.228 476.069,369.772 C 472.613,361.059 468.22,352.203 463.757,343.419 L 451.948,343.419 C 452.092,343.635 452.164,343.851 452.236,344.067 C 455.979,353.499 448.708,360.338 440.428,355.73 C 433.948,352.202 427.467,347.811 420.988,343.418 L 265.325,343.418 L 265.325,343.419 z"
   style="fill:#cbbddc" />
				</g>
				<g
   id="g2906">
					<path
   id="path2908"
   d="M 290.812,129.939 C 323.429,149.739 353.237,175.587 382.613,185.019 C 410.117,193.875 435.605,187.899 460.589,188.835 C 471.461,189.267 480.82,203.523 475.997,213.531 C 464.621,236.787 442.877,255.723 442.877,283.515 C 442.877,311.379 464.621,340.9 476.069,369.772 C 480.965,382.228 471.388,391.731 460.589,385.9 C 435.533,372.435 410.261,349.9 382.613,345.147 C 353.092,340.107 323.573,355.299 290.812,361.564 C 275.405,364.515 261.22,349.683 266.26,335.787 C 277.133,305.692 297.364,279.267 297.364,247.876 C 297.364,216.628 277.204,180.34 266.188,144.988 C 261.149,128.788 275.189,120.435 290.812,129.939 z"
   style="fill:none;stroke:#67646a;stroke-width:7.99100018" />
					<path
   id="path2910"
   d="M 317.381,170.258 C 306.725,164.067 297.005,170.258 300.461,181.563 C 308.093,206.33 321.845,231.675 321.845,253.923 C 321.845,276.243 308.093,294.963 300.606,315.987 C 297.078,325.779 306.87,336.507 317.381,334.707 C 340.421,330.819 361.301,320.235 382.613,324.339 C 402.845,328.228 421.564,345.363 440.429,355.731 C 448.708,360.339 455.98,353.5 452.237,344.068 C 443.669,322.396 427.18,300.219 427.18,279.699 C 427.18,259.179 443.525,245.067 452.237,227.643 C 455.908,220.227 448.781,209.571 440.429,209.499 C 421.781,209.21 402.7,214.035 382.613,207.915 C 361.445,201.507 340.277,183.723 317.381,170.258 z"
   style="fill:none;stroke:#67646a;stroke-width:7.99100018" />
				</g>
			</g>
			<g
   id="g2912">
				<path
   id="path2914"
   d="M 204.701,3.651 C 209.021,5.451 212.765,8.907 215.429,12.435 C 218.021,15.891 220.181,20.067 220.181,23.739 C 220.181,27.483 217.949,29.859 215.501,32.019 C 212.621,34.611 209.021,37.923 204.773,40.875 C 200.381,42.531 196.421,39.075 192.317,34.035 C 187.637,28.419 182.237,21.939 179.429,15.387 C 180.293,9.483 186.485,6.315 191.957,4.443 C 196.493,2.859 200.381,1.851 204.701,3.651 z"
   style="fill:#c98fc5;stroke:#796878;stroke-width:7.99100018" />
				<path
   id="path2916"
   d="M 393.053,50.235 C 400.037,54.123 404.141,63.987 407.453,70.179 C 410.261,75.363 411.269,79.611 408.029,81.987 C 404.789,84.435 401.621,86.451 399.029,87.387 C 396.581,88.251 393.197,87.963 389.381,86.019 C 385.35,84.579 381.749,81.915 378.869,78.819 C 375.773,75.363 372.749,70.683 370.661,65.787 C 369.148,61.179 371.957,58.659 375.773,55.923 C 380.237,52.683 386.069,46.347 393.053,50.235 z"
   style="fill:#c98fc5;stroke:#796878;stroke-width:7.99100018" />
				<path
   id="path2918"
   d="M 522.941,165.435 C 526.613,166.875 530.14,168.459 533.237,171.555 C 536.908,175.227 540.508,180.267 541.373,184.875 C 540.509,188.763 536.693,191.067 533.237,193.299 C 529.997,195.315 526.685,197.33 522.941,196.539 C 519.341,194.667 516.245,190.419 513.796,185.955 C 511.491,181.707 509.548,177.099 509.548,172.707 C 509.548,168.315 511.277,165.003 513.796,163.779 C 516.029,162.699 519.27,163.995 522.941,165.435 z"
   style="fill:#c98fc5;stroke:#796878;stroke-width:7.99100018" />
				<path
   id="path2920"
   d="M 549.221,303.171 C 552.821,304.107 556.205,306.339 558.366,309.147 C 560.454,311.739 561.389,315.195 559.662,318.363 C 558.078,321.459 554.909,323.763 551.094,325.131 C 547.279,326.499 541.806,326.86 535.974,325.491 C 530.071,324.195 524.382,321.675 520.71,318.291 C 517.614,315.483 518.118,312.099 524.886,310.083 C 531.798,308.066 536.55,306.123 539.718,304.467 C 542.309,303.099 545.621,302.234 549.221,303.171 z"
   style="fill:#c98fc5;stroke:#796878;stroke-width:7.99100018" />
				<path
   id="path2922"
   d="M 522.293,422.475 C 524.309,419.019 526.686,419.379 529.35,421.683 C 532.518,424.419 536.694,428.379 539.862,433.851 C 539.645,440.547 534.606,445.731 531.438,448.971 C 529.206,451.276 527.766,452.499 526.181,450.339 C 524.526,449.043 523.301,447.387 522.293,445.803 C 520.997,443.786 518.549,441.051 516.316,438.459 C 514.517,436.083 515.165,433.707 516.676,431.547 C 518.404,429.027 520.277,425.931 522.293,422.475 z"
   style="fill:#c98fc5;stroke:#796878;stroke-width:7.99100018" />
				<path
   id="path2924"
   d="M 400.181,450.699 C 406.733,451.132 412.637,453.364 416.238,456.46 C 419.477,459.268 420.702,463.443 419.477,467.692 C 418.397,471.868 415.229,475.611 411.702,478.276 C 408.317,480.723 404.286,482.595 400.11,482.379 C 395.79,482.164 391.758,480.148 388.229,477.268 C 384.629,474.244 381.317,469.997 380.022,465.532 C 378.87,460.997 380.166,456.749 383.694,454.229 C 387.365,451.492 393.629,450.267 400.181,450.699 z"
   style="fill:#c98fc5;stroke:#796878;stroke-width:7.99100018" />
				<path
   id="path2926"
   d="M 218.669,375.459 C 223.061,375.963 227.165,378.483 229.973,381.363 C 232.781,384.242 234.653,387.698 234.653,391.442 C 234.653,395.331 232.565,399.795 229.973,403.754 C 227.021,408.29 222.989,412.97 218.669,415.994 C 214.133,418.945 209.885,419.017 206.933,416.138 C 203.837,413.258 202.253,407.426 202.253,399.938 C 202.253,392.811 203.837,385.899 206.933,381.291 C 209.741,376.971 214.277,374.956 218.669,375.459 z"
   style="fill:#c98fc5;stroke:#796878;stroke-width:7.99100018" />
				<path
   id="path2928"
   d="M 139.253,167.234 C 146.597,169.251 153.293,175.083 155.309,181.779 C 157.109,187.755 155.381,194.955 152.285,202.227 C 153.077,211.227 155.597,221.523 154.517,228.579 C 153.581,234.699 146.597,233.691 139.253,224.115 C 131.837,214.467 124.853,206.115 117.581,198.843 C 110.165,191.426 103.829,183.939 103.469,178.107 C 105.413,173.354 111.317,169.971 118.157,168.027 C 124.781,166.083 131.909,165.219 139.253,167.234 z"
   style="fill:#c98fc5;stroke:#796878;stroke-width:7.99100018" />
			</g>
		</g></svg>