<?xml version="1.0" encoding="UTF-8" standalone="no"?>
<!-- Generator: Adobe Illustrator 10, SVG Export Plug-In . SVG Version: 3.0.0 Build 76)  -->
<svg
   xmlns:dc="http://purl.org/dc/elements/1.1/"
   xmlns:cc="http://creativecommons.org/ns#"
   xmlns:rdf="http://www.w3.org/1999/02/22-rdf-syntax-ns#"
   xmlns:svg="http://www.w3.org/2000/svg"
   xmlns="http://www.w3.org/2000/svg"
   xmlns:sodipodi="http://sodipodi.sourceforge.net/DTD/sodipodi-0.dtd"
   xmlns:inkscape="http://www.inkscape.org/namespaces/inkscape"
   width="411.44113"
   height="556.19519"
   viewBox="0 0 468.311 633.104"
   style="overflow:visible"
   xml:space="preserve"
   id="svg2937"
   sodipodi:version="0.32"
   inkscape:version="0.46"
   sodipodi:docname="ESP.svg"
   inkscape:output_extension="org.inkscape.output.svg.inkscape"
   version="1.0"><metadata
   id="metadata3007"><rdf:RDF><cc:Work
       rdf:about=""><dc:format>image/svg+xml</dc:format><dc:type
         rdf:resource="http://purl.org/dc/dcmitype/StillImage" /></cc:Work></rdf:RDF></metadata><defs
   id="defs3005"><inkscape:perspective
   sodipodi:type="inkscape:persp3d"
   inkscape:vp_x="0 : 316.552 : 1"
   inkscape:vp_y="0 : 1000 : 0"
   inkscape:vp_z="468.311 : 316.552 : 1"
   inkscape:persp3d-origin="234.1555 : 211.03467 : 1"
   id="perspective3009" />
		
		
	</defs><sodipodi:namedview
   inkscape:window-height="670"
   inkscape:window-width="640"
   inkscape:pageshadow="2"
   inkscape:pageopacity="0.0"
   guidetolerance="10.0"
   gridtolerance="10.0"
   objecttolerance="10.0"
   borderopacity="1.0"
   bordercolor="#666666"
   pagecolor="#ffffff"
   id="base"
   showgrid="false"
   inkscape:zoom="0.72973792"
   inkscape:cx="234.1555"
   inkscape:cy="316.552"
   inkscape:window-x="118"
   inkscape:window-y="70"
   inkscape:current-layer="svg2937" />
	<style
   type="text/css"
   id="style2939">
	
		@font-face{font-family:'Times-Roman';src:url(A428EAF8.cef)}
	
	</style>
	
<g
   style="overflow:visible"
   id="g2958"
   transform="matrix(1.1382767,0,0,1.1382767,-4.9901978,-1.0752689e-3)">
			<g
   id="g2960">
				<g
   id="g2962">
					<path
   id="path2964"
   d="M 132.919,122.967 C 134.935,113.463 138.319,103.095 143.143,91.575 C 156.607,59.247 187.495,26.199 219.823,22.023 L 233.359,22.023 C 238.903,22.815 244.375,24.543 249.775,27.351 C 288.222,47.583 300.319,86.535 283.543,122.967 L 256.327,122.967 C 263.238,105.543 260.575,90.278 244.806,80.991 C 225.439,69.543 196.566,79.983 184.471,104.824 C 181.591,110.728 179.862,116.847 179.07,122.968 L 132.919,122.968 L 132.919,122.967 z"
   style="fill:#b3b3b3" />
					<path
   id="path2966"
   d="M 67.111,330.111 C 67.111,317.799 68.407,305.486 71.935,293.247 C 83.095,254.655 113.767,218.871 147.103,182.439 C 132.271,167.247 127.591,148.455 132.919,122.967 L 179.071,122.967 C 176.623,142.479 184.399,161.127 197.863,167.607 C 215.431,176.103 236.311,157.599 250.063,135.206 C 252.655,131.031 254.743,126.927 256.328,122.967 L 283.544,122.967 C 282.248,125.775 280.808,128.583 279.151,131.319 C 256.328,170.127 219.391,195.687 192.752,204.038 C 178.424,242.127 163.592,279.207 172.664,312.255 C 174.32,318.375 176.696,324.352 179.72,330.111 L 67.111,330.111 z"
   style="fill:#b3b3b3" />
					<path
   id="path2968"
   d="M 25.208,459.277 C 19.735,450.567 15.271,441.783 11.961,432.855 C -2.799,393.398 26.431,369.926 50.407,377.775 C 74.455,385.695 65.815,384.902 74.023,389.942 C 70.855,370.647 67.183,350.486 67.111,330.111 L 179.718,330.111 C 193.758,357.758 221.118,382.022 248.982,407.222 C 250.495,398.798 245.167,396.71 261.654,388.43 C 278.07,380.151 348.271,397.502 379.592,436.094 C 385.783,443.726 389.742,451.502 391.975,459.277 L 358.135,459.277 C 356.407,454.959 353.887,450.567 350.431,446.318 C 334.52,426.518 307.231,415.503 295.352,422.127 C 285.848,427.383 287.936,442.79 296.864,459.277 L 118.879,459.277 C 104.695,440.486 83.455,422.342 67.183,415.503 C 46.087,406.574 38.887,418.6 47.671,439.047 C 50.479,445.6 54.727,452.511 59.911,459.277 L 25.208,459.277 L 25.208,459.277 z"
   style="fill:#b3b3b3" />
					<path
   id="path2970"
   d="M 156.535,552.447 C 145.087,551.726 131.047,547.262 115.423,538.767 C 75.319,517.022 44.071,489.086 25.208,459.277 L 59.911,459.277 C 71.071,473.607 86.767,487.215 103.111,495.495 C 127.158,507.734 140.983,499.67 129.391,475.982 C 126.727,470.51 123.127,464.894 118.879,459.277 L 296.863,459.277 C 299.24,463.526 301.974,467.846 305.142,472.094 C 320.478,492.902 338.263,503.414 350.718,495.855 C 360.511,489.951 364.542,474.975 358.134,459.277 L 391.974,459.277 C 401.119,490.959 380.742,521.99 359.286,535.959 C 332.574,553.311 302.766,533.942 278.502,490.167 C 264.246,498.302 248.981,507.807 230.55,510.614 C 215.935,512.846 199.735,507.806 182.598,502.622 C 194.478,533.151 185.046,550.863 163.302,552.447 L 156.535,552.447 L 156.535,552.447 z"
   style="fill:#b3b3b3" />
				</g>
				<g
   id="g2972">
					<path
   id="path2974"
   d="M 248.982,407.223 C 250.495,398.799 245.167,396.711 261.654,388.431 C 278.07,380.152 348.271,397.503 379.592,436.095 C 410.983,474.759 385.999,518.535 359.287,535.959 C 332.575,553.311 302.767,533.942 278.503,490.167 C 264.247,498.302 248.982,507.807 230.551,510.614 C 215.936,512.846 199.736,507.806 182.599,502.622 C 201.247,550.719 167.192,566.919 115.423,538.768 C 63.655,510.688 26.719,472.383 11.961,432.856 C -2.799,393.399 26.431,369.927 50.407,377.776 C 74.455,385.696 65.815,384.903 74.023,389.943 C 68.911,358.983 62.575,325.647 71.935,293.248 C 83.095,254.656 113.767,218.872 147.103,182.44 C 126.727,161.632 125.503,133.912 143.143,91.576 C 160.783,49.24 208.303,5.68 249.775,27.352 C 291.174,49.096 302.046,92.584 279.15,131.32 C 256.327,170.128 219.39,195.688 192.751,204.039 C 178.423,242.128 163.591,279.208 172.663,312.256 C 182.311,347.535 215.287,376.768 248.982,407.223 z"
   style="fill:none;stroke:#000000;stroke-width:7.19899988" />
					<path
   id="path2976"
   d="M 244.807,80.991 C 225.44,69.543 196.567,79.983 184.472,104.824 C 172.304,129.736 180.223,159.111 197.863,167.608 C 215.431,176.104 236.311,157.6 250.063,135.207 C 263.814,112.815 264.175,92.439 244.807,80.991 z"
   style="fill:none;stroke:#000000;stroke-width:7.19899988" />
					<path
   id="path2978"
   d="M 295.352,422.127 C 283.399,428.751 289.736,451.359 305.143,472.095 C 320.479,492.903 338.264,503.415 350.719,495.856 C 363.175,488.295 366.343,466.12 350.431,446.319 C 334.52,426.519 307.23,415.503 295.352,422.127 z"
   style="fill:none;stroke:#000000;stroke-width:7.19899988" />
					<path
   id="path2980"
   d="M 67.183,415.503 C 46.087,406.574 38.887,418.6 47.671,439.047 C 56.384,459.495 79.063,483.326 103.111,495.495 C 127.158,507.734 140.983,499.67 129.391,475.982 C 117.799,452.294 88.279,424.359 67.183,415.503 z"
   style="fill:none;stroke:#000000;stroke-width:7.19899988" />
				</g>
			</g>
			<g
   id="g2982">
				<g
   id="g2984">
					<path
   id="path2986"
   d="M 150.919,104.967 C 152.935,95.463 156.319,85.095 161.143,73.575 C 174.607,41.247 205.495,8.199 237.823,4.023 L 251.359,4.023 C 256.903,4.815 262.375,6.543 267.775,9.351 C 306.222,29.583 318.319,68.535 301.543,104.967 L 274.327,104.967 C 281.24,87.543 278.575,72.278 262.806,62.991 C 243.439,51.543 214.566,61.983 202.47,86.824 C 199.591,92.728 197.862,98.847 197.07,104.968 L 150.919,104.968 L 150.919,104.967 z"
   style="fill:#e6e6e6" />
					<path
   id="path2988"
   d="M 86.047,330.111 C 84.391,311.894 84.679,293.463 89.935,275.247 C 101.095,236.655 131.767,200.871 165.103,164.439 C 150.271,149.247 145.591,130.455 150.919,104.967 L 197.071,104.967 C 194.623,124.479 202.399,143.127 215.863,149.607 C 233.43,158.103 254.31,139.599 268.062,117.206 C 270.654,113.031 272.742,108.927 274.327,104.967 L 301.543,104.967 C 300.247,107.775 298.807,110.583 297.15,113.319 C 274.327,152.127 237.39,177.687 210.751,186.038 C 196.423,224.127 181.591,261.207 190.663,294.255 C 194.119,306.856 200.527,318.734 208.951,330.111 L 86.047,330.111 L 86.047,330.111 z"
   style="fill:#e6e6e6" />
					<path
   id="path2990"
   d="M 43.207,441.277 C 37.735,432.567 33.271,423.783 29.959,414.855 C 15.2,375.398 44.431,351.926 68.407,359.775 C 92.455,367.695 83.815,366.902 92.023,371.942 C 89.791,358.335 87.271,344.295 86.047,330.111 L 208.951,330.111 C 223.999,350.559 245.311,369.638 266.983,389.222 C 268.496,380.798 263.168,378.71 279.655,370.43 C 296.071,362.151 366.272,379.502 397.593,418.094 C 403.784,425.726 407.743,433.502 409.976,441.277 L 376.136,441.277 C 374.408,436.959 371.888,432.567 368.432,428.318 C 352.521,408.518 325.232,397.503 313.353,404.127 C 303.849,409.383 305.937,424.79 314.865,441.277 L 136.879,441.277 C 122.695,422.486 101.455,404.342 85.183,397.503 C 64.087,388.574 56.887,400.6 65.671,421.047 C 68.479,427.6 72.727,434.511 77.911,441.277 L 43.207,441.277 L 43.207,441.277 z"
   style="fill:#e6e6e6" />
					<path
   id="path2992"
   d="M 174.535,534.447 C 163.087,533.726 149.047,529.262 133.423,520.767 C 93.32,499.022 62.071,471.086 43.207,441.277 L 77.911,441.277 C 89.071,455.607 104.767,469.215 121.111,477.495 C 145.158,489.734 158.984,481.67 147.391,457.982 C 144.728,452.51 141.127,446.894 136.879,441.277 L 314.863,441.277 C 317.24,445.526 319.974,449.846 323.142,454.094 C 338.478,474.902 356.262,485.414 368.718,477.855 C 378.511,471.951 382.542,456.975 376.134,441.277 L 409.974,441.277 C 419.119,472.959 398.742,503.99 377.286,517.959 C 350.574,535.311 320.766,515.942 296.502,472.167 C 282.246,480.302 266.981,489.807 248.55,492.614 C 233.935,494.846 217.735,489.806 200.598,484.623 C 212.478,515.151 203.046,532.863 181.302,534.447 L 174.535,534.447 L 174.535,534.447 z"
   style="fill:#e6e6e6" />
				</g>
				<g
   id="g2994">
					<path
   id="path2996"
   d="M 266.982,389.223 C 268.495,380.799 263.167,378.711 279.654,370.431 C 296.07,362.152 366.271,379.503 397.592,418.095 C 428.983,456.759 403.999,500.535 377.287,517.959 C 350.575,535.311 320.767,515.942 296.503,472.167 C 282.247,480.302 266.982,489.807 248.551,492.614 C 233.936,494.846 217.736,489.806 200.599,484.623 C 219.247,532.719 185.192,548.919 133.423,520.768 C 81.655,492.688 44.719,454.383 29.959,414.856 C 15.2,375.399 44.431,351.927 68.407,359.776 C 92.455,367.696 83.815,366.903 92.023,371.943 C 86.911,340.983 80.576,307.647 89.935,275.248 C 101.095,236.656 131.767,200.872 165.103,164.44 C 144.728,143.632 143.503,115.912 161.143,73.576 C 178.783,31.24 226.303,-12.32 267.775,9.352 C 309.174,31.096 320.046,74.584 297.15,113.32 C 274.327,152.128 237.39,177.688 210.751,186.039 C 196.423,224.128 181.591,261.208 190.663,294.256 C 200.311,329.535 233.287,358.768 266.982,389.223 z"
   style="fill:none;stroke:#000000;stroke-width:7.19899988" />
					<path
   id="path2998"
   d="M 262.807,62.991 C 243.44,51.543 214.567,61.983 202.471,86.824 C 190.304,111.736 198.223,141.111 215.864,149.608 C 233.431,158.104 254.311,139.6 268.063,117.207 C 281.814,94.815 282.175,74.439 262.807,62.991 z"
   style="fill:none;stroke:#000000;stroke-width:7.19899988" />
					<path
   id="path3000"
   d="M 313.352,404.127 C 301.399,410.751 307.735,433.359 323.143,454.095 C 338.479,474.903 356.263,485.415 368.719,477.856 C 381.175,470.295 384.343,448.12 368.431,428.319 C 352.52,408.519 325.23,397.503 313.352,404.127 z"
   style="fill:none;stroke:#000000;stroke-width:7.19899988" />
					<path
   id="path3002"
   d="M 85.183,397.503 C 64.087,388.574 56.887,400.6 65.671,421.047 C 74.383,441.495 97.063,465.326 121.111,477.495 C 145.158,489.734 158.984,481.67 147.391,457.982 C 135.799,434.295 106.279,406.359 85.183,397.503 z"
   style="fill:none;stroke:#000000;stroke-width:7.19899988" />
				</g>
			</g>
		</g></svg>