<?xml version="1.0" encoding="UTF-8" standalone="no"?>
<!-- Generator: Adobe Illustrator 10, SVG Export Plug-In . SVG Version: 3.0.0 Build 76)  -->
<svg
   xmlns:dc="http://purl.org/dc/elements/1.1/"
   xmlns:cc="http://creativecommons.org/ns#"
   xmlns:rdf="http://www.w3.org/1999/02/22-rdf-syntax-ns#"
   xmlns:svg="http://www.w3.org/2000/svg"
   xmlns="http://www.w3.org/2000/svg"
   xmlns:sodipodi="http://sodipodi.sourceforge.net/DTD/sodipodi-0.dtd"
   xmlns:inkscape="http://www.inkscape.org/namespaces/inkscape"
   width="719.78204"
   height="797.68701"
   viewBox="0 0 728.322 875.955"
   style="overflow:visible"
   xml:space="preserve"
   id="svg3011"
   sodipodi:version="0.32"
   inkscape:version="0.46"
   sodipodi:docname="Here.svg"
   inkscape:output_extension="org.inkscape.output.svg.inkscape"
   version="1.0"><metadata
   id="metadata3137"><rdf:RDF><cc:Work
       rdf:about=""><dc:format>image/svg+xml</dc:format><dc:type
         rdf:resource="http://purl.org/dc/dcmitype/StillImage" /></cc:Work></rdf:RDF></metadata><defs
   id="defs3135"><inkscape:perspective
   sodipodi:type="inkscape:persp3d"
   inkscape:vp_x="0 : 437.97751 : 1"
   inkscape:vp_y="0 : 1000 : 0"
   inkscape:vp_z="728.32202 : 437.97751 : 1"
   inkscape:persp3d-origin="364.16101 : 291.98501 : 1"
   id="perspective3139" />
		
		
	</defs><sodipodi:namedview
   inkscape:window-height="670"
   inkscape:window-width="640"
   inkscape:pageshadow="2"
   inkscape:pageopacity="0.0"
   guidetolerance="10.0"
   gridtolerance="10.0"
   objecttolerance="10.0"
   borderopacity="1.0"
   bordercolor="#666666"
   pagecolor="#ffffff"
   id="base"
   showgrid="false"
   inkscape:zoom="0.52742434"
   inkscape:cx="364.16101"
   inkscape:cy="437.97751"
   inkscape:window-x="0"
   inkscape:window-y="64"
   inkscape:current-layer="svg3011" />
	<style
   type="text/css"
   id="style3013">
	
		@font-face{font-family:'Times-Roman';src:url(E2EE1A30.cef)}
	
	</style>
	
<g
   transform="matrix(1.0981187,0,0,1.0981187,-38.78214,-0.540835)"
   style="overflow:visible"
   id="g3032">
			<g
   id="g3034">
				<g
   id="g3036">
					<g
   id="g3038">
						<path
   id="path3040"
   d="M 296.596,245.976 C 300.196,223.656 314.092,200.4 333.316,192.552 C 336.988,191.04 340.876,190.248 344.692,190.104 L 348.58,190.104 C 371.116,191.544 394.517,213 404.885,236.544 C 406.324,239.856 407.549,242.952 408.485,245.976 L 372.269,245.976 C 372.053,243.96 371.549,241.872 370.756,239.856 C 366.149,228.192 354.34,221.424 344.26,225.096 C 336.124,228.048 330.94,236.76 331.156,245.976 L 296.596,245.976 L 296.596,245.976 z"
   style="fill:#3d354c" />
						<path
   id="path3042"
   d="M 292.853,429.144 C 296.021,424.464 298.973,419.712 301.925,414.96 C 322.373,381.552 335.117,345.408 344.765,309.912 C 321.581,307.392 303.437,296.448 297.029,269.736 C 295.301,262.464 295.229,254.327 296.597,245.976 L 331.157,245.976 C 331.157,248.208 331.517,250.44 332.237,252.672 C 335.837,264.047 347.861,270.168 358.949,266.856 C 368.093,264.12 373.349,255.48 372.269,245.976 L 408.485,245.976 C 415.901,269.592 408.844,285.072 393.941,296.52 C 417.269,326.904 437.069,358.584 446.069,393.36 C 449.092,405.025 451.397,416.976 453.413,429.144 L 412.733,429.144 C 412.012,425.183 411.293,421.224 410.501,417.336 C 404.741,389.255 393.149,363.48 377.957,338.496 C 365.573,368.88 349.589,399.624 329.213,429.143 L 292.853,429.143 L 292.853,429.144 z"
   style="fill:#3d354c" />
						<path
   id="path3044"
   d="M 350.524,429.144 C 357.004,421.584 364.852,415.968 372.339,414.601 C 382.132,412.8 388.684,419.064 389.548,429.144 L 350.524,429.144 z"
   style="fill:#3d354c" />
						<path
   id="path3046"
   d="M 238.276,502.368 C 257.211,478.391 276.22,454.345 292.852,429.143 L 329.212,429.143 C 328.852,429.647 328.564,430.08 328.204,430.583 C 311.141,454.99 292.708,478.823 274.42,502.367 L 238.276,502.367 L 238.276,502.368 z"
   style="fill:#3d354c" />
						<path
   id="path3048"
   d="M 354.7,502.368 C 361.036,502.008 367.372,502.08 373.637,502.368 L 354.7,502.368 z"
   style="fill:#3d354c" />
						<path
   id="path3050"
   d="M 423.316,502.368 C 419.932,477.024 416.98,452.472 412.732,429.143 L 453.412,429.143 C 457.228,452.76 459.603,477.383 462.772,502.368 L 423.316,502.368 L 423.316,502.368 z"
   style="fill:#3d354c" />
						<path
   id="path3052"
   d="M 350.524,429.144 C 345.052,435.48 340.516,443.255 337.996,451.033 C 332.452,468.097 338.716,479.545 352.324,477.529 C 365.932,475.513 382.06,460.609 387.748,443.04 C 389.404,438.001 389.98,433.249 389.549,429.144 L 350.524,429.144 z"
   style="fill:#3d354c" />
						<path
   id="path3054"
   d="M 123.364,573.864 C 134.38,546.072 182.26,520.296 203.644,516.408 C 225.963,512.376 221.068,514.32 227.98,515.471 C 231.436,511.079 234.82,506.76 238.276,502.367 L 274.42,502.367 C 269.884,508.199 265.347,513.959 260.884,519.791 C 288.748,513.599 315.964,506.76 343.324,503.375 C 347.14,502.943 350.884,502.583 354.7,502.367 L 373.637,502.367 C 390.557,503.159 407.477,505.967 424.325,509.639 C 423.966,507.19 423.677,504.815 423.317,502.367 L 462.773,502.367 C 462.917,503.591 463.061,504.815 463.205,506.039 C 472.205,505.031 468.966,500.279 491.069,509.64 C 507.989,516.839 530.596,545.999 536.214,573.864 L 498.34,573.864 C 497.045,564.216 490.637,555.072 481.349,551.399 C 468.893,546.503 455.645,553.128 452.477,565.656 C 451.829,568.32 451.613,571.128 451.901,573.864 L 419.213,573.864 C 416.477,565.584 413.74,557.592 410.5,550.608 C 397.324,522.528 357.004,539.016 330.508,541.752 C 303.58,544.488 276.652,550.968 249.436,556.656 C 248.068,562.416 245.764,568.248 242.74,573.864 L 203.356,573.864 C 204.076,572.352 204.652,570.912 205.084,569.399 C 208.036,558.671 200.477,552.264 187.804,554.64 C 176.716,556.728 165.052,564.791 160.443,573.864 L 123.364,573.864 z"
   style="fill:#3d354c" />
						<path
   id="path3056"
   d="M 123.364,573.864 C 122.86,575.088 122.499,576.24 122.14,577.464 C 114.076,606.552 141.436,629.16 176.356,623.328 C 204.58,618.647 230.14,597.624 242.74,573.864 L 203.356,573.864 C 198.676,583.008 188.092,591.288 177.22,593.232 C 164.62,595.463 155.98,588.408 158.86,577.824 C 159.22,576.528 159.724,575.16 160.443,573.864 L 123.364,573.864 L 123.364,573.864 z"
   style="fill:#3d354c" />
						<path
   id="path3058"
   d="M 419.213,573.864 C 427.565,598.992 436.276,626.784 462.196,636.936 C 496.684,650.471 526.996,630.744 535.924,598.271 C 538.012,590.711 537.868,582.36 536.213,573.864 L 498.34,573.864 C 498.7,577.103 498.557,580.416 497.764,583.584 C 494.525,596.184 482.141,602.376 469.756,597.408 C 460.036,593.52 452.981,583.872 451.901,573.864 L 419.213,573.864 z"
   style="fill:#3d354c" />
					</g>
					<g
   id="g3060">
						<path
   id="path3062"
   d="M 463.204,506.04 C 472.204,505.032 468.965,500.28 491.068,509.641 C 513.172,519 544.852,565.8 535.923,598.272 C 526.995,630.745 496.684,650.472 462.195,636.937 C 427.707,623.4 423.674,578.688 410.499,550.609 C 397.323,522.529 357.003,539.017 330.507,541.753 C 303.579,544.489 276.651,550.969 249.435,556.657 C 242.163,586.68 211.275,617.497 176.355,623.329 C 141.435,629.161 114.075,606.553 122.139,577.465 C 130.202,548.377 181.323,520.442 203.643,516.409 C 225.962,512.377 221.067,514.321 227.979,515.472 C 253.755,482.64 280.467,450.025 301.923,414.96 C 322.371,381.552 335.115,345.408 344.763,309.912 C 321.579,307.392 303.435,296.448 297.027,269.736 C 290.619,243.024 306.963,203.352 333.315,192.551 C 359.667,181.751 392.139,207.528 404.883,236.543 C 417.627,265.559 410.715,283.631 393.939,296.519 C 417.267,326.903 437.067,358.583 446.067,393.359 C 455.213,428.712 458.236,466.872 463.204,506.04 z"
   style="fill:none;stroke:#312d37;stroke-width:7.99100018" />
						<path
   id="path3064"
   d="M 377.956,338.496 C 365.356,369.384 349.084,400.632 328.204,430.584 C 306.964,461.039 283.564,490.488 260.884,519.792 C 288.748,513.6 315.964,506.761 343.324,503.376 C 370.252,500.064 397.324,503.735 424.324,509.641 C 419.932,477.384 416.404,446.28 410.5,417.336 C 404.74,389.255 393.148,363.48 377.956,338.496 z"
   style="fill:none;stroke:#312d37;stroke-width:7.99100018" />
						<path
   id="path3066"
   d="M 344.26,225.096 C 334.18,228.768 328.636,241.296 332.236,252.672 C 335.836,264.047 347.86,270.168 358.948,266.856 C 370.036,263.544 375.364,251.52 370.756,239.856 C 366.148,228.192 354.34,221.424 344.26,225.096 z"
   style="fill:none;stroke:#312d37;stroke-width:7.99100018" />
						<path
   id="path3068"
   d="M 187.804,554.641 C 175.132,557.017 161.74,567.241 158.86,577.825 C 155.98,588.409 164.62,595.465 177.22,593.233 C 189.82,591.001 202.132,580.129 205.084,569.4 C 208.036,558.672 200.477,552.265 187.804,554.641 z"
   style="fill:none;stroke:#312d37;stroke-width:7.99100018" />
						<path
   id="path3070"
   d="M 481.349,551.399 C 468.893,546.503 455.645,553.128 452.477,565.656 C 449.309,578.183 457.373,592.44 469.756,597.408 C 482.141,602.376 494.525,596.183 497.764,583.584 C 501.004,570.983 493.805,556.296 481.349,551.399 z"
   style="fill:none;stroke:#312d37;stroke-width:7.99100018" />
						<path
   id="path3072"
   d="M 372.34,414.601 C 386.092,412.08 393.437,425.472 387.748,443.039 C 382.06,460.608 365.933,475.513 352.324,477.528 C 338.716,479.544 332.452,468.096 337.996,451.032 C 343.54,433.967 358.588,417.12 372.34,414.601 z"
   style="fill:none;stroke:#312d37;stroke-width:7.99100018" />
					</g>
				</g>
				<g
   id="g3074">
					<g
   id="g3076">
						<path
   id="path3078"
   d="M 310.276,231.576 C 313.156,208.824 326.548,184.992 345.556,177.504 C 371.26,167.352 403.084,195.504 416.476,225.096 C 417.484,227.328 418.419,229.488 419.212,231.576 L 384.507,231.576 C 384.148,229.848 383.644,228.12 382.923,226.392 C 378.027,214.44 366.363,207.096 356.571,210.48 C 348.579,213.216 343.539,222.072 344.115,231.576 L 310.276,231.576 z"
   style="fill:#ffff00" />
						<path
   id="path3080"
   d="M 313.876,416.039 C 317.044,411.143 320.068,406.177 322.948,401.136 C 342.316,367.512 353.188,331.08 360.532,295.584 C 337.42,292.704 318.7,281.544 311.5,254.616 C 309.628,247.56 309.269,239.64 310.276,231.576 L 344.116,231.576 C 344.26,233.664 344.692,235.752 345.412,237.84 C 349.372,249.361 361.684,255.696 372.484,252.744 C 381.7,250.224 386.38,241.512 384.507,231.576 L 419.212,231.576 C 429.003,257.28 423.388,273.048 408.699,284.064 C 434.187,316.176 456.579,349.44 466.731,386.087 C 469.467,395.88 471.699,405.888 473.571,416.039 L 433.395,416.039 C 432.891,413.592 432.387,411.143 431.883,408.768 C 425.475,379.103 412.443,351.528 395.523,325.175 C 385.01,355.631 370.323,386.447 350.595,416.038 L 313.876,416.038 L 313.876,416.039 z"
   style="fill:#ffff00" />
						<path
   id="path3082"
   d="M 372.196,416.039 C 378.603,408.552 386.308,403.224 393.652,402.36 C 402.364,401.35 408.556,407.11 410.5,416.039 L 372.196,416.039 z"
   style="fill:#ffff00" />
						<path
   id="path3084"
   d="M 233.812,502.368 C 246.412,499.992 244.9,501.36 249.291,502.368 L 233.812,502.368 z"
   style="fill:#ffff00" />
						<path
   id="path3086"
   d="M 250.588,502.368 C 272.62,473.929 295.084,445.704 313.876,416.039 L 350.596,416.039 C 350.308,416.399 350.092,416.832 349.804,417.192 C 330.292,446.279 308.188,474.288 286.516,502.368 L 250.588,502.368 z"
   style="fill:#ffff00" />
						<path
   id="path3088"
   d="M 303.076,502.368 C 323.884,497.616 344.476,493.151 365.14,492.216 C 388.036,491.208 411.148,496.32 434.404,502.368 L 303.076,502.368 z"
   style="fill:#ffff00" />
						<path
   id="path3090"
   d="M 445.853,502.368 C 441.965,472.488 438.869,443.472 433.397,416.039 L 473.573,416.039 C 478.829,443.976 481.565,472.992 485.309,502.368 L 445.853,502.368 z"
   style="fill:#ffff00" />
						<path
   id="path3092"
   d="M 488.549,502.368 C 492.508,501.36 493.733,499.775 501.149,502.368 L 488.549,502.368 z"
   style="fill:#ffff00" />
						<path
   id="path3094"
   d="M 372.196,416.039 C 366.724,422.448 362.26,430.368 359.74,438.36 C 354.34,455.639 360.676,467.159 374.284,466.151 C 387.892,465.143 403.876,451.824 409.348,433.824 C 411.364,427.272 411.579,421.151 410.499,416.039 L 372.196,416.039 z"
   style="fill:#ffff00" />
						<path
   id="path3096"
   d="M 146.692,561.624 C 160.228,534.696 205.66,508.2 226.251,503.88 C 229.204,503.233 231.725,502.729 233.813,502.368 L 249.292,502.368 C 249.652,502.44 250.012,502.513 250.443,502.584 C 250.516,502.513 250.588,502.44 250.588,502.368 L 286.516,502.368 C 285.364,503.88 284.211,505.391 283.059,506.904 C 289.756,505.464 296.452,503.88 303.076,502.368 L 434.404,502.368 C 438.364,503.376 442.324,504.456 446.284,505.536 C 446.14,504.456 445.996,503.376 445.852,502.368 L 485.308,502.368 C 485.308,502.513 485.38,502.728 485.38,502.872 C 486.675,502.8 487.684,502.584 488.548,502.368 L 501.148,502.368 C 504.099,503.376 507.988,505.032 513.46,507.696 C 528.508,514.967 548.092,538.008 556.229,561.624 L 516.989,561.624 C 513.966,556.368 509.357,551.904 503.596,549.456 C 491.573,544.345 478.828,549.96 474.797,561.624 L 437.213,561.624 C 435.557,556.513 433.901,551.687 431.956,547.225 C 419.428,518.281 378.461,530.736 351.82,531.168 C 325.036,531.6 298.252,538.584 271.18,543.983 C 269.595,549.887 267.076,555.864 263.836,561.624 L 225.1,561.624 C 225.892,560.112 226.539,558.528 226.972,557.017 C 230.14,546.216 222.867,539.664 210.196,542.256 C 199.324,544.488 187.948,552.696 182.908,561.624 L 146.692,561.624 L 146.692,561.624 z"
   style="fill:#ffff00" />
						<path
   id="path3098"
   d="M 497.908,637.944 C 492.652,637.584 487.324,636.432 481.924,634.488 C 452.621,623.832 446.141,589.488 437.213,561.624 L 474.797,561.624 C 474.58,562.128 474.437,562.632 474.292,563.137 C 470.836,575.809 478.828,590.208 491.284,595.177 C 503.74,600.144 516.412,594.096 519.94,581.857 C 521.884,575.233 520.587,567.817 516.988,561.625 L 556.228,561.625 C 560.116,573.073 561.412,584.593 558.244,594.601 C 550.828,618.001 530.596,636.146 506.116,637.946 L 497.908,637.946 L 497.908,637.944 z"
   style="fill:#ffff00" />
						<path
   id="path3100"
   d="M 146.692,561.624 C 145.612,563.856 144.748,566.017 144.1,568.177 C 135.46,597.192 161.452,617.784 196.3,611.304 C 224.307,606.12 250.443,585.313 263.836,561.624 L 225.1,561.624 C 220.204,570.696 209.476,578.976 198.676,581.063 C 186.076,583.512 177.796,576.744 180.963,566.16 C 181.396,564.647 182.115,563.137 182.908,561.624 L 146.692,561.624 z"
   style="fill:#ffff00" />
					</g>
					<g
   id="g3102">
						<path
   id="path3104"
   d="M 485.381,502.872 C 494.452,502.151 491.141,496.895 513.46,507.696 C 535.78,518.496 567.965,563.856 558.244,594.599 C 548.524,625.344 516.556,647.087 481.924,634.488 C 447.292,621.887 444.485,576.168 431.956,547.224 C 419.428,518.28 378.461,530.735 351.82,531.167 C 325.036,531.599 298.252,538.583 271.18,543.982 C 263.044,574.294 231.148,604.823 196.3,611.302 C 161.452,617.782 135.46,597.19 144.1,568.175 C 152.74,539.158 204.004,508.558 226.251,503.878 C 248.5,499.198 243.676,501.431 250.443,502.582 C 276.148,469.318 302.572,436.414 322.948,401.134 C 342.316,367.51 353.188,331.078 360.532,295.582 C 337.42,292.702 318.7,281.542 311.5,254.614 C 304.3,227.686 319.853,187.654 345.556,177.502 C 371.26,167.35 403.084,195.502 416.476,225.094 C 429.868,254.686 424.612,272.182 408.7,284.062 C 434.188,316.174 456.58,349.438 466.732,386.085 C 476.956,423.024 480.269,462.624 485.381,502.872 z"
   style="fill:none;stroke:#a69638;stroke-width:7.99100018" />
						<path
   id="path3106"
   d="M 395.524,325.176 C 384.868,356.064 369.964,387.24 349.804,417.193 C 329.212,447.865 305.812,477.312 283.059,506.905 C 310.707,500.857 337.852,493.441 365.14,492.217 C 391.923,491.065 419.068,498.193 446.284,505.537 C 441.82,471.913 438.508,439.297 431.885,408.769 C 425.477,379.104 412.444,351.528 395.524,325.176 z"
   style="fill:none;stroke:#a69638;stroke-width:7.99100018" />
						<path
   id="path3108"
   d="M 356.572,210.48 C 346.78,213.864 341.452,226.32 345.412,237.84 C 349.372,249.361 361.684,255.696 372.484,252.744 C 383.284,249.792 387.82,238.344 382.923,226.392 C 378.028,214.44 366.364,207.096 356.572,210.48 z"
   style="fill:none;stroke:#a69638;stroke-width:7.99100018" />
						<path
   id="path3110"
   d="M 210.196,542.256 C 197.524,544.849 184.132,555.576 180.963,566.16 C 177.796,576.744 186.076,583.513 198.676,581.063 C 211.276,578.616 223.804,567.816 226.972,557.016 C 230.141,546.216 222.867,539.664 210.196,542.256 z"
   style="fill:none;stroke:#a69638;stroke-width:7.99100018" />
						<path
   id="path3112"
   d="M 503.596,549.456 C 491.069,544.128 477.748,550.464 474.292,563.137 C 470.836,575.809 478.828,590.208 491.284,595.177 C 503.74,600.144 516.412,594.096 519.94,581.857 C 523.469,569.616 516.125,554.784 503.596,549.456 z"
   style="fill:none;stroke:#a69638;stroke-width:7.99100018" />
						<path
   id="path3114"
   d="M 393.652,402.36 C 407.332,400.776 414.82,415.824 409.348,433.824 C 403.875,451.824 387.892,465.143 374.284,466.151 C 360.676,467.159 354.34,455.639 359.74,438.36 C 365.141,421.08 379.973,403.944 393.652,402.36 z"
   style="fill:none;stroke:#a69638;stroke-width:7.99100018" />
					</g>
				</g>
			</g>
			<g
   id="g3116">
				<path
   id="path3118"
   d="M 504.1,378.312 C 521.741,374.424 539.813,370.104 558.389,365.064 C 556.876,372.336 555.365,379.464 554.069,386.52 C 579.701,394.44 605.405,400.272 631.18,402.864 C 629.813,410.207 628.445,417.552 627.292,424.824 C 601.66,422.159 576.028,416.11 550.612,407.904 C 549.82,414.96 548.956,422.014 548.236,429.072 C 533.26,412.368 518.428,395.375 504.1,378.312 z"
   style="fill:#ff0000;stroke:#92432d;stroke-width:7.99100018" />
				<path
   id="path3120"
   d="M 209.98,378.024 C 193.204,382.632 176.284,387.888 159.364,392.351 C 158.572,398.832 157.996,405.456 157.42,411.864 C 129.628,429.143 102.772,439.368 76.923,442.824 C 76.42,449.231 76.132,455.784 75.988,462.192 C 101.764,458.807 128.548,448.656 156.052,431.664 C 155.836,438.143 155.548,444.768 155.188,451.177 C 173.403,427.776 191.621,403.008 209.98,378.024 z"
   style="fill:#ff0000;stroke:#92432d;stroke-width:7.99100018" />
				<path
   id="path3122"
   d="M 258.364,216.6 C 257.211,199.104 255.916,181.896 254.332,165.336 C 248.788,174.048 243.244,183.048 237.772,192.192 C 221.068,190.32 203.644,188.808 185.572,184.776 C 180.172,192.768 174.844,200.184 169.588,207.456 C 186.94,214.8 204.076,218.184 220.635,219.984 C 214.948,229.343 209.26,238.343 203.716,247.343 C 222.364,235.104 240.652,224.304 258.364,216.6 z"
   style="fill:#ff0000;stroke:#92432d;stroke-width:7.99100018" />
				<path
   id="path3124"
   d="M 151.948,645.433 C 141.508,669.984 131.284,694.176 120.988,718.152 C 116.452,715.705 111.844,713.4 107.452,710.953 C 79.804,740.905 52.156,768.697 24.796,794.184 C 19.972,790.225 15.58,785.976 11.044,781.729 C 38.692,758.256 66.484,731.976 94.204,703.321 C 89.956,700.513 85.708,697.921 81.604,695.113 C 105.22,680.351 128.692,663.576 151.948,645.433 z"
   style="fill:#ff0000;stroke:#92432d;stroke-width:7.99100018" />
				<path
   id="path3126"
   d="M 569.98,629.375 C 583.516,653.567 597.268,678.12 610.948,702.743 C 614.26,699.647 617.644,696.479 621.028,693.168 C 651.052,723.695 681.58,752.856 711.603,779.641 C 715.492,774.96 719.164,770.137 722.835,765.168 C 691.875,740.112 660.915,712.464 630.459,683.16 C 633.483,679.559 636.507,676.248 639.459,672.359 C 615.916,658.896 592.732,644.567 569.98,629.375 z"
   style="fill:#ff0000;stroke:#92432d;stroke-width:7.99100018" />
				<path
   id="path3128"
   d="M 498.844,234.744 C 510.797,214.872 522.821,194.856 534.844,174.696 C 537.508,180.888 540.172,187.008 542.765,193.128 C 568.18,175.416 593.453,157.056 618.58,138.048 C 621.46,144.168 624.412,150.216 627.364,156.336 C 601.804,175.704 576.244,194.208 550.828,211.992 C 553.349,218.256 555.94,224.592 558.532,230.784 C 538.517,232.368 518.5,233.592 498.844,234.744 z"
   style="fill:#ff0000;stroke:#92432d;stroke-width:7.99100018" />
				<path
   id="path3130"
   d="M 396.676,156.84 C 410.284,138.12 423.532,119.544 436.637,101.04 C 430.949,100.32 425.189,99.384 419.5,98.664 C 425.404,67.776 429.292,37.248 431.021,6.792 C 425.189,5.928 419.357,5.208 413.525,4.488 C 411.797,35.16 407.909,65.832 402.221,96.936 C 396.461,96.432 390.7,96 385.084,95.568 C 389.332,116.088 393.148,136.464 396.676,156.84 z"
   style="fill:#ff0000;stroke:#92432d;stroke-width:7.99100018" />
				<path
   id="path3132"
   d="M 369.316,582.792 C 381.268,601.8 393.436,621.456 405.82,641.761 C 398.908,640.68 391.996,640.464 385.084,640.104 C 387.82,670.201 389.621,700.513 390.557,730.752 C 383.213,730.896 375.725,731.544 368.381,732.265 C 367.588,701.88 366.22,671.424 363.988,641.113 C 357.004,641.761 349.948,642.913 342.964,643.993 C 352.18,623.04 360.964,602.448 369.316,582.792 z"
   style="fill:#ff0000;stroke:#92432d;stroke-width:7.99100018" />
			</g>
		</g></svg>