<?xml version="1.0" encoding="UTF-8" standalone="no"?>
<!-- Generator: Adobe Illustrator 10, SVG Export Plug-In . SVG Version: 3.0.0 Build 76)  -->
<svg
   xmlns:dc="http://purl.org/dc/elements/1.1/"
   xmlns:cc="http://creativecommons.org/ns#"
   xmlns:rdf="http://www.w3.org/1999/02/22-rdf-syntax-ns#"
   xmlns:svg="http://www.w3.org/2000/svg"
   xmlns="http://www.w3.org/2000/svg"
   xmlns:sodipodi="http://sodipodi.sourceforge.net/DTD/sodipodi-0.dtd"
   xmlns:inkscape="http://www.inkscape.org/namespaces/inkscape"
   width="509.6767"
   height="458.99899"
   viewBox="0 0 516.32 538.283"
   style="overflow:visible"
   xml:space="preserve"
   id="svg3141"
   sodipodi:version="0.32"
   inkscape:version="0.46"
   sodipodi:docname="Interceptor.svg"
   inkscape:output_extension="org.inkscape.output.svg.inkscape"
   version="1.0"><metadata
   id="metadata3205"><rdf:RDF><cc:Work
       rdf:about=""><dc:format>image/svg+xml</dc:format><dc:type
         rdf:resource="http://purl.org/dc/dcmitype/StillImage" /></cc:Work></rdf:RDF></metadata><defs
   id="defs3203"><inkscape:perspective
   sodipodi:type="inkscape:persp3d"
   inkscape:vp_x="0 : 269.14151 : 1"
   inkscape:vp_y="0 : 1000 : 0"
   inkscape:vp_z="516.32001 : 269.14151 : 1"
   inkscape:persp3d-origin="258.16 : 179.42767 : 1"
   id="perspective3207" />
		
		
	</defs><sodipodi:namedview
   inkscape:window-height="670"
   inkscape:window-width="640"
   inkscape:pageshadow="2"
   inkscape:pageopacity="0.0"
   guidetolerance="10.0"
   gridtolerance="10.0"
   objecttolerance="10.0"
   borderopacity="1.0"
   bordercolor="#666666"
   pagecolor="#ffffff"
   id="base"
   showgrid="false"
   inkscape:zoom="0.85828455"
   inkscape:cx="258.16"
   inkscape:cy="269.14151"
   inkscape:window-x="75"
   inkscape:window-y="46"
   inkscape:current-layer="svg3141" />
	<style
   type="text/css"
   id="style3143">
	
		@font-face{font-family:'Times-Roman';src:url(29F329A1.cef)}
	
	</style>
	
<g
   transform="matrix(1.1727324,0,0,1.1727324,-48.488241,-0.8367433)"
   style="overflow:visible"
   id="g3162">
			<g
   id="g3164">
				<path
   id="path3166"
   d="M 215.351,162.065 C 186.695,141.977 156.887,119.369 126.576,94.529 C 89.495,64.145 51.407,33.401 9.577,4.097 L 9.577,4.025 C 9.505,3.809 9.505,3.809 9.577,3.593 C 49.969,16.264 90.791,37.073 130.967,61.985 C 171.143,86.825 210.96,109.793 250.631,127.432 C 249.695,134.129 247.967,140.753 244.295,147.089 C 241.703,151.697 238.391,156.665 234.863,162.065 L 215.351,162.065 L 215.351,162.065 z"
   style="fill:#cccccc" />
				<path
   id="path3168"
   d="M 286.559,162.065 C 285.768,153.929 283.32,145.433 280.008,136.433 C 280.079,136.505 280.295,136.505 280.295,136.505 C 280.44,136.505 280.44,136.505 280.583,136.505 C 298.654,145.721 315.863,154.073 332.207,162.065 L 286.559,162.065 z"
   style="fill:#cccccc" />
				<path
   id="path3170"
   d="M 382.175,162.065 C 359.424,153.713 335.375,145.001 310.32,135.785 C 342.719,129.521 374.975,120.593 406.944,110.009 C 438.84,99.425 470.952,89.921 503.063,83.513 C 503.28,83.657 503.424,83.801 503.424,83.801 C 503.567,83.801 503.567,83.801 503.711,83.873 C 499.967,103.025 494.207,122.537 484.703,140.177 C 480.599,147.881 475.775,155.153 470.447,162.065 L 382.175,162.065 z"
   style="fill:#cccccc" />
				<path
   id="path3172"
   d="M 275.255,208.289 C 281.015,195.545 285.551,183.809 286.631,172.793 C 286.991,169.265 286.919,165.737 286.559,162.065 L 332.207,162.065 C 344.303,167.897 355.967,173.585 367.055,179.129 C 386.207,188.705 403.992,198.497 420.119,208.289 L 275.255,208.289 L 275.255,208.289 z"
   style="fill:#cccccc" />
				<path
   id="path3174"
   d="M 215.351,162.065 C 219.815,165.233 224.279,168.329 228.743,171.353 C 230.831,168.113 232.847,165.017 234.863,162.065 L 215.351,162.065 z"
   style="fill:#cccccc" />
				<path
   id="path3176"
   d="M 382.175,162.065 C 382.752,162.281 383.399,162.497 383.975,162.713 C 406.295,170.777 427.608,179.129 447.696,187.697 C 455.832,179.561 463.536,171.137 470.448,162.065 L 382.175,162.065 z"
   style="fill:#cccccc" />
				<path
   id="path3178"
   d="M 221.039,290.441 C 224.639,287.417 228.167,284.465 231.695,281.585 C 234.862,284.753 237.887,287.634 240.839,290.441 L 221.039,290.441 z"
   style="fill:#cccccc" />
				<path
   id="path3180"
   d="M 301.895,290.441 C 301.536,285.473 300.311,280.793 298.368,276.401 C 293.112,264.954 284.472,253.217 275.112,239.753 C 293.544,238.169 311.759,236.802 330.12,235.866 C 331.272,228.594 331.128,221.537 328.895,214.194 C 310.536,213.402 291.959,212.682 273.6,211.89 C 274.175,210.666 274.68,209.514 275.255,208.29 L 420.119,208.29 C 424.223,210.81 428.183,213.258 432.07,215.778 C 413.711,215.85 395.351,215.85 377.062,215.634 C 379.079,222.474 379.294,229.314 378.288,236.01 C 396.646,236.585 415.008,237.161 433.512,237.739 C 417.6,249.474 399.671,261.283 379.583,272.442 C 369.07,278.274 357.623,284.178 345.24,290.442 L 301.895,290.442 L 301.895,290.441 z"
   style="fill:#cccccc" />
				<path
   id="path3182"
   d="M 399.6,290.441 C 419.543,283.313 438.335,275.681 455.904,268.121 C 464.832,275.321 473.759,282.665 482.04,290.441 L 399.6,290.441 z"
   style="fill:#cccccc" />
				<path
   id="path3184"
   d="M 221.039,290.441 C 194.975,312.401 167.687,337.097 139.247,363.305 C 105.047,394.912 67.751,426.161 23.905,456.257 C 23.761,456.401 23.761,456.401 23.617,456.616 L 23.617,456.833 C 64.583,443.801 104.975,421.841 144.287,394.408 C 183.743,366.904 223.055,340.984 262.799,321.472 C 262.366,315.136 259.342,308.872 254.014,303.328 C 250.199,299.224 245.735,295.048 240.838,290.439 L 221.039,290.439 L 221.039,290.441 z"
   style="fill:#cccccc" />
				<path
   id="path3186"
   d="M 301.895,290.441 C 302.471,297.353 301.463,304.769 299.015,312.761 C 299.231,312.761 299.231,312.761 299.375,312.761 C 299.375,312.761 299.592,312.761 299.663,312.761 C 316.15,304.769 331.343,297.425 345.24,290.441 L 301.895,290.441 z"
   style="fill:#cccccc" />
				<path
   id="path3188"
   d="M 399.6,290.441 C 399.167,290.585 398.735,290.729 398.303,290.874 C 375.983,298.866 351.503,307.218 324.071,316.505 C 356.399,323.778 388.655,334.001 419.327,345.81 C 449.28,357.331 478.009,367.41 505.944,373.962 C 505.944,373.962 505.944,373.962 506.376,373.746 L 507.024,373.456 C 516.887,352.649 515.087,332.417 503.639,315.353 C 497.592,306.353 490.175,298.217 482.039,290.441 L 399.6,290.441 z"
   style="fill:#cccccc" />
			</g>
			<g
   id="g3190">
				<path
   id="path3192"
   d="M 377.062,215.633 C 379.079,222.473 379.294,229.313 378.288,236.009 C 396.646,236.584 415.008,237.16 433.512,237.738 C 417.6,249.473 399.671,261.282 379.583,272.441 C 357.191,284.826 330.839,297.641 299.663,312.761 C 299.592,312.761 299.375,312.761 299.375,312.761 C 299.23,312.761 299.23,312.761 299.015,312.761 C 303.263,299.08 303.119,287.057 298.368,276.401 C 293.112,264.954 284.472,253.217 275.112,239.753 C 293.544,238.169 311.759,236.802 330.12,235.866 C 331.272,228.594 331.128,221.537 328.895,214.194 C 310.536,213.402 291.959,212.682 273.6,211.89 C 280.151,197.706 285.479,184.818 286.631,172.794 C 287.783,161.346 284.759,149.394 280.008,136.434 C 280.079,136.506 280.295,136.506 280.295,136.506 C 280.44,136.506 280.44,136.506 280.583,136.506 C 312.047,152.562 340.919,166.026 367.055,179.13 C 391.104,191.154 412.992,203.538 432.071,215.778 C 413.711,215.849 395.352,215.849 377.062,215.633 z"
   style="fill:none;stroke:#000000;stroke-width:5.75899982" />
				<path
   id="path3194"
   d="M 23.617,456.833 L 23.617,456.616 C 23.761,456.4 23.761,456.4 23.905,456.257 C 67.751,426.161 105.047,394.912 139.247,363.305 C 171.575,333.496 202.391,305.704 231.695,281.584 C 240.119,289.937 247.895,296.777 254.014,303.329 C 259.342,308.873 262.366,315.137 262.799,321.473 C 223.054,340.985 183.742,366.905 144.287,394.409 C 104.975,421.841 64.583,443.801 23.617,456.833 z"
   style="fill:none;stroke:#000000;stroke-width:5.75899982" />
				<path
   id="path3196"
   d="M 507.023,373.456 L 506.375,373.746 C 505.943,373.962 505.943,373.962 505.943,373.962 C 478.007,367.409 449.279,357.33 419.326,345.81 C 388.654,334.001 356.398,323.779 324.07,316.505 C 351.503,307.218 375.982,298.866 398.302,290.874 C 418.75,283.602 437.974,275.826 455.903,268.121 C 473.758,282.521 491.543,297.353 503.638,315.353 C 515.087,332.417 516.887,352.649 507.023,373.456 z"
   style="fill:none;stroke:#000000;stroke-width:5.75899982" />
				<path
   id="path3198"
   d="M 9.577,4.097 L 9.577,4.025 C 9.505,3.809 9.505,3.809 9.577,3.593 C 49.969,16.264 90.791,37.073 130.967,61.985 C 171.143,86.825 210.96,109.793 250.631,127.432 C 249.695,134.129 247.967,140.753 244.295,147.089 C 240.263,154.217 234.575,162.209 228.743,171.353 C 195.984,148.961 161.639,123.257 126.576,94.529 C 89.495,64.145 51.407,33.401 9.577,4.097 z"
   style="fill:none;stroke:#000000;stroke-width:5.75899982" />
				<path
   id="path3200"
   d="M 503.062,83.513 C 503.279,83.657 503.423,83.801 503.423,83.801 C 503.566,83.801 503.566,83.801 503.71,83.873 C 499.966,103.025 494.206,122.537 484.702,140.177 C 475.198,157.889 462.022,173.369 447.694,187.697 C 427.606,179.129 406.294,170.777 383.973,162.713 C 360.717,154.145 336.022,145.217 310.318,135.785 C 342.717,129.521 374.973,120.593 406.942,110.009 C 438.839,99.425 470.951,89.921 503.062,83.513 z"
   style="fill:none;stroke:#000000;stroke-width:5.75899982" />
			</g>
		</g></svg>