<?xml version="1.0" encoding="UTF-8" standalone="no"?>
<!-- Generator: Adobe Illustrator 10, SVG Export Plug-In . SVG Version: 3.0.0 Build 76)  -->
<svg
   xmlns:dc="http://purl.org/dc/elements/1.1/"
   xmlns:cc="http://creativecommons.org/ns#"
   xmlns:rdf="http://www.w3.org/1999/02/22-rdf-syntax-ns#"
   xmlns:svg="http://www.w3.org/2000/svg"
   xmlns="http://www.w3.org/2000/svg"
   xmlns:sodipodi="http://sodipodi.sourceforge.net/DTD/sodipodi-0.dtd"
   xmlns:inkscape="http://www.inkscape.org/namespaces/inkscape"
   width="519.29266"
   height="709.71344"
   viewBox="0 0 526.521 784.619"
   style="overflow:visible"
   xml:space="preserve"
   id="svg3209"
   sodipodi:version="0.32"
   inkscape:version="0.46"
   sodipodi:docname="Melt.svg"
   inkscape:output_extension="org.inkscape.output.svg.inkscape"
   version="1.0"><metadata
   id="metadata3351"><rdf:RDF><cc:Work
       rdf:about=""><dc:format>image/svg+xml</dc:format><dc:type
         rdf:resource="http://purl.org/dc/dcmitype/StillImage" /></cc:Work></rdf:RDF></metadata><defs
   id="defs3349"><inkscape:perspective
   sodipodi:type="inkscape:persp3d"
   inkscape:vp_x="0 : 392.30951 : 1"
   inkscape:vp_y="0 : 1000 : 0"
   inkscape:vp_z="526.521 : 392.30951 : 1"
   inkscape:persp3d-origin="263.2605 : 261.53967 : 1"
   id="perspective3353" />
		
		
	</defs><sodipodi:namedview
   inkscape:window-height="670"
   inkscape:window-width="640"
   inkscape:pageshadow="2"
   inkscape:pageopacity="0.0"
   guidetolerance="10.0"
   gridtolerance="10.0"
   objecttolerance="10.0"
   borderopacity="1.0"
   bordercolor="#666666"
   pagecolor="#ffffff"
   id="base"
   showgrid="false"
   inkscape:zoom="0.5888208"
   inkscape:cx="263.2605"
   inkscape:cy="392.30951"
   inkscape:window-x="0"
   inkscape:window-y="0"
   inkscape:current-layer="svg3209" />
	<style
   type="text/css"
   id="style3211">
	
		@font-face{font-family:'Times-Roman';src:url(C7570FC0.cef)}
	
	</style>
	
<g
   transform="matrix(1.1055434,0,0,1.1055434,-31.817437,0.8025486)"
   style="overflow:visible"
   id="g3230">
			<g
   id="g3232">
				<g
   id="g3234">
					<g
   id="g3236">
						<path
   id="path3238"
   d="M 98.98,97.888 C 100.42,95.584 102.292,93.424 104.308,91.768 C 115.036,82.768 125.836,73.624 136.852,65.92 C 141.748,62.464 146.14,64.264 145.636,68.8 C 144.412,78.304 142.324,88.024 139.948,97.888 L 98.98,97.888 L 98.98,97.888 z"
   style="fill:#5c124b" />
						<path
   id="path3240"
   d="M 221.02,97.888 C 220.588,97.096 220.156,96.304 219.796,95.512 C 217.924,91.84 222.172,87.016 227.932,85.144 C 240.604,81.04 253.42,76.504 266.02,71.825 C 271.852,69.593 278.691,70.888 282.508,73.48 C 294.676,81.76 307.42,89.321 317.716,97.888 L 221.02,97.888 z"
   style="fill:#5c124b" />
						<path
   id="path3242"
   d="M 344.428,97.888 C 348.821,96.088 353.212,94.216 357.604,92.344 C 332.764,74.632 300.292,60.088 287.116,37.84 C 285.1,34.312 289.637,28.985 294.677,27.04 C 305.621,22.863 316.566,18.687 327.437,15.016 C 332.333,13.432 336.654,15.737 338.958,18.832 C 347.598,30.208 365.525,37.552 389.934,42.447 C 414.846,47.488 433.063,54.976 442.926,65.632 C 443.79,65.199 444.727,64.768 445.735,64.48 C 462.727,59.008 479.647,53.968 496.279,50.008 C 503.839,48.208 512.983,49.648 512.911,53.68 C 512.766,66.496 506.719,81.688 496.495,97.888 L 412.11,97.888 C 412.47,92.489 411.751,87.448 410.311,82.768 C 409.878,81.256 406.422,81.256 403.182,82.624 C 396.559,85.432 389.718,88.455 383.094,91.336 C 379.926,92.775 378.198,95.008 378.63,96.592 C 378.774,97.024 378.846,97.455 378.99,97.888 L 344.428,97.888 L 344.428,97.888 z"
   style="fill:#5c124b" />
						<path
   id="path3244"
   d="M 61.828,174.136 C 62.188,173.199 62.62,172.192 63.124,171.184 C 74.572,147.065 90.052,126.472 94.732,106.96 C 95.308,104.439 96.82,101.056 98.98,97.888 L 139.948,97.888 C 137.284,109.048 134.188,120.28 131.595,131.44 C 140.811,127.48 149.955,123.808 159.315,121.577 C 166.083,119.921 172.275,122.585 173.931,126.329 C 180.627,142.024 187.035,157.793 192.003,174.137 L 138.435,174.137 C 138.003,172.769 137.571,171.402 137.139,170.033 C 136.635,168.449 133.467,168.234 130.371,169.746 C 127.491,171.185 124.611,172.626 121.731,174.138 L 61.828,174.138 L 61.828,174.136 z"
   style="fill:#5c124b" />
						<path
   id="path3246"
   d="M 216.124,174.136 C 213.316,162.04 209.5,150.304 204.388,139.144 C 202.66,135.329 206.908,131.008 214.54,128.993 C 222.748,126.833 230.956,124.528 239.236,122.009 C 232.612,114.089 225.7,106.385 221.02,97.889 L 317.716,97.889 C 320.668,100.337 323.404,102.857 325.924,105.521 C 332.044,103.074 338.236,100.481 344.428,97.889 L 378.989,97.889 C 380.285,102.57 381.005,107.465 380.717,112.649 C 380.646,114.378 383.093,114.666 386.261,113.154 C 392.814,110.273 399.437,107.25 406.062,104.369 C 409.158,103.002 411.894,100.41 412.038,98.754 C 412.038,98.466 412.109,98.178 412.109,97.89 L 496.494,97.89 C 490.878,106.746 483.967,115.962 476.117,125.323 C 462.221,141.739 446.958,157.866 431.046,174.138 L 387.701,174.138 C 390.15,170.898 392.525,167.73 394.902,164.491 C 408.798,145.411 420.389,126.259 429.534,108.474 C 428.67,108.907 427.734,109.338 426.87,109.626 C 412.974,115.242 399.006,121.361 385.109,127.842 C 378.486,142.89 370.782,158.298 361.925,174.138 L 323.26,174.138 C 327.796,159.378 330.893,145.121 331.324,131.657 C 331.54,126.403 322.179,125.538 312.676,129.067 C 292.66,136.482 272.645,143.323 252.7,149.37 C 243.268,152.251 237.148,158.226 237.724,163.194 C 238.228,166.795 238.588,170.466 238.804,174.138 L 216.124,174.138 L 216.124,174.136 z"
   style="fill:#5c124b" />
						<path
   id="path3248"
   d="M 51.46,246.784 C 49.66,244.337 48.004,241.888 46.492,239.368 C 44.476,236.2 49.948,230.081 57.724,226.264 C 59.668,225.328 61.54,224.321 63.484,223.312 C 58.444,208.696 54.7,191.704 61.828,174.136 L 121.732,174.136 C 117.988,176.08 114.244,178.168 110.5,180.184 C 107.332,181.84 105.388,184.72 105.82,186.161 C 107.332,191.129 109.132,196.097 111.004,200.993 C 111.58,202.577 114.532,202.288 117.7,200.559 C 124.252,197.104 130.876,193.72 137.572,190.48 C 140.595,189.041 142.828,186.665 142.323,185.153 C 141.027,181.552 139.659,177.808 138.435,174.136 L 192.003,174.136 C 193.011,177.376 193.947,180.688 194.811,184.073 C 202.227,182.417 209.643,180.905 217.203,179.104 C 216.843,177.448 216.483,175.792 216.123,174.136 L 238.803,174.136 C 239.811,187.312 239.667,200.776 239.523,214.312 C 239.523,219.64 245.643,222.665 253.059,220.649 C 268.755,216.401 284.595,211.504 300.434,205.672 C 308.067,202.792 316.203,195.088 318.434,188.896 C 320.163,183.928 321.819,178.96 323.258,174.136 L 361.922,174.136 C 356.594,183.64 350.834,193.36 344.714,203.153 C 347.522,201.569 350.33,200.056 353.067,198.545 C 358.827,195.521 360.051,198.041 355.371,204.017 C 344.14,218.273 332.403,232.529 320.739,246.785 L 309.291,246.785 C 313.827,240.738 318.219,234.617 322.467,228.57 C 324.915,225.041 324.267,223.674 321.027,225.546 C 314.187,229.361 307.42,232.818 300.724,236.058 C 297.699,237.498 293.523,241.674 291.507,244.987 C 291.148,245.561 290.787,246.211 290.427,246.786 L 205.107,246.786 C 203.955,234.259 201.219,222.235 198.987,210.067 C 198.05,205.098 190.059,202.146 181.419,204.81 C 162.483,210.642 143.763,218.922 125.187,228.642 C 116.331,233.25 111.003,241.098 113.955,245.13 C 114.387,245.705 114.747,246.21 115.179,246.785 L 51.46,246.785 L 51.46,246.784 z"
   style="fill:#5c124b" />
						<path
   id="path3250"
   d="M 387.699,174.136 C 374.74,191.199 360.484,208.192 345.796,225.544 C 340.54,231.736 339.748,235.119 344.284,233.535 C 353.788,230.296 363.292,228.064 372.508,226.624 C 376.54,226.048 385.324,220.287 391.876,213.736 C 405.053,200.343 418.229,187.24 431.044,174.135 L 387.699,174.135 L 387.699,174.136 z"
   style="fill:#5c124b" />
						<path
   id="path3252"
   d="M 66.652,311.8 C 64.492,309.783 62.259,307.912 59.812,306.039 C 55.708,302.943 56.356,301.216 62.26,299.992 C 73.781,297.615 85.156,293.871 96.46,289.624 C 78.172,276.447 62.764,262.48 51.46,246.783 L 115.18,246.783 C 124.684,259.455 135.844,271.408 142.612,285.232 C 144.772,289.624 149.74,291.135 155.716,288.039 C 168.172,281.486 180.772,275.8 193.445,272.199 C 199.205,270.544 205.685,265.359 205.685,259.744 C 205.757,255.351 205.541,251.031 205.109,246.783 L 290.429,246.783 C 284.093,257.439 277.325,268.168 270.341,278.895 C 268.181,282.423 268.253,284.367 270.773,282.999 C 276.173,280.118 281.717,276.879 287.261,273.278 C 289.853,271.623 294.245,267.159 296.837,263.63 C 301.013,258.015 305.189,252.4 309.293,246.782 L 320.741,246.782 C 309.869,260.102 298.997,273.495 288.557,286.886 C 282.004,295.31 275.813,303.59 270.197,311.798 L 250.037,311.798 C 251.045,310.214 252.053,308.701 253.061,307.117 C 249.533,308.773 246.077,310.357 242.549,311.798 L 231.317,311.798 C 231.533,310.285 232.253,308.412 233.477,306.254 C 243.629,288.47 253.061,270.758 261.269,253.479 C 258.173,254.485 255.221,255.278 252.197,255.999 C 244.205,274.071 234.701,292.719 224.477,311.438 C 224.405,311.582 224.333,311.653 224.261,311.798 L 117.916,311.798 C 116.692,308.269 115.036,304.815 113.092,301.502 C 112.372,300.134 109.924,299.773 107.836,300.638 C 103.444,302.293 98.98,303.878 94.588,305.244 C 92.5,305.822 91.708,307.334 92.644,308.484 C 93.58,309.566 94.372,310.646 95.236,311.797 L 66.652,311.797 L 66.652,311.8 z"
   style="fill:#5c124b" />
						<path
   id="path3254"
   d="M 87.964,358.672 C 87.892,356.441 87.748,354.208 87.532,351.976 C 86.092,337 78.748,323.176 66.652,311.8 L 95.236,311.8 C 97.396,314.824 99.196,318.065 100.708,321.304 C 101.284,322.672 102.94,323.679 104.74,323.176 C 108.556,322.096 112.372,320.728 116.188,319.432 C 117.988,318.712 119.5,316.84 119.068,315.328 C 118.708,314.176 118.348,312.951 117.916,311.8 L 224.26,311.8 C 215.62,327.64 207.052,343.192 199.204,358.672 L 168.964,358.672 C 173.212,347.871 177.748,337 182.284,326.056 C 181.42,326.2 180.556,326.344 179.692,326.56 C 178.972,328.288 178.396,330.088 177.676,331.745 C 175.516,337.001 170.764,341.681 167.452,342.688 C 159.82,345.065 152.188,348.592 144.628,352.336 C 141.1,354.208 139.588,351.76 140.812,346.863 C 142.972,338.296 144.772,329.439 146.14,320.943 C 140.092,324.183 134.188,327.279 128.212,330.088 C 127.06,339.447 125.476,349.025 123.604,358.672 L 87.964,358.672 z"
   style="fill:#5c124b" />
						<path
   id="path3256"
   d="M 222.604,358.672 C 230.38,343.481 239.812,327.856 250.036,311.8 L 270.196,311.8 C 258.964,328.072 249.748,343.768 243.412,358.672 L 222.604,358.672 z"
   style="fill:#5c124b" />
						<path
   id="path3258"
   d="M 231.316,311.8 C 230.956,314.246 231.892,315.472 234.124,314.824 C 236.932,313.96 239.74,312.951 242.548,311.8 L 231.316,311.8 z"
   style="fill:#5c124b" />
						<path
   id="path3260"
   d="M 87.964,358.672 C 88.468,375.088 85.516,392.296 82.06,409.72 C 81.268,414.184 82.708,417.64 85.732,417.495 C 92.356,417.208 98.98,416.416 105.388,415.191 C 108.34,414.544 111.58,410.007 112.804,405.328 C 116.836,389.632 120.58,374.008 123.604,358.672 L 87.964,358.672 z"
   style="fill:#5c124b" />
						<path
   id="path3262"
   d="M 168.964,358.672 C 167.452,362.487 165.94,366.233 164.5,369.976 C 162.412,375.088 163.492,378.688 166.444,378.472 C 172.78,377.825 179.259,377.608 185.524,377.176 C 188.548,377.032 192.508,372.28 195.028,367.096 C 196.396,364.287 197.764,361.481 199.204,358.672 L 168.964,358.672 z"
   style="fill:#5c124b" />
						<path
   id="path3264"
   d="M 222.604,358.672 C 217.348,368.752 212.884,378.688 209.284,388.407 C 207.628,393.015 210.004,395.752 212.956,393.447 C 220.084,387.975 227.068,381.351 234.268,375.015 C 237.652,372.207 240.244,366.375 242.044,361.983 C 242.476,360.903 242.908,359.752 243.412,358.671 L 222.604,358.671 L 222.604,358.672 z"
   style="fill:#5c124b" />
					</g>
					<g
   id="g3266">
						<path
   id="path3268"
   d="M 194.812,184.073 C 202.228,182.417 209.644,180.905 217.204,179.104 C 214.324,165.208 210.22,151.817 204.388,139.144 C 202.66,135.329 206.908,131.008 214.54,128.993 C 222.748,126.833 230.956,124.528 239.236,122.009 C 232.036,113.368 224.476,105.017 219.796,95.513 C 217.924,91.841 222.172,87.017 227.932,85.145 C 240.604,81.041 253.42,76.505 266.02,71.826 C 271.852,69.594 278.691,70.889 282.508,73.481 C 298.204,84.137 314.764,93.641 325.924,105.521 C 336.436,101.345 347.02,96.809 357.604,92.345 C 332.764,74.633 300.292,60.089 287.116,37.841 C 285.1,34.313 289.637,28.986 294.677,27.041 C 305.621,22.864 316.566,18.688 327.437,15.017 C 332.333,13.433 336.654,15.738 338.958,18.833 C 347.598,30.209 365.525,37.553 389.934,42.448 C 414.846,47.489 433.063,54.977 442.926,65.633 C 443.79,65.2 444.727,64.769 445.735,64.481 C 462.727,59.009 479.647,53.969 496.279,50.009 C 503.839,48.209 512.983,49.649 512.911,53.681 C 512.694,73.553 498.295,99.041 476.118,125.322 C 451.063,154.914 421.399,183.785 391.879,213.738 C 385.327,220.289 376.543,226.05 372.511,226.626 C 363.295,228.066 353.791,230.298 344.287,233.537 C 339.751,235.121 340.543,231.738 345.799,225.546 C 363.223,204.953 380.144,184.794 394.903,164.49 C 408.799,145.41 420.39,126.258 429.535,108.473 C 428.671,108.906 427.735,109.337 426.871,109.625 C 412.975,115.241 399.007,121.36 385.11,127.841 C 374.526,151.961 360.991,177.017 344.718,203.153 C 347.526,201.569 350.334,200.056 353.071,198.545 C 358.831,195.521 360.055,198.041 355.375,204.017 C 333.631,231.593 310.231,259.097 288.56,286.889 C 267.968,313.242 251.408,338.658 242.047,361.985 C 240.247,366.378 237.655,372.21 234.271,375.017 C 227.071,381.353 220.087,387.977 212.959,393.449 C 210.007,395.754 207.631,393.017 209.287,388.409 C 218.719,362.777 234.703,335.634 253.063,307.121 C 246.727,310.145 240.391,312.882 234.127,314.826 C 230.599,315.906 230.167,312.017 233.479,306.258 C 243.631,288.474 253.063,270.762 261.271,253.483 C 258.175,254.489 255.223,255.282 252.199,256.003 C 244.207,274.075 234.703,292.723 224.479,311.442 C 214.183,330.235 204.031,348.739 195.031,367.098 C 192.511,372.282 188.552,377.035 185.527,377.178 C 179.263,377.61 172.783,377.826 166.447,378.474 C 163.495,378.69 162.415,375.09 164.503,369.978 C 170.119,355.434 176.167,340.819 182.287,326.058 C 181.423,326.202 180.559,326.346 179.695,326.562 C 178.975,328.29 178.399,330.09 177.679,331.747 C 175.519,337.003 170.767,341.683 167.455,342.69 C 159.823,345.067 152.191,348.594 144.631,352.338 C 141.103,354.21 139.591,351.762 140.815,346.865 C 142.975,338.298 144.775,329.441 146.143,320.945 C 140.095,324.185 134.191,327.281 128.215,330.09 C 125.191,354.426 119.359,379.842 112.807,405.33 C 111.583,410.01 108.344,414.546 105.391,415.193 C 98.983,416.418 92.359,417.21 85.735,417.497 C 82.711,417.642 81.271,414.185 82.063,409.722 C 85.951,389.922 89.263,370.41 87.535,351.978 C 85.806,334.338 76.014,318.354 59.815,306.041 C 55.711,302.945 56.359,301.218 62.263,299.994 C 73.784,297.617 85.159,293.873 96.463,289.626 C 75.367,274.434 58.015,258.09 46.495,239.369 C 44.479,236.201 49.951,230.082 57.727,226.265 C 59.671,225.329 61.543,224.322 63.487,223.313 C 58.159,207.906 54.271,189.761 63.127,171.185 C 74.575,147.066 90.055,126.473 94.735,106.961 C 95.743,102.641 99.415,95.801 104.311,91.769 C 115.039,82.769 125.839,73.625 136.855,65.921 C 141.751,62.465 146.143,64.265 145.639,68.801 C 143.047,89.032 136.495,110.489 131.598,131.441 C 140.814,127.481 149.958,123.809 159.318,121.578 C 166.086,119.922 172.278,122.586 173.934,126.33 C 181.996,145.192 189.628,164.128 194.812,184.073 z"
   style="fill:none;stroke:#2e292f;stroke-width:7.99100018" />
						<path
   id="path3270"
   d="M 125.188,228.64 C 116.332,233.248 111.004,241.096 113.956,245.128 C 123.748,258.447 135.556,270.832 142.612,285.232 C 144.772,289.624 149.74,291.135 155.716,288.039 C 168.172,281.486 180.772,275.8 193.445,272.199 C 199.205,270.544 205.685,265.359 205.685,259.744 C 205.901,242.463 202.013,226.336 198.989,210.064 C 198.052,205.095 190.061,202.143 181.421,204.807 C 162.484,210.64 143.764,218.92 125.188,228.64 z"
   style="fill:none;stroke:#2e292f;stroke-width:7.99100018" />
						<path
   id="path3272"
   d="M 252.7,149.368 C 243.268,152.249 237.148,158.224 237.724,163.192 C 239.884,179.753 239.668,197.032 239.524,214.312 C 239.524,219.64 245.644,222.665 253.06,220.649 C 268.756,216.401 284.596,211.504 300.435,205.672 C 308.068,202.792 316.204,195.088 318.435,188.896 C 325.419,168.88 330.747,149.584 331.324,131.655 C 331.54,126.401 322.179,125.536 312.676,129.065 C 292.66,136.48 272.645,143.321 252.7,149.368 z"
   style="fill:none;stroke:#2e292f;stroke-width:7.99100018" />
						<path
   id="path3274"
   d="M 300.725,236.056 C 297.7,237.496 293.524,241.672 291.508,244.985 C 284.884,256.216 277.684,267.52 270.34,278.896 C 268.18,282.424 268.252,284.368 270.772,283 C 276.172,280.119 281.716,276.88 287.26,273.279 C 289.852,271.624 294.244,267.16 296.836,263.631 C 305.549,251.896 314.26,240.233 322.468,228.569 C 324.916,225.04 324.268,223.673 321.028,225.545 C 314.188,229.36 307.42,232.817 300.725,236.056 z"
   style="fill:none;stroke:#2e292f;stroke-width:7.99100018" />
						<path
   id="path3276"
   d="M 110.5,180.184 C 107.332,181.84 105.388,184.72 105.82,186.161 C 107.332,191.129 109.132,196.097 111.004,200.993 C 111.58,202.577 114.532,202.288 117.7,200.559 C 124.252,197.104 130.876,193.72 137.572,190.48 C 140.595,189.041 142.828,186.665 142.323,185.153 C 140.595,180.184 138.652,175.073 137.139,170.032 C 136.635,168.448 133.467,168.233 130.371,169.745 C 123.676,173.056 117.052,176.583 110.5,180.184 z"
   style="fill:none;stroke:#2e292f;stroke-width:7.99100018" />
						<path
   id="path3278"
   d="M 94.588,305.247 C 92.5,305.825 91.708,307.337 92.644,308.487 C 96.028,312.52 98.692,316.841 100.708,321.304 C 101.284,322.672 102.94,323.679 104.74,323.176 C 108.556,322.096 112.372,320.728 116.188,319.432 C 117.988,318.712 119.5,316.84 119.068,315.328 C 117.7,310.504 115.684,305.895 113.091,301.504 C 112.371,300.136 109.923,299.775 107.835,300.64 C 103.444,302.295 98.98,303.88 94.588,305.247 z"
   style="fill:none;stroke:#2e292f;stroke-width:7.99100018" />
						<path
   id="path3280"
   d="M 383.092,91.336 C 379.924,92.775 378.196,95.008 378.628,96.592 C 380.141,101.703 381.004,107.031 380.716,112.648 C 380.645,114.377 383.092,114.665 386.26,113.153 C 392.813,110.272 399.436,107.249 406.061,104.368 C 409.157,103.001 411.893,100.409 412.037,98.753 C 412.541,93.065 411.821,87.737 410.309,82.769 C 409.876,81.257 406.42,81.257 403.18,82.625 C 396.557,85.432 389.716,88.456 383.092,91.336 z"
   style="fill:none;stroke:#2e292f;stroke-width:7.99100018" />
					</g>
				</g>
				<g
   id="g3282">
					<path
   id="path3284"
   d="M 346.948,247.792 C 349.611,248.439 352.276,249.52 354.796,250.816 C 360.557,253.695 361.78,263.486 357.244,271.839 C 337.012,308.775 317.355,346.574 313.973,380.559 C 310.804,411.736 314.549,446.727 308.861,486.399 C 307.277,497.559 297.485,508.142 289.565,509.223 C 285.749,509.727 281.501,510.232 277.468,509.799 C 268.973,509.078 264.292,498.856 265.588,489.782 C 271.204,450.182 269.404,410.655 275.956,374.007 C 282.58,336.782 305.332,301.719 330.532,262.191 C 335.86,253.768 341.549,246.352 346.948,247.792 z"
   style="fill:#5c124b;stroke:#2e292f;stroke-width:7.99100018" />
					<path
   id="path3286"
   d="M 178.54,387.256 C 181.276,387.544 184.372,388.264 187.324,389.272 C 193.66,391.36 197.116,400.432 195.676,408.496 C 189.556,442.841 180.988,478.913 172.708,515.129 C 164.5,551.129 156.436,590.225 142.18,633.28 C 138.436,644.728 127.276,655.456 117.988,656.825 C 113.38,657.329 108.844,657.976 104.38,657.833 C 95.308,657.617 92.788,646.889 97.18,636.089 C 115.468,591.737 129.004,548.897 141.1,509.297 C 152.26,472.65 158.596,438.305 164.644,402.952 C 166.228,393.665 172.78,386.392 178.54,387.256 z"
   style="fill:#5c124b;stroke:#2e292f;stroke-width:7.99100018" />
					<path
   id="path3288"
   d="M 89.116,430.312 C 91.492,430.96 94.012,432.04 96.388,433.408 C 101.716,436.432 103.3,446.08 99.844,454.36 C 84.58,490.504 70.036,528.376 67.3,560.704 C 64.564,593.753 63.052,632.129 54.628,675.976 C 52.18,688.361 42.1,700.745 34.036,702.904 C 30.148,703.984 25.9,704.992 21.796,704.992 C 13.3,704.848 9.628,693.904 11.931,683.68 C 22.012,639.329 24.964,595.481 32.092,556.096 C 39.076,517.217 57.724,481.65 74.788,444.929 C 78.82,436.144 84.292,428.945 89.116,430.312 z"
   style="fill:#5c124b;stroke:#2e292f;stroke-width:7.99100018" />
				</g>
			</g>
			<g
   id="g3290">
				<g
   id="g3292">
					<g
   id="g3294">
						<path
   id="path3296"
   d="M 108.628,86.657 C 110.068,84.425 111.94,82.264 113.956,80.536 C 124.684,71.536 135.484,62.392 146.5,54.688 C 151.396,51.232 155.788,53.104 155.284,57.569 C 154.06,67.073 151.972,76.793 149.596,86.657 L 108.628,86.657 z"
   style="fill:#d9ef87" />
						<path
   id="path3298"
   d="M 230.668,86.657 C 230.236,85.864 229.804,85.073 229.444,84.28 C 227.572,80.608 231.819,75.784 237.58,73.985 C 250.252,69.808 263.068,65.272 275.668,60.592 C 281.5,58.36 288.34,59.728 292.156,62.248 C 304.324,70.527 317.068,78.088 327.364,86.656 L 230.668,86.656 L 230.668,86.657 z"
   style="fill:#d9ef87" />
						<path
   id="path3300"
   d="M 354.22,86.657 C 358.54,84.856 362.932,82.985 367.252,81.112 C 342.412,63.401 309.94,48.856 296.764,26.608 C 294.748,23.081 299.285,17.753 304.325,15.808 C 315.268,11.632 326.213,7.455 337.085,3.784 C 341.98,2.2 346.3,4.504 348.604,7.6 C 357.245,18.977 375.172,26.321 399.581,31.216 C 424.493,36.328 442.709,43.744 452.573,54.401 C 453.436,53.968 454.373,53.608 455.381,53.249 C 472.373,47.776 489.293,42.737 505.925,38.776 C 513.486,36.977 522.629,38.417 522.558,42.448 C 522.413,55.264 516.366,70.456 506.142,86.657 L 421.757,86.657 C 422.116,81.257 421.398,76.217 419.957,71.536 C 419.524,70.024 416.069,70.024 412.829,71.392 C 406.205,74.2 399.365,77.224 392.741,80.104 C 389.573,81.543 387.845,83.776 388.277,85.36 C 388.421,85.793 388.493,86.224 388.637,86.657 L 354.22,86.657 z"
   style="fill:#d9ef87" />
						<path
   id="path3302"
   d="M 71.476,162.905 C 71.836,161.968 72.268,160.961 72.772,159.952 C 84.22,135.833 99.7,115.241 104.38,95.728 C 104.956,93.208 106.468,89.825 108.628,86.657 L 149.596,86.657 C 146.932,97.817 143.836,109.049 141.244,120.209 C 150.46,116.249 159.604,112.577 168.964,110.345 C 175.732,108.689 181.924,111.353 183.58,115.169 C 190.276,130.793 196.684,146.56 201.652,162.905 L 148.084,162.905 C 147.652,161.536 147.22,160.169 146.788,158.801 C 146.284,157.217 143.116,157.001 140.02,158.513 C 137.14,159.952 134.26,161.393 131.38,162.906 L 71.476,162.906 L 71.476,162.905 z"
   style="fill:#d9ef87" />
						<path
   id="path3304"
   d="M 225.772,162.905 C 222.964,150.808 219.22,139.073 214.036,127.913 C 212.308,124.097 216.556,119.776 224.188,117.761 C 232.396,115.673 240.604,113.297 248.884,110.777 C 242.26,102.857 235.348,95.154 230.668,86.658 L 327.364,86.658 C 330.316,89.105 333.052,91.626 335.572,94.29 C 341.763,91.842 347.956,89.25 354.219,86.658 L 388.636,86.658 C 389.931,91.338 390.652,96.233 390.364,101.418 C 390.292,103.146 392.74,103.434 395.908,101.922 C 402.46,99.042 409.084,96.018 415.708,93.138 C 418.804,91.77 421.54,89.178 421.684,87.522 C 421.684,87.234 421.756,86.946 421.756,86.659 L 506.141,86.659 C 500.524,95.514 493.612,104.73 485.764,114.091 C 471.868,130.435 456.604,146.634 440.764,162.907 L 397.42,162.907 C 399.868,159.667 402.244,156.499 404.549,153.331 C 418.445,134.179 430.036,115.026 439.18,97.243 C 438.317,97.675 437.38,98.106 436.516,98.394 C 422.62,104.01 408.653,110.13 394.756,116.681 C 388.132,131.657 380.428,147.067 371.572,162.907 L 332.908,162.907 C 337.444,148.146 340.54,133.89 340.972,120.427 C 341.187,115.171 331.827,114.307 322.324,117.835 C 302.308,125.323 282.292,132.091 262.348,138.139 C 252.916,141.091 246.796,146.995 247.372,151.963 C 247.876,155.562 248.236,159.235 248.452,162.907 L 225.772,162.907 L 225.772,162.905 z"
   style="fill:#d9ef87" />
						<path
   id="path3306"
   d="M 61.108,235.552 C 59.308,233.104 57.652,230.655 56.14,228.136 C 54.124,224.968 59.596,218.92 67.372,215.032 C 69.316,214.096 71.188,213.089 73.132,212.081 C 68.092,197.464 64.348,180.473 71.476,162.905 L 131.38,162.905 C 127.636,164.848 123.892,166.936 120.148,168.952 C 116.98,170.608 115.036,173.489 115.468,174.929 C 116.98,179.897 118.78,184.865 120.653,189.761 C 121.229,191.345 124.181,191.057 127.349,189.402 C 133.901,185.873 140.525,182.488 147.221,179.25 C 150.245,177.81 152.477,175.434 151.973,173.922 C 150.677,170.322 149.309,166.578 148.085,162.906 L 201.653,162.906 C 202.661,166.145 203.596,169.457 204.461,172.842 C 211.877,171.186 219.293,169.674 226.853,167.873 C 226.493,166.218 226.133,164.561 225.773,162.906 L 248.453,162.906 C 249.461,176.082 249.317,189.546 249.173,203.082 C 249.173,208.41 255.293,211.434 262.709,209.418 C 278.405,205.17 294.245,200.273 310.085,194.441 C 317.717,191.56 325.853,183.857 328.085,177.666 C 329.814,172.697 331.469,167.729 332.909,162.906 L 371.573,162.906 C 366.245,172.41 360.485,182.13 354.365,191.922 C 357.173,190.338 359.981,188.826 362.717,187.386 C 368.478,184.289 369.7,186.882 365.021,192.785 C 353.79,207.042 342.054,221.298 330.389,235.554 L 318.941,235.554 C 323.478,229.506 327.87,223.457 332.117,217.41 C 334.566,213.809 333.918,212.441 330.678,214.313 C 323.838,218.129 317.071,221.584 310.374,224.826 C 307.35,226.265 303.174,230.441 301.158,233.754 C 300.798,234.33 300.437,234.978 300.078,235.554 L 214.758,235.554 C 213.606,223.026 210.87,211.002 208.638,198.834 C 207.702,193.865 199.71,190.914 191.07,193.578 C 172.133,199.41 153.414,207.689 134.838,217.41 C 125.982,222.017 120.654,229.865 123.606,233.897 C 124.038,234.473 124.398,234.977 124.83,235.553 L 61.108,235.553 L 61.108,235.552 z"
   style="fill:#d9ef87" />
						<path
   id="path3308"
   d="M 397.42,162.905 C 384.46,179.896 370.132,196.961 355.444,214.312 C 350.187,220.504 349.396,223.888 353.931,222.304 C 363.435,219.065 372.939,216.832 382.156,215.392 C 386.187,214.817 394.972,209.056 401.523,202.504 C 414.699,189.184 427.948,176.008 440.763,162.904 L 397.42,162.904 L 397.42,162.905 z"
   style="fill:#d9ef87" />
						<path
   id="path3310"
   d="M 76.3,300.569 C 74.14,298.552 71.908,296.608 69.46,294.808 C 65.356,291.712 66.004,289.985 71.908,288.76 C 83.428,286.384 94.804,282.64 106.108,278.391 C 87.82,265.216 72.412,251.248 61.108,235.552 L 124.828,235.552 C 134.332,248.224 145.492,260.176 152.26,274 C 154.42,278.391 159.388,279.904 165.364,276.808 C 177.82,270.256 190.42,264.569 203.092,260.968 C 208.852,259.312 215.332,254.128 215.332,248.511 C 215.404,244.119 215.188,239.8 214.756,235.552 L 300.076,235.552 C 293.74,246.208 286.972,256.936 279.988,267.737 C 277.828,271.192 277.9,273.136 280.42,271.768 C 285.82,268.888 291.364,265.649 296.908,262.048 C 299.5,260.391 303.892,255.928 306.484,252.401 C 310.66,246.784 314.836,241.169 318.939,235.552 L 330.387,235.552 C 319.515,248.871 308.644,262.264 298.203,275.655 C 291.651,284.081 285.459,292.36 279.843,300.569 L 259.683,300.569 C 260.691,298.985 261.699,297.472 262.707,295.888 C 259.179,297.544 255.723,299.128 252.195,300.569 L 240.963,300.569 C 241.179,299.056 241.899,297.184 243.123,295.024 C 253.275,277.241 262.707,259.528 270.915,242.321 C 267.819,243.329 264.867,244.049 261.843,244.841 C 253.851,262.841 244.347,281.487 234.123,300.209 C 234.051,300.353 233.979,300.425 233.907,300.569 L 127.564,300.569 C 126.34,297.04 124.684,293.584 122.74,290.271 C 122.02,288.905 119.572,288.616 117.484,289.409 C 113.092,291.137 108.628,292.649 104.236,294.016 C 102.148,294.592 101.356,296.104 102.292,297.256 C 103.228,298.336 104.02,299.414 104.884,300.568 L 76.3,300.568 L 76.3,300.569 z"
   style="fill:#d9ef87" />
						<path
   id="path3312"
   d="M 97.468,358.672 C 97.756,352.552 97.756,346.575 97.18,340.744 C 95.74,325.767 88.396,311.943 76.3,300.568 L 104.884,300.568 C 107.044,303.591 108.844,306.832 110.356,310.072 C 110.932,311.439 112.588,312.447 114.388,311.943 C 118.204,310.863 122.02,309.496 125.836,308.199 C 127.636,307.48 129.148,305.607 128.716,304.095 C 128.356,302.943 127.996,301.719 127.564,300.568 L 233.908,300.568 C 223.684,319.215 213.604,337.648 204.676,355.863 C 204.244,356.8 203.668,357.736 203.164,358.672 L 174.148,358.672 C 179.764,344.128 185.812,329.584 191.932,314.824 C 191.068,315.039 190.204,315.111 189.34,315.328 C 188.62,317.056 188.044,318.855 187.396,320.511 C 185.164,325.768 180.412,330.448 177.1,331.455 C 169.468,333.832 161.836,337.359 154.276,341.103 C 150.748,342.975 149.236,340.528 150.46,335.631 C 152.62,327.064 154.42,318.207 155.788,309.711 C 149.74,313.023 143.836,316.047 137.86,318.855 C 136.276,331.887 133.828,345.208 130.948,358.671 L 97.468,358.671 L 97.468,358.672 z"
   style="fill:#d9ef87" />
						<path
   id="path3314"
   d="M 226.708,358.672 C 235.42,340.025 246.94,320.654 259.684,300.568 L 279.844,300.568 C 267.748,317.992 258.1,334.839 251.692,350.752 C 250.684,353.272 249.46,356.152 247.948,358.672 L 226.708,358.672 L 226.708,358.672 z"
   style="fill:#d9ef87" />
						<path
   id="path3316"
   d="M 240.964,300.569 C 240.604,303.016 241.54,304.241 243.772,303.592 C 246.58,302.728 249.388,301.72 252.196,300.569 L 240.964,300.569 z"
   style="fill:#d9ef87" />
						<path
   id="path3318"
   d="M 97.468,358.672 C 96.748,371.632 94.372,385.025 91.78,398.487 C 90.916,402.951 92.356,406.407 95.38,406.263 C 102.004,405.975 108.628,405.183 115.036,403.959 C 117.988,403.311 121.228,398.774 122.452,394.095 C 125.476,382.215 128.356,370.407 130.948,358.671 L 97.468,358.671 L 97.468,358.672 z"
   style="fill:#d9ef87" />
						<path
   id="path3320"
   d="M 174.148,358.672 L 174.148,358.744 C 172.132,363.855 173.14,367.455 176.092,367.24 C 182.428,366.592 188.908,366.376 195.172,365.944 C 197.62,365.799 200.716,362.632 203.164,358.672 L 174.148,358.672 z"
   style="fill:#d9ef87" />
						<path
   id="path3322"
   d="M 226.708,358.672 C 223.756,364.936 221.164,371.128 218.932,377.176 C 217.276,381.783 219.652,384.52 222.604,382.216 C 229.732,376.744 236.716,370.12 243.916,363.856 C 245.428,362.56 246.724,360.76 247.948,358.672 L 226.708,358.672 z"
   style="fill:#d9ef87" />
					</g>
					<g
   id="g3324">
						<path
   id="path3326"
   d="M 204.46,172.84 C 211.876,171.184 219.292,169.672 226.852,167.871 C 223.972,153.975 219.94,140.583 214.036,127.912 C 212.308,124.096 216.556,119.775 224.188,117.76 C 232.396,115.672 240.604,113.296 248.884,110.776 C 241.684,102.136 234.124,93.784 229.445,84.28 C 227.573,80.608 231.82,75.784 237.581,73.985 C 250.253,69.808 263.069,65.272 275.669,60.592 C 281.501,58.36 288.341,59.728 292.157,62.248 C 307.852,72.904 324.413,82.408 335.573,94.288 C 346.085,90.111 356.669,85.647 367.253,81.111 C 342.413,63.4 309.941,48.855 296.765,26.607 C 294.749,23.08 299.286,17.752 304.326,15.807 C 315.269,11.631 326.214,7.454 337.086,3.783 C 341.98,2.2 346.3,4.504 348.604,7.6 C 357.245,18.977 375.172,26.321 399.581,31.216 C 424.493,36.328 442.709,43.744 452.573,54.401 C 453.436,53.968 454.373,53.608 455.381,53.249 C 472.373,47.776 489.293,42.737 505.925,38.776 C 513.486,36.977 522.629,38.417 522.558,42.448 C 522.341,62.321 507.941,87.808 485.765,114.089 C 460.709,143.68 431.045,172.625 401.525,202.505 C 394.974,209.057 386.189,214.817 382.158,215.393 C 372.941,216.833 363.437,219.066 353.933,222.305 C 349.398,223.889 350.189,220.505 355.446,214.313 C 372.87,193.721 389.79,173.56 404.55,153.33 C 418.446,134.178 430.037,115.025 439.181,97.242 C 438.318,97.674 437.381,98.105 436.517,98.393 C 422.621,104.009 408.654,110.129 394.757,116.68 C 384.173,140.729 370.638,165.784 354.365,191.921 C 357.173,190.337 359.981,188.825 362.717,187.385 C 368.478,184.288 369.7,186.881 365.021,192.784 C 343.278,220.36 319.877,247.864 298.206,275.655 C 277.613,302.009 261.054,327.425 251.694,350.753 C 249.894,355.217 247.302,360.977 243.918,363.857 C 236.718,370.122 229.734,376.746 222.606,382.217 C 219.654,384.521 217.278,381.784 218.934,377.177 C 228.366,351.545 244.35,324.402 262.71,295.889 C 256.374,298.913 250.038,301.65 243.774,303.593 C 240.246,304.673 239.814,300.784 243.126,295.025 C 253.278,277.242 262.71,259.529 270.918,242.322 C 267.822,243.33 264.87,244.05 261.846,244.842 C 253.854,262.842 244.35,281.488 234.126,300.21 C 223.83,319.002 213.678,337.506 204.678,355.865 C 202.158,361.05 198.199,365.802 195.174,365.946 C 188.91,366.378 182.43,366.593 176.094,367.242 C 173.142,367.457 172.134,363.857 174.15,358.746 C 179.766,344.201 185.814,329.586 191.934,314.826 C 191.07,315.041 190.206,315.113 189.342,315.33 C 188.622,317.058 188.046,318.857 187.398,320.513 C 185.166,325.77 180.414,330.45 177.102,331.457 C 169.47,333.834 161.838,337.361 154.278,341.105 C 150.75,342.977 149.238,340.53 150.462,335.633 C 152.622,327.066 154.422,318.209 155.79,309.713 C 149.742,313.025 143.838,316.049 137.862,318.857 C 134.838,343.193 129.006,368.609 122.454,394.097 C 121.23,398.777 117.99,403.313 115.038,403.961 C 108.63,405.185 102.006,405.977 95.382,406.265 C 92.358,406.409 90.918,402.953 91.782,398.489 C 95.597,378.689 98.91,359.177 97.182,340.746 C 95.454,323.178 85.662,307.121 69.462,294.809 C 65.358,291.713 66.006,289.986 71.91,288.761 C 83.43,286.385 94.806,282.641 106.11,278.392 C 85.012,263.2 67.66,246.856 56.14,228.136 C 54.124,224.968 59.596,218.92 67.372,215.032 C 69.316,214.096 71.188,213.089 73.132,212.081 C 67.804,196.673 63.916,178.528 72.772,159.952 C 84.22,135.833 99.7,115.241 104.38,95.728 C 105.388,91.409 109.06,84.64 113.956,80.536 C 124.684,71.536 135.484,62.392 146.5,54.688 C 151.396,51.232 155.788,53.104 155.284,57.569 C 152.692,77.8 146.14,99.257 141.244,120.209 C 150.46,116.249 159.604,112.577 168.964,110.345 C 175.732,108.689 181.924,111.353 183.58,115.169 C 191.644,133.96 199.276,152.896 204.46,172.84 z"
   style="fill:none;stroke:#5a5a40;stroke-width:7.99100018" />
						<path
   id="path3328"
   d="M 134.836,217.409 C 125.98,222.016 120.652,229.864 123.604,233.896 C 133.396,247.216 145.204,259.6 152.26,274 C 154.42,278.391 159.388,279.904 165.364,276.808 C 177.82,270.256 190.42,264.569 203.092,260.968 C 208.852,259.312 215.332,254.128 215.332,248.511 C 215.548,231.233 211.66,215.104 208.636,198.832 C 207.7,193.863 199.708,190.912 191.068,193.576 C 172.132,199.409 153.412,207.688 134.836,217.409 z"
   style="fill:none;stroke:#5a5a40;stroke-width:7.99100018" />
						<path
   id="path3330"
   d="M 262.348,138.136 C 252.916,141.088 246.796,146.992 247.372,151.96 C 249.532,168.52 249.316,185.8 249.172,203.08 C 249.172,208.408 255.292,211.432 262.708,209.416 C 278.404,205.168 294.244,200.271 310.084,194.439 C 317.716,191.558 325.852,183.855 328.084,177.664 C 335.068,157.648 340.396,138.352 340.973,120.424 C 341.188,115.168 331.828,114.304 322.325,117.832 C 302.309,125.321 282.292,132.088 262.348,138.136 z"
   style="fill:none;stroke:#5a5a40;stroke-width:7.99100018" />
						<path
   id="path3332"
   d="M 310.372,224.825 C 307.348,226.264 303.172,230.44 301.156,233.753 C 294.532,244.985 287.332,256.288 279.988,267.737 C 277.828,271.192 277.9,273.136 280.42,271.768 C 285.82,268.888 291.364,265.649 296.908,262.048 C 299.5,260.391 303.892,255.928 306.484,252.401 C 315.196,240.665 323.908,229.001 332.115,217.409 C 334.564,213.808 333.916,212.44 330.676,214.312 C 323.836,218.128 317.068,221.583 310.372,224.825 z"
   style="fill:none;stroke:#5a5a40;stroke-width:7.99100018" />
						<path
   id="path3334"
   d="M 120.148,168.952 C 116.98,170.608 115.036,173.489 115.468,174.929 C 116.98,179.897 118.78,184.865 120.653,189.761 C 121.229,191.345 124.181,191.057 127.349,189.402 C 133.901,185.873 140.525,182.488 147.221,179.25 C 150.245,177.81 152.477,175.434 151.973,173.922 C 150.245,168.953 148.301,163.842 146.789,158.802 C 146.285,157.218 143.117,157.002 140.021,158.514 C 133.324,161.825 126.7,165.352 120.148,168.952 z"
   style="fill:none;stroke:#5a5a40;stroke-width:7.99100018" />
						<path
   id="path3336"
   d="M 104.236,294.016 C 102.148,294.592 101.356,296.104 102.292,297.256 C 105.676,301.287 108.34,305.608 110.356,310.072 C 110.932,311.439 112.588,312.447 114.388,311.943 C 118.204,310.863 122.02,309.496 125.836,308.199 C 127.636,307.48 129.148,305.607 128.716,304.095 C 127.348,299.27 125.332,294.663 122.74,290.27 C 122.02,288.904 119.572,288.615 117.484,289.408 C 113.092,291.136 108.628,292.649 104.236,294.016 z"
   style="fill:none;stroke:#5a5a40;stroke-width:7.99100018" />
						<path
   id="path3338"
   d="M 392.74,80.104 C 389.572,81.543 387.844,83.776 388.276,85.36 C 389.788,90.472 390.652,95.8 390.364,101.417 C 390.292,103.145 392.74,103.433 395.908,101.921 C 402.46,99.041 409.084,96.017 415.708,93.137 C 418.804,91.769 421.54,89.177 421.684,87.521 C 422.188,81.833 421.468,76.505 419.956,71.537 C 419.523,70.025 416.068,70.025 412.828,71.393 C 406.204,74.2 399.364,77.224 392.74,80.104 z"
   style="fill:none;stroke:#5a5a40;stroke-width:7.99100018" />
					</g>
				</g>
				<g
   id="g3340">
					<path
   id="path3342"
   d="M 356.596,236.559 C 359.26,237.208 361.924,238.288 364.445,239.583 C 370.205,242.463 371.428,252.256 366.893,260.607 C 346.661,297.544 327.004,335.343 323.621,369.328 C 320.453,400.504 324.197,435.568 318.509,475.167 C 316.925,486.328 307.133,496.912 299.285,497.991 C 295.397,498.495 291.149,499 287.116,498.639 C 278.621,497.847 273.94,487.623 275.237,478.551 C 280.852,438.95 279.053,399.494 285.604,362.847 C 292.229,325.551 315.053,290.486 340.18,250.959 C 345.508,242.536 351.196,235.12 356.596,236.559 z"
   style="fill:#f0f971;stroke:#6c673d;stroke-width:7.99100018" />
					<path
   id="path3344"
   d="M 188.188,376.025 C 190.924,376.312 194.02,377.104 196.972,378.04 C 203.308,380.129 206.764,389.2 205.324,397.265 C 199.204,431.609 190.636,467.68 182.356,503.897 C 174.148,539.897 166.084,578.993 151.828,622.049 C 148.084,633.496 136.924,644.225 127.636,645.593 C 123.028,646.169 118.492,646.745 114.028,646.673 C 104.956,646.385 102.436,635.657 106.828,624.858 C 125.116,580.505 138.652,537.665 150.748,498.066 C 161.908,461.418 168.244,427.074 174.292,391.721 C 175.876,382.432 182.428,375.161 188.188,376.025 z"
   style="fill:#f0f971;stroke:#6c673d;stroke-width:7.99100018" />
					<path
   id="path3346"
   d="M 98.764,419.08 C 101.14,419.728 103.66,420.809 106.036,422.177 C 111.364,425.2 112.948,434.849 109.492,443.129 C 94.228,479.273 79.684,517.144 77.02,549.473 C 74.212,582.521 72.7,620.897 64.276,664.745 C 61.828,677.129 51.748,689.513 43.683,691.673 C 39.796,692.753 35.547,693.761 31.444,693.761 C 22.948,693.617 19.276,682.673 21.58,672.449 C 31.66,628.096 34.612,584.249 41.739,544.864 C 48.724,505.984 67.372,470.417 84.436,433.696 C 88.468,424.913 93.94,417.784 98.764,419.08 z"
   style="fill:#f0f971;stroke:#6c673d;stroke-width:7.99100018" />
				</g>
			</g>
		</g></svg>