<?xml version="1.0" encoding="UTF-8" standalone="no"?>
<!-- Generator: Adobe Illustrator 10, SVG Export Plug-In . SVG Version: 3.0.0 Build 76)  -->
<svg
   xmlns:dc="http://purl.org/dc/elements/1.1/"
   xmlns:cc="http://creativecommons.org/ns#"
   xmlns:rdf="http://www.w3.org/1999/02/22-rdf-syntax-ns#"
   xmlns:svg="http://www.w3.org/2000/svg"
   xmlns="http://www.w3.org/2000/svg"
   xmlns:sodipodi="http://sodipodi.sourceforge.net/DTD/sodipodi-0.dtd"
   xmlns:inkscape="http://www.inkscape.org/namespaces/inkscape"
   width="543.45886"
   height="619.62286"
   viewBox="0 0 550.627 699.046"
   style="overflow:visible"
   xml:space="preserve"
   id="svg4175"
   sodipodi:version="0.32"
   inkscape:version="0.46"
   sodipodi:docname="SeeLegendForTitle1.svg"
   inkscape:output_extension="org.inkscape.output.svg.inkscape"
   version="1.0"><metadata
   id="metadata4289"><rdf:RDF><cc:Work
       rdf:about=""><dc:format>image/svg+xml</dc:format><dc:type
         rdf:resource="http://purl.org/dc/dcmitype/StillImage" /></cc:Work></rdf:RDF></metadata><defs
   id="defs4287"><inkscape:perspective
   sodipodi:type="inkscape:persp3d"
   inkscape:vp_x="0 : 349.52301 : 1"
   inkscape:vp_y="0 : 1000 : 0"
   inkscape:vp_z="550.62701 : 349.52301 : 1"
   inkscape:persp3d-origin="275.31351 : 233.01534 : 1"
   id="perspective4291" />
		
		
	</defs><sodipodi:namedview
   inkscape:window-height="670"
   inkscape:window-width="640"
   inkscape:pageshadow="2"
   inkscape:pageopacity="0.0"
   guidetolerance="10.0"
   gridtolerance="10.0"
   objecttolerance="10.0"
   borderopacity="1.0"
   bordercolor="#666666"
   pagecolor="#ffffff"
   id="base"
   showgrid="false"
   inkscape:zoom="0.66090069"
   inkscape:cx="275.31351"
   inkscape:cy="349.52301"
   inkscape:window-x="0"
   inkscape:window-y="64"
   inkscape:current-layer="svg4175" />
	<style
   type="text/css"
   id="style4177">
	
		@font-face{font-family:'Times-Roman';src:url(5CEBF93F.cef)}
	
	</style>
	
<g
   transform="matrix(1.1281798,0,0,1.1281798,-39.329851,-0.5471273)"
   style="overflow:visible"
   id="g4196">
			<g
   id="g4198">
				<g
   id="g4200">
					<path
   id="path4202"
   d="M 393.652,87.388 C 397.093,90.462 400.934,93.666 403.735,97.867 C 406.336,101.721 406.656,107.09 405.216,113.282 C 403.976,118.607 402.255,123.674 400.414,128.394 C 399.853,129.91 399.214,131.382 398.613,132.811 C 393.994,144.178 393.977,143.538 390.73,149.221 C 386.209,157.102 381.288,164.117 376.166,169.962 C 372.685,173.989 367.643,178.363 361.321,184.598 C 361.201,185.464 361.161,186.33 361.161,187.109 C 374.685,178.969 388.05,166.151 401.653,151.43 C 408.297,144.199 414.498,137.617 419.34,131.122 C 420.021,130.212 420.7,129.303 421.341,128.394 C 425.142,123.155 428.103,117.915 429.583,112.719 C 431.224,106.96 429.343,102.024 423.701,98.603 C 417.26,94.749 408.416,91.892 400.094,86.089 C 384.249,74.961 374.926,61.278 367.083,50.67 C 367.083,51.536 367.083,52.358 367.043,53.138 C 370.084,58.247 372.564,63.53 375.366,67.86 C 379.568,74.312 386.29,80.763 393.652,87.388 z"
   style="fill:#001b0b;stroke:#192819;stroke-width:8" />
					<path
   id="path4204"
   d="M 382.314,76.049 C 385.754,79.124 389.595,82.328 392.397,86.528 C 394.998,90.382 395.318,95.751 393.876,101.943 C 392.637,107.268 390.916,112.335 389.075,117.055 C 388.514,118.57 387.874,120.043 387.274,121.472 C 382.655,132.839 382.638,132.199 379.392,137.882 C 374.871,145.763 369.948,152.778 364.827,158.623 C 361.347,162.65 356.305,167.024 349.982,173.259 C 349.862,174.125 349.822,174.991 349.822,175.771 C 363.346,167.63 376.711,154.813 390.315,140.091 C 396.958,132.86 403.159,126.278 408.001,119.783 C 408.682,118.874 409.362,117.965 410.002,117.055 C 413.804,111.815 416.764,106.576 418.245,101.38 C 419.885,95.621 418.005,90.685 412.362,87.264 C 405.921,83.41 397.077,80.552 388.755,74.75 C 372.909,63.622 363.587,49.939 355.745,39.331 C 355.745,40.197 355.745,41.019 355.704,41.799 C 358.745,46.908 361.226,52.191 364.026,56.521 C 368.229,62.973 374.952,69.424 382.314,76.049 z"
   style="fill:#008837;stroke:#7fc97f;stroke-width:8" />
				</g>
				<g
   id="g4206">
					<path
   id="path4208"
   d="M 276.535,152.599 C 278.855,154.201 282.577,153.422 286.618,150.694 C 290.979,147.793 294.701,143.592 297.981,138.483 C 300.142,135.062 301.703,131.642 302.543,128.394 C 302.863,127.008 303.064,125.623 303.144,124.324 C 303.303,120.297 301.903,117.569 299.262,116.703 C 296.661,115.837 293.381,116.616 289.419,119.388 C 286.138,121.683 282.938,124.714 280.136,128.394 C 279.696,128.957 279.256,129.52 278.856,130.126 C 276.135,134.023 274.294,138.397 273.735,142.64 C 273.214,147.143 274.055,150.866 276.535,152.599 z"
   style="fill:#001b0b;stroke:#192819;stroke-width:8" />
					<path
   id="path4210"
   d="M 265.196,141.26 C 267.517,142.862 271.238,142.083 275.279,139.355 C 279.64,136.454 283.362,132.254 286.643,127.145 C 288.803,123.724 290.364,120.304 291.205,117.056 C 291.525,115.67 291.725,114.285 291.805,112.986 C 291.965,108.959 290.565,106.231 287.923,105.365 C 285.323,104.499 282.041,105.278 278.08,108.05 C 274.799,110.345 271.599,113.376 268.798,117.056 C 268.358,117.619 267.917,118.181 267.518,118.788 C 264.796,122.685 262.956,127.058 262.396,131.302 C 261.875,135.804 262.715,139.528 265.196,141.26 z"
   style="fill:#008837;stroke:#7fc97f;stroke-width:8" />
				</g>
				<g
   id="g4212">
					<path
   id="path4214"
   d="M 354.08,128.394 C 359.321,126.532 364.684,125.146 369.885,123.674 C 370.965,118.607 371.965,113.542 372.806,108.606 C 364.844,109.991 356.601,111.074 348.758,114.104 C 340.795,117.179 333.073,122.679 324.99,128.394 C 324.389,128.827 323.75,129.303 323.11,129.736 C 322.189,135.841 321.189,142.076 320.189,148.182 C 328.911,141.947 337.274,135.625 345.716,131.728 C 348.438,130.429 351.239,129.346 354.08,128.394 z"
   style="fill:#001b0b;stroke:#192819;stroke-width:8" />
					<path
   id="path4216"
   d="M 342.741,117.055 C 347.982,115.193 353.345,113.807 358.547,112.335 C 359.627,107.269 360.627,102.203 361.467,97.267 C 353.504,98.653 345.262,99.735 337.419,102.766 C 329.457,105.841 321.734,111.34 313.652,117.056 C 313.051,117.489 312.411,117.965 311.771,118.398 C 310.851,124.503 309.85,130.738 308.849,136.844 C 317.573,130.609 325.935,124.287 334.377,120.39 C 337.099,119.09 339.9,118.007 342.741,117.055 z"
   style="fill:#008837;stroke:#7fc97f;stroke-width:8" />
				</g>
				<g
   id="g4218">
					<path
   id="path4220"
   d="M 237.947,423.317 C 236.416,426.479 234.961,429.732 233.389,432.98 C 229.808,440.572 225.179,447.32 219.961,452.89 C 221.523,455.497 222.439,458.749 222.824,462.446 C 228.193,456.853 232.998,450.114 236.826,442.68 C 239.045,438.317 241.198,434.008 243.395,429.821 C 245.044,426.664 246.745,423.569 248.515,420.626 C 247.541,416.9 246.195,413.539 244.376,410.626 C 242.109,414.664 240.022,418.917 237.947,423.317 z"
   style="fill:#001b0b;stroke:#192819;stroke-width:8" />
					<path
   id="path4222"
   d="M 226.608,411.979 C 225.076,415.141 223.622,418.395 222.05,421.643 C 218.469,429.235 213.84,435.983 208.622,441.553 C 210.184,444.159 211.1,447.411 211.484,451.108 C 216.854,445.514 221.659,438.777 225.486,431.343 C 227.705,426.979 229.858,422.67 232.054,418.483 C 233.703,415.327 235.404,412.231 237.174,409.288 C 236.2,405.563 234.854,402.202 233.035,399.289 C 230.771,403.326 228.684,407.578 226.608,411.979 z"
   style="fill:#008837;stroke:#7fc97f;stroke-width:8" />
				</g>
				<g
   id="g4224">
					<path
   id="path4226"
   d="M 356.832,489.666 C 352.489,486.57 345.266,485.836 336.362,485.726 C 321.783,485.514 308.669,486.581 297.089,487.929 C 295.554,488.118 294.019,488.309 292.568,488.532 C 284.191,489.86 277.123,492.075 271.102,497.43 C 264.377,503.427 260.54,511.861 261.248,520.193 C 261.449,522.321 262.177,524.268 263.439,525.977 L 264.338,527.051 C 267.617,530.583 273.38,533.021 281.197,534.321 C 282.83,532.317 284.69,530.268 286.812,528.339 C 291.696,523.988 296.136,520.32 299.95,517.388 C 301.753,516.034 303.424,514.792 304.954,513.719 C 309.803,510.336 314.603,508.246 318.504,507.172 C 322.489,506.13 326.533,505.563 330.401,505.663 C 333.327,505.718 335.476,506.057 336.648,506.851 C 338.126,507.806 338.53,509.502 337.446,511.714 C 336.303,513.924 332.391,518.087 325.947,523.745 C 321.402,527.759 317.335,531.218 313.849,534.139 C 316.39,533.74 318.921,533.265 321.443,532.72 C 323.697,532.241 325.933,531.674 328.125,530.987 C 335.245,528.835 341.971,525.602 348.009,520.336 C 353.509,515.573 357.664,509.744 359.864,503.674 C 361.881,498.121 361.202,492.792 356.832,489.666 z"
   style="fill:#001b0b;stroke:#192819;stroke-width:8" />
					<path
   id="path4228"
   d="M 345.494,478.327 C 341.151,475.232 333.927,474.497 325.023,474.387 C 310.443,474.176 297.33,475.242 285.75,476.59 C 284.215,476.78 282.68,476.97 281.229,477.194 C 272.852,478.521 265.784,480.736 259.763,486.091 C 253.038,492.089 249.201,500.522 249.909,508.854 C 250.11,510.982 250.838,512.93 252.1,514.639 L 252.999,515.713 C 256.279,519.244 262.041,521.681 269.858,522.981 C 271.492,520.977 273.352,518.928 275.473,517.001 C 280.357,512.648 284.797,508.981 288.611,506.05 C 290.415,504.696 292.085,503.453 293.615,502.381 C 298.464,498.998 303.264,496.907 307.166,495.833 C 311.151,494.792 315.194,494.224 319.062,494.324 C 321.988,494.378 324.136,494.719 325.31,495.512 C 326.787,496.467 327.191,498.164 326.107,500.376 C 324.964,502.585 321.052,506.749 314.609,512.407 C 310.062,516.421 305.997,519.879 302.51,522.801 C 305.051,522.4 307.583,521.927 310.105,521.382 C 312.359,520.903 314.594,520.336 316.786,519.649 C 323.906,517.495 330.632,514.263 336.67,508.998 C 342.17,504.234 346.325,498.406 348.526,492.334 C 350.542,486.782 349.863,481.453 345.494,478.327 z"
   style="fill:#008837;stroke:#7fc97f;stroke-width:8" />
				</g>
				<g
   id="g4230">
					<path
   id="path4232"
   d="M 282.518,534.527 C 282.07,534.463 281.632,534.392 281.198,534.32 C 280.017,535.767 278.952,537.193 278.01,538.53 C 276.192,541.147 275.797,543.305 276.963,544.834 C 278.148,546.451 280.023,547.543 282.996,547.923 C 285.793,548.296 288.715,548.144 291.581,547.519 C 295.418,546.706 298.971,545.348 302.048,543.292 C 304.769,541.483 308.656,538.436 313.694,534.269 C 313.744,534.227 313.799,534.18 313.849,534.138 C 303.615,535.749 293.209,536.109 282.518,534.527 z"
   style="fill:#001b0b;stroke:#192819;stroke-width:8" />
					<path
   id="path4234"
   d="M 271.18,523.189 C 270.732,523.124 270.294,523.052 269.859,522.98 C 268.678,524.429 267.614,525.855 266.671,527.192 C 264.853,529.809 264.458,531.967 265.625,533.496 C 266.81,535.113 268.685,536.205 271.658,536.585 C 274.454,536.956 277.378,536.805 280.243,536.18 C 284.081,535.368 287.632,534.009 290.711,531.953 C 293.432,530.144 297.318,527.098 302.357,522.93 C 302.407,522.889 302.462,522.841 302.512,522.8 C 292.277,524.41 281.87,524.771 271.18,523.189 z"
   style="fill:#008837;stroke:#7fc97f;stroke-width:8" />
				</g>
				<g
   id="g4236">
					<path
   id="path4238"
   d="M 271.648,482.774 C 268.847,475.046 266.502,466.783 265.211,457.893 C 265.107,457.093 264.976,456.263 264.871,455.463 C 263.824,446.997 263.426,438.093 262.917,429.124 C 259.502,431.724 256.359,434.512 253.363,437.544 C 253.385,438.986 253.441,440.4 253.437,441.813 C 253.663,450.446 253.878,458.929 254.893,466.952 C 256.023,475.922 258.488,484.192 261.329,491.834 C 264.67,488.672 268.078,485.66 271.648,482.774 z"
   style="fill:#001b0b;stroke:#192819;stroke-width:8" />
					<path
   id="path4240"
   d="M 260.311,471.436 C 257.509,463.709 255.163,455.444 253.874,446.555 C 253.769,445.755 253.639,444.926 253.534,444.126 C 252.487,435.66 252.089,426.755 251.581,417.787 C 248.166,420.386 245.023,423.174 242.027,426.205 C 242.049,427.648 242.105,429.063 242.101,430.476 C 242.327,439.108 242.542,447.591 243.557,455.614 C 244.687,464.585 247.151,472.854 249.993,480.495 C 253.332,477.333 256.74,474.321 260.311,471.436 z"
   style="fill:#008837;stroke:#7fc97f;stroke-width:8" />
				</g>
				<g
   id="g4242">
					<path
   id="path4244"
   d="M 440.64,190.961 C 444.101,191.64 447.445,192.494 450.186,193.726 C 442.103,203.202 433.765,212.602 425.96,222.204 C 418.319,231.604 411.049,241.155 404.081,250.329 C 401.457,244.799 397.044,242.035 391.074,241.155 C 385.198,240.225 378.835,240.376 372.169,241.155 C 363.529,242.085 355.772,244.196 348.827,248.369 C 342.369,252.265 337.074,258.574 334.31,267.622 C 331.36,277.475 329.037,288.333 325.251,300.096 C 325.064,300.674 324.88,301.227 324.717,301.78 C 324.413,302.765 324.132,303.741 323.856,304.716 C 323.775,301.515 323.864,298.316 324.164,295.115 C 316.778,293.255 309.439,290.465 302.215,288.153 C 295.154,285.916 288.141,284.257 281.289,283.201 C 283.704,270.534 281.846,257.991 281.846,245.449 C 281.846,233.477 282.873,221.373 283.158,209.302 C 285.144,207.179 287.045,204.722 288.779,202.049 C 291.979,196.94 294.18,192.133 294.781,188.019 C 295.422,183.862 294.54,181.091 292.139,180.182 C 289.779,179.273 286.257,180.442 282.296,183.213 C 278.135,186.027 274.373,189.708 271.052,194.384 C 268.211,198.368 266.331,202.611 265.85,206.638 C 265.38,210.625 266.186,214.018 268.4,215.621 C 267.583,226.789 265.779,238.04 265.4,249.219 C 264.982,261.886 267.979,274.605 266.329,287.599 C 259.524,287.649 252.904,286.292 246.308,285.337 C 239.851,284.407 230.746,295.692 224.104,294.234 C 223.895,294.935 223.675,295.633 223.454,296.332 C 224.309,293.226 225.088,290.372 225.781,287.791 C 227.686,280.929 228.731,275.701 227.221,271.177 C 225.317,265.471 220.253,259.69 213.75,253.507 C 206.364,246.419 198.096,239.231 189.525,232.269 C 180.931,225.281 173.94,220.33 167.994,220.254 C 163.326,220.229 159.586,223.999 156.148,228.498 C 152.897,232.746 149.622,237.572 146.997,242.774 C 144.372,248.002 142.724,253.029 141.771,257.553 C 140.865,261.901 140.656,266.049 141.516,270.196 C 142.283,273.79 143.792,277.158 145.325,280.954 C 146.997,285.177 148.786,290.404 150.435,296.99 C 150.784,298.322 151.109,299.704 151.434,301.162 C 153.827,311.894 155.917,326.321 158.867,343.111 C 159.68,347.736 160.632,351.959 161.724,355.704 C 164.697,365.909 168.668,372.443 173.337,373.449 C 172.06,382.875 170.039,392.325 167.089,401.675 C 163.349,402.002 159.61,402.329 156.149,399.463 C 152.805,407.054 149.321,414.619 145.906,422.185 C 149.739,425.453 153.873,425.176 158.007,424.825 C 154.778,432.968 151.596,441.086 148.554,449.179 C 158.959,446.867 169.179,442.167 179.096,434.25 C 182.092,426.684 184.972,419.068 187.713,411.528 C 191.197,408.31 194.588,404.465 197.886,400.443 C 200.023,393.682 201.811,386.97 203.135,380.184 C 200.139,383.704 197.073,387.046 193.914,389.886 C 195.331,381.215 196.051,372.518 196.26,363.847 C 198.188,361.383 200.069,358.644 201.858,355.678 C 207.177,346.856 211.822,335.922 215.538,323.807 C 216.287,321.377 217,319.009 217.683,316.702 C 224.626,318.014 233.026,312.19 239.897,313.36 C 247.422,314.692 255.087,315.874 262.775,315.848 C 262.148,328.969 261.707,342.114 261.893,355.334 C 262.102,368.73 262.961,382.253 262.195,395.349 C 262.223,395.346 262.251,395.341 262.278,395.339 C 262.256,395.35 262.233,395.36 262.211,395.371 C 264.037,398.226 265.483,401.503 266.605,405 C 273.493,401.424 280.755,398.158 287.958,394.686 C 295.184,391.243 302.021,387.133 308.331,382.528 C 307.064,379.466 305.626,376.6 303.913,374.016 C 298.987,377.563 293.675,380.774 288.098,383.565 C 287.595,372.449 285.473,360.904 283.749,349.504 C 281.752,336.383 280.498,323.363 279.568,310.52 C 287.186,312.506 295.038,315.321 302.911,318.889 C 308.922,321.614 314.959,324.567 320.993,327 C 321.267,330.404 321.945,333.736 323.138,336.991 C 327.551,348.905 338.49,360.467 353.518,370.094 C 369.752,380.449 386.406,386.908 400.412,390.176 C 411.049,392.664 419.806,392.841 425.496,390.854 C 431.048,388.895 433.347,383.817 432.952,376.628 C 432.603,369.666 429.235,360.366 424.613,349.131 C 420.665,339.379 415.021,328.018 411.073,315.652 C 410.771,314.646 410.469,313.64 410.167,312.635 C 409.099,308.99 408.425,305.346 407.983,301.777 C 406.915,293.131 407.263,284.836 406.915,277.522 C 412.513,268.926 418.505,260.003 425.217,251.181 C 432.162,242.133 439.804,233.235 447.886,224.186 C 445.239,231.324 442.66,238.236 440.291,245.199 C 444.402,235.698 448.699,224.865 453.391,214.937 C 458.199,204.758 463.378,195.433 466.839,188.27 C 458.594,188.674 450.186,189.051 440.64,190.961 z M 208.735,296.991 C 208.526,298.75 208.247,300.535 207.876,302.37 C 206.436,309.458 203.788,317.174 199.491,324.489 C 195.682,330.973 190.735,335.624 185.811,337.382 C 180.701,339.193 175.429,338.413 171.434,334.82 C 166.905,330.748 164.396,320.543 162.585,310.791 C 161.632,305.664 160.866,301.089 160.309,296.992 C 159.751,293.096 159.403,289.628 159.264,286.586 C 158.986,280.378 159.868,276.406 161.006,273.768 C 162.586,269.922 164.467,266.655 167.37,262.784 C 170.273,258.938 173.687,256.274 177.822,255.771 C 181.701,255.243 185.974,256.575 190.155,259.089 C 194.127,261.452 198.261,264.819 201.954,269.243 C 205.043,272.912 207.412,277.663 208.504,283.368 C 209.27,287.415 209.339,292.014 208.735,296.991 z M 407.712,346.929 C 408.525,352.484 408.525,357.133 407.643,360.502 C 406.644,364.272 405.065,367.464 401.766,368.469 C 398.166,369.574 394.241,369.852 390.432,369.173 C 384.834,368.193 378.331,364.824 372.292,360.325 C 366.485,356.027 361.934,350.774 359.448,344.817 C 357.473,340.142 356.405,334.939 356.243,329.509 C 356.173,326.947 356.312,324.331 356.66,321.718 C 356.939,319.632 357.381,317.596 357.961,315.636 C 359.169,311.413 360.888,307.467 362.305,303.671 C 364,299.097 366.09,295.075 369.459,292.688 C 372.779,290.25 376.728,289.345 381.141,289.496 C 385.508,289.672 389.294,291.256 392.639,294.347 C 395.635,297.087 398.515,301.661 400.256,307.794 C 400.93,310.207 401.418,312.846 401.835,315.637 C 402.485,319.909 403.044,324.584 404.019,329.51 C 404.042,329.561 404.042,329.637 404.066,329.687 C 405.482,336.674 407.154,342.706 407.712,346.929 z"
   style="fill:#001b0b;stroke:#192819;stroke-width:8" />
					<path
   id="path4246"
   d="M 429.301,179.623 C 432.762,180.302 436.107,181.156 438.848,182.388 C 430.765,191.864 422.427,201.264 414.622,210.866 C 406.98,220.266 399.711,229.818 392.743,238.991 C 390.119,233.461 385.706,230.697 379.736,229.817 C 373.86,228.887 367.496,229.038 360.83,229.817 C 352.189,230.747 344.433,232.858 337.488,237.03 C 331.031,240.926 325.735,247.235 322.971,256.283 C 320.022,266.136 317.699,276.994 313.912,288.757 C 313.726,289.335 313.54,289.887 313.378,290.441 C 313.075,291.426 312.793,292.403 312.518,293.377 C 312.437,290.176 312.525,286.977 312.826,283.775 C 305.439,281.915 298.099,279.125 290.877,276.813 C 283.815,274.576 276.802,272.917 269.95,271.861 C 272.365,259.193 270.507,246.651 270.507,234.109 C 270.507,222.137 271.535,210.033 271.82,197.961 C 273.805,195.839 275.707,193.381 277.44,190.708 C 280.64,185.599 282.841,180.792 283.441,176.679 C 284.083,172.522 283.202,169.751 280.801,168.842 C 278.44,167.933 274.919,169.102 270.957,171.873 C 266.796,174.687 263.035,178.368 259.713,183.044 C 256.872,187.027 254.991,191.271 254.511,195.298 C 254.041,199.285 254.847,202.678 257.061,204.281 C 256.244,215.449 254.44,226.7 254.062,237.879 C 253.644,250.547 256.64,263.265 254.991,276.259 C 248.186,276.309 241.567,274.952 234.97,273.997 C 228.513,273.067 219.408,284.352 212.766,282.895 C 212.558,283.596 212.337,284.294 212.116,284.993 C 212.972,281.887 213.75,279.033 214.444,276.452 C 216.348,269.59 217.394,264.362 215.884,259.838 C 213.979,254.132 208.916,248.352 202.413,242.169 C 195.027,235.081 186.759,227.893 178.188,220.93 C 169.595,213.943 162.604,208.991 156.658,208.916 C 151.989,208.891 148.25,212.661 144.812,217.16 C 141.561,221.408 138.286,226.234 135.661,231.436 C 133.036,236.664 131.387,241.691 130.435,246.215 C 129.529,250.564 129.32,254.711 130.18,258.858 C 130.946,262.452 132.456,265.82 133.989,269.615 C 135.661,273.838 137.449,279.066 139.099,285.651 C 139.447,286.983 139.772,288.365 140.098,289.823 C 142.491,300.556 144.58,314.983 147.53,331.772 C 148.343,336.397 149.296,340.62 150.387,344.365 C 153.36,354.569 157.332,361.104 162,362.11 C 160.723,371.536 158.702,380.986 155.752,390.337 C 152.013,390.663 148.273,390.989 144.813,388.125 C 141.468,395.716 137.984,403.28 134.57,410.846 C 138.403,414.114 142.537,413.838 146.671,413.486 C 143.442,421.63 140.26,429.748 137.218,437.841 C 147.623,435.529 157.843,430.827 167.76,422.911 C 170.756,415.346 173.636,407.729 176.377,400.188 C 179.861,396.971 183.252,393.126 186.55,389.104 C 188.687,382.343 190.475,375.632 191.8,368.846 C 188.804,372.365 185.738,375.707 182.579,378.547 C 183.996,369.876 184.716,361.18 184.925,352.508 C 186.853,350.045 188.734,347.305 190.522,344.34 C 195.841,335.517 200.486,324.584 204.203,312.469 C 204.952,310.038 205.664,307.67 206.348,305.363 C 213.29,306.675 221.691,300.851 228.562,302.022 C 236.087,303.354 243.752,304.535 251.44,304.51 C 250.813,317.631 250.372,330.776 250.557,343.997 C 250.766,357.393 251.625,370.916 250.859,384.012 C 250.887,384.009 250.915,384.004 250.942,384.001 C 250.92,384.013 250.897,384.022 250.874,384.033 C 252.7,386.887 254.146,390.166 255.268,393.663 C 262.157,390.086 269.419,386.821 276.621,383.349 C 283.847,379.905 290.685,375.796 296.994,371.191 C 295.728,368.128 294.289,365.263 292.575,362.677 C 287.65,366.226 282.338,369.437 276.762,372.227 C 276.258,361.111 274.136,349.566 272.413,338.165 C 270.416,325.046 269.161,312.026 268.232,299.182 C 275.85,301.167 283.701,303.983 291.574,307.552 C 297.586,310.277 303.623,313.23 309.656,315.662 C 309.93,319.067 310.608,322.399 311.801,325.653 C 316.214,337.567 327.154,349.13 342.181,358.756 C 358.416,369.111 375.07,375.57 389.075,378.838 C 399.713,381.327 408.469,381.503 414.16,379.517 C 419.711,377.557 422.01,372.48 421.615,365.291 C 421.266,358.329 417.899,349.028 413.277,337.794 C 409.329,328.042 403.684,316.681 399.736,304.315 C 399.433,303.31 399.132,302.304 398.83,301.299 C 397.762,297.654 397.088,294.01 396.646,290.441 C 395.579,281.795 395.926,273.501 395.579,266.187 C 401.176,257.591 407.168,248.668 413.881,239.846 C 420.825,230.798 428.467,221.9 436.55,212.852 C 433.903,219.99 431.324,226.902 428.954,233.864 C 433.065,224.363 437.362,213.53 442.054,203.602 C 446.863,193.422 452.042,184.098 455.502,176.934 C 447.255,177.336 438.848,177.713 429.301,179.623 z M 197.396,285.652 C 197.187,287.411 196.908,289.196 196.537,291.03 C 195.097,298.118 192.45,305.834 188.153,313.149 C 184.344,319.633 179.397,324.284 174.472,326.043 C 169.363,327.854 164.09,327.074 160.095,323.48 C 155.566,319.409 153.058,309.204 151.246,299.452 C 150.294,294.325 149.527,289.75 148.97,285.653 C 148.412,281.757 148.064,278.288 147.925,275.247 C 147.646,269.039 148.529,265.067 149.667,262.428 C 151.246,258.583 153.127,255.315 156.031,251.444 C 158.934,247.599 162.349,244.934 166.483,244.432 C 170.362,243.904 174.635,245.236 178.816,247.749 C 182.788,250.112 186.922,253.48 190.615,257.904 C 193.704,261.573 196.073,266.324 197.165,272.029 C 197.931,276.076 198,280.676 197.396,285.652 z M 396.373,335.59 C 397.185,341.145 397.185,345.795 396.304,349.162 C 395.305,352.933 393.726,356.125 390.427,357.131 C 386.827,358.236 382.903,358.513 379.093,357.834 C 373.496,356.854 366.992,353.486 360.953,348.986 C 355.147,344.689 350.595,339.435 348.109,333.478 C 346.135,328.803 345.066,323.601 344.904,318.171 C 344.835,315.607 344.973,312.993 345.322,310.379 C 345.601,308.293 346.042,306.257 346.623,304.296 C 347.831,300.073 349.549,296.127 350.967,292.331 C 352.661,287.757 354.752,283.736 358.119,281.348 C 361.44,278.91 365.39,278.005 369.803,278.156 C 374.169,278.332 377.955,279.915 381.299,283.007 C 384.296,285.747 387.176,290.321 388.918,296.453 C 389.592,298.867 390.079,301.506 390.497,304.296 C 391.147,308.568 391.705,313.244 392.681,318.17 C 392.703,318.221 392.703,318.295 392.727,318.346 C 394.144,325.336 395.815,331.367 396.373,335.59 z"
   style="fill:#008837;stroke:#7fc97f;stroke-width:8" />
				</g>
				<g
   id="g4248">
					<path
   id="path4250"
   d="M 428.957,403.172 C 423.312,405.711 416.299,407.043 408.077,407.118 C 399.947,407.394 388.659,405.308 374.701,401.589 C 359.836,397.417 348.477,392.943 340.721,388.318 C 334.636,384.397 329.827,380.049 326.39,375.399 C 324.137,372.233 321.861,367.407 319.771,361.223 L 317.495,360.619 C 318.262,373.715 323.603,386.257 333.011,397.994 C 342.37,409.556 354.541,417.524 369.243,421.597 C 384.294,425.643 398.718,425.141 412.328,419.786 C 425.776,414.483 435.879,406.163 442.615,395.079 L 440.339,394.475 C 436.738,398.497 432.952,401.388 428.957,403.172 z"
   style="fill:#001b0b;stroke:#192819;stroke-width:8" />
					<path
   id="path4252"
   d="M 417.618,391.834 C 411.973,394.372 404.96,395.705 396.738,395.78 C 388.609,396.056 377.32,393.97 363.361,390.251 C 348.497,386.078 337.139,381.604 329.382,376.98 C 323.297,373.059 318.489,368.71 315.052,364.061 C 312.798,360.893 310.523,356.068 308.432,349.885 L 306.157,349.281 C 306.924,362.376 312.265,374.918 321.672,386.656 C 331.032,398.218 343.203,406.185 357.905,410.258 C 372.955,414.305 387.379,413.801 400.989,408.447 C 414.437,403.144 424.541,394.825 431.276,383.74 L 429,383.137 C 425.398,387.159 421.613,390.049 417.618,391.834 z"
   style="fill:#008837;stroke:#7fc97f;stroke-width:8" />
				</g>
				<g
   id="g4254">
					<path
   id="path4256"
   d="M 222.903,403.486 L 221.045,404.617 C 220.998,409.769 220.232,414.394 218.769,418.29 C 216.47,423.844 212.591,429.525 207.226,435.33 C 202,441.062 193.337,447.547 181.886,454.634 C 169.646,462.175 159.542,467.101 151.669,469.288 C 145.305,470.896 139.615,471.449 134.644,470.695 C 131.16,470.192 126.793,468.584 121.847,465.843 L 119.989,466.975 C 128.258,475.119 139.151,479.843 152.204,481.05 C 165.257,482.281 177.939,479.089 190.086,471.6 C 202.419,463.984 211.663,453.628 217.377,440.659 C 223.252,427.941 225.063,415.399 222.903,403.486 z"
   style="fill:#001b0b;stroke:#192819;stroke-width:8" />
					<path
   id="path4258"
   d="M 211.564,392.146 L 209.706,393.278 C 209.66,398.43 208.893,403.055 207.43,406.951 C 205.131,412.506 201.252,418.186 195.887,423.992 C 190.661,429.722 181.997,436.208 170.547,443.296 C 158.307,450.836 148.203,455.763 140.33,457.949 C 133.966,459.557 128.275,460.111 123.305,459.357 C 119.821,458.854 115.454,457.246 110.507,454.505 L 108.649,455.636 C 116.918,463.78 127.811,468.505 140.864,469.712 C 153.917,470.942 166.598,467.751 178.746,460.261 C 191.079,452.646 200.323,442.29 206.037,429.321 C 211.913,416.604 213.725,404.061 211.564,392.146 z"
   style="fill:#008837;stroke:#7fc97f;stroke-width:8" />
				</g>
			</g>
			<g
   id="g4260">
				<g
   id="g4262">
					<path
   id="path4264"
   d="M 89.841,525.505 C 53.753,491.793 32.146,451.418 25.024,404.367 C 20.728,375.503 21.928,347.295 28.62,319.756 L 36.514,321.596 C 34.192,350.694 35.964,374.678 41.826,393.554 C 51.985,426.548 75.264,460.036 111.663,494.038 C 138.627,519.226 163.096,537.624 185.079,549.221 C 223.618,569.492 261.362,575.139 298.307,566.149 L 299.662,574.989 C 281.627,582.027 256.762,584.635 225.078,582.8 C 172.562,579.768 127.484,560.669 89.841,525.505 z"
   style="fill:#33330d;stroke:#33200b;stroke-width:8" />
					<path
   id="path4266"
   d="M 78.502,514.166 C 42.414,480.455 20.807,440.08 13.684,393.027 C 9.388,364.164 10.588,335.955 17.28,308.417 L 25.174,310.256 C 22.851,339.355 24.623,363.339 30.486,382.214 C 40.645,415.208 63.924,448.696 100.323,482.699 C 127.287,507.887 151.756,526.284 173.739,537.881 C 212.278,558.152 250.022,563.8 286.968,554.81 L 288.322,563.65 C 270.287,570.688 245.423,573.295 213.738,571.46 C 161.224,568.429 116.146,549.33 78.502,514.166 z"
   style="fill:#ffff41;stroke:#fe9f34;stroke-width:8" />
				</g>
				<g
   id="g4268">
					<path
   id="path4270"
   d="M 533.897,149.051 C 540.859,168.07 544.957,186.977 546.191,205.772 C 547.428,224.573 546.015,243.251 541.955,261.814 C 537.754,281.587 529.781,301.507 518.027,321.589 C 510.286,334.842 503.324,344.697 497.152,351.155 L 491.203,346.169 C 505.391,324.043 514.165,303.531 517.531,284.647 C 523.522,251.192 518.227,211.814 501.642,166.501 C 488.236,129.875 473.577,101.298 457.673,80.776 C 435.331,51.762 407.191,32.822 373.271,23.963 L 375.935,15.823 C 400.209,19.679 425.184,29.785 450.86,46.147 C 490.334,71.36 518.016,105.658 533.897,149.051 z"
   style="fill:#33330d;stroke:#33200b;stroke-width:8" />
					<path
   id="path4272"
   d="M 522.56,137.712 C 529.521,156.732 533.62,175.638 534.854,194.433 C 536.09,213.234 534.677,231.912 530.618,250.475 C 526.417,270.248 518.443,290.168 506.688,310.25 C 498.949,323.504 491.986,333.359 485.815,339.816 L 479.865,334.83 C 494.053,312.704 502.828,292.193 506.193,273.308 C 512.184,239.854 506.889,200.476 490.304,155.162 C 476.898,118.536 462.24,89.96 446.336,69.438 C 423.993,40.424 395.854,21.484 361.933,12.624 L 364.598,4.485 C 388.872,8.34 413.846,18.447 439.523,34.808 C 478.994,60.022 506.677,94.32 522.56,137.712 z"
   style="fill:#ffff41;stroke:#fe9f34;stroke-width:8" />
				</g>
				<g
   id="g4274">
					<path
   id="path4276"
   d="M 469.166,557.739 C 433.358,591.748 391.765,610.905 344.371,615.203 C 315.302,617.766 287.216,614.884 260.126,606.558 L 262.434,598.787 C 291.342,602.845 315.39,602.509 334.581,597.785 C 368.123,589.615 402.943,568.379 439.06,534.076 C 465.814,508.667 485.64,485.341 498.53,464.09 C 521.068,426.831 528.961,389.491 522.194,352.075 L 531.098,351.251 C 537.046,369.675 538.162,394.65 534.438,426.169 C 528.274,478.408 506.518,522.265 469.166,557.739 z"
   style="fill:#33330d;stroke:#33200b;stroke-width:8" />
					<path
   id="path4278"
   d="M 457.827,546.401 C 422.019,580.41 380.427,599.566 333.033,603.864 C 303.964,606.427 275.877,603.545 248.787,595.219 L 251.095,587.449 C 280.002,591.506 304.05,591.17 323.242,586.446 C 356.784,578.276 391.604,557.041 427.72,522.738 C 454.475,497.327 474.301,474.002 487.191,452.751 C 509.729,415.492 517.622,378.153 510.855,340.737 L 519.76,339.912 C 525.708,358.336 526.823,383.311 523.099,414.83 C 516.936,467.069 495.179,510.926 457.827,546.401 z"
   style="fill:#ffff41;stroke:#fe9f34;stroke-width:8" />
				</g>
				<g
   id="g4280">
					<path
   id="path4282"
   d="M 129.752,126.905 C 141.415,110.347 154.617,96.206 169.358,84.482 C 184.104,72.753 200.258,63.271 217.826,56.031 C 236.469,48.216 257.382,43.418 280.582,41.634 C 295.885,40.443 307.95,40.549 316.773,41.94 L 316.066,49.671 C 289.798,50.62 267.943,55.096 250.506,63.091 C 219.6,77.23 190.258,104.019 162.471,143.468 C 140.012,175.354 124.881,203.683 117.078,228.446 C 105.966,263.338 106.436,297.255 118.483,330.179 L 110.275,332.626 C 99.612,310.481 93.687,284.199 92.502,253.776 C 90.731,206.973 103.143,164.682 129.752,126.905 z"
   style="fill:#33330d;stroke:#33200b;stroke-width:8" />
					<path
   id="path4284"
   d="M 118.414,115.566 C 130.077,99.008 143.279,84.868 158.02,73.144 C 172.765,61.415 188.92,51.933 206.487,44.693 C 225.13,36.878 246.043,32.08 269.244,30.297 C 284.546,29.106 296.611,29.212 305.435,30.603 L 304.727,38.333 C 278.46,39.282 256.604,43.759 239.168,51.753 C 208.262,65.892 178.919,92.681 151.133,132.13 C 128.673,164.016 113.543,192.345 105.74,217.108 C 94.629,252 95.098,285.917 107.146,318.84 L 98.938,321.288 C 88.275,299.143 82.35,272.862 81.165,242.438 C 79.393,195.635 91.804,153.343 118.414,115.566 z"
   style="fill:#ffff41;stroke:#fe9f34;stroke-width:8" />
				</g>
			</g>
		</g></svg>