<?xml version="1.0" encoding="UTF-8" standalone="no"?>
<!-- Generator: Adobe Illustrator 10, SVG Export Plug-In . SVG Version: 3.0.0 Build 76)  -->
<svg
   xmlns:dc="http://purl.org/dc/elements/1.1/"
   xmlns:cc="http://creativecommons.org/ns#"
   xmlns:rdf="http://www.w3.org/1999/02/22-rdf-syntax-ns#"
   xmlns:svg="http://www.w3.org/2000/svg"
   xmlns="http://www.w3.org/2000/svg"
   xmlns:sodipodi="http://sodipodi.sourceforge.net/DTD/sodipodi-0.dtd"
   xmlns:inkscape="http://www.inkscape.org/namespaces/inkscape"
   width="417.18903"
   height="760.00415"
   viewBox="0 0 469.027 854.31"
   style="overflow:visible"
   xml:space="preserve"
   id="svg4293"
   sodipodi:version="0.32"
   inkscape:version="0.46"
   sodipodi:docname="SeeLegendForTitle2.svg"
   inkscape:output_extension="org.inkscape.output.svg.inkscape"
   version="1.0"><metadata
   id="metadata4679"><rdf:RDF><cc:Work
       rdf:about=""><dc:format>image/svg+xml</dc:format><dc:type
         rdf:resource="http://purl.org/dc/dcmitype/StillImage" /></cc:Work></rdf:RDF></metadata><defs
   id="defs4677"><inkscape:perspective
   sodipodi:type="inkscape:persp3d"
   inkscape:vp_x="0 : 427.155 : 1"
   inkscape:vp_y="0 : 1000 : 0"
   inkscape:vp_z="469.02701 : 427.155 : 1"
   inkscape:persp3d-origin="234.5135 : 284.77 : 1"
   id="perspective4681" />
		
		
	</defs><sodipodi:namedview
   inkscape:window-height="670"
   inkscape:window-width="640"
   inkscape:pageshadow="2"
   inkscape:pageopacity="0.0"
   guidetolerance="10.0"
   gridtolerance="10.0"
   objecttolerance="10.0"
   borderopacity="1.0"
   bordercolor="#666666"
   pagecolor="#ffffff"
   id="base"
   showgrid="false"
   inkscape:zoom="0.5407873"
   inkscape:cx="234.5135"
   inkscape:cy="427.155"
   inkscape:window-x="80"
   inkscape:window-y="31"
   inkscape:current-layer="svg4293" />
	<style
   type="text/css"
   id="style4295">
	
		@font-face{font-family:'Times-Roman';src:url(C6F17481.cef)}
	
	</style>
	
<g
   transform="matrix(1.1242554,0,0,1.1242554,2.5694364e-3,-24.329224)"
   style="overflow:visible"
   id="g4314">
			<g
   id="g4316">
				<g
   id="g4318">
					<path
   id="path4320"
   d="M 25.156,177.192 C 26.253,174.749 27.672,172.376 29.22,170.142 C 33.8,163.651 39.089,158.346 44.7,154.436 C 50.505,150.388 55.279,149.271 59.084,150.527 C 62.954,151.784 65.018,155.763 64.76,161.696 C 64.566,166.443 62.954,171.747 60.245,177.192 L 25.156,177.192 L 25.156,177.192 z"
   style="fill:#49392f" />
					<path
   id="path4322"
   d="M 92.82,177.192 C 93.207,174.679 93.594,172.096 93.981,169.584 C 106.817,160.509 119.008,151.505 131.522,146.688 C 143.004,142.291 155.066,140.685 166.741,138.661 C 165.515,145.921 164.032,153.32 162.484,160.719 C 150.745,164 138.553,167.141 127.072,172.516 C 124.105,173.912 121.138,175.448 118.171,177.193 L 92.82,177.193 L 92.82,177.192 z"
   style="fill:#49392f" />
					<path
   id="path4324"
   d="M 203.249,177.192 C 203.7,176.214 204.087,175.168 204.539,174.121 C 208.216,165.465 211.764,155.763 214.15,145.502 C 216.278,136.428 215.827,128.609 212.021,122.956 C 207.893,116.813 202.281,112.137 197.25,107.6 C 186.478,97.897 176.609,88.474 170.481,79.051 C 166.417,72.699 162.741,64.951 158.29,57.482 C 158.354,56.365 158.354,55.109 158.354,53.853 C 169.835,69.419 183.51,89.453 206.666,105.716 C 218.857,114.232 231.823,118.42 241.24,124.005 C 249.497,129.03 252.271,136.29 249.818,144.666 C 247.303,153.601 241.756,162.536 234.854,171.61 C 233.5,173.424 232.016,175.309 230.468,177.194 L 203.249,177.194 L 203.249,177.192 z"
   style="fill:#49392f" />
					<path
   id="path4326"
   d="M 280.459,177.192 C 296.52,157.577 313.549,138.381 330.062,119.116 C 324.063,116.324 316.71,114.509 309.098,112.973 C 330.062,108.785 348.445,108.017 366.571,107.11 C 359.024,122.816 347.672,143.268 337.092,165.605 C 335.287,169.444 333.544,173.283 331.803,177.192 L 280.459,177.192 z"
   style="fill:#49392f" />
					<path
   id="path4328"
   d="M 14.255,269.82 C 15.287,267.935 16.448,266.05 17.803,264.236 C 22.641,257.395 28.188,252.02 34.251,247.902 C 40.056,243.784 45.216,242.109 48.635,243.435 C 52.183,244.761 53.473,248.81 52.505,254.883 C 51.86,259.42 49.925,264.445 47.023,269.821 L 14.255,269.821 L 14.255,269.82 z"
   style="fill:#49392f" />
					<path
   id="path4330"
   d="M 80.242,269.82 C 86.757,255.929 96.432,245.738 107.721,238.967 C 122.944,229.822 139.972,225.146 158.871,223.121 C 165.128,222.423 171.256,221.933 177.255,221.725 C 182.737,214.745 188.027,206.718 192.993,198.132 C 196.476,191.989 199.959,184.94 203.249,177.192 L 230.47,177.192 C 224.213,184.87 216.795,192.827 208.99,201.343 C 202.282,208.603 195.638,215.513 188.994,221.934 C 192.864,222.145 196.67,222.563 200.347,223.122 C 213.506,225.077 223.116,231.149 228.922,243.226 C 244.21,223.122 260.142,202.182 276.912,181.59 C 278.073,180.124 279.299,178.658 280.46,177.193 L 331.804,177.193 C 323.548,195.621 315.808,214.817 308.325,232.058 C 313.55,216.771 319.162,201.553 324.968,185.918 C 307.293,205.812 290.523,225.217 275.236,245.179 C 269.044,253.347 263.045,261.584 257.304,269.821 L 80.242,269.821 L 80.242,269.82 z"
   style="fill:#49392f" />
					<path
   id="path4332"
   d="M 261.107,269.82 C 267.816,261.234 275.169,254.114 284.135,254.114 C 293.423,254.254 304.066,260.396 316.516,269.82 L 261.107,269.82 z"
   style="fill:#49392f" />
					<path
   id="path4334"
   d="M 25.156,177.192 C 23.415,180.892 22.254,184.731 21.738,188.5 C 20.964,195.061 22.189,200.506 25.801,203.088 C 29.22,205.392 34.638,204.275 40.572,200.296 C 46.958,196.038 52.44,189.896 57.214,182.427 C 58.311,180.682 59.342,178.937 60.246,177.192 L 25.156,177.192 L 25.156,177.192 z"
   style="fill:#49392f" />
					<path
   id="path4336"
   d="M 92.82,177.192 C 91.788,183.684 90.756,190.175 89.724,196.597 C 99.4,189.617 108.817,182.637 118.17,177.192 L 92.82,177.192 z"
   style="fill:#49392f" />
					<path
   id="path4338"
   d="M 54.054,358.749 C 54.635,356.655 55.344,354.561 55.989,352.466 C 64.31,326.639 69.406,302.837 75.856,281.198 C 77.082,277.148 78.565,273.38 80.242,269.82 L 257.303,269.82 C 249.563,280.919 242.209,292.087 235.178,302.906 C 235.307,307.164 235.436,311.562 235.5,316.099 C 237.242,310.305 239.629,304.651 242.531,298.858 C 247.691,288.527 254.27,278.894 260.593,270.518 C 260.785,270.309 260.979,270.029 261.108,269.82 L 316.517,269.82 C 319.806,272.333 323.289,275.055 326.836,277.917 C 343.801,291.808 360.184,306.046 374.827,320.078 C 387.727,332.362 397.724,343.741 401.531,355.049 C 401.918,356.236 402.24,357.492 402.498,358.749 L 356.766,358.749 C 355.154,356.026 353.412,353.514 351.477,351.21 C 344.123,342.485 335.932,335.784 328.063,331.107 C 319.806,326.151 311.292,323.498 303.616,324.476 C 295.361,325.523 288.651,330.898 282.911,338.437 C 277.493,345.626 273.88,351.769 270.849,358.749 L 196.929,358.749 C 195.897,351.629 194.736,344.998 193.059,338.925 C 189.253,325.453 182.932,315.402 176.352,309.399 C 168.999,302.628 160.678,299.138 151.131,298.789 C 141.456,298.44 132.748,300.393 125.524,305.769 C 118.042,311.004 113.526,319.869 109.785,329.851 C 106.431,338.995 102.238,348.488 99.529,358.749 L 54.054,358.749 z"
   style="fill:#49392f" />
					<path
   id="path4340"
   d="M 154.549,358.749 C 154.549,358.121 154.549,357.562 154.549,356.934 C 154.549,350.722 155,346.254 155.581,343.671 C 156.097,341.228 156.935,338.994 158.355,337.528 C 159.709,336.132 161.387,335.643 162.999,336.551 C 164.612,337.528 165.772,339.692 166.417,342.275 C 166.998,344.788 166.933,347.231 166.353,349.325 C 165.837,351.419 164.547,354.42 162.87,358.748 L 154.549,358.748 L 154.549,358.749 z"
   style="fill:#49392f" />
					<path
   id="path4342"
   d="M 14.255,269.82 C 12.126,273.938 10.708,278.127 10.192,282.175 C 9.483,288.108 10.708,293.204 14.127,295.438 C 17.288,297.602 22.061,296.764 27.931,292.716 C 33.543,288.877 39.09,282.664 43.734,275.475 C 44.96,273.52 46.056,271.636 47.024,269.821 L 14.255,269.821 L 14.255,269.82 z"
   style="fill:#49392f" />
					<path
   id="path4344"
   d="M 48.184,382.9 C 49.538,375.012 51.602,366.984 54.054,358.749 L 99.529,358.749 C 98.626,362.239 97.852,365.799 97.4,369.499 C 96.82,373.966 96.497,378.434 96.497,382.901 L 48.184,382.901 L 48.184,382.9 z"
   style="fill:#49392f" />
					<path
   id="path4346"
   d="M 127.587,382.9 C 127.006,382.691 126.426,382.481 125.91,382.202 C 121.073,380.038 118.041,377.386 116.751,375.501 C 115.59,373.756 115.138,371.732 115.59,369.847 C 116.106,368.032 117.203,366.566 118.686,365.519 C 120.169,364.542 121.782,364.331 123.33,364.821 C 124.878,365.239 126.297,366.217 127.33,367.473 C 128.491,368.869 130.168,371.452 132.942,374.872 C 134.425,376.757 136.167,378.502 137.973,380.247 C 138.876,381.084 139.844,381.992 140.94,382.899 L 127.587,382.899 L 127.587,382.9 z"
   style="fill:#49392f" />
					<path
   id="path4348"
   d="M 179.77,382.9 C 180.35,381.643 180.931,380.317 181.576,379.061 C 183.898,374.245 185.833,370.685 187.317,368.73 C 188.607,366.984 190.026,365.729 191.51,365.519 C 192.993,365.17 194.348,365.798 195.703,367.333 C 197.122,368.8 198.283,370.685 198.864,372.917 C 199.509,375.082 199.445,377.106 198.541,378.78 C 197.96,379.828 196.735,381.224 194.8,382.899 L 179.77,382.899 L 179.77,382.9 z"
   style="fill:#49392f" />
					<path
   id="path4350"
   d="M 200.604,382.9 C 199.056,374.454 198.024,366.357 196.928,358.749 L 270.848,358.749 C 270.59,359.237 270.397,359.726 270.202,360.215 C 268.268,365.031 266.526,372.081 266.784,382.831 L 200.604,382.9 z"
   style="fill:#49392f" />
					<path
   id="path4352"
   d="M 312.71,382.9 C 312.71,382.481 312.71,381.993 312.71,381.573 C 312.775,377.177 313.032,373.966 313.42,372.081 C 313.807,370.406 314.452,368.8 315.356,367.753 C 316.388,366.776 317.613,366.427 318.71,367.054 C 319.871,367.753 320.71,369.359 321.097,371.174 C 321.548,372.918 321.484,374.664 321.097,376.199 C 320.775,377.595 319.807,379.829 318.581,382.9 L 312.71,382.9 z"
   style="fill:#49392f" />
					<path
   id="path4354"
   d="M 364.957,382.9 C 364.828,381.643 364.635,380.457 364.377,379.271 C 362.894,371.453 360.249,364.612 356.766,358.749 L 402.498,358.749 C 403.724,365.729 402.498,373.547 400.048,382.9 L 364.957,382.9 z"
   style="fill:#49392f" />
					<path
   id="path4356"
   d="M 154.549,358.749 C 154.613,361.681 154.871,364.682 155.258,367.544 C 156.096,372.988 157.064,377.456 157.58,380.946 C 158.032,381.085 158.483,381.295 158.935,381.434 C 158.741,376.548 158.87,372.569 159.516,369.288 C 160.161,366.356 160.999,363.425 162.096,360.702 C 162.354,360.004 162.612,359.376 162.87,358.748 L 154.549,358.748 L 154.549,358.749 z"
   style="fill:#49392f" />
					<path
   id="path4358"
   d="M 46.636,395.604 C 46.959,391.416 47.475,387.228 48.184,382.9 L 96.496,382.9 C 96.432,387.228 96.689,391.486 97.141,395.674 L 46.636,395.604 z"
   style="fill:#49392f" />
					<path
   id="path4360"
   d="M 148.421,395.604 C 148.55,394.557 148.873,393.58 149.453,392.672 C 150.033,391.555 150.872,390.577 151.904,389.81 C 153.516,388.484 155.322,387.925 157.322,388.344 C 157.645,388.414 157.967,388.414 158.225,388.553 C 158.677,388.693 158.935,388.832 159.322,388.972 C 160.999,389.67 162.418,390.856 163.579,392.532 C 164.224,393.509 164.676,394.556 164.869,395.603 L 148.421,395.603 L 148.421,395.604 z"
   style="fill:#49392f" />
					<path
   id="path4362"
   d="M 203.313,395.604 C 202.668,392.812 202.023,389.95 201.442,386.949 C 201.184,385.553 200.861,384.226 200.603,382.9 L 266.783,382.83 C 266.783,383.738 266.783,384.644 266.847,385.622 C 266.976,388.693 267.234,392.044 267.621,395.603 L 203.313,395.603 L 203.313,395.604 z"
   style="fill:#49392f" />
					<path
   id="path4364"
   d="M 286.457,395.604 C 286.199,395.325 286.006,395.046 285.877,394.836 C 284.974,393.579 284.652,392.113 284.974,390.857 C 285.361,389.461 286.071,388.414 287.232,387.715 C 288.2,387.018 289.361,386.879 290.522,387.158 C 291.553,387.506 292.522,388.205 293.295,389.112 C 294.133,390.09 295.36,391.904 297.358,394.417 C 297.681,394.836 298.068,395.185 298.39,395.604 L 286.457,395.604 L 286.457,395.604 z"
   style="fill:#49392f" />
					<path
   id="path4366"
   d="M 314.323,395.604 C 314.001,393.719 313.614,391.556 313.226,389.112 C 312.904,387.088 312.775,384.994 312.709,382.9 L 318.579,382.9 C 318.386,383.319 318.256,383.808 318.063,384.226 C 317.289,386.25 316.709,388.275 316.256,390.438 C 315.934,391.905 315.805,393.58 315.805,395.604 L 314.323,395.604 z"
   style="fill:#49392f" />
					<path
   id="path4368"
   d="M 332.835,395.604 C 334.061,393.021 335.158,391.067 335.996,389.95 C 336.964,388.694 337.995,387.856 338.963,387.715 C 340.06,387.506 341.027,387.925 342.059,389.042 C 343.027,390.02 343.866,391.416 344.252,392.951 C 344.511,393.858 344.574,394.766 344.445,395.603 L 332.835,395.603 L 332.835,395.604 z"
   style="fill:#49392f" />
					<path
   id="path4370"
   d="M 365.603,395.604 C 365.732,391.137 365.474,386.879 364.957,382.9 L 400.048,382.9 C 399.661,384.574 399.209,386.251 398.693,387.996 C 398.048,390.369 397.339,392.952 396.629,395.535 L 365.603,395.604 z"
   style="fill:#49392f" />
					<path
   id="path4372"
   d="M 127.587,382.9 C 129.845,383.738 132.231,384.087 134.553,384.644 C 139.004,385.692 142.745,387.019 145.389,388.554 C 145.776,388.205 146.098,387.715 146.421,387.366 C 144.292,385.762 142.486,384.226 140.938,382.9 L 127.587,382.9 L 127.587,382.9 z"
   style="fill:#49392f" />
					<path
   id="path4374"
   d="M 179.77,382.9 C 179.189,384.157 178.544,385.343 177.834,386.39 C 175.512,389.741 172.738,391.765 170.029,392.952 C 170.223,393.37 170.481,393.859 170.738,394.278 C 175.06,393.022 178.737,391.835 181.833,390.508 C 184.8,389.392 187.509,387.996 190.089,386.32 C 191.96,385.064 193.507,383.947 194.797,382.9 L 179.77,382.9 L 179.77,382.9 z"
   style="fill:#49392f" />
					<path
   id="path4376"
   d="M 46.378,400.49 C 46.442,398.885 46.507,397.209 46.636,395.604 L 97.142,395.674 C 97.335,397.279 97.594,398.885 97.851,400.49 L 46.378,400.49 L 46.378,400.49 z"
   style="fill:#49392f" />
					<path
   id="path4378"
   d="M 149.711,400.49 C 149.647,400.35 149.582,400.281 149.518,400.141 C 149.002,399.163 148.55,398.187 148.486,397.14 C 148.422,396.582 148.422,396.092 148.422,395.604 L 164.87,395.604 C 165.063,396.371 165.063,397.209 164.999,398.047 C 165.063,398.884 164.87,399.722 164.547,400.56 L 149.711,400.49 z"
   style="fill:#49392f" />
					<path
   id="path4380"
   d="M 204.41,400.49 C 204.023,398.953 203.636,397.279 203.313,395.604 L 267.623,395.604 C 267.752,397.209 267.945,398.815 268.14,400.49 L 204.41,400.49 z"
   style="fill:#49392f" />
					<path
   id="path4382"
   d="M 294.844,400.49 C 294.004,400.211 293.166,399.932 292.328,399.583 C 289.555,398.326 287.555,396.861 286.457,395.604 L 298.391,395.604 C 299.165,396.441 300.003,397.279 300.907,398.117 C 301.681,398.885 302.519,399.653 303.487,400.49 L 294.844,400.49 z"
   style="fill:#49392f" />
					<path
   id="path4384"
   d="M 330.448,400.49 C 330.965,399.513 331.416,398.396 331.931,397.349 C 332.253,396.721 332.513,396.161 332.834,395.604 L 344.444,395.604 C 344.38,396.162 344.251,396.651 343.993,397.14 C 343.542,397.978 342.51,399.163 340.834,400.491 L 330.448,400.491 L 330.448,400.49 z"
   style="fill:#49392f" />
					<path
   id="path4386"
   d="M 365.409,400.49 C 365.473,398.815 365.602,397.209 365.602,395.604 L 396.627,395.534 C 396.176,397.139 395.725,398.815 395.273,400.49 L 365.409,400.49 z"
   style="fill:#49392f" />
					<path
   id="path4388"
   d="M 314.323,395.604 C 314.515,396.721 314.71,397.768 314.839,398.745 C 315.226,398.745 315.485,398.885 315.871,399.023 C 315.807,397.768 315.807,396.651 315.807,395.604 L 314.323,395.604 L 314.323,395.604 z"
   style="fill:#49392f" />
					<path
   id="path4390"
   d="M 46.507,409.705 C 46.314,406.633 46.249,403.562 46.378,400.491 L 97.851,400.491 C 98.432,403.632 99.077,406.703 99.915,409.705 L 46.507,409.705 z"
   style="fill:#49392f" />
					<path
   id="path4392"
   d="M 112.88,409.705 C 112.816,409.635 112.816,409.565 112.751,409.495 C 111.912,407.82 111.977,406.353 112.944,405.726 C 114.17,405.027 117.266,404.609 122.426,404.259 C 125.328,404.12 128.231,403.91 131.327,403.562 C 134.552,403.073 138.422,402.234 142.873,400.839 C 143.066,401.258 143.389,401.746 143.582,402.234 C 140.809,403.562 137.906,405.585 135.39,408.308 C 135.003,408.727 134.616,409.216 134.294,409.704 L 112.88,409.704 L 112.88,409.705 z"
   style="fill:#49392f" />
					<path
   id="path4394"
   d="M 171.513,409.705 C 170.352,408.867 169.062,407.959 167.707,406.982 C 168.03,406.632 168.288,406.285 168.61,405.865 C 171.255,407.47 174.802,408.797 179.06,409.705 L 171.513,409.705 L 171.513,409.705 z"
   style="fill:#49392f" />
					<path
   id="path4396"
   d="M 206.474,409.774 C 205.829,406.842 205.119,403.771 204.41,400.49 L 268.139,400.49 C 268.46,403.421 268.911,406.423 269.364,409.634 L 206.474,409.774 z"
   style="fill:#49392f" />
					<path
   id="path4398"
   d="M 308.324,409.705 C 308.324,408.797 308.517,407.89 309.033,407.053 C 309.485,406.285 310.065,405.517 310.84,404.957 C 311.936,404.121 313.227,403.632 314.71,403.911 C 314.903,403.98 315.161,404.051 315.356,404.19 C 315.614,404.19 315.872,404.259 316.065,404.4 C 317.291,404.886 318.323,405.726 319.162,406.912 C 319.742,407.82 320.064,408.797 320.129,409.705 L 308.324,409.705 z"
   style="fill:#49392f" />
					<path
   id="path4400"
   d="M 364.377,409.705 C 364.828,406.563 365.216,403.492 365.409,400.491 L 395.273,400.491 C 394.435,403.422 393.596,406.494 392.757,409.705 L 364.377,409.705 z"
   style="fill:#49392f" />
					<path
   id="path4402"
   d="M 149.711,400.49 C 150.679,402.164 152.033,403.421 153.774,404.12 C 155.58,404.816 157.322,404.956 158.935,404.469 C 160.806,404.329 162.289,403.562 163.45,402.234 C 163.902,401.746 164.288,401.118 164.546,400.56 L 149.711,400.49 z"
   style="fill:#49392f" />
					<path
   id="path4404"
   d="M 294.844,400.49 C 296.004,400.839 297.23,401.049 298.455,401.327 C 301.615,402.094 304.261,402.932 306.26,404.189 C 306.453,403.84 306.711,403.561 306.905,403.211 C 305.615,402.233 304.519,401.326 303.487,400.489 L 294.844,400.489 L 294.844,400.49 z"
   style="fill:#49392f" />
					<path
   id="path4406"
   d="M 330.448,400.49 C 330.061,401.258 329.739,401.955 329.287,402.584 C 327.611,404.956 325.61,406.353 323.676,407.19 C 323.869,407.54 324.063,407.819 324.257,408.237 C 327.288,407.26 329.998,406.352 332.125,405.515 C 334.189,404.678 336.189,403.7 338.061,402.514 C 339.157,401.815 340.06,401.118 340.835,400.49 L 330.448,400.49 L 330.448,400.49 z"
   style="fill:#49392f" />
					<path
   id="path4408"
   d="M 47.604,419.267 C 47.023,416.126 46.701,412.915 46.507,409.705 L 99.915,409.705 C 100.818,412.985 101.915,416.196 103.205,419.267 L 47.604,419.267 z"
   style="fill:#49392f" />
					<path
   id="path4410"
   d="M 156.613,419.267 C 156.226,416.754 155.775,413.962 155.194,410.891 C 155.645,410.96 156.161,411.031 156.677,411.1 C 157.258,413.333 158.29,416.126 159.644,419.267 L 156.613,419.267 z"
   style="fill:#49392f" />
					<path
   id="path4412"
   d="M 184.027,419.267 C 182.027,417.662 179.899,416.056 177.835,414.521 C 175.964,413.054 173.9,411.519 171.514,409.705 L 179.061,409.705 C 179.512,409.774 179.964,409.914 180.415,409.984 C 183.576,410.612 186.801,410.961 189.961,411.589 C 195.573,412.845 199.378,414.311 201.249,415.497 C 202.733,416.475 203.7,417.801 204.216,419.267 L 184.027,419.267 L 184.027,419.267 z"
   style="fill:#49392f" />
					<path
   id="path4414"
   d="M 208.474,419.267 C 207.958,416.335 207.248,413.195 206.474,409.774 L 269.364,409.634 C 269.815,412.705 270.332,415.916 270.847,419.267 L 208.474,419.267 z"
   style="fill:#49392f" />
					<path
   id="path4416"
   d="M 283.039,419.267 C 282.975,419.197 282.975,419.058 282.91,418.988 C 282.33,417.801 282.393,416.755 283.103,416.265 C 283.941,415.847 286.134,415.497 289.875,415.288 C 291.875,415.218 294.003,415.009 296.196,414.729 C 298.518,414.45 301.227,413.891 304.388,412.774 C 304.517,413.194 304.71,413.473 304.904,413.891 C 302.905,414.799 300.841,416.195 299.098,418.079 C 298.776,418.428 298.453,418.847 298.196,419.266 L 283.039,419.266 L 283.039,419.267 z"
   style="fill:#49392f" />
					<path
   id="path4418"
   d="M 324.901,419.267 C 323.998,418.639 323.094,418.011 322.064,417.244 C 322.322,416.894 322.45,416.685 322.708,416.475 C 324.709,417.591 327.354,418.57 330.514,419.267 L 324.901,419.267 L 324.901,419.267 z"
   style="fill:#49392f" />
					<path
   id="path4420"
   d="M 362.636,419.267 C 362.829,418.499 363.023,417.662 363.152,416.894 C 363.669,414.451 364.055,412.078 364.378,409.705 L 392.759,409.705 C 391.921,412.775 391.018,415.986 390.115,419.267 L 362.636,419.267 z"
   style="fill:#49392f" />
					<path
   id="path4422"
   d="M 112.88,409.705 C 113.783,411.449 115.396,413.265 117.395,415.01 C 119.394,416.755 121.201,418.012 123.136,418.64 C 124.942,419.268 126.426,419.128 127.651,418.5 C 128.877,417.802 130.36,415.986 132.037,413.265 C 132.746,412.218 133.391,410.961 134.295,409.705 L 112.88,409.705 z"
   style="fill:#49392f" />
					<path
   id="path4424"
   d="M 308.324,409.705 C 308.388,409.844 308.388,410.054 308.388,410.193 C 308.453,410.961 308.711,411.659 309.097,412.287 C 309.743,413.683 310.904,414.591 312.194,415.149 C 313.42,415.638 314.71,415.777 315.871,415.428 C 317.161,415.288 318.257,414.8 319.032,413.892 C 319.805,412.985 320.192,411.869 320.128,410.822 C 320.192,410.472 320.192,410.123 320.128,409.705 L 308.324,409.705 z"
   style="fill:#49392f" />
					<path
   id="path4426"
   d="M 49.151,426.457 C 48.506,424.084 47.99,421.711 47.603,419.268 L 103.205,419.268 C 103.269,419.547 103.398,419.827 103.527,420.106 C 104.43,422.27 105.462,424.434 106.623,426.458 L 49.151,426.458 L 49.151,426.457 z"
   style="fill:#49392f" />
					<path
   id="path4428"
   d="M 157.516,426.457 C 157.452,425.689 157.323,424.922 157.258,424.154 C 157.129,422.618 156.871,421.012 156.613,419.267 L 159.645,419.267 C 160.354,420.943 161.193,422.687 162.031,424.572 C 162.354,425.201 162.612,425.829 162.934,426.457 L 157.516,426.457 z"
   style="fill:#49392f" />
					<path
   id="path4430"
   d="M 192.928,426.457 C 191.122,425.061 188.606,422.967 185.252,420.245 C 184.865,419.896 184.414,419.547 184.026,419.267 L 204.215,419.267 C 204.344,419.617 204.409,419.965 204.473,420.314 C 204.795,422.269 204.409,424.223 203.376,425.968 C 203.312,426.108 203.182,426.318 203.118,426.456 L 192.928,426.456 L 192.928,426.457 z"
   style="fill:#49392f" />
					<path
   id="path4432"
   d="M 209.635,426.457 C 209.571,425.898 209.441,425.341 209.377,424.782 C 209.184,423.107 208.861,421.222 208.474,419.267 L 270.848,419.267 C 271.236,421.64 271.622,424.013 272.074,426.456 L 209.635,426.456 L 209.635,426.457 z"
   style="fill:#49392f" />
					<path
   id="path4434"
   d="M 314.26,426.457 C 313.936,424.503 313.549,422.339 313.098,420.035 C 313.485,420.035 313.872,420.105 314.195,420.105 C 314.711,421.919 315.485,424.013 316.582,426.457 L 314.26,426.457 L 314.26,426.457 z"
   style="fill:#49392f" />
					<path
   id="path4436"
   d="M 334.254,426.457 C 332.643,425.131 330.965,423.875 329.287,422.549 C 327.998,421.571 326.578,420.525 324.901,419.268 L 330.513,419.268 C 330.705,419.338 330.964,419.338 331.158,419.408 C 333.415,419.827 335.674,420.036 337.931,420.525 C 341.865,421.432 344.639,422.409 345.929,423.317 C 347.154,424.155 347.928,425.272 348.187,426.458 L 334.254,426.458 L 334.254,426.457 z"
   style="fill:#49392f" />
					<path
   id="path4438"
   d="M 360.894,426.457 C 361.54,424.014 362.121,421.641 362.636,419.268 L 390.115,419.268 C 389.469,421.572 388.761,424.014 388.115,426.457 L 360.894,426.457 z"
   style="fill:#49392f" />
					<path
   id="path4440"
   d="M 283.039,419.267 C 283.748,420.455 284.91,421.64 286.199,422.897 C 287.683,424.223 288.972,424.992 290.327,425.549 C 291.618,425.968 292.715,425.898 293.553,425.409 C 294.392,424.921 295.49,423.595 296.714,421.71 C 297.165,420.942 297.617,420.105 298.197,419.267 L 283.039,419.267 z"
   style="fill:#49392f" />
					<path
   id="path4442"
   d="M 263.172,662.599 C 263.559,661.622 263.945,660.644 264.333,659.667 C 256.141,660.364 247.885,660.854 240.273,654.361 C 247.175,639.354 254.077,624.416 260.592,609.409 C 267.558,615.063 274.91,614.365 282.264,613.736 C 284.781,605.919 286.973,597.961 288.779,590.073 C 277.104,600.335 263.172,608.639 246.982,615.063 C 217.181,626.79 185.51,627.836 152.484,618.972 C 120.233,610.036 93.528,592.585 72.952,567.178 C 52.375,541.421 40.636,513.918 38.959,485.23 L 43.99,486.556 C 48.57,500.097 53.536,510.707 58.439,517.618 C 65.986,527.808 76.564,537.372 89.917,545.958 C 106.945,556.079 131.844,565.921 164.482,575.135 C 195.057,583.232 219.89,587.839 237.693,587.211 C 255.689,587.071 271.106,584.069 283.49,578.556 C 286.457,577.23 289.296,575.694 292.199,573.739 C 293.166,568.435 294.004,563.13 294.714,557.823 C 290.327,556.847 286.199,553.496 282.524,547.982 C 280.717,549.448 278.46,550.635 275.879,551.543 C 263.431,555.871 244.209,555.522 220.858,550.077 C 190.155,542.887 153.647,528.717 118.041,506.031 C 85.016,484.881 61.02,459.472 51.345,433.366 C 50.506,431.063 49.797,428.76 49.152,426.456 L 106.624,426.456 C 112.365,436.997 121.073,446.28 131.716,454.168 C 144.939,464.08 159.194,471.409 171.514,473.573 C 179.835,475.109 188.478,474.48 196.348,472.037 C 203.572,469.804 207.056,462.823 209.248,454.587 C 211.119,447.467 211.183,437.903 209.635,426.456 L 272.073,426.456 C 272.461,428.829 272.912,431.203 273.363,433.645 C 276.975,452.981 281.942,473.154 290.972,481.251 C 298.777,488.301 309.29,489.906 319.418,486.276 C 329.157,482.786 339.026,473.642 346.573,460.728 C 353.152,449.49 357.797,437.763 360.892,426.455 L 388.113,426.455 C 385.21,436.646 381.985,447.676 378.374,459.402 C 368.505,491.51 355.41,519.432 340.123,538.767 C 339.735,555.939 338.252,573.18 335.544,590.282 C 341.8,584.767 347.799,578.136 353.798,571.156 C 351.153,584.628 347.67,597.89 343.349,611.362 C 336.898,619.25 330.061,626.859 323.223,633.28 C 319.676,642.983 315.999,652.755 312.258,662.597 L 263.172,662.597 L 263.172,662.599 z"
   style="fill:#49392f" />
					<path
   id="path4444"
   d="M 376.182,662.599 C 379.729,657.224 382.632,651.919 384.76,646.684 C 387.728,639.006 389.211,629.722 389.341,619.531 L 393.016,617.298 C 395.596,632.025 395.21,647.174 391.79,662.6 L 376.182,662.6 L 376.182,662.599 z"
   style="fill:#49392f" />
					<path
   id="path4446"
   d="M 157.516,426.457 C 157.774,429.18 157.903,431.832 157.71,434.484 C 157.323,440.767 156.42,445.025 156.226,447.398 C 156.162,449.631 156.549,451.865 157.58,453.82 C 158.677,455.705 160.354,456.752 162.225,456.681 C 164.16,456.612 165.837,455.494 167.062,453.889 C 168.288,452.284 168.868,450.12 168.868,447.746 C 168.868,445.304 168.223,440.975 166.417,435.042 C 165.514,432.181 164.289,429.318 162.934,426.456 L 157.516,426.456 L 157.516,426.457 z"
   style="fill:#49392f" />
					<path
   id="path4448"
   d="M 192.928,426.457 C 193.573,426.945 194.089,427.365 194.541,427.645 C 196.218,428.692 197.831,429.18 199.508,428.971 C 200.991,428.761 202.217,427.924 203.12,426.457 L 192.928,426.457 z"
   style="fill:#49392f" />
					<path
   id="path4450"
   d="M 314.26,426.457 C 314.387,427.504 314.516,428.481 314.646,429.389 C 314.904,431.903 315.162,434.346 314.968,436.719 C 314.71,441.325 314.065,444.257 313.936,446.002 C 313.807,447.607 314.065,449.143 314.839,450.539 C 315.613,451.865 316.839,452.563 318.128,452.563 C 319.548,452.494 320.709,451.795 321.611,450.609 C 322.45,449.421 322.902,447.957 322.902,446.281 C 322.902,444.536 322.385,441.465 321.095,437.207 C 320.385,434.694 319.224,432.251 317.999,429.738 C 317.482,428.621 316.966,427.504 316.58,426.457 L 314.26,426.457 z"
   style="fill:#49392f" />
					<path
   id="path4452"
   d="M 334.254,426.457 C 334.319,426.527 334.448,426.598 334.512,426.667 C 337.803,429.25 339.931,431.135 341.157,431.902 C 342.317,432.67 343.544,433.018 344.704,432.879 C 345.866,432.67 346.768,431.902 347.478,430.785 C 348.188,429.529 348.445,428.133 348.252,426.736 C 348.252,426.667 348.252,426.527 348.188,426.457 L 334.254,426.457 z"
   style="fill:#49392f" />
					<path
   id="path4454"
   d="M 263.172,662.599 C 257.174,677.676 251.304,692.824 245.627,707.901 C 266.203,703.295 286.457,694.01 306.131,678.305 C 308.194,673.069 310.26,667.834 312.259,662.599 L 263.172,662.599 z"
   style="fill:#49392f" />
					<path
   id="path4456"
   d="M 376.182,662.599 C 372.246,668.532 367.473,674.465 361.862,680.469 C 351.543,691.777 334.383,704.619 311.678,718.72 C 287.426,733.658 267.43,743.361 251.755,747.758 C 239.178,750.899 227.889,752.016 218.02,750.55 C 211.119,749.503 202.475,746.362 192.671,740.917 L 188.994,743.151 C 205.378,759.275 226.987,768.698 252.852,771.072 C 278.719,773.514 303.873,767.231 327.934,752.295 C 352.379,737.218 370.699,716.695 382.051,691.008 C 386.438,681.446 389.662,671.952 391.79,662.599 L 376.182,662.599 z"
   style="fill:#49392f" />
				</g>
				<g
   id="g4458">
					<path
   id="path4460"
   d="M 320.128,410.822 C 320.192,411.869 319.806,412.985 319.032,413.892 C 318.257,414.8 317.161,415.288 315.871,415.428 C 314.71,415.777 313.42,415.638 312.194,415.149 C 310.904,414.59 309.743,413.683 309.097,412.287 C 308.711,411.659 308.453,410.961 308.388,410.193 C 308.259,409.076 308.453,408.029 309.033,407.052 C 309.485,406.284 310.065,405.516 310.84,404.956 C 311.936,404.12 313.227,403.631 314.71,403.91 C 314.903,403.979 315.161,404.05 315.356,404.189 C 315.614,404.189 315.872,404.258 316.065,404.399 C 317.291,404.885 318.323,405.725 319.162,406.911 C 319.935,408.168 320.322,409.565 320.128,410.822 z"
   style="fill:none;stroke:#3a4839;stroke-width:20" />
					<path
   id="path4462"
   d="M 315.871,399.023 C 315.484,398.884 315.225,398.745 314.839,398.745 C 314.516,396.162 313.807,393.021 313.227,389.112 C 312.84,386.669 312.71,384.156 312.71,381.572 C 312.775,377.176 313.032,373.965 313.42,372.08 C 313.807,370.405 314.452,368.799 315.356,367.752 C 316.388,366.775 317.613,366.426 318.71,367.053 C 319.871,367.752 320.71,369.358 321.097,371.173 C 321.548,372.917 321.484,374.663 321.097,376.198 C 320.71,377.804 319.549,380.456 318.066,384.225 C 317.292,386.249 316.712,388.274 316.259,390.437 C 315.807,392.672 315.677,395.464 315.871,399.023 z"
   style="fill:none;stroke:#3a4839;stroke-width:20" />
					<path
   id="path4464"
   d="M 322.064,417.244 C 322.322,416.894 322.45,416.685 322.708,416.475 C 324.838,417.662 327.675,418.708 331.158,419.407 C 333.415,419.826 335.674,420.035 337.931,420.524 C 341.865,421.431 344.639,422.408 345.929,423.316 C 347.218,424.223 348.057,425.41 348.251,426.736 C 348.443,428.132 348.187,429.529 347.477,430.785 C 346.767,431.902 345.865,432.67 344.703,432.879 C 343.543,433.019 342.316,432.67 341.156,431.902 C 339.93,431.134 337.802,429.25 334.511,426.667 C 332.834,425.271 331.029,423.944 329.286,422.549 C 327.288,421.012 324.967,419.337 322.064,417.244 z"
   style="fill:none;stroke:#3a4839;stroke-width:20" />
					<path
   id="path4466"
   d="M 313.098,420.035 C 313.485,420.035 313.872,420.105 314.195,420.105 C 314.904,422.687 316.258,425.898 318.001,429.738 C 319.226,432.251 320.387,434.694 321.097,437.207 C 322.387,441.465 322.904,444.536 322.904,446.281 C 322.904,447.957 322.452,449.422 321.613,450.609 C 320.711,451.796 319.55,452.494 318.13,452.563 C 316.841,452.563 315.615,451.865 314.841,450.539 C 314.067,449.143 313.809,447.607 313.938,446.002 C 314.067,444.257 314.712,441.325 314.97,436.719 C 315.163,434.346 314.906,431.903 314.648,429.389 C 314.323,426.736 313.807,423.595 313.098,420.035 z"
   style="fill:none;stroke:#3a4839;stroke-width:20" />
					<path
   id="path4468"
   d="M 304.39,412.775 C 304.519,413.195 304.712,413.474 304.906,413.892 C 302.907,414.8 300.843,416.196 299.1,418.08 C 298.069,419.267 297.359,420.593 296.714,421.71 C 295.489,423.595 294.392,424.921 293.553,425.409 C 292.715,425.897 291.618,425.968 290.327,425.549 C 288.973,424.991 287.683,424.223 286.199,422.897 C 284.781,421.571 283.554,420.245 282.91,418.988 C 282.33,417.801 282.393,416.755 283.103,416.265 C 283.941,415.847 286.134,415.497 289.875,415.288 C 291.875,415.218 294.003,415.009 296.196,414.729 C 298.52,414.451 301.229,413.892 304.39,412.775 z"
   style="fill:none;stroke:#3a4839;stroke-width:20" />
					<path
   id="path4470"
   d="M 306.904,403.212 C 306.711,403.562 306.453,403.841 306.259,404.19 C 304.26,402.933 301.614,402.095 298.454,401.328 C 296.39,400.84 294.261,400.491 292.327,399.583 C 288.907,398.047 286.714,396.162 285.876,394.836 C 284.973,393.579 284.651,392.113 284.973,390.857 C 285.36,389.461 286.07,388.414 287.231,387.715 C 288.199,387.018 289.36,386.879 290.521,387.158 C 291.552,387.506 292.521,388.205 293.294,389.112 C 294.132,390.09 295.359,391.904 297.357,394.417 C 298.389,395.673 299.615,396.86 300.905,398.117 C 302.39,399.653 304.324,401.258 306.904,403.212 z"
   style="fill:none;stroke:#3a4839;stroke-width:20" />
					<path
   id="path4472"
   d="M 324.257,408.238 C 324.063,407.82 323.869,407.541 323.676,407.191 C 325.611,406.353 327.612,404.957 329.287,402.585 C 330.319,401.049 331.029,399.164 331.932,397.35 C 333.61,393.93 334.964,391.347 335.996,389.951 C 336.964,388.695 337.995,387.857 338.963,387.716 C 340.06,387.507 341.027,387.926 342.059,389.043 C 343.027,390.021 343.866,391.417 344.252,392.952 C 344.64,394.488 344.64,395.953 343.994,397.14 C 343.349,398.396 341.414,400.281 338.06,402.515 C 336.189,403.701 334.189,404.68 332.124,405.516 C 329.998,406.353 327.288,407.261 324.257,408.238 z"
   style="fill:none;stroke:#3a4839;stroke-width:20" />
					<path
   id="path4474"
   d="M 164.999,398.047 C 165.063,399.513 164.547,401.048 163.451,402.234 C 162.29,403.562 160.806,404.329 158.936,404.469 C 157.323,404.956 155.582,404.817 153.775,404.12 C 151.905,403.351 150.485,402.024 149.518,400.141 C 149.002,399.163 148.55,398.187 148.486,397.14 C 148.293,395.535 148.55,394.069 149.454,392.673 C 150.034,391.556 150.873,390.578 151.905,389.811 C 153.517,388.485 155.323,387.926 157.323,388.345 C 157.646,388.415 157.968,388.415 158.226,388.554 C 158.678,388.694 158.936,388.833 159.323,388.973 C 161,389.671 162.419,390.857 163.58,392.533 C 164.741,394.278 165.192,396.162 164.999,398.047 z"
   style="fill:none;stroke:#3a4839;stroke-width:20" />
					<path
   id="path4476"
   d="M 158.936,381.434 C 158.484,381.294 158.033,381.085 157.581,380.946 C 157.065,377.456 156.098,372.988 155.259,367.544 C 154.807,364.054 154.485,360.494 154.55,356.934 C 154.55,350.722 155.001,346.254 155.582,343.671 C 156.098,341.228 156.936,338.994 158.356,337.528 C 159.71,336.132 161.388,335.643 163,336.551 C 164.613,337.528 165.773,339.692 166.418,342.275 C 166.999,344.788 166.934,347.231 166.354,349.325 C 165.773,351.698 164.161,355.328 162.097,360.702 C 161,363.425 160.162,366.356 159.517,369.288 C 158.871,372.569 158.742,376.548 158.936,381.434 z"
   style="fill:none;stroke:#3a4839;stroke-width:20" />
					<path
   id="path4478"
   d="M 167.708,406.982 C 168.031,406.632 168.289,406.285 168.611,405.865 C 171.513,407.611 175.577,409.076 180.415,409.984 C 183.576,410.612 186.801,410.961 189.961,411.589 C 195.573,412.845 199.378,414.311 201.249,415.497 C 203.055,416.685 204.152,418.499 204.475,420.313 C 204.797,422.268 204.411,424.222 203.378,425.967 C 202.475,427.712 201.12,428.759 199.508,428.969 C 197.831,429.178 196.218,428.69 194.541,427.643 C 192.799,426.455 189.832,423.943 185.252,420.244 C 182.865,418.29 180.35,416.405 177.834,414.52 C 175.061,412.357 171.836,409.914 167.708,406.982 z"
   style="fill:none;stroke:#3a4839;stroke-width:20" />
					<path
   id="path4480"
   d="M 155.194,410.891 C 155.645,410.96 156.161,411.031 156.677,411.1 C 157.58,414.59 159.58,419.267 162.031,424.572 C 163.708,428.133 165.321,431.552 166.417,435.043 C 168.223,440.977 168.868,445.305 168.868,447.747 C 168.868,450.121 168.287,452.284 167.062,453.89 C 165.837,455.495 164.16,456.613 162.225,456.682 C 160.354,456.752 158.677,455.705 157.58,453.821 C 156.548,451.866 156.161,449.633 156.226,447.399 C 156.42,445.026 157.323,440.768 157.71,434.485 C 157.968,431.065 157.646,427.645 157.258,424.155 C 156.871,420.384 156.162,416.056 155.194,410.891 z"
   style="fill:none;stroke:#3a4839;stroke-width:20" />
					<path
   id="path4482"
   d="M 142.874,400.839 C 143.067,401.258 143.39,401.746 143.583,402.234 C 140.81,403.562 137.907,405.585 135.391,408.308 C 133.972,409.843 133.005,411.798 132.037,413.264 C 130.36,415.986 128.876,417.801 127.651,418.499 C 126.425,419.127 124.942,419.267 123.136,418.639 C 121.201,418.011 119.395,416.754 117.395,415.009 C 115.331,413.195 113.654,411.31 112.751,409.494 C 111.912,407.819 111.977,406.352 112.944,405.725 C 114.17,405.026 117.266,404.608 122.426,404.258 C 125.328,404.119 128.231,403.909 131.327,403.561 C 134.553,403.073 138.423,402.234 142.874,400.839 z"
   style="fill:none;stroke:#3a4839;stroke-width:20" />
					<path
   id="path4484"
   d="M 146.422,387.366 C 146.099,387.715 145.777,388.205 145.39,388.554 C 142.745,387.018 139.004,385.692 134.554,384.644 C 131.651,383.947 128.62,383.528 125.91,382.202 C 121.073,380.038 118.041,377.386 116.751,375.501 C 115.59,373.756 115.138,371.732 115.59,369.847 C 116.106,368.032 117.203,366.566 118.686,365.519 C 120.169,364.542 121.782,364.331 123.33,364.821 C 124.878,365.239 126.297,366.217 127.33,367.473 C 128.491,368.869 130.168,371.452 132.942,374.872 C 134.425,376.757 136.167,378.502 137.973,380.247 C 140.101,382.272 142.81,384.574 146.422,387.366 z"
   style="fill:none;stroke:#3a4839;stroke-width:20" />
					<path
   id="path4486"
   d="M 170.739,394.278 C 170.481,393.859 170.223,393.37 170.03,392.952 C 172.739,391.765 175.513,389.741 177.835,386.39 C 179.254,384.296 180.351,381.642 181.576,379.061 C 183.898,374.245 185.833,370.685 187.317,368.73 C 188.607,366.984 190.026,365.729 191.51,365.519 C 192.993,365.17 194.348,365.798 195.703,367.333 C 197.122,368.8 198.283,370.685 198.864,372.917 C 199.509,375.082 199.445,377.106 198.541,378.78 C 197.574,380.526 194.864,383.178 190.091,386.32 C 187.511,387.995 184.801,389.391 181.835,390.508 C 178.738,391.835 175.061,393.021 170.739,394.278 z"
   style="fill:none;stroke:#3a4839;stroke-width:20" />
					<path
   id="path4488"
   d="M 177.254,221.726 C 182.736,214.746 188.026,206.719 192.992,198.133 C 196.927,191.153 200.862,183.056 204.538,174.121 C 208.215,165.465 211.763,155.763 214.149,145.502 C 216.277,136.428 215.826,128.609 212.02,122.956 C 207.892,116.813 202.28,112.137 197.249,107.6 C 186.477,97.897 176.608,88.474 170.48,79.051 C 166.416,72.699 162.74,64.951 158.289,57.482 C 158.353,56.365 158.353,55.109 158.353,53.853 C 169.834,69.419 183.509,89.453 206.665,105.716 C 218.856,114.232 231.822,118.42 241.239,124.005 C 249.496,129.03 252.27,136.29 249.817,144.666 C 247.302,153.601 241.755,162.536 234.853,171.61 C 227.757,181.103 218.663,190.735 208.987,201.345 C 202.279,208.605 195.635,215.515 188.991,221.936 C 192.861,222.147 196.667,222.565 200.344,223.124 C 213.503,225.079 223.113,231.151 228.919,243.228 C 244.207,223.124 260.139,202.184 276.909,181.592 C 294.002,160.442 312.321,139.85 330.059,119.118 C 324.06,116.326 316.707,114.511 309.095,112.975 C 330.059,108.787 348.442,108.019 366.568,107.112 C 359.021,122.818 347.669,143.27 337.089,165.607 C 326.833,187.386 317.352,211.188 308.321,232.059 C 313.546,216.772 319.158,201.554 324.964,185.919 C 307.289,205.813 290.519,225.218 275.232,245.18 C 260.59,264.447 247.367,284.061 235.175,302.908 C 235.304,307.166 235.433,311.564 235.497,316.101 C 237.239,310.307 239.626,304.653 242.528,298.86 C 247.688,288.529 254.267,278.896 260.59,270.52 C 267.427,261.655 274.908,254.116 284.133,254.116 C 295.872,254.256 309.74,264.098 326.833,277.919 C 343.798,291.81 360.181,306.048 374.824,320.08 C 387.724,332.364 397.721,343.743 401.528,355.051 C 404.495,364.055 402.495,374.456 398.689,387.998 C 393.722,405.867 387.272,430.578 378.372,459.406 C 368.503,491.514 355.408,519.436 340.121,538.771 C 339.733,555.943 338.25,573.184 335.542,590.286 C 341.798,584.771 347.797,578.14 353.796,571.16 C 351.151,584.632 347.668,597.894 343.347,611.366 C 336.896,619.254 330.059,626.863 323.221,633.284 C 317.804,648.152 312.063,663.3 306.128,678.307 C 286.454,694.012 266.2,703.296 245.624,707.903 C 251.687,691.848 257.945,675.724 264.33,659.67 C 256.138,660.367 247.882,660.857 240.27,654.364 C 247.172,639.357 254.074,624.419 260.589,609.412 C 267.555,615.066 274.907,614.368 282.261,613.739 C 284.778,605.922 286.97,597.964 288.776,590.076 C 277.101,600.338 263.169,608.642 246.979,615.066 C 217.178,626.793 185.507,627.839 152.481,618.975 C 120.23,610.039 93.525,592.588 72.949,567.181 C 52.372,541.424 40.633,513.921 38.956,485.233 L 43.987,486.559 C 48.567,500.1 53.533,510.71 58.436,517.621 C 65.983,527.811 76.561,537.375 89.914,545.961 C 106.942,556.082 131.841,565.924 164.479,575.138 C 195.054,583.235 219.887,587.842 237.69,587.214 C 255.686,587.074 271.103,584.072 283.487,578.559 C 286.454,577.233 289.293,575.697 292.196,573.742 C 293.163,568.438 294.001,563.133 294.711,557.826 C 290.324,556.85 286.196,553.499 282.521,547.985 C 280.714,549.451 278.457,550.638 275.876,551.546 C 263.428,555.874 244.206,555.525 220.855,550.08 C 190.152,542.89 153.644,528.72 118.038,506.034 C 85.013,484.884 61.017,459.475 51.342,433.369 C 42.182,408.45 46.633,381.505 55.986,352.468 C 64.307,326.641 69.403,302.839 75.853,281.2 C 81.916,261.306 93.527,247.485 107.718,238.97 C 122.941,229.825 139.969,225.149 158.868,223.124 C 165.127,222.424 171.255,221.934 177.254,221.726 z"
   style="fill:none;stroke:#3a4839;stroke-width:20" />
					<path
   id="path4490"
   d="M 103.527,420.105 C 109.01,433.228 118.943,444.746 131.715,454.168 C 144.938,464.08 159.193,471.409 171.513,473.573 C 179.834,475.109 188.477,474.48 196.347,472.037 C 203.571,469.804 207.055,462.823 209.247,454.587 C 211.182,447.118 211.182,436.927 209.376,424.781 C 208.215,415.497 204.539,402.234 201.442,386.948 C 197.701,369.009 196.862,352.465 193.057,338.924 C 189.251,325.452 182.93,315.401 176.35,309.398 C 168.997,302.627 160.676,299.137 151.129,298.788 C 141.454,298.439 132.746,300.392 125.522,305.768 C 118.04,311.003 113.524,319.868 109.783,329.85 C 105.268,342.065 99.269,354.979 97.398,369.498 C 95.078,387.366 97.142,405.027 103.527,420.105 z"
   style="fill:none;stroke:#3a4839;stroke-width:20" />
					<path
   id="path4492"
   d="M 303.615,324.475 C 295.36,325.522 288.65,330.897 282.91,338.436 C 277.104,346.114 273.363,352.605 270.202,360.214 C 268.074,365.449 266.268,373.267 266.848,385.622 C 267.429,398.047 269.751,413.892 273.363,433.645 C 276.975,452.981 281.942,473.154 290.972,481.251 C 298.777,488.301 309.29,489.906 319.418,486.276 C 329.157,482.786 339.026,473.642 346.573,460.728 C 355.022,446.279 360.312,430.992 363.15,416.892 C 365.924,402.931 366.439,390.018 364.376,379.268 C 362.249,367.89 357.539,358.536 351.476,351.207 C 344.122,342.482 335.931,335.781 328.062,331.104 C 319.806,326.15 311.291,323.497 303.615,324.475 z"
   style="fill:none;stroke:#3a4839;stroke-width:20" />
					<path
   id="path4494"
   d="M 188.994,743.152 L 192.671,740.918 C 202.475,746.362 211.119,749.504 218.02,750.551 C 227.889,752.017 239.178,750.9 251.755,747.759 C 267.43,743.362 287.426,733.658 311.678,718.721 C 334.383,704.62 351.542,691.778 361.862,680.47 C 372.633,668.952 380.245,657.714 384.76,646.685 C 387.728,639.007 389.211,629.723 389.341,619.532 L 393.016,617.299 C 397.209,640.962 393.662,665.741 382.051,691.01 C 370.698,716.698 352.379,737.22 327.934,752.297 C 303.873,767.234 278.719,773.517 252.852,771.074 C 226.986,768.699 205.377,759.276 188.994,743.152 z"
   style="fill:none;stroke:#3a4839;stroke-width:20" />
					<path
   id="path4496"
   d="M 44.701,154.436 C 50.506,150.388 55.28,149.271 59.085,150.527 C 62.955,151.784 65.019,155.763 64.761,161.696 C 64.503,167.978 61.794,175.238 57.214,182.427 C 52.441,189.896 46.958,196.038 40.572,200.296 C 34.637,204.275 29.219,205.392 25.801,203.088 C 22.189,200.505 20.963,195.061 21.738,188.5 C 22.576,182.288 25.221,175.866 29.22,170.142 C 33.8,163.65 39.089,158.345 44.701,154.436 z"
   style="fill:none;stroke:#3a4839;stroke-width:20" />
					<path
   id="path4498"
   d="M 34.251,247.902 C 40.056,243.784 45.216,242.109 48.635,243.435 C 52.183,244.761 53.473,248.81 52.505,254.883 C 51.667,260.956 48.442,267.936 43.733,275.475 C 39.088,282.664 33.542,288.877 27.93,292.716 C 22.06,296.764 17.287,297.602 14.126,295.438 C 10.708,293.204 9.482,288.108 10.191,282.175 C 10.9,276.242 13.609,270.029 17.802,264.236 C 22.641,257.395 28.188,252.02 34.251,247.902 z"
   style="fill:none;stroke:#3a4839;stroke-width:20" />
					<path
   id="path4500"
   d="M 162.483,160.718 C 150.744,163.999 138.552,167.14 127.071,172.515 C 114.751,178.239 102.495,187.453 89.724,196.597 C 91.208,187.662 92.627,178.518 93.981,169.584 C 106.817,160.509 119.008,151.505 131.522,146.688 C 143.004,142.291 155.066,140.685 166.741,138.661 C 165.515,145.92 164.031,153.319 162.483,160.718 z"
   style="fill:none;stroke:#3a4839;stroke-width:20" />
				</g>
			</g>
			<g
   id="g4502">
				<g
   id="g4504">
					<path
   id="path4506"
   d="M 26.576,157.019 C 27.608,154.715 28.898,152.481 30.381,150.318 C 34.832,143.687 40.057,138.242 45.539,134.263 C 51.28,130.145 56.053,128.888 59.923,130.075 C 63.793,131.262 65.922,135.241 65.793,141.104 C 65.664,145.99 64.052,151.435 61.342,157.019 L 26.576,157.019 z"
   style="fill:#00a0c6" />
					<path
   id="path4508"
   d="M 93.981,157.019 C 94.368,154.157 94.755,151.295 95.142,148.503 C 107.785,139.219 119.847,129.935 132.296,124.91 C 143.713,120.233 155.71,118.418 167.321,116.184 C 166.224,123.444 164.87,130.913 163.451,138.312 C 151.776,141.872 139.649,145.152 128.232,150.806 C 124.555,152.621 120.879,154.715 117.202,157.019 L 93.981,157.019 z"
   style="fill:#00a0c6" />
					<path
   id="path4510"
   d="M 203.249,157.019 C 204.087,154.995 204.861,152.97 205.7,150.876 C 209.247,142.221 212.666,132.448 214.859,122.117 C 216.859,113.043 216.278,105.225 212.343,99.641 C 208.15,93.568 202.474,88.961 197.378,84.563 C 186.413,75.07 176.415,65.856 170.158,56.503 C 165.966,50.221 162.16,42.542 157.58,35.213 C 157.645,34.026 157.645,32.839 157.58,31.583 C 169.32,46.87 183.317,66.624 206.731,82.469 C 219.051,90.775 232.081,94.684 241.627,100.129 C 249.947,105.015 252.786,112.205 250.528,120.651 C 248.141,129.655 242.723,138.66 235.95,147.874 C 233.759,150.875 231.435,153.947 228.855,157.018 L 203.249,157.018 L 203.249,157.019 z"
   style="fill:#00a0c6" />
					<path
   id="path4512"
   d="M 278.201,157.019 C 294.972,135.589 312.969,114.648 330.319,93.568 C 324.257,90.915 316.904,89.24 309.291,87.844 C 330.19,83.238 348.573,82.12 366.635,80.864 C 359.347,96.709 348.316,117.441 338.125,139.917 C 335.609,145.501 333.094,151.295 330.706,157.019 L 278.201,157.019 z"
   style="fill:#00a0c6" />
					<path
   id="path4514"
   d="M 17.222,249.856 C 18.19,248.04 19.222,246.296 20.448,244.551 C 25.221,237.571 30.639,232.126 36.638,227.868 C 42.379,223.749 47.475,221.933 50.958,223.191 C 54.506,224.447 55.86,228.496 55.021,234.568 C 54.441,239.106 52.505,244.271 49.667,249.855 L 17.222,249.855 L 17.222,249.856 z"
   style="fill:#00a0c6" />
					<path
   id="path4516"
   d="M 82.564,249.856 C 88.821,235.407 98.496,224.727 109.913,217.537 C 125.007,208.114 141.971,203.227 160.871,200.785 C 167.127,199.947 173.191,199.389 179.19,199.11 C 184.544,191.921 189.704,183.823 194.542,175.168 C 197.509,169.724 200.476,163.651 203.25,157.02 L 228.857,157.02 C 223.374,163.791 217.118,170.701 210.602,178.1 C 204.023,185.429 197.444,192.479 190.929,199.041 C 194.799,199.181 198.605,199.53 202.346,200.018 C 215.44,201.693 225.244,207.557 231.243,219.563 C 246.207,199.181 261.753,177.96 278.201,157.02 L 330.706,157.02 C 323.611,173.912 316.904,191.223 310.452,206.859 C 315.419,191.502 320.773,176.215 326.32,160.44 C 308.968,180.683 292.457,200.437 277.556,220.61 C 270.396,230.382 263.622,240.155 257.173,249.858 L 82.564,249.858 L 82.564,249.856 z"
   style="fill:#00a0c6" />
					<path
   id="path4518"
   d="M 260.785,249.856 C 261.624,248.6 262.527,247.413 263.365,246.226 C 270.01,237.222 277.363,229.613 286.586,229.474 C 297.617,229.334 310.647,237.71 326.449,249.856 L 260.785,249.856 z"
   style="fill:#00a0c6" />
					<path
   id="path4520"
   d="M 26.576,157.019 C 24.77,160.858 23.609,164.836 23.157,168.746 C 22.512,175.377 23.802,180.752 27.479,183.265 C 30.897,185.499 36.38,184.242 42.186,180.194 C 48.507,175.797 53.861,169.584 58.57,161.976 C 59.602,160.3 60.505,158.695 61.343,157.02 L 26.576,157.02 L 26.576,157.019 z"
   style="fill:#00a0c6" />
					<path
   id="path4522"
   d="M 93.981,157.019 C 93.078,163.231 92.175,169.444 91.272,175.586 C 100.109,169.024 108.688,162.463 117.202,157.019 L 93.981,157.019 z"
   style="fill:#00a0c6" />
					<path
   id="path4524"
   d="M 53.667,357.562 C 55.215,349.256 57.408,340.74 60.053,332.015 C 67.987,306.117 72.696,282.176 78.759,260.397 C 79.856,256.696 81.081,253.138 82.565,249.857 L 257.175,249.857 C 250.659,259.698 244.404,269.541 238.405,279.104 C 238.663,283.362 238.792,287.76 238.984,292.297 C 240.596,286.503 242.854,280.779 245.692,274.916 C 249.949,265.911 255.368,257.465 260.786,249.857 L 326.45,249.857 C 327.483,250.694 328.514,251.532 329.611,252.37 C 346.833,265.982 363.474,279.941 378.31,293.623 C 391.405,305.699 401.595,316.937 405.594,328.105 C 408.497,336.272 407.143,345.626 404.176,357.562 L 369.602,357.562 C 369.409,356.026 369.151,354.491 368.828,353.025 C 366.507,341.717 361.669,332.432 355.476,325.244 C 347.994,316.658 339.673,310.097 331.739,305.559 C 323.353,300.743 314.84,298.23 307.164,299.416 C 298.972,300.603 292.393,306.116 286.716,313.726 C 281.04,321.544 277.428,328.105 274.397,335.784 C 272.527,340.461 270.978,347.302 271.237,357.562 L 204.734,357.562 C 201.702,342.066 200.412,327.826 196.865,315.96 C 192.865,302.558 186.351,292.646 179.707,286.712 C 172.29,280.08 163.904,276.731 154.293,276.591 C 144.618,276.451 135.974,278.546 128.814,284.06 C 121.46,289.435 117.01,298.37 113.527,308.491 C 109.141,320.705 103.4,333.759 101.723,348.278 C 101.336,351.419 101.142,354.49 101.078,357.562 L 53.667,357.562 L 53.667,357.562 z"
   style="fill:#00a0c6" />
					<path
   id="path4526"
   d="M 125.071,357.562 C 123.265,356.306 121.975,354.979 121.201,353.933 C 120.04,352.188 119.524,350.163 119.975,348.349 C 120.362,346.464 121.458,344.998 123.007,343.881 C 124.426,342.905 126.039,342.626 127.587,343.114 C 129.135,343.532 130.554,344.44 131.65,345.697 C 132.811,347.093 134.553,349.675 137.391,353.026 C 138.681,354.562 140.1,356.027 141.648,357.563 L 125.071,357.563 L 125.071,357.562 z"
   style="fill:#00a0c6" />
					<path
   id="path4528"
   d="M 161.902,357.562 C 161.321,354.281 160.419,350.093 159.58,345.207 C 158.999,341.787 158.677,338.226 158.677,334.667 C 158.613,328.455 159,323.987 159.516,321.334 C 159.967,318.961 160.806,316.727 162.161,315.191 C 163.515,313.795 165.192,313.236 166.805,314.074 C 168.418,315.121 169.578,317.215 170.288,319.728 C 170.933,322.241 170.868,324.754 170.352,326.848 C 169.771,329.221 168.288,332.851 166.288,338.296 C 165.256,341.017 164.482,343.949 163.837,346.95 C 163.321,349.812 163.128,353.303 163.386,357.491 L 161.902,357.562 z"
   style="fill:#00a0c6" />
					<path
   id="path4530"
   d="M 185.446,357.562 C 185.64,357.144 185.833,356.725 186.027,356.306 C 188.285,351.42 190.155,347.86 191.639,345.836 C 192.865,344.02 194.284,342.835 195.767,342.555 C 197.25,342.206 198.605,342.764 200.024,344.3 C 201.443,345.696 202.669,347.581 203.25,349.813 C 203.895,351.978 203.895,354.002 202.992,355.607 C 202.734,356.166 202.283,356.864 201.638,357.562 L 185.446,357.562 L 185.446,357.562 z"
   style="fill:#00a0c6" />
					<path
   id="path4532"
   d="M 317.226,357.562 C 317.162,357.144 317.162,356.725 317.162,356.306 C 317.162,351.909 317.42,348.698 317.808,346.812 C 318.129,345.138 318.71,343.532 319.678,342.485 C 320.645,341.438 321.87,341.088 322.968,341.717 C 324.193,342.415 325.031,343.95 325.483,345.696 C 325.871,347.511 325.871,349.256 325.483,350.792 C 325.225,352.188 324.258,354.491 323.096,357.563 L 317.226,357.563 L 317.226,357.562 z"
   style="fill:#00a0c6" />
					<path
   id="path4534"
   d="M 17.222,249.856 C 14.965,254.114 13.546,258.441 13.159,262.629 C 12.514,268.563 13.868,273.659 17.287,275.822 C 20.448,277.916 25.285,276.939 31.026,272.89 C 36.637,268.911 41.991,262.558 46.571,255.3 C 47.668,253.415 48.7,251.601 49.667,249.856 L 17.222,249.856 L 17.222,249.856 z"
   style="fill:#00a0c6" />
					<path
   id="path4536"
   d="M 51.731,370.615 C 52.183,366.287 52.828,361.96 53.666,357.562 L 101.076,357.562 C 100.947,361.96 101.076,366.357 101.463,370.615 L 51.731,370.615 z"
   style="fill:#00a0c6" />
					<path
   id="path4538"
   d="M 154.098,370.615 C 154.098,370.545 154.162,370.545 154.162,370.475 C 154.743,369.358 155.516,368.381 156.549,367.543 C 158.161,366.217 159.967,365.658 161.967,366.007 C 162.29,366.077 162.612,366.077 162.87,366.216 C 163.322,366.356 163.579,366.495 163.967,366.565 C 165.644,367.262 167.063,368.449 168.288,370.054 C 168.417,370.263 168.546,370.404 168.611,370.614 L 154.098,370.614 L 154.098,370.615 z"
   style="fill:#00a0c6" />
					<path
   id="path4540"
   d="M 174.868,370.615 C 174.804,370.545 174.804,370.475 174.739,370.406 C 177.384,369.15 180.157,367.054 182.415,363.705 C 183.576,361.891 184.543,359.726 185.446,357.562 L 201.636,357.562 C 200.217,359.167 197.895,361.122 194.67,363.356 C 192.154,365.101 189.445,366.567 186.543,367.753 C 184.286,368.73 181.706,369.638 178.738,370.615 L 174.868,370.615 z"
   style="fill:#00a0c6" />
					<path
   id="path4542"
   d="M 207.57,370.615 C 207.054,368.382 206.538,366.078 206.022,363.774 C 205.57,361.68 205.119,359.586 204.732,357.562 L 271.235,357.562 C 271.3,358.679 271.364,359.936 271.427,361.191 C 271.621,364.123 271.879,367.264 272.267,370.545 L 207.57,370.615 z"
   style="fill:#00a0c6" />
					<path
   id="path4544"
   d="M 291.037,370.615 C 290.844,370.406 290.715,370.265 290.586,370.055 C 289.684,368.869 289.296,367.404 289.618,366.147 C 289.941,364.681 290.715,363.704 291.811,362.936 C 292.779,362.168 293.939,362.029 295.101,362.308 C 296.132,362.657 297.164,363.286 297.939,364.262 C 298.777,365.171 300.002,366.984 302.067,369.429 C 302.389,369.848 302.777,370.196 303.165,370.616 L 291.037,370.616 L 291.037,370.615 z"
   style="fill:#00a0c6" />
					<path
   id="path4546"
   d="M 319.096,370.685 C 318.774,368.73 318.257,366.427 317.807,363.844 C 317.484,361.82 317.29,359.726 317.226,357.562 L 323.095,357.562 C 322.967,357.981 322.773,358.399 322.644,358.819 C 321.87,360.913 321.354,362.937 320.903,365.101 C 320.581,366.706 320.452,368.521 320.515,370.615 L 319.096,370.685 z"
   style="fill:#00a0c6" />
					<path
   id="path4548"
   d="M 337.156,370.615 C 338.576,367.683 339.736,365.519 340.639,364.262 C 341.542,363.007 342.575,362.169 343.607,361.96 C 344.639,361.751 345.606,362.169 346.638,363.216 C 347.67,364.192 348.509,365.589 348.96,367.054 C 349.282,368.311 349.411,369.568 349.025,370.615 L 337.156,370.615 L 337.156,370.615 z"
   style="fill:#00a0c6" />
					<path
   id="path4550"
   d="M 370.312,370.615 C 370.441,366.008 370.183,361.68 369.601,357.562 L 404.175,357.562 C 403.917,358.679 403.594,359.866 403.272,361.122 C 402.498,364.122 401.723,367.264 400.821,370.615 L 370.312,370.615 z"
   style="fill:#00a0c6" />
					<path
   id="path4552"
   d="M 125.071,357.562 C 126.554,358.539 128.296,359.586 130.425,360.494 C 133.198,361.681 136.23,362.1 139.133,362.728 C 143.584,363.705 147.325,364.962 150.034,366.498 C 150.421,366.079 150.744,365.66 151.066,365.241 C 147.389,362.519 144.616,360.285 142.487,358.33 C 142.229,358.052 141.906,357.772 141.648,357.563 L 125.071,357.563 L 125.071,357.562 z"
   style="fill:#00a0c6" />
					<path
   id="path4554"
   d="M 161.902,357.562 C 161.966,357.911 162.031,358.26 162.096,358.608 C 162.547,358.749 162.999,358.958 163.45,359.028 C 163.386,358.538 163.386,357.981 163.386,357.492 L 161.902,357.562 z"
   style="fill:#00a0c6" />
					<path
   id="path4556"
   d="M 51.216,384.435 C 51.151,379.899 51.345,375.292 51.732,370.615 L 101.464,370.615 C 101.916,375.362 102.69,379.969 103.786,384.435 L 51.216,384.435 z"
   style="fill:#00a0c6" />
					<path
   id="path4558"
   d="M 117.653,384.435 C 117.717,384.366 117.847,384.296 117.911,384.227 C 119.072,383.529 122.168,383.04 127.328,382.622 C 130.23,382.343 133.133,382.134 136.165,381.714 C 139.455,381.156 143.26,380.249 147.646,378.713 C 147.904,379.203 148.227,379.691 148.484,380.11 C 146.356,381.157 144.227,382.623 142.292,384.437 L 117.653,384.437 L 117.653,384.435 z"
   style="fill:#00a0c6" />
					<path
   id="path4560"
   d="M 172.674,384.435 C 172.932,384.087 173.255,383.738 173.513,383.319 C 174.222,383.738 174.932,384.087 175.77,384.435 L 172.674,384.435 z"
   style="fill:#00a0c6" />
					<path
   id="path4562"
   d="M 210.989,384.435 C 209.892,380.178 208.731,375.501 207.57,370.615 L 272.267,370.545 C 272.782,374.873 273.428,379.48 274.202,384.366 L 210.989,384.435 z"
   style="fill:#00a0c6" />
					<path
   id="path4564"
   d="M 313.29,384.435 C 313.29,383.529 313.484,382.621 313.936,381.852 C 314.387,381.085 314.968,380.248 315.677,379.759 C 316.776,378.851 318.065,378.363 319.548,378.641 C 319.741,378.641 319.999,378.711 320.193,378.85 C 320.452,378.85 320.71,378.99 320.967,379.06 C 322.194,379.478 323.224,380.386 324.063,381.502 C 324.709,382.411 325.031,383.458 325.095,384.434 L 313.29,384.434 L 313.29,384.435 z"
   style="fill:#00a0c6" />
					<path
   id="path4566"
   d="M 369.215,384.435 C 369.861,379.62 370.246,375.013 370.313,370.615 L 400.822,370.615 C 399.725,374.943 398.564,379.55 397.275,384.435 L 369.215,384.435 z"
   style="fill:#00a0c6" />
					<path
   id="path4568"
   d="M 154.098,370.615 C 153.324,372.011 153.066,373.477 153.26,374.943 C 153.389,376.059 153.776,376.967 154.356,377.944 C 155.324,379.829 156.807,381.085 158.678,381.852 C 160.42,382.481 162.226,382.621 163.838,382.132 C 165.709,381.923 167.192,381.154 168.289,379.828 C 169.386,378.572 169.837,377.036 169.773,375.57 C 169.966,373.895 169.579,372.219 168.612,370.614 L 154.098,370.614 L 154.098,370.615 z"
   style="fill:#00a0c6" />
					<path
   id="path4570"
   d="M 174.868,370.615 C 174.997,370.964 175.255,371.313 175.449,371.662 C 176.61,371.313 177.706,370.964 178.739,370.615 L 174.868,370.615 z"
   style="fill:#00a0c6" />
					<path
   id="path4572"
   d="M 291.037,370.615 C 292.134,371.871 294.133,373.407 297.1,374.734 C 299.035,375.571 301.228,375.85 303.293,376.339 C 306.452,377.037 309.097,377.875 311.098,378.991 C 311.29,378.712 311.548,378.364 311.743,378.084 C 309.097,376.13 307.163,374.594 305.681,373.127 C 304.777,372.291 303.938,371.453 303.165,370.615 L 291.037,370.615 L 291.037,370.615 z"
   style="fill:#00a0c6" />
					<path
   id="path4574"
   d="M 319.096,370.685 C 319.29,371.663 319.483,372.57 319.612,373.407 C 320,373.477 320.258,373.616 320.644,373.686 C 320.581,372.569 320.515,371.592 320.515,370.615 L 319.096,370.685 z"
   style="fill:#00a0c6" />
					<path
   id="path4576"
   d="M 337.156,370.615 C 336.964,370.964 336.835,371.313 336.64,371.662 C 335.801,373.546 335.158,375.431 334.124,377.037 C 332.513,379.41 330.513,380.876 328.577,381.713 C 328.77,382.063 328.964,382.342 329.157,382.761 C 332.188,381.713 334.834,380.807 337.026,379.829 C 339.026,378.991 341.026,378.014 342.896,376.758 C 346.186,374.525 348.056,372.57 348.767,371.244 C 348.896,371.035 348.959,370.825 349.025,370.616 L 337.156,370.616 L 337.156,370.615 z"
   style="fill:#00a0c6" />
					<path
   id="path4578"
   d="M 53.021,400.49 C 51.925,395.255 51.344,389.88 51.215,384.434 L 103.784,384.434 C 105.01,389.461 106.687,394.277 108.686,398.814 C 108.944,399.373 109.202,399.931 109.46,400.489 L 53.021,400.489 L 53.021,400.49 z"
   style="fill:#00a0c6" />
					<path
   id="path4580"
   d="M 162.29,400.49 C 161.774,397.07 161.064,393.23 160.226,388.554 C 160.677,388.624 161.129,388.694 161.645,388.763 C 162.548,391.904 164.29,395.883 166.483,400.49 L 162.29,400.49 z"
   style="fill:#00a0c6" />
					<path
   id="path4582"
   d="M 194.347,400.49 C 193.186,399.583 191.896,398.535 190.412,397.419 C 187.961,395.464 185.381,393.649 182.865,391.765 C 180.092,389.671 176.802,387.296 172.674,384.434 L 175.77,384.434 C 178.415,385.622 181.705,386.599 185.381,387.227 C 188.606,387.785 191.832,388.064 194.992,388.623 C 200.604,389.81 204.41,391.206 206.28,392.322 C 208.151,393.508 209.247,395.254 209.57,397.069 C 209.763,398.186 209.763,399.373 209.505,400.489 L 194.347,400.489 L 194.347,400.49 z"
   style="fill:#00a0c6" />
					<path
   id="path4584"
   d="M 214.473,400.49 C 213.763,395.953 212.473,390.577 210.99,384.434 L 274.203,384.365 C 274.977,389.391 275.944,394.766 277.041,400.42 L 214.473,400.49 z"
   style="fill:#00a0c6" />
					<path
   id="path4586"
   d="M 295.036,400.49 C 293.875,400.001 292.65,399.233 291.36,398.187 C 289.876,396.861 288.714,395.534 288.07,394.278 C 287.425,393.091 287.489,392.114 288.199,391.556 C 288.972,391.067 291.231,390.718 294.907,390.508 C 296.971,390.299 299.035,390.09 301.228,389.811 C 303.551,389.462 306.259,388.834 309.356,387.646 C 309.549,388.066 309.743,388.345 309.936,388.764 C 307.937,389.741 305.938,391.137 304.195,393.092 C 303.165,394.279 302.454,395.605 301.873,396.722 C 300.648,398.676 299.616,399.933 298.713,400.491 L 295.036,400.491 L 295.036,400.49 z"
   style="fill:#00a0c6" />
					<path
   id="path4588"
   d="M 319.354,400.56 C 319.033,398.745 318.645,396.861 318.194,394.767 C 318.645,394.697 318.967,394.767 319.354,394.837 C 319.806,396.441 320.581,398.327 321.483,400.491 L 319.354,400.56 z"
   style="fill:#00a0c6" />
					<path
   id="path4590"
   d="M 339.092,400.49 C 337.609,399.302 335.996,398.117 334.448,396.93 C 332.384,395.464 330.061,393.789 327.158,391.765 C 327.353,391.486 327.546,391.276 327.739,390.997 C 329.869,392.184 332.771,393.16 336.254,393.789 C 338.511,394.138 340.769,394.278 343.026,394.767 C 346.961,395.604 349.735,396.582 351.089,397.419 C 352.378,398.187 353.152,399.303 353.41,400.49 L 339.092,400.49 z"
   style="fill:#00a0c6" />
					<path
   id="path4592"
   d="M 366.055,400.49 C 366.957,397.209 367.668,393.928 368.247,390.718 C 368.635,388.624 368.956,386.53 369.215,384.435 L 397.275,384.435 C 395.984,389.462 394.565,394.837 393.082,400.491 L 366.055,400.491 L 366.055,400.49 z"
   style="fill:#00a0c6" />
					<path
   id="path4594"
   d="M 117.653,384.435 C 116.879,385.204 116.944,386.53 117.717,387.996 C 118.685,389.811 120.362,391.626 122.426,393.44 C 124.49,395.186 126.361,396.302 128.231,396.931 C 130.037,397.49 131.585,397.35 132.811,396.722 C 134.037,396.023 135.456,394.209 137.068,391.417 C 138.036,389.881 138.939,387.997 140.358,386.391 C 140.939,385.693 141.584,385.065 142.293,384.435 L 117.653,384.435 L 117.653,384.435 z"
   style="fill:#00a0c6" />
					<path
   id="path4596"
   d="M 313.29,384.435 C 313.29,384.644 313.29,384.784 313.355,384.995 C 313.419,385.763 313.677,386.461 314.13,387.089 C 314.774,388.485 315.935,389.392 317.225,389.881 C 318.451,390.369 319.741,390.439 320.902,390.09 C 322.193,389.95 323.289,389.462 324.062,388.485 C 324.837,387.576 325.159,386.461 325.094,385.414 C 325.158,385.065 325.158,384.785 325.094,384.435 L 313.29,384.435 L 313.29,384.435 z"
   style="fill:#00a0c6" />
					<path
   id="path4598"
   d="M 53.15,400.839 C 53.086,400.699 53.086,400.63 53.021,400.49 L 109.461,400.49 C 109.525,400.56 109.525,400.699 109.59,400.839 L 53.15,400.839 z"
   style="fill:#00a0c6" />
					<path
   id="path4600"
   d="M 162.354,400.839 C 162.354,400.769 162.29,400.63 162.29,400.49 L 166.483,400.49 C 166.547,400.63 166.547,400.699 166.612,400.839 L 162.354,400.839 z"
   style="fill:#00a0c6" />
					<path
   id="path4602"
   d="M 194.734,400.839 C 194.605,400.699 194.476,400.63 194.347,400.49 L 209.505,400.49 C 209.441,400.63 209.441,400.699 209.376,400.839 L 194.734,400.839 z"
   style="fill:#00a0c6" />
					<path
   id="path4604"
   d="M 214.537,400.839 C 214.473,400.769 214.473,400.63 214.473,400.49 L 277.04,400.42 C 277.04,400.56 277.104,400.699 277.104,400.839 L 214.537,400.839 z"
   style="fill:#00a0c6" />
					<path
   id="path4606"
   d="M 296.004,400.839 C 295.875,400.769 295.746,400.769 295.552,400.699 C 295.361,400.629 295.232,400.559 295.036,400.49 L 298.713,400.49 C 298.455,400.63 298.197,400.769 297.875,400.839 L 296.004,400.839 z"
   style="fill:#00a0c6" />
					<path
   id="path4608"
   d="M 319.419,400.909 C 319.354,400.769 319.354,400.63 319.354,400.56 L 321.483,400.49 C 321.547,400.56 321.612,400.699 321.677,400.839 L 319.419,400.909 z"
   style="fill:#00a0c6" />
					<path
   id="path4610"
   d="M 339.544,400.839 C 339.415,400.699 339.285,400.63 339.092,400.49 L 353.411,400.49 C 353.476,400.56 353.476,400.699 353.476,400.769 L 353.476,400.839 L 339.544,400.839 z"
   style="fill:#00a0c6" />
					<path
   id="path4612"
   d="M 365.989,400.839 C 365.989,400.699 366.054,400.56 366.054,400.49 L 393.08,400.49 C 393.08,400.63 393.015,400.699 393.015,400.839 L 365.989,400.839 z"
   style="fill:#00a0c6" />
					<path
   id="path4614"
   d="M 272.59,637.122 C 272.848,636.493 273.041,635.865 273.3,635.236 C 265.107,636.074 256.915,636.772 249.175,630.42 C 255.82,615.274 262.463,600.196 268.783,585.049 C 275.814,590.564 283.168,589.795 290.521,589.028 C 292.907,581.141 294.972,573.183 296.648,565.225 C 285.102,575.696 271.3,584.281 255.238,590.983 C 225.631,603.268 193.96,604.943 160.87,596.707 C 128.425,588.329 101.463,571.438 80.499,546.379 C 59.471,521.041 47.344,493.817 45.151,465.129 L 50.182,466.316 C 55.019,479.858 60.116,490.329 65.147,497.099 C 72.887,507.22 83.595,516.575 97.076,524.88 C 114.298,534.652 139.326,544.006 172.093,552.592 C 202.861,560.13 227.696,564.319 245.497,563.342 C 263.493,562.853 278.847,559.571 291.165,553.848 C 294.132,552.452 296.971,550.847 299.809,548.892 C 300.712,543.517 301.422,538.212 302.067,532.837 C 297.617,532 293.488,528.719 289.683,523.275 C 287.94,524.741 285.683,525.998 283.167,526.905 C 270.718,531.512 251.561,531.512 228.083,526.486 C 197.249,519.924 160.482,506.453 124.554,484.395 C 91.206,463.874 66.824,438.954 56.762,413.056 C 55.214,409.077 53.989,404.958 53.15,400.841 L 109.59,400.841 C 115.395,412.987 125.135,423.597 137.391,432.321 C 150.808,441.954 165.127,449.005 177.512,450.959 C 185.897,452.285 194.476,451.518 202.345,448.935 C 209.505,446.632 212.859,439.511 214.923,431.206 C 216.73,423.807 216.601,413.546 214.601,401.47 C 214.601,401.261 214.537,401.051 214.537,400.842 L 277.104,400.842 C 277.621,403.494 278.136,406.217 278.718,409.078 C 282.587,428.344 287.94,448.517 297.035,456.335 C 305.033,463.315 315.547,464.711 325.609,460.872 C 335.286,457.172 345.025,447.889 352.313,434.836 C 358.634,423.667 363.085,412.01 365.988,400.842 L 393.014,400.842 C 390.369,410.824 387.403,421.573 384.113,432.951 C 374.76,465.2 362.119,493.4 347.153,513.014 C 347.025,530.186 345.864,547.426 343.413,564.598 C 349.54,558.874 355.475,552.173 361.344,545.123 C 358.958,558.595 355.604,571.927 351.541,585.468 C 345.219,593.496 338.51,601.244 331.802,607.806 C 328.448,617.508 324.901,627.281 321.353,637.123 L 272.59,637.123 L 272.59,637.122 z"
   style="fill:#00a0c6" />
					<path
   id="path4616"
   d="M 384.502,637.122 C 388.308,631.328 391.34,625.603 393.532,620.019 C 396.371,612.272 397.724,602.988 397.66,592.796 L 401.272,590.493 C 404.175,605.569 403.981,621.206 400.498,637.121 L 384.502,637.121 L 384.502,637.122 z"
   style="fill:#00a0c6" />
					<path
   id="path4618"
   d="M 162.354,400.839 C 162.418,401.188 162.418,401.537 162.483,401.815 C 162.935,405.236 163.257,408.657 163.064,412.148 C 162.806,418.429 161.967,422.687 161.838,425.061 C 161.774,427.294 162.225,429.529 163.257,431.414 C 164.354,433.298 166.095,434.346 167.966,434.275 C 169.901,434.205 171.578,433.018 172.804,431.343 C 173.965,429.738 174.481,427.573 174.416,425.2 C 174.416,422.757 173.707,418.429 171.771,412.496 C 170.674,409.075 168.933,405.655 167.256,402.164 C 167.062,401.746 166.804,401.258 166.611,400.839 L 162.354,400.839 L 162.354,400.839 z"
   style="fill:#00a0c6" />
					<path
   id="path4620"
   d="M 194.734,400.839 C 196.992,402.584 198.669,403.91 199.83,404.609 C 201.443,405.586 203.12,406.075 204.797,405.796 C 206.41,405.586 207.7,404.47 208.603,402.795 C 208.926,402.165 209.248,401.538 209.377,400.84 L 194.734,400.84 L 194.734,400.839 z"
   style="fill:#00a0c6" />
					<path
   id="path4622"
   d="M 296.004,400.839 C 296.714,400.979 297.358,400.979 297.875,400.839 L 296.004,400.839 z"
   style="fill:#00a0c6" />
					<path
   id="path4624"
   d="M 319.419,400.909 C 319.611,402.025 319.741,403.073 319.87,404.05 C 320.192,406.632 320.515,409.006 320.386,411.448 C 320.128,415.985 319.548,418.987 319.483,420.732 C 319.354,422.268 319.677,423.874 320.452,425.27 C 321.225,426.526 322.515,427.223 323.806,427.223 C 325.16,427.154 326.322,426.317 327.225,425.2 C 328.064,423.943 328.45,422.477 328.45,420.802 C 328.387,419.058 327.87,415.986 326.515,411.728 C 325.741,409.286 324.581,406.842 323.29,404.33 C 322.709,403.073 322.128,401.955 321.678,400.84 L 319.419,400.909 z"
   style="fill:#00a0c6" />
					<path
   id="path4626"
   d="M 339.544,400.839 C 339.607,400.909 339.673,400.909 339.736,400.979 C 343.091,403.492 345.219,405.306 346.445,406.144 C 347.671,406.842 348.897,407.122 350.057,406.982 C 351.154,406.773 352.056,406.005 352.766,404.886 C 353.476,403.562 353.734,402.234 353.476,400.839 L 339.544,400.839 z"
   style="fill:#00a0c6" />
					<path
   id="path4628"
   d="M 272.59,637.122 C 266.72,652.757 260.979,668.323 255.367,683.819 C 275.879,678.864 296.004,669.161 315.419,653.106 C 317.419,647.801 319.419,642.497 321.354,637.122 L 272.59,637.122 z"
   style="fill:#00a0c6" />
					<path
   id="path4630"
   d="M 384.502,637.122 C 380.825,642.706 376.375,648.43 371.215,654.224 C 361.024,665.741 344.059,678.934 321.611,693.453 C 297.617,708.81 277.75,718.932 262.205,723.608 C 249.627,726.958 238.338,728.284 228.47,727.028 C 221.569,726.121 212.86,723.12 202.991,717.814 L 199.314,720.187 C 216.021,735.962 237.758,744.967 263.623,746.852 C 289.555,748.806 314.581,742.036 338.382,726.678 C 362.636,711.183 380.568,690.312 391.532,664.415 C 395.595,655.2 398.563,646.126 400.498,637.122 L 384.502,637.122 L 384.502,637.122 z"
   style="fill:#00a0c6" />
				</g>
				<g
   id="g4632">
					<path
   id="path4634"
   d="M 325.095,385.413 C 325.159,386.46 324.838,387.576 324.063,388.484 C 323.29,389.461 322.194,389.95 320.903,390.089 C 319.742,390.437 318.452,390.367 317.226,389.88 C 315.936,389.391 314.775,388.484 314.131,387.088 C 313.678,386.46 313.42,385.762 313.356,384.994 C 313.162,383.947 313.42,382.83 313.936,381.852 C 314.387,381.085 314.968,380.248 315.677,379.759 C 316.776,378.851 318.065,378.363 319.548,378.641 C 319.741,378.641 319.999,378.711 320.193,378.85 C 320.452,378.85 320.71,378.99 320.967,379.06 C 322.194,379.478 323.224,380.386 324.063,381.502 C 324.901,382.76 325.224,384.157 325.095,385.413 z"
   style="fill:none;stroke:#fd0b12;stroke-width:20" />
					<path
   id="path4636"
   d="M 320.644,373.686 C 320.257,373.616 319.999,373.477 319.612,373.407 C 319.225,370.894 318.516,367.753 317.807,363.844 C 317.419,361.4 317.226,358.888 317.161,356.305 C 317.161,351.908 317.419,348.697 317.807,346.811 C 318.128,345.137 318.709,343.531 319.677,342.484 C 320.644,341.437 321.869,341.087 322.967,341.716 C 324.192,342.414 325.03,343.949 325.482,345.695 C 325.87,347.51 325.87,349.255 325.482,350.791 C 325.16,352.396 323.999,355.049 322.644,358.818 C 321.87,360.912 321.354,362.936 320.903,365.1 C 320.451,367.404 320.386,370.195 320.644,373.686 z"
   style="fill:none;stroke:#fd0b12;stroke-width:20" />
					<path
   id="path4638"
   d="M 327.158,391.765 C 327.353,391.486 327.546,391.276 327.739,390.997 C 329.869,392.184 332.771,393.16 336.254,393.789 C 338.511,394.138 340.769,394.278 343.026,394.767 C 346.961,395.604 349.735,396.582 351.089,397.419 C 352.443,398.256 353.281,399.443 353.476,400.77 C 353.734,402.165 353.476,403.562 352.766,404.887 C 352.056,406.006 351.154,406.774 350.057,406.983 C 348.897,407.123 347.67,406.843 346.445,406.145 C 345.219,405.307 343.091,403.493 339.736,400.98 C 338.06,399.654 336.189,398.327 334.448,396.931 C 332.384,395.464 330.062,393.789 327.158,391.765 z"
   style="fill:none;stroke:#fd0b12;stroke-width:20" />
					<path
   id="path4640"
   d="M 318.193,394.767 C 318.644,394.697 318.966,394.767 319.353,394.837 C 320.063,397.35 321.482,400.561 323.289,404.33 C 324.58,406.843 325.739,409.286 326.514,411.728 C 327.868,415.986 328.385,419.058 328.449,420.802 C 328.449,422.478 328.063,423.944 327.224,425.2 C 326.321,426.317 325.16,427.154 323.805,427.223 C 322.515,427.223 321.225,426.526 320.451,425.27 C 319.677,423.874 319.353,422.268 319.482,420.732 C 319.547,418.987 320.128,415.985 320.385,411.448 C 320.514,409.006 320.192,406.632 319.869,404.05 C 319.548,401.398 318.967,398.326 318.193,394.767 z"
   style="fill:none;stroke:#fd0b12;stroke-width:20" />
					<path
   id="path4642"
   d="M 309.356,387.646 C 309.549,388.066 309.743,388.345 309.936,388.764 C 307.937,389.741 305.938,391.137 304.195,393.092 C 303.165,394.279 302.454,395.605 301.873,396.722 C 300.648,398.676 299.616,399.933 298.713,400.491 C 297.94,400.98 296.842,401.119 295.552,400.7 C 294.198,400.211 292.844,399.374 291.361,398.187 C 289.877,396.861 288.715,395.534 288.071,394.278 C 287.426,393.091 287.49,392.114 288.2,391.556 C 288.973,391.067 291.232,390.718 294.908,390.508 C 296.972,390.299 299.036,390.09 301.229,389.811 C 303.552,389.461 306.26,388.833 309.356,387.646 z"
   style="fill:none;stroke:#fd0b12;stroke-width:20" />
					<path
   id="path4644"
   d="M 311.743,378.083 C 311.549,378.362 311.291,378.71 311.098,378.99 C 309.097,377.874 306.452,377.036 303.293,376.338 C 301.228,375.849 299.034,375.57 297.1,374.733 C 293.681,373.197 291.489,371.382 290.585,370.055 C 289.683,368.869 289.295,367.404 289.617,366.147 C 289.94,364.681 290.714,363.704 291.81,362.936 C 292.778,362.168 293.938,362.029 295.1,362.308 C 296.131,362.657 297.163,363.286 297.938,364.262 C 298.776,365.171 300.001,366.984 302.066,369.429 C 303.097,370.685 304.388,371.872 305.679,373.127 C 307.163,374.594 309.098,376.129 311.743,378.083 z"
   style="fill:none;stroke:#fd0b12;stroke-width:20" />
					<path
   id="path4646"
   d="M 329.158,382.76 C 328.965,382.342 328.771,382.062 328.578,381.712 C 330.514,380.876 332.514,379.409 334.125,377.036 C 335.158,375.431 335.802,373.546 336.641,371.661 C 338.32,368.241 339.608,365.658 340.64,364.261 C 341.543,363.006 342.576,362.168 343.608,361.959 C 344.64,361.75 345.607,362.168 346.639,363.215 C 347.671,364.191 348.51,365.588 348.961,367.053 C 349.348,368.59 349.412,370.054 348.769,371.242 C 348.058,372.568 346.188,374.523 342.898,376.756 C 341.028,378.012 339.028,378.989 337.028,379.827 C 334.835,380.806 332.189,381.712 329.158,382.76 z"
   style="fill:none;stroke:#fd0b12;stroke-width:20" />
					<path
   id="path4648"
   d="M 169.772,375.571 C 169.836,377.037 169.385,378.572 168.288,379.829 C 167.192,381.155 165.708,381.923 163.837,382.133 C 162.225,382.621 160.419,382.482 158.677,381.853 C 156.806,381.086 155.323,379.83 154.355,377.945 C 153.774,376.968 153.388,376.06 153.259,374.944 C 153.065,373.408 153.323,371.943 154.162,370.477 C 154.743,369.36 155.516,368.383 156.549,367.545 C 158.161,366.219 159.967,365.66 161.967,366.009 C 162.29,366.079 162.612,366.079 162.87,366.218 C 163.322,366.358 163.579,366.497 163.967,366.567 C 165.644,367.264 167.063,368.451 168.288,370.056 C 169.449,371.801 169.965,373.686 169.772,375.571 z"
   style="fill:none;stroke:#fd0b12;stroke-width:20" />
					<path
   id="path4650"
   d="M 163.451,359.028 C 162.999,358.958 162.548,358.749 162.097,358.608 C 161.516,355.189 160.484,350.651 159.581,345.207 C 159,341.787 158.678,338.226 158.678,334.667 C 158.614,328.455 159.001,323.987 159.517,321.334 C 159.968,318.961 160.807,316.727 162.162,315.191 C 163.516,313.795 165.193,313.236 166.806,314.074 C 168.419,315.121 169.579,317.215 170.289,319.728 C 170.934,322.241 170.869,324.754 170.353,326.848 C 169.772,329.221 168.289,332.851 166.289,338.296 C 165.257,341.017 164.483,343.949 163.838,346.95 C 163.257,350.163 163.128,354.142 163.451,359.028 z"
   style="fill:none;stroke:#fd0b12;stroke-width:20" />
					<path
   id="path4652"
   d="M 172.674,384.435 C 172.932,384.087 173.255,383.738 173.513,383.319 C 176.48,384.994 180.544,386.39 185.381,387.228 C 188.606,387.786 191.832,388.065 194.992,388.624 C 200.604,389.811 204.41,391.207 206.28,392.323 C 208.151,393.509 209.247,395.255 209.57,397.07 C 209.957,399.024 209.57,401.049 208.602,402.795 C 207.699,404.47 206.409,405.586 204.796,405.796 C 203.119,406.075 201.442,405.586 199.829,404.609 C 198.023,403.492 194.991,400.979 190.412,397.419 C 187.961,395.464 185.381,393.649 182.865,391.765 C 180.092,389.671 176.803,387.296 172.674,384.435 z"
   style="fill:none;stroke:#fd0b12;stroke-width:20" />
					<path
   id="path4654"
   d="M 160.226,388.554 C 160.677,388.624 161.129,388.694 161.645,388.763 C 162.677,392.253 164.741,396.86 167.257,402.164 C 168.934,405.655 170.675,409.075 171.772,412.496 C 173.707,418.429 174.417,422.757 174.417,425.2 C 174.481,427.573 173.965,429.737 172.805,431.343 C 171.579,433.018 169.902,434.204 167.967,434.275 C 166.096,434.345 164.355,433.297 163.258,431.414 C 162.226,429.529 161.775,427.295 161.839,425.061 C 161.968,422.687 162.807,418.429 163.065,412.148 C 163.258,408.658 162.936,405.237 162.484,401.815 C 161.967,398.047 161.193,393.789 160.226,388.554 z"
   style="fill:none;stroke:#fd0b12;stroke-width:20" />
					<path
   id="path4656"
   d="M 147.647,378.711 C 147.905,379.201 148.228,379.689 148.485,380.108 C 145.647,381.503 142.809,383.598 140.358,386.39 C 138.939,387.995 138.036,389.88 137.068,391.416 C 135.455,394.208 134.036,396.022 132.811,396.721 C 131.585,397.349 130.038,397.489 128.231,396.93 C 126.36,396.301 124.49,395.185 122.426,393.439 C 120.362,391.625 118.685,389.81 117.717,387.995 C 116.879,386.39 116.879,384.924 117.911,384.225 C 119.072,383.527 122.168,383.038 127.328,382.62 C 130.23,382.341 133.133,382.132 136.165,381.712 C 139.456,381.155 143.261,380.248 147.647,378.711 z"
   style="fill:none;stroke:#fd0b12;stroke-width:20" />
					<path
   id="path4658"
   d="M 151.066,365.24 C 150.744,365.659 150.421,366.078 150.034,366.497 C 147.325,364.961 143.584,363.705 139.133,362.727 C 136.231,362.099 133.199,361.68 130.425,360.493 C 125.587,358.398 122.555,355.817 121.201,353.932 C 120.04,352.187 119.524,350.162 119.975,348.348 C 120.362,346.463 121.458,344.997 123.007,343.88 C 124.426,342.904 126.039,342.625 127.587,343.113 C 129.135,343.531 130.554,344.439 131.65,345.696 C 132.811,347.092 134.553,349.674 137.391,353.025 C 138.874,354.84 140.616,356.585 142.487,358.329 C 144.616,360.284 147.389,362.518 151.066,365.24 z"
   style="fill:none;stroke:#fd0b12;stroke-width:20" />
					<path
   id="path4660"
   d="M 175.448,371.662 C 175.19,371.243 174.932,370.824 174.738,370.405 C 177.383,369.149 180.156,367.053 182.414,363.704 C 183.833,361.539 184.865,358.888 186.026,356.305 C 188.284,351.419 190.154,347.859 191.638,345.835 C 192.864,344.019 194.283,342.834 195.766,342.554 C 197.249,342.205 198.604,342.763 200.023,344.299 C 201.442,345.695 202.668,347.58 203.249,349.812 C 203.894,351.977 203.894,354.001 202.991,355.606 C 202.088,357.421 199.379,360.144 194.67,363.355 C 192.154,365.1 189.445,366.566 186.543,367.752 C 183.446,369.079 179.77,370.335 175.448,371.662 z"
   style="fill:none;stroke:#fd0b12;stroke-width:20" />
					<path
   id="path4662"
   d="M 179.189,199.11 C 184.543,191.921 189.703,183.823 194.541,175.168 C 198.411,168.118 202.217,159.881 205.7,150.876 C 209.247,142.221 212.666,132.448 214.859,122.117 C 216.859,113.043 216.278,105.225 212.343,99.641 C 208.15,93.568 202.474,88.961 197.378,84.563 C 186.413,75.07 176.415,65.856 170.158,56.503 C 165.966,50.221 162.16,42.542 157.58,35.213 C 157.645,34.026 157.645,32.839 157.58,31.583 C 169.32,46.87 183.317,66.624 206.731,82.469 C 219.051,90.775 232.081,94.684 241.627,100.129 C 249.947,105.015 252.786,112.205 250.528,120.651 C 248.141,129.655 242.723,138.66 235.95,147.874 C 229.049,157.506 220.147,167.279 210.6,178.098 C 204.021,185.427 197.442,192.477 190.927,199.039 C 194.797,199.179 198.603,199.528 202.344,200.016 C 215.438,201.691 225.242,207.555 231.241,219.561 C 246.205,199.179 261.751,177.958 278.199,157.018 C 294.97,135.588 312.967,114.647 330.317,93.567 C 324.255,90.914 316.902,89.239 309.289,87.843 C 330.188,83.237 348.571,82.119 366.633,80.863 C 359.345,96.708 348.314,117.44 338.123,139.916 C 328.188,161.904 319.094,185.846 310.45,206.857 C 315.417,191.5 320.771,176.213 326.318,160.438 C 308.966,180.681 292.455,200.435 277.554,220.608 C 263.169,240.223 250.333,260.046 238.402,279.103 C 238.66,283.361 238.789,287.759 238.981,292.296 C 240.593,286.502 242.851,280.778 245.689,274.915 C 250.656,264.444 257.107,254.812 263.363,246.226 C 270.008,237.222 277.361,229.613 286.584,229.474 C 298.324,229.334 312.386,238.897 329.608,252.369 C 346.83,265.981 363.471,279.94 378.307,293.622 C 391.402,305.698 401.592,316.936 405.591,328.104 C 408.752,337.039 406.817,347.509 403.27,361.121 C 398.625,379.06 392.498,403.91 384.112,432.948 C 374.759,465.197 362.118,493.397 347.152,513.011 C 347.024,530.183 345.863,547.423 343.412,564.595 C 349.539,558.871 355.474,552.17 361.343,545.12 C 358.957,558.592 355.603,571.924 351.54,585.465 C 345.218,593.493 338.509,601.241 331.801,607.803 C 326.576,622.741 321.094,638.028 315.417,653.105 C 296.002,669.16 275.877,678.863 255.365,683.818 C 261.171,667.694 267.17,651.5 273.298,635.235 C 265.105,636.073 256.913,636.771 249.173,630.419 C 255.818,615.273 262.461,600.195 268.781,585.048 C 275.812,590.563 283.166,589.794 290.519,589.027 C 292.905,581.14 294.97,573.182 296.646,565.224 C 285.1,575.695 271.298,584.28 255.236,590.982 C 225.629,603.267 193.958,604.942 160.868,596.706 C 128.423,588.328 101.461,571.437 80.497,546.378 C 59.469,521.04 47.342,493.816 45.149,465.128 L 50.18,466.315 C 55.017,479.857 60.114,490.328 65.145,497.098 C 72.885,507.219 83.593,516.574 97.074,524.879 C 114.296,534.651 139.324,544.005 172.091,552.591 C 202.859,560.129 227.694,564.318 245.495,563.341 C 263.491,562.852 278.845,559.57 291.163,553.847 C 294.13,552.451 296.969,550.846 299.807,548.891 C 300.71,543.516 301.42,538.211 302.065,532.836 C 297.615,531.999 293.486,528.718 289.681,523.274 C 287.938,524.74 285.681,525.997 283.165,526.904 C 270.716,531.511 251.559,531.511 228.081,526.485 C 197.247,519.923 160.48,506.452 124.552,484.394 C 91.204,463.873 66.822,438.953 56.76,413.055 C 47.149,388.346 51.148,361.261 60.05,332.015 C 67.984,306.117 72.693,282.176 78.756,260.397 C 84.497,240.434 95.914,226.403 109.911,217.538 C 125.005,208.115 141.969,203.228 160.869,200.786 C 167.127,199.947 173.19,199.389 179.189,199.11 z"
   style="fill:none;stroke:#fd0b12;stroke-width:20" />
					<path
   id="path4664"
   d="M 108.688,398.815 C 114.364,411.798 124.491,423.107 137.392,432.32 C 150.809,441.953 165.128,449.004 177.513,450.958 C 185.898,452.284 194.477,451.517 202.346,448.934 C 209.506,446.631 212.86,439.51 214.924,431.205 C 216.731,423.806 216.602,413.545 214.602,401.469 C 213.247,392.185 209.377,379.062 206.023,363.775 C 202.024,345.906 200.863,329.361 196.864,315.961 C 192.864,302.559 186.35,292.647 179.706,286.713 C 172.289,280.081 163.903,276.732 154.292,276.592 C 144.617,276.452 135.973,278.547 128.813,284.061 C 121.459,289.436 117.009,298.371 113.526,308.492 C 109.14,320.706 103.399,333.76 101.722,348.279 C 99.657,366.217 102.044,383.877 108.688,398.815 z"
   style="fill:none;stroke:#fd0b12;stroke-width:20" />
					<path
   id="path4666"
   d="M 307.163,299.416 C 298.971,300.603 292.392,306.116 286.715,313.726 C 281.039,321.544 277.427,328.105 274.396,335.784 C 272.332,341.018 270.59,348.907 271.428,361.191 C 272.202,373.617 274.782,389.392 278.719,409.076 C 282.588,428.342 287.941,448.515 297.036,456.333 C 305.034,463.313 315.548,464.709 325.61,460.87 C 335.287,457.17 345.026,447.887 352.314,434.834 C 360.571,420.245 365.602,404.817 368.247,390.718 C 370.763,376.618 371.086,363.774 368.827,353.025 C 366.506,341.717 361.668,332.432 355.475,325.244 C 347.993,316.658 339.672,310.097 331.738,305.559 C 323.353,300.742 314.839,298.229 307.163,299.416 z"
   style="fill:none;stroke:#fd0b12;stroke-width:20" />
					<path
   id="path4668"
   d="M 199.314,720.186 L 202.991,717.813 C 212.86,723.119 221.569,726.12 228.47,727.027 C 238.338,728.283 249.627,726.957 262.205,723.607 C 277.75,718.93 297.617,708.809 321.611,693.452 C 344.058,678.933 361.023,665.74 371.215,654.223 C 381.729,642.496 389.147,631.119 393.532,620.019 C 396.371,612.272 397.724,602.988 397.66,592.796 L 401.272,590.493 C 405.852,614.086 402.756,638.865 391.532,664.414 C 380.567,690.31 362.636,711.182 338.382,726.677 C 314.581,742.034 289.555,748.805 263.623,746.851 C 237.758,744.966 216.021,735.961 199.314,720.186 z"
   style="fill:none;stroke:#fd0b12;stroke-width:20" />
					<path
   id="path4670"
   d="M 45.539,134.263 C 51.28,130.145 56.053,128.888 59.923,130.075 C 63.793,131.262 65.922,135.241 65.793,141.104 C 65.6,147.456 63.02,154.715 58.569,161.975 C 53.861,169.583 48.507,175.796 42.185,180.193 C 36.38,184.241 30.897,185.498 27.478,183.264 C 23.801,180.751 22.511,175.376 23.156,168.745 C 23.865,162.533 26.446,156.041 30.38,150.317 C 34.832,143.687 40.057,138.242 45.539,134.263 z"
   style="fill:none;stroke:#fd0b12;stroke-width:20" />
					<path
   id="path4672"
   d="M 36.638,227.869 C 42.379,223.75 47.475,221.934 50.958,223.192 C 54.506,224.448 55.86,228.497 55.021,234.569 C 54.247,240.572 51.151,247.692 46.571,255.3 C 41.991,262.559 36.637,268.912 31.026,272.89 C 25.285,276.939 20.447,277.916 17.287,275.822 C 13.868,273.658 12.514,268.563 13.159,262.629 C 13.74,256.695 16.384,250.414 20.448,244.551 C 25.221,237.571 30.639,232.126 36.638,227.869 z"
   style="fill:none;stroke:#fd0b12;stroke-width:20" />
					<path
   id="path4674"
   d="M 163.451,138.312 C 151.776,141.872 139.649,145.152 128.232,150.806 C 115.977,156.74 103.915,166.233 91.272,175.586 C 92.626,166.581 93.917,157.438 95.142,148.503 C 107.785,139.219 119.847,129.935 132.296,124.91 C 143.713,120.233 155.71,118.418 167.321,116.184 C 166.224,123.444 164.87,130.913 163.451,138.312 z"
   style="fill:none;stroke:#fd0b12;stroke-width:20" />
				</g>
			</g>
		</g></svg>