<?xml version="1.0" encoding="UTF-8" standalone="no"?>
<!-- Generator: Adobe Illustrator 10, SVG Export Plug-In . SVG Version: 3.0.0 Build 76)  -->
<svg
   xmlns:dc="http://purl.org/dc/elements/1.1/"
   xmlns:cc="http://creativecommons.org/ns#"
   xmlns:rdf="http://www.w3.org/1999/02/22-rdf-syntax-ns#"
   xmlns:svg="http://www.w3.org/2000/svg"
   xmlns="http://www.w3.org/2000/svg"
   xmlns:sodipodi="http://sodipodi.sourceforge.net/DTD/sodipodi-0.dtd"
   xmlns:inkscape="http://www.inkscape.org/namespaces/inkscape"
   width="698.35388"
   height="1000.6006"
   viewBox="0 0 704.531 1077.275"
   style="overflow:visible"
   xml:space="preserve"
   id="svg4683"
   sodipodi:version="0.32"
   inkscape:version="0.46"
   sodipodi:docname="Stars.svg"
   inkscape:output_extension="org.inkscape.output.svg.inkscape"
   version="1.0"><metadata
   id="metadata4741"><rdf:RDF><cc:Work
       rdf:about=""><dc:format>image/svg+xml</dc:format><dc:type
         rdf:resource="http://purl.org/dc/dcmitype/StillImage" /></cc:Work></rdf:RDF></metadata><defs
   id="defs4739"><inkscape:perspective
   sodipodi:type="inkscape:persp3d"
   inkscape:vp_x="0 : 538.63751 : 1"
   inkscape:vp_y="0 : 1000 : 0"
   inkscape:vp_z="704.53101 : 538.63751 : 1"
   inkscape:persp3d-origin="352.2655 : 359.09167 : 1"
   id="perspective4743" />
		
		
	</defs><sodipodi:namedview
   inkscape:window-height="670"
   inkscape:window-width="640"
   inkscape:pageshadow="2"
   inkscape:pageopacity="0.0"
   guidetolerance="10.0"
   gridtolerance="10.0"
   objecttolerance="10.0"
   borderopacity="1.0"
   bordercolor="#666666"
   pagecolor="#ffffff"
   id="base"
   showgrid="false"
   inkscape:zoom="0.42885985"
   inkscape:cx="352.2655"
   inkscape:cy="538.63751"
   inkscape:window-x="0"
   inkscape:window-y="0"
   inkscape:current-layer="svg4683" />
	<style
   type="text/css"
   id="style4685">
	
		@font-face{font-family:'Times-Roman';src:url(F551BC15.cef)}
	
	</style>
	
<g
   transform="matrix(1.0766284,0,0,1.0766284,-30.701997,1.8307607e-2)"
   style="overflow:visible"
   id="g4704">
			<g
   id="g4706">
				<g
   id="g4708">
					<path
   id="path4710"
   d="M 621.238,453.36 C 617.74,449.59 614.242,445.819 610.745,442.049 C 606.881,437.884 596.976,441.159 589.072,449.875 C 583.32,457.397 577.742,465.125 572.274,472.987 C 547.078,472.874 521.816,470.489 496.54,467.49 C 480.589,465.597 463.578,466.665 446.816,469.092 C 447.826,444.847 452.791,420.831 459.484,396.923 C 467.005,370.058 473.959,343.157 478.707,316.13 C 479.727,304.513 475.396,295.064 469.716,295.064 C 464.573,295.064 459.43,295.064 454.287,295.064 C 448.606,295.064 443.672,304.465 442.448,315.902 C 436.75,342.093 428.407,367.769 419.382,393.308 C 410.358,418.844 408.851,449.169 408.859,476.475 C 383.952,482.267 361.675,489.142 336.695,503.53 C 310.31,518.727 283.916,533.219 257.428,545.015 C 246.085,548.82 237.866,555.723 239.114,561.264 C 239.216,561.717 239.318,562.17 239.42,562.623 C 238.944,563.26 238.468,563.896 237.993,564.532 C 238.1,561.394 238.228,558.265 238.389,555.152 C 240.143,543.317 237.72,532.861 232.215,531.46 C 227.231,530.191 222.247,528.924 217.262,527.654 C 211.757,526.254 205.215,534.379 203.306,545.99 C 201.092,573.904 200.99,602.469 201.435,631.22 C 201.88,659.974 200.264,688.062 193.534,714.528 C 186.805,740.993 174.959,765.838 161.044,790.016 C 147.128,814.197 133.756,838.552 122.487,863.574 C 118.633,874.582 120.5,884.807 126.005,886.208 C 130.989,887.478 135.973,888.745 140.957,890.014 C 146.462,891.415 153.563,883.522 157.57,872.74 C 169.552,848.762 183.971,825.938 199.016,803.414 C 214.061,780.89 223.003,751.869 229.731,725.401 C 236.459,698.934 240.981,675.021 239.404,644.613 C 238.29,623.122 237.497,601.79 237.655,580.903 C 239.811,583.612 242.809,586.299 246.492,588.586 C 271.433,601.315 297.785,612.342 324.518,622.934 C 345.393,631.205 365.404,640.494 383.59,651.945 C 371.75,658.576 360.12,665.464 348.831,672.763 C 339.621,679.915 335.639,689.518 339.502,693.683 C 343,697.453 346.498,701.223 349.996,704.994 C 353.859,709.159 364.108,706.383 373.325,699.501 C 387.216,691.293 401.626,683.925 416.314,677.006 C 430.684,690.235 443.589,705.201 455.766,721.027 C 472.78,743.137 490.162,764.813 508.967,784.801 C 517.66,792.572 527.821,794.762 531.223,790.213 C 534.303,786.094 537.382,781.975 540.461,777.856 C 543.863,773.306 539.287,763.724 530.86,755.896 C 513.295,735.649 497.725,713.593 482.673,691.072 C 476.524,681.87 468.968,673.203 460.706,665.045 C 463.708,665.045 466.708,665.045 469.711,665.045 C 475.3,665.045 479.574,655.857 478.746,644.396 C 491.239,635.319 503.047,624.982 513.895,614.913 C 533.91,596.334 550.685,578.703 565.864,552.307 C 574.917,536.567 584.105,521.054 593.641,506.1 C 600.288,503.376 604.34,499 603.441,495.008 C 603.224,494.047 603.008,493.086 602.792,492.124 C 606.326,486.866 609.904,481.679 613.562,476.616 C 621.463,467.622 625.102,457.524 621.238,453.36 z M 351.425,592.977 C 330.515,585.558 309.897,577.883 290.114,569.444 C 307.502,561.366 324.763,552.544 341.983,543.441 C 364.474,531.551 387.234,521.344 410.629,514.987 C 412.114,528.485 414.762,542.187 419.41,557.16 C 426.251,579.198 432.693,601.152 437.889,622.868 C 432.393,625.985 426.805,628.99 421.141,631.903 C 421.133,631.907 421.126,631.911 421.12,631.915 C 399.71,615.991 379.576,602.966 351.425,592.977 z M 489.398,586.13 C 483.266,591.821 476.81,597.121 470.095,602.107 C 466.841,588.344 463.246,574.564 459.507,560.772 C 454.735,543.163 450.837,525.61 448.62,508.155 C 466.118,506.462 483.899,506.485 501.825,507.408 C 517.417,508.211 532.977,508.819 548.465,508.985 C 546.048,512.794 543.64,516.612 541.245,520.448 C 526.015,544.84 509.414,567.553 489.398,586.13 z"
   style="fill:#641643;stroke:#202020;stroke-width:10" />
					<path
   id="path4712"
   d="M 235.762,136.667 C 249.654,134.302 263.574,131.377 277.515,128.103 C 278.682,132.893 283.332,138.83 289.816,143.706 C 309.384,162.025 327.153,182.35 344.455,203.191 C 360.826,222.91 384.327,239.045 406.675,252.577 C 401.438,265.705 396.468,279.044 391.61,292.475 C 381.827,319.517 370.354,345.205 354.674,367.563 C 338.995,389.92 319.107,408.949 297.521,426.62 C 275.934,444.292 254.792,462.32 235.38,481.719 C 227.873,490.643 225.991,500.866 230.642,504.129 C 234.851,507.082 239.061,510.036 243.272,512.99 C 247.922,516.253 257.361,511.39 264.932,502.731 C 284.64,484.563 306.217,468.336 328.273,452.613 C 350.329,436.89 368.983,412.927 384.661,390.568 C 400.339,368.209 413.049,347.454 422.361,318.464 C 427.589,302.189 432.983,286.093 438.761,270.395 C 452.784,277.231 467.561,282.908 485.158,287.163 C 514.754,294.319 543.871,301.991 571.197,311.684 C 582.041,316.739 592.754,317.395 595.666,312.518 C 598.303,308.102 600.939,303.686 603.575,299.27 C 606.487,294.393 600.563,285.806 589.978,280.667 C 563.853,270.59 536.5,262.351 508.815,254.584 C 489.414,249.14 470.619,242.813 453.036,234.703 C 453.071,234.622 453.105,234.539 453.14,234.459 C 458.978,224.016 460.42,213.38 455.771,210.117 C 451.56,207.163 447.351,204.209 443.14,201.255 C 438.49,197.992 429.492,203.269 423.588,213.448 C 422.984,214.726 422.403,216.022 421.808,217.306 C 402.229,204.216 384.712,188.085 368.117,170.61 C 350.971,152.554 333.56,134.883 315.248,118.541 C 316.449,118.22 317.649,117.905 318.85,117.581 C 346.617,110.099 374.243,104.779 401.551,104.814 C 428.86,104.849 455.85,110.242 482.703,117.803 C 509.557,125.365 536.447,132.358 563.469,137.148 C 575.084,138.185 584.541,133.868 584.549,128.188 C 584.557,123.045 584.565,117.902 584.572,112.759 C 584.581,107.078 575.187,102.129 563.752,100.888 C 537.568,95.15 511.904,86.769 486.379,77.705 C 460.854,68.641 430.525,67.089 403.217,67.056 C 375.909,67.023 351.617,68.503 322.523,77.487 C 293.429,86.471 264.483,94.765 236.043,100.408 C 224.139,101.609 214.596,106.522 214.588,112.203 C 214.58,117.346 214.572,122.489 214.565,127.632 C 214.556,133.313 224.038,137.663 235.762,136.667 z"
   style="fill:#641643;stroke:#202020;stroke-width:10" />
				</g>
				<g
   id="g4714">
					<path
   id="path4716"
   d="M 617.238,441.36 C 613.74,437.59 610.242,433.819 606.745,430.049 C 602.881,425.884 592.976,429.159 585.072,437.875 C 579.32,445.397 573.742,453.125 568.274,460.987 C 543.078,460.874 517.816,458.489 492.54,455.49 C 476.589,453.597 459.578,454.665 442.816,457.092 C 443.826,432.847 448.791,408.831 455.484,384.923 C 463.005,358.058 469.959,331.157 474.707,304.13 C 475.727,292.513 471.396,283.064 465.716,283.064 C 460.573,283.064 455.43,283.064 450.287,283.064 C 444.606,283.064 439.672,292.465 438.448,303.902 C 432.75,330.093 424.407,355.769 415.382,381.308 C 406.358,406.844 404.851,437.169 404.859,464.475 C 379.952,470.267 357.675,477.142 332.695,491.53 C 306.31,506.727 279.916,521.219 253.428,533.015 C 242.085,536.82 233.866,543.723 235.114,549.264 C 235.216,549.717 235.318,550.17 235.42,550.623 C 234.944,551.26 234.468,551.896 233.993,552.532 C 234.1,549.394 234.228,546.265 234.389,543.152 C 236.143,531.317 233.72,520.861 228.215,519.46 C 223.231,518.191 218.247,516.924 213.262,515.654 C 207.757,514.254 201.215,522.379 199.306,533.99 C 197.092,561.904 196.99,590.469 197.435,619.22 C 197.88,647.974 196.264,676.062 189.534,702.528 C 182.805,728.993 170.959,753.838 157.044,778.016 C 143.128,802.197 129.756,826.552 118.487,851.574 C 114.633,862.582 116.5,872.807 122.005,874.208 C 126.989,875.478 131.973,876.745 136.957,878.014 C 142.462,879.415 149.563,871.522 153.57,860.74 C 165.552,836.762 179.971,813.938 195.016,791.414 C 210.061,768.89 219.003,739.869 225.731,713.401 C 232.459,686.934 236.981,663.021 235.404,632.613 C 234.29,611.122 233.497,589.79 233.655,568.903 C 235.811,571.612 238.809,574.299 242.492,576.586 C 267.433,589.315 293.785,600.341 320.518,610.934 C 341.393,619.205 361.404,628.494 379.59,639.945 C 367.75,646.576 356.12,653.464 344.831,660.763 C 335.621,667.915 331.639,677.518 335.502,681.683 C 339,685.453 342.498,689.223 345.996,692.994 C 349.859,697.159 360.108,694.383 369.325,687.501 C 383.216,679.293 397.626,671.925 412.314,665.006 C 426.684,678.235 439.589,693.201 451.766,709.027 C 468.78,731.137 486.162,752.813 504.967,772.801 C 513.66,780.572 523.821,782.762 527.223,778.213 C 530.303,774.094 533.382,769.975 536.461,765.856 C 539.863,761.306 535.287,751.724 526.86,743.896 C 509.295,723.649 493.725,701.593 478.673,679.072 C 472.524,669.87 464.968,661.203 456.706,653.045 C 459.708,653.045 462.708,653.045 465.711,653.045 C 471.3,653.045 475.574,643.857 474.746,632.396 C 487.239,623.319 499.047,612.982 509.895,602.913 C 529.91,584.334 546.685,566.703 561.864,540.307 C 570.917,524.567 580.105,509.054 589.641,494.1 C 596.288,491.376 600.34,487 599.441,483.009 C 599.224,482.048 599.008,481.086 598.792,480.125 C 602.326,474.867 605.904,469.68 609.562,464.617 C 617.463,455.622 621.102,445.524 617.238,441.36 z M 347.425,580.977 C 326.515,573.558 305.897,565.883 286.114,557.444 C 303.502,549.366 320.763,540.544 337.983,531.441 C 360.474,519.551 383.234,509.344 406.629,502.987 C 408.114,516.485 410.762,530.187 415.41,545.16 C 422.251,567.198 428.693,589.152 433.889,610.868 C 428.393,613.985 422.805,616.99 417.141,619.903 C 417.133,619.907 417.126,619.911 417.12,619.915 C 395.71,603.991 375.576,590.966 347.425,580.977 z M 485.398,574.13 C 479.266,579.821 472.81,585.121 466.095,590.106 C 462.841,576.344 459.246,562.564 455.507,548.772 C 450.735,531.163 446.837,513.61 444.62,496.155 C 462.118,494.462 479.899,494.485 497.825,495.408 C 513.417,496.211 528.977,496.819 544.465,496.985 C 542.048,500.794 539.64,504.612 537.245,508.448 C 522.015,532.84 505.414,555.553 485.398,574.13 z"
   style="fill:#66bb50;stroke:#404040;stroke-width:10" />
					<path
   id="path4718"
   d="M 231.762,124.667 C 245.654,122.302 259.574,119.377 273.515,116.103 C 274.682,120.893 279.332,126.83 285.816,131.706 C 305.384,150.025 323.153,170.35 340.455,191.191 C 356.826,210.91 380.327,227.045 402.675,240.577 C 397.438,253.705 392.468,267.044 387.61,280.475 C 377.827,307.517 366.354,333.205 350.674,355.563 C 334.995,377.92 315.107,396.949 293.521,414.62 C 271.934,432.292 250.792,450.32 231.38,469.719 C 223.873,478.643 221.991,488.866 226.642,492.129 C 230.851,495.082 235.061,498.036 239.272,500.99 C 243.922,504.253 253.361,499.39 260.932,490.731 C 280.64,472.563 302.217,456.336 324.273,440.613 C 346.329,424.89 364.983,400.927 380.661,378.568 C 396.339,356.209 409.049,335.454 418.361,306.464 C 423.589,290.189 428.983,274.093 434.761,258.395 C 448.784,265.231 463.561,270.908 481.158,275.163 C 510.754,282.319 539.871,289.991 567.197,299.684 C 578.041,304.739 588.754,305.395 591.666,300.518 C 594.303,296.102 596.939,291.686 599.575,287.27 C 602.487,282.393 596.563,273.806 585.978,268.667 C 559.853,258.59 532.5,250.351 504.815,242.584 C 485.414,237.14 466.619,230.813 449.036,222.703 C 449.071,222.622 449.105,222.539 449.14,222.459 C 454.978,212.016 456.42,201.38 451.771,198.117 C 447.56,195.163 443.351,192.209 439.14,189.255 C 434.49,185.992 425.492,191.269 419.588,201.448 C 418.984,202.726 418.403,204.022 417.808,205.306 C 398.229,192.216 380.712,176.085 364.117,158.61 C 346.971,140.554 329.56,122.883 311.248,106.541 C 312.449,106.22 313.649,105.905 314.85,105.581 C 342.617,98.099 370.243,92.779 397.551,92.814 C 424.86,92.849 451.85,98.242 478.703,105.803 C 505.557,113.365 532.447,120.358 559.469,125.148 C 571.084,126.185 580.541,121.868 580.549,116.188 C 580.557,111.045 580.565,105.902 580.572,100.759 C 580.581,95.078 571.187,90.129 559.752,88.888 C 533.568,83.15 507.904,74.769 482.379,65.705 C 456.854,56.641 426.525,55.089 399.217,55.056 C 371.909,55.023 347.617,56.503 318.523,65.487 C 289.429,74.471 260.483,82.765 232.043,88.408 C 220.139,89.609 210.596,94.522 210.588,100.203 C 210.58,105.346 210.572,110.489 210.565,115.632 C 210.556,121.313 220.038,125.663 231.762,124.667 z"
   style="fill:#66bb50;stroke:#404040;stroke-width:10" />
				</g>
			</g>
			<g
   id="g4720">
				<g
   id="g4722">
					<path
   id="path4724"
   d="M 641.479,749.954 C 638.389,747.643 635.176,745.434 631.81,743.36 C 628.444,741.286 624.94,739.32 621.34,737.446 C 617.74,735.571 614.057,733.758 610.334,731.987 C 606.61,730.216 602.861,728.462 599.124,726.701 C 595.387,724.94 591.683,723.151 588.042,721.306 C 584.401,719.46 580.852,717.541 577.42,715.52 C 573.988,713.499 570.704,711.357 567.593,709.065 C 564.482,706.772 561.569,704.309 558.885,701.655 C 556.202,699.001 553.741,696.151 551.479,693.137 C 549.217,690.124 547.131,686.971 545.18,683.692 C 543.231,680.413 541.401,677.04 539.655,673.59 C 537.908,670.142 536.225,666.646 534.569,663.118 C 532.913,659.592 531.257,656.058 529.582,652.549 C 527.905,649.039 526.185,645.577 524.378,642.177 C 522.571,638.778 520.663,635.471 518.616,632.277 C 516.567,629.083 514.356,626.023 512.026,623.07 C 509.252,619.899 504.542,619.878 501.756,622.966 C 499.104,626.083 496.519,629.281 494.05,632.594 C 491.582,635.906 489.21,639.317 486.924,642.81 C 484.637,646.304 482.442,649.879 480.313,653.509 C 478.185,657.139 476.118,660.814 474.116,664.529 C 472.115,668.245 470.155,671.98 468.237,675.723 C 466.319,679.467 464.444,683.211 462.587,686.939 C 460.73,690.666 458.886,694.366 457.052,698.023 C 455.218,701.679 453.397,705.284 450.554,708.192 C 447.711,711.101 443.855,713.31 439.999,715.462 C 436.143,717.615 432.296,719.726 428.46,721.808 C 424.626,723.891 420.819,725.958 417.046,728.023 C 413.274,730.087 409.544,732.16 405.859,734.255 C 402.174,736.353 398.534,738.483 394.97,740.661 C 392.164,742.377 389.424,744.143 386.718,745.94 C 386.308,745.171 385.903,744.399 385.489,743.633 C 383.492,739.931 381.47,736.264 379.454,732.62 C 377.436,728.976 375.433,725.36 373.462,721.776 C 371.489,718.193 369.552,714.649 368.768,710.658 C 367.984,706.668 368.35,702.239 368.764,697.843 C 369.176,693.446 369.619,689.08 370.077,684.74 C 370.536,680.4 370.99,676.093 371.43,671.814 C 371.868,667.535 372.276,663.288 372.637,659.064 C 372.998,654.841 373.309,650.634 373.533,646.463 C 373.757,642.292 373.887,638.155 373.911,634.04 C 373.934,629.926 373.846,625.825 373.61,621.76 C 373.375,617.696 372.991,613.65 372.497,609.622 C 371.871,605.536 367.915,602.944 363.842,604.162 C 360.252,605.488 356.699,607.013 353.202,608.797 C 349.704,610.581 346.248,612.587 342.829,614.763 C 339.411,616.939 336.012,619.249 332.633,621.641 C 329.253,624.033 325.874,626.476 322.501,628.898 C 319.128,631.32 315.747,633.69 312.342,635.968 C 308.937,638.246 305.511,640.375 302.042,642.322 C 298.574,644.27 295.062,645.993 291.495,647.427 C 287.929,648.862 284.296,649.986 280.594,650.735 C 276.892,651.485 273.12,651.857 269.282,651.905 C 265.443,651.953 261.549,651.73 257.609,651.259 C 256.808,651.163 256.004,651.054 255.2,650.943 C 255.329,650.558 255.47,650.183 255.596,649.797 C 256.862,645.941 258.053,642.013 259.195,638.051 C 260.337,634.089 261.46,630.106 262.591,626.131 C 263.721,622.157 264.885,618.212 266.114,614.32 C 267.343,610.428 268.66,606.614 270.097,602.899 C 271.534,599.184 273.115,595.596 274.871,592.155 C 276.627,588.712 278.585,585.436 280.768,582.358 C 282.952,579.28 285.363,576.389 287.969,573.668 C 290.574,570.946 293.348,568.376 296.266,565.919 C 299.184,563.462 302.216,561.108 305.335,558.825 C 308.454,556.542 311.63,554.314 314.841,552.106 C 318.052,549.899 321.269,547.692 324.461,545.469 C 327.652,543.244 330.789,540.985 333.85,538.649 C 336.911,536.314 339.863,533.895 342.683,531.356 C 345.502,528.817 348.162,526.137 350.698,523.358 C 353.376,520.106 352.633,515.456 349.133,513.208 C 345.627,511.099 342.05,509.067 338.382,507.169 C 334.713,505.272 330.963,503.485 327.144,501.796 C 323.325,500.108 319.441,498.523 315.514,497.012 C 311.587,495.501 307.626,494.058 303.635,492.687 C 299.643,491.316 295.639,489.988 291.634,488.704 C 287.629,487.42 283.629,486.177 279.65,484.95 C 275.671,483.722 271.721,482.504 267.815,481.289 C 263.909,480.073 260.056,478.862 256.725,476.529 C 253.393,474.196 250.588,470.75 247.837,467.295 C 245.087,463.839 242.38,460.387 239.702,456.941 C 237.024,453.495 234.366,450.075 231.716,446.688 C 229.067,443.301 226.416,439.957 223.749,436.662 C 221.082,433.368 218.389,430.12 215.66,426.958 C 212.931,423.796 210.157,420.725 207.322,417.743 C 204.487,414.761 201.58,411.868 198.593,409.1 C 195.606,406.333 192.524,403.683 189.377,401.123 C 186.094,398.612 181.446,399.486 179.355,403.187 C 177.687,406.632 176.183,410.192 174.899,413.903 C 173.615,417.614 172.514,421.454 171.558,425.392 C 170.602,429.33 169.755,433.351 168.977,437.417 C 168.198,441.483 167.456,445.586 166.705,449.67 C 165.954,453.754 165.159,457.806 164.285,461.808 C 163.41,465.81 162.416,469.72 161.266,473.528 C 160.116,477.336 158.779,481.012 157.203,484.518 C 155.626,488.024 153.787,491.352 151.639,494.459 C 149.491,497.565 147.03,500.448 144.296,503.144 C 141.563,505.839 138.602,508.377 135.435,510.77 C 132.268,513.164 128.938,515.437 125.487,517.628 C 122.036,519.82 118.507,521.956 114.924,524.058 C 111.341,526.158 107.743,528.244 104.174,530.353 C 100.605,532.462 97.11,534.624 93.708,536.851 C 90.307,539.078 87.053,541.408 83.972,543.86 C 80.89,546.312 78.023,548.91 75.324,551.635 C 72.515,554.831 73.224,559.514 76.656,561.921 C 80.113,564.217 83.905,566.095 87.852,567.81 C 91.799,569.525 95.887,571.11 100.075,572.585 C 104.263,574.06 108.532,575.454 112.853,576.803 C 117.175,578.15 121.528,579.478 125.867,580.802 C 130.206,582.126 134.52,583.482 138.772,584.896 C 143.024,586.311 147.188,587.807 151.24,589.419 C 155.292,591.031 159.212,592.787 162.956,594.708 C 166.701,596.63 170.247,598.741 173.575,601.078 C 176.904,603.415 180.009,605.974 182.919,608.724 C 185.829,611.474 188.57,614.394 191.173,617.453 C 193.776,620.512 196.263,623.684 198.666,626.939 C 201.069,630.195 203.412,633.509 205.727,636.853 C 206.68,638.23 207.64,639.601 208.594,640.979 C 204.892,640.304 201.219,639.776 197.581,639.435 C 193.66,639.066 189.792,638.951 185.958,639.043 C 181.718,639.4 178.982,643.267 179.787,647.38 C 180.687,651.432 182.119,655.414 183.774,659.386 C 185.43,663.359 187.278,667.334 189.274,671.301 C 191.27,675.268 193.38,679.232 195.561,683.198 C 197.742,687.166 199.959,691.14 202.168,695.101 C 204.377,699.063 206.547,703.032 208.631,706.998 C 210.715,710.965 212.679,714.93 214.483,718.9 C 216.286,722.872 217.894,726.854 219.261,730.835 C 220.628,734.816 221.72,738.796 222.499,742.787 C 223.278,746.779 223.744,750.775 223.935,754.774 C 224.125,758.774 224.078,762.779 223.833,766.787 C 223.588,770.796 223.183,774.808 222.657,778.82 C 222.132,782.833 221.524,786.844 220.874,790.859 C 220.282,794.52 219.688,798.185 219.118,801.845 C 218.474,801.837 217.832,801.818 217.188,801.815 C 212.98,801.795 208.765,801.85 204.546,801.984 C 200.327,802.118 196.113,802.296 191.913,802.516 C 187.712,802.737 183.533,802.994 179.376,803.257 C 175.219,803.52 171.095,803.782 167.012,804.031 C 162.929,804.28 158.897,804.514 154.954,803.514 C 151.012,802.515 147.166,800.287 143.369,798.033 C 139.572,795.778 135.816,793.51 132.091,791.237 C 128.365,788.966 124.666,786.711 120.987,784.483 C 117.308,782.256 113.643,780.069 109.982,777.935 C 106.32,775.8 102.65,773.719 98.977,771.731 C 95.304,769.743 91.621,767.856 87.912,766.073 C 84.204,764.291 80.459,762.616 76.685,761.089 C 72.911,759.562 69.089,758.177 65.239,756.9 C 61.279,755.717 57.242,758.183 56.6,762.385 C 56.262,766.198 56.119,770.06 56.235,773.985 C 56.35,777.911 56.683,781.891 57.186,785.913 C 57.69,789.934 58.324,793.994 59.039,798.072 C 59.753,802.15 60.515,806.25 61.261,810.334 C 62.007,814.42 62.701,818.49 63.303,822.542 C 63.905,826.595 64.362,830.602 64.637,834.57 C 64.912,838.538 64.967,842.45 64.737,846.287 C 64.507,850.125 63.967,853.889 63.061,857.555 C 62.154,861.222 60.875,864.79 59.276,868.28 C 57.676,871.77 55.808,875.193 53.696,878.554 C 51.584,881.913 49.277,885.221 46.828,888.494 C 44.379,891.767 41.836,895.016 39.232,898.251 C 36.627,901.486 34.003,904.712 31.414,907.95 C 28.825,911.188 26.324,914.45 23.933,917.738 C 21.542,921.027 19.327,924.359 17.316,927.745 C 15.304,931.131 13.545,934.578 11.988,938.082 C 10.495,942.066 12.819,946.194 16.881,947.228 C 20.928,948.149 25.14,948.559 29.438,948.763 C 33.737,948.966 38.121,948.997 42.561,948.892 C 47,948.786 51.486,948.576 56.004,948.303 C 60.523,948.03 65.064,947.728 69.59,947.426 C 74.116,947.125 78.632,946.863 83.108,946.677 C 87.586,946.491 92.01,946.412 96.37,946.484 C 100.73,946.554 105.018,946.805 109.201,947.274 C 113.384,947.742 117.449,948.459 121.389,949.462 C 125.33,950.466 129.141,951.757 132.837,953.296 C 136.533,954.835 140.132,956.593 143.65,958.529 C 147.168,960.466 150.62,962.55 154.021,964.741 C 157.422,966.933 160.789,969.2 164.139,971.507 C 167.49,973.812 170.842,976.126 174.203,978.404 C 177.565,980.682 180.955,982.895 184.395,985.005 C 187.835,987.116 191.337,989.091 194.915,990.889 C 198.492,992.688 202.169,994.284 206.003,995.362 C 209.972,996.372 213.949,993.838 214.648,989.616 C 215.096,985.784 215.395,981.896 215.5,977.944 C 215.605,973.992 215.546,969.974 215.361,965.921 C 215.176,961.866 214.896,957.771 214.559,953.662 C 214.223,949.552 213.858,945.43 213.506,941.312 C 213.153,937.195 212.842,933.094 212.611,929.019 C 212.38,924.945 212.258,920.912 212.285,916.928 C 212.312,912.944 212.516,909.03 212.937,905.188 C 213.358,901.347 214.026,897.59 214.976,893.938 C 215.926,890.285 217.155,886.726 218.626,883.258 C 220.097,879.788 221.778,876.403 223.636,873.07 C 225.493,869.738 227.493,866.462 229.599,863.22 C 231.705,859.979 233.886,856.77 236.104,853.567 C 238.323,850.364 240.549,847.159 242.744,843.948 C 244.938,840.738 247.07,837.512 249.104,834.243 C 249.155,834.161 249.204,834.079 249.254,833.997 C 252.369,832.321 255.483,830.584 258.586,828.79 C 262.156,826.727 265.726,824.634 269.296,822.553 C 272.866,820.472 276.439,818.437 280.023,816.483 C 283.606,814.53 287.2,812.694 290.811,811.013 C 294.422,809.331 298.047,807.841 301.7,806.577 C 305.352,805.313 309.033,804.309 312.741,803.605 C 316.449,802.9 320.191,802.487 323.956,802.332 C 327.721,802.177 331.501,802.247 335.308,802.499 C 339.115,802.751 342.932,803.156 346.763,803.673 C 350.594,804.19 354.427,804.786 358.272,805.421 C 362.117,806.055 365.965,806.695 369.806,807.305 C 373.648,807.913 377.476,808.459 381.3,808.898 C 385.126,809.337 388.931,809.639 392.723,809.764 C 396.515,809.889 400.289,809.801 404.043,809.555 C 408.228,809.069 410.916,805.201 409.95,801.155 C 409.113,798.048 408.208,794.945 407.214,791.859 C 407.955,792.125 408.696,792.39 409.436,792.656 C 413.343,794.061 417.213,795.503 421.02,797.015 C 424.828,798.529 428.523,800.145 432.093,801.898 C 435.663,803.651 439.074,805.568 442.279,807.693 C 445.482,809.818 448.468,812.172 451.184,814.797 C 453.9,817.421 456.345,820.318 458.56,823.452 C 460.776,826.588 462.8,829.922 464.646,833.434 C 466.493,836.947 468.197,840.602 469.798,844.363 C 471.401,848.126 472.935,851.955 474.425,855.831 C 475.917,859.708 477.39,863.597 478.892,867.46 C 480.394,871.325 481.96,875.125 483.605,878.843 C 485.248,882.562 487.019,886.151 488.939,889.589 C 490.858,893.028 492.956,896.279 495.207,899.385 C 497.904,902.676 502.64,902.738 505.572,899.742 C 508.399,896.704 510.868,893.266 513.201,889.65 C 515.535,886.034 517.763,882.258 519.898,878.365 C 522.035,874.471 524.103,870.487 526.135,866.441 C 528.167,862.395 530.184,858.316 532.195,854.25 C 534.206,850.184 536.245,846.146 538.332,842.181 C 540.418,838.216 542.57,834.35 544.819,830.614 C 547.068,826.877 549.437,823.295 551.941,819.912 C 554.445,816.529 557.105,813.373 559.951,810.469 C 562.798,807.564 565.826,804.915 569.013,802.49 C 572.2,800.065 575.526,797.835 578.966,795.763 C 582.406,793.691 585.942,791.751 589.544,789.909 C 593.146,788.067 596.797,786.293 600.473,784.553 C 604.149,782.812 607.833,781.074 611.491,779.31 C 615.149,777.544 618.764,775.723 622.315,773.806 C 625.868,771.889 629.333,769.852 632.684,767.66 C 636.035,765.468 639.26,763.089 642.116,760.313 C 644.975,757.389 644.779,752.677 641.479,749.954 z M 202.054,589.745 C 198.489,586.535 194.372,583.341 190.022,580.281 C 185.671,577.22 181.171,574.11 176.421,571.277 C 171.671,568.444 166.701,565.832 161.988,563.688 C 157.275,561.543 152.571,559.623 147.81,557.788 C 143.049,555.952 138.26,554.153 133.479,552.347 C 131.049,551.415 130.845,549.285 133.03,547.611 C 136.983,544.652 140.947,541.705 144.895,538.744 C 148.844,535.785 152.711,532.765 156.441,529.652 C 160.171,526.539 163.719,523.297 167.003,519.871 C 170.288,516.445 173.259,512.798 175.876,508.902 C 178.492,505.007 180.84,500.748 182.967,496.209 C 185.093,491.672 186.823,487.198 188.389,482.625 C 189.955,478.051 191.404,473.398 192.804,468.704 C 194.204,464.01 195.608,459.331 197.049,454.663 C 197.882,452.072 200.1,451.41 201.965,453.203 C 205.59,456.766 209.175,460.386 212.707,464.083 C 216.24,467.78 219.727,471.54 223.176,475.356 C 226.625,479.172 230.043,483.03 233.444,486.916 C 236.844,490.801 240.609,494.981 245.219,497.569 C 249.829,500.157 254.75,502.053 259.419,503.811 C 264.087,505.57 268.757,507.391 273.422,509.277 C 278.087,511.163 282.733,513.12 287.349,515.164 C 291.965,517.208 296.537,519.351 301.076,521.563 C 303.379,522.709 303.66,525.116 301.708,526.891 C 298.187,530.041 294.646,533.159 291.1,536.282 C 287.554,539.407 284.04,542.557 280.605,545.772 C 277.169,548.988 273.844,552.312 270.535,555.971 C 267.226,559.629 264.101,563.471 261.214,567.514 C 258.326,571.556 255.684,575.821 253.248,580.274 C 250.811,584.729 248.642,589.2 246.705,593.645 C 244.767,598.089 242.935,602.605 241.154,607.159 C 239.372,611.713 237.61,616.277 235.831,620.834 C 234.824,623.375 232.677,623.92 231.062,622.046 C 227.93,618.333 224.826,614.601 221.722,610.881 C 218.618,607.161 215.474,603.496 212.234,599.935 C 208.995,596.372 205.618,592.956 202.054,589.745 z M 214.876,834.648 C 212.702,838.842 210.497,843.012 208.29,847.191 C 206.082,851.37 203.915,855.561 201.843,859.786 C 199.772,864.012 197.842,868.299 196.045,872.893 C 194.248,877.487 192.69,882.189 191.424,886.993 C 190.158,891.796 189.2,896.72 188.502,901.749 C 187.804,906.778 187.361,911.728 187.126,916.571 C 186.891,921.414 186.779,926.286 186.729,931.175 C 186.679,936.066 186.65,940.958 186.603,945.849 C 186.563,948.582 184.749,949.854 182.575,948.673 C 178.329,946.313 174.103,943.924 169.882,941.548 C 165.66,939.17 161.422,936.858 157.129,934.678 C 152.836,932.498 148.468,930.503 143.996,928.765 C 139.524,927.028 134.542,925.502 129.39,924.183 C 124.237,922.866 118.926,921.553 113.48,920.589 C 108.033,919.625 102.46,918.945 97.293,918.612 C 92.126,918.279 87.046,918.152 81.944,918.124 C 76.842,918.098 71.726,918.113 66.615,918.12 C 64.012,918.111 63.065,916.191 64.515,913.851 C 67.161,909.681 69.822,905.52 72.464,901.352 C 75.107,897.184 77.652,892.99 80.035,888.756 C 82.419,884.522 84.585,880.232 86.441,875.863 C 88.297,871.494 89.782,867.03 90.847,862.461 C 91.912,857.892 92.596,853.074 92.974,848.077 C 93.353,843.081 93.383,838.285 93.226,833.452 C 93.068,828.621 92.772,823.756 92.415,818.871 C 92.059,813.985 91.712,809.113 91.404,804.238 C 91.263,801.52 93.102,800.114 95.481,801.129 C 100.134,803.175 104.771,805.287 109.385,807.491 C 113.999,809.695 118.593,811.972 123.172,814.318 C 127.751,816.663 132.315,819.056 136.872,821.484 C 141.43,823.91 146.432,826.483 151.66,827.267 C 156.889,828.051 162.162,828.079 167.151,828.068 C 172.139,828.055 177.152,828.102 182.182,828.21 C 187.213,828.318 192.25,828.502 197.291,828.775 C 202.332,829.047 207.367,829.43 212.395,829.888 C 214.955,830.145 216.071,832.294 214.876,834.648 z M 366.283,778.141 C 361.561,777.97 356.848,777.764 352.127,777.556 C 347.405,777.35 342.689,777.185 337.984,777.121 C 333.279,777.058 328.578,777.147 323.657,777.491 C 318.736,777.835 313.82,778.437 308.937,779.349 C 304.053,780.261 299.193,781.502 294.35,783.025 C 289.506,784.546 284.843,786.264 280.365,788.126 C 275.887,789.985 271.437,791.97 266.996,794.018 C 262.555,796.066 258.121,798.133 253.681,800.184 C 251.193,801.319 249.268,800.223 249.404,797.752 C 249.719,792.905 250.07,788.064 250.411,783.231 C 250.752,778.398 251.028,773.577 251.161,768.764 C 251.294,763.951 251.228,759.149 250.884,754.364 C 250.54,749.579 249.787,744.424 248.773,739.202 C 247.759,733.98 246.671,728.62 245.211,723.284 C 243.751,717.949 241.98,712.622 240.069,707.809 C 238.158,702.996 236.099,698.351 233.94,693.728 C 231.781,689.106 229.577,684.489 227.383,679.873 C 226.277,677.517 227.607,675.84 230.342,676.147 C 235.242,676.754 240.142,677.377 245.04,677.982 C 249.938,678.586 254.818,679.09 259.665,679.432 C 264.512,679.775 269.316,679.896 274.059,679.703 C 278.802,679.512 283.472,678.942 288.057,677.949 C 292.643,676.956 297.288,675.511 301.967,673.716 C 306.646,671.919 310.993,669.894 315.292,667.684 C 319.591,665.473 323.861,663.123 328.124,660.71 C 332.387,658.297 336.642,655.898 340.916,653.533 C 343.312,652.242 345.37,653.302 345.471,655.887 C 345.613,660.969 345.689,666.063 345.672,671.176 C 345.655,676.289 345.563,681.416 345.403,686.559 C 345.243,691.7 345.032,696.85 344.791,702.007 C 344.549,707.165 344.364,712.787 345.893,717.848 C 347.422,722.91 349.654,727.688 351.8,732.192 C 353.946,736.695 356.05,741.245 358.105,745.838 C 360.161,750.431 362.152,755.062 364.062,759.735 C 364.433,760.641 364.783,761.556 365.146,762.465 C 362.204,765.303 362.33,769.98 365.618,772.625 C 366.966,773.574 368.346,774.492 369.748,775.385 C 369.658,777.04 368.333,778.198 366.283,778.141 z M 589.968,757.145 C 585.797,759.633 581.61,762.089 577.435,764.548 C 573.26,767.007 569.133,769.513 565.092,772.132 C 561.053,774.751 557.135,777.528 553.387,780.524 C 549.641,783.52 545.821,787.064 542.094,790.859 C 538.367,794.655 534.569,798.589 531.001,802.818 C 527.434,807.045 524.049,811.524 521.168,815.827 C 518.287,820.129 515.628,824.458 513.044,828.858 C 510.459,833.257 507.906,837.69 505.347,842.115 C 504.034,844.361 501.898,844.218 500.6,841.789 C 498.323,837.408 496.059,833.018 493.78,828.641 C 491.501,824.264 489.149,819.957 486.684,815.771 C 484.217,811.585 481.593,807.558 478.746,803.76 C 475.9,799.962 472.783,796.439 469.365,793.224 C 465.947,790.009 462.124,787.001 457.992,784.165 C 453.859,781.329 449.726,778.896 445.468,776.608 C 441.209,774.319 436.854,772.134 432.449,769.991 C 428.044,767.848 423.655,765.703 419.284,763.522 C 416.863,762.28 416.569,759.983 418.64,758.434 C 422.745,755.436 426.9,752.486 431.12,749.601 C 435.343,746.716 439.618,743.885 443.944,741.102 C 448.27,738.319 452.632,735.573 457.017,732.848 C 461.404,730.123 466.139,727.088 469.442,722.959 C 472.744,718.83 475.415,714.283 477.908,709.961 C 480.401,705.64 482.957,701.328 485.575,697.031 C 488.193,692.734 490.88,688.469 493.645,684.246 C 496.412,680.022 499.269,675.859 502.189,671.74 C 503.695,669.654 506.114,669.767 507.549,671.981 C 510.086,675.967 512.586,679.967 515.093,683.974 C 517.6,687.98 520.138,691.958 522.752,695.87 C 525.367,699.781 528.107,703.602 531.18,707.463 C 534.252,711.322 537.536,715.029 541.057,718.535 C 544.577,722.041 548.354,725.341 552.354,728.468 C 556.354,731.596 560.413,734.463 564.484,737.097 C 568.555,739.731 572.713,742.272 576.917,744.769 C 581.122,747.267 585.339,749.747 589.546,752.243 C 591.892,753.649 592.08,755.857 589.968,757.145 z"
   style="fill:#120077;stroke:#002b2d;stroke-width:10" />
					<path
   id="path4726"
   d="M 695.285,575.027 C 694.269,571.003 692.724,567.063 690.957,563.139 C 689.187,559.217 687.228,555.295 685.119,551.387 C 683.012,547.478 680.789,543.575 678.496,539.672 C 676.203,535.769 673.874,531.86 671.553,527.961 C 669.232,524.065 666.949,520.16 664.754,516.254 C 662.557,512.348 660.481,508.441 658.565,504.523 C 656.651,500.605 654.93,496.67 653.45,492.73 C 651.97,488.79 650.764,484.843 649.872,480.875 C 648.98,476.907 648.401,472.926 648.097,468.933 C 647.793,464.94 647.726,460.936 647.856,456.922 C 647.986,452.908 648.277,448.887 648.688,444.861 C 649.098,440.835 649.592,436.807 650.126,432.775 C 650.662,428.743 651.204,424.706 651.709,420.676 C 652.215,416.647 652.648,412.622 652.969,408.598 C 653.289,404.575 653.461,400.558 653.442,396.555 C 653.423,392.552 653.176,388.55 652.398,384.645 C 651.498,380.649 647.435,378.254 643.355,379.547 C 639.738,380.885 636.137,382.382 632.568,384.082 C 628.998,385.782 625.443,387.657 621.914,389.66 C 618.385,391.664 614.862,393.771 611.353,395.935 C 607.843,398.099 604.333,400.293 600.825,402.476 C 597.316,404.658 593.803,406.795 590.275,408.849 C 586.749,410.904 583.21,412.842 579.648,414.624 C 576.086,416.407 572.503,418.001 568.889,419.368 C 565.275,420.735 561.622,421.844 557.937,422.654 C 554.252,423.464 550.523,423.983 546.763,424.246 C 543.005,424.508 539.224,424.546 535.411,424.402 C 531.598,424.258 527.772,423.962 523.928,423.555 C 520.083,423.148 516.236,422.66 512.374,422.136 C 508.513,421.611 504.647,421.081 500.79,420.582 C 496.934,420.082 493.091,419.646 489.255,419.316 C 485.419,418.986 481.608,418.792 477.814,418.776 C 474.019,418.76 470.249,418.954 466.503,419.307 C 462.333,419.913 459.758,423.855 460.837,427.872 C 462.014,431.791 463.295,435.7 464.735,439.572 C 466.174,443.444 467.749,447.288 469.44,451.105 C 471.131,454.923 472.941,458.709 474.833,462.467 C 476.725,466.226 478.685,469.958 480.718,473.657 C 482.751,477.355 484.822,481.031 486.923,484.674 C 489.024,488.317 491.15,491.926 493.27,495.51 C 495.39,499.094 497.496,502.653 499.569,506.178 C 501.643,509.704 503.68,513.192 504.578,517.158 C 505.476,521.125 505.235,525.562 504.947,529.969 C 504.66,534.376 504.343,538.752 504.008,543.104 C 503.673,547.456 503.341,551.774 503.026,556.063 C 502.71,560.352 502.422,564.61 502.182,568.841 C 501.94,573.072 501.75,577.287 501.645,581.463 C 501.539,585.638 501.528,589.776 501.621,593.891 C 501.715,598.004 501.921,602.101 502.272,606.157 C 502.623,610.214 503.122,614.249 503.73,618.259 C 504.472,622.325 508.501,624.804 512.537,623.47 C 516.089,622.042 519.595,620.418 523.041,618.534 C 526.486,616.65 529.884,614.549 533.239,612.275 C 536.594,610.003 539.926,607.596 543.235,605.109 C 546.546,602.624 549.853,600.085 553.156,597.567 C 556.459,595.049 559.77,592.585 563.109,590.21 C 566.448,587.836 569.811,585.61 573.223,583.565 C 576.635,581.52 580.096,579.698 583.62,578.162 C 587.144,576.626 590.744,575.399 594.423,574.544 C 598.102,573.69 601.861,573.21 605.697,573.054 C 609.533,572.897 613.431,573.009 617.385,573.366 C 621.336,573.723 625.33,574.28 629.36,574.977 C 633.388,575.675 637.436,576.467 641.501,577.321 C 645.565,578.175 649.632,579.051 653.691,579.889 C 657.75,580.727 661.794,581.477 665.807,582.116 C 669.823,582.757 673.797,583.219 677.727,583.475 C 681.657,583.731 685.527,583.737 689.356,583.534 C 693.582,583.059 696.206,579.116 695.285,575.027 z M 643.929,547.713 C 639.014,547.246 634.098,546.763 629.184,546.299 C 624.272,545.834 619.379,545.469 614.525,545.265 C 609.671,545.061 604.864,545.077 600.129,545.404 C 595.394,545.731 590.742,546.433 586.187,547.557 C 581.631,548.68 577.029,550.256 572.403,552.185 C 567.778,554.114 563.49,556.262 559.255,558.594 C 555.021,560.927 550.82,563.397 546.628,565.93 C 542.435,568.463 538.251,570.984 534.046,573.469 C 531.687,574.827 529.6,573.826 529.425,571.245 C 529.138,566.17 528.917,561.08 528.788,555.969 C 528.659,550.857 528.605,545.729 528.618,540.585 C 528.632,535.441 528.695,530.287 528.79,525.125 C 528.886,519.962 528.909,514.337 527.237,509.322 C 525.563,504.306 523.197,499.593 520.924,495.152 C 518.651,490.713 516.418,486.224 514.233,481.692 C 512.047,477.16 509.925,472.587 507.882,467.971 C 505.839,463.354 503.896,458.694 502.024,454.005 C 501.09,451.607 502.5,449.637 505.138,449.635 C 509.863,449.671 514.579,449.743 519.306,449.816 C 524.031,449.888 528.75,449.919 533.454,449.848 C 538.159,449.778 542.856,449.554 547.766,449.07 C 552.676,448.586 557.572,447.843 562.427,446.793 C 567.282,445.742 572.105,444.362 576.904,442.704 C 581.703,441.045 586.315,439.194 590.738,437.207 C 595.16,435.22 599.552,433.109 603.933,430.936 C 608.314,428.763 612.687,426.569 617.068,424.393 C 619.521,423.188 621.477,424.228 621.412,426.702 C 621.234,431.556 621.022,436.406 620.819,441.246 C 620.615,446.086 620.478,450.913 620.482,455.728 C 620.486,460.543 620.689,465.341 621.17,470.115 C 621.649,474.888 622.549,480.02 623.711,485.21 C 624.874,490.401 626.114,495.729 627.726,501.02 C 629.336,506.311 631.26,511.586 633.307,516.342 C 635.354,521.098 637.543,525.683 639.834,530.242 C 642.123,534.801 644.459,539.353 646.783,543.905 C 647.953,546.229 646.673,547.944 643.929,547.713 z"
   style="fill:#120077;stroke:#002b2d;stroke-width:10" />
					<path
   id="path4728"
   d="M 670.907,204.732 C 669.717,200.454 668.412,196.157 667.04,191.843 C 665.668,187.529 664.261,183.2 662.859,178.886 C 661.457,174.572 660.095,170.259 658.818,165.964 C 657.541,161.669 656.38,157.399 655.379,153.154 C 654.378,148.909 653.57,144.691 652.998,140.522 C 652.426,136.352 652.125,132.236 652.133,128.169 C 652.14,124.102 652.456,120.091 653.042,116.13 C 653.629,112.169 654.449,108.249 655.465,104.363 C 656.479,100.477 657.653,96.62 658.944,92.785 C 660.235,88.95 661.607,85.131 663.021,81.317 C 664.435,77.503 665.857,73.686 667.242,69.868 C 668.626,66.05 669.939,62.222 671.141,58.368 C 672.343,54.515 673.4,50.637 674.266,46.728 C 675.132,42.818 675.779,38.863 675.883,34.882 C 675.89,30.786 672.456,27.552 668.193,27.91 C 664.369,28.414 660.527,29.078 656.669,29.946 C 652.812,30.814 648.932,31.856 645.046,33.029 C 641.161,34.202 637.26,35.477 633.358,36.811 C 629.458,38.145 625.549,39.509 621.645,40.86 C 617.74,42.211 613.84,43.518 609.947,44.741 C 606.053,45.965 602.173,47.072 598.305,48.022 C 594.436,48.973 590.591,49.735 586.763,50.268 C 582.936,50.801 579.129,51.075 575.356,51.049 C 571.583,51.024 567.831,50.705 564.108,50.13 C 560.383,49.554 556.688,48.755 553.003,47.771 C 549.316,46.788 545.649,45.652 541.991,44.405 C 538.332,43.158 534.686,41.831 531.038,40.465 C 527.388,39.099 523.735,37.727 520.085,36.386 C 516.435,35.045 512.784,33.77 509.116,32.6 C 505.448,31.43 501.773,30.397 498.076,29.541 C 494.38,28.686 490.659,28.041 486.929,27.557 C 482.73,27.226 479.345,30.5 479.509,34.657 C 479.789,38.74 480.174,42.835 480.722,46.929 C 481.27,51.024 481.954,55.12 482.759,59.218 C 483.564,63.316 484.491,67.407 485.504,71.491 C 486.517,75.575 487.605,79.649 488.768,83.705 C 489.931,87.762 491.138,91.804 492.382,95.822 C 493.626,99.841 494.899,103.83 496.174,107.795 C 497.448,111.759 498.714,115.694 499.956,119.592 C 501.198,123.49 502.414,127.341 502.412,131.408 C 502.409,135.475 501.193,139.749 499.938,143.983 C 498.682,148.217 497.405,152.415 496.115,156.584 C 494.826,160.753 493.547,164.892 492.29,169.005 C 491.033,173.117 489.811,177.206 488.64,181.28 C 487.468,185.353 486.351,189.422 485.325,193.47 C 484.298,197.518 483.371,201.552 482.553,205.584 C 482.002,208.293 481.528,211.006 481.09,213.719 C 477.84,214.764 474.59,215.79 471.352,216.759 C 467.059,218.043 462.791,219.21 458.548,220.217 C 454.305,221.224 450.088,222.038 445.919,222.616 C 441.75,223.194 437.635,223.502 433.568,223.501 C 429.501,223.5 425.489,223.189 421.527,222.609 C 417.565,222.029 413.644,221.213 409.757,220.204 C 405.87,219.195 402.011,218.027 398.175,216.742 C 394.337,215.457 390.517,214.09 386.7,212.682 C 382.886,211.274 379.065,209.858 375.246,208.479 C 371.426,207.101 367.595,205.793 363.741,204.596 C 359.886,203.4 356.006,202.349 352.095,201.489 C 349.555,200.929 346.994,200.483 344.421,200.198 C 343.403,198.104 342.35,196.021 341.243,193.958 C 339.29,190.318 337.208,186.724 335.014,183.171 C 332.82,179.618 330.513,176.114 328.128,172.648 C 325.743,169.182 323.293,165.75 320.777,162.362 C 318.26,158.974 315.709,155.614 313.132,152.291 C 310.555,148.967 307.96,145.68 305.372,142.417 C 302.785,139.154 300.216,135.916 297.683,132.704 C 295.149,129.493 292.657,126.315 291.229,122.507 C 289.8,118.698 289.436,114.27 289.122,109.865 C 288.809,105.46 288.528,101.081 288.269,96.725 C 288.009,92.369 287.751,88.045 287.481,83.753 C 287.211,79.461 286.917,75.204 286.581,70.979 C 286.245,66.753 285.86,62.552 285.398,58.401 C 284.935,54.25 284.384,50.148 283.733,46.086 C 283.081,42.023 282.32,37.992 281.421,34.022 C 280.522,30.051 279.48,26.122 278.332,22.231 C 277.044,18.304 272.716,16.396 268.898,18.265 C 265.574,20.163 262.32,22.249 259.162,24.582 C 256.005,26.916 252.925,29.46 249.91,32.168 C 246.894,34.876 243.922,37.712 240.98,40.626 C 238.038,43.539 235.106,46.503 232.176,49.446 C 229.246,52.388 226.3,55.281 223.315,58.087 C 220.33,60.893 217.299,63.555 214.197,66.045 C 211.095,68.535 207.913,70.811 204.631,72.811 C 201.348,74.811 197.949,76.516 194.421,77.863 C 190.892,79.21 187.233,80.196 183.454,80.872 C 179.675,81.549 175.798,81.968 171.833,82.15 C 167.868,82.333 163.836,82.325 159.75,82.181 C 155.664,82.037 151.545,81.803 147.403,81.509 C 143.26,81.216 139.113,80.9 134.977,80.621 C 130.841,80.343 126.735,80.149 122.67,80.061 C 118.606,79.973 114.605,80.055 110.677,80.334 C 106.749,80.614 102.914,81.134 99.148,81.856 C 95.024,82.903 92.96,87.166 94.429,91.091 C 95.982,94.94 98.047,98.633 100.332,102.279 C 102.618,105.925 105.093,109.545 107.712,113.13 C 110.331,116.715 113.063,120.28 115.865,123.836 C 118.667,127.391 121.507,130.948 124.336,134.494 C 127.166,138.039 129.957,141.598 132.663,145.169 C 135.37,148.74 137.958,152.329 140.388,155.951 C 142.818,159.572 145.058,163.237 147.059,166.939 C 149.061,170.642 150.791,174.389 152.215,178.198 C 153.639,182.007 154.753,185.873 155.597,189.787 C 156.442,193.701 157.051,197.659 157.468,201.654 C 157.885,205.648 158.142,209.672 158.283,213.716 C 158.423,217.76 158.481,221.818 158.499,225.885 C 158.517,229.951 158.528,234.026 158.575,238.086 C 158.621,242.147 158.739,246.193 158.968,250.222 C 159.197,254.251 159.573,258.254 160.136,262.218 C 160.699,266.182 161.487,270.113 162.789,273.876 C 164.224,277.712 168.574,279.533 172.44,277.698 C 175.843,275.881 179.206,273.908 182.512,271.74 C 185.818,269.571 189.083,267.231 192.307,264.766 C 195.531,262.301 198.735,259.735 201.918,257.114 C 205.101,254.493 208.279,251.843 211.46,249.204 C 214.641,246.565 217.831,243.971 221.045,241.456 C 224.259,238.941 227.503,236.54 230.789,234.29 C 234.075,232.04 237.407,229.974 240.803,228.128 C 244.199,226.283 247.665,224.689 251.206,223.385 C 254.747,222.081 258.372,221.061 262.06,220.29 C 265.748,219.519 269.489,218.968 273.286,218.592 C 277.083,218.217 280.914,217.99 284.778,217.871 C 288.642,217.751 292.521,217.711 296.417,217.706 C 300.313,217.701 304.215,217.701 308.105,217.672 C 311.994,217.643 315.859,217.553 319.705,217.359 C 323.55,217.164 327.353,216.838 331.114,216.339 C 332.297,216.182 333.472,215.998 334.644,215.802 C 334.862,216.904 335.091,218.007 335.341,219.112 C 336.215,222.968 337.263,226.847 338.442,230.73 C 339.622,234.613 340.902,238.513 342.243,242.412 C 343.583,246.311 344.952,250.217 346.309,254.12 C 347.666,258.023 348.979,261.92 350.208,265.812 C 351.437,269.704 352.55,273.582 353.506,277.449 C 354.463,281.315 355.231,285.159 355.77,288.987 C 356.309,292.814 356.588,296.619 356.569,300.393 C 356.549,304.166 356.236,307.918 355.666,311.643 C 355.097,315.368 354.302,319.064 353.324,322.751 C 352.345,326.439 351.216,330.106 349.974,333.768 C 348.732,337.429 347.412,341.076 346.051,344.727 C 344.69,348.379 343.323,352.033 341.989,355.686 C 340.654,359.339 339.384,362.991 338.219,366.66 C 337.055,370.33 336.027,374.006 335.177,377.704 C 334.327,381.402 333.689,385.123 333.21,388.854 C 332.885,393.055 336.165,396.434 340.321,396.264 C 344.403,395.977 348.497,395.587 352.591,395.033 C 356.685,394.478 360.779,393.788 364.876,392.977 C 368.973,392.166 373.063,391.233 377.145,390.214 C 381.227,389.194 385.299,388.102 389.354,386.932 C 393.409,385.762 397.45,384.549 401.465,383.3 C 405.482,382.05 409.469,380.771 413.432,379.49 C 417.395,378.209 421.328,376.938 425.223,375.69 C 429.118,374.442 432.968,373.221 437.035,373.216 C 441.101,373.213 445.377,374.423 449.613,375.671 C 453.849,376.92 458.049,378.192 462.219,379.475 C 466.39,380.758 470.531,382.031 474.645,383.282 C 478.759,384.533 482.851,385.748 486.925,386.913 C 491.001,388.079 495.071,389.19 499.12,390.211 C 503.169,391.232 507.204,392.152 511.238,392.965 C 515.272,393.778 519.313,394.477 523.347,395.026 C 527.381,395.575 531.426,395.975 535.473,396.263 C 539.602,396.432 542.906,393.047 542.493,388.817 C 541.88,385.039 541.065,381.26 539.985,377.485 C 538.905,373.71 537.6,369.934 536.122,366.161 C 534.642,362.389 533.026,358.61 531.328,354.834 C 529.63,351.059 527.88,347.274 526.149,343.499 C 524.42,339.724 522.743,335.951 521.16,332.173 C 519.578,328.394 518.146,324.623 516.901,320.845 C 515.655,317.068 514.637,313.29 513.915,309.514 C 513.191,305.739 512.784,301.958 512.759,298.181 C 512.734,294.405 513.093,290.631 513.782,286.855 C 514.471,283.079 515.438,279.3 516.655,275.522 C 517.874,271.745 519.294,267.971 520.86,264.194 C 522.426,260.417 524.089,256.642 525.814,252.865 C 527.542,249.088 529.289,245.314 530.999,241.538 C 532.708,237.761 534.328,233.983 535.834,230.207 C 537.34,226.431 538.665,222.655 539.779,218.877 C 539.975,218.212 540.153,217.547 540.333,216.883 C 541.332,216.454 542.33,216.014 543.329,215.598 C 547.11,214.021 550.884,212.595 554.663,211.355 C 558.442,210.115 562.222,209.104 565.999,208.386 C 569.776,207.668 573.557,207.267 577.334,207.247 C 581.11,207.227 584.884,207.592 588.659,208.288 C 592.434,208.983 596.211,209.955 599.986,211.179 C 603.762,212.402 607.534,213.828 611.308,215.4 C 615.082,216.972 618.855,218.639 622.629,220.372 C 626.404,222.104 630.176,223.857 633.949,225.573 C 637.723,227.288 641.499,228.913 645.273,230.426 C 649.046,231.938 652.821,233.268 656.596,234.388 C 660.371,235.508 664.144,236.368 667.923,237.018 C 672.152,237.488 675.583,234.224 675.59,230.033 C 675.489,225.884 674.856,221.7 673.999,217.483 C 673.143,213.268 672.099,209.01 670.907,204.732 z M 299.848,189.485 C 295.163,190.092 290.48,190.661 285.788,191.231 C 281.096,191.801 276.417,192.413 271.766,193.122 C 267.115,193.831 262.492,194.692 257.694,195.837 C 252.896,196.983 248.146,198.384 243.478,200.085 C 238.811,201.786 234.22,203.808 229.692,206.104 C 225.163,208.4 220.845,210.86 216.734,213.43 C 212.623,216 208.558,218.688 204.513,221.436 C 200.468,224.184 196.434,226.952 192.39,229.703 C 190.122,231.23 188.043,230.465 187.772,228.006 C 187.289,223.173 186.84,218.339 186.383,213.516 C 185.927,208.693 185.408,203.892 184.749,199.122 C 184.091,194.352 183.237,189.627 182.113,184.963 C 180.989,180.299 179.4,175.337 177.543,170.354 C 175.686,165.37 173.733,160.26 171.418,155.236 C 169.103,150.213 166.481,145.248 163.808,140.814 C 161.134,136.38 158.341,132.136 155.452,127.93 C 152.563,123.724 149.632,119.532 146.711,115.338 C 145.233,113.195 146.27,111.322 149.02,111.178 C 153.953,110.973 158.889,110.784 163.82,110.576 C 168.75,110.368 173.647,110.066 178.484,109.608 C 183.321,109.15 188.081,108.481 192.727,107.514 C 197.373,106.546 201.887,105.219 206.247,103.487 C 210.607,101.755 214.953,99.568 219.274,97.029 C 223.594,94.489 227.55,91.778 231.428,88.892 C 235.306,86.005 239.133,82.987 242.942,79.908 C 246.752,76.828 250.555,73.763 254.383,70.729 C 256.535,69.063 258.738,69.771 259.263,72.304 C 260.237,77.293 261.147,82.305 261.969,87.352 C 262.792,92.399 263.541,97.472 264.227,102.57 C 264.914,107.668 265.551,112.783 266.158,117.91 C 266.765,123.037 267.506,128.614 269.844,133.355 C 272.183,138.097 275.168,142.444 278.024,146.534 C 280.88,150.624 283.701,154.767 286.482,158.961 C 289.263,163.154 291.986,167.396 294.638,171.692 C 297.289,175.988 299.847,180.341 302.34,184.733 C 303.59,186.981 302.462,189.125 299.848,189.485 z M 495.255,360.866 C 490.241,360.03 485.228,359.127 480.213,358.129 C 475.197,357.131 470.184,356.057 465.168,354.914 C 460.152,353.771 455.139,352.576 450.123,351.349 C 445.108,350.121 439.626,348.862 434.366,349.391 C 429.105,349.92 423.988,351.194 419.156,352.436 C 414.325,353.678 409.456,354.87 404.554,356.005 C 399.653,357.141 394.725,358.207 389.773,359.185 C 384.82,360.163 379.846,361.035 374.861,361.831 C 372.317,362.215 370.705,360.407 371.283,357.832 C 372.356,353.231 373.464,348.646 374.573,344.052 C 375.681,339.458 376.748,334.861 377.713,330.256 C 378.679,325.651 379.492,321.02 380.1,316.124 C 380.708,311.228 381.059,306.288 381.1,301.321 C 381.143,296.354 380.857,291.346 380.293,286.3 C 379.729,281.254 378.937,276.347 377.971,271.596 C 377.004,266.845 375.91,262.096 374.752,257.346 C 373.595,252.595 372.416,247.846 371.256,243.096 C 370.62,240.437 372.065,238.757 374.463,239.365 C 379.16,240.605 383.844,241.878 388.522,243.14 C 393.2,244.402 397.877,245.597 402.576,246.651 C 407.274,247.705 412,248.561 416.762,249.142 C 421.524,249.723 426.728,249.973 432.046,249.979 C 437.365,249.986 442.835,249.946 448.351,249.538 C 453.868,249.129 459.437,248.413 464.526,247.461 C 469.615,246.509 474.569,245.38 479.52,244.148 C 484.472,242.916 489.425,241.639 494.376,240.372 C 496.901,239.739 498.292,241.365 497.464,243.991 C 495.929,248.683 494.376,253.373 492.843,258.064 C 491.311,262.755 489.879,267.447 488.614,272.138 C 487.347,276.829 486.307,281.521 485.586,286.212 C 484.864,290.903 484.527,295.596 484.622,300.286 C 484.717,304.977 485.242,309.813 486.107,314.75 C 486.972,319.686 488.127,324.341 489.471,328.984 C 490.815,333.627 492.302,338.269 493.852,342.916 C 495.402,347.562 496.941,352.198 498.441,356.847 C 499.246,359.446 497.812,361.262 495.255,360.866 z M 636.361,69.042 C 635.115,73.737 633.834,78.419 632.566,83.095 C 631.296,87.77 630.093,92.447 629.033,97.143 C 627.971,101.839 627.108,106.564 626.52,111.325 C 625.932,116.086 625.674,121.29 625.66,126.609 C 625.646,131.928 625.676,137.398 626.077,142.915 C 626.477,148.432 627.185,154.002 628.129,159.093 C 629.073,164.183 630.195,169.139 631.42,174.093 C 632.645,179.047 633.914,184.002 635.174,188.955 C 635.804,191.48 634.175,192.869 631.55,192.038 C 626.86,190.495 622.173,188.936 617.485,187.396 C 612.796,185.856 608.106,184.417 603.417,183.145 C 598.728,181.872 594.037,180.824 589.347,180.096 C 584.658,179.367 579.966,179.022 575.275,179.111 C 570.584,179.199 565.747,179.717 560.809,180.575 C 555.871,181.433 551.214,182.579 546.569,183.917 C 541.924,185.255 537.28,186.734 532.631,188.278 C 527.983,189.821 523.344,191.352 518.693,192.846 C 516.092,193.648 514.278,192.21 514.678,189.655 C 515.521,184.643 516.431,179.63 517.437,174.616 C 518.443,169.602 519.525,164.59 520.675,159.576 C 521.825,154.562 523.029,149.55 524.263,144.537 C 525.497,139.523 526.766,134.043 526.243,128.782 C 525.722,123.521 524.456,118.402 523.222,113.568 C 521.988,108.734 520.803,103.864 519.675,98.961 C 518.546,94.058 517.487,89.128 516.517,84.174 C 515.546,79.219 514.682,74.245 513.894,69.258 C 513.514,66.714 515.324,65.104 517.898,65.686 C 522.498,66.766 527.082,67.88 531.673,68.996 C 536.266,70.112 540.861,71.185 545.465,72.158 C 550.069,73.131 554.698,73.95 559.593,74.565 C 564.489,75.18 569.428,75.539 574.396,75.588 C 579.363,75.638 584.372,75.359 589.417,74.803 C 594.464,74.247 599.372,73.462 604.125,72.503 C 608.878,71.544 613.628,70.457 618.38,69.307 C 623.134,68.157 627.884,66.985 632.637,65.832 C 635.295,65.198 636.973,66.646 636.361,69.042 z"
   style="fill:#120077;stroke:#002b2d;stroke-width:10" />
				</g>
				<g
   id="g4730">
					<path
   id="path4732"
   d="M 645.896,737.387 C 642.806,735.077 639.593,732.868 636.228,730.794 C 632.861,728.719 629.357,726.754 625.757,724.879 C 622.157,723.005 618.474,721.191 614.751,719.421 C 611.028,717.651 607.278,715.896 603.54,714.135 C 599.803,712.373 596.1,710.585 592.459,708.739 C 588.818,706.894 585.269,704.975 581.837,702.954 C 578.405,700.932 575.121,698.79 572.011,696.498 C 568.9,694.206 565.986,691.743 563.302,689.089 C 560.619,686.435 558.157,683.585 555.896,680.572 C 553.634,677.558 551.548,674.405 549.598,671.126 C 547.648,667.847 545.818,664.473 544.071,661.024 C 542.324,657.575 540.643,654.08 538.986,650.552 C 537.329,647.026 535.674,643.492 533.999,639.983 C 532.324,636.474 530.603,633.01 528.795,629.611 C 526.988,626.212 525.08,622.906 523.033,619.711 C 520.985,616.517 518.773,613.456 516.443,610.504 C 513.67,607.332 508.96,607.312 506.173,610.4 C 503.522,613.517 500.936,616.714 498.467,620.027 C 495.999,623.34 493.627,626.75 491.341,630.244 C 489.054,633.738 486.859,637.313 484.731,640.943 C 482.603,644.573 480.534,648.247 478.533,651.963 C 476.532,655.678 474.572,659.414 472.654,663.157 C 470.736,666.901 468.861,670.645 467.004,674.373 C 465.147,678.1 463.303,681.8 461.469,685.456 C 459.635,689.113 457.814,692.718 454.971,695.626 C 452.128,698.535 448.272,700.743 444.416,702.897 C 440.559,705.048 436.713,707.159 432.877,709.242 C 429.042,711.324 425.236,713.392 421.463,715.457 C 417.692,717.521 413.961,719.594 410.276,721.69 C 406.591,723.786 402.951,725.916 399.387,728.094 C 396.581,729.811 393.841,731.576 391.136,733.373 C 390.725,732.605 390.32,731.833 389.907,731.067 C 387.91,727.365 385.889,723.697 383.871,720.054 C 381.854,716.41 379.851,712.794 377.879,709.21 C 375.907,705.626 373.971,702.083 373.186,698.092 C 372.402,694.101 372.769,689.672 373.182,685.276 C 373.594,680.879 374.037,676.514 374.496,672.173 C 374.954,667.834 375.408,663.526 375.847,659.247 C 376.285,654.97 376.694,650.722 377.055,646.499 C 377.416,642.275 377.727,638.067 377.951,633.896 C 378.176,629.726 378.305,625.589 378.329,621.475 C 378.353,617.359 378.264,613.258 378.028,609.194 C 377.792,605.13 377.409,601.083 376.916,597.056 C 376.289,592.97 372.333,590.378 368.26,591.596 C 364.67,592.922 361.117,594.447 357.62,596.231 C 354.122,598.015 350.666,600.02 347.248,602.196 C 343.829,604.372 340.431,606.683 337.051,609.075 C 333.672,611.466 330.293,613.909 326.92,616.331 C 323.547,618.754 320.166,621.124 316.761,623.401 C 313.356,625.679 309.93,627.808 306.461,629.755 C 302.993,631.703 299.481,633.426 295.914,634.859 C 292.347,636.295 288.714,637.418 285.013,638.168 C 281.312,638.918 277.539,639.29 273.701,639.338 C 269.863,639.385 265.969,639.162 262.028,638.692 C 261.226,638.596 260.423,638.488 259.619,638.376 C 259.748,637.992 259.889,637.617 260.015,637.23 C 261.28,633.375 262.471,629.446 263.614,625.484 C 264.757,621.523 265.879,617.539 267.009,613.565 C 268.14,609.59 269.304,605.646 270.533,601.754 C 271.762,597.861 273.079,594.047 274.516,590.333 C 275.954,586.618 277.533,583.03 279.29,579.588 C 281.046,576.146 283.004,572.871 285.187,569.793 C 287.371,566.714 289.782,563.822 292.388,561.102 C 294.994,558.379 297.767,555.81 300.686,553.353 C 303.605,550.896 306.636,548.542 309.755,546.258 C 312.874,543.975 316.05,541.748 319.261,539.54 C 322.472,537.332 325.69,535.126 328.88,532.902 C 332.071,530.678 335.208,528.418 338.27,526.083 C 341.331,523.748 344.283,521.328 347.102,518.789 C 349.922,516.25 352.582,513.571 355.118,510.792 C 357.796,507.54 357.052,502.89 353.552,500.643 C 350.046,498.532 346.469,496.5 342.801,494.603 C 339.131,492.706 335.382,490.918 331.563,489.23 C 327.744,487.542 323.859,485.956 319.932,484.445 C 316.005,482.935 312.044,481.49 308.053,480.119 C 304.062,478.748 300.057,477.42 296.052,476.136 C 292.047,474.852 288.047,473.609 284.068,472.382 C 280.089,471.155 276.139,469.937 272.233,468.721 C 268.327,467.505 264.475,466.294 261.143,463.961 C 257.811,461.628 255.006,458.182 252.255,454.727 C 249.505,451.272 246.798,447.819 244.12,444.373 C 241.442,440.927 238.784,437.507 236.134,434.12 C 233.485,430.733 230.834,427.389 228.167,424.094 C 225.5,420.799 222.807,417.552 220.078,414.39 C 217.349,411.228 214.575,408.158 211.739,405.175 C 208.905,402.193 205.997,399.299 203.01,396.532 C 200.023,393.765 196.941,391.115 193.794,388.555 C 190.511,386.044 185.863,386.918 183.772,390.619 C 182.104,394.064 180.6,397.624 179.316,401.335 C 178.032,405.046 176.931,408.886 175.975,412.824 C 175.019,416.762 174.172,420.783 173.393,424.85 C 172.615,428.916 171.873,433.019 171.122,437.103 C 170.37,441.187 169.576,445.239 168.701,449.241 C 167.826,453.243 166.832,457.153 165.682,460.96 C 164.532,464.767 163.195,468.444 161.619,471.951 C 160.043,475.457 158.204,478.785 156.056,481.892 C 153.907,484.998 151.447,487.881 148.713,490.576 C 145.98,493.271 143.019,495.81 139.852,498.203 C 136.685,500.596 133.355,502.87 129.904,505.061 C 126.453,507.253 122.924,509.388 119.341,511.49 C 115.758,513.591 112.16,515.676 108.591,517.785 C 105.022,519.895 101.527,522.058 98.125,524.284 C 94.723,526.51 91.47,528.841 88.389,531.293 C 85.308,533.745 82.44,536.344 79.742,539.068 C 76.933,542.263 77.641,546.947 81.073,549.353 C 84.53,551.65 88.322,553.527 92.269,555.242 C 96.216,556.958 100.304,558.543 104.492,560.017 C 108.68,561.494 112.949,562.888 117.271,564.236 C 121.592,565.584 125.945,566.911 130.284,568.234 C 134.623,569.558 138.937,570.915 143.189,572.329 C 147.441,573.744 151.605,575.24 155.657,576.852 C 159.709,578.464 163.629,580.22 167.373,582.141 C 171.117,584.062 174.664,586.174 177.992,588.511 C 181.321,590.847 184.426,593.406 187.336,596.156 C 190.246,598.907 192.987,601.826 195.59,604.885 C 198.193,607.944 200.681,611.116 203.084,614.372 C 205.487,617.628 207.83,620.941 210.145,624.285 C 211.098,625.662 212.058,627.034 213.013,628.412 C 209.311,627.736 205.637,627.209 202,626.867 C 198.079,626.499 194.211,626.383 190.377,626.476 C 186.137,626.832 183.401,630.7 184.206,634.813 C 185.106,638.865 186.538,642.847 188.193,646.818 C 189.849,650.791 191.697,654.766 193.693,658.733 C 195.689,662.7 197.799,666.664 199.98,670.631 C 202.161,674.599 204.378,678.573 206.587,682.534 C 208.796,686.496 210.966,690.465 213.05,694.431 C 215.134,698.398 217.098,702.363 218.902,706.334 C 220.705,710.305 222.313,714.287 223.68,718.268 C 225.047,722.249 226.139,726.228 226.918,730.22 C 227.697,734.211 228.163,738.207 228.353,742.207 C 228.544,746.207 228.496,750.211 228.252,754.22 C 228.007,758.229 227.602,762.24 227.076,766.252 C 226.551,770.265 225.943,774.277 225.293,778.292 C 224.701,781.952 224.107,785.617 223.537,789.277 C 222.893,789.27 222.251,789.251 221.607,789.248 C 217.399,789.228 213.183,789.283 208.965,789.417 C 204.747,789.551 200.532,789.729 196.332,789.949 C 192.131,790.17 187.952,790.427 183.795,790.689 C 179.639,790.954 175.514,791.215 171.431,791.464 C 167.348,791.713 163.316,791.946 159.374,790.947 C 155.431,789.947 151.586,787.72 147.789,785.465 C 143.992,783.21 140.237,780.943 136.511,778.67 C 132.784,776.398 129.086,774.143 125.407,771.916 C 121.728,769.688 118.063,767.502 114.402,765.368 C 110.74,763.233 107.07,761.152 103.397,759.164 C 99.724,757.176 96.041,755.289 92.332,753.506 C 88.624,751.723 84.879,750.048 81.104,748.522 C 77.33,746.995 73.509,745.61 69.658,744.332 C 65.698,743.15 61.661,745.615 61.019,749.818 C 60.681,753.63 60.539,757.493 60.654,761.418 C 60.77,765.343 61.102,769.324 61.606,773.345 C 62.109,777.366 62.743,781.427 63.458,785.504 C 64.172,789.582 64.935,793.682 65.68,797.768 C 66.426,801.853 67.12,805.922 67.722,809.974 C 68.324,814.027 68.781,818.035 69.056,822.002 C 69.332,825.971 69.386,829.882 69.156,833.72 C 68.926,837.557 68.386,841.322 67.48,844.989 C 66.573,848.654 65.295,852.223 63.695,855.713 C 62.095,859.203 60.227,862.626 58.115,865.986 C 56.003,869.346 53.696,872.654 51.247,875.927 C 48.798,879.2 46.255,882.448 43.651,885.684 C 41.046,888.919 38.422,892.145 35.833,895.383 C 33.244,898.621 30.743,901.883 28.352,905.171 C 25.961,908.459 23.746,911.792 21.734,915.178 C 19.723,918.564 17.963,922.01 16.407,925.515 C 14.914,929.499 17.238,933.626 21.3,934.661 C 25.347,935.581 29.559,935.992 33.857,936.195 C 38.156,936.398 42.54,936.43 46.98,936.324 C 51.419,936.219 55.905,936.008 60.423,935.735 C 64.942,935.463 69.483,935.16 74.009,934.858 C 78.535,934.557 83.051,934.295 87.528,934.11 C 92.005,933.923 96.429,933.845 100.79,933.916 C 105.151,933.987 109.438,934.238 113.621,934.706 C 117.804,935.174 121.869,935.891 125.809,936.894 C 129.75,937.899 133.561,939.189 137.257,940.728 C 140.953,942.268 144.552,944.025 148.07,945.961 C 151.588,947.898 155.039,949.982 158.441,952.174 C 161.842,954.365 165.209,956.633 168.559,958.939 C 171.91,961.245 175.262,963.559 178.623,965.837 C 181.985,968.115 185.375,970.327 188.815,972.438 C 192.255,974.548 195.757,976.523 199.335,978.322 C 202.912,980.121 206.589,981.717 210.422,982.795 C 214.391,983.805 218.369,981.27 219.068,977.049 C 219.516,973.217 219.815,969.329 219.92,965.377 C 220.025,961.424 219.966,957.407 219.781,953.353 C 219.596,949.299 219.316,945.204 218.98,941.094 C 218.643,936.985 218.279,932.862 217.927,928.745 C 217.574,924.628 217.263,920.527 217.032,916.452 C 216.801,912.377 216.679,908.344 216.706,904.361 C 216.732,900.378 216.936,896.463 217.358,892.621 C 217.779,888.779 218.447,885.023 219.398,881.371 C 220.347,877.719 221.577,874.16 223.047,870.69 C 224.518,867.221 226.199,863.835 228.057,860.502 C 229.914,857.169 231.914,853.894 234.02,850.652 C 236.126,847.41 238.307,844.202 240.525,840.998 C 242.744,837.795 244.97,834.591 247.165,831.381 C 249.359,828.169 251.491,824.943 253.525,821.674 C 253.576,821.593 253.624,821.511 253.675,821.429 C 256.79,819.752 259.904,818.016 263.007,816.222 C 266.577,814.16 270.147,812.065 273.717,809.985 C 277.287,807.904 280.86,805.868 284.444,803.915 C 288.027,801.961 291.621,800.125 295.232,798.444 C 298.843,796.764 302.469,795.273 306.121,794.009 C 309.774,792.745 313.454,791.741 317.162,791.036 C 320.87,790.331 324.612,789.919 328.377,789.764 C 332.142,789.609 335.922,789.678 339.729,789.931 C 343.536,790.184 347.353,790.588 351.183,791.104 C 355.015,791.622 358.848,792.218 362.692,792.853 C 366.537,793.487 370.385,794.127 374.226,794.736 C 378.068,795.345 381.896,795.891 385.72,796.33 C 389.545,796.768 393.351,797.071 397.143,797.195 C 400.935,797.32 404.71,797.233 408.463,796.987 C 412.648,796.5 415.335,792.633 414.371,788.587 C 413.533,785.479 412.628,782.377 411.634,779.29 C 412.374,779.556 413.116,779.821 413.857,780.088 C 417.764,781.493 421.632,782.935 425.44,784.448 C 429.248,785.961 432.943,787.577 436.513,789.33 C 440.083,791.083 443.494,792.999 446.699,795.124 C 449.902,797.249 452.888,799.604 455.603,802.228 C 458.32,804.853 460.765,807.749 462.98,810.883 C 465.196,814.019 467.22,817.353 469.066,820.865 C 470.913,824.379 472.616,828.034 474.218,831.795 C 475.82,835.557 477.355,839.386 478.845,843.262 C 480.337,847.139 481.81,851.028 483.312,854.892 C 484.814,858.756 486.38,862.557 488.024,866.276 C 489.669,869.994 491.439,873.582 493.359,877.021 C 495.278,880.459 497.376,883.711 499.627,886.816 C 502.324,890.107 507.06,890.169 509.992,887.173 C 512.819,884.135 515.288,880.698 517.621,877.082 C 519.955,873.466 522.183,869.689 524.318,865.797 C 526.455,861.903 528.523,857.918 530.555,853.873 C 532.587,849.827 534.604,845.747 536.615,841.682 C 538.626,837.616 540.666,833.578 542.752,829.613 C 544.838,825.648 546.99,821.782 549.239,818.045 C 551.488,814.309 553.857,810.727 556.361,807.344 C 558.865,803.961 561.525,800.805 564.371,797.9 C 567.218,794.996 570.246,792.346 573.433,789.921 C 576.62,787.497 579.946,785.266 583.387,783.194 C 586.826,781.124 590.362,779.184 593.964,777.341 C 597.566,775.498 601.217,773.725 604.893,771.985 C 608.569,770.244 612.253,768.506 615.911,766.741 C 619.569,764.976 623.184,763.154 626.735,761.238 C 630.288,759.321 633.753,757.284 637.104,755.092 C 640.455,752.902 643.68,750.521 646.536,747.746 C 649.394,744.823 649.197,740.111 645.896,737.387 z M 206.472,577.18 C 202.908,573.969 198.791,570.776 194.441,567.715 C 190.09,564.654 185.59,561.545 180.84,558.711 C 176.09,555.877 171.12,553.266 166.407,551.121 C 161.694,548.976 156.99,547.057 152.229,545.221 C 147.468,543.386 142.679,541.586 137.898,539.78 C 135.468,538.848 135.263,536.718 137.449,535.044 C 141.402,532.085 145.366,529.138 149.314,526.178 C 153.263,523.218 157.13,520.199 160.86,517.086 C 164.59,513.974 168.137,510.73 171.422,507.304 C 174.707,503.878 177.678,500.232 180.295,496.337 C 182.911,492.442 185.259,488.181 187.386,483.643 C 189.512,479.105 191.242,474.632 192.808,470.058 C 194.374,465.484 195.823,460.831 197.223,456.137 C 198.623,451.443 200.027,446.764 201.468,442.097 C 202.301,439.506 204.518,438.843 206.383,440.636 C 210.008,444.199 213.593,447.819 217.126,451.516 C 220.658,455.213 224.146,458.973 227.595,462.789 C 231.044,466.605 234.462,470.463 237.863,474.348 C 241.264,478.233 245.028,482.413 249.638,485.001 C 254.248,487.589 259.169,489.486 263.838,491.245 C 268.506,493.003 273.176,494.824 277.841,496.71 C 282.506,498.595 287.152,500.553 291.768,502.597 C 296.384,504.64 300.956,506.784 305.495,508.995 C 307.798,510.142 308.079,512.548 306.127,514.323 C 302.606,517.473 299.065,520.591 295.519,523.716 C 291.973,526.839 288.459,529.989 285.024,533.205 C 281.589,536.421 278.263,539.745 274.954,543.403 C 271.645,547.062 268.52,550.904 265.632,554.946 C 262.745,558.989 260.103,563.253 257.666,567.707 C 255.229,572.162 253.06,576.634 251.123,581.077 C 249.185,585.522 247.353,590.038 245.572,594.592 C 243.791,599.146 242.028,603.71 240.249,608.266 C 239.242,610.808 237.095,611.353 235.48,609.478 C 232.348,605.766 229.244,602.033 226.14,598.314 C 223.036,594.593 219.892,590.928 216.652,587.367 C 213.413,583.805 210.036,580.39 206.472,577.18 z M 219.294,822.082 C 217.119,826.276 214.915,830.446 212.707,834.626 C 210.499,838.804 208.332,842.996 206.261,847.221 C 204.19,851.446 202.259,855.734 200.463,860.328 C 198.667,864.923 197.108,869.624 195.842,874.428 C 194.576,879.232 193.618,884.156 192.92,889.184 C 192.222,894.213 191.779,899.163 191.544,904.006 C 191.309,908.849 191.197,913.72 191.148,918.61 C 191.097,923.5 191.068,928.391 191.021,933.282 C 190.981,936.016 189.167,937.287 186.992,936.107 C 182.746,933.748 178.521,931.358 174.299,928.981 C 170.077,926.604 165.838,924.292 161.546,922.112 C 157.253,919.931 152.884,917.936 148.413,916.199 C 143.941,914.461 138.959,912.935 133.807,911.617 C 128.655,910.299 123.343,908.987 117.897,908.023 C 112.45,907.059 106.877,906.379 101.71,906.046 C 96.543,905.713 91.463,905.585 86.361,905.559 C 81.259,905.532 76.143,905.547 71.032,905.553 C 68.429,905.544 67.482,903.625 68.932,901.284 C 71.578,897.115 74.239,892.953 76.881,888.785 C 79.523,884.618 82.068,880.423 84.451,876.189 C 86.835,871.956 89.001,867.665 90.858,863.296 C 92.714,858.929 94.198,854.464 95.263,849.894 C 96.328,845.326 97.012,840.509 97.39,835.511 C 97.769,830.514 97.799,825.718 97.641,820.886 C 97.483,816.055 97.187,811.19 96.831,806.305 C 96.476,801.419 96.128,796.547 95.82,791.672 C 95.68,788.954 97.518,787.547 99.898,788.563 C 104.551,790.609 109.187,792.721 113.801,794.925 C 118.415,797.129 123.009,799.406 127.588,801.751 C 132.167,804.097 136.731,806.491 141.288,808.917 C 145.846,811.344 150.848,813.917 156.077,814.701 C 161.305,815.484 166.579,815.513 171.568,815.501 C 176.556,815.489 181.569,815.535 186.599,815.644 C 191.629,815.753 196.667,815.935 201.708,816.209 C 206.749,816.481 211.784,816.863 216.812,817.322 C 219.373,817.58 220.489,819.729 219.294,822.082 z M 370.701,765.575 C 365.978,765.406 361.266,765.198 356.545,764.991 C 351.823,764.785 347.107,764.62 342.402,764.556 C 337.697,764.493 332.995,764.582 328.074,764.926 C 323.153,765.269 318.237,765.872 313.353,766.784 C 308.47,767.695 303.61,768.937 298.766,770.459 C 293.922,771.98 289.259,773.699 284.781,775.56 C 280.303,777.421 275.853,779.405 271.412,781.453 C 266.971,783.501 262.537,785.568 258.097,787.619 C 255.609,788.753 253.684,787.657 253.82,785.186 C 254.136,780.339 254.487,775.498 254.827,770.665 C 255.168,765.832 255.444,761.012 255.577,756.198 C 255.71,751.386 255.643,746.583 255.3,741.799 C 254.956,737.014 254.203,731.858 253.189,726.637 C 252.175,721.415 251.087,716.054 249.627,710.719 C 248.167,705.384 246.396,700.056 244.485,695.243 C 242.574,690.431 240.515,685.786 238.356,681.163 C 236.197,676.54 233.993,671.923 231.799,667.307 C 230.693,664.951 232.023,663.274 234.758,663.582 C 239.658,664.188 244.559,664.812 249.456,665.416 C 254.354,666.02 259.234,666.525 264.081,666.868 C 268.928,667.21 273.732,667.331 278.475,667.139 C 283.217,666.947 287.887,666.378 292.473,665.384 C 297.058,664.391 301.704,662.947 306.383,661.152 C 311.062,659.355 315.409,657.33 319.708,655.119 C 324.008,652.908 328.277,650.558 332.54,648.145 C 336.803,645.733 341.058,643.333 345.332,640.968 C 347.728,639.678 349.786,640.738 349.888,643.322 C 350.031,648.403 350.106,653.498 350.089,658.611 C 350.072,663.724 349.98,668.851 349.82,673.993 C 349.661,679.135 349.45,684.284 349.208,689.442 C 348.965,694.6 348.781,700.221 350.311,705.283 C 351.84,710.345 354.071,715.123 356.218,719.626 C 358.364,724.13 360.468,728.68 362.523,733.272 C 364.579,737.865 366.57,742.497 368.48,747.169 C 368.851,748.074 369.201,748.989 369.564,749.898 C 366.621,752.738 366.748,757.414 370.036,760.058 C 371.383,761.008 372.763,761.925 374.166,762.818 C 374.076,764.473 372.751,765.632 370.701,765.575 z M 594.387,744.58 C 590.214,747.068 586.028,749.524 581.854,751.982 C 577.678,754.441 573.551,756.948 569.511,759.567 C 565.471,762.186 561.553,764.963 557.805,767.959 C 554.059,770.954 550.239,774.499 546.512,778.294 C 542.786,782.09 538.987,786.024 535.419,790.252 C 531.852,794.479 528.467,798.959 525.586,803.261 C 522.705,807.564 520.046,811.894 517.461,816.292 C 514.878,820.691 512.324,825.125 509.765,829.549 C 508.452,831.796 506.316,831.653 505.019,829.224 C 502.741,824.843 500.477,820.453 498.198,816.076 C 495.919,811.699 493.567,807.392 491.102,803.206 C 488.635,799.019 486.011,794.992 483.164,791.195 C 480.317,787.397 477.201,783.873 473.783,780.658 C 470.365,777.444 466.542,774.436 462.41,771.6 C 458.277,768.764 454.144,766.331 449.886,764.042 C 445.627,761.754 441.272,759.569 436.867,757.425 C 432.463,755.282 428.074,753.137 423.702,750.957 C 421.281,749.714 420.987,747.418 423.058,745.869 C 427.163,742.872 431.317,739.921 435.538,737.036 C 439.761,734.151 444.036,731.32 448.362,728.537 C 452.688,725.753 457.05,723.007 461.436,720.282 C 465.822,717.557 470.557,714.523 473.86,710.394 C 477.162,706.265 479.833,701.717 482.326,697.396 C 484.819,693.075 487.375,688.762 489.993,684.466 C 492.611,680.169 495.298,675.903 498.063,671.68 C 500.83,667.456 503.687,663.294 506.607,659.174 C 508.113,657.089 510.532,657.201 511.967,659.416 C 514.504,663.401 517.005,667.401 519.511,671.408 C 522.018,675.415 524.556,679.393 527.17,683.305 C 529.785,687.216 532.525,691.038 535.598,694.897 C 538.671,698.756 541.954,702.464 545.474,705.97 C 548.995,709.476 552.772,712.776 556.772,715.903 C 560.772,719.031 564.831,721.897 568.903,724.531 C 572.973,727.165 577.132,729.706 581.335,732.203 C 585.54,734.701 589.757,737.182 593.964,739.677 C 596.309,741.083 596.498,743.291 594.387,744.58 z"
   style="fill:#ffff00;stroke:#fb001f;stroke-width:10" />
					<path
   id="path4734"
   d="M 699.703,562.461 C 698.687,558.437 697.142,554.496 695.375,550.574 C 693.605,546.65 691.646,542.728 689.537,538.82 C 687.43,534.912 685.207,531.009 682.914,527.106 C 680.621,523.203 678.292,519.293 675.971,515.396 C 673.649,511.499 671.367,507.593 669.171,503.687 C 666.975,499.782 664.899,495.875 662.983,491.957 C 661.068,488.039 659.347,484.103 657.868,480.164 C 656.388,476.224 655.182,472.276 654.29,468.309 C 653.398,464.342 652.819,460.36 652.515,456.367 C 652.21,452.375 652.144,448.37 652.274,444.356 C 652.404,440.342 652.696,436.321 653.106,432.295 C 653.517,428.269 654.01,424.241 654.545,420.21 C 655.079,416.178 655.622,412.14 656.127,408.111 C 656.633,404.082 657.067,400.057 657.388,396.034 C 657.707,392.011 657.879,387.994 657.86,383.991 C 657.839,379.987 657.594,375.986 656.816,372.081 C 655.916,368.085 651.853,365.69 647.773,366.982 C 644.156,368.321 640.555,369.817 636.985,371.517 C 633.415,373.217 629.862,375.092 626.333,377.095 C 622.803,379.099 619.28,381.206 615.771,383.37 C 612.261,385.534 608.751,387.728 605.243,389.91 C 601.735,392.092 598.221,394.229 594.693,396.284 C 591.168,398.339 587.627,400.276 584.066,402.059 C 580.504,403.842 576.921,405.435 573.307,406.803 C 569.693,408.17 566.041,409.278 562.355,410.089 C 558.669,410.9 554.94,411.419 551.181,411.681 C 547.423,411.944 543.642,411.981 539.829,411.838 C 536.017,411.694 532.19,411.398 528.346,410.991 C 524.501,410.584 520.654,410.097 516.792,409.572 C 512.931,409.048 509.065,408.517 505.208,408.018 C 501.351,407.519 497.509,407.082 493.673,406.752 C 489.837,406.423 486.026,406.229 482.232,406.212 C 478.437,406.196 474.668,406.391 470.921,406.743 C 466.751,407.349 464.175,411.292 465.255,415.309 C 466.432,419.228 467.712,423.137 469.153,427.009 C 470.592,430.881 472.167,434.724 473.858,438.542 C 475.549,442.359 477.359,446.145 479.251,449.904 C 481.143,453.662 483.104,457.395 485.136,461.093 C 487.168,464.791 489.24,468.467 491.341,472.11 C 493.442,475.753 495.568,479.363 497.688,482.947 C 499.808,486.531 501.914,490.089 503.987,493.615 C 506.06,497.141 508.098,500.628 508.996,504.594 C 509.894,508.562 509.653,512.998 509.365,517.406 C 509.078,521.813 508.76,526.189 508.426,530.54 C 508.091,534.892 507.76,539.211 507.444,543.499 C 507.128,547.788 506.84,552.046 506.599,556.278 C 506.358,560.509 506.168,564.724 506.063,568.899 C 505.957,573.075 505.946,577.213 506.04,581.327 C 506.132,585.441 506.339,589.538 506.69,593.595 C 507.04,597.651 507.54,601.685 508.147,605.696 C 508.889,609.762 512.918,612.241 516.955,610.908 C 520.507,609.479 524.014,607.854 527.459,605.971 C 530.904,604.087 534.302,601.986 537.657,599.712 C 541.012,597.44 544.344,595.032 547.653,592.546 C 550.964,590.06 554.271,587.521 557.574,585.004 C 560.877,582.486 564.188,580.021 567.527,577.647 C 570.866,575.273 574.23,573.047 577.641,571.001 C 581.053,568.956 584.514,567.134 588.039,565.599 C 591.562,564.064 595.162,562.835 598.84,561.981 C 602.52,561.127 606.279,560.647 610.115,560.49 C 613.951,560.334 617.849,560.445 621.802,560.802 C 625.755,561.16 629.748,561.716 633.778,562.414 C 637.806,563.112 641.854,563.904 645.919,564.758 C 649.983,565.612 654.05,566.487 658.109,567.325 C 662.169,568.164 666.212,568.913 670.226,569.553 C 674.24,570.193 678.215,570.656 682.145,570.911 C 686.075,571.168 689.945,571.173 693.774,570.971 C 698,570.493 700.624,566.55 699.703,562.461 z M 648.347,535.148 C 643.432,534.681 638.516,534.198 633.603,533.733 C 628.69,533.268 623.797,532.903 618.942,532.7 C 614.088,532.496 609.282,532.512 604.547,532.839 C 599.812,533.165 595.16,533.868 590.604,534.991 C 586.049,536.115 581.446,537.69 576.821,539.62 C 572.196,541.549 567.908,543.696 563.674,546.029 C 559.439,548.362 555.237,550.832 551.046,553.366 C 546.854,555.899 542.669,558.419 538.464,560.904 C 536.105,562.262 534.018,561.261 533.843,558.68 C 533.556,553.605 533.335,548.515 533.206,543.403 C 533.077,538.292 533.023,533.164 533.036,528.02 C 533.05,522.875 533.113,517.721 533.208,512.559 C 533.304,507.397 533.327,501.772 531.655,496.756 C 529.982,491.74 527.615,487.028 525.342,482.588 C 523.068,478.148 520.836,473.659 518.651,469.127 C 516.466,464.595 514.343,460.022 512.3,455.405 C 510.257,450.788 508.314,446.128 506.442,441.439 C 505.509,439.042 506.918,437.072 509.556,437.07 C 514.281,437.105 518.997,437.178 523.723,437.251 C 528.449,437.324 533.167,437.353 537.872,437.283 C 542.577,437.212 547.274,436.988 552.184,436.505 C 557.093,436.022 561.99,435.279 566.845,434.228 C 571.7,433.177 576.523,431.797 581.322,430.139 C 586.121,428.48 590.733,426.629 595.156,424.642 C 599.579,422.655 603.97,420.544 608.351,418.371 C 612.732,416.198 617.105,414.004 621.485,411.828 C 623.939,410.623 625.895,411.664 625.83,414.137 C 625.652,418.991 625.44,423.841 625.237,428.681 C 625.034,433.522 624.896,438.348 624.9,443.163 C 624.904,447.977 625.107,452.776 625.588,457.549 C 626.067,462.322 626.967,467.454 628.13,472.644 C 629.292,477.835 630.532,483.163 632.144,488.454 C 633.756,493.745 635.678,499.02 637.725,503.776 C 639.772,508.532 641.961,513.118 644.252,517.676 C 646.542,522.237 648.877,526.788 651.201,531.34 C 652.371,533.665 651.091,535.378 648.347,535.148 z"
   style="fill:#ffff00;stroke:#fb001f;stroke-width:10" />
					<path
   id="path4736"
   d="M 675.325,192.167 C 674.134,187.889 672.83,183.592 671.458,179.278 C 670.086,174.964 668.679,170.636 667.277,166.322 C 665.875,162.008 664.513,157.695 663.236,153.4 C 661.958,149.105 660.798,144.835 659.797,140.59 C 658.796,136.346 657.988,132.127 657.416,127.958 C 656.845,123.789 656.543,119.672 656.55,115.605 C 656.558,111.538 656.874,107.527 657.46,103.566 C 658.046,99.605 658.867,95.685 659.883,91.8 C 660.897,87.914 662.071,84.057 663.362,80.222 C 664.653,76.387 666.025,72.568 667.439,68.754 C 668.853,64.94 670.275,61.123 671.659,57.305 C 673.044,53.487 674.357,49.659 675.559,45.805 C 676.761,41.952 677.818,38.074 678.684,34.165 C 679.55,30.256 680.197,26.3 680.3,22.319 C 680.308,18.223 676.874,14.989 672.611,15.347 C 668.787,15.852 664.945,16.515 661.087,17.383 C 657.229,18.251 653.35,19.293 649.464,20.466 C 645.579,21.639 641.677,22.915 637.776,24.249 C 633.876,25.583 629.967,26.947 626.063,28.298 C 622.158,29.65 618.258,30.956 614.364,32.18 C 610.471,33.404 606.591,34.51 602.722,35.461 C 598.854,36.412 595.008,37.173 591.181,37.707 C 587.354,38.241 583.548,38.514 579.774,38.489 C 576.001,38.464 572.249,38.145 568.526,37.569 C 564.801,36.993 561.106,36.194 557.421,35.21 C 553.734,34.227 550.067,33.091 546.409,31.844 C 542.751,30.597 539.104,29.27 535.455,27.904 C 531.806,26.538 528.153,25.166 524.503,23.826 C 520.852,22.485 517.202,21.21 513.534,20.04 C 509.866,18.87 506.191,17.837 502.494,16.982 C 498.798,16.127 495.077,15.482 491.347,14.998 C 487.148,14.667 483.763,17.942 483.927,22.098 C 484.207,26.181 484.592,30.276 485.14,34.37 C 485.688,38.465 486.372,42.561 487.177,46.659 C 487.983,50.756 488.909,54.848 489.922,58.932 C 490.935,63.016 492.022,67.09 493.186,71.146 C 494.35,75.202 495.556,79.245 496.8,83.263 C 498.043,87.281 499.318,91.271 500.592,95.235 C 501.866,99.199 503.132,103.134 504.374,107.032 C 505.616,110.93 506.832,114.781 506.829,118.848 C 506.827,122.915 505.611,127.189 504.356,131.423 C 503.1,135.657 501.822,139.855 500.533,144.024 C 499.244,148.194 497.965,152.332 496.708,156.445 C 495.45,160.558 494.229,164.646 493.058,168.72 C 491.887,172.794 490.769,176.862 489.743,180.91 C 488.716,184.958 487.789,188.992 486.971,193.024 C 486.42,195.734 485.946,198.447 485.508,201.159 C 482.257,202.204 479.008,203.23 475.77,204.199 C 471.477,205.483 467.209,206.65 462.965,207.657 C 458.723,208.664 454.506,209.478 450.337,210.056 C 446.168,210.634 442.053,210.943 437.985,210.941 C 433.918,210.94 429.907,210.629 425.945,210.049 C 421.984,209.469 418.062,208.653 414.175,207.645 C 410.288,206.636 406.429,205.468 402.593,204.183 C 398.755,202.898 394.935,201.531 391.118,200.123 C 387.303,198.715 383.483,197.299 379.663,195.92 C 375.844,194.541 372.013,193.233 368.159,192.037 C 364.304,190.841 360.424,189.79 356.513,188.93 C 353.973,188.371 351.412,187.924 348.839,187.639 C 347.821,185.545 346.768,183.462 345.662,181.399 C 343.709,177.759 341.627,174.165 339.433,170.612 C 337.239,167.06 334.932,163.555 332.547,160.089 C 330.162,156.622 327.712,153.191 325.196,149.803 C 322.68,146.415 320.129,143.055 317.551,139.732 C 314.974,136.408 312.379,133.121 309.791,129.858 C 307.204,126.595 304.635,123.357 302.102,120.145 C 299.568,116.934 297.076,113.756 295.647,109.948 C 294.219,106.14 293.855,101.711 293.54,97.306 C 293.226,92.901 292.947,88.522 292.687,84.166 C 292.427,79.81 292.169,75.486 291.899,71.194 C 291.629,66.902 291.335,62.645 290.999,58.42 C 290.663,54.194 290.278,49.993 289.816,45.842 C 289.354,41.691 288.802,37.59 288.15,33.527 C 287.499,29.464 286.737,25.434 285.839,21.463 C 284.94,17.492 283.898,13.563 282.75,9.672 C 281.462,5.744 277.134,3.837 273.316,5.706 C 269.991,7.603 266.738,9.689 263.581,12.023 C 260.423,14.357 257.343,16.901 254.328,19.609 C 251.312,22.316 248.34,25.153 245.398,28.067 C 242.456,30.981 239.524,33.944 236.594,36.887 C 233.664,39.83 230.718,42.722 227.733,45.528 C 224.748,48.334 221.717,50.996 218.615,53.486 C 215.513,55.976 212.331,58.252 209.049,60.252 C 205.766,62.252 202.367,63.957 198.839,65.304 C 195.311,66.651 191.651,67.637 187.872,68.314 C 184.093,68.991 180.216,69.409 176.251,69.592 C 172.286,69.775 168.254,69.767 164.168,69.623 C 160.082,69.478 155.964,69.244 151.821,68.95 C 147.678,68.657 143.531,68.341 139.395,68.063 C 135.259,67.784 131.153,67.591 127.088,67.503 C 123.024,67.415 119.023,67.497 115.095,67.777 C 111.167,68.057 107.332,68.577 103.566,69.298 C 99.442,70.345 97.378,74.608 98.847,78.534 C 100.4,82.383 102.465,86.076 104.75,89.722 C 107.036,93.368 109.511,96.988 112.13,100.573 C 114.75,104.159 117.481,107.723 120.283,111.279 C 123.086,114.834 125.925,118.391 128.754,121.937 C 131.584,125.482 134.375,129.041 137.081,132.612 C 139.788,136.183 142.376,139.772 144.806,143.393 C 147.236,147.015 149.475,150.679 151.477,154.381 C 153.478,158.083 155.209,161.83 156.632,165.64 C 158.055,169.45 159.17,173.315 160.014,177.229 C 160.858,181.143 161.468,185.101 161.885,189.096 C 162.302,193.09 162.559,197.114 162.699,201.158 C 162.839,205.202 162.898,209.26 162.915,213.327 C 162.932,217.394 162.944,221.468 162.991,225.528 C 163.038,229.589 163.155,233.635 163.385,237.664 C 163.615,241.693 163.99,245.696 164.553,249.66 C 165.116,253.624 165.904,257.554 167.206,261.317 C 168.641,265.153 172.991,266.974 176.857,265.139 C 180.259,263.322 183.622,261.349 186.928,259.18 C 190.234,257.012 193.5,254.671 196.724,252.206 C 199.949,249.741 203.152,247.175 206.335,244.554 C 209.518,241.933 212.696,239.282 215.877,236.644 C 219.057,234.006 222.248,231.411 225.462,228.896 C 228.676,226.381 231.92,223.981 235.206,221.73 C 238.492,219.48 241.824,217.414 245.22,215.568 C 248.616,213.722 252.082,212.129 255.623,210.825 C 259.165,209.521 262.789,208.5 266.477,207.729 C 270.165,206.958 273.906,206.407 277.703,206.032 C 281.5,205.656 285.331,205.429 289.194,205.31 C 293.058,205.191 296.937,205.151 300.834,205.146 C 304.731,205.141 308.632,205.141 312.521,205.112 C 316.41,205.083 320.276,204.993 324.121,204.799 C 327.966,204.604 331.769,204.278 335.531,203.779 C 336.713,203.622 337.888,203.438 339.061,203.242 C 339.279,204.344 339.508,205.447 339.758,206.552 C 340.632,210.408 341.679,214.286 342.859,218.17 C 344.038,222.053 345.319,225.953 346.659,229.852 C 347.999,233.751 349.368,237.657 350.725,241.56 C 352.082,245.463 353.395,249.36 354.624,253.252 C 355.853,257.144 356.966,261.023 357.922,264.889 C 358.879,268.756 359.647,272.6 360.186,276.427 C 360.725,280.254 361.004,284.059 360.985,287.833 C 360.966,291.607 360.651,295.359 360.082,299.083 C 359.513,302.807 358.718,306.504 357.74,310.191 C 356.762,313.878 355.632,317.546 354.39,321.207 C 353.148,324.868 351.827,328.515 350.467,332.166 C 349.106,335.817 347.74,339.472 346.405,343.124 C 345.07,346.776 343.8,350.429 342.635,354.099 C 341.471,357.768 340.444,361.445 339.594,365.143 C 338.744,368.841 338.105,372.561 337.626,376.293 C 337.301,380.493 340.581,383.873 344.737,383.702 C 348.82,383.415 352.913,383.025 357.007,382.471 C 361.101,381.917 365.195,381.226 369.292,380.415 C 373.388,379.604 377.479,378.671 381.561,377.652 C 385.644,376.633 389.715,375.54 393.77,374.37 C 397.825,373.2 401.866,371.987 405.881,370.738 C 409.898,369.488 413.885,368.209 417.848,366.928 C 421.811,365.648 425.744,364.376 429.639,363.128 C 433.535,361.879 437.384,360.658 441.451,360.654 C 445.517,360.65 449.794,361.86 454.029,363.109 C 458.265,364.358 462.465,365.63 466.635,366.913 C 470.806,368.196 474.947,369.468 479.062,370.719 C 483.175,371.97 487.266,373.185 491.341,374.35 C 495.416,375.516 499.487,376.627 503.536,377.648 C 507.585,378.669 511.62,379.589 515.654,380.402 C 519.688,381.215 523.729,381.914 527.763,382.463 C 531.797,383.012 535.842,383.412 539.889,383.7 C 544.018,383.869 547.322,380.485 546.908,376.254 C 546.296,372.476 545.481,368.697 544.401,364.922 C 543.321,361.147 542.016,357.371 540.538,353.598 C 539.058,349.826 537.442,346.047 535.744,342.271 C 534.046,338.495 532.296,334.71 530.565,330.936 C 528.836,327.161 527.159,323.388 525.576,319.61 C 523.994,315.831 522.562,312.06 521.316,308.282 C 520.071,304.505 519.053,300.727 518.331,296.952 C 517.607,293.176 517.201,289.395 517.176,285.619 C 517.15,281.842 517.509,278.069 518.198,274.292 C 518.887,270.515 519.854,266.737 521.072,262.96 C 522.29,259.183 523.71,255.409 525.276,251.632 C 526.842,247.855 528.505,244.08 530.231,240.303 C 531.957,236.525 533.705,232.751 535.415,228.975 C 537.124,225.198 538.744,221.42 540.25,217.644 C 541.757,213.868 543.081,210.091 544.194,206.314 C 544.391,205.649 544.569,204.985 544.749,204.32 C 545.749,203.891 546.746,203.451 547.745,203.035 C 551.526,201.458 555.3,200.032 559.079,198.792 C 562.858,197.552 566.638,196.541 570.415,195.823 C 574.191,195.105 577.974,194.704 581.749,194.685 C 585.526,194.665 589.3,195.03 593.075,195.725 C 596.85,196.42 600.628,197.392 604.403,198.616 C 608.178,199.84 611.95,201.265 615.723,202.837 C 619.498,204.409 623.27,206.077 627.045,207.809 C 630.82,209.541 634.592,211.294 638.365,213.01 C 642.138,214.726 645.915,216.351 649.689,217.863 C 653.462,219.375 657.237,220.705 661.012,221.825 C 664.787,222.945 668.56,223.806 672.339,224.455 C 676.568,224.925 679.999,221.661 680.006,217.469 C 679.905,213.32 679.272,209.136 678.415,204.919 C 677.561,200.702 676.517,196.444 675.325,192.167 z M 304.266,176.919 C 299.58,177.526 294.898,178.095 290.206,178.666 C 285.515,179.236 280.835,179.848 276.184,180.557 C 271.533,181.266 266.91,182.127 262.112,183.272 C 257.314,184.418 252.564,185.82 247.896,187.521 C 243.228,189.222 238.638,191.244 234.109,193.539 C 229.581,195.835 225.262,198.295 221.151,200.865 C 217.04,203.435 212.975,206.123 208.93,208.871 C 204.885,211.62 200.851,214.387 196.807,217.138 C 194.539,218.665 192.46,217.9 192.189,215.441 C 191.705,210.608 191.256,205.774 190.8,200.952 C 190.344,196.129 189.824,191.327 189.166,186.558 C 188.507,181.788 187.654,177.062 186.53,172.398 C 185.406,167.735 183.817,162.773 181.96,157.788 C 180.103,152.804 178.15,147.694 175.835,142.671 C 173.52,137.648 170.898,132.683 168.224,128.249 C 165.55,123.815 162.757,119.571 159.869,115.365 C 156.981,111.159 154.049,106.967 151.128,102.773 C 149.65,100.63 150.687,98.758 153.437,98.613 C 158.37,98.407 163.306,98.218 168.237,98.011 C 173.167,97.803 178.064,97.5 182.901,97.043 C 187.738,96.585 192.498,95.917 197.144,94.949 C 201.79,93.981 206.304,92.654 210.664,90.922 C 215.024,89.19 219.37,87.004 223.69,84.464 C 228.011,81.924 231.967,79.214 235.845,76.327 C 239.723,73.441 243.55,70.422 247.359,67.343 C 251.169,64.263 254.972,61.198 258.8,58.164 C 260.952,56.498 263.155,57.206 263.68,59.739 C 264.654,64.728 265.564,69.741 266.387,74.788 C 267.209,79.835 267.959,84.908 268.645,90.005 C 269.331,95.103 269.968,100.218 270.576,105.345 C 271.183,110.472 271.924,116.048 274.262,120.79 C 276.6,125.531 279.586,129.879 282.442,133.969 C 285.298,138.059 288.119,142.202 290.9,146.395 C 293.681,150.588 296.405,154.83 299.056,159.126 C 301.707,163.422 304.266,167.775 306.758,172.167 C 308.008,174.416 306.88,176.559 304.266,176.919 z M 499.673,348.3 C 494.659,347.465 489.646,346.561 484.63,345.563 C 479.615,344.565 474.602,343.491 469.586,342.348 C 464.57,341.205 459.557,340.011 454.541,338.783 C 449.525,337.555 444.044,336.296 438.783,336.825 C 433.523,337.354 428.406,338.628 423.574,339.87 C 418.743,341.112 413.875,342.303 408.972,343.439 C 404.07,344.575 399.143,345.64 394.191,346.619 C 389.238,347.597 384.265,348.469 379.279,349.265 C 376.735,349.648 375.123,347.841 375.701,345.266 C 376.774,340.665 377.882,336.079 378.99,331.486 C 380.099,326.892 381.166,322.295 382.131,317.69 C 383.096,313.085 383.91,308.454 384.518,303.559 C 385.125,298.663 385.477,293.723 385.518,288.755 C 385.561,283.788 385.275,278.78 384.71,273.734 C 384.147,268.688 383.355,263.782 382.388,259.03 C 381.422,254.279 380.328,249.53 379.17,244.78 C 378.013,240.029 376.834,235.28 375.674,230.53 C 375.038,227.871 376.483,226.192 378.881,226.799 C 383.578,228.039 388.262,229.312 392.94,230.574 C 397.618,231.836 402.295,233.032 406.994,234.085 C 411.693,235.138 416.417,235.995 421.18,236.576 C 425.942,237.157 431.146,237.407 436.464,237.413 C 441.783,237.42 447.253,237.381 452.77,236.972 C 458.286,236.563 463.855,235.847 468.944,234.895 C 474.033,233.943 478.988,232.813 483.939,231.582 C 488.889,230.35 493.843,229.072 498.794,227.805 C 501.318,227.172 502.71,228.799 501.882,231.425 C 500.347,236.117 498.794,240.807 497.261,245.497 C 495.729,250.188 494.297,254.88 493.032,259.571 C 491.767,264.262 490.725,268.954 490.004,273.645 C 489.283,278.336 488.945,283.028 489.04,287.719 C 489.135,292.41 489.66,297.246 490.525,302.182 C 491.39,307.118 492.545,311.773 493.888,316.417 C 495.234,321.061 496.72,325.702 498.27,330.348 C 499.82,334.994 501.359,339.631 502.859,344.279 C 503.664,346.88 502.229,348.696 499.673,348.3 z M 640.779,56.477 C 639.533,61.171 638.253,65.854 636.983,70.53 C 635.714,75.206 634.511,79.883 633.451,84.579 C 632.391,89.275 631.526,93.999 630.938,98.761 C 630.349,103.522 630.092,108.726 630.078,114.045 C 630.062,119.364 630.094,124.834 630.495,130.351 C 630.895,135.868 631.603,141.437 632.547,146.528 C 633.491,151.619 634.613,156.574 635.838,161.528 C 637.063,166.482 638.332,171.437 639.592,176.39 C 640.221,178.916 638.593,180.304 635.968,179.473 C 631.278,177.93 626.591,176.37 621.903,174.83 C 617.214,173.29 612.524,171.851 607.835,170.579 C 603.146,169.306 598.455,168.258 593.765,167.53 C 589.076,166.801 584.384,166.457 579.693,166.545 C 575.002,166.633 570.165,167.151 565.227,168.009 C 560.289,168.866 555.632,170.013 550.987,171.351 C 546.341,172.689 541.697,174.168 537.049,175.712 C 532.401,177.255 527.762,178.786 523.111,180.28 C 520.509,181.082 518.696,179.645 519.096,177.089 C 519.939,172.077 520.85,167.064 521.855,162.05 C 522.861,157.036 523.943,152.024 525.093,147.01 C 526.243,141.996 527.447,136.984 528.681,131.971 C 529.915,126.957 531.184,121.477 530.662,116.216 C 530.14,110.955 528.874,105.835 527.64,101.002 C 526.406,96.168 525.221,91.297 524.093,86.394 C 522.964,81.491 521.905,76.561 520.935,71.607 C 519.965,66.653 519.101,61.678 518.312,56.691 C 517.932,54.147 519.742,52.537 522.316,53.119 C 526.916,54.199 531.5,55.313 536.091,56.43 C 540.684,57.546 545.279,58.619 549.883,59.591 C 554.487,60.563 559.116,61.384 564.011,61.999 C 568.907,62.614 573.846,62.972 578.814,63.022 C 583.781,63.071 588.79,62.793 593.835,62.236 C 598.882,61.68 603.79,60.896 608.542,59.936 C 613.296,58.977 618.046,57.89 622.798,56.74 C 627.552,55.59 632.302,54.418 637.055,53.265 C 639.713,52.632 641.391,54.08 640.779,56.477 z"
   style="fill:#ffff00;stroke:#fb001f;stroke-width:10" />
				</g>
			</g>
		</g></svg>