<?xml version="1.0" encoding="UTF-8" standalone="no"?>
<!-- Generator: Adobe Illustrator 10, SVG Export Plug-In . SVG Version: 3.0.0 Build 76)  -->
<svg
   xmlns:dc="http://purl.org/dc/elements/1.1/"
   xmlns:cc="http://creativecommons.org/ns#"
   xmlns:rdf="http://www.w3.org/1999/02/22-rdf-syntax-ns#"
   xmlns:svg="http://www.w3.org/2000/svg"
   xmlns="http://www.w3.org/2000/svg"
   xmlns:sodipodi="http://sodipodi.sourceforge.net/DTD/sodipodi-0.dtd"
   xmlns:inkscape="http://www.inkscape.org/namespaces/inkscape"
   width="434.70621"
   height="536.90533"
   viewBox="0 0 468.311 616.231"
   style="overflow:visible"
   xml:space="preserve"
   id="svg4745"
   sodipodi:version="0.32"
   inkscape:version="0.46"
   sodipodi:docname="Wish.svg"
   inkscape:output_extension="org.inkscape.output.svg.inkscape"
   version="1.0"><metadata
   id="metadata4783"><rdf:RDF><cc:Work
       rdf:about=""><dc:format>image/svg+xml</dc:format><dc:type
         rdf:resource="http://purl.org/dc/dcmitype/StillImage" /></cc:Work></rdf:RDF></metadata><defs
   id="defs4781"><inkscape:perspective
   sodipodi:type="inkscape:persp3d"
   inkscape:vp_x="0 : 308.11551 : 1"
   inkscape:vp_y="0 : 1000 : 0"
   inkscape:vp_z="468.311 : 308.11551 : 1"
   inkscape:persp3d-origin="234.1555 : 205.41034 : 1"
   id="perspective4785" />
		
		
	</defs><sodipodi:namedview
   inkscape:window-height="670"
   inkscape:window-width="640"
   inkscape:pageshadow="2"
   inkscape:pageopacity="0.0"
   guidetolerance="10.0"
   gridtolerance="10.0"
   objecttolerance="10.0"
   borderopacity="1.0"
   bordercolor="#666666"
   pagecolor="#ffffff"
   id="base"
   showgrid="false"
   inkscape:zoom="0.74971883"
   inkscape:cx="234.1555"
   inkscape:cy="308.11551"
   inkscape:window-x="99"
   inkscape:window-y="0"
   inkscape:current-layer="svg4745" />
	<style
   type="text/css"
   id="style4747">
	
		@font-face{font-family:'Times-Roman';src:url(C54FA715.cef)}
	
	</style>
	
<g
   transform="matrix(1.1477461,0,0,1.1477461,-23.520466,2.4597957e-6)"
   style="overflow:visible"
   id="g4766">
			<path
   id="path4768"
   d="M 392.733,97.893 C 382.951,89.409 368.695,78.94 352.252,68.47 C 335.809,58 320.291,49.512 308.523,44.274 C 296.754,39.037 288.78,37.062 287.351,39.589 C 280.846,52.641 275.256,66.262 270.77,80.594 C 266.284,94.927 262.656,109.809 259.423,124.948 C 258.805,128.036 265.129,135.209 275.778,144.25 C 264.358,139.234 256.95,137.667 256.373,140.779 C 253.575,156.19 250.803,171.604 247.789,186.875 C 244.775,202.147 241.287,217.121 237.303,231.778 C 236.427,234.701 242.485,241.704 252.93,250.611 C 241.276,245.45 233.544,243.668 232.539,246.519 C 227.177,260.292 220.942,273.503 213.152,285.731 C 205.362,297.961 196.031,309.216 185.824,319.914 C 183.661,322.019 188.548,328.269 198.156,336.651 C 185.667,330.961 176.762,328.431 174.486,330.465 C 170.638,333.718 166.718,336.924 162.765,340.109 C 161.808,337.188 160.859,334.265 159.95,331.344 C 159.119,328.408 150.248,325.754 136.653,323.853 C 149.257,321.945 156.736,319.296 156.052,316.352 C 153.177,301.854 151.341,287.362 151.344,272.863 C 151.346,258.362 153.173,243.857 156.037,229.351 C 156.73,226.414 149.252,223.766 136.646,221.856 C 150.236,219.949 159.107,217.299 159.934,214.36 C 164.45,199.859 169.54,185.363 175.208,170.866 C 180.877,156.368 186.808,141.863 192.729,127.365 C 193.905,124.422 186.817,121.765 174.488,119.863 C 188.338,117.961 197.512,115.303 198.658,112.369 C 204.065,97.863 208.996,83.369 212.91,68.869 C 216.824,54.368 219.425,39.866 220.952,25.366 C 221.114,22.471 213.311,19.843 200.577,17.945 C 187.843,16.047 170.194,14.871 150.7,14.871 C 131.207,14.871 113.561,16.047 100.742,17.945 C 87.924,19.843 79.928,22.471 79.765,25.366 C 78.235,39.866 75.64,54.363 71.724,68.862 C 67.808,83.362 62.875,97.863 57.471,112.369 C 56.32,115.303 63.441,117.961 75.767,119.863 C 61.914,121.765 52.716,124.422 51.545,127.365 C 45.619,141.863 39.69,156.36 34.024,170.858 C 28.358,185.357 23.26,199.859 18.744,214.36 C 17.919,217.298 25.334,219.948 37.925,221.856 C 24.355,223.766 15.538,226.414 14.846,229.351 C 11.985,243.857 10.144,258.347 10.153,272.848 C 10.161,287.35 11.989,301.854 14.868,316.352 C 15.543,319.296 24.359,321.945 37.933,323.853 C 25.35,325.754 17.935,328.409 18.766,331.344 C 23.275,345.847 28.369,360.345 34.028,374.845 C 39.687,389.346 45.635,403.845 51.553,418.346 C 51.963,419.359 53.344,420.337 55.52,421.263 C 54.222,422.415 52.932,423.572 51.655,424.738 C 40.566,434.868 30.582,445.703 21.507,457.115 C 19.816,459.47 24.986,465.877 34.708,474.317 C 44.431,482.758 58.686,493.23 75.13,503.7 C 76.023,504.268 76.913,504.829 77.8,505.386 C 78.587,510.371 79.248,515.357 79.772,520.343 C 79.918,523.241 87.939,525.86 100.748,527.762 C 107.322,528.739 115.177,529.522 123.896,530.053 C 133.006,533.729 139.158,534.952 140.601,532.946 C 141.183,532.214 141.78,531.491 142.37,530.764 C 145.103,530.811 147.879,530.839 150.698,530.839 C 170.192,530.839 187.84,529.664 200.58,527.762 C 213.32,525.86 221.107,523.241 220.955,520.343 C 219.432,505.839 216.831,491.347 212.918,476.848 C 211.476,471.505 209.894,466.163 208.202,460.82 C 213.769,462.645 217.658,463.167 219.187,462.063 C 231.972,453.016 244.76,443.972 257.327,434.786 C 269.894,425.6 281.982,416.105 293.58,406.298 C 295.855,404.263 291.023,398.045 281.426,389.673 C 293.899,395.352 302.758,397.853 304.92,395.747 C 315.125,385.048 324.459,373.813 332.24,361.577 C 340.022,349.34 346.27,336.124 351.629,322.348 C 352.641,319.502 346.627,312.533 336.201,303.633 C 347.837,308.787 355.515,310.53 356.392,307.608 C 360.377,292.952 363.868,277.988 366.882,262.717 C 369.897,247.446 372.666,232.021 375.462,216.609 C 376.038,213.496 369.712,206.317 359.045,197.271 C 370.481,202.292 377.895,203.867 378.515,200.78 C 381.751,185.643 385.378,170.769 389.857,156.434 C 394.334,142.099 399.937,128.472 406.441,115.418 C 407.877,112.894 402.517,106.378 392.733,97.893 z"
   style="fill:#88003d;stroke:#0a175e;stroke-width:6" />
			<path
   id="path4770"
   d="M 424.921,86.018 C 415.139,77.534 400.883,67.065 384.44,56.595 C 367.997,46.125 352.479,37.637 340.711,32.399 C 328.942,27.162 320.968,25.187 319.539,27.714 C 313.034,40.766 307.444,54.388 302.958,68.719 C 298.472,83.052 294.844,97.934 291.611,113.073 C 290.993,116.161 297.317,123.334 307.966,132.375 C 296.546,127.359 289.138,125.792 288.561,128.904 C 285.763,144.315 282.991,159.729 279.977,175 C 276.963,190.272 273.475,205.246 269.491,219.903 C 268.614,222.826 274.673,229.829 285.118,238.736 C 273.464,233.575 265.732,231.793 264.727,234.644 C 259.365,248.417 253.129,261.627 245.34,273.856 C 237.55,286.086 228.219,297.341 218.012,308.04 C 215.849,310.145 220.736,316.395 230.344,324.776 C 217.855,319.086 208.95,316.557 206.674,318.59 C 202.826,321.843 198.906,325.049 194.953,328.234 C 193.996,325.313 193.047,322.39 192.138,319.469 C 191.307,316.533 182.436,313.879 168.841,311.977 C 181.445,310.07 188.924,307.421 188.24,304.477 C 185.365,289.979 183.529,275.487 183.532,260.988 C 183.534,246.488 185.361,231.982 188.225,217.476 C 188.918,214.539 181.44,211.891 168.834,209.981 C 182.424,208.074 191.295,205.424 192.122,202.485 C 196.638,187.984 201.728,173.488 207.396,158.991 C 213.065,144.493 218.996,129.988 224.917,115.49 C 226.093,112.548 219.005,109.89 206.676,107.988 C 220.526,106.086 229.699,103.428 230.846,100.494 C 236.253,85.989 241.184,71.494 245.098,56.994 C 249.012,42.493 251.614,27.991 253.14,13.491 C 253.301,10.596 245.499,7.968 232.765,6.07 C 220.031,4.176 202.381,3 182.888,3 C 163.395,3 145.749,4.176 132.93,6.074 C 120.112,7.972 112.116,10.6 111.953,13.495 C 110.423,27.995 107.828,42.492 103.912,56.991 C 99.996,71.491 95.063,85.992 89.659,100.498 C 88.508,103.432 95.629,106.09 107.955,107.992 C 94.102,109.894 84.904,112.552 83.733,115.494 C 77.807,129.992 71.878,144.489 66.212,158.987 C 60.546,173.486 55.448,187.988 50.932,202.489 C 50.107,205.427 57.522,208.077 70.113,209.985 C 56.543,211.895 47.726,214.543 47.034,217.48 C 44.173,231.986 42.332,246.476 42.341,260.977 C 42.349,275.479 44.177,289.983 47.056,304.481 C 47.731,307.425 56.547,310.074 70.121,311.981 C 57.538,313.883 50.123,316.538 50.954,319.473 C 55.463,333.976 60.557,348.474 66.216,362.974 C 71.875,377.475 77.823,391.974 83.741,406.475 C 84.151,407.488 85.532,408.466 87.708,409.392 C 86.41,410.544 85.12,411.701 83.843,412.867 C 72.754,422.997 62.77,433.832 53.695,445.244 C 52.004,447.599 57.174,454.006 66.896,462.446 C 76.619,470.887 90.874,481.359 107.318,491.829 C 108.211,492.397 109.101,492.958 109.988,493.515 C 110.775,498.5 111.436,503.486 111.96,508.472 C 112.106,511.371 120.127,513.989 132.936,515.891 C 139.51,516.868 147.365,517.651 156.084,518.182 C 165.194,521.858 171.346,523.081 172.789,521.075 C 173.371,520.343 173.968,519.62 174.558,518.893 C 177.291,518.94 180.067,518.968 182.886,518.968 C 202.38,518.968 220.028,517.793 232.768,515.891 C 245.508,513.989 253.295,511.371 253.143,508.472 C 251.621,493.968 249.02,479.476 245.106,464.977 C 243.665,459.634 242.083,454.292 240.391,448.949 C 245.957,450.774 249.846,451.296 251.375,450.192 C 264.16,441.145 276.948,432.101 289.515,422.915 C 302.082,413.729 314.17,404.234 325.768,394.427 C 328.043,392.392 323.211,386.174 313.614,377.802 C 326.087,383.481 334.946,385.982 337.108,383.876 C 347.313,373.177 356.647,361.942 364.428,349.706 C 372.21,337.469 378.458,324.253 383.817,310.477 C 384.829,307.631 378.815,300.662 368.389,291.762 C 380.025,296.916 387.703,298.659 388.58,295.737 C 392.565,281.081 396.056,266.117 399.07,250.846 C 402.085,235.575 404.854,220.15 407.65,204.739 C 408.226,201.625 401.9,194.447 391.234,185.4 C 402.669,190.421 410.083,191.996 410.703,188.909 C 413.939,173.772 417.566,158.898 422.045,144.563 C 426.522,130.228 432.125,116.601 438.629,103.547 C 440.064,101.019 434.704,94.503 424.921,86.018 z"
   style="fill:#5e5e1a;stroke:#5e3903;stroke-width:6" />
			<path
   id="path4772"
   d="M 413.175,94.3 C 405.52,87.312 394.243,78.828 381.135,70.482 C 368.027,62.135 355.569,55.507 346.044,51.557 C 336.52,47.606 329.965,46.341 328.608,48.698 C 322.334,60.813 316.789,73.382 312.125,86.517 C 307.459,99.653 303.478,113.227 299.812,127.007 C 299.098,129.815 303.94,135.846 312.287,143.278 C 303.041,139.504 296.935,138.568 296.255,141.395 C 292.935,155.391 289.638,169.387 286.146,183.272 C 282.654,197.158 278.784,210.805 274.519,224.2 C 273.6,226.876 278.23,232.772 286.414,240.096 C 276.98,236.207 270.618,235.098 269.596,237.719 C 264.233,250.408 258.174,262.649 250.875,274.108 C 243.576,285.568 235.048,296.251 225.822,306.49 C 223.877,308.514 227.574,313.809 235.09,320.716 C 224.991,316.405 217.693,314.702 215.657,316.67 C 207.71,323.998 199.53,331.174 191.126,338.207 C 189.176,331.654 187.327,325.103 185.593,318.55 C 184.931,315.798 177.859,313.312 167.021,311.529 C 177.068,309.742 183.03,307.26 182.485,304.501 C 180.193,290.917 178.73,277.338 178.732,263.751 C 178.734,250.164 180.19,236.572 182.473,222.98 C 183.026,220.228 177.064,217.747 167.015,215.957 C 177.849,214.17 184.921,211.687 185.58,208.934 C 189.179,195.346 193.237,181.764 197.756,168.18 C 202.276,154.596 207.003,141.004 211.723,127.419 C 212.661,124.661 207.01,122.172 197.181,120.39 C 208.222,118.607 215.535,116.117 216.449,113.368 C 220.759,99.776 224.691,86.195 227.81,72.608 C 230.93,59.02 233.004,45.432 234.221,31.845 C 234.35,29.133 228.129,26.671 217.978,24.892 C 207.827,23.113 193.757,22.011 178.217,22.011 C 162.677,22.011 148.611,23.113 138.392,24.892 C 128.174,26.67 121.799,29.133 121.67,31.845 C 120.45,45.432 118.382,59.016 115.26,72.602 C 112.138,86.188 108.206,99.776 103.898,113.368 C 102.981,116.117 108.658,118.607 118.484,120.39 C 107.441,122.172 100.109,124.661 99.175,127.419 C 94.451,141.003 89.724,154.587 85.207,168.172 C 80.69,181.757 76.626,195.346 73.026,208.934 C 72.368,211.687 78.28,214.17 88.317,215.957 C 77.499,217.747 70.471,220.228 69.918,222.98 C 67.638,236.572 66.17,250.149 66.177,263.737 C 66.184,277.324 67.641,290.916 69.936,304.5 C 70.474,307.26 77.502,309.741 88.323,311.528 C 78.292,313.31 72.381,315.797 73.043,318.549 C 76.638,332.138 80.698,345.723 85.21,359.31 C 89.722,372.897 94.463,386.483 99.181,400.072 C 99.87,402.076 103.962,403.941 110.4,405.496 C 109.195,406.653 107.999,407.814 106.813,408.982 C 96.884,418.769 87.836,429.116 79.512,439.923 C 77.946,442.142 81.87,447.56 89.478,454.513 C 96.69,461.103 107.202,469.074 119.444,476.994 C 120.376,483.21 121.12,489.426 121.676,495.64 C 121.793,498.357 128.187,500.81 138.398,502.593 C 148.609,504.375 162.677,505.476 178.217,505.476 C 193.758,505.476 207.826,504.375 217.982,502.593 C 228.138,500.81 234.346,498.357 234.225,495.64 C 233.011,482.051 230.938,468.472 227.818,454.886 C 227.237,452.355 226.619,449.824 225.984,447.293 C 228.381,445.234 230.796,443.187 233.229,441.15 C 235.478,439.324 232.028,434.174 224.696,427.393 C 234.969,431.821 242.49,433.659 244.759,431.834 C 256.04,422.912 267.322,413.992 278.43,404.959 C 289.535,395.926 300.262,386.647 310.597,377.117 C 312.631,375.149 308.978,369.879 301.471,362.981 C 311.557,367.282 318.819,368.963 320.762,366.938 C 329.987,356.698 338.516,346.033 345.809,334.568 C 353.101,323.103 359.171,310.856 364.532,298.164 C 365.56,295.548 360.965,289.68 352.797,282.36 C 362.216,286.244 368.537,287.322 369.456,284.644 C 373.722,271.25 377.593,257.612 381.085,243.727 C 384.577,229.842 387.874,215.836 391.192,201.84 C 391.872,199.012 387.028,192.976 378.668,185.54 C 387.927,189.317 394.038,190.26 394.752,187.453 C 398.421,173.675 402.401,160.108 407.06,146.971 C 411.718,133.833 417.275,121.259 423.548,109.143 C 424.907,106.791 420.831,101.288 413.175,94.3 z"
   style="fill:#b8b832;stroke:#ad6a08;stroke-width:6" />
			<path
   id="path4774"
   d="M 386.275,117.399 C 379.593,111.304 369.755,103.904 358.318,96.622 C 346.882,89.34 336.013,83.556 327.705,80.107 C 319.396,76.657 313.681,75.551 312.5,77.603 C 307.035,88.156 302.209,99.104 298.15,110.547 C 294.089,121.991 290.628,133.818 287.439,145.822 C 286.82,148.269 291.045,153.527 298.329,160.01 C 290.264,156.715 284.939,155.895 284.348,158.359 C 281.463,170.552 278.596,182.747 275.56,194.844 C 272.525,206.941 269.159,218.831 265.45,230.501 C 264.649,232.833 268.691,237.973 275.833,244.361 C 267.603,240.966 262.055,239.995 261.165,242.278 C 256.497,253.332 251.222,263.994 244.864,273.975 C 238.508,283.955 231.078,293.259 223.039,302.175 C 221.345,303.938 224.572,308.555 231.13,314.578 C 222.322,310.814 215.956,309.324 214.183,311.039 C 208.061,316.678 201.772,322.208 195.34,327.645 C 193.398,321.218 191.563,314.791 189.858,308.363 C 189.28,305.967 183.11,303.801 173.655,302.248 C 182.421,300.691 187.622,298.53 187.147,296.127 C 185.147,284.295 183.87,272.469 183.872,260.635 C 183.874,248.801 185.144,236.963 187.136,225.125 C 187.618,222.728 182.417,220.567 173.65,219.009 C 183.102,217.452 189.272,215.29 189.847,212.892 C 192.987,201.057 196.528,189.227 200.47,177.396 C 204.413,165.564 208.538,153.727 212.656,141.895 C 213.474,139.494 208.544,137.325 199.969,135.773 C 209.602,134.22 215.983,132.051 216.78,129.657 C 220.54,117.819 223.97,105.99 226.693,94.156 C 229.414,82.322 231.224,70.487 232.286,58.653 C 232.398,56.29 226.973,54.146 218.115,52.597 C 209.259,51.048 196.983,50.088 183.425,50.088 C 169.867,50.088 157.594,51.048 148.679,52.597 C 139.764,54.146 134.202,56.29 134.089,58.653 C 133.025,70.487 131.22,82.318 128.497,94.151 C 125.773,105.984 122.343,117.819 118.583,129.657 C 117.783,132.051 122.735,134.22 131.309,135.773 C 121.674,137.325 115.277,139.494 114.462,141.895 C 110.34,153.727 106.216,165.558 102.275,177.39 C 98.334,189.222 94.789,201.057 91.648,212.892 C 91.074,215.29 96.231,217.453 104.989,219.009 C 95.551,220.567 89.419,222.728 88.937,225.125 C 86.947,236.963 85.667,248.789 85.673,260.624 C 85.678,272.458 86.95,284.295 88.952,296.127 C 89.422,298.53 95.554,300.691 104.994,302.248 C 96.243,303.801 91.085,305.967 91.663,308.363 C 94.8,320.199 98.342,332.03 102.278,343.864 C 106.214,355.698 110.351,367.531 114.467,379.366 C 115.144,381.332 119.575,383.144 126.467,384.59 C 125.466,385.522 124.488,386.469 123.5,387.409 C 119.908,388.648 118.087,390.078 118.589,391.601 C 118.633,391.74 118.676,391.878 118.72,392.018 C 110.308,400.358 102.622,409.162 95.543,418.35 C 94.179,420.283 97.605,425.005 104.244,431.069 C 110.883,437.133 120.722,444.536 132.159,451.818 C 132.431,451.992 132.702,452.16 132.974,452.333 C 133.41,455.757 133.786,459.182 134.093,462.605 C 134.195,464.971 139.774,467.107 148.683,468.66 C 154.414,469.66 161.543,470.41 169.506,470.82 C 174.178,472.25 177.347,472.444 178.341,471.126 C 180.011,471.156 181.707,471.172 183.423,471.172 C 196.982,471.172 209.256,470.214 218.117,468.66 C 226.978,467.107 232.394,464.972 232.288,462.605 C 231.228,450.768 229.42,438.942 226.698,427.109 C 226.371,425.685 226.031,424.26 225.683,422.836 C 226.984,421.732 228.277,420.622 229.589,419.524 C 231.549,417.935 228.536,413.445 222.139,407.531 C 231.1,411.396 237.661,413.003 239.638,411.415 C 249.47,403.648 259.302,395.884 268.982,388.019 C 278.661,380.155 288.008,372.075 297.014,363.78 C 298.786,362.065 295.597,357.471 289.046,351.454 C 297.845,355.21 304.178,356.681 305.871,354.917 C 313.908,346 321.339,336.712 327.69,326.727 C 334.042,316.741 339.327,306.073 343.993,295.017 C 344.888,292.737 340.876,287.621 333.749,281.237 C 341.965,284.628 347.478,285.571 348.277,283.239 C 351.989,271.571 355.355,259.688 358.391,247.592 C 361.426,235.495 364.291,223.292 367.176,211.098 C 367.767,208.634 363.539,203.37 356.243,196.885 C 364.32,200.183 369.648,201.009 370.269,198.563 C 373.459,186.559 376.921,174.74 380.975,163.295 C 385.028,151.85 389.865,140.897 395.327,130.342 C 396.514,128.292 392.955,123.494 386.275,117.399 z"
   style="fill:#d1d139;stroke:#db860a;stroke-width:6" />
			<path
   id="path4776"
   d="M 349.108,153.035 C 344.937,148.932 338.691,144.062 331.345,139.385 C 323.998,134.707 316.943,131.108 311.487,129.081 C 306.03,127.054 302.193,126.602 301.252,128.207 C 296.828,136.421 292.814,144.888 289.294,153.674 C 285.772,162.46 282.634,171.492 279.672,180.639 C 279.088,182.501 281.637,186.141 286.194,190.494 C 280.893,188.566 277.305,188.302 276.74,190.175 C 273.973,199.443 271.219,208.711 268.355,217.916 C 265.491,227.122 262.415,236.195 259.117,245.126 C 258.42,246.914 260.847,250.479 265.316,254.771 C 259.908,252.779 256.177,252.418 255.42,254.176 C 251.507,262.712 247.206,270.994 242.208,278.841 C 237.212,286.688 231.524,294.099 225.446,301.263 C 224.174,302.686 226.079,305.913 230.172,309.972 C 224.393,307.743 220.137,307.048 218.813,308.44 C 212.115,315.205 205.201,321.828 198.07,328.313 C 197.606,328.735 197.134,329.153 196.67,329.575 C 195.83,326.563 194.983,323.554 194.164,320.541 C 191.635,311.237 189.357,301.932 187.341,292.627 C 186.97,290.744 183.007,289.041 176.933,287.82 C 182.564,286.597 185.905,284.898 185.6,283.008 C 184.316,273.707 183.496,264.41 183.496,255.108 C 183.497,245.805 184.313,236.499 185.593,227.192 C 185.903,225.308 182.561,223.609 176.929,222.384 C 183.001,221.16 186.964,219.46 187.333,217.575 C 189.35,208.271 191.625,198.971 194.157,189.671 C 196.69,180.37 199.339,171.064 201.985,161.762 C 202.51,159.874 199.344,158.17 193.836,156.949 C 200.024,155.729 204.122,154.023 204.634,152.141 C 207.05,142.834 209.253,133.536 211.002,124.232 C 212.75,114.929 213.913,105.625 214.595,96.322 C 214.667,94.465 211.181,92.779 205.492,91.561 C 199.804,90.343 191.918,89.589 183.209,89.589 C 174.5,89.589 166.617,90.343 160.891,91.561 C 155.164,92.779 151.592,94.465 151.519,96.322 C 150.835,105.625 149.676,114.926 147.927,124.228 C 146.178,133.53 143.974,142.834 141.559,152.141 C 141.045,154.023 144.226,155.728 149.733,156.949 C 143.544,158.17 139.435,159.874 138.912,161.762 C 136.265,171.063 133.615,180.364 131.084,189.666 C 128.553,198.967 126.275,208.271 124.258,217.575 C 123.889,219.46 127.202,221.16 132.827,222.384 C 126.765,223.609 122.825,225.308 122.516,227.192 C 121.238,236.498 120.415,245.795 120.419,255.098 C 120.422,264.402 121.239,273.707 122.525,283.008 C 122.826,284.899 126.765,286.598 132.83,287.82 C 127.208,289.041 123.896,290.744 124.267,292.627 C 126.282,301.932 128.557,311.232 131.085,320.536 C 133.613,329.839 136.271,339.141 138.915,348.445 C 139.445,350.329 143.552,352.033 149.742,353.254 C 144.228,354.478 141.056,356.18 141.563,358.064 C 143.225,364.472 144.773,370.878 146.157,377.283 C 140.669,383.335 135.519,389.604 130.696,396.08 C 129.638,397.607 131.673,400.901 135.817,404.984 C 139.962,409.067 146.208,413.938 153.554,418.616 C 160.9,423.294 167.955,426.89 173.439,428.939 C 178.924,430.988 182.843,431.484 183.902,429.957 C 186.32,426.711 188.83,423.523 191.407,420.379 C 196.814,420.068 201.658,419.465 205.493,418.643 C 211.184,417.422 214.664,415.744 214.596,413.883 C 214.191,408.337 213.59,402.793 212.82,397.251 C 215.926,394.211 219.082,391.203 222.282,388.222 C 223.726,386.91 221.958,383.764 217.969,379.777 C 223.845,382.072 228.227,382.84 229.682,381.529 C 236.911,375.105 244.14,368.682 251.271,362.196 C 258.403,355.71 265.321,349.085 272.02,342.32 C 273.343,340.927 271.461,337.715 267.374,333.661 C 273.145,335.885 277.382,336.566 278.654,335.143 C 284.731,327.979 290.417,320.579 295.411,312.729 C 300.405,304.879 304.714,296.591 308.624,288.054 C 309.386,286.298 306.976,282.75 302.517,278.46 C 307.915,280.45 311.623,280.793 312.322,279.005 C 315.621,270.074 318.697,261.006 321.56,251.801 C 324.424,242.596 327.179,233.322 329.945,224.054 C 330.51,222.18 327.962,218.537 323.395,214.183 C 328.704,216.113 332.293,216.38 332.878,214.518 C 335.841,205.372 338.978,196.345 342.495,187.558 C 346.012,178.771 350.033,170.3 354.456,162.085 C 355.4,160.479 353.28,157.138 349.108,153.035 z"
   style="fill:#f2f242;stroke:#fa990c;stroke-width:6" />
			<path
   id="path4778"
   d="M 324.664,180.504 C 321.548,177.444 316.883,173.812 311.399,170.319 C 305.915,166.827 300.649,164.138 296.578,162.62 C 292.508,161.102 289.646,160.76 288.947,161.953 C 285.664,168.055 282.687,174.346 280.078,180.874 C 277.469,187.402 275.144,194.115 272.953,200.914 C 272.521,202.298 274.426,205.011 277.832,208.256 C 273.877,206.812 271.202,206.61 270.784,208.002 C 268.738,214.891 266.7,221.779 264.582,228.621 C 262.463,235.463 260.186,242.206 257.744,248.844 C 257.226,250.173 259.043,252.829 262.381,256.029 C 258.347,254.538 255.566,254.263 255.004,255.569 C 252.103,261.911 248.91,268.064 245.199,273.891 C 241.487,279.719 237.261,285.222 232.744,290.539 C 231.797,291.596 233.223,293.999 236.281,297.024 C 231.969,295.357 228.796,294.833 227.81,295.865 C 222.829,300.885 217.687,305.8 212.383,310.611 C 207.078,315.422 201.697,320.19 196.321,324.956 C 196.198,325.066 196.115,325.199 196.053,325.344 C 194.544,320.058 193.042,314.773 191.597,309.486 C 189.709,302.576 188.009,295.665 186.504,288.755 C 186.227,287.357 183.268,286.092 178.734,285.186 C 182.938,284.277 185.432,283.015 185.204,281.612 C 184.246,274.705 183.633,267.799 183.634,260.89 C 183.635,253.981 184.244,247.07 185.199,240.158 C 185.43,238.758 182.936,237.497 178.732,236.587 C 183.265,235.678 186.223,234.416 186.499,233.016 C 188.005,226.106 189.703,219.199 191.593,212.292 C 193.484,205.384 195.462,198.473 197.437,191.565 C 197.829,190.163 195.465,188.897 191.353,187.99 C 195.972,187.084 199.032,185.817 199.414,184.42 C 201.217,177.508 202.862,170.602 204.167,163.693 C 205.472,156.783 206.34,149.874 206.849,142.965 C 206.903,141.586 204.301,140.334 200.054,139.429 C 195.807,138.525 189.921,137.964 183.419,137.964 C 176.918,137.964 171.033,138.525 166.757,139.429 C 162.482,140.334 159.815,141.586 159.761,142.965 C 159.25,149.874 158.385,156.781 157.079,163.69 C 155.773,170.599 154.128,177.508 152.326,184.42 C 151.942,185.817 154.317,187.084 158.429,187.99 C 153.808,188.897 150.741,190.162 150.35,191.565 C 148.373,198.473 146.396,205.38 144.506,212.289 C 142.616,219.197 140.916,226.107 139.409,233.017 C 139.134,234.417 141.607,235.68 145.806,236.588 C 141.28,237.498 138.34,238.759 138.109,240.159 C 137.154,247.071 136.541,253.975 136.544,260.884 C 136.546,267.794 137.156,274.705 138.117,281.613 C 138.342,283.016 141.283,284.278 145.809,285.187 C 141.612,286.093 139.14,287.358 139.416,288.756 C 140.92,295.666 142.619,302.574 144.507,309.484 C 146.394,316.393 148.378,323.301 150.352,330.212 C 150.748,331.61 153.813,332.877 158.435,333.782 C 154.318,334.691 151.95,335.956 152.329,337.355 C 154.13,344.267 155.774,351.173 157.082,358.081 C 158.39,364.988 159.254,371.899 159.763,378.81 C 159.812,380.191 162.487,381.439 166.759,382.344 C 171.031,383.251 176.917,383.811 183.418,383.811 C 185.698,383.811 187.895,383.738 189.979,383.61 C 191.479,384.316 192.903,384.929 194.198,385.415 C 198.29,386.948 201.212,387.324 201.998,386.19 C 206.14,380.635 210.579,375.274 215.391,370.148 C 220.203,365.021 225.303,360.077 230.536,355.214 C 231.61,354.241 230.286,351.898 227.306,348.925 C 231.691,350.642 234.958,351.222 236.04,350.248 C 241.418,345.483 246.796,340.719 252.1,335.906 C 257.405,331.094 262.55,326.177 267.533,321.159 C 268.516,320.126 267.108,317.732 264.054,314.71 C 268.36,316.373 271.518,316.889 272.464,315.832 C 276.982,310.515 281.208,305.02 284.916,299.19 C 288.624,293.361 291.822,287.203 294.723,280.861 C 295.286,279.556 293.484,276.912 290.154,273.715 C 294.18,275.203 296.945,275.465 297.463,274.137 C 299.906,267.5 302.184,260.761 304.303,253.919 C 306.421,247.077 308.458,240.184 310.504,233.295 C 310.922,231.903 309.016,229.188 305.604,225.941 C 309.565,227.386 312.242,227.591 312.674,226.207 C 314.866,219.409 317.19,212.7 319.796,206.171 C 322.402,199.642 325.385,193.348 328.667,187.245 C 329.367,186.052 327.781,183.563 324.664,180.504 z M 199.534,331.237 C 198.813,330.955 198.136,330.716 197.48,330.498 C 197.48,330.402 197.468,330.305 197.441,330.208 C 197.234,329.482 197.028,328.758 196.821,328.033 C 197.433,328.972 198.343,330.051 199.534,331.237 z"
   style="fill:#ffff45;stroke:#ff9c0c;stroke-width:6" />
		</g></svg>