<?xml version="1.0" encoding="UTF-8" standalone="no"?>
<!-- Generator: Adobe Illustrator 10, SVG Export Plug-In . SVG Version: 3.0.0 Build 76)  -->
<svg
   xmlns:dc="http://purl.org/dc/elements/1.1/"
   xmlns:cc="http://creativecommons.org/ns#"
   xmlns:rdf="http://www.w3.org/1999/02/22-rdf-syntax-ns#"
   xmlns:svg="http://www.w3.org/2000/svg"
   xmlns="http://www.w3.org/2000/svg"
   xmlns:sodipodi="http://sodipodi.sourceforge.net/DTD/sodipodi-0.dtd"
   xmlns:inkscape="http://www.inkscape.org/namespaces/inkscape"
   width="550.91742"
   height="591.92493"
   viewBox="0 0 557.871 668.294"
   style="overflow:visible"
   xml:space="preserve"
   id="svg2"
   sodipodi:version="0.32"
   inkscape:version="0.46"
   sodipodi:docname="Dentalis.svg"
   inkscape:output_extension="org.inkscape.output.svg.inkscape"
   version="1.0"><metadata
   id="metadata80"><rdf:RDF><cc:Work
       rdf:about=""><dc:format>image/svg+xml</dc:format><dc:type
         rdf:resource="http://purl.org/dc/dcmitype/StillImage" /></cc:Work></rdf:RDF></metadata><defs
   id="defs78"><inkscape:perspective
   sodipodi:type="inkscape:persp3d"
   inkscape:vp_x="0 : 334.147 : 1"
   inkscape:vp_y="0 : 1000 : 0"
   inkscape:vp_z="557.87097 : 334.147 : 1"
   inkscape:persp3d-origin="278.93549 : 222.76467 : 1"
   id="perspective82" />
		
		
	</defs><sodipodi:namedview
   inkscape:window-height="670"
   inkscape:window-width="640"
   inkscape:pageshadow="2"
   inkscape:pageopacity="0.0"
   guidetolerance="10.0"
   gridtolerance="10.0"
   objecttolerance="10.0"
   borderopacity="1.0"
   bordercolor="#666666"
   pagecolor="#ffffff"
   id="base"
   showgrid="false"
   inkscape:zoom="0.6913125"
   inkscape:cx="278.93549"
   inkscape:cy="334.147"
   inkscape:window-x="235"
   inkscape:window-y="17"
   inkscape:current-layer="svg2" />
	<style
   type="text/css"
   id="style4">
	
		@font-face{font-family:'Times-Roman';src:url(D330C734.cef)}
	
	</style>
	
<g
   transform="matrix(1.1290182,0,0,1.1290182,-39.949303,2.036272)"
   style="overflow:visible"
   id="g23">
			<g
   id="g25">
				<path
   id="path27"
   d="M 225.869,353.179 C 229.325,351.668 232.925,350.156 236.237,348.716 C 239.693,347.276 243.22,345.692 246.533,344.396 C 248.693,343.459 250.637,344.612 250.565,346.772 C 249.917,365.348 248.333,384.644 243.077,404.66 C 237.677,425.324 227.453,447.644 215.789,470.541 C 214.421,473.349 210.101,476.876 206.933,478.243 C 202.325,480.261 197.357,482.348 192.533,484.508 C 187.853,486.525 182.957,488.828 178.205,491.061 C 174.965,492.429 174.029,491.133 175.541,488.325 C 188.645,464.349 200.741,440.877 208.085,419.422 C 215.141,398.398 218.813,378.453 221.333,359.23 C 221.549,357.139 223.637,354.188 225.869,353.179 z"
   style="fill:#a3bdc3;stroke:#677270;stroke-width:7.99100018" />
				<path
   id="path29"
   d="M 299.597,337.196 C 303.198,337.988 306.654,338.996 310.11,340.22 C 313.637,341.371 317.238,342.955 320.838,344.396 C 323.214,345.333 325.446,347.924 325.95,350.012 C 330.702,368.012 336.606,386.516 343.662,405.236 C 350.574,423.883 359.286,443.179 367.926,462.692 C 368.935,464.996 367.134,466.148 363.894,465.356 C 358.855,463.988 353.886,462.763 349.206,461.684 C 344.31,460.604 339.414,459.308 334.518,458.372 C 331.35,457.725 327.893,455.276 327.102,453.045 C 319.758,433.676 312.917,414.309 307.733,395.876 C 302.549,377.229 298.662,358.725 295.782,340.437 C 295.421,338.42 297.293,336.692 299.597,337.196 z"
   style="fill:#a3bdc3;stroke:#677270;stroke-width:7.99100018" />
				<path
   id="path31"
   d="M 363.389,228.116 C 363.534,224.731 363.821,221.421 363.893,218.108 C 364.038,214.868 364.326,211.555 364.397,208.316 C 364.542,206.085 366.126,206.012 368.213,207.452 C 384.846,218.828 401.261,225.597 417.029,223.22 C 432.437,220.917 447.413,209.253 461.669,193.628 C 463.469,191.755 464.621,191.828 464.333,194.996 C 463.9,199.604 463.469,204.212 463.109,208.82 C 462.749,213.356 462.245,218.036 461.812,222.572 C 461.596,225.74 459.941,230.348 458.14,231.932 C 444.172,245.18 428.98,254.108 414.004,254.611 C 398.38,255.188 382.54,247.484 366.628,235.46 C 364.541,233.948 363.245,230.276 363.389,228.116 z"
   style="fill:#a3bdc3;stroke:#677270;stroke-width:7.99100018" />
				<path
   id="path33"
   d="M 361.661,327.044 C 360.869,323.875 360.221,320.564 359.501,317.323 C 358.781,314.155 358.421,310.844 357.989,307.459 C 357.773,305.299 359.213,304.724 361.301,305.659 C 378.869,313.435 396.725,318.836 413.717,317.756 C 430.492,316.748 445.973,308.611 460.085,297.955 C 461.813,296.658 463.973,297.668 464.837,300.332 C 466.277,304.436 468.005,308.827 469.877,312.715 C 471.82,316.819 473.837,320.924 476.069,325.027 C 477.581,327.763 477.653,331.219 475.781,332.371 C 460.877,341.516 444.029,347.636 425.596,347.563 C 406.876,347.419 386.933,341.155 367.204,333.019 C 364.829,332.012 362.237,329.276 361.661,327.044 z"
   style="fill:#a3bdc3;stroke:#677270;stroke-width:7.99100018" />
				<path
   id="path35"
   d="M 55.733,414.812 C 57.82,410.42 60.052,405.956 62.285,401.492 C 64.373,397.173 66.533,392.637 68.621,388.244 C 69.989,385.364 73.589,381.765 76.325,380.324 C 99.149,368.3 120.533,356.348 140.045,345.908 C 159.053,335.757 176.837,326.828 193.829,318.908 C 195.701,318.044 197.069,319.196 196.565,321.572 C 195.773,325.028 194.837,328.629 194.189,332.084 C 193.541,335.396 192.749,338.996 191.957,342.596 C 191.525,344.828 189.077,347.637 186.917,348.645 C 168.341,357.429 149.045,367.365 128.165,378.884 C 106.997,390.477 83.525,403.796 58.613,417.405 C 55.589,418.988 54.365,417.764 55.733,414.812 z"
   style="fill:#a3bdc3;stroke:#677270;stroke-width:7.99100018" />
				<path
   id="path37"
   d="M 88.205,226.028 C 87.413,221.708 86.405,217.46 85.541,213.139 C 84.605,208.82 83.597,204.572 82.661,200.324 C 82.013,197.444 82.805,195.932 84.605,196.94 C 100.517,205.868 117.293,213.86 135.293,221.708 C 153.005,229.484 171.581,237.548 189.365,245.755 C 191.381,246.693 193.397,249.501 193.613,251.876 C 193.901,255.261 194.045,258.86 194.117,262.316 C 194.117,265.772 194.117,269.443 193.829,272.828 C 193.613,275.204 191.885,276.356 190.157,275.491 C 174.749,268.076 157.757,260.876 140.981,254.253 C 123.917,247.412 107.717,240.645 92.309,232.941 C 90.437,232.004 88.781,228.908 88.205,226.028 z"
   style="fill:#a3bdc3;stroke:#677270;stroke-width:7.99100018" />
				<path
   id="path39"
   d="M 60.34,48.332 C 66.893,46.893 74.237,45.524 82.229,44.085 C 85.253,43.58 87.485,44.517 87.989,46.389 C 92.669,62.589 101.885,81.309 115.925,97.941 C 130.901,115.725 150.557,130.413 171.797,143.517 C 174.461,145.101 176.549,147.621 176.405,149.205 C 176.116,154.101 176.116,159.213 177.125,164.109 C 177.413,165.693 174.965,166.269 171.725,164.684 C 145.229,151.869 121.253,136.101 102.173,115.941 C 84.029,96.788 69.917,74.18 58.685,53.444 C 57.461,51.14 58.325,48.836 60.34,48.332 z"
   style="fill:#a3bdc3;stroke:#677270;stroke-width:7.99100018" />
				<path
   id="path41"
   d="M 376.925,375.932 C 380.022,373.196 383.477,370.604 387.005,367.795 C 388.157,366.932 391.397,368.083 393.629,370.027 C 413.069,386.731 432.797,403.363 455.117,418.916 C 479.237,435.764 508.253,452.107 542.885,469.459 C 547.205,471.691 551.453,474.859 551.669,476.443 C 552.461,481.411 553.397,486.882 553.9,491.778 C 554.117,493.435 549.653,492.787 544.396,490.266 C 504.941,471.043 471.82,452.899 445.325,434.683 C 421.133,418.05 399.82,399.979 379.589,381.763 C 377.141,379.604 375.989,376.795 376.925,375.932 z"
   style="fill:#a3bdc3;stroke:#677270;stroke-width:7.99100018" />
				<path
   id="path43"
   d="M 177.269,398.467 C 171.581,403.075 165.749,406.963 159.917,410.06 C 158.189,410.996 154.589,415.1 151.709,419.06 C 128.597,451.1 105.197,480.26 80.357,505.316 C 57.893,527.852 34.277,544.267 13.685,553.484 C 11.525,554.421 10.301,557.731 11.38,560.684 C 14.981,570.116 20.237,578.324 26.572,584.732 C 28.661,586.749 32.981,586.532 35.283,584.372 C 56.884,564.141 80.932,538.94 103.9,510.717 C 129.172,479.541 152.932,444.116 175.972,404.517 C 178.925,399.476 179.285,396.883 177.269,398.467 z"
   style="fill:#a3bdc3;stroke:#677270;stroke-width:7.99100018" />
				<path
   id="path45"
   d="M 467.357,2.612 C 463.325,7.292 459.365,11.54 455.333,15.212 C 453.893,16.58 451.445,20.973 449.789,25.077 C 436.109,58.917 422.789,87.212 407.381,108.02 C 394.637,125.228 379.301,134.803 365.477,139.051 C 364.11,139.411 363.893,141.932 365.333,144.668 C 369.725,153.164 374.261,161.228 378.509,168.211 C 379.805,170.299 382.541,171.596 383.837,170.443 C 397.518,158.203 412.421,140.42 425.022,116.515 C 440.07,88.003 453.246,52.003 466.998,9.523 C 468.725,4.051 468.725,1.028 467.357,2.612 z"
   style="fill:#a3bdc3;stroke:#677270;stroke-width:7.99100018" />
				<path
   id="path47"
   d="M 307.949,9.668 C 315.437,13.268 322.997,17.803 330.701,21.98 C 333.148,23.276 335.165,26.228 335.165,28.388 C 334.877,65.324 334.949,102.26 335.021,139.051 C 335.021,141.283 333.22,142.148 331.06,140.852 C 324.292,137.036 317.668,132.932 311.044,129.547 C 308.884,128.467 306.94,125.875 306.868,123.715 C 305.139,86.491 303.772,49.195 303.268,11.756 C 303.27,9.668 305.573,8.444 307.949,9.668 z"
   style="fill:#a3bdc3;stroke:#677270;stroke-width:7.99100018" />
				<path
   id="path49"
   d="M 205.853,32.708 C 212.837,31.7 220.253,30.188 227.381,28.604 C 229.685,28.1 231.629,29.324 231.773,31.412 C 234.725,67.988 239.405,104.421 244.517,140.708 C 244.805,142.868 243.365,145.316 241.349,146.036 C 235.157,148.124 228.749,150.212 222.629,151.94 C 220.541,152.516 218.381,151.219 218.021,149.06 C 211.613,112.123 205.421,74.9 201.533,37.459 C 201.317,35.372 203.405,33.14 205.853,32.708 z"
   style="fill:#a3bdc3;stroke:#677270;stroke-width:7.99100018" />
			</g>
			<g
   id="g51">
				<g
   id="g53">
					<path
   id="path55"
   d="M 162.869,240.284 C 159.557,222.932 153.869,205.509 148.757,188.3 C 139.469,157.196 128.093,125.517 119.237,93.548 C 114.701,77.277 122.765,65.973 136.012,71.3 C 159.341,80.733 182.812,90.669 205.924,95.708 C 228.244,100.604 250.276,100.173 272.164,96.933 C 292.972,93.837 314.14,101.397 337.18,108.38 C 359.5,115.149 383.26,113.132 404.788,105.141 C 417.676,100.317 421.708,105.788 417.748,120.044 C 410.26,146.755 403.708,172.605 398.884,197.732 C 396.076,211.989 393.845,226.173 391.9,240.285 L 377.357,240.285 C 378.724,229.342 380.092,218.397 381.82,207.597 C 385.06,187.22 389.525,166.341 394.709,145.317 C 397.373,134.373 392.189,128.755 381.389,129.548 C 364.614,130.773 347.19,127.173 330.27,120.548 C 313.206,113.779 297.005,108.813 281.31,111.333 C 280.518,126.524 280.23,141.716 280.734,156.765 C 281.166,171.813 282.174,186.861 282.966,201.909 C 293.191,205.149 302.118,218.181 299.454,237.477 C 299.309,238.413 299.166,239.349 298.95,240.285 L 285.27,240.285 C 285.557,239.205 285.846,238.053 285.99,236.901 C 287.214,227.755 282.03,221.205 276.198,223.509 C 271.446,225.38 267.702,232.509 265.614,240.284 L 253.23,240.284 C 256.11,226.677 259.638,216.524 266.406,209.18 C 265.038,193.772 263.454,178.364 262.23,163.028 C 260.934,147.62 260.286,131.924 259.998,116.156 C 243.942,117.669 227.094,117.812 210.318,115.219 C 192.822,112.484 175.326,107.012 157.758,102.115 C 146.526,98.947 140.046,107.371 143.79,120.907 C 151.206,147.26 159.99,173.395 167.046,199.315 C 170.718,212.923 174.678,226.603 177.054,240.283 L 162.869,240.283 L 162.869,240.284 z"
   style="fill:#ca7b41" />
					<path
   id="path57"
   d="M 164.309,284.346 C 164.453,283.123 164.669,281.971 164.813,280.748 C 166.541,267.283 165.389,253.819 162.869,240.283 L 177.053,240.283 C 179.213,252.523 180.221,264.763 178.709,277.004 C 178.421,279.451 178.061,281.9 177.557,284.346 L 164.309,284.346 z"
   style="fill:#ca7b41" />
					<path
   id="path59"
   d="M 372.461,284.346 C 372.82,279.236 373.397,274.123 374.045,269.084 C 375.197,259.508 376.277,249.859 377.357,240.283 L 391.9,240.283 C 390.533,250.651 389.237,261.019 388.012,271.315 C 387.508,275.634 387.148,280.027 386.933,284.345 L 372.461,284.345 L 372.461,284.346 z"
   style="fill:#ca7b41" />
					<path
   id="path61"
   d="M 253.229,240.284 C 252.365,244.173 251.573,248.348 250.781,252.884 C 247.181,272.972 251.285,284.78 265.757,278.659 C 279.509,272.9 295.205,258.284 298.949,240.284 L 285.269,240.284 C 282.892,247.988 276.557,254.611 271.3,256.845 C 265.324,259.365 262.948,254.468 264.604,245.109 C 264.892,243.525 265.252,241.869 265.612,240.285 L 253.229,240.285 L 253.229,240.284 z"
   style="fill:#ca7b41" />
					<path
   id="path63"
   d="M 145.733,337.772 C 154.445,319.772 161.429,301.988 164.309,284.346 L 177.557,284.346 C 174.173,301.988 166.541,319.7 158.045,337.772 L 145.733,337.772 z"
   style="fill:#ca7b41" />
					<path
   id="path65"
   d="M 380.093,337.772 C 379.085,335.541 378.149,333.308 377.285,331.076 C 371.453,316.028 371.165,300.188 372.461,284.347 L 386.934,284.347 C 386.07,302.419 388.229,320.565 396.005,337.773 L 380.093,337.773 L 380.093,337.772 z"
   style="fill:#ca7b41" />
					<path
   id="path67"
   d="M 145.733,337.772 C 138.821,352.172 130.829,366.716 123.053,381.476 C 104.189,417.116 81.797,453.98 61.853,490.844 C 51.557,509.779 63.221,518.635 83.093,504.883 C 119.165,480.188 153.077,451.963 184.325,425.827 C 213.629,401.348 239.693,375.931 267.917,365.42 C 291.389,356.636 318.677,369.235 347.404,384.716 C 377.429,400.916 410.404,417.98 443.237,430.003 C 462.173,436.916 465.052,428.06 453.605,415.387 C 432.077,391.484 412.277,368.299 399.029,343.82 C 397.949,341.803 396.941,339.788 396.005,337.772 L 380.093,337.772 C 388.301,356.276 400.614,373.988 414.005,392.06 C 421.854,402.644 417.461,408.188 402.557,401.42 C 376.35,389.684 351.078,373.916 327.245,360.955 C 304.853,348.643 282.965,342.235 263.885,350.227 C 241.565,359.586 220.541,378.739 197.285,397.891 C 172.661,418.195 146.165,440.515 117.941,460.747 C 101.885,472.339 93.461,467.442 101.453,451.602 C 117.005,421.146 133.349,390.618 147.029,361.098 C 150.701,353.25 154.445,345.474 158.045,337.77 L 145.733,337.77 L 145.733,337.772 z"
   style="fill:#ca7b41" />
				</g>
				<g
   id="g69">
					<path
   id="path71"
   d="M 282.965,201.908 C 293.19,205.148 302.117,218.18 299.453,237.476 C 296.789,256.772 280.229,272.611 265.757,278.659 C 251.285,284.779 247.181,272.971 250.781,252.884 C 254.381,232.725 257.693,218.684 266.405,209.181 C 265.037,193.773 263.453,178.365 262.229,163.029 C 260.933,147.621 260.285,131.925 259.997,116.157 C 243.941,117.67 227.093,117.813 210.317,115.22 C 192.821,112.485 175.325,107.013 157.757,102.116 C 146.525,98.948 140.045,107.372 143.789,120.908 C 151.205,147.261 159.989,173.396 167.045,199.316 C 174.029,225.02 181.877,251.085 178.709,277.004 C 175.397,304.508 160.493,332.228 147.029,361.1 C 133.349,390.62 117.005,421.148 101.453,451.604 C 93.461,467.444 101.885,472.34 117.941,460.749 C 146.165,440.517 172.661,418.196 197.285,397.893 C 220.541,378.741 241.565,359.588 263.885,350.229 C 282.965,342.237 304.854,348.645 327.245,360.957 C 351.077,373.918 376.349,389.686 402.557,401.422 C 417.461,408.19 421.854,402.646 414.005,392.062 C 399.029,371.83 385.421,352.102 377.285,331.078 C 369.581,311.206 371.525,289.822 374.045,269.087 C 376.492,248.493 378.581,227.83 381.82,207.599 C 385.06,187.222 389.525,166.343 394.709,145.319 C 397.373,134.375 392.189,128.757 381.389,129.55 C 364.614,130.775 347.19,127.175 330.27,120.55 C 313.206,113.781 297.005,108.815 281.31,111.335 C 280.518,126.526 280.23,141.718 280.734,156.767 C 281.165,171.812 282.173,186.86 282.965,201.908 z"
   style="fill:none;stroke:#705d3c;stroke-width:7.99100018" />
					<path
   id="path73"
   d="M 136.013,71.299 C 159.342,80.732 182.813,90.668 205.925,95.707 C 228.245,100.603 250.277,100.172 272.165,96.932 C 292.973,93.836 314.141,101.396 337.181,108.379 C 359.501,115.148 383.261,113.131 404.789,105.14 C 417.677,100.316 421.709,105.787 417.749,120.043 C 410.261,146.754 403.709,172.604 398.885,197.731 C 394.061,222.428 390.893,246.98 388.013,271.316 C 385.133,295.724 386.574,320.78 399.03,343.82 C 412.278,368.299 432.078,391.484 453.606,415.387 C 465.053,428.06 462.173,436.916 443.238,430.003 C 410.405,417.98 377.43,400.916 347.405,384.716 C 318.677,369.236 291.389,356.636 267.918,365.42 C 239.694,375.932 213.63,401.348 184.326,425.827 C 153.078,451.963 119.166,480.187 83.094,504.883 C 63.222,518.635 51.558,509.779 61.854,490.844 C 81.798,453.98 104.19,417.115 123.054,381.476 C 141.199,346.988 160.566,313.724 164.814,280.748 C 168.702,249.932 157.83,218.899 148.758,188.299 C 139.47,157.195 128.094,125.516 119.238,93.547 C 114.701,77.276 122.765,65.972 136.013,71.299 z"
   style="fill:none;stroke:#705d3c;stroke-width:7.99100018" />
					<path
   id="path75"
   d="M 276.197,223.508 C 270.437,225.739 266.189,235.676 264.605,245.108 C 262.949,254.467 265.325,259.364 271.301,256.844 C 277.277,254.323 284.766,246.043 285.989,236.9 C 287.213,227.754 282.029,221.204 276.197,223.508 z"
   style="fill:none;stroke:#705d3c;stroke-width:7.99100018" />
				</g>
			</g>
		</g></svg>