<?xml version="1.0" encoding="UTF-8" standalone="no"?>
<!-- Generator: Adobe Illustrator 10, SVG Export Plug-In . SVG Version: 3.0.0 Build 76)  -->
<svg
   xmlns:dc="http://purl.org/dc/elements/1.1/"
   xmlns:cc="http://creativecommons.org/ns#"
   xmlns:rdf="http://www.w3.org/1999/02/22-rdf-syntax-ns#"
   xmlns:svg="http://www.w3.org/2000/svg"
   xmlns="http://www.w3.org/2000/svg"
   xmlns:sodipodi="http://sodipodi.sourceforge.net/DTD/sodipodi-0.dtd"
   xmlns:inkscape="http://www.inkscape.org/namespaces/inkscape"
   width="413.27509"
   height="458.39502"
   viewBox="0 0 468.311 537.845"
   style="overflow:visible"
   xml:space="preserve"
   id="svg2455"
   sodipodi:version="0.32"
   inkscape:version="0.46"
   sodipodi:docname="ESPa.svg"
   inkscape:output_extension="org.inkscape.output.svg.inkscape"
   version="1.0"><metadata
   id="metadata2655"><rdf:RDF><cc:Work
       rdf:about=""><dc:format>image/svg+xml</dc:format><dc:type
         rdf:resource="http://purl.org/dc/dcmitype/StillImage" /></cc:Work></rdf:RDF></metadata><defs
   id="defs2653"><inkscape:perspective
   sodipodi:type="inkscape:persp3d"
   inkscape:vp_x="0 : 268.92249 : 1"
   inkscape:vp_y="0 : 1000 : 0"
   inkscape:vp_z="468.311 : 268.92249 : 1"
   inkscape:persp3d-origin="234.1555 : 179.28166 : 1"
   id="perspective2657" />
		
		
	</defs><sodipodi:namedview
   inkscape:window-height="670"
   inkscape:window-width="640"
   inkscape:pageshadow="2"
   inkscape:pageopacity="0.0"
   guidetolerance="10.0"
   gridtolerance="10.0"
   objecttolerance="10.0"
   borderopacity="1.0"
   bordercolor="#666666"
   pagecolor="#ffffff"
   id="base"
   showgrid="false"
   inkscape:zoom="0.85898358"
   inkscape:cx="234.1555"
   inkscape:cy="268.92249"
   inkscape:window-x="0"
   inkscape:window-y="64"
   inkscape:current-layer="svg2455" />
	<style
   type="text/css"
   id="style2457">
	
		@font-face{font-family:'Times-Roman';src:url(EE21C27D.cef)}
	
	</style>
	
<g
   transform="matrix(1.1733221,0,0,1.1733221,-21.196838,2.2895798e-2)"
   style="overflow:visible"
   id="g2476">
			<g
   id="g2478">
				<path
   id="path2480"
   d="M 31.871,65.116 C 29.927,63.388 28.055,61.875 26.183,60.364 C 20.998,56.26 20.422,51.076 18.263,41.067 C 16.966,34.947 14.951,27.532 13.511,19.612 C 12.215,12.124 10.775,4.348 14.23,1.828 C 17.758,-0.62 24.814,3.268 31.367,7.084 C 38.423,11.116 44.831,15.58 50.087,19.18 C 58.583,24.796 62.975,29.764 64.127,35.812 C 65.352,42.292 67.223,48.34 70.175,53.596 C 74.567,58.132 79.967,61.732 85.727,65.116 L 68.879,65.116 C 68.447,64.684 67.943,64.18 67.512,63.748 C 61.68,58.06 56.135,52.299 51.24,46.252 C 46.991,44.308 43.103,42.148 40.799,43.444 C 38.783,44.596 38.783,48.7 39.07,52.947 C 41.734,56.98 44.543,61.012 47.279,65.116 L 31.871,65.116 z"
   style="fill:#e6e6e6" />
				<path
   id="path2482"
   d="M 341.039,65.116 C 342.768,61.732 346.007,58.636 351.119,55.252 C 355.367,52.372 360.478,48.772 366.239,45.532 C 371.495,42.436 377.183,39.34 379.991,41.356 C 382.799,43.299 381.646,49.636 380.566,55.612 C 379.991,58.923 379.271,62.092 378.55,65.116 L 341.039,65.116 z"
   style="fill:#e6e6e6" />
				<path
   id="path2484"
   d="M 44.975,85.06 C 43.824,82.54 42.671,80.092 41.448,77.788 C 38.352,71.956 35.112,68.14 31.872,65.116 L 47.28,65.116 C 49.151,67.78 50.952,70.516 52.824,73.252 C 55.487,77.212 58.223,81.172 60.815,85.06 L 44.975,85.06 z"
   style="fill:#e6e6e6" />
				<path
   id="path2486"
   d="M 63.911,85.06 C 67.799,80.596 72.767,77.428 78.743,75.34 C 75.575,71.884 72.264,68.5 68.879,65.116 L 85.727,65.116 C 89.616,67.348 93.289,69.796 96.528,72.532 C 98.759,72.46 101.063,72.46 103.44,72.604 C 114.168,73.108 125.688,78.22 137.856,85.06 L 119.352,85.06 C 116.399,84.268 113.448,83.692 110.639,83.404 C 100.848,82.396 92.28,82.899 85.223,85.06 L 63.911,85.06 z"
   style="fill:#e6e6e6" />
				<path
   id="path2488"
   d="M 220.151,85.06 C 226.703,82.252 233.687,81.82 240.31,85.06 L 220.151,85.06 z"
   style="fill:#e6e6e6" />
				<path
   id="path2490"
   d="M 332.759,85.06 C 333.479,84.412 334.199,83.692 334.919,82.971 C 337.295,78.796 338.807,73.899 339.815,68.716 C 340.032,67.492 340.463,66.268 341.04,65.116 L 378.552,65.116 C 377.904,67.923 377.256,70.516 376.752,72.892 C 375.528,78.508 374.952,82.252 373.368,85.06 L 358.319,85.06 C 358.895,84.196 359.471,83.332 360.048,82.54 C 360.193,79.084 360.265,75.772 358.608,74.836 C 356.737,73.756 353.641,75.556 350.256,77.067 C 348.024,79.804 345.648,82.468 343.2,85.06 L 332.759,85.06 z"
   style="fill:#e6e6e6" />
				<path
   id="path2492"
   d="M 47.999,92.188 C 47.062,89.812 46.055,87.436 44.975,85.06 L 60.815,85.06 C 61.319,85.78 61.824,86.428 62.255,87.148 C 62.759,86.428 63.336,85.708 63.911,85.06 L 85.223,85.06 C 80.255,86.572 76.007,88.875 72.551,92.188 L 47.999,92.188 z"
   style="fill:#e6e6e6" />
				<path
   id="path2494"
   d="M 137.711,92.188 C 131.375,89.092 125.255,86.644 119.352,85.06 L 137.856,85.06 C 141.744,87.292 145.776,89.668 149.807,92.188 L 137.711,92.188 z"
   style="fill:#e6e6e6" />
				<path
   id="path2496"
   d="M 209.135,92.188 C 212.519,89.164 216.264,86.716 220.152,85.06 L 240.311,85.06 C 240.528,85.132 240.744,85.204 240.959,85.348 C 244.631,87.292 247.728,89.596 250.318,92.188 L 209.135,92.188 z"
   style="fill:#e6e6e6" />
				<path
   id="path2498"
   d="M 322.606,92.188 C 326.279,90.028 329.735,87.724 332.758,85.06 L 343.198,85.06 C 341.182,87.076 339.166,89.164 337.078,91.18 C 336.718,91.54 336.358,91.899 336.069,92.188 L 322.606,92.188 z"
   style="fill:#e6e6e6" />
				<path
   id="path2500"
   d="M 353.423,92.188 C 355.079,89.74 356.663,87.364 358.319,85.06 L 373.368,85.06 C 372.647,86.356 371.712,87.436 370.416,88.444 C 368.903,89.596 367.464,90.82 365.952,92.188 L 353.423,92.188 z"
   style="fill:#e6e6e6" />
				<path
   id="path2502"
   d="M 54.407,108.171 C 54.407,107.739 54.478,107.379 54.551,107.018 C 52.391,102.771 50.231,97.587 47.999,92.187 L 72.551,92.187 C 68.447,96.075 65.495,101.331 63.839,108.171 L 54.407,108.171 L 54.407,108.171 z"
   style="fill:#e6e6e6" />
				<path
   id="path2504"
   d="M 112.439,108.171 C 115.247,106.083 117.767,105.363 119.639,106.155 C 120.502,106.515 121.222,107.163 121.87,108.171 L 112.439,108.171 z"
   style="fill:#e6e6e6" />
				<path
   id="path2506"
   d="M 167.159,108.171 C 157.007,102.483 147.143,96.723 137.711,92.187 L 149.807,92.187 C 158.232,97.371 166.944,102.987 175.799,108.171 L 167.159,108.171 z"
   style="fill:#e6e6e6" />
				<path
   id="path2508"
   d="M 196.247,108.171 C 199.559,102.267 204.022,96.651 209.135,92.187 L 250.319,92.187 C 254.927,96.795 257.807,102.267 258.887,108.171 L 236.207,108.171 C 232.823,106.946 228.936,107.018 225.335,108.171 L 196.247,108.171 z"
   style="fill:#e6e6e6" />
				<path
   id="path2510"
   d="M 292.151,108.171 C 299.855,104.067 306.911,100.395 313.39,98.451 C 316.126,96.219 319.151,94.203 322.39,92.331 C 322.462,92.259 322.535,92.259 322.606,92.187 L 336.07,92.187 C 334.054,94.275 331.966,96.363 330.022,98.451 C 330.743,98.883 331.462,99.243 332.183,99.675 C 335.566,101.763 338.374,104.643 340.606,108.171 L 326.134,108.171 C 321.166,105.579 315.334,106.083 308.71,108.171 L 292.151,108.171 L 292.151,108.171 z"
   style="fill:#e6e6e6" />
				<path
   id="path2512"
   d="M 342.623,108.171 C 344.711,105.147 346.799,101.979 348.887,98.811 C 350.399,96.579 351.911,94.347 353.423,92.187 L 365.951,92.187 C 363.287,94.635 360.623,97.731 358.103,102.555 C 357.166,104.355 356.231,106.227 355.367,108.171 L 342.623,108.171 z"
   style="fill:#e6e6e6" />
				<path
   id="path2514"
   d="M 54.047,128.116 C 53.471,120.556 53.615,113.932 54.407,108.172 L 63.839,108.172 C 62.399,113.716 61.895,120.34 62.327,128.116 L 54.047,128.116 z"
   style="fill:#e6e6e6" />
				<path
   id="path2516"
   d="M 99.407,128.116 C 99.623,127.252 99.911,126.388 100.199,125.596 C 102.216,120.052 105.527,114.58 109.558,110.62 C 110.495,109.612 111.502,108.82 112.439,108.172 L 121.871,108.172 C 122.951,109.899 123.599,112.564 123.814,115.372 C 123.959,119.764 123.527,123.436 122.59,127.468 C 122.518,127.684 122.518,127.899 122.446,128.116 L 117.766,128.116 C 119.061,122.932 117.837,118.18 114.885,117.244 C 111.717,116.236 107.757,119.98 105.957,125.668 C 105.741,126.46 105.525,127.324 105.381,128.116 L 99.407,128.116 L 99.407,128.116 z"
   style="fill:#e6e6e6" />
				<path
   id="path2518"
   d="M 188.759,128.188 C 189.191,125.812 189.911,123.364 190.776,120.772 C 182.784,116.956 174.864,112.564 167.16,108.172 L 175.8,108.172 C 181.2,111.34 186.672,114.292 192.216,116.956 C 192.504,116.164 192.864,115.156 193.296,114.148 C 194.16,112.132 195.097,110.116 196.248,108.172 L 225.336,108.172 C 219.864,109.899 214.752,114.004 211.8,119.98 C 210.504,122.644 209.712,125.38 209.353,128.116 L 188.759,128.188 z"
   style="fill:#e6e6e6" />
				<path
   id="path2520"
   d="M 243.911,128.042 C 247.007,120.339 245.783,113.499 238.727,109.323 C 237.935,108.819 237.07,108.459 236.206,108.171 L 258.886,108.171 C 259.823,113.139 259.462,118.395 257.806,123.651 C 270.407,119.763 281.855,113.571 292.151,108.171 L 308.711,108.171 C 295.967,112.203 280.272,122.355 261.479,128.115 L 243.911,128.042 z"
   style="fill:#e6e6e6" />
				<path
   id="path2522"
   d="M 339.814,128.116 C 337.51,119.764 333.695,113.067 327.646,109.036 C 327.143,108.676 326.639,108.388 326.134,108.172 L 340.606,108.172 C 340.966,108.676 341.254,109.252 341.543,109.756 C 341.902,109.252 342.264,108.676 342.623,108.172 L 355.367,108.172 C 352.415,114.652 349.894,121.636 347.231,126.892 C 347.302,127.252 347.375,127.684 347.447,128.043 L 339.814,128.116 z"
   style="fill:#e6e6e6" />
				<path
   id="path2524"
   d="M 64.848,200.404 C 59.016,175.348 55.919,149.14 54.192,129.988 C 54.12,129.34 54.047,128.692 54.047,128.116 L 62.327,128.116 C 62.398,129.484 62.471,130.923 62.615,132.364 C 64.343,150.796 67.871,176.212 74.423,200.404 L 64.848,200.404 z"
   style="fill:#e6e6e6" />
				<path
   id="path2526"
   d="M 149.879,200.404 C 144.551,196.803 139.728,192.772 135.407,188.164 C 130.727,183.052 126.551,177.436 122.879,171.388 C 120.359,174.845 118.272,178.3 116.471,181.683 C 117.408,183.124 117.983,184.995 117.983,186.941 C 117.983,191.98 114.168,196.085 109.631,196.085 C 105.024,196.085 101.279,191.981 101.279,186.941 C 101.279,181.9 105.023,177.724 109.631,177.724 C 109.991,177.724 110.352,177.796 110.711,177.796 C 113.087,173.692 115.895,169.372 119.352,165.269 C 116.184,159.148 113.231,152.812 110.567,146.261 C 108.192,147.269 105.744,147.269 103.655,146.333 C 101.567,145.325 99.983,143.813 98.903,140.285 C 97.967,137.333 98.184,132.653 99.408,128.117 L 105.384,128.117 C 104.736,132.797 105.96,136.756 108.624,137.621 C 111.792,138.557 115.752,134.813 117.479,129.125 C 117.551,128.765 117.696,128.477 117.768,128.117 L 122.448,128.117 C 121.511,131.861 120.217,135.389 118.416,138.413 C 120.72,145.469 123.097,152.309 125.903,158.861 C 132.096,153.533 139.655,148.708 148.223,143.813 C 148.152,143.453 148.152,143.02 148.152,142.589 C 148.152,137.549 151.895,133.445 156.432,133.445 C 161.039,133.445 164.856,137.549 164.856,142.589 C 164.856,147.629 161.04,151.804 156.432,151.804 C 154.127,151.804 152.039,150.725 150.528,149.068 C 141.96,154.181 134.544,159.22 128.712,164.765 C 132.024,171.533 135.912,177.724 140.448,183.197 C 146.28,190.109 153.192,195.581 161.111,200.405 L 149.879,200.405 L 149.879,200.404 z"
   style="fill:#e6e6e6" />
				<path
   id="path2528"
   d="M 162.768,200.404 C 168.528,184.563 181.272,169.803 195.096,154.684 C 188.399,147.915 186.311,139.492 188.759,128.187 L 209.352,128.115 C 208.272,136.826 211.799,145.179 217.776,148.059 C 225.624,151.874 234.912,143.595 241.103,133.587 C 242.255,131.715 243.191,129.843 243.912,128.042 L 261.479,128.115 C 259.391,128.763 257.303,129.339 255.215,129.843 C 254.927,130.419 254.567,131.139 254.135,131.787 C 243.911,149.211 227.352,160.659 215.471,164.331 C 210.791,176.859 206.039,189.027 205.319,200.403 L 162.768,200.403 L 162.768,200.404 z"
   style="fill:#e6e6e6" />
				<path
   id="path2530"
   d="M 214.606,200.404 C 222.455,195.94 230.518,192.555 239.014,190.54 C 241.535,189.892 244.126,189.46 246.718,189.028 C 245.351,184.42 243.478,180.244 241.318,176.572 C 241.318,176.572 241.318,176.572 241.247,176.572 C 236.64,176.572 232.967,172.395 232.967,167.356 C 232.967,162.316 236.64,158.139 241.247,158.139 C 245.855,158.139 249.671,162.316 249.671,167.356 C 249.671,169.731 248.807,171.891 247.367,173.62 C 249.743,178.013 251.831,182.908 253.199,188.38 C 264.431,187.517 276.022,188.452 287.759,189.964 C 288.047,187.372 289.272,185.357 291.144,183.988 C 293.015,182.62 295.175,181.971 298.848,182.836 C 302.375,183.628 307.2,186.94 310.799,191.332 C 313.103,194.067 315.191,197.164 316.703,200.404 L 310.799,200.404 C 310.079,199.036 309.144,197.596 307.919,196.3 C 303.887,191.98 298.631,190.324 296.184,192.628 C 294.528,194.212 294.671,197.236 296.184,200.404 L 289.56,200.404 C 277.68,197.883 265.944,196.084 254.64,196.084 C 254.856,197.524 254.999,198.964 255.144,200.404 L 249.096,200.404 C 248.951,199.108 248.736,197.811 248.519,196.516 C 245.927,196.587 243.335,196.947 240.815,197.379 C 236.927,198.1 233.111,199.108 229.44,200.403 L 214.606,200.403 L 214.606,200.404 z"
   style="fill:#e6e6e6" />
				<path
   id="path2532"
   d="M 341.471,200.475 C 342.335,177.003 345.36,147.915 339.815,128.116 L 347.448,128.043 C 351.048,149.428 348.095,177.58 347.16,200.404 L 341.471,200.475 z"
   style="fill:#e6e6e6" />
				<path
   id="path2534"
   d="M 93.143,265.852 C 79.895,251.379 70.895,226.467 64.848,200.404 L 74.423,200.404 C 81.768,227.764 92.856,253.54 109.272,265.852 L 93.143,265.852 z"
   style="fill:#e6e6e6" />
				<path
   id="path2536"
   d="M 134.327,265.852 C 128.495,248.788 141.31,238.635 151.894,242.02 C 162.623,245.62 158.735,245.26 162.407,247.492 C 160.247,234.532 157.654,220.636 160.751,207.028 C 156.936,204.94 153.335,202.779 149.879,200.404 L 161.11,200.404 C 161.615,200.692 162.047,200.908 162.478,201.196 C 162.55,200.908 162.694,200.692 162.767,200.404 L 205.318,200.404 C 205.247,202.348 205.247,204.292 205.39,206.164 C 208.414,204.076 211.51,202.132 214.606,200.404 L 229.439,200.404 C 221.447,203.212 213.743,207.315 206.398,212.356 C 206.47,212.5 206.47,212.643 206.543,212.788 C 210.863,228.556 225.551,241.588 240.671,255.196 C 241.318,251.452 238.943,250.516 246.287,246.844 C 253.271,243.243 282.143,250.156 296.975,265.852 L 278.399,265.852 C 272.063,261.604 265.007,259.803 261.336,261.891 C 259.896,262.684 259.032,264.051 258.672,265.78 L 170.185,265.852 C 166.441,262.756 162.624,260.307 159.312,258.94 C 151.176,255.484 147.72,258.94 149.376,265.852 L 134.327,265.852 z"
   style="fill:#e6e6e6" />
				<path
   id="path2538"
   d="M 327.287,265.852 C 344.927,256.276 340.967,240.94 341.255,209.188 C 341.255,206.379 341.327,203.5 341.471,200.475 L 347.159,200.404 C 347.014,203.788 346.871,207.1 346.871,210.268 C 346.583,239.715 350.398,255.627 339.167,265.852 L 327.287,265.852 z"
   style="fill:#e6e6e6" />
				<path
   id="path2540"
   d="M 249.096,200.404 C 249.743,205.084 250.103,210.124 250.391,215.668 C 246.576,216.46 243.623,220.276 243.623,224.74 C 243.623,229.708 247.367,233.884 251.975,233.884 C 256.511,233.884 260.328,229.708 260.328,224.74 C 260.328,221.284 258.599,218.332 256.08,217.108 C 255.936,211.204 255.72,205.66 255.144,200.404 L 249.096,200.404 z"
   style="fill:#e6e6e6" />
				<path
   id="path2542"
   d="M 289.56,200.404 C 289.919,200.475 290.207,200.548 290.567,200.62 C 292.44,203.86 295.103,206.884 298.056,209.692 C 301.007,212.572 304.032,214.803 307.919,216.82 C 311.879,218.908 315.911,219.555 317.927,217.9 C 320.015,216.171 320.519,212.212 319.152,206.811 C 318.576,204.652 317.784,202.563 316.704,200.404 L 310.8,200.404 C 312.312,203.572 312.456,206.668 310.729,208.252 C 308.281,210.484 303.097,208.757 299.064,204.509 C 297.84,203.212 296.904,201.773 296.185,200.405 L 289.56,200.405 L 289.56,200.404 z"
   style="fill:#e6e6e6" />
				<path
   id="path2544"
   d="M 115.967,278.524 C 111.36,277.876 107.112,276.508 103.295,274.276 C 99.695,272.116 96.313,269.307 93.143,265.852 L 109.272,265.852 C 109.631,266.211 110.063,266.499 110.496,266.788 C 118.056,272.116 127.416,273.916 138,274.059 C 136.704,271.539 135.552,269.092 134.616,266.643 C 134.544,266.356 134.399,266.139 134.328,265.852 L 149.376,265.852 C 149.664,266.932 150.023,268.156 150.6,269.452 C 151.896,272.404 153.769,275.5 156.145,278.524 L 140.665,278.524 C 140.449,278.164 140.233,277.876 140.017,277.516 C 137.282,277.948 134.69,278.307 132.098,278.524 L 115.967,278.524 L 115.967,278.524 z"
   style="fill:#e6e6e6" />
				<path
   id="path2546"
   d="M 182.495,278.524 C 179.039,273.916 174.647,269.452 170.183,265.852 L 258.67,265.78 C 258.095,269.092 259.39,273.7 262.055,278.524 L 182.495,278.524 L 182.495,278.524 z"
   style="fill:#e6e6e6" />
				<path
   id="path2548"
   d="M 289.486,278.524 C 288.694,276.58 287.543,274.635 286.031,272.692 C 283.871,270.028 281.207,267.723 278.398,265.852 L 296.974,265.852 C 297.694,266.572 298.342,267.364 298.991,268.156 C 300.143,269.596 301.151,271.036 302.014,272.475 C 310.006,271.9 317.279,270.459 323.615,267.652 C 324.911,267.076 326.135,266.5 327.287,265.852 L 339.167,265.852 C 336.503,268.299 332.902,270.459 328.15,272.404 C 321.022,275.356 312.886,276.652 304.102,277.012 C 304.247,277.516 304.462,278.02 304.606,278.524 L 289.486,278.524 L 289.486,278.524 z"
   style="fill:#e6e6e6" />
				<path
   id="path2550"
   d="M 144.335,283.852 C 142.967,282.123 141.814,280.324 140.663,278.524 L 156.143,278.524 C 157.582,280.324 159.095,282.124 160.823,283.852 L 144.335,283.852 z"
   style="fill:#e6e6e6" />
				<path
   id="path2552"
   d="M 186.022,283.852 C 185.014,282.123 183.791,280.324 182.495,278.524 L 262.056,278.524 C 262.992,280.252 264.144,282.051 265.44,283.852 L 186.022,283.852 z"
   style="fill:#e6e6e6" />
				<path
   id="path2554"
   d="M 290.783,283.924 C 290.639,282.195 290.207,280.395 289.486,278.524 L 304.606,278.524 C 305.11,280.324 305.398,282.124 305.543,283.852 L 290.783,283.924 z"
   style="fill:#e6e6e6" />
				<path
   id="path2556"
   d="M 115.967,278.524 C 120.936,279.171 126.335,279.1 132.096,278.524 L 115.967,278.524 z"
   style="fill:#e6e6e6" />
				<path
   id="path2558"
   d="M 111.503,350.596 C 113.734,340.012 116.902,329.932 121.799,320.86 C 128.207,308.836 137.856,298.756 149.015,289.54 C 147.287,287.668 145.776,285.796 144.335,283.852 L 160.823,283.852 C 165.07,288.171 170.183,292.059 175.367,294.723 C 186.167,300.196 192.359,296.524 187.175,285.94 C 186.815,285.219 186.455,284.572 186.023,283.852 L 265.44,283.852 C 265.584,283.996 265.655,284.068 265.728,284.211 C 272.64,293.571 280.56,298.251 286.103,294.867 C 289.343,292.924 291.144,288.747 290.784,283.924 L 305.544,283.852 C 305.616,285.219 305.544,286.516 305.472,287.811 C 319.368,290.26 332.4,294.147 343.704,301.204 C 357.168,309.556 368.184,321.868 378.552,335.26 C 380.568,333.748 382.945,333.101 385.248,333.46 C 387.479,333.82 389.496,334.9 391.368,337.996 C 391.656,338.429 391.944,338.933 392.16,339.509 C 392.304,338.572 392.304,337.492 392.376,336.341 C 393.888,336.845 395.399,337.204 396.84,337.636 C 398.353,337.996 399.864,338.429 401.304,338.788 C 401.304,342.389 401.304,345.845 400.945,349.372 C 402.024,349.66 403.033,349.948 404.112,350.236 C 404.617,350.38 405.049,350.452 405.552,350.596 L 388.056,350.596 C 387.409,346.348 385.32,343.179 382.657,343.108 C 379.921,343.036 377.545,346.204 376.681,350.596 L 372,350.596 C 372.216,348.579 372.504,346.635 373.008,344.835 C 363.433,330.003 353.208,316.467 340.105,307.323 C 329.737,300.051 317.497,295.947 304.392,293.427 C 302.016,301.706 296.04,308.762 289.92,312.722 C 278.04,320.571 264.649,311.859 253.849,292.275 C 247.729,295.802 241.176,299.907 233.328,301.275 C 239.088,314.882 248.807,327.266 259.681,339.363 C 263.353,339.291 267.384,340.011 271.273,341.163 C 275.233,342.388 278.617,343.756 282.289,346.203 C 284.377,347.499 286.104,349.012 287.185,350.596 L 276.097,350.596 C 275.088,348.075 271.632,345.7 267.312,344.763 C 261.552,343.467 256.369,344.979 255.577,348.22 C 255.361,349.012 255.505,349.804 255.793,350.596 L 245.64,350.596 C 245.495,349.731 245.495,348.94 245.567,348.147 C 245.712,345.844 247.007,343.756 249.023,342.171 C 239.16,329.211 230.376,315.892 225.624,301.563 C 221.016,300.916 216.048,299.404 211.008,297.82 C 219.288,319.42 204.024,326.62 180.912,314.092 C 169.968,308.115 160.536,301.131 152.903,293.643 C 142.391,302.643 133.464,312.58 127.92,324.459 C 124.176,332.523 121.872,341.308 120.36,350.596 L 111.503,350.596 L 111.503,350.596 z"
   style="fill:#e6e6e6" />
				<path
   id="path2560"
   d="M 110.352,356.5 C 110.711,354.484 111.071,352.54 111.503,350.597 L 120.359,350.597 C 120.07,352.54 119.783,354.485 119.566,356.5 L 110.352,356.5 z"
   style="fill:#e6e6e6" />
				<path
   id="path2562"
   d="M 249.671,356.5 C 249.239,356.067 248.735,355.708 248.375,355.276 C 246.791,353.547 245.927,352.036 245.64,350.596 L 255.791,350.596 C 256.871,353.042 260.255,355.419 264.647,356.428 C 264.791,356.428 264.863,356.499 265.006,356.499 L 249.671,356.499 L 249.671,356.5 z"
   style="fill:#e6e6e6" />
				<path
   id="path2564"
   d="M 271.775,356.5 C 274.151,355.925 275.879,354.628 276.31,352.9 C 276.527,352.179 276.382,351.388 276.095,350.596 L 287.183,350.596 C 288.046,351.892 288.478,353.188 288.263,354.411 C 288.19,355.131 287.83,355.85 287.326,356.499 L 271.775,356.499 L 271.775,356.5 z"
   style="fill:#e6e6e6" />
				<path
   id="path2566"
   d="M 371.783,356.5 C 371.711,354.555 371.783,352.54 371.999,350.597 L 376.68,350.597 C 376.463,351.533 376.391,352.54 376.319,353.548 C 376.248,354.555 376.319,355.564 376.391,356.5 L 371.783,356.5 z"
   style="fill:#e6e6e6" />
				<path
   id="path2568"
   d="M 387.982,356.5 C 388.127,355.708 388.271,354.845 388.271,353.979 C 388.342,352.828 388.271,351.675 388.054,350.596 L 405.55,350.596 C 406.63,350.883 407.639,351.171 408.646,351.388 C 408.646,353.116 408.646,354.844 408.575,356.499 L 403.679,356.499 C 403.174,355.348 401.662,354.195 399.718,353.691 C 396.982,352.899 394.534,353.619 394.03,355.203 C 393.958,355.635 393.958,356.066 394.174,356.499 L 387.982,356.499 L 387.982,356.5 z"
   style="fill:#e6e6e6" />
				<path
   id="path2570"
   d="M 102.646,369.1 C 104.302,367.948 106.39,367.516 108.623,367.875 C 109.127,364.059 109.703,360.243 110.352,356.499 L 119.567,356.499 C 119.063,360.603 118.704,364.851 118.416,369.1 L 102.646,369.1 z"
   style="fill:#e6e6e6" />
				<path
   id="path2572"
   d="M 374.015,369.1 C 373.944,368.955 373.871,368.74 373.799,368.524 C 372.432,364.276 371.927,360.675 371.783,356.5 L 376.39,356.5 C 376.966,360.964 379.126,364.276 381.935,364.42 C 384.743,364.564 387.191,361.18 387.982,356.5 L 394.174,356.5 C 394.679,357.724 396.191,358.876 398.134,359.38 C 400.943,360.101 403.39,359.452 403.822,357.868 C 403.966,357.436 403.893,356.932 403.678,356.5 L 408.574,356.5 C 408.502,358.372 408.358,360.172 408.214,361.972 C 409.294,362.26 410.374,362.548 411.454,362.836 C 412.893,363.196 414.406,363.628 415.847,363.988 C 415.847,365.717 415.847,367.444 415.847,369.1 L 410.951,369.1 C 410.447,367.948 409.007,366.795 407.062,366.291 C 404.254,365.571 401.735,366.22 401.302,367.875 C 401.231,368.308 401.231,368.667 401.447,369.1 L 396.911,369.1 C 397.415,367.227 397.775,365.428 398.062,363.7 C 397.415,365.572 396.767,367.372 395.974,369.1 L 374.015,369.1 L 374.015,369.1 z"
   style="fill:#e6e6e6" />
				<path
   id="path2574"
   d="M 249.671,356.5 C 252.479,358.731 257.015,360.676 261.768,361.468 C 267.528,362.548 273.936,362.332 279.335,360.893 C 283.223,359.884 285.959,358.301 287.327,356.5 L 271.775,356.5 C 269.831,357.004 267.455,357.004 265.006,356.5 L 249.671,356.5 L 249.671,356.5 z"
   style="fill:#e6e6e6" />
				<path
   id="path2576"
   d="M 91.486,381.7 C 92.062,381.124 92.638,380.548 93.215,379.971 C 94.294,378.82 95.446,377.74 96.454,376.659 C 97.462,378.099 98.47,379.539 99.477,381.051 C 99.045,379.396 98.83,377.955 98.901,376.659 C 98.973,372.915 100.198,371.042 101.925,369.603 C 102.141,369.387 102.358,369.243 102.645,369.099 L 118.414,369.099 C 118.342,370.466 118.27,371.907 118.198,373.275 C 120.502,375.651 122.59,378.53 124.389,381.699 L 119.133,381.627 C 116.037,377.308 111.645,375.075 108.981,376.659 C 107.542,377.596 106.965,379.395 107.038,381.699 L 91.486,381.699 L 91.486,381.7 z"
   style="fill:#e6e6e6" />
				<path
   id="path2578"
   d="M 392.663,381.7 C 394.175,378.028 395.543,374.355 396.551,370.54 C 396.696,370.036 396.839,369.604 396.911,369.101 L 401.447,369.101 C 401.879,370.325 403.463,371.476 405.478,371.98 C 408.214,372.772 410.663,372.052 411.094,370.468 C 411.239,370.036 411.166,369.531 410.95,369.101 L 415.846,369.101 C 415.774,370.901 415.629,372.772 415.413,374.573 C 416.564,374.861 417.644,375.148 418.725,375.437 C 420.164,375.796 421.677,376.228 423.189,376.588 C 423.189,378.316 423.189,380.043 423.117,381.7 L 418.221,381.7 C 417.717,380.548 416.205,379.396 414.262,378.892 C 411.598,378.1 409.077,378.82 408.645,380.475 C 408.574,380.908 408.574,381.267 408.717,381.7 L 404.182,381.7 C 404.614,379.828 404.973,377.956 405.333,376.372 C 404.757,378.172 404.037,379.9 403.316,381.7 L 392.663,381.7 z"
   style="fill:#e6e6e6" />
				<path
   id="path2580"
   d="M 374.015,369.1 C 375.311,373.059 377.688,376.083 380.135,376.371 C 380.856,376.443 381.503,376.371 382.223,376.012 C 381.936,376.659 381.576,377.308 381.215,377.955 C 382.728,378.388 384.311,378.747 385.751,379.179 C 387.191,379.539 388.775,379.971 390.215,380.331 C 392.375,376.659 394.319,372.915 395.975,369.1 L 374.015,369.1 z"
   style="fill:#e6e6e6" />
				<path
   id="path2582"
   d="M 91.343,385.66 C 90.911,384.868 90.407,384.004 89.975,383.212 C 90.479,382.708 90.983,382.204 91.487,381.7 L 107.04,381.7 C 107.112,382.925 107.399,384.292 107.976,385.66 L 91.343,385.66 z"
   style="fill:#e6e6e6" />
				<path
   id="path2584"
   d="M 121.295,385.66 C 120.863,384.58 120.359,383.572 119.711,382.563 C 119.495,382.276 119.352,381.988 119.135,381.627 L 124.391,381.699 C 124.607,382.131 124.824,382.491 125.039,382.85 C 125.543,383.787 126.047,384.722 126.478,385.659 L 121.295,385.659 L 121.295,385.66 z"
   style="fill:#e6e6e6" />
				<path
   id="path2586"
   d="M 390.936,385.66 C 391.511,384.364 392.087,383.067 392.664,381.7 L 403.319,381.7 C 402.744,382.995 402.095,384.364 401.448,385.66 L 390.936,385.66 z"
   style="fill:#e6e6e6" />
				<path
   id="path2588"
   d="M 403.104,385.66 C 403.391,384.796 403.607,384.004 403.824,383.139 C 403.968,382.635 404.04,382.203 404.184,381.7 L 408.719,381.7 C 409.151,382.925 410.736,384.076 412.751,384.58 C 415.415,385.301 417.936,384.652 418.367,382.995 C 418.511,382.563 418.439,382.132 418.222,381.7 L 423.118,381.7 C 423.046,383.067 422.973,384.364 422.901,385.66 L 403.104,385.66 L 403.104,385.66 z"
   style="fill:#e6e6e6" />
				<path
   id="path2590"
   d="M 90.407,397.324 C 91.343,396.388 92.279,395.452 93.216,394.444 C 94.007,393.723 94.799,392.932 95.591,392.212 C 94.079,390.052 92.711,387.893 91.343,385.66 L 107.975,385.66 C 108.335,386.74 108.912,387.892 109.559,388.972 C 112.655,393.941 117.479,396.459 120.288,394.732 C 122.519,393.293 122.808,389.548 121.296,385.661 L 126.48,385.661 C 127.705,388.325 128.641,391.06 129.361,394.302 C 129.577,395.31 129.793,396.39 129.793,397.325 L 104.52,397.325 C 105.167,395.957 105.241,394.589 104.448,393.797 C 103.296,392.573 100.776,393.293 98.76,395.31 C 98.113,395.957 97.609,396.677 97.248,397.326 L 90.407,397.326 L 90.407,397.324 z"
   style="fill:#e6e6e6" />
				<path
   id="path2592"
   d="M 398.64,397.324 C 400.368,393.507 401.952,389.62 403.104,385.66 L 422.903,385.66 C 422.616,389.62 422.04,393.507 421.104,397.324 L 410.664,397.324 C 410.808,396.82 410.952,396.244 411.096,395.74 C 411.744,393.364 412.248,390.988 412.681,388.9 C 411.672,391.78 410.52,394.588 409.152,397.324 L 398.64,397.324 z"
   style="fill:#e6e6e6" />
				<path
   id="path2594"
   d="M 390.936,385.66 C 390.144,387.315 389.352,388.9 388.559,390.483 C 389.999,390.988 391.583,391.42 393.023,391.78 C 394.463,392.212 396.047,392.572 397.487,392.932 C 398.927,390.554 400.223,388.108 401.448,385.66 L 390.936,385.66 z"
   style="fill:#e6e6e6" />
				<path
   id="path2596"
   d="M 90.335,411.94 C 91.272,411.003 92.207,409.995 93.216,409.059 C 94.007,408.267 94.799,407.475 95.591,406.683 C 93.575,403.804 91.703,400.851 89.975,397.756 C 90.12,397.611 90.264,397.467 90.408,397.323 L 97.248,397.323 C 96.601,398.762 96.528,400.131 97.319,400.924 C 98.471,402.075 100.992,401.428 103.007,399.483 C 103.654,398.763 104.159,398.043 104.52,397.324 L 129.791,397.324 C 130.007,400.42 129.359,403.012 127.775,404.164 C 126.838,404.884 125.543,405.244 123.886,405.028 C 124.894,405.748 125.902,406.396 126.838,407.043 C 125.83,408.196 124.679,409.276 123.67,410.355 C 123.166,410.86 122.59,411.434 122.086,411.94 L 117.55,411.94 C 113.158,409.276 108.982,406.396 105.239,403.156 C 106.606,404.74 108.262,406.54 109.918,408.267 C 111.142,409.563 112.51,410.716 113.806,411.94 L 104.519,411.94 C 105.24,410.5 105.24,409.131 104.447,408.34 C 103.295,407.115 100.775,407.835 98.759,409.851 C 98.112,410.499 97.608,411.22 97.247,411.94 L 90.335,411.94 z"
   style="fill:#e6e6e6" />
				<path
   id="path2598"
   d="M 404.975,411.94 C 407.207,407.188 409.151,402.292 410.663,397.324 L 421.103,397.324 C 421.031,397.683 420.886,397.971 420.814,398.332 C 419.59,403.013 417.718,407.548 415.486,411.94 L 404.975,411.94 z"
   style="fill:#e6e6e6" />
				<path
   id="path2600"
   d="M 398.64,397.324 C 397.776,399.267 396.839,401.212 395.831,403.084 C 397.343,403.588 398.855,404.019 400.295,404.38 C 401.735,404.74 403.318,405.172 404.759,405.531 C 406.343,402.868 407.783,400.132 409.151,397.324 L 398.64,397.324 z"
   style="fill:#e6e6e6" />
				<path
   id="path2602"
   d="M 90.407,426.411 C 91.343,425.475 92.279,424.54 93.216,423.604 C 94.007,422.812 94.799,422.018 95.591,421.3 C 93.503,418.419 91.703,415.396 89.975,412.3 C 90.12,412.155 90.264,412.012 90.335,411.94 L 97.247,411.94 C 96.6,413.379 96.527,414.675 97.318,415.467 C 98.47,416.692 100.991,416.042 103.006,414.028 C 103.653,413.38 104.158,412.66 104.519,411.94 L 113.806,411.94 C 117.838,415.467 122.231,418.635 126.91,421.587 C 125.758,422.739 124.679,423.819 123.67,424.899 C 123.166,425.404 122.662,425.908 122.158,426.411 L 117.334,426.411 C 112.942,423.82 108.838,420.94 105.239,417.7 C 106.606,419.284 108.19,421.084 109.99,422.812 C 111.215,424.036 112.51,425.259 113.805,426.411 L 104.518,426.411 C 105.165,425.043 105.239,423.676 104.446,422.884 C 103.294,421.732 100.774,422.38 98.758,424.397 C 98.111,425.043 97.679,425.693 97.318,426.412 L 90.407,426.412 L 90.407,426.411 z"
   style="fill:#e6e6e6" />
				<path
   id="path2604"
   d="M 117.551,411.94 C 118.487,412.516 119.423,413.092 120.36,413.596 C 120.936,413.092 121.511,412.516 122.088,411.94 L 117.551,411.94 z"
   style="fill:#e6e6e6" />
				<path
   id="path2606"
   d="M 404.975,411.94 C 404.328,413.236 403.68,414.459 403.032,415.756 C 404.616,416.188 406.128,416.547 407.567,416.979 C 409.08,417.34 410.664,417.771 412.032,418.131 C 413.256,416.115 414.408,414.027 415.487,411.94 L 404.975,411.94 z"
   style="fill:#e6e6e6" />
				<path
   id="path2608"
   d="M 90.407,426.411 C 90.263,426.555 90.119,426.7 89.974,426.845 C 93.575,433.324 97.679,439.372 102.79,444.484 C 107.901,449.597 113.878,453.555 120.358,457.301 C 121.438,456.221 122.517,455.14 123.67,453.989 C 124.679,452.909 125.758,451.829 126.91,450.749 C 120.718,446.718 114.958,442.397 109.918,437.356 C 108.263,435.628 106.606,433.9 105.239,432.245 C 109.774,436.277 114.885,439.589 120.358,442.684 C 121.438,441.748 122.589,440.525 123.67,439.445 C 124.679,438.365 125.83,437.285 126.838,436.133 C 122.302,433.11 117.838,429.942 113.806,426.412 L 104.519,426.412 C 104.159,427.133 103.654,427.852 103.006,428.573 C 100.99,430.517 98.47,431.237 97.318,430.013 C 96.527,429.221 96.599,427.852 97.318,426.411 L 90.407,426.411 L 90.407,426.411 z"
   style="fill:#e6e6e6" />
				<path
   id="path2610"
   d="M 117.335,426.411 C 118.343,426.988 119.352,427.563 120.359,428.14 C 120.935,427.564 121.51,426.989 122.159,426.411 L 117.335,426.411 z"
   style="fill:#e6e6e6" />
			</g>
			<g
   id="g2612">
				<path
   id="path2614"
   d="M 347.231,126.892 C 351.767,151.516 347.086,185.788 346.871,210.268 C 346.511,246.844 352.486,262.467 328.15,272.404 C 321.022,275.356 312.886,276.652 304.102,277.012 C 305.398,280.684 305.758,284.356 305.47,287.811 C 319.366,290.26 332.398,294.147 343.702,301.204 C 357.166,309.556 368.182,321.868 378.55,335.26 C 380.566,333.748 382.943,333.101 385.246,333.46 C 387.477,333.82 389.494,334.9 391.366,337.996 C 391.654,338.429 391.942,338.933 392.158,339.509 C 392.302,338.572 392.302,337.492 392.374,336.341 C 393.886,336.845 395.397,337.204 396.838,337.636 C 398.351,337.996 399.862,338.429 401.302,338.788 C 401.302,342.389 401.302,345.845 400.943,349.372 C 402.022,349.66 403.031,349.948 404.11,350.236 C 405.623,350.596 407.207,351.028 408.646,351.388 C 408.646,354.915 408.502,358.444 408.214,361.971 C 409.294,362.259 410.374,362.547 411.454,362.835 C 412.893,363.195 414.406,363.627 415.847,363.987 C 415.918,367.587 415.847,371.042 415.414,374.571 C 416.565,374.859 417.645,375.146 418.726,375.435 C 420.165,375.794 421.678,376.226 423.19,376.586 C 423.19,384.074 422.757,391.347 420.813,398.33 C 419.013,405.242 415.846,411.794 412.03,418.13 C 410.662,417.77 409.078,417.339 407.565,416.978 C 406.126,416.546 404.614,416.187 403.03,415.755 C 406.414,409.275 409.221,402.578 411.093,395.738 C 411.741,393.362 412.245,390.986 412.678,388.898 C 410.661,394.658 407.854,400.202 404.757,405.529 C 403.317,405.17 401.734,404.738 400.293,404.378 C 398.854,404.017 397.341,403.586 395.829,403.082 C 399.141,396.674 402.02,389.978 403.821,383.138 C 404.396,380.762 404.9,378.387 405.333,376.37 C 403.461,382.058 400.653,387.529 397.484,392.931 C 396.045,392.571 394.461,392.21 393.02,391.779 C 391.581,391.419 389.997,390.987 388.556,390.482 C 391.868,384.003 394.677,377.378 396.548,370.539 C 397.196,368.163 397.7,365.859 398.06,363.699 C 396.117,369.459 393.38,374.931 390.212,380.331 C 388.773,379.971 387.189,379.539 385.748,379.179 C 384.308,378.747 382.725,378.388 381.212,377.955 C 381.572,377.308 381.933,376.659 382.22,376.012 C 381.5,376.371 380.853,376.444 380.132,376.371 C 377.54,376.083 375.092,372.77 373.796,368.523 C 372.429,364.275 371.924,360.674 371.78,356.499 C 371.636,352.467 372.067,348.363 373.004,344.835 C 363.429,330.003 353.204,316.467 340.101,307.323 C 329.733,300.051 317.493,295.947 304.388,293.427 C 302.012,301.706 296.036,308.762 289.916,312.722 C 278.036,320.571 264.645,311.859 253.845,292.275 C 247.725,295.802 241.172,299.907 233.324,301.275 C 239.084,314.882 248.803,327.266 259.677,339.363 C 263.349,339.291 267.38,340.011 271.269,341.163 C 275.229,342.388 278.613,343.756 282.285,346.203 C 286.1,348.508 288.692,351.747 288.262,354.411 C 287.901,357.003 284.734,359.451 279.333,360.891 C 273.934,362.33 267.525,362.546 261.766,361.466 C 256.15,360.529 250.893,358.011 248.373,355.275 C 245.853,352.539 245.277,350.379 245.564,348.146 C 245.709,345.843 247.004,343.755 249.02,342.17 C 239.157,329.21 230.373,315.891 225.621,301.562 C 221.013,300.915 216.045,299.403 211.005,297.819 C 219.285,319.419 204.021,326.619 180.909,314.091 C 169.965,308.114 160.533,301.13 152.9,293.642 C 142.388,302.642 133.461,312.579 127.917,324.458 C 121.221,338.931 119.061,355.706 118.197,373.274 C 120.789,375.938 123.093,379.25 125.037,382.849 C 126.98,386.45 128.421,389.906 129.357,394.298 C 130.365,398.545 129.861,402.65 127.773,404.161 C 126.836,404.881 125.541,405.241 123.884,405.025 C 124.892,405.745 125.9,406.393 126.836,407.04 C 125.828,408.193 124.677,409.273 123.668,410.352 C 122.588,411.431 121.437,412.584 120.356,413.593 C 114.883,410.496 109.772,407.113 105.237,403.153 C 106.604,404.737 108.26,406.537 109.916,408.264 C 114.956,413.305 120.716,417.624 126.908,421.584 C 125.756,422.736 124.677,423.816 123.668,424.896 C 122.516,425.976 121.437,427.128 120.356,428.136 C 114.883,425.113 109.7,421.657 105.237,417.697 C 106.604,419.281 108.188,421.081 109.988,422.809 C 114.956,427.848 120.788,432.168 126.836,436.128 C 125.828,437.28 124.677,438.36 123.668,439.44 C 122.588,440.52 121.437,441.744 120.356,442.679 C 114.883,439.583 109.772,436.272 105.237,432.24 C 106.604,433.895 108.26,435.624 109.916,437.351 C 114.956,442.392 120.716,446.712 126.908,450.744 C 125.756,451.824 124.677,452.904 123.668,453.984 C 122.516,455.135 121.437,456.216 120.356,457.296 C 113.876,453.55 107.899,449.592 102.788,444.479 C 97.677,439.368 93.572,433.32 89.972,426.84 C 90.98,425.831 92.132,424.679 93.213,423.6 C 94.004,422.808 94.796,422.014 95.588,421.296 C 93.5,418.415 91.7,415.392 89.972,412.296 C 90.98,411.287 92.06,410.135 93.213,409.055 C 94.004,408.263 94.796,407.471 95.588,406.679 C 93.572,403.8 91.7,400.847 89.972,397.752 C 90.98,396.743 92.132,395.592 93.213,394.44 C 94.004,393.719 94.796,392.928 95.588,392.208 C 93.5,389.256 91.7,386.305 89.972,383.208 C 90.98,382.2 92.132,381.048 93.213,379.968 C 94.292,378.817 95.444,377.737 96.452,376.656 C 97.46,378.096 98.468,379.536 99.475,381.048 C 99.043,379.393 98.828,377.952 98.899,376.656 C 98.971,372.912 100.196,371.039 101.923,369.6 C 103.723,368.088 106.1,367.44 108.619,367.871 C 110.851,351.023 114.307,334.823 121.795,320.855 C 128.203,308.831 137.852,298.751 149.011,289.535 C 145.483,285.647 142.532,281.615 140.011,277.512 C 125.612,279.743 113.083,280.032 103.291,274.272 C 69.451,254.256 58.075,173.688 54.187,129.984 C 53.394,121.2 53.539,113.568 54.546,107.015 C 50.37,98.88 46.482,87.288 41.442,77.784 C 36.546,68.568 31.362,64.464 26.178,60.36 C 20.993,56.256 20.417,51.072 18.258,41.063 C 16.961,34.943 14.946,27.528 13.506,19.608 C 12.21,12.12 10.77,4.344 14.225,1.824 C 17.753,-0.624 24.809,3.264 31.362,7.08 C 38.418,11.112 44.826,15.576 50.082,19.176 C 58.578,24.792 62.97,29.76 64.122,35.808 C 65.347,42.288 67.218,48.336 70.17,53.592 C 74.562,58.128 79.962,61.728 85.722,65.112 C 89.611,67.344 93.284,69.792 96.523,72.528 C 98.754,72.456 101.058,72.456 103.435,72.6 C 129.211,73.895 159.523,101.256 192.21,116.952 C 192.498,116.16 192.858,115.152 193.29,114.144 C 201.21,95.136 222.45,75.696 240.954,85.344 C 256.578,93.552 262.555,108.744 257.802,123.648 C 279.834,116.88 298.267,103.056 313.386,98.448 C 316.122,96.216 319.147,94.2 322.386,92.328 C 326.994,89.592 331.386,86.64 334.914,82.967 C 337.29,78.792 338.802,73.895 339.81,68.712 C 340.747,63.816 344.275,59.784 351.115,55.249 C 355.363,52.369 360.474,48.769 366.235,45.529 C 371.491,42.433 377.179,39.337 379.987,41.353 C 382.795,43.296 381.642,49.633 380.562,55.609 C 379.411,62.016 377.827,67.992 376.747,72.889 C 375.018,81.025 374.587,85.129 370.411,88.441 C 366.235,91.753 361.987,95.064 358.099,102.553 C 353.927,110.476 350.688,120.052 347.231,126.892 z"
   style="fill:none;stroke:#000000;stroke-width:2.15899992" />
				<path
   id="path2616"
   d="M 330.022,98.452 C 330.743,98.884 331.462,99.244 332.183,99.676 C 336.07,102.052 339.166,105.508 341.542,109.756 C 343.918,106.228 346.438,102.556 348.886,98.812 C 352.702,93.268 356.374,87.796 360.046,82.54 C 360.191,79.084 360.263,75.772 358.606,74.836 C 356.735,73.756 353.639,75.556 350.254,77.067 C 346.294,81.963 341.758,86.572 337.078,91.18 C 334.703,93.556 332.327,96.003 330.022,98.452 z"
   style="fill:none;stroke:#000000;stroke-width:2.15899992" />
				<path
   id="path2618"
   d="M 78.743,75.34 C 75.142,71.452 71.327,67.564 67.512,63.748 C 61.68,58.06 56.135,52.299 51.24,46.252 C 46.991,44.308 43.103,42.148 40.799,43.444 C 38.783,44.596 38.783,48.7 39.07,52.947 C 43.535,59.572 48.142,66.34 52.823,73.252 C 55.991,77.932 59.159,82.54 62.255,87.148 C 66.359,81.532 71.902,77.716 78.743,75.34 z"
   style="fill:none;stroke:#000000;stroke-width:2.15899992" />
				<path
   id="path2620"
   d="M 98.759,395.308 C 96.815,397.251 96.167,399.771 97.319,400.924 C 98.471,402.075 100.992,401.428 103.007,399.483 C 104.951,397.467 105.6,395.018 104.447,393.795 C 103.295,392.572 100.775,393.292 98.759,395.308 z"
   style="fill:none;stroke:#000000;stroke-width:2.15899992" />
				<path
   id="path2622"
   d="M 98.759,409.851 C 96.815,411.795 96.167,414.315 97.319,415.467 C 98.471,416.692 100.992,416.042 103.007,414.028 C 105.024,412.012 105.671,409.563 104.447,408.34 C 103.295,407.116 100.775,407.835 98.759,409.851 z"
   style="fill:none;stroke:#000000;stroke-width:2.15899992" />
				<path
   id="path2624"
   d="M 98.759,424.396 C 96.815,426.411 96.167,428.86 97.319,430.012 C 98.471,431.236 100.992,430.516 103.007,428.572 C 104.951,426.554 105.6,424.108 104.447,422.884 C 103.295,421.731 100.775,422.379 98.759,424.396 z"
   style="fill:none;stroke:#000000;stroke-width:2.15899992" />
				<path
   id="path2626"
   d="M 238.728,109.324 C 230.087,104.284 217.2,108.892 211.799,119.98 C 206.327,131.14 209.927,144.244 217.776,148.06 C 225.624,151.875 234.912,143.596 241.103,133.588 C 247.295,123.58 247.439,114.508 238.728,109.324 z"
   style="fill:none;stroke:#000000;stroke-width:2.15899992" />
				<path
   id="path2628"
   d="M 261.335,261.891 C 256.007,264.844 258.814,274.924 265.728,284.211 C 272.64,293.571 280.56,298.251 286.103,294.867 C 291.648,291.483 293.087,281.547 286.032,272.691 C 278.831,263.908 266.663,258.94 261.335,261.891 z"
   style="fill:none;stroke:#000000;stroke-width:2.15899992" />
				<path
   id="path2630"
   d="M 159.311,258.94 C 149.879,254.908 146.711,260.307 150.599,269.452 C 154.56,278.597 164.64,289.252 175.368,294.723 C 186.168,300.196 192.36,296.524 187.176,285.94 C 181.919,275.356 168.743,262.9 159.311,258.94 z"
   style="fill:none;stroke:#000000;stroke-width:2.15899992" />
				<path
   id="path2632"
   d="M 296.184,192.627 C 293.807,194.859 295.103,200.188 299.063,204.508 C 303.096,208.756 308.28,210.484 310.728,208.251 C 313.175,205.947 311.879,200.619 307.919,196.299 C 303.887,191.979 298.631,190.324 296.184,192.627 z"
   style="fill:none;stroke:#000000;stroke-width:2.15899992" />
				<path
   id="path2634"
   d="M 108.623,137.62 C 111.791,138.556 115.751,134.812 117.478,129.124 C 119.207,123.58 118.054,118.252 114.886,117.244 C 111.718,116.236 107.758,119.98 105.958,125.668 C 104.303,131.284 105.527,136.612 108.623,137.62 z"
   style="fill:none;stroke:#000000;stroke-width:2.15899992" />
				<path
   id="path2636"
   d="M 255.575,348.22 C 254.783,351.388 258.887,355.131 264.647,356.428 C 270.263,357.723 275.518,356.139 276.31,352.9 C 277.102,349.731 272.998,345.988 267.31,344.763 C 261.551,343.467 256.367,344.979 255.575,348.22 z"
   style="fill:none;stroke:#000000;stroke-width:2.15899992" />
				<path
   id="path2638"
   d="M 108.982,376.66 C 106.174,378.46 106.462,383.932 109.558,388.972 C 112.654,393.941 117.478,396.459 120.287,394.732 C 123.096,392.933 122.807,387.461 119.711,382.564 C 116.615,377.596 111.791,374.932 108.982,376.66 z"
   style="fill:none;stroke:#000000;stroke-width:2.15899992" />
				<path
   id="path2640"
   d="M 382.655,343.108 C 379.343,343.036 376.535,347.716 376.318,353.547 C 376.031,359.379 378.55,364.276 381.935,364.419 C 385.247,364.563 388.054,359.883 388.271,353.979 C 388.486,348.147 385.967,343.179 382.655,343.108 z"
   style="fill:none;stroke:#000000;stroke-width:2.15899992" />
				<path
   id="path2642"
   d="M 399.719,353.692 C 396.983,352.9 394.535,353.62 394.031,355.204 C 393.671,356.788 395.47,358.66 398.135,359.38 C 400.944,360.101 403.391,359.452 403.823,357.868 C 404.255,356.284 402.383,354.412 399.719,353.692 z"
   style="fill:none;stroke:#000000;stroke-width:2.15899992" />
				<path
   id="path2644"
   d="M 407.062,366.292 C 404.254,365.572 401.735,366.221 401.302,367.876 C 400.943,369.46 402.742,371.26 405.478,371.98 C 408.214,372.772 410.663,372.052 411.094,370.468 C 411.527,368.883 409.728,367.012 407.062,366.292 z"
   style="fill:none;stroke:#000000;stroke-width:2.15899992" />
				<path
   id="path2646"
   d="M 414.264,378.892 C 411.6,378.1 409.079,378.82 408.647,380.475 C 408.215,382.059 410.015,383.86 412.751,384.579 C 415.415,385.3 417.936,384.651 418.367,382.994 C 418.799,381.484 416.999,379.612 414.264,378.892 z"
   style="fill:none;stroke:#000000;stroke-width:2.15899992" />
				<path
   id="path2648"
   d="M 190.775,120.771 C 161.687,106.874 134.039,85.779 110.638,83.403 C 78.023,80.163 58.943,92.619 62.615,132.363 C 66.288,172.107 78.671,244.467 110.495,266.787 C 118.055,272.115 127.415,273.915 137.999,274.058 C 136.703,271.538 135.551,269.091 134.615,266.642 C 128.062,249.075 141.167,238.562 151.894,242.019 C 162.623,245.619 158.735,245.259 162.407,247.491 C 160.247,234.531 157.654,220.635 160.751,207.027 C 151.175,201.843 142.535,195.795 135.407,188.163 C 130.727,183.051 126.551,177.435 122.879,171.387 C 120.359,174.844 118.272,178.299 116.471,181.682 C 117.408,183.123 117.983,184.994 117.983,186.94 C 117.983,191.979 114.168,196.084 109.631,196.084 C 105.024,196.084 101.279,191.98 101.279,186.94 C 101.279,181.899 105.023,177.723 109.631,177.723 C 109.991,177.723 110.352,177.795 110.711,177.795 C 113.087,173.691 115.895,169.371 119.352,165.268 C 116.184,159.147 113.231,152.811 110.567,146.26 C 108.192,147.268 105.744,147.268 103.655,146.332 C 101.567,145.324 99.983,143.812 98.903,140.284 C 97.824,136.755 98.256,130.851 100.2,125.596 C 102.217,120.052 105.528,114.58 109.559,110.62 C 113.448,106.732 117.192,105.148 119.64,106.156 C 122.087,107.092 123.528,110.98 123.815,115.372 C 123.96,119.764 123.528,123.436 122.591,127.468 C 121.654,131.428 120.287,135.244 118.415,138.412 C 120.719,145.468 123.096,152.308 125.902,158.86 C 132.095,153.532 139.654,148.707 148.222,143.812 C 148.151,143.452 148.151,143.019 148.151,142.588 C 148.151,137.548 151.894,133.444 156.431,133.444 C 161.038,133.444 164.855,137.548 164.855,142.588 C 164.855,147.628 161.039,151.803 156.431,151.803 C 154.126,151.803 152.038,150.724 150.527,149.067 C 141.959,154.18 134.543,159.219 128.711,164.764 C 132.023,171.532 135.911,177.723 140.447,183.196 C 146.566,190.467 153.982,196.227 162.478,201.196 C 168.095,185.067 181.055,170.018 195.095,154.684 C 187.031,146.548 185.663,135.963 190.775,120.771 z"
   style="fill:none;stroke:#000000;stroke-width:2.15899992" />
				<path
   id="path2650"
   d="M 302.015,272.475 C 310.007,271.9 317.28,270.459 323.616,267.652 C 345.432,258.147 340.968,242.956 341.256,209.188 C 341.544,175.419 350.04,123.868 327.648,109.036 C 311.953,98.596 287.904,121.923 255.216,129.844 C 254.928,130.42 254.568,131.14 254.136,131.788 C 243.912,149.212 227.353,160.66 215.472,164.332 C 210,178.947 204.384,193.132 205.392,206.164 C 216.048,198.892 227.136,193.349 239.016,190.54 C 241.537,189.892 244.128,189.46 246.72,189.028 C 245.353,184.42 243.48,180.244 241.32,176.572 C 241.32,176.572 241.32,176.572 241.249,176.572 C 236.642,176.572 232.969,172.395 232.969,167.356 C 232.969,162.316 236.642,158.139 241.249,158.139 C 245.857,158.139 249.673,162.316 249.673,167.356 C 249.673,169.731 248.809,171.891 247.369,173.62 C 249.745,178.013 251.833,182.908 253.201,188.38 C 264.433,187.517 276.024,188.452 287.761,189.964 C 288.049,187.372 289.274,185.357 291.146,183.988 C 293.017,182.62 295.177,181.971 298.85,182.836 C 302.377,183.628 307.202,186.94 310.801,191.332 C 314.617,195.796 317.713,201.412 319.154,206.811 C 320.521,212.211 320.017,216.171 317.929,217.9 C 315.913,219.555 311.881,218.908 307.921,216.82 C 304.033,214.803 301.009,212.572 298.058,209.692 C 295.105,206.883 292.442,203.86 290.569,200.62 C 278.33,197.956 266.234,196.084 254.642,196.084 C 255.578,202.492 255.938,209.548 256.081,217.108 C 258.601,218.332 260.329,221.284 260.329,224.74 C 260.329,229.708 256.513,233.884 251.976,233.884 C 247.369,233.884 243.624,229.708 243.624,224.74 C 243.624,220.276 246.576,216.46 250.392,215.668 C 250.033,208.54 249.529,202.276 248.52,196.517 C 245.928,196.588 243.336,196.948 240.816,197.38 C 228.649,199.54 217.201,205.013 206.4,212.357 C 206.472,212.501 206.472,212.644 206.545,212.789 C 210.865,228.557 225.553,241.589 240.673,255.197 C 241.32,251.453 238.945,250.517 246.289,246.845 C 253.633,243.101 285.024,250.876 298.993,268.157 C 300.144,269.596 301.151,271.036 302.015,272.475 z"
   style="fill:none;stroke:#000000;stroke-width:2.15899992" />
			</g>
		</g></svg>