<?xml version="1.0" encoding="UTF-8" standalone="no"?>
<!-- Generator: Adobe Illustrator 10, SVG Export Plug-In . SVG Version: 3.0.0 Build 76)  -->
<svg
   xmlns:dc="http://purl.org/dc/elements/1.1/"
   xmlns:cc="http://creativecommons.org/ns#"
   xmlns:rdf="http://www.w3.org/1999/02/22-rdf-syntax-ns#"
   xmlns:svg="http://www.w3.org/2000/svg"
   xmlns="http://www.w3.org/2000/svg"
   xmlns:sodipodi="http://sodipodi.sourceforge.net/DTD/sodipodi-0.dtd"
   xmlns:inkscape="http://www.inkscape.org/namespaces/inkscape"
   width="525.72437"
   height="582.86023"
   viewBox="0 0 536.619 663.873"
   style="overflow:visible"
   xml:space="preserve"
   id="svg2659"
   sodipodi:version="0.32"
   inkscape:version="0.46"
   sodipodi:docname="ESPb.svg"
   inkscape:output_extension="org.inkscape.output.svg.inkscape"
   version="1.0"><metadata
   id="metadata3037"><rdf:RDF><cc:Work
       rdf:about=""><dc:format>image/svg+xml</dc:format><dc:type
         rdf:resource="http://purl.org/dc/dcmitype/StillImage" /></cc:Work></rdf:RDF></metadata><defs
   id="defs3035"><inkscape:perspective
   sodipodi:type="inkscape:persp3d"
   inkscape:vp_x="0 : 331.93649 : 1"
   inkscape:vp_y="0 : 1000 : 0"
   inkscape:vp_z="536.61902 : 331.93649 : 1"
   inkscape:persp3d-origin="268.30951 : 221.291 : 1"
   id="perspective3039" />
		
		
	</defs><sodipodi:namedview
   inkscape:window-height="670"
   inkscape:window-width="640"
   inkscape:pageshadow="2"
   inkscape:pageopacity="0.0"
   guidetolerance="10.0"
   gridtolerance="10.0"
   objecttolerance="10.0"
   borderopacity="1.0"
   bordercolor="#666666"
   pagecolor="#ffffff"
   id="base"
   showgrid="false"
   inkscape:zoom="0.69591625"
   inkscape:cx="268.30951"
   inkscape:cy="331.93649"
   inkscape:window-x="161"
   inkscape:window-y="36"
   inkscape:current-layer="svg2659" />
	<style
   type="text/css"
   id="style2661">
	
		@font-face{font-family:'Times-Roman';src:url(864F4DC0.cef)}
	
	</style>
	
<g
   transform="matrix(1.1389918,0,0,1.1389918,-43.496681,1.9479853e-3)"
   style="overflow:visible"
   id="g2680">
			<g
   id="g2682">
				<g
   id="g2684">
					<path
   id="path2686"
   d="M 40.47,82.174 C 38.094,79.943 35.646,77.998 33.27,76.126 C 26.718,70.87 25.998,64.39 23.19,51.718 C 21.606,43.942 19.086,34.582 17.214,24.574 C 15.558,15.07 13.758,5.278 18.077,2.038 C 22.541,-1.058 31.541,3.91 39.822,8.734 C 48.75,13.846 56.814,19.462 63.51,23.998 C 74.239,31.126 79.782,37.462 81.222,45.094 C 82.805,53.23 85.182,60.862 88.926,67.558 C 94.47,73.318 101.31,77.782 108.582,82.102 C 108.654,82.102 108.654,82.174 108.726,82.174 L 87.27,82.174 C 86.693,81.598 86.118,81.023 85.542,80.446 C 78.198,73.174 71.142,65.902 64.95,58.27 C 59.622,55.822 54.654,53.086 51.701,54.67 C 49.181,56.182 49.181,61.366 49.613,66.766 C 52.997,71.806 56.453,76.918 59.981,82.174 L 40.47,82.174 L 40.47,82.174 z"
   style="fill:#808080" />
					<path
   id="path2688"
   d="M 431.572,82.174 C 433.804,77.854 437.908,73.894 444.316,69.646 C 449.716,65.974 456.197,61.438 463.467,57.406 C 470.163,53.446 477.291,49.486 480.892,52.078 C 484.492,54.525 482.98,62.59 481.613,70.078 C 480.892,74.326 479.956,78.358 479.092,82.174 L 431.572,82.174 z"
   style="fill:#808080" />
					<path
   id="path2690"
   d="M 57.03,107.375 C 55.662,104.207 54.222,101.111 52.638,98.159 C 48.678,90.743 44.574,85.991 40.47,82.175 L 59.982,82.175 C 62.286,85.559 64.662,89.015 66.966,92.471 C 70.35,97.439 73.734,102.406 77.117,107.375 L 57.03,107.375 L 57.03,107.375 z"
   style="fill:#808080" />
					<path
   id="path2692"
   d="M 81.006,107.375 C 85.902,101.687 92.166,97.727 99.726,95.063 C 95.766,90.743 91.518,86.423 87.27,82.175 L 108.726,82.175 C 113.55,85.055 118.158,88.079 122.262,91.463 C 125.07,91.391 127.949,91.391 130.974,91.535 C 144.582,92.255 159.126,98.663 174.531,107.375 L 151.493,107.375 C 147.605,106.367 143.789,105.575 140.117,105.215 C 127.661,103.991 116.789,104.568 107.789,107.375 L 81.006,107.375 z"
   style="fill:#808080" />
					<path
   id="path2694"
   d="M 278.788,107.375 C 287.068,103.847 295.851,103.271 304.204,107.375 L 278.788,107.375 z"
   style="fill:#808080" />
					<path
   id="path2696"
   d="M 421.061,107.375 C 421.997,106.511 422.932,105.647 423.868,104.711 C 426.821,99.454 428.764,93.263 430.061,86.711 C 430.348,85.127 430.852,83.615 431.573,82.174 L 479.093,82.174 C 478.23,85.702 477.437,89.014 476.718,91.966 C 475.277,99.166 474.557,103.775 472.469,107.374 L 453.46,107.374 C 454.18,106.294 454.973,105.286 455.691,104.206 C 455.836,99.814 455.908,95.638 453.892,94.414 C 451.443,93.046 447.555,95.278 443.308,97.294 C 440.499,100.678 437.476,104.062 434.308,107.374 L 421.061,107.374 L 421.061,107.375 z"
   style="fill:#808080" />
					<path
   id="path2698"
   d="M 60.846,116.303 C 59.622,113.351 58.398,110.327 57.03,107.375 L 77.117,107.375 C 77.693,108.239 78.342,109.175 78.917,110.039 C 79.565,109.103 80.285,108.239 81.005,107.375 L 107.789,107.375 C 101.669,109.247 96.412,112.199 92.093,116.303 L 60.846,116.303 z"
   style="fill:#808080" />
					<path
   id="path2700"
   d="M 174.316,116.303 C 166.467,112.487 158.837,109.391 151.493,107.375 L 174.531,107.375 C 179.427,110.183 184.468,113.207 189.58,116.303 L 174.316,116.303 z"
   style="fill:#808080" />
					<path
   id="path2702"
   d="M 264.748,116.303 C 269.14,112.487 273.893,109.391 278.788,107.375 L 304.204,107.375 C 304.492,107.447 304.708,107.591 304.996,107.735 C 309.603,110.111 313.564,113.063 316.805,116.303 L 264.748,116.303 z"
   style="fill:#808080" />
					<path
   id="path2704"
   d="M 408.389,116.303 C 412.924,113.639 417.244,110.759 421.061,107.375 L 434.309,107.375 C 431.788,109.967 429.198,112.559 426.604,115.079 C 426.173,115.511 425.813,115.871 425.38,116.303 L 408.389,116.303 z"
   style="fill:#808080" />
					<path
   id="path2706"
   d="M 447.34,116.303 C 449.428,113.279 451.444,110.327 453.46,107.375 L 472.468,107.375 C 471.604,109.031 470.38,110.399 468.796,111.695 C 466.924,113.135 465.052,114.575 463.18,116.303 L 447.34,116.303 z"
   style="fill:#808080" />
					<path
   id="path2708"
   d="M 68.91,136.535 C 68.982,136.103 69.055,135.599 69.126,135.095 C 66.39,129.695 63.726,123.143 60.846,116.303 L 92.094,116.303 C 86.838,121.271 83.022,127.967 80.862,136.607 L 68.91,136.535 z"
   style="fill:#808080" />
					<path
   id="path2710"
   d="M 142.278,136.607 C 145.878,134.015 149.118,133.007 151.494,134.015 C 152.573,134.447 153.582,135.382 154.302,136.607 L 142.278,136.607 z"
   style="fill:#808080" />
					<path
   id="path2712"
   d="M 211.611,136.607 C 198.724,129.335 186.267,122.063 174.316,116.303 L 189.58,116.303 C 200.236,122.927 211.252,129.983 222.556,136.607 L 211.611,136.607 z"
   style="fill:#808080" />
					<path
   id="path2714"
   d="M 248.332,136.607 C 252.58,129.119 258.268,121.919 264.748,116.303 L 316.805,116.303 C 322.637,122.135 326.309,129.119 327.676,136.607 L 298.947,136.607 C 294.7,135.095 289.947,135.167 285.34,136.607 L 248.332,136.607 z"
   style="fill:#808080" />
					<path
   id="path2716"
   d="M 369.652,136.607 C 379.443,131.422 388.443,126.815 396.652,124.295 C 400.035,121.487 403.923,118.895 408.027,116.519 C 408.172,116.447 408.244,116.375 408.388,116.303 L 425.379,116.303 C 422.787,118.895 420.196,121.631 417.675,124.295 C 418.539,124.871 419.547,125.303 420.411,125.807 C 424.659,128.471 428.186,132.143 430.995,136.607 L 412.78,136.607 C 406.372,133.295 399.027,133.943 390.676,136.607 L 369.652,136.607 L 369.652,136.607 z"
   style="fill:#808080" />
					<path
   id="path2718"
   d="M 433.589,136.607 C 436.18,132.719 438.844,128.758 441.508,124.799 C 443.524,121.919 445.468,119.111 447.34,116.303 L 463.18,116.303 C 459.724,119.399 456.34,123.359 453.244,129.478 C 452.019,131.783 450.867,134.159 449.788,136.607 L 433.589,136.607 z"
   style="fill:#808080" />
					<path
   id="path2720"
   d="M 68.478,161.807 C 67.758,152.303 67.974,143.951 68.91,136.535 L 80.862,136.607 C 79.134,143.663 78.414,152.015 78.99,161.878 L 68.478,161.807 z"
   style="fill:#808080" />
					<path
   id="path2722"
   d="M 125.934,161.878 C 126.222,160.798 126.582,159.718 126.942,158.638 C 129.461,151.654 133.638,144.742 138.75,139.702 C 139.974,138.477 141.126,137.47 142.278,136.606 L 154.302,136.606 C 155.742,138.837 156.534,142.15 156.822,145.678 C 156.967,151.294 156.39,155.974 155.239,161.014 C 155.167,161.302 155.094,161.59 155.023,161.878 L 149.119,161.878 C 150.775,155.326 149.264,149.278 145.448,148.054 C 141.488,146.83 136.448,151.582 134.144,158.71 C 133.856,159.79 133.64,160.87 133.496,161.878 L 125.934,161.878 z"
   style="fill:#808080" />
					<path
   id="path2724"
   d="M 238.9,161.878 C 239.547,158.926 240.412,155.83 241.492,152.518 C 231.34,147.694 221.404,142.15 211.611,136.606 L 222.555,136.606 C 229.396,140.566 236.308,144.31 243.291,147.694 C 243.724,146.757 244.155,145.462 244.659,144.166 C 245.739,141.646 246.963,139.126 248.331,136.606 L 285.339,136.606 C 278.355,138.694 271.804,143.95 268.131,151.582 C 266.476,154.966 265.467,158.422 265.034,161.878 L 238.9,161.878 L 238.9,161.878 z"
   style="fill:#808080" />
					<path
   id="path2726"
   d="M 308.668,161.878 C 312.628,152.014 311.115,143.374 302.188,138.046 C 301.18,137.47 300.102,136.966 298.948,136.607 L 327.677,136.607 C 328.902,142.871 328.398,149.567 326.31,156.19 C 342.222,151.294 356.621,143.518 369.654,136.607 L 390.677,136.607 C 374.549,141.791 354.605,154.535 330.847,161.878 L 308.668,161.878 L 308.668,161.878 z"
   style="fill:#808080" />
					<path
   id="path2728"
   d="M 430.061,161.807 C 427.108,151.295 422.356,142.799 414.653,137.687 C 414.005,137.255 413.428,136.895 412.781,136.607 L 430.997,136.607 C 431.429,137.254 431.86,137.903 432.222,138.623 C 432.654,137.975 433.158,137.255 433.59,136.607 L 449.789,136.607 C 446.045,144.815 442.806,153.599 439.493,160.295 C 439.565,160.799 439.71,161.303 439.782,161.807 L 430.061,161.807 L 430.061,161.807 z"
   style="fill:#808080" />
					<path
   id="path2730"
   d="M 82.158,253.319 C 74.814,221.567 70.854,188.447 68.694,164.255 C 68.622,163.463 68.55,162.599 68.478,161.807 L 78.99,161.879 C 79.062,163.607 79.205,165.406 79.35,167.207 C 81.51,190.535 86.046,222.719 94.254,253.319 L 82.158,253.319 z"
   style="fill:#808080" />
					<path
   id="path2732"
   d="M 189.725,253.319 C 183.028,248.711 176.909,243.599 171.436,237.839 C 165.532,231.286 160.207,224.231 155.598,216.599 C 152.431,220.991 149.766,225.31 147.535,229.631 C 148.687,231.43 149.407,233.807 149.407,236.255 C 149.407,242.663 144.583,247.847 138.823,247.847 C 132.991,247.847 128.311,242.663 128.311,236.255 C 128.311,229.847 132.991,224.663 138.823,224.663 C 139.255,224.663 139.76,224.735 140.191,224.735 C 143.215,219.478 146.743,214.079 151.063,208.823 C 147.103,201.119 143.359,193.055 140.047,184.775 C 137.023,186.071 133.927,186.071 131.334,184.919 C 128.599,183.623 126.583,181.679 125.287,177.286 C 124.136,173.543 124.351,167.639 125.935,161.879 L 133.495,161.879 C 132.631,167.711 134.215,172.751 137.599,173.831 C 141.558,175.055 146.599,170.375 148.76,163.103 C 148.904,162.671 148.976,162.31 149.119,161.879 L 155.023,161.879 C 153.799,166.631 152.143,171.023 149.983,174.839 C 152.863,183.767 155.887,192.406 159.415,200.687 C 167.261,194.063 176.837,187.943 187.638,181.679 C 187.566,181.247 187.566,180.671 187.566,180.095 C 187.566,173.759 192.246,168.575 198.078,168.575 C 203.838,168.575 208.734,173.759 208.734,180.095 C 208.734,186.575 203.838,191.831 198.078,191.831 C 195.126,191.831 192.533,190.463 190.59,188.375 C 179.719,194.855 170.358,201.191 162.944,208.175 C 167.118,216.743 172.087,224.663 177.774,231.575 C 185.19,240.286 194.046,247.271 204.054,253.319 L 189.725,253.319 L 189.725,253.319 z"
   style="fill:#808080" />
					<path
   id="path2734"
   d="M 206.068,253.319 C 213.267,233.375 229.54,214.583 246.964,195.43 C 238.54,186.863 235.876,176.207 238.901,161.879 L 265.036,161.879 C 263.597,172.895 268.061,183.406 275.62,187.007 C 285.557,191.903 297.364,181.391 305.141,168.719 C 306.581,166.415 307.806,164.111 308.669,161.879 L 330.847,161.879 C 328.253,162.671 325.661,163.391 322.997,164.039 C 322.638,164.759 322.205,165.623 321.701,166.415 C 308.741,188.519 287.718,202.991 272.741,207.599 C 266.837,223.511 260.789,238.919 259.925,253.319 L 206.068,253.319 z"
   style="fill:#808080" />
					<path
   id="path2736"
   d="M 271.66,253.319 C 281.596,247.703 291.748,243.31 302.548,240.863 C 305.717,239.999 308.956,239.423 312.268,238.919 C 310.54,233.087 308.164,227.831 305.43,223.151 C 305.43,223.151 305.43,223.151 305.358,223.151 C 299.524,223.151 294.918,217.895 294.918,211.487 C 294.918,205.079 299.524,199.823 305.358,199.823 C 311.188,199.823 316.012,205.079 316.012,211.487 C 316.012,214.439 314.932,217.247 313.061,219.406 C 316.084,224.951 318.749,231.143 320.477,238.055 C 334.733,236.975 349.348,238.127 364.18,240.071 C 364.613,236.759 366.124,234.238 368.5,232.511 C 370.876,230.855 373.612,229.991 378.221,231.071 C 382.684,232.079 388.733,236.255 393.34,241.799 C 396.292,245.183 398.885,249.214 400.901,253.319 L 393.34,253.319 C 392.477,251.591 391.252,249.719 389.74,248.063 C 384.628,242.663 377.931,240.502 374.836,243.454 C 372.748,245.399 372.893,249.286 374.908,253.319 L 366.7,253.319 C 351.58,250.079 336.603,247.847 322.275,247.847 C 322.564,249.647 322.78,251.447 322.996,253.247 L 315.292,253.319 C 315.076,251.663 314.788,250.007 314.5,248.423 C 311.26,248.495 308.02,248.927 304.852,249.43 C 299.956,250.295 295.132,251.591 290.452,253.319 L 271.66,253.319 L 271.66,253.319 z"
   style="fill:#808080" />
					<path
   id="path2738"
   d="M 432.148,253.391 C 433.228,223.655 436.972,186.935 430.06,161.807 L 439.781,161.807 C 444.316,188.807 440.5,224.447 439.347,253.319 L 432.148,253.391 z"
   style="fill:#808080" />
					<path
   id="path2740"
   d="M 118.014,336.046 C 101.166,317.759 89.862,286.295 82.158,253.319 L 94.254,253.319 C 103.614,287.879 117.582,320.423 138.318,336.046 L 118.014,336.046 z"
   style="fill:#808080" />
					<path
   id="path2742"
   d="M 170.068,336.046 C 162.726,314.446 178.996,301.63 192.244,305.95 C 205.851,310.487 200.956,310.054 205.637,312.862 C 202.828,296.518 199.589,278.95 203.477,261.67 C 198.725,259.078 194.116,256.342 189.725,253.318 L 204.052,253.318 C 204.628,253.606 205.132,253.966 205.708,254.254 C 205.852,253.966 205.924,253.606 206.068,253.318 L 259.923,253.318 C 259.779,255.766 259.779,258.213 259.995,260.59 C 263.811,257.998 267.699,255.55 271.659,253.318 L 290.45,253.318 C 280.3,256.846 270.579,262.102 261.291,268.438 C 261.362,268.582 261.362,268.726 261.435,269.014 C 266.908,288.958 285.484,305.373 304.564,322.655 C 305.429,317.903 302.405,316.678 311.763,312.071 C 320.618,307.534 357.123,316.319 375.843,336.046 L 352.228,336.046 C 344.236,330.719 335.379,328.487 330.7,331.079 C 328.9,332.087 327.82,333.814 327.388,336.046 L 215.355,336.046 C 210.675,332.159 205.923,329.063 201.748,327.335 C 191.451,322.942 187.06,327.335 189.076,336.046 L 170.068,336.046 L 170.068,336.046 z"
   style="fill:#808080" />
					<path
   id="path2744"
   d="M 414.436,336.046 C 436.468,323.878 431.5,304.439 431.86,264.406 C 431.86,260.879 432.005,257.207 432.149,253.391 L 439.348,253.319 C 439.133,257.639 438.989,261.815 438.989,265.775 C 438.556,303.072 443.381,323.087 429.27,336.046 L 414.436,336.046 L 414.436,336.046 z"
   style="fill:#808080" />
					<path
   id="path2746"
   d="M 315.292,253.319 C 316.084,259.223 316.516,265.631 316.876,272.615 C 312.052,273.623 308.309,278.447 308.309,284.063 C 308.309,290.399 313.061,295.584 318.893,295.584 C 324.725,295.584 329.477,290.399 329.477,284.063 C 329.477,279.743 327.317,275.999 324.149,274.415 C 324.004,266.927 323.645,259.871 322.997,253.247 L 315.292,253.319 z"
   style="fill:#808080" />
					<path
   id="path2748"
   d="M 366.7,253.319 C 367.06,253.391 367.42,253.463 367.78,253.535 C 370.084,257.711 373.468,261.526 377.212,264.983 C 380.956,268.655 384.772,271.535 389.74,274.055 C 394.708,276.719 399.82,277.511 402.34,275.423 C 405.004,273.262 405.58,268.295 403.924,261.454 C 403.204,258.791 402.196,256.055 400.901,253.319 L 393.34,253.319 C 395.212,257.351 395.356,261.238 393.268,263.255 C 390.172,266.063 383.62,263.903 378.508,258.502 C 376.996,256.847 375.772,255.047 374.908,253.319 L 366.7,253.319 L 366.7,253.319 z"
   style="fill:#808080" />
					<path
   id="path2750"
   d="M 147.246,352.103 C 141.27,351.311 135.798,349.656 130.83,346.703 C 126.222,343.968 121.974,340.367 118.014,336.047 L 138.318,336.047 C 138.894,336.48 139.398,336.912 139.974,337.272 C 149.478,344.04 161.358,346.344 174.676,346.489 C 173.092,343.321 171.58,340.224 170.428,337.128 C 170.284,336.769 170.14,336.409 170.069,336.048 L 189.077,336.048 C 189.436,337.489 189.94,339.001 190.661,340.657 C 192.245,344.329 194.692,348.288 197.645,352.104 L 178.061,352.104 C 177.772,351.672 177.485,351.312 177.268,350.879 C 173.885,351.384 170.5,351.816 167.26,352.104 L 147.246,352.104 L 147.246,352.103 z"
   style="fill:#808080" />
					<path
   id="path2752"
   d="M 230.98,352.103 C 226.587,346.271 221.043,340.583 215.355,336.046 L 327.388,336.046 C 326.667,340.151 328.324,345.983 331.635,352.103 L 230.98,352.103 z"
   style="fill:#808080" />
					<path
   id="path2754"
   d="M 366.34,352.103 C 365.332,349.656 363.893,347.135 361.947,344.759 C 359.139,341.303 355.756,338.351 352.228,336.046 L 375.843,336.046 C 376.78,336.983 377.644,337.991 378.435,338.999 C 379.875,340.87 381.099,342.671 382.251,344.471 C 392.331,343.751 401.547,341.95 409.611,338.351 C 411.339,337.63 412.923,336.839 414.434,336.046 L 429.268,336.046 C 425.811,339.215 421.274,341.95 415.299,344.399 C 406.227,348.143 396.002,349.727 384.842,350.231 C 385.059,350.878 385.274,351.455 385.418,352.103 L 366.34,352.103 L 366.34,352.103 z"
   style="fill:#808080" />
					<path
   id="path2756"
   d="M 183.82,360.311 C 181.732,357.576 179.788,354.839 178.06,352.103 L 197.644,352.103 C 199.875,354.912 202.324,357.719 205.06,360.311 L 183.82,360.311 L 183.82,360.311 z"
   style="fill:#808080" />
					<path
   id="path2758"
   d="M 236.309,360.311 C 234.87,357.647 233.069,354.839 230.981,352.103 L 331.636,352.103 C 332.932,354.479 334.516,356.999 336.317,359.374 C 336.532,359.663 336.821,360.022 337.036,360.311 L 236.309,360.311 z"
   style="fill:#808080" />
					<path
   id="path2760"
   d="M 368.068,360.383 C 367.996,357.719 367.492,354.911 366.339,352.103 L 385.419,352.103 C 386.211,354.839 386.644,357.576 386.716,360.311 L 368.068,360.383 z"
   style="fill:#808080" />
					<path
   id="path2762"
   d="M 147.246,352.103 C 153.438,352.967 160.134,352.824 167.26,352.103 L 147.246,352.103 z"
   style="fill:#808080" />
					<path
   id="path2764"
   d="M 141.198,443.255 C 144.006,429.935 148.038,417.191 154.23,405.671 C 162.294,390.407 174.531,377.735 188.717,366.071 C 186.988,364.126 185.332,362.255 183.821,360.31 L 205.061,360.31 C 210.172,365.206 215.932,369.598 221.981,372.622 C 235.661,379.534 243.508,374.927 236.957,361.534 C 236.741,361.102 236.524,360.743 236.31,360.31 L 337.037,360.31 C 345.533,371.47 355.254,376.942 362.166,372.766 C 365.91,370.534 368.142,365.854 368.07,360.382 L 386.718,360.31 C 386.718,361.534 386.718,362.686 386.646,363.911 C 404.213,367.007 420.629,371.903 434.958,380.831 C 452.021,391.415 465.918,406.968 479.094,423.888 C 481.615,422.015 484.639,421.222 487.591,421.583 C 490.326,422.087 492.918,423.454 495.294,427.415 C 495.654,427.847 496.014,428.567 496.303,429.286 C 496.446,428.134 496.446,426.766 496.518,425.255 C 498.462,425.903 500.334,426.335 502.206,426.911 C 504.078,427.415 506.021,427.847 507.822,428.35 C 507.822,432.957 507.822,437.35 507.39,441.813 C 508.757,442.102 510.053,442.534 511.421,442.823 C 511.997,442.968 512.501,443.11 513.077,443.255 L 491.117,443.255 C 490.253,437.927 487.59,433.896 484.205,433.823 C 480.821,433.751 477.797,437.71 476.718,443.255 L 470.741,443.255 C 471.028,440.735 471.461,438.286 472.036,435.984 C 459.868,417.263 447.053,400.127 430.421,388.535 C 417.317,379.392 401.765,374.135 385.276,370.968 C 382.253,381.481 374.692,390.336 366.917,395.375 C 351.868,405.311 334.948,394.367 321.269,369.527 C 313.566,373.992 305.213,379.175 295.349,380.904 C 302.62,398.183 314.933,413.808 328.685,429.072 C 333.293,429 338.478,429.935 343.373,431.375 C 348.413,432.959 352.589,434.615 357.269,437.711 C 359.933,439.295 362.093,441.24 363.461,443.256 L 349.421,443.256 C 348.125,440.088 343.806,437.135 338.261,435.912 C 331.062,434.328 324.437,436.199 323.501,440.305 C 323.285,441.241 323.358,442.248 323.789,443.256 L 310.9,443.256 C 310.683,442.248 310.683,441.24 310.755,440.231 C 311.043,437.352 312.627,434.616 315.148,432.672 C 302.691,416.256 291.603,399.408 285.555,381.336 C 279.795,380.4 273.531,378.527 267.051,376.512 C 277.564,403.871 258.267,413.016 228.963,397.104 C 215.139,389.543 203.259,380.76 193.61,371.256 C 180.291,382.631 168.987,395.231 162.005,410.207 C 157.253,420.432 154.301,431.592 152.429,443.256 L 141.198,443.256 L 141.198,443.255 z"
   style="fill:#808080" />
					<path
   id="path2766"
   d="M 139.758,450.743 C 140.19,448.222 140.694,445.702 141.197,443.255 L 152.429,443.255 C 152.069,445.775 151.709,448.222 151.421,450.743 L 139.758,450.743 z"
   style="fill:#808080" />
					<path
   id="path2768"
   d="M 316.012,450.743 C 315.364,450.239 314.86,449.735 314.358,449.229 C 312.34,446.999 311.333,445.125 310.901,443.254 L 323.789,443.254 C 325.085,446.422 329.333,449.373 334.948,450.67 C 335.093,450.67 335.165,450.742 335.309,450.742 L 316.012,450.742 L 316.012,450.743 z"
   style="fill:#808080" />
					<path
   id="path2770"
   d="M 344.092,450.743 C 347.044,449.95 349.204,448.366 349.708,446.206 C 349.924,445.27 349.852,444.263 349.42,443.255 L 363.46,443.255 C 364.54,444.911 365.115,446.567 364.828,448.151 C 364.683,449.012 364.324,449.878 363.676,450.743 L 344.092,450.743 z"
   style="fill:#808080" />
					<path
   id="path2772"
   d="M 470.451,450.743 C 470.38,448.222 470.451,445.702 470.74,443.255 L 476.717,443.255 C 476.5,444.478 476.356,445.702 476.284,447.071 C 476.212,448.366 476.212,449.591 476.355,450.813 L 470.451,450.743 z"
   style="fill:#808080" />
					<path
   id="path2774"
   d="M 491.044,450.743 C 491.26,449.735 491.332,448.655 491.404,447.575 C 491.476,446.063 491.332,444.622 491.116,443.255 L 513.076,443.255 C 514.443,443.614 515.812,443.976 517.107,444.335 C 517.107,446.495 517.107,448.583 517.035,450.743 L 510.771,450.743 C 510.125,449.304 508.251,447.862 505.875,447.216 C 502.347,446.206 499.251,447.142 498.603,449.087 C 498.531,449.663 498.603,450.167 498.82,450.743 L 491.044,450.743 z"
   style="fill:#808080" />
					<path
   id="path2776"
   d="M 129.894,466.8 C 132.054,465.286 134.79,464.638 137.598,465.142 C 138.246,460.32 138.967,455.496 139.759,450.744 L 151.423,450.744 C 150.775,456 150.343,461.4 149.983,466.801 L 129.894,466.801 L 129.894,466.8 z"
   style="fill:#808080" />
					<path
   id="path2778"
   d="M 473.332,466.8 C 473.187,466.511 473.116,466.294 473.044,466.007 C 471.316,460.607 470.74,456.071 470.451,450.743 L 476.355,450.813 C 477.003,456.43 479.812,460.678 483.339,460.823 C 486.939,460.966 490.034,456.647 491.043,450.743 L 498.819,450.743 C 499.466,452.327 501.339,453.766 503.858,454.415 C 507.387,455.278 510.483,454.487 510.987,452.542 C 511.131,451.966 511.059,451.319 510.77,450.743 L 517.034,450.743 C 516.891,453.046 516.819,455.35 516.602,457.655 C 517.899,458.087 519.338,458.374 520.706,458.807 C 522.506,459.309 524.449,459.813 526.25,460.246 C 526.25,462.476 526.25,464.637 526.25,466.799 L 520.13,466.799 C 519.483,465.285 517.611,463.846 515.162,463.197 C 511.562,462.261 508.394,463.125 507.818,465.14 C 507.673,465.716 507.818,466.292 508.033,466.798 L 502.273,466.798 C 502.921,464.421 503.353,462.044 503.786,459.886 C 502.994,462.189 502.13,464.493 501.123,466.798 L 473.332,466.798 L 473.332,466.8 z"
   style="fill:#808080" />
					<path
   id="path2780"
   d="M 316.012,450.743 C 319.54,453.552 325.301,456.071 331.276,457.079 C 338.62,458.374 346.684,458.159 353.524,456.358 C 358.493,454.989 361.948,452.975 363.676,450.743 L 344.092,450.743 C 341.572,451.391 338.477,451.462 335.309,450.743 L 316.012,450.743 z"
   style="fill:#808080" />
					<path
   id="path2782"
   d="M 115.854,482.71 C 116.574,481.989 117.294,481.198 118.014,480.478 C 119.454,478.966 120.894,477.671 122.19,476.304 C 123.414,478.103 124.71,479.976 126.006,481.847 C 125.43,479.759 125.214,477.958 125.286,476.304 C 125.358,471.552 126.942,469.247 129.102,467.374 C 129.39,467.159 129.606,466.942 129.894,466.8 L 149.982,466.8 C 149.838,468.527 149.766,470.255 149.694,471.984 C 152.573,475.08 155.238,478.679 157.542,482.711 L 150.846,482.711 C 146.958,477.096 141.342,474.287 137.958,476.305 C 136.23,477.455 135.438,479.832 135.582,482.711 L 115.854,482.711 L 115.854,482.71 z"
   style="fill:#808080" />
					<path
   id="path2784"
   d="M 496.876,482.71 C 498.893,478.03 500.548,473.351 501.844,468.599 C 501.989,468.023 502.132,467.374 502.276,466.8 L 508.036,466.8 C 508.757,468.31 510.629,469.751 513.149,470.4 C 516.604,471.336 519.701,470.472 520.205,468.384 C 520.349,467.878 520.276,467.304 520.133,466.8 L 526.253,466.8 C 526.181,469.103 526.036,471.407 525.749,473.638 C 527.117,473.999 528.485,474.359 529.925,474.79 C 531.654,475.151 533.669,475.726 535.541,476.229 C 535.541,478.391 535.541,480.551 535.469,482.709 L 529.277,482.709 C 528.63,481.27 526.757,479.83 524.238,479.182 C 520.853,478.102 517.685,478.965 517.109,481.125 C 516.965,481.629 517.037,482.205 517.254,482.709 L 511.422,482.709 C 511.926,480.334 512.502,478.029 512.934,475.869 C 512.214,478.174 511.35,480.476 510.342,482.709 L 496.876,482.709 L 496.876,482.71 z"
   style="fill:#808080" />
					<path
   id="path2786"
   d="M 473.332,466.8 C 474.988,471.767 477.939,475.583 481.035,475.87 C 481.973,476.013 482.764,475.87 483.771,475.511 C 483.339,476.304 482.835,477.095 482.404,477.958 C 484.347,478.534 486.363,478.896 488.164,479.472 C 490.035,479.976 491.98,480.478 493.852,480.911 C 496.516,476.304 499.036,471.622 501.125,466.8 L 473.332,466.8 L 473.332,466.8 z"
   style="fill:#808080" />
					<path
   id="path2788"
   d="M 115.782,487.751 C 115.135,486.671 114.558,485.663 113.982,484.583 C 114.558,484.007 115.206,483.358 115.854,482.71 L 135.582,482.71 C 135.654,484.294 136.014,485.95 136.734,487.751 L 115.782,487.751 z"
   style="fill:#808080" />
					<path
   id="path2790"
   d="M 153.582,487.751 C 153.078,486.454 152.358,485.087 151.566,483.79 C 151.35,483.431 151.134,483.071 150.846,482.71 L 157.542,482.71 C 157.83,483.216 158.046,483.648 158.334,484.151 C 158.982,485.374 159.557,486.526 160.134,487.751 L 153.582,487.751 z"
   style="fill:#808080" />
					<path
   id="path2792"
   d="M 494.645,487.751 C 495.436,486.095 496.229,484.366 496.876,482.71 L 510.34,482.71 C 509.619,484.439 508.828,486.095 508.035,487.751 L 494.645,487.751 z"
   style="fill:#808080" />
					<path
   id="path2794"
   d="M 510.052,487.751 C 510.412,486.671 510.7,485.519 510.989,484.439 C 511.133,483.863 511.276,483.287 511.421,482.71 L 517.253,482.71 C 517.901,484.222 519.773,485.663 522.293,486.31 C 525.749,487.248 528.917,486.384 529.421,484.294 C 529.566,483.79 529.493,483.216 529.276,482.71 L 535.468,482.71 C 535.397,484.366 535.324,486.095 535.18,487.751 L 510.052,487.751 z"
   style="fill:#808080" />
					<path
   id="path2796"
   d="M 114.558,502.438 C 115.638,501.286 116.862,499.989 118.014,498.766 C 119.094,497.903 120.102,496.893 121.038,496.03 C 119.166,493.294 117.366,490.559 115.782,487.751 L 136.734,487.751 C 137.238,489.118 137.886,490.487 138.75,491.855 C 142.638,498.119 148.758,501.359 152.286,499.199 C 155.094,497.4 155.454,492.719 153.582,487.752 L 160.134,487.752 C 161.717,491.135 162.941,494.52 163.804,498.623 C 164.092,499.918 164.308,501.217 164.379,502.439 L 132.341,502.439 C 133.205,500.638 133.277,498.984 132.269,497.976 C 130.829,496.392 127.661,497.328 125.069,499.917 C 124.277,500.71 123.629,501.575 123.197,502.438 L 114.558,502.438 L 114.558,502.438 z"
   style="fill:#808080" />
					<path
   id="path2798"
   d="M 504.508,502.438 C 506.668,497.686 508.613,492.717 510.052,487.75 L 535.18,487.75 C 534.821,492.717 534.1,497.613 532.876,502.438 L 519.628,502.438 C 519.844,501.79 519.988,501.071 520.204,500.422 C 520.996,497.399 521.644,494.373 522.221,491.781 C 520.996,495.453 519.485,498.982 517.756,502.437 L 504.508,502.437 L 504.508,502.438 z"
   style="fill:#808080" />
					<path
   id="path2800"
   d="M 494.645,487.751 C 493.708,489.767 492.701,491.782 491.692,493.8 C 493.493,494.374 495.508,494.95 497.309,495.454 C 499.18,496.03 501.268,496.392 502.997,496.893 C 504.797,493.87 506.452,490.846 508.036,487.75 L 494.645,487.75 L 494.645,487.751 z"
   style="fill:#808080" />
					<path
   id="path2802"
   d="M 114.486,520.87 C 115.638,519.718 116.718,518.495 118.014,517.27 C 119.094,516.262 120.102,515.254 121.038,514.247 C 118.518,510.647 116.142,506.903 113.982,503.013 C 114.198,502.8 114.342,502.656 114.558,502.439 L 123.198,502.439 C 122.333,504.24 122.262,505.966 123.269,506.976 C 124.71,508.488 127.878,507.622 130.397,505.175 C 131.262,504.31 131.91,503.374 132.342,502.439 L 164.38,502.439 C 164.668,506.255 163.805,509.638 161.79,511.08 C 160.638,511.943 158.982,512.447 156.894,512.23 C 158.19,513.095 159.414,513.888 160.638,514.751 C 159.342,516.19 157.83,517.56 156.606,518.927 C 155.958,519.575 155.31,520.222 154.662,520.87 L 148.686,520.87 C 143.142,517.559 137.958,513.888 133.278,509.854 C 135.006,511.799 137.094,514.102 139.182,516.262 C 140.766,517.846 142.422,519.358 144.15,520.869 L 132.414,520.869 C 133.278,519.07 133.35,517.414 132.27,516.332 C 130.83,514.822 127.662,515.686 125.07,518.277 C 124.278,519.07 123.63,520.006 123.198,520.869 L 114.486,520.869 L 114.486,520.87 z"
   style="fill:#808080" />
					<path
   id="path2804"
   d="M 512.5,520.942 C 515.38,514.893 517.756,508.774 519.628,502.438 L 532.876,502.438 C 532.732,502.87 532.66,503.303 532.516,503.735 C 530.932,509.637 528.628,515.327 525.821,520.87 L 512.5,520.942 z"
   style="fill:#808080" />
					<path
   id="path2806"
   d="M 504.508,502.438 C 503.356,504.958 502.132,507.334 500.908,509.782 C 502.851,510.358 504.723,510.862 506.523,511.366 C 508.396,511.8 510.339,512.374 512.211,512.878 C 514.155,509.495 516.026,506.038 517.755,502.439 L 504.508,502.439 L 504.508,502.438 z"
   style="fill:#808080" />
					<path
   id="path2808"
   d="M 114.486,539.304 C 115.638,538.152 116.79,536.855 118.014,535.63 C 119.094,534.694 120.102,533.687 121.038,532.821 C 118.446,529.151 116.142,525.333 113.982,521.374 C 114.126,521.229 114.27,521.013 114.486,520.87 L 123.198,520.87 C 122.333,522.671 122.262,524.397 123.269,525.405 C 124.71,526.917 127.878,526.126 130.397,523.606 C 131.262,522.743 131.982,521.805 132.414,520.87 L 144.15,520.87 C 149.262,525.333 154.806,529.366 160.71,533.11 C 159.198,534.551 157.83,535.989 156.606,537.358 C 155.886,538.006 155.238,538.655 154.589,539.303 L 148.758,539.303 C 143.214,535.989 137.958,532.319 133.278,528.213 C 135.006,530.158 137.022,532.461 139.254,534.693 C 140.838,536.277 142.493,537.861 144.15,539.302 L 132.342,539.302 C 133.206,537.501 133.278,535.773 132.27,534.765 C 130.83,533.253 127.662,534.117 125.07,536.708 C 124.278,537.573 123.63,538.437 123.198,539.302 L 114.486,539.302 L 114.486,539.304 z"
   style="fill:#808080" />
					<path
   id="path2810"
   d="M 148.686,520.87 C 149.91,521.591 151.134,522.309 152.43,523.03 C 153.15,522.309 153.942,521.591 154.662,520.87 L 148.686,520.87 z"
   style="fill:#808080" />
					<path
   id="path2812"
   d="M 512.5,520.942 C 511.708,522.526 510.916,524.11 510.052,525.694 C 512.069,526.27 513.94,526.774 515.813,527.35 C 517.684,527.709 519.701,528.286 521.428,528.717 C 523.012,526.125 524.451,523.533 525.821,520.869 L 512.5,520.942 z"
   style="fill:#808080" />
					<path
   id="path2814"
   d="M 114.486,539.304 C 114.342,539.447 114.126,539.663 113.982,539.806 C 118.518,548.015 123.774,555.648 130.182,562.126 C 136.662,568.606 144.15,573.575 152.43,578.327 C 153.798,576.888 155.166,575.591 156.606,574.151 C 157.83,572.782 159.198,571.342 160.71,569.975 C 152.862,564.934 145.589,559.461 139.182,553.055 C 137.094,550.895 135.006,548.735 133.278,546.647 C 139.038,551.686 145.446,555.934 152.43,559.823 C 153.798,558.671 155.238,557.159 156.606,555.718 C 157.83,554.351 159.342,552.984 160.638,551.542 C 154.878,547.8 149.262,543.839 144.15,539.304 L 132.342,539.304 C 131.909,540.167 131.262,541.103 130.397,541.968 C 127.878,544.415 124.71,545.351 123.269,543.767 C 122.262,542.831 122.333,541.103 123.198,539.304 L 114.486,539.304 z"
   style="fill:#808080" />
					<path
   id="path2816"
   d="M 148.758,539.304 C 149.982,540.023 151.206,540.743 152.43,541.392 C 153.15,540.744 153.869,540.023 154.589,539.304 L 148.758,539.304 z"
   style="fill:#808080" />
				</g>
				<g
   id="g2818">
					<path
   id="path2820"
   d="M 439.492,160.294 C 445.18,191.398 439.204,234.814 438.988,265.774 C 438.484,312.071 446.044,331.798 415.3,344.398 C 406.228,348.142 396.003,349.726 384.843,350.23 C 386.499,354.838 386.931,359.518 386.644,363.911 C 404.211,367.007 420.627,371.903 434.956,380.831 C 452.019,391.415 465.916,406.968 479.092,423.888 C 481.613,422.015 484.637,421.222 487.589,421.583 C 490.324,422.087 492.916,423.454 495.292,427.415 C 495.652,427.847 496.012,428.567 496.301,429.286 C 496.444,428.134 496.444,426.766 496.516,425.255 C 498.46,425.903 500.332,426.335 502.204,426.911 C 504.076,427.415 506.019,427.847 507.82,428.35 C 507.82,432.957 507.82,437.35 507.388,441.813 C 508.755,442.102 510.051,442.534 511.419,442.823 C 513.291,443.327 515.308,443.831 517.107,444.335 C 517.107,448.8 516.963,453.263 516.603,457.655 C 517.9,458.087 519.339,458.374 520.707,458.807 C 522.507,459.309 524.45,459.813 526.251,460.246 C 526.323,464.853 526.251,469.246 525.747,473.637 C 527.115,473.998 528.483,474.358 529.923,474.789 C 531.652,475.15 533.667,475.725 535.539,476.228 C 535.539,485.662 535.034,494.876 532.515,503.734 C 530.211,512.445 526.251,520.724 521.427,528.716 C 519.699,528.284 517.683,527.708 515.812,527.349 C 513.939,526.773 512.068,526.269 510.051,525.693 C 514.371,517.558 517.827,509.132 520.203,500.422 C 520.995,497.399 521.643,494.373 522.22,491.781 C 519.699,499.125 516.101,506.109 512.211,512.877 C 510.339,512.373 508.396,511.799 506.523,511.365 C 504.723,510.861 502.851,510.357 500.908,509.781 C 505.156,501.646 508.756,493.15 510.988,484.437 C 511.708,481.486 512.355,478.533 512.931,475.869 C 510.627,483.14 507.027,490.055 502.995,496.892 C 501.266,496.39 499.179,496.029 497.307,495.453 C 495.506,494.949 493.491,494.373 491.69,493.799 C 495.938,485.59 499.466,477.166 501.842,468.598 C 502.635,465.575 503.282,462.621 503.786,459.887 C 501.338,467.158 497.81,474.141 493.849,480.91 C 491.978,480.476 490.033,479.974 488.161,479.471 C 486.36,478.895 484.345,478.533 482.401,477.957 C 482.833,477.094 483.337,476.303 483.768,475.51 C 482.76,475.869 481.969,476.012 481.032,475.869 C 477.793,475.582 474.697,471.334 473.041,466.006 C 471.313,460.606 470.737,456.07 470.448,450.742 C 470.305,445.701 470.882,440.517 472.032,435.982 C 459.864,417.261 447.049,400.125 430.417,388.533 C 417.313,379.39 401.761,374.133 385.272,370.966 C 382.249,381.479 374.688,390.334 366.913,395.373 C 351.864,405.309 334.944,394.365 321.265,369.525 C 313.562,373.99 305.209,379.173 295.345,380.902 C 302.616,398.181 314.929,413.806 328.681,429.07 C 333.289,428.998 338.474,429.933 343.369,431.373 C 348.409,432.957 352.585,434.613 357.265,437.709 C 362.161,440.662 365.402,444.693 364.826,448.15 C 364.322,451.39 360.361,454.486 353.521,456.357 C 346.681,458.158 338.617,458.373 331.273,457.078 C 324.218,455.853 317.521,452.685 314.355,449.228 C 311.185,445.773 310.465,443.037 310.753,440.228 C 311.041,437.349 312.625,434.613 315.146,432.669 C 302.689,416.253 291.601,399.405 285.553,381.333 C 279.793,380.397 273.529,378.524 267.049,376.509 C 277.562,403.868 258.265,413.013 228.961,397.101 C 215.137,389.54 203.257,380.757 193.608,371.253 C 180.289,382.628 168.985,395.228 162.003,410.204 C 153.506,428.565 150.771,449.806 149.691,471.981 C 152.931,475.436 155.883,479.54 158.331,484.149 C 160.779,488.684 162.651,493.077 163.802,498.62 C 165.097,503.948 164.448,509.204 161.787,511.077 C 160.635,511.94 158.979,512.444 156.891,512.227 C 158.187,513.092 159.411,513.885 160.635,514.748 C 159.339,516.187 157.827,517.557 156.603,518.924 C 155.235,520.291 153.795,521.733 152.427,523.028 C 145.443,519.139 139.035,514.821 133.275,509.852 C 135.003,511.797 137.091,514.1 139.179,516.26 C 145.586,522.596 152.859,528.139 160.707,533.108 C 159.195,534.549 157.827,535.987 156.603,537.356 C 155.163,538.653 153.795,540.092 152.427,541.389 C 145.443,537.573 138.963,533.18 133.275,528.211 C 135.003,530.156 137.019,532.459 139.251,534.691 C 145.586,541.099 152.931,546.572 160.635,551.539 C 159.339,552.98 157.827,554.348 156.603,555.715 C 155.235,557.156 153.795,558.668 152.427,559.82 C 145.443,555.931 139.035,551.683 133.275,546.644 C 135.003,548.732 137.091,550.892 139.179,553.052 C 145.586,559.458 152.859,564.931 160.707,569.972 C 159.195,571.339 157.827,572.779 156.603,574.148 C 155.163,575.587 153.795,576.884 152.427,578.324 C 144.147,573.572 136.659,568.603 130.179,562.123 C 123.771,555.644 118.515,548.012 113.979,539.803 C 115.275,538.508 116.643,536.996 118.011,535.627 C 119.091,534.691 120.099,533.684 121.035,532.818 C 118.443,529.148 116.139,525.33 113.979,521.371 C 115.275,520.076 116.571,518.635 118.011,517.267 C 119.091,516.259 120.099,515.251 121.035,514.244 C 118.515,510.644 116.139,506.9 113.979,503.01 C 115.275,501.715 116.643,500.203 118.011,498.764 C 119.091,497.901 120.099,496.891 121.035,496.028 C 118.443,492.284 116.139,488.54 113.979,484.581 C 115.275,483.284 116.643,481.845 118.011,480.476 C 119.451,478.964 120.891,477.669 122.187,476.302 C 123.411,478.101 124.707,479.974 126.003,481.845 C 125.427,479.757 125.211,477.956 125.283,476.302 C 125.355,471.55 126.939,469.245 129.099,467.372 C 131.403,465.499 134.427,464.565 137.595,465.14 C 140.331,443.829 144.723,423.382 154.227,405.669 C 162.291,390.405 174.528,377.733 188.714,366.069 C 184.177,361.1 180.433,355.989 177.265,350.876 C 159.052,353.612 143.211,354.044 130.827,346.7 C 87.987,321.429 73.586,219.475 68.691,164.252 C 67.683,153.092 67.899,143.444 69.123,135.092 C 63.867,124.868 58.971,110.18 52.635,98.156 C 46.374,86.495 39.822,81.311 33.27,76.126 C 26.718,70.87 25.998,64.39 23.19,51.718 C 21.606,43.942 19.086,34.582 17.214,24.574 C 15.558,15.07 13.758,5.278 18.077,2.038 C 22.541,-1.058 31.541,3.91 39.822,8.734 C 48.75,13.846 56.814,19.462 63.51,23.998 C 74.239,31.126 79.782,37.462 81.222,45.094 C 82.805,53.23 85.182,60.862 88.926,67.558 C 94.47,73.318 101.31,77.782 108.582,82.102 C 113.478,84.982 118.158,88.078 122.262,91.462 C 125.07,91.39 127.949,91.39 130.974,91.534 C 163.589,93.262 201.964,127.894 243.292,147.694 C 243.725,146.757 244.156,145.462 244.66,144.166 C 254.668,120.118 281.596,95.566 304.996,107.734 C 324.796,118.102 332.357,137.326 326.308,156.19 C 354.171,147.622 377.499,130.126 396.652,124.294 C 400.035,121.486 403.923,118.894 408.027,116.518 C 413.859,113.134 419.332,109.39 423.867,104.71 C 426.82,99.453 428.763,93.262 430.06,86.71 C 431.211,80.518 435.748,75.334 444.316,69.646 C 449.716,65.974 456.197,61.438 463.467,57.406 C 470.163,53.446 477.291,49.486 480.892,52.078 C 484.492,54.525 482.98,62.59 481.613,70.078 C 480.173,78.214 478.156,85.774 476.717,91.966 C 474.628,102.334 474.052,107.446 468.796,111.695 C 463.468,115.799 458.068,120.047 453.244,129.478 C 447.916,139.486 443.812,151.655 439.492,160.294 z"
   style="fill:none;stroke:#000000;stroke-width:2.15899992" />
					<path
   id="path2822"
   d="M 417.676,124.294 C 418.54,124.87 419.548,125.302 420.412,125.806 C 425.308,128.83 429.197,133.222 432.221,138.622 C 435.244,134.158 438.412,129.477 441.508,124.798 C 446.404,117.742 451.012,110.83 455.692,104.206 C 455.837,99.814 455.909,95.638 453.893,94.414 C 451.444,93.046 447.556,95.278 443.309,97.294 C 438.27,103.414 432.508,109.318 426.604,115.078 C 423.58,118.103 420.556,121.199 417.676,124.294 z"
   style="fill:none;stroke:#000000;stroke-width:2.15899992" />
					<path
   id="path2824"
   d="M 99.726,95.062 C 95.19,90.166 90.366,85.198 85.542,80.446 C 78.198,73.174 71.142,65.902 64.95,58.27 C 59.622,55.822 54.654,53.086 51.701,54.67 C 49.181,56.182 49.181,61.366 49.613,66.766 C 55.229,75.118 61.061,83.686 66.966,92.47 C 70.998,98.302 74.958,104.206 78.918,110.038 C 84.102,102.911 91.086,98.086 99.726,95.062 z"
   style="fill:none;stroke:#000000;stroke-width:2.15899992" />
					<path
   id="path2826"
   d="M 125.07,499.917 C 122.622,502.366 121.758,505.534 123.269,506.976 C 124.71,508.488 127.878,507.622 130.397,505.175 C 132.918,502.583 133.782,499.487 132.27,497.976 C 130.83,496.392 127.662,497.327 125.07,499.917 z"
   style="fill:none;stroke:#000000;stroke-width:2.15899992" />
					<path
   id="path2828"
   d="M 125.07,518.278 C 122.622,520.725 121.758,523.893 123.269,525.405 C 124.71,526.917 127.878,526.126 130.397,523.606 C 132.99,521.012 133.854,517.917 132.27,516.333 C 130.83,514.823 127.662,515.687 125.07,518.278 z"
   style="fill:none;stroke:#000000;stroke-width:2.15899992" />
					<path
   id="path2830"
   d="M 125.07,536.71 C 122.622,539.23 121.758,542.327 123.269,543.767 C 124.71,545.351 127.878,544.415 130.397,541.968 C 132.918,539.374 133.782,536.279 132.27,534.767 C 130.83,533.255 127.662,534.118 125.07,536.71 z"
   style="fill:none;stroke:#000000;stroke-width:2.15899992" />
					<path
   id="path2832"
   d="M 302.188,138.046 C 291.245,131.711 274.901,137.542 268.132,151.582 C 261.149,165.622 265.684,182.254 275.619,187.006 C 285.556,191.902 297.363,181.39 305.14,168.718 C 312.988,156.119 313.132,144.599 302.188,138.046 z"
   style="fill:none;stroke:#000000;stroke-width:2.15899992" />
					<path
   id="path2834"
   d="M 330.7,331.079 C 324.076,334.823 327.531,347.566 336.316,359.374 C 345.027,371.183 355.035,377.087 362.164,372.767 C 369.148,368.519 370.947,355.919 361.947,344.759 C 352.876,333.599 337.468,327.335 330.7,331.079 z"
   style="fill:none;stroke:#000000;stroke-width:2.15899992" />
					<path
   id="path2836"
   d="M 201.748,327.335 C 189.725,322.223 185.764,329.063 190.66,340.655 C 195.7,352.175 208.372,365.71 221.98,372.622 C 235.66,379.534 243.507,374.927 236.956,361.534 C 230.26,348.143 213.628,332.303 201.748,327.335 z"
   style="fill:none;stroke:#000000;stroke-width:2.15899992" />
					<path
   id="path2838"
   d="M 374.836,243.454 C 371.813,246.262 373.468,253.031 378.508,258.502 C 383.619,263.903 390.172,266.063 393.268,263.255 C 396.292,260.303 394.708,253.535 389.741,248.063 C 384.628,242.663 377.932,240.501 374.836,243.454 z"
   style="fill:none;stroke:#000000;stroke-width:2.15899992" />
					<path
   id="path2840"
   d="M 137.598,173.831 C 141.557,175.055 146.598,170.375 148.759,163.103 C 150.919,156.119 149.479,149.351 145.447,148.055 C 141.487,146.831 136.447,151.583 134.143,158.711 C 132.126,165.838 133.638,172.535 137.598,173.831 z"
   style="fill:none;stroke:#000000;stroke-width:2.15899992" />
					<path
   id="path2842"
   d="M 323.5,440.304 C 322.492,444.335 327.604,449.013 334.947,450.671 C 342.004,452.327 348.7,450.31 349.708,446.206 C 350.717,442.175 345.531,437.495 338.26,435.911 C 331.061,434.327 324.436,436.198 323.5,440.304 z"
   style="fill:none;stroke:#000000;stroke-width:2.15899992" />
					<path
   id="path2844"
   d="M 137.958,476.304 C 134.502,478.607 134.79,485.519 138.75,491.855 C 142.638,498.119 148.758,501.359 152.286,499.199 C 155.887,496.894 155.454,489.984 151.566,483.791 C 147.678,477.454 141.557,474.142 137.958,476.304 z"
   style="fill:none;stroke:#000000;stroke-width:2.15899992" />
					<path
   id="path2846"
   d="M 484.204,433.823 C 480.101,433.751 476.5,439.655 476.284,447.071 C 475.851,454.415 479.092,460.606 483.34,460.823 C 487.589,460.966 491.044,455.063 491.404,447.575 C 491.619,440.229 488.451,433.896 484.204,433.823 z"
   style="fill:none;stroke:#000000;stroke-width:2.15899992" />
					<path
   id="path2848"
   d="M 505.876,447.216 C 502.348,446.206 499.252,447.142 498.604,449.087 C 498.245,451.175 500.405,453.552 503.86,454.415 C 507.389,455.278 510.485,454.487 510.989,452.542 C 511.564,450.526 509.188,448.151 505.876,447.216 z"
   style="fill:none;stroke:#000000;stroke-width:2.15899992" />
					<path
   id="path2850"
   d="M 515.164,463.198 C 511.564,462.262 508.396,463.126 507.82,465.141 C 507.388,467.159 509.691,469.461 513.148,470.399 C 516.603,471.335 519.7,470.471 520.204,468.383 C 520.78,466.438 518.477,464.063 515.164,463.198 z"
   style="fill:none;stroke:#000000;stroke-width:2.15899992" />
					<path
   id="path2852"
   d="M 524.236,479.183 C 520.851,478.103 517.683,478.966 517.107,481.126 C 516.603,483.142 518.908,485.446 522.292,486.31 C 525.748,487.248 528.916,486.384 529.42,484.294 C 529.996,482.423 527.691,480.046 524.236,479.183 z"
   style="fill:none;stroke:#000000;stroke-width:2.15899992" />
					<path
   id="path2854"
   d="M 241.492,152.519 C 204.7,134.951 169.708,108.239 140.117,105.215 C 98.861,101.183 74.742,116.951 79.349,167.207 C 84.029,217.463 99.653,309.046 139.973,337.271 C 149.477,344.039 161.357,346.343 174.675,346.488 C 173.091,343.32 171.579,340.223 170.427,337.127 C 162.149,314.879 178.78,301.56 192.243,305.951 C 205.85,310.488 200.955,310.055 205.636,312.863 C 202.827,296.519 199.588,278.951 203.476,261.671 C 191.379,255.118 180.435,247.415 171.435,237.839 C 165.531,231.286 160.206,224.231 155.597,216.599 C 152.43,220.991 149.765,225.31 147.534,229.631 C 148.686,231.43 149.406,233.807 149.406,236.255 C 149.406,242.663 144.582,247.847 138.822,247.847 C 132.99,247.847 128.31,242.663 128.31,236.255 C 128.31,229.847 132.99,224.663 138.822,224.663 C 139.254,224.663 139.759,224.735 140.19,224.735 C 143.214,219.478 146.742,214.079 151.062,208.823 C 147.102,201.119 143.358,193.055 140.046,184.775 C 137.022,186.071 133.926,186.071 131.333,184.919 C 128.598,183.623 126.582,181.679 125.286,177.286 C 123.918,172.823 124.494,165.334 126.942,158.639 C 129.461,151.655 133.638,144.743 138.75,139.703 C 143.718,134.807 148.398,132.719 151.494,134.015 C 154.589,135.239 156.39,140.135 156.822,145.679 C 156.967,151.295 156.39,155.975 155.239,161.015 C 154.014,166.055 152.286,170.807 149.983,174.839 C 152.863,183.767 155.887,192.406 159.415,200.687 C 167.261,194.063 176.837,187.943 187.638,181.679 C 187.566,181.247 187.566,180.671 187.566,180.095 C 187.566,173.759 192.246,168.575 198.078,168.575 C 203.838,168.575 208.734,173.759 208.734,180.095 C 208.734,186.575 203.838,191.831 198.078,191.831 C 195.126,191.831 192.533,190.463 190.59,188.375 C 179.719,194.855 170.358,201.191 162.944,208.175 C 167.118,216.743 172.087,224.663 177.774,231.575 C 185.624,240.719 194.983,247.991 205.711,254.255 C 212.767,233.951 229.256,214.871 246.967,195.43 C 236.812,185.135 235.012,171.743 241.492,152.519 z"
   style="fill:none;stroke:#000000;stroke-width:2.15899992" />
					<path
   id="path2856"
   d="M 382.252,344.471 C 392.332,343.751 401.548,341.95 409.612,338.351 C 437.187,326.399 431.5,307.103 431.859,264.406 C 432.22,221.711 442.947,156.406 414.652,137.687 C 394.78,124.511 364.324,153.959 322.996,164.039 C 322.637,164.759 322.204,165.623 321.7,166.415 C 308.74,188.519 287.717,202.991 272.74,207.599 C 265.828,226.175 258.7,244.103 259.996,260.591 C 273.531,251.447 287.5,244.319 302.548,240.863 C 305.717,239.999 308.956,239.423 312.268,238.919 C 310.54,233.087 308.164,227.831 305.43,223.151 C 305.43,223.151 305.43,223.151 305.358,223.151 C 299.524,223.151 294.918,217.895 294.918,211.487 C 294.918,205.079 299.524,199.823 305.358,199.823 C 311.188,199.823 316.012,205.079 316.012,211.487 C 316.012,214.439 314.932,217.247 313.061,219.406 C 316.084,224.951 318.749,231.143 320.477,238.055 C 334.733,236.975 349.348,238.127 364.18,240.071 C 364.613,236.759 366.124,234.238 368.5,232.511 C 370.876,230.855 373.612,229.991 378.221,231.071 C 382.684,232.079 388.733,236.255 393.34,241.799 C 398.164,247.415 402.124,254.615 403.924,261.454 C 405.58,268.295 405.004,273.262 402.34,275.423 C 399.82,277.511 394.708,276.719 389.74,274.055 C 384.771,271.535 380.956,268.655 377.212,264.983 C 373.468,261.526 370.084,257.711 367.78,253.535 C 352.301,250.223 336.964,247.847 322.275,247.847 C 323.5,255.983 323.931,264.839 324.148,274.415 C 327.316,275.999 329.476,279.743 329.476,284.063 C 329.476,290.399 324.724,295.584 318.892,295.584 C 313.06,295.584 308.308,290.399 308.308,284.063 C 308.308,278.447 312.051,273.623 316.875,272.615 C 316.442,263.615 315.795,255.623 314.499,248.423 C 311.259,248.495 308.019,248.927 304.851,249.43 C 289.372,252.238 274.9,259.151 261.291,268.439 C 261.362,268.583 261.362,268.727 261.435,269.015 C 266.908,288.959 285.484,305.374 304.564,322.656 C 305.429,317.904 302.405,316.679 311.763,312.072 C 321.051,307.32 360.724,317.183 378.435,339 C 379.876,340.87 381.1,342.671 382.252,344.471 z"
   style="fill:none;stroke:#000000;stroke-width:2.15899992" />
				</g>
			</g>
			<g
   id="g2858">
				<g
   id="g2860">
					<path
   id="path2862"
   d="M 37.014,85.63 C 34.639,83.399 32.19,81.526 29.814,79.582 C 23.19,74.398 22.47,67.774 19.806,55.174 C 18.077,47.47 15.558,38.038 13.759,28.03 C 12.175,18.526 10.303,8.734 14.695,5.494 C 19.159,2.47 28.015,7.294 36.367,12.19 C 45.295,17.231 53.431,22.918 59.983,27.526 C 70.783,34.582 76.399,40.846 77.839,48.478 C 79.351,56.758 81.727,64.39 85.471,71.014 C 91.014,76.774 97.855,81.31 105.127,85.63 L 83.814,85.63 C 83.238,84.982 82.662,84.406 82.086,83.83 C 74.742,76.702 67.686,69.358 61.494,61.726 C 56.095,59.278 51.198,56.542 48.318,58.198 C 45.798,59.638 45.798,64.894 46.086,70.15 C 49.47,75.262 52.998,80.446 56.526,85.629 L 37.014,85.629 L 37.014,85.63 z"
   style="fill:#e6e6e6" />
					<path
   id="path2864"
   d="M 428.115,85.63 C 430.275,81.31 434.451,77.422 440.931,73.102 C 446.331,69.501 452.74,64.966 460.083,60.79 C 466.636,56.902 473.907,53.014 477.362,55.534 C 480.963,58.054 479.522,65.974 478.155,73.606 C 477.362,77.782 476.499,81.814 475.635,85.629 L 428.115,85.629 L 428.115,85.63 z"
   style="fill:#e6e6e6" />
					<path
   id="path2866"
   d="M 53.502,110.831 C 52.134,107.663 50.622,104.639 49.11,101.687 C 45.222,94.271 41.118,89.447 37.014,85.631 L 56.526,85.631 C 58.83,89.015 61.206,92.4 63.51,95.855 C 66.894,100.967 70.278,105.863 73.662,110.831 L 53.502,110.831 L 53.502,110.831 z"
   style="fill:#e6e6e6" />
					<path
   id="path2868"
   d="M 77.478,110.831 C 82.446,105.143 88.782,101.111 96.342,98.591 C 92.309,94.199 88.134,89.879 83.814,85.631 L 105.126,85.631 C 110.094,88.367 114.702,91.463 118.806,94.991 C 121.614,94.919 124.566,94.919 127.589,95.063 C 141.126,95.783 155.742,102.191 171.076,110.831 L 147.75,110.831 C 143.934,109.823 140.262,109.103 136.662,108.743 C 124.278,107.519 113.478,108.095 104.478,110.831 L 77.478,110.831 z"
   style="fill:#e6e6e6" />
					<path
   id="path2870"
   d="M 275.188,110.831 C 283.468,107.303 292.325,106.727 300.749,110.759 L 275.188,110.831 z"
   style="fill:#e6e6e6" />
					<path
   id="path2872"
   d="M 417.604,110.831 C 418.613,109.967 419.548,109.103 420.413,108.167 C 423.436,102.911 425.309,96.719 426.604,90.167 C 426.893,88.583 427.397,87.071 428.116,85.631 L 475.637,85.631 C 474.772,89.159 473.981,92.471 473.332,95.495 C 471.748,102.623 471.027,107.231 469.012,110.831 L 449.932,110.831 C 450.724,109.751 451.444,108.671 452.164,107.591 C 452.38,103.271 452.451,99.024 450.363,97.944 C 447.988,96.503 444.101,98.808 439.781,100.68 C 436.972,104.208 433.947,107.52 430.781,110.832 L 417.604,110.832 L 417.604,110.831 z"
   style="fill:#e6e6e6" />
					<path
   id="path2874"
   d="M 57.39,119.831 C 56.166,116.879 54.87,113.783 53.502,110.831 L 73.662,110.831 C 74.238,111.695 74.814,112.631 75.39,113.495 C 76.038,112.559 76.759,111.695 77.478,110.831 L 104.478,110.831 C 98.214,112.703 92.886,115.655 88.494,119.831 L 57.39,119.831 z"
   style="fill:#e6e6e6" />
					<path
   id="path2876"
   d="M 170.859,119.831 C 162.869,116.015 155.166,112.847 147.75,110.831 L 171.076,110.831 C 176.044,113.639 181.084,116.663 186.267,119.831 L 170.859,119.831 z"
   style="fill:#e6e6e6" />
					<path
   id="path2878"
   d="M 261.221,119.831 C 265.612,116.015 270.292,112.919 275.188,110.831 L 300.749,110.759 C 301.036,110.904 301.253,111.047 301.541,111.191 C 306.149,113.639 310.108,116.519 313.421,119.831 L 261.221,119.831 z"
   style="fill:#e6e6e6" />
					<path
   id="path2880"
   d="M 404.932,119.831 C 409.468,117.095 413.86,114.143 417.604,110.831 L 430.782,110.831 C 428.333,113.423 425.741,116.015 423.077,118.607 C 422.645,119.039 422.213,119.471 421.852,119.831 L 404.932,119.831 z"
   style="fill:#e6e6e6" />
					<path
   id="path2882"
   d="M 443.74,119.831 C 445.828,116.807 447.916,113.783 449.931,110.831 L 469.011,110.831 C 468.075,112.415 466.923,113.783 465.339,115.079 C 463.467,116.591 461.595,118.103 459.723,119.831 L 443.74,119.831 z"
   style="fill:#e6e6e6" />
					<path
   id="path2884"
   d="M 65.526,139.991 C 65.598,139.559 65.67,139.055 65.742,138.623 C 62.934,133.223 60.27,126.599 57.39,119.831 L 88.494,119.831 C 83.31,124.799 79.566,131.423 77.406,140.063 L 65.526,139.991 z"
   style="fill:#e6e6e6" />
					<path
   id="path2886"
   d="M 138.894,140.062 C 142.493,137.47 145.734,136.534 148.038,137.542 C 149.118,137.974 150.054,138.838 150.774,140.062 L 138.894,140.062 z"
   style="fill:#e6e6e6" />
					<path
   id="path2888"
   d="M 208.012,140.062 C 195.197,132.79 182.741,125.59 170.86,119.83 L 186.268,119.83 C 196.924,126.381 207.94,133.51 219.172,140.062 L 208.012,140.062 z"
   style="fill:#e6e6e6" />
					<path
   id="path2890"
   d="M 244.876,140.062 C 249.052,132.574 254.74,125.446 261.221,119.83 L 313.42,119.83 C 319.18,125.662 322.78,132.574 324.221,140.062 L 295.492,139.99 C 291.172,138.477 286.275,138.622 281.596,140.062 L 244.876,140.062 z"
   style="fill:#e6e6e6" />
					<path
   id="path2892"
   d="M 366.196,140.062 C 375.988,134.878 384.916,130.27 393.124,127.75 C 396.652,124.942 400.468,122.422 404.572,120.046 C 404.717,119.974 404.788,119.902 404.931,119.83 L 421.851,119.83 C 419.259,122.422 416.667,125.086 414.22,127.75 C 415.156,128.326 416.019,128.758 416.884,129.334 C 421.203,131.998 424.732,135.598 427.539,140.062 L 409.323,140.062 C 402.915,136.75 395.571,137.398 387.219,140.062 L 366.196,140.062 L 366.196,140.062 z"
   style="fill:#e6e6e6" />
					<path
   id="path2894"
   d="M 430.133,140.062 C 432.725,136.246 435.389,132.286 438.052,128.182 C 439.996,125.374 441.867,122.638 443.74,119.83 L 459.723,119.83 C 456.267,122.998 452.884,126.886 449.716,133.006 C 448.491,135.31 447.411,137.686 446.331,140.062 L 430.133,140.062 z"
   style="fill:#e6e6e6" />
					<path
   id="path2896"
   d="M 65.022,165.263 C 64.302,155.831 64.446,147.406 65.526,139.991 L 77.406,140.063 C 75.606,147.119 74.958,155.471 75.461,165.334 L 65.022,165.263 z"
   style="fill:#e6e6e6" />
					<path
   id="path2898"
   d="M 122.406,165.333 C 122.694,164.254 123.054,163.174 123.414,162.094 C 126.006,155.11 130.182,148.198 135.294,143.158 C 136.518,141.934 137.742,140.854 138.894,140.062 L 150.774,140.062 C 152.214,142.294 153.078,145.606 153.294,149.206 C 153.509,154.75 152.934,159.357 151.71,164.47 C 151.638,164.758 151.566,165.046 151.494,165.333 L 145.662,165.333 C 147.318,158.71 145.806,152.806 142.062,151.582 C 137.958,150.214 132.99,154.966 130.757,162.238 C 130.47,163.318 130.182,164.326 130.038,165.333 L 122.406,165.333 z"
   style="fill:#e6e6e6" />
					<path
   id="path2900"
   d="M 235.443,165.406 C 236.091,162.454 236.956,159.287 238.035,156.047 C 227.885,151.223 217.805,145.608 208.012,140.063 L 219.172,140.063 C 226.012,144.023 232.924,147.767 239.908,151.151 C 240.196,150.143 240.7,148.847 241.204,147.623 C 242.284,145.103 243.508,142.583 244.876,140.063 L 281.596,140.063 C 274.756,142.223 268.276,147.406 264.604,154.967 C 262.948,158.351 261.94,161.879 261.508,165.334 L 235.443,165.406 z"
   style="fill:#e6e6e6" />
					<path
   id="path2902"
   d="M 305.284,165.333 C 309.244,155.398 307.732,146.83 298.732,141.501 C 297.724,140.926 296.644,140.422 295.492,139.99 L 324.221,140.062 C 325.372,146.398 324.94,153.094 322.852,159.718 C 338.764,154.75 353.164,146.974 366.197,140.062 L 387.221,140.062 C 371.092,145.246 351.221,158.062 327.389,165.333 L 305.284,165.333 L 305.284,165.333 z"
   style="fill:#e6e6e6" />
					<path
   id="path2904"
   d="M 426.604,165.263 C 423.725,154.751 418.901,146.255 411.197,141.143 C 410.549,140.711 409.973,140.351 409.325,140.063 L 427.541,140.063 C 427.974,140.711 428.405,141.358 428.765,142.079 C 429.199,141.43 429.702,140.711 430.134,140.063 L 446.333,140.063 C 442.59,148.343 439.349,157.055 435.965,163.751 C 436.036,164.255 436.181,164.759 436.253,165.263 L 426.604,165.263 L 426.604,165.263 z"
   style="fill:#e6e6e6" />
					<path
   id="path2906"
   d="M 78.774,256.847 C 71.358,225.023 67.398,191.903 65.238,167.639 C 65.166,166.847 65.093,166.055 65.022,165.263 L 75.461,165.334 C 75.606,167.063 75.75,168.863 75.894,170.663 C 78.054,193.991 82.518,226.175 90.797,256.847 L 78.774,256.847 z"
   style="fill:#e6e6e6" />
					<path
   id="path2908"
   d="M 186.34,256.847 C 179.572,252.238 173.38,247.127 167.908,241.223 C 162.077,234.815 156.822,227.759 152.142,220.055 C 148.974,224.375 146.31,228.767 144.006,233.087 C 145.23,234.887 145.95,237.262 145.95,239.711 C 145.95,246.118 141.054,251.231 135.366,251.231 C 129.534,251.231 124.782,246.118 124.782,239.711 C 124.782,233.375 129.534,228.047 135.366,228.047 C 135.798,228.047 136.302,228.119 136.734,228.119 C 139.758,222.935 143.286,217.463 147.678,212.279 C 143.718,204.502 139.974,196.583 136.518,188.231 C 133.494,189.526 130.397,189.526 127.806,188.375 C 125.214,187.007 123.198,185.135 121.759,180.671 C 120.607,176.927 120.822,171.023 122.406,165.334 L 130.038,165.334 C 129.102,171.167 130.757,176.279 134.07,177.358 C 138.102,178.511 143.142,173.759 145.301,166.631 C 145.446,166.199 145.589,165.767 145.662,165.334 L 151.494,165.334 C 150.414,170.015 148.759,174.551 146.454,178.295 C 149.406,187.295 152.43,195.935 155.958,204.214 C 163.805,197.447 173.38,191.327 184.18,185.135 C 184.108,184.703 184.108,184.199 184.108,183.623 C 184.108,177.286 188.86,172.031 194.548,172.031 C 200.38,172.031 205.204,177.286 205.204,183.623 C 205.204,189.959 200.38,195.286 194.548,195.286 C 191.596,195.286 189.004,193.847 187.132,191.831 C 176.26,198.238 166.901,204.647 159.485,211.703 C 163.733,220.271 168.629,228.047 174.389,234.959 C 181.733,243.671 190.516,250.799 200.524,256.847 L 186.34,256.847 L 186.34,256.847 z"
   style="fill:#e6e6e6" />
					<path
   id="path2910"
   d="M 202.54,256.847 C 209.885,236.759 226.012,218.039 243.508,198.887 C 235.012,190.319 232.42,179.663 235.444,165.406 L 261.508,165.334 C 260.212,176.351 264.676,186.863 272.237,190.535 C 282.1,195.358 293.837,184.919 301.757,172.247 C 303.197,169.871 304.349,167.567 305.285,165.334 L 327.389,165.334 C 324.796,166.127 322.204,166.847 319.54,167.495 C 319.18,168.215 318.748,169.151 318.172,169.943 C 305.212,191.975 284.332,206.519 269.284,211.127 C 263.38,226.967 257.26,242.375 256.396,256.847 L 202.54,256.847 z"
   style="fill:#e6e6e6" />
					<path
   id="path2912"
   d="M 267.988,256.847 C 277.924,251.159 288.22,246.839 299.092,244.247 C 302.26,243.454 305.5,242.879 308.813,242.375 C 307.012,236.543 304.709,231.214 301.973,226.607 C 301.973,226.607 301.973,226.607 301.901,226.607 C 296.069,226.607 291.389,221.279 291.389,214.943 C 291.389,208.607 296.069,203.279 301.901,203.279 C 307.661,203.279 312.556,208.607 312.556,214.943 C 312.556,217.967 311.406,220.631 309.676,222.863 C 312.628,228.478 315.292,234.671 316.947,241.583 C 331.204,240.43 345.892,241.655 360.724,243.526 C 361.083,240.286 362.595,237.767 364.972,235.967 C 367.347,234.238 370.083,233.447 374.763,234.599 C 379.228,235.535 385.347,239.711 389.884,245.327 C 392.835,248.783 395.427,252.743 397.443,256.847 L 389.884,256.847 C 389.019,255.047 387.795,253.247 386.211,251.591 C 381.099,246.118 374.476,244.031 371.379,246.911 C 369.291,248.855 369.435,252.815 371.45,256.847 L 363.315,256.847 C 348.123,253.607 333.219,251.231 318.819,251.231 C 319.106,253.031 319.323,254.903 319.466,256.847 L 311.834,256.847 C 311.617,255.118 311.403,253.463 311.113,251.807 C 307.874,251.879 304.49,252.382 301.322,252.959 C 296.355,253.823 291.386,255.118 286.562,256.847 L 267.988,256.847 z"
   style="fill:#e6e6e6" />
					<path
   id="path2914"
   d="M 428.691,256.918 C 429.771,227.11 433.588,190.39 426.603,165.262 L 436.251,165.262 C 440.858,192.333 437.114,227.974 435.892,256.846 L 428.691,256.918 z"
   style="fill:#e6e6e6" />
					<path
   id="path2916"
   d="M 114.558,339.646 C 97.782,321.286 86.406,289.822 78.774,256.846 L 90.797,256.846 C 100.086,291.407 114.198,324.022 134.934,339.646 L 114.558,339.646 z"
   style="fill:#e6e6e6" />
					<path
   id="path2918"
   d="M 166.611,339.575 C 159.197,317.974 175.467,305.159 188.859,309.478 C 202.467,313.942 197.5,313.51 202.107,316.39 C 199.443,299.903 196.131,282.334 200.091,265.198 C 195.267,262.606 190.732,259.798 186.339,256.846 L 200.523,256.846 C 201.101,257.134 201.603,257.494 202.179,257.782 C 202.324,257.494 202.396,257.134 202.539,256.846 L 256.395,256.846 C 256.323,259.294 256.323,261.67 256.466,264.046 C 260.282,261.453 264.098,259.006 267.987,256.846 L 286.563,256.846 C 276.626,260.374 266.979,265.558 257.762,271.822 C 257.907,272.11 257.907,272.254 257.979,272.398 C 263.378,292.342 282.026,308.903 301.178,326.038 C 301.971,321.358 298.946,320.206 308.235,315.454 C 317.09,310.991 353.667,319.702 372.315,339.575 L 348.915,339.575 C 340.923,334.175 331.995,331.942 327.315,334.534 C 325.442,335.614 324.362,337.343 323.93,339.575 L 211.973,339.575 C 207.221,335.686 202.468,332.591 198.221,330.79 C 187.996,326.471 183.532,330.935 185.621,339.575 L 166.611,339.575 z"
   style="fill:#e6e6e6" />
					<path
   id="path2920"
   d="M 410.764,339.575 C 433.012,327.335 428.044,307.967 428.405,267.863 C 428.405,264.334 428.549,260.663 428.692,256.919 L 435.893,256.847 C 435.676,261.166 435.604,265.271 435.532,269.231 C 435.174,306.527 440.069,326.615 425.741,339.576 L 410.764,339.576 L 410.764,339.575 z"
   style="fill:#e6e6e6" />
					<path
   id="path2922"
   d="M 311.836,256.847 C 312.628,262.751 313.132,269.087 313.492,276.07 C 308.668,277.079 304.924,281.831 304.924,287.591 C 304.924,293.855 309.676,299.111 315.436,299.111 C 321.197,299.111 326.02,293.855 326.02,287.591 C 326.02,283.127 323.789,279.454 320.62,277.871 C 320.477,270.526 320.188,263.399 319.469,256.847 L 311.836,256.847 L 311.836,256.847 z"
   style="fill:#e6e6e6" />
					<path
   id="path2924"
   d="M 363.316,256.847 C 363.603,256.919 363.963,256.991 364.252,257.063 C 366.628,261.094 370.012,264.911 373.756,268.511 C 377.5,272.183 381.317,274.919 386.212,277.511 C 391.252,280.175 396.292,280.967 398.956,278.951 C 401.548,276.719 402.196,271.679 400.468,264.839 C 399.748,262.175 398.74,259.511 397.444,256.847 L 389.885,256.847 C 391.828,260.807 391.973,264.695 389.813,266.711 C 386.717,269.519 380.165,267.286 374.981,261.887 C 373.468,260.303 372.317,258.575 371.452,256.847 L 363.316,256.847 L 363.316,256.847 z"
   style="fill:#e6e6e6" />
					<path
   id="path2926"
   d="M 143.79,355.63 C 137.814,354.839 132.27,353.11 127.302,350.231 C 122.766,347.496 118.518,343.967 114.558,339.647 L 134.934,339.647 C 135.438,340.007 135.942,340.367 136.446,340.727 C 146.022,347.496 157.83,349.727 171.292,350.015 C 169.637,346.703 168.196,343.607 166.973,340.511 C 166.828,340.223 166.756,339.863 166.612,339.575 L 185.622,339.575 C 185.981,340.942 186.485,342.526 187.205,344.11 C 188.789,347.854 191.237,351.814 194.261,355.63 L 174.607,355.63 C 174.318,355.198 174.101,354.767 173.814,354.335 C 170.429,354.839 167.045,355.271 163.806,355.63 L 143.79,355.63 z"
   style="fill:#e6e6e6" />
					<path
   id="path2928"
   d="M 227.523,355.63 C 223.204,349.87 217.66,344.183 211.972,339.575 L 323.931,339.575 C 323.211,343.751 324.939,349.511 328.251,355.63 L 227.523,355.63 z"
   style="fill:#e6e6e6" />
					<path
   id="path2930"
   d="M 362.956,355.63 C 361.947,353.183 360.508,350.663 358.564,348.215 C 355.755,344.831 352.443,341.95 348.916,339.575 L 372.316,339.575 C 373.252,340.511 374.115,341.518 374.908,342.526 C 376.42,344.255 377.717,346.054 378.724,347.926 C 388.947,347.205 398.091,345.406 406.083,341.877 C 407.739,341.158 409.323,340.365 410.763,339.574 L 425.74,339.574 C 422.355,342.742 417.82,345.406 411.844,347.853 C 402.844,351.597 392.477,353.253 381.46,353.613 C 381.676,354.261 381.893,354.981 382.107,355.629 L 362.956,355.629 L 362.956,355.63 z"
   style="fill:#e6e6e6" />
					<path
   id="path2932"
   d="M 177.771,360.311 C 176.691,358.799 175.611,357.215 174.605,355.63 L 194.259,355.63 C 195.484,357.215 196.78,358.799 198.22,360.311 L 177.771,360.311 z"
   style="fill:#e6e6e6" />
					<path
   id="path2934"
   d="M 230.765,360.311 C 229.828,358.727 228.748,357.215 227.524,355.63 L 328.253,355.63 C 329.116,357.215 330.053,358.727 331.134,360.311 L 230.765,360.311 z"
   style="fill:#e6e6e6" />
					<path
   id="path2936"
   d="M 364.252,360.311 C 363.964,358.799 363.531,357.215 362.956,355.63 L 382.107,355.63 C 382.54,357.215 382.828,358.799 383.044,360.311 L 364.252,360.311 z"
   style="fill:#e6e6e6" />
					<path
   id="path2938"
   d="M 143.79,355.63 C 149.982,356.423 156.678,356.351 163.805,355.63 L 143.79,355.63 z"
   style="fill:#e6e6e6" />
					<path
   id="path2940"
   d="M 137.814,446.71 C 140.622,433.392 144.654,420.648 150.774,409.126 C 158.91,393.935 171.076,381.19 185.188,369.526 C 182.452,366.503 180.005,363.478 177.772,360.31 L 198.221,360.31 C 204.052,366.646 211.18,372.334 218.596,376.079 C 232.204,383.063 240.052,378.384 233.428,364.991 C 232.708,363.478 231.772,361.894 230.765,360.31 L 331.133,360.31 C 331.708,361.174 332.284,361.966 332.86,362.758 C 341.645,374.637 351.653,380.613 358.636,376.293 C 363.1,373.486 365.477,367.365 364.252,360.31 L 383.044,360.31 C 383.332,362.686 383.332,365.062 383.115,367.293 C 400.756,370.39 417.244,375.357 431.5,384.285 C 448.564,394.799 462.46,410.422 475.637,427.414 C 478.157,425.471 481.108,424.605 484.061,425.109 C 486.94,425.541 489.46,426.91 491.764,430.798 C 492.197,431.372 492.556,432.021 492.772,432.741 C 492.989,431.516 492.989,430.149 493.132,428.78 C 495.004,429.356 496.947,429.86 498.748,430.364 C 500.691,430.798 502.564,431.372 504.436,431.876 C 504.436,436.413 504.436,440.733 503.932,445.196 C 505.301,445.628 506.524,445.917 507.893,446.348 C 508.397,446.493 508.901,446.565 509.332,446.707 L 487.66,446.707 C 486.796,441.381 484.132,437.42 480.82,437.348 C 477.363,437.203 474.34,441.164 473.187,446.707 L 467.211,446.707 C 467.499,444.187 467.931,441.74 468.579,439.508 C 456.483,420.715 443.522,403.653 426.963,392.061 C 413.859,382.772 398.379,377.661 381.747,374.493 C 378.724,384.932 371.163,393.86 363.459,398.829 C 348.483,408.765 331.563,397.749 317.884,372.98 C 310.034,377.516 301.827,382.627 291.892,384.428 C 299.163,401.565 311.405,417.26 325.156,432.596 C 329.836,432.451 334.947,433.389 339.845,434.901 C 344.884,436.413 349.203,438.139 353.812,441.237 C 356.476,442.821 358.635,444.764 359.931,446.708 L 345.963,446.708 C 344.595,443.54 340.275,440.589 334.875,439.437 C 327.53,437.708 321.051,439.654 319.972,443.757 C 319.755,444.693 319.9,445.7 320.259,446.708 L 307.443,446.708 C 307.228,445.7 307.228,444.692 307.372,443.685 C 307.516,440.734 309.173,438.14 311.764,436.124 C 299.237,419.708 288.149,402.86 282.1,384.716 C 276.268,383.925 270.004,381.982 263.668,380.036 C 274.107,407.325 254.813,416.397 225.58,400.628 C 211.756,393.069 199.732,384.14 190.156,374.708 C 176.836,386.085 165.531,398.685 158.478,413.733 C 153.798,423.885 150.846,435.044 148.974,446.708 L 137.814,446.708 L 137.814,446.71 z"
   style="fill:#e6e6e6" />
					<path
   id="path2942"
   d="M 136.302,454.271 C 136.734,451.751 137.239,449.23 137.814,446.71 L 148.974,446.71 C 148.542,449.23 148.254,451.751 147.894,454.271 L 136.302,454.271 z"
   style="fill:#e6e6e6" />
					<path
   id="path2944"
   d="M 312.628,454.271 C 312.052,453.767 311.477,453.191 310.973,452.687 C 308.813,450.455 307.805,448.583 307.444,446.71 L 320.26,446.71 C 321.628,449.808 325.948,452.903 331.565,454.198 C 331.709,454.198 331.781,454.27 331.924,454.27 L 312.628,454.27 L 312.628,454.271 z"
   style="fill:#e6e6e6" />
					<path
   id="path2946"
   d="M 340.42,454.271 C 343.443,453.552 345.676,451.896 346.252,449.664 C 346.468,448.726 346.397,447.719 345.964,446.711 L 359.932,446.711 C 361.012,448.367 361.588,450.023 361.301,451.535 C 361.229,452.473 360.796,453.408 360.149,454.271 L 340.42,454.271 L 340.42,454.271 z"
   style="fill:#e6e6e6" />
					<path
   id="path2948"
   d="M 467.068,454.271 C 466.923,451.751 466.996,449.16 467.212,446.71 L 473.188,446.71 C 472.973,447.935 472.829,449.159 472.756,450.526 C 472.686,451.823 472.756,453.046 472.901,454.27 L 467.068,454.27 L 467.068,454.271 z"
   style="fill:#e6e6e6" />
					<path
   id="path2950"
   d="M 487.589,454.271 C 487.733,453.263 487.876,452.183 487.876,451.103 C 487.947,449.591 487.876,448.08 487.66,446.71 L 509.332,446.71 C 510.844,447.071 512.284,447.431 513.724,447.718 C 513.724,449.878 513.653,452.111 513.58,454.271 L 507.46,454.271 C 506.74,452.759 504.796,451.32 502.348,450.671 C 498.964,449.663 495.796,450.599 495.221,452.614 C 495.076,453.118 495.149,453.694 495.364,454.27 L 487.589,454.27 L 487.589,454.271 z"
   style="fill:#e6e6e6" />
					<path
   id="path2952"
   d="M 126.438,470.255 C 128.525,468.743 131.262,468.167 134.07,468.671 C 134.718,463.847 135.438,459.023 136.302,454.271 L 147.894,454.271 C 147.318,459.527 146.814,464.855 146.525,470.255 L 126.438,470.255 z"
   style="fill:#e6e6e6" />
					<path
   id="path2954"
   d="M 469.876,470.255 C 469.732,470.038 469.66,469.751 469.589,469.462 C 467.86,464.064 467.212,459.526 467.068,454.271 L 472.9,454.271 C 473.547,459.888 476.355,464.134 479.884,464.279 C 483.484,464.424 486.579,460.175 487.588,454.271 L 495.362,454.271 C 496.01,455.783 497.955,457.294 500.331,457.943 C 503.931,458.808 507.026,458.013 507.602,455.927 C 507.747,455.423 507.674,454.847 507.458,454.271 L 513.578,454.271 C 513.506,456.576 513.361,458.878 513.146,461.183 C 514.513,461.472 515.882,461.904 517.177,462.263 C 519.049,462.695 520.921,463.271 522.793,463.702 C 522.793,465.934 522.793,468.095 522.721,470.255 L 516.673,470.255 C 516.099,468.743 514.153,467.304 511.634,466.655 C 508.177,465.717 504.937,466.51 504.433,468.671 C 504.289,469.175 504.361,469.751 504.578,470.255 L 498.818,470.255 C 499.394,467.878 499.898,465.575 500.257,463.343 C 499.465,465.648 498.601,467.95 497.593,470.255 L 469.876,470.255 z"
   style="fill:#e6e6e6" />
					<path
   id="path2956"
   d="M 312.628,454.271 C 316.156,457.08 321.772,459.527 327.893,460.535 C 335.092,461.904 343.229,461.615 350.069,459.814 C 354.965,458.519 358.421,456.576 360.149,454.271 L 340.42,454.271 C 337.973,454.847 334.947,454.919 331.924,454.271 L 312.628,454.271 z"
   style="fill:#e6e6e6" />
					<path
   id="path2958"
   d="M 112.47,486.095 C 113.19,485.374 113.909,484.656 114.63,483.935 C 115.926,482.496 117.366,481.126 118.662,479.759 C 120.03,481.56 121.254,483.359 122.55,485.304 C 121.974,483.216 121.686,481.343 121.758,479.759 C 121.902,475.007 123.414,472.63 125.646,470.831 C 125.862,470.614 126.15,470.399 126.438,470.255 L 146.525,470.255 C 146.382,471.984 146.31,473.782 146.237,475.511 C 149.118,478.462 151.782,482.134 153.942,486.095 L 147.39,486.095 C 143.43,480.478 137.887,477.671 134.574,479.759 C 132.774,480.911 131.982,483.216 132.126,486.095 L 112.47,486.095 z"
   style="fill:#e6e6e6" />
					<path
   id="path2960"
   d="M 493.492,486.095 C 495.435,481.488 497.092,476.736 498.388,471.984 C 498.531,471.408 498.675,470.832 498.82,470.255 L 504.58,470.255 C 505.228,471.694 507.172,473.134 509.691,473.855 C 513.148,474.863 516.244,473.927 516.82,471.912 C 516.964,471.408 516.892,470.832 516.675,470.256 L 522.723,470.256 C 522.652,472.561 522.507,474.791 522.22,477.096 C 523.732,477.455 525.101,477.815 526.396,478.176 C 528.267,478.68 530.139,479.256 532.084,479.615 C 532.084,481.775 532.084,483.935 532.012,486.095 L 525.821,486.095 C 525.173,484.656 523.301,483.216 520.781,482.568 C 517.469,481.56 514.157,482.496 513.724,484.584 C 513.58,485.088 513.58,485.592 513.796,486.096 L 508.035,486.096 C 508.613,483.719 509.044,481.416 509.476,479.401 C 508.755,481.631 507.892,483.864 506.884,486.096 L 493.492,486.096 L 493.492,486.095 z"
   style="fill:#e6e6e6" />
					<path
   id="path2962"
   d="M 469.876,470.255 C 471.531,475.294 474.412,478.966 477.652,479.4 C 478.515,479.472 479.308,479.4 480.244,478.896 C 479.885,479.759 479.451,480.552 478.947,481.343 C 480.892,481.917 482.836,482.423 484.708,482.999 C 486.508,483.358 488.523,483.935 490.324,484.366 C 493.132,479.686 495.58,475.079 497.595,470.255 L 469.876,470.255 z"
   style="fill:#e6e6e6" />
					<path
   id="path2964"
   d="M 112.326,491.206 C 111.678,490.198 111.102,489.118 110.454,488.038 C 111.102,487.462 111.75,486.813 112.47,486.095 L 132.126,486.095 C 132.198,487.679 132.63,489.406 133.278,491.206 L 112.326,491.206 z"
   style="fill:#e6e6e6" />
					<path
   id="path2966"
   d="M 150.198,491.206 C 149.694,489.911 148.974,488.542 148.182,487.247 C 147.894,486.888 147.678,486.454 147.39,486.095 L 153.942,486.095 C 154.23,486.599 154.518,487.103 154.806,487.607 C 155.454,488.832 156.102,489.984 156.679,491.207 L 150.198,491.207 L 150.198,491.206 z"
   style="fill:#e6e6e6" />
					<path
   id="path2968"
   d="M 491.26,491.206 C 492.052,489.477 492.772,487.823 493.492,486.095 L 506.885,486.095 C 506.164,487.824 505.372,489.552 504.508,491.206 L 491.26,491.206 z"
   style="fill:#e6e6e6" />
					<path
   id="path2970"
   d="M 506.668,491.206 C 507.027,490.126 507.316,489.046 507.604,487.966 C 507.749,487.32 507.893,486.671 508.036,486.095 L 513.797,486.095 C 514.373,487.607 516.245,489.046 518.909,489.767 C 522.221,490.703 525.389,489.912 525.965,487.751 C 526.109,487.247 526.036,486.671 525.821,486.095 L 532.012,486.095 C 531.94,487.824 531.796,489.552 531.724,491.206 L 506.668,491.206 z"
   style="fill:#e6e6e6" />
					<path
   id="path2972"
   d="M 110.958,505.894 C 112.11,504.814 113.406,503.591 114.63,502.294 C 115.638,501.358 116.574,500.351 117.654,499.415 C 115.71,496.679 113.982,494.013 112.326,491.206 L 133.278,491.206 C 133.782,492.575 134.43,494.013 135.294,495.382 C 139.182,501.648 145.301,504.814 148.902,502.583 C 151.71,500.854 152.07,496.103 150.198,491.206 L 156.678,491.206 C 158.262,494.518 159.485,497.976 160.35,502.007 C 160.638,503.374 160.854,504.671 160.926,505.894 L 128.958,505.894 C 129.75,504.167 129.75,502.439 128.814,501.431 C 127.302,499.917 124.134,500.783 121.614,503.304 C 120.822,504.095 120.175,505.031 119.742,505.894 L 110.958,505.894 L 110.958,505.894 z"
   style="fill:#e6e6e6" />
					<path
   id="path2974"
   d="M 501.052,505.894 C 503.212,501.072 505.156,496.175 506.668,491.206 L 531.724,491.206 C 531.292,496.247 530.645,501.142 529.42,505.894 L 516.244,505.894 C 516.46,505.248 516.603,504.527 516.82,503.878 C 517.613,500.855 518.259,497.903 518.763,495.239 C 517.539,498.839 516.027,502.366 514.3,505.893 L 501.052,505.893 L 501.052,505.894 z"
   style="fill:#e6e6e6" />
					<path
   id="path2976"
   d="M 491.26,491.206 C 490.324,493.222 489.317,495.239 488.309,497.255 C 490.108,497.903 492.125,498.405 493.924,498.839 C 495.724,499.415 497.74,499.917 499.54,500.351 C 501.34,497.328 502.996,494.304 504.508,491.206 L 491.26,491.206 z"
   style="fill:#e6e6e6" />
					<path
   id="path2978"
   d="M 110.958,524.327 C 112.11,523.247 113.334,521.95 114.63,520.725 C 115.638,519.789 116.574,518.709 117.654,517.702 C 115.062,514.102 112.686,510.358 110.454,506.399 C 110.598,506.254 110.814,506.11 110.958,505.893 L 119.742,505.893 C 118.878,507.694 118.805,509.495 119.742,510.43 C 121.254,511.869 124.493,511.078 127.013,508.629 C 127.878,507.766 128.525,506.83 128.958,505.893 L 160.926,505.893 C 161.142,509.782 160.278,513.094 158.334,514.534 C 157.11,515.472 155.454,515.975 153.366,515.614 C 154.662,516.622 155.958,517.415 157.11,518.206 C 155.886,519.575 154.445,521.013 153.15,522.382 C 152.502,523.03 151.782,523.679 151.134,524.327 L 145.374,524.327 C 139.83,521.013 134.574,517.415 129.821,513.239 C 131.55,515.255 133.638,517.559 135.726,519.79 C 137.31,521.374 138.966,522.888 140.622,524.327 L 128.958,524.327 C 129.821,522.526 129.821,520.87 128.814,519.862 C 127.302,518.278 124.134,519.214 121.614,521.735 C 120.822,522.526 120.175,523.462 119.742,524.327 L 110.958,524.327 L 110.958,524.327 z"
   style="fill:#e6e6e6" />
					<path
   id="path2980"
   d="M 508.973,524.327 C 511.924,518.278 514.372,512.159 516.244,505.893 L 529.42,505.893 C 529.275,506.327 529.204,506.686 529.061,507.118 C 527.548,513.095 525.245,518.782 522.364,524.327 L 508.973,524.327 z"
   style="fill:#e6e6e6" />
					<path
   id="path2982"
   d="M 501.052,505.894 C 499.901,508.343 498.748,510.79 497.524,513.167 C 499.397,513.813 501.34,514.392 503.14,514.823 C 504.94,515.254 506.956,515.759 508.756,516.262 C 510.7,512.877 512.572,509.422 514.301,505.893 L 501.052,505.893 L 501.052,505.894 z"
   style="fill:#e6e6e6" />
					<path
   id="path2984"
   d="M 110.886,542.759 C 112.038,541.679 113.406,540.384 114.63,539.159 C 115.638,538.151 116.574,537.141 117.654,536.206 C 114.989,532.534 112.686,528.718 110.454,524.831 C 110.598,524.686 110.814,524.542 110.958,524.327 L 119.742,524.327 C 118.878,526.126 118.805,527.927 119.742,528.862 C 121.254,530.446 124.493,529.51 127.013,526.989 C 127.878,526.126 128.525,525.19 128.958,524.327 L 140.622,524.327 C 145.734,528.79 151.35,532.821 157.182,536.638 C 155.814,538.079 154.445,539.374 153.15,540.743 C 152.43,541.391 151.782,542.11 151.134,542.759 L 145.23,542.759 C 139.686,539.519 134.43,535.775 129.821,531.671 C 131.55,533.687 133.493,535.989 135.798,538.151 C 137.382,539.735 139.038,541.247 140.694,542.758 L 128.885,542.758 C 129.75,540.957 129.75,539.303 128.814,538.221 C 127.302,536.782 124.134,537.575 121.614,540.094 C 120.822,540.957 120.175,541.895 119.742,542.758 L 110.886,542.758 L 110.886,542.759 z"
   style="fill:#e6e6e6" />
					<path
   id="path2986"
   d="M 145.374,524.327 C 146.525,525.046 147.75,525.694 148.974,526.415 C 149.694,525.767 150.414,525.046 151.134,524.327 L 145.374,524.327 z"
   style="fill:#e6e6e6" />
					<path
   id="path2988"
   d="M 508.973,524.327 C 508.18,525.983 507.389,527.567 506.524,529.222 C 508.541,529.8 510.485,530.16 512.285,530.736 C 514.157,531.24 516.245,531.744 517.901,532.248 C 519.485,529.656 520.997,526.99 522.364,524.328 L 508.973,524.328 L 508.973,524.327 z"
   style="fill:#e6e6e6" />
					<path
   id="path2990"
   d="M 110.886,542.759 C 110.742,542.904 110.597,543.046 110.454,543.191 C 115.062,551.398 120.246,559.103 126.726,565.584 C 133.206,571.992 140.766,577.031 148.974,581.783 C 150.27,580.416 151.638,579.047 153.15,577.535 C 154.445,576.168 155.814,574.871 157.182,573.504 C 149.406,568.393 142.134,562.92 135.726,556.584 C 133.638,554.352 131.55,552.191 129.821,550.031 C 135.582,555.142 142.062,559.32 148.974,563.279 C 150.27,562.127 151.71,560.543 153.15,559.175 C 154.445,557.806 155.886,556.439 157.11,554.999 C 151.35,551.255 145.806,547.222 140.694,542.759 L 128.885,542.759 C 128.454,543.622 127.878,544.56 127.013,545.423 C 124.493,547.87 121.254,548.806 119.742,547.294 C 118.805,546.286 118.878,544.56 119.742,542.759 L 110.886,542.759 z"
   style="fill:#e6e6e6" />
					<path
   id="path2992"
   d="M 145.23,542.759 C 146.454,543.48 147.75,544.198 148.974,544.919 C 149.694,544.198 150.342,543.48 151.134,542.759 L 145.23,542.759 z"
   style="fill:#e6e6e6" />
				</g>
				<g
   id="g2994">
					<path
   id="path2996"
   d="M 435.964,163.75 C 441.724,194.926 435.82,238.27 435.531,269.23 C 435.101,315.454 442.66,335.254 411.843,347.854 C 402.843,351.598 392.476,353.254 381.459,353.614 C 383.043,358.294 383.547,362.903 383.114,367.294 C 400.755,370.391 417.243,375.358 431.499,384.286 C 448.563,394.8 462.459,410.423 475.636,427.415 C 478.156,425.472 481.107,424.606 484.06,425.11 C 486.939,425.542 489.459,426.911 491.763,430.799 C 492.196,431.373 492.555,432.022 492.771,432.742 C 492.988,431.517 492.988,430.15 493.131,428.781 C 495.003,429.357 496.946,429.861 498.747,430.365 C 500.69,430.799 502.563,431.373 504.435,431.877 C 504.435,436.414 504.435,440.734 503.931,445.197 C 505.3,445.629 506.523,445.918 507.892,446.349 C 509.835,446.781 511.851,447.357 513.723,447.716 C 513.723,452.181 513.507,456.716 513.148,461.181 C 514.515,461.47 515.884,461.902 517.179,462.261 C 519.051,462.693 520.923,463.269 522.795,463.7 C 522.866,468.237 522.795,472.628 522.22,477.093 C 523.732,477.452 525.101,477.812 526.396,478.173 C 528.267,478.677 530.139,479.253 532.084,479.612 C 532.084,489.188 531.508,498.333 529.061,507.116 C 526.829,515.973 522.796,524.18 517.901,532.245 C 516.245,531.741 514.157,531.237 512.285,530.733 C 510.485,530.157 508.541,529.797 506.524,529.219 C 510.844,521.01 514.444,512.516 516.821,503.875 C 517.614,500.852 518.26,497.9 518.764,495.236 C 516.244,502.507 512.645,509.492 508.756,516.259 C 506.956,515.755 504.94,515.251 503.14,514.82 C 501.34,514.389 499.397,513.81 497.524,513.164 C 501.628,505.027 505.301,496.603 507.604,487.963 C 508.325,484.94 508.973,481.914 509.477,479.397 C 507.102,486.596 503.573,493.508 499.54,500.348 C 497.74,499.914 495.724,499.412 493.924,498.836 C 492.125,498.402 490.108,497.9 488.309,497.252 C 492.485,488.973 496.012,480.619 498.389,471.981 C 499.18,468.956 499.828,466.077 500.26,463.34 C 497.813,470.611 494.428,477.524 490.324,484.363 C 488.523,483.931 486.508,483.355 484.708,482.996 C 482.836,482.42 480.893,481.914 478.947,481.34 C 479.451,480.549 479.885,479.756 480.244,478.893 C 479.308,479.397 478.515,479.469 477.652,479.397 C 474.267,478.963 471.244,474.86 469.589,469.459 C 467.86,464.061 467.212,459.523 467.068,454.268 C 466.78,449.084 467.355,443.901 468.58,439.508 C 456.484,420.715 443.523,403.653 426.964,392.061 C 413.86,382.772 398.38,377.661 381.748,374.493 C 378.725,384.932 371.164,393.86 363.46,398.829 C 348.484,408.765 331.564,397.749 317.885,372.98 C 310.035,377.516 301.828,382.627 291.893,384.428 C 299.164,401.565 311.406,417.26 325.157,432.596 C 329.837,432.451 334.948,433.389 339.846,434.901 C 344.885,436.413 349.204,438.139 353.813,441.237 C 358.636,444.116 361.876,448.219 361.301,451.532 C 360.94,454.917 356.908,458.011 350.069,459.811 C 343.23,461.611 335.092,461.901 327.893,460.532 C 320.692,459.382 314.14,456.139 310.973,452.684 C 307.661,449.227 306.94,446.493 307.372,443.684 C 307.516,440.733 309.173,438.139 311.764,436.123 C 299.237,419.707 288.149,402.859 282.1,384.715 C 276.268,383.924 270.004,381.981 263.668,380.035 C 274.107,407.324 254.813,416.396 225.58,400.627 C 211.756,393.068 199.732,384.139 190.156,374.707 C 176.836,386.084 165.531,398.684 158.478,413.732 C 150.054,432.019 147.246,453.259 146.237,475.507 C 149.478,478.819 152.43,483.068 154.806,487.603 C 157.327,492.068 159.126,496.458 160.35,502.003 C 161.573,507.474 160.926,512.587 158.334,514.53 C 157.11,515.468 155.454,515.971 153.366,515.61 C 154.662,516.618 155.958,517.411 157.11,518.202 C 155.886,519.571 154.445,521.009 153.15,522.378 C 151.71,523.747 150.27,525.187 148.974,526.411 C 142.062,522.522 135.582,518.274 129.821,513.235 C 131.55,515.251 133.638,517.555 135.726,519.786 C 142.134,526.122 149.406,531.595 157.182,536.634 C 155.814,538.075 154.445,539.37 153.15,540.739 C 151.638,542.178 150.27,543.618 148.974,544.915 C 142.062,541.099 135.438,536.706 129.821,531.667 C 131.55,533.683 133.493,535.985 135.798,538.147 C 142.134,544.483 149.478,549.954 157.11,554.995 C 155.886,556.434 154.445,557.802 153.15,559.171 C 151.71,560.538 150.27,562.122 148.974,563.275 C 142.062,559.316 135.582,555.138 129.821,550.027 C 131.55,552.187 133.638,554.347 135.726,556.58 C 142.134,562.916 149.406,568.389 157.182,573.5 C 155.814,574.867 154.445,576.164 153.15,577.531 C 151.638,579.043 150.27,580.412 148.974,581.779 C 140.766,577.027 133.206,571.988 126.726,565.58 C 120.246,559.1 115.062,551.394 110.454,543.187 C 111.75,541.964 113.262,540.523 114.63,539.156 C 115.638,538.148 116.574,537.138 117.654,536.203 C 114.989,532.531 112.686,528.715 110.454,524.828 C 111.75,523.603 113.19,522.092 114.63,520.723 C 115.638,519.787 116.574,518.707 117.654,517.7 C 115.062,514.1 112.686,510.356 110.454,506.397 C 111.75,505.172 113.262,503.733 114.63,502.292 C 115.638,501.356 116.574,500.349 117.654,499.413 C 114.989,495.669 112.686,491.925 110.454,488.036 C 111.75,486.811 113.262,485.302 114.63,483.932 C 115.926,482.493 117.366,481.123 118.662,479.756 C 120.03,481.557 121.254,483.356 122.55,485.301 C 121.974,483.213 121.686,481.34 121.758,479.756 C 121.902,475.004 123.414,472.627 125.646,470.828 C 127.878,468.885 130.902,468.092 134.07,468.668 C 136.95,447.356 141.342,426.836 150.774,409.123 C 158.91,393.932 171.076,381.187 185.188,369.523 C 180.725,364.627 176.981,359.515 173.813,354.332 C 155.598,357.14 139.759,357.5 127.302,350.228 C 84.534,324.884 70.206,222.932 65.239,167.636 C 64.231,156.62 64.375,146.9 65.743,138.62 C 60.415,128.324 55.447,113.636 49.111,101.684 C 42.919,89.948 36.367,84.836 29.815,79.58 C 23.191,74.396 22.471,67.772 19.807,55.172 C 18.078,47.468 15.559,38.036 13.76,28.028 C 12.176,18.524 10.304,8.732 14.696,5.492 C 19.16,2.468 28.016,7.292 36.368,12.188 C 45.296,17.229 53.432,22.916 59.984,27.524 C 70.784,34.58 76.4,40.844 77.84,48.476 C 79.352,56.756 81.728,64.388 85.472,71.012 C 91.015,76.772 97.856,81.308 105.128,85.628 C 110.096,88.364 114.704,91.46 118.808,94.988 C 121.616,94.916 124.568,94.916 127.591,95.06 C 160.136,96.716 198.438,131.276 239.91,151.148 C 240.198,150.14 240.702,148.844 241.206,147.62 C 251.214,123.572 278.142,98.948 301.542,111.188 C 321.27,121.556 328.83,140.78 322.854,159.716 C 350.719,151.076 374.046,133.58 393.126,127.748 C 396.654,124.94 400.47,122.42 404.574,120.044 C 410.406,116.516 415.949,112.773 420.414,108.164 C 423.437,102.908 425.31,96.716 426.605,90.164 C 427.759,83.9 432.222,78.86 440.933,73.1 C 446.333,69.499 452.742,64.964 460.085,60.788 C 466.638,56.9 473.909,53.012 477.364,55.532 C 480.965,58.052 479.524,65.972 478.157,73.604 C 476.645,81.74 474.701,89.228 473.333,95.492 C 471.103,105.716 470.524,110.9 465.341,115.076 C 460.085,119.324 454.687,123.499 449.718,133.004 C 444.46,143.015 440.355,155.111 435.964,163.75 z"
   style="fill:none;stroke:#000000;stroke-width:2.15899992" />
					<path
   id="path2998"
   d="M 414.221,127.75 C 415.157,128.326 416.02,128.758 416.885,129.334 C 421.852,132.357 425.813,136.75 428.764,142.078 C 431.788,137.614 434.956,133.006 438.052,128.182 C 442.876,121.198 447.556,114.286 452.164,107.59 C 452.38,103.27 452.451,99.023 450.363,97.943 C 447.988,96.502 444.101,98.807 439.781,100.679 C 434.812,106.943 429.052,112.703 423.076,118.607 C 420.125,121.559 417.1,124.655 414.221,127.75 z"
   style="fill:none;stroke:#000000;stroke-width:2.15899992" />
					<path
   id="path3000"
   d="M 96.342,98.59 C 91.734,93.622 86.982,88.726 82.086,83.83 C 74.742,76.702 67.686,69.358 61.494,61.726 C 56.095,59.278 51.198,56.542 48.318,58.198 C 45.798,59.638 45.798,64.894 46.086,70.15 C 51.702,78.646 57.606,87.142 63.51,95.854 C 67.47,101.83 71.502,107.59 75.39,113.494 C 80.574,106.367 87.63,101.471 96.342,98.59 z"
   style="fill:none;stroke:#000000;stroke-width:2.15899992" />
					<path
   id="path3002"
   d="M 121.614,503.304 C 119.166,505.751 118.374,508.99 119.742,510.431 C 121.254,511.87 124.493,511.079 127.013,508.63 C 129.461,506.11 130.254,503.013 128.814,501.431 C 127.302,499.917 124.134,500.782 121.614,503.304 z"
   style="fill:none;stroke:#000000;stroke-width:2.15899992" />
					<path
   id="path3004"
   d="M 121.614,521.735 C 119.166,524.182 118.374,527.423 119.742,528.862 C 121.254,530.446 124.493,529.51 127.013,526.989 C 129.534,524.471 130.326,521.374 128.814,519.862 C 127.302,518.278 124.134,519.214 121.614,521.735 z"
   style="fill:none;stroke:#000000;stroke-width:2.15899992" />
					<path
   id="path3006"
   d="M 121.614,540.095 C 119.166,542.687 118.374,545.783 119.742,547.294 C 121.254,548.806 124.493,547.87 127.013,545.423 C 129.461,542.903 130.254,539.806 128.814,538.222 C 127.302,536.782 124.134,537.575 121.614,540.095 z"
   style="fill:none;stroke:#000000;stroke-width:2.15899992" />
					<path
   id="path3008"
   d="M 298.732,141.501 C 287.716,135.094 271.443,140.998 264.603,154.966 C 257.691,169.15 262.3,185.71 272.236,190.534 C 282.099,195.357 293.836,184.918 301.756,172.246 C 309.531,159.501 309.748,148.055 298.732,141.501 z"
   style="fill:none;stroke:#000000;stroke-width:2.15899992" />
					<path
   id="path3010"
   d="M 327.316,334.534 C 320.547,338.278 324.148,351.022 332.859,362.759 C 341.644,374.638 351.652,380.614 358.635,376.294 C 365.618,371.975 367.491,359.446 358.564,348.215 C 349.42,337.126 334.084,330.79 327.316,334.534 z"
   style="fill:none;stroke:#000000;stroke-width:2.15899992" />
					<path
   id="path3012"
   d="M 198.221,330.79 C 186.34,325.751 182.237,332.591 187.204,344.11 C 192.172,355.702 204.988,369.167 218.596,376.079 C 232.204,383.063 240.052,378.384 233.428,364.991 C 226.876,351.599 210.172,335.831 198.221,330.79 z"
   style="fill:none;stroke:#000000;stroke-width:2.15899992" />
					<path
   id="path3014"
   d="M 371.38,246.911 C 368.428,249.719 370.012,256.487 374.981,261.887 C 380.165,267.286 386.717,269.519 389.813,266.711 C 392.909,263.759 391.252,257.063 386.212,251.591 C 381.1,246.118 374.477,244.031 371.38,246.911 z"
   style="fill:none;stroke:#000000;stroke-width:2.15899992" />
					<path
   id="path3016"
   d="M 134.07,177.357 C 138.102,178.51 143.142,173.758 145.301,166.63 C 147.534,159.501 146.022,152.878 142.062,151.582 C 137.958,150.214 132.99,154.966 130.757,162.238 C 128.598,169.294 130.182,176.062 134.07,177.357 z"
   style="fill:none;stroke:#000000;stroke-width:2.15899992" />
					<path
   id="path3018"
   d="M 319.973,443.759 C 319.035,447.718 324.221,452.542 331.565,454.198 C 338.62,455.782 345.245,453.766 346.253,449.663 C 347.261,445.702 342.005,440.95 334.877,439.438 C 327.531,437.71 321.052,439.655 319.973,443.759 z"
   style="fill:none;stroke:#000000;stroke-width:2.15899992" />
					<path
   id="path3020"
   d="M 134.574,479.759 C 130.974,481.989 131.406,488.904 135.294,495.382 C 139.182,501.648 145.301,504.814 148.902,502.583 C 152.43,500.351 152.07,493.366 148.182,487.247 C 144.15,480.911 138.102,477.526 134.574,479.759 z"
   style="fill:none;stroke:#000000;stroke-width:2.15899992" />
					<path
   id="path3022"
   d="M 480.82,437.351 C 476.572,437.206 473.044,443.111 472.756,450.527 C 472.397,457.943 475.637,464.064 479.885,464.279 C 484.061,464.424 487.66,458.591 487.876,451.103 C 488.164,443.687 484.996,437.423 480.82,437.351 z"
   style="fill:none;stroke:#000000;stroke-width:2.15899992" />
					<path
   id="path3024"
   d="M 502.348,450.671 C 498.964,449.663 495.796,450.599 495.221,452.614 C 494.717,454.559 497.02,457.007 500.332,457.942 C 503.932,458.807 507.027,458.012 507.603,455.926 C 508.18,453.983 505.732,451.534 502.348,450.671 z"
   style="fill:none;stroke:#000000;stroke-width:2.15899992" />
					<path
   id="path3026"
   d="M 511.637,466.655 C 508.18,465.717 504.94,466.51 504.436,468.671 C 503.932,470.614 506.237,472.917 509.692,473.855 C 513.149,474.863 516.245,473.927 516.821,471.912 C 517.324,469.896 515.092,467.519 511.637,466.655 z"
   style="fill:none;stroke:#000000;stroke-width:2.15899992" />
					<path
   id="path3028"
   d="M 520.78,482.567 C 517.468,481.559 514.156,482.495 513.723,484.583 C 513.148,486.599 515.379,488.831 518.908,489.767 C 522.22,490.703 525.388,489.912 525.964,487.751 C 526.54,485.808 524.236,483.501 520.78,482.567 z"
   style="fill:none;stroke:#000000;stroke-width:2.15899992" />
					<path
   id="path3030"
   d="M 238.035,156.046 C 201.244,138.477 166.252,111.766 136.662,108.742 C 95.406,104.638 71.214,120.405 75.894,170.662 C 80.502,220.99 96.198,312.575 136.446,340.726 C 146.022,347.495 157.83,349.726 171.292,350.014 C 169.637,346.702 168.196,343.606 166.973,340.51 C 158.694,318.334 175.252,305.086 188.86,309.478 C 202.468,313.942 197.501,313.51 202.108,316.39 C 199.444,299.903 196.132,282.334 200.092,265.198 C 187.924,258.574 176.981,250.942 167.908,241.222 C 162.077,234.814 156.822,227.758 152.142,220.054 C 148.974,224.374 146.31,228.766 144.006,233.086 C 145.23,234.886 145.95,237.261 145.95,239.71 C 145.95,246.117 141.054,251.23 135.366,251.23 C 129.534,251.23 124.782,246.117 124.782,239.71 C 124.782,233.374 129.534,228.046 135.366,228.046 C 135.798,228.046 136.302,228.118 136.734,228.118 C 139.758,222.934 143.286,217.462 147.678,212.278 C 143.718,204.501 139.974,196.582 136.518,188.23 C 133.494,189.525 130.397,189.525 127.806,188.374 C 125.214,187.006 123.198,185.134 121.759,180.67 C 120.39,176.206 120.967,168.718 123.415,162.094 C 126.007,155.11 130.183,148.198 135.295,143.158 C 140.191,138.262 144.943,136.246 148.039,137.542 C 151.063,138.694 152.935,143.662 153.295,149.206 C 153.51,154.75 152.935,159.357 151.711,164.47 C 150.631,169.438 148.903,174.333 146.455,178.294 C 149.407,187.294 152.431,195.934 155.959,204.213 C 163.806,197.446 173.381,191.326 184.181,185.134 C 184.109,184.702 184.109,184.198 184.109,183.622 C 184.109,177.285 188.861,172.03 194.549,172.03 C 200.381,172.03 205.205,177.285 205.205,183.622 C 205.205,189.958 200.381,195.285 194.549,195.285 C 191.597,195.285 189.005,193.846 187.133,191.83 C 176.261,198.237 166.902,204.646 159.486,211.702 C 163.734,220.27 168.63,228.046 174.39,234.958 C 182.093,244.174 191.452,251.518 202.181,257.782 C 209.381,237.333 225.726,218.326 243.509,198.886 C 233.284,188.591 231.556,175.199 238.035,156.046 z"
   style="fill:none;stroke:#000000;stroke-width:2.15899992" />
					<path
   id="path3032"
   d="M 378.725,347.927 C 388.948,347.206 398.092,345.407 406.084,341.878 C 433.66,329.782 428.044,310.559 428.404,267.863 C 428.763,225.095 439.564,159.935 411.196,141.143 C 391.324,127.967 360.939,157.487 319.54,167.495 C 319.18,168.215 318.748,169.151 318.172,169.943 C 305.212,191.975 284.332,206.519 269.284,211.127 C 262.372,229.631 255.244,247.487 256.468,264.047 C 270.004,254.831 283.973,247.847 299.092,244.247 C 302.26,243.454 305.5,242.879 308.813,242.375 C 307.012,236.543 304.709,231.214 301.973,226.607 C 301.973,226.607 301.973,226.607 301.901,226.607 C 296.069,226.607 291.389,221.279 291.389,214.943 C 291.389,208.607 296.069,203.279 301.901,203.279 C 307.661,203.279 312.556,208.607 312.556,214.943 C 312.556,217.967 311.406,220.631 309.676,222.863 C 312.628,228.478 315.292,234.671 316.947,241.583 C 331.204,240.43 345.892,241.655 360.724,243.526 C 361.083,240.286 362.595,237.767 364.972,235.967 C 367.347,234.238 370.083,233.447 374.763,234.599 C 379.228,235.535 385.347,239.711 389.884,245.327 C 394.707,250.943 398.595,257.999 400.467,264.839 C 402.196,271.679 401.547,276.719 398.955,278.951 C 396.291,280.967 391.251,280.175 386.211,277.511 C 381.315,274.919 377.499,272.183 373.755,268.511 C 370.011,264.911 366.627,261.094 364.251,257.063 C 348.771,253.679 333.507,251.231 318.819,251.231 C 319.971,259.367 320.475,268.367 320.618,277.871 C 323.787,279.454 326.018,283.127 326.018,287.591 C 326.018,293.855 321.195,299.111 315.434,299.111 C 309.674,299.111 304.922,293.855 304.922,287.591 C 304.922,281.831 308.666,277.079 313.49,276.07 C 312.986,267.071 312.338,259.151 311.113,251.807 C 307.874,251.879 304.49,252.382 301.322,252.959 C 285.986,255.623 271.441,262.535 257.761,271.823 C 257.906,272.111 257.906,272.255 257.978,272.399 C 263.377,292.343 282.025,308.904 301.177,326.039 C 301.97,321.359 298.945,320.207 308.234,315.455 C 317.521,310.775 357.265,320.567 374.906,342.527 C 376.42,344.255 377.717,346.055 378.725,347.927 z"
   style="fill:none;stroke:#000000;stroke-width:2.15899992" />
				</g>
			</g>
		</g></svg>