<?xml version="1.0" encoding="UTF-8" standalone="no"?>
<!-- Generator: Adobe Illustrator 10, SVG Export Plug-In . SVG Version: 3.0.0 Build 76)  -->
<svg
   xmlns:dc="http://purl.org/dc/elements/1.1/"
   xmlns:cc="http://creativecommons.org/ns#"
   xmlns:rdf="http://www.w3.org/1999/02/22-rdf-syntax-ns#"
   xmlns:svg="http://www.w3.org/2000/svg"
   xmlns="http://www.w3.org/2000/svg"
   xmlns:sodipodi="http://sodipodi.sourceforge.net/DTD/sodipodi-0.dtd"
   xmlns:inkscape="http://www.inkscape.org/namespaces/inkscape"
   width="600.98499"
   height="669.90326"
   viewBox="0 0 607.903 742.252"
   style="overflow:visible"
   xml:space="preserve"
   id="svg3041"
   sodipodi:version="0.32"
   inkscape:version="0.46"
   sodipodi:docname="ESPc.svg"
   inkscape:output_extension="org.inkscape.output.svg.inkscape"
   version="1.0"><metadata
   id="metadata3261"><rdf:RDF><cc:Work
       rdf:about=""><dc:format>image/svg+xml</dc:format><dc:type
         rdf:resource="http://purl.org/dc/dcmitype/StillImage" /></cc:Work></rdf:RDF></metadata><defs
   id="defs3259"><inkscape:perspective
   sodipodi:type="inkscape:persp3d"
   inkscape:vp_x="0 : 371.12601 : 1"
   inkscape:vp_y="0 : 1000 : 0"
   inkscape:vp_z="607.90302 : 371.12601 : 1"
   inkscape:persp3d-origin="303.95151 : 247.41734 : 1"
   id="perspective3263" />
		
		
	</defs><sodipodi:namedview
   inkscape:window-height="670"
   inkscape:window-width="640"
   inkscape:pageshadow="2"
   inkscape:pageopacity="0.0"
   guidetolerance="10.0"
   gridtolerance="10.0"
   objecttolerance="10.0"
   borderopacity="1.0"
   bordercolor="#666666"
   pagecolor="#ffffff"
   id="base"
   showgrid="false"
   inkscape:zoom="0.62243011"
   inkscape:cx="303.95151"
   inkscape:cy="371.12601"
   inkscape:window-x="0"
   inkscape:window-y="0"
   inkscape:current-layer="svg3041" />
	<style
   type="text/css"
   id="style3043">
	
		@font-face{font-family:'Times-Roman';src:url(1E7CD703.cef)}
	
	</style>
	
<g
   transform="matrix(1.1079988,0,0,1.1079988,-36.68056,-2.4900479e-3)"
   style="overflow:visible"
   id="g3062">
			<g
   id="g3064">
				<g
   id="g3066">
					<path
   id="path3068"
   d="M 27.457,89.442 C 27.745,88.362 28.105,87.282 28.537,86.202 C 32.065,76.555 37.897,66.978 44.808,59.994 C 51.721,53.225 58.201,50.49 62.521,52.218 C 66.77,53.874 69.361,60.643 69.721,68.347 C 70.081,76.05 69.289,82.386 67.633,89.443 L 59.497,89.443 C 61.296,80.802 59.209,73.172 54.168,71.588 C 48.697,69.932 41.713,76.484 38.617,86.348 C 38.329,87.356 38.041,88.436 37.825,89.444 L 27.457,89.444 L 27.457,89.442 z"
   style="fill:#999999" />
					<path
   id="path3070"
   d="M 183.623,89.515 C 185.207,82.386 187.799,74.611 191.327,66.115 C 201.839,40.843 225.959,15.067 251.158,11.755 L 261.742,11.683 C 266.135,12.33 270.455,13.627 274.704,15.859 C 304.367,31.411 314.015,61.291 301.631,89.443 L 280.319,89.443 C 285.142,76.339 282.839,64.891 270.814,57.836 C 255.695,48.907 233.086,57.043 223.654,76.483 C 221.566,80.731 220.271,85.123 219.623,89.443 L 183.623,89.515 z"
   style="fill:#999999" />
					<path
   id="path3072"
   d="M 115.369,217.099 C 106.153,210.835 97.657,203.779 90.097,195.714 C 81.817,186.786 74.618,176.923 68.209,166.267 C 63.745,172.315 60.073,178.363 56.905,184.339 C 58.634,186.859 59.641,190.099 59.641,193.555 C 59.641,202.339 52.945,209.611 44.953,209.611 C 36.961,209.611 30.409,202.34 30.409,193.555 C 30.409,184.699 36.961,177.425 44.953,177.425 C 45.601,177.425 46.249,177.499 46.897,177.571 C 51.001,170.371 55.897,162.739 62.089,155.539 C 56.473,144.955 51.361,133.795 46.609,122.348 C 42.505,124.076 38.185,124.076 34.585,122.492 C 30.913,120.764 28.033,118.1 26.161,111.908 C 24.577,106.436 24.937,97.796 27.457,89.444 L 37.825,89.444 C 36.169,98.012 38.329,105.715 43.297,107.227 C 48.841,108.883 55.68,102.331 58.705,92.467 C 58.993,91.459 59.281,90.451 59.497,89.444 L 67.633,89.444 L 67.633,89.516 C 65.977,96.428 63.602,103.123 60.362,108.668 C 64.321,120.98 68.57,133.004 73.466,144.379 C 84.267,135.163 97.514,126.739 112.49,118.027 C 112.418,117.45 112.346,116.731 112.346,116.011 C 112.346,107.155 118.897,99.882 126.889,99.882 C 134.879,99.882 141.576,107.154 141.576,116.011 C 141.576,124.794 134.88,132.067 126.889,132.067 C 122.858,132.067 119.186,130.195 116.522,127.243 C 101.545,136.243 88.513,145.027 78.434,154.748 C 84.192,166.556 90.889,177.354 98.954,187.004 C 109.033,199.027 121.347,208.819 135.24,217.1 L 115.369,217.1 L 115.369,217.099 z"
   style="fill:#999999" />
					<path
   id="path3074"
   d="M 137.831,217.099 C 148.055,189.45 170.303,163.458 194.423,137.179 C 182.615,125.083 179.016,110.034 183.623,89.515 L 219.623,89.443 C 217.175,105.138 223.367,120.331 234.167,125.588 C 247.847,132.211 264.191,117.739 274.919,100.243 C 277.223,96.571 279.023,92.972 280.319,89.443 L 301.631,89.443 C 300.479,92.035 299.184,94.627 297.671,97.147 C 279.887,127.531 250.943,147.546 230.135,154.027 C 221.927,175.771 213.576,197.084 212.352,217.099 L 137.831,217.099 L 137.831,217.099 z"
   style="fill:#999999" />
					<path
   id="path3076"
   d="M 228.551,217.099 C 242.231,209.323 256.415,203.275 271.247,199.747 C 275.711,198.667 280.247,197.874 284.783,197.226 C 282.407,189.163 279.023,181.891 275.351,175.339 C 275.279,175.339 275.279,175.339 275.206,175.339 C 267.216,175.339 260.662,168.067 260.662,159.282 C 260.662,150.425 267.216,143.154 275.206,143.154 C 283.198,143.154 289.894,150.425 289.894,159.282 C 289.894,163.458 288.382,167.274 285.935,170.154 C 290.039,177.858 293.783,186.425 296.158,196.074 C 315.742,194.562 335.974,196.146 356.566,198.81 C 357.07,194.274 359.23,190.674 362.47,188.297 C 365.782,185.993 369.527,184.842 375.863,186.281 C 382.127,187.793 390.623,193.553 396.886,201.185 C 400.918,205.937 404.447,211.409 407.183,217.097 L 396.814,217.097 C 395.591,214.649 393.935,212.201 391.775,209.897 C 384.718,202.409 375.575,199.457 371.327,203.418 C 368.447,206.153 368.663,211.553 371.398,217.098 L 359.806,217.098 C 338.926,212.705 318.407,209.465 298.679,209.61 C 299.038,212.058 299.326,214.506 299.615,217.026 L 288.96,217.098 C 288.6,214.793 288.311,212.49 287.879,210.256 C 283.343,210.401 278.879,210.978 274.415,211.77 C 267.575,212.994 260.951,214.793 254.398,217.098 L 228.551,217.098 L 228.551,217.099 z"
   style="fill:#999999" />
					<path
   id="path3078"
   d="M 97.945,351.667 C 94.201,345.546 91.105,339.282 88.728,332.946 C 77.208,302.13 100.105,283.77 118.825,289.89 C 137.615,296.082 130.846,295.506 137.256,299.394 C 133.583,276.786 128.977,252.449 134.447,228.69 C 127.825,225.09 121.489,221.274 115.369,217.098 L 135.239,217.098 C 135.959,217.53 136.679,217.961 137.4,218.394 C 137.543,217.961 137.687,217.53 137.831,217.098 L 212.352,217.098 C 212.135,220.482 212.207,223.866 212.423,227.178 C 217.751,223.577 223.079,220.194 228.551,217.098 L 254.399,217.098 C 240.503,221.994 227.184,229.266 214.223,237.906 C 214.295,238.194 214.368,238.482 214.44,238.698 C 222,266.274 247.776,289.098 274.128,312.93 C 275.28,306.377 271.105,304.722 283.992,298.242 C 296.88,291.763 351.743,305.37 376.223,335.538 C 380.543,340.794 383.495,346.267 385.368,351.667 L 358.655,351.667 C 357.36,349.003 355.632,346.194 353.471,343.53 C 341.015,328.05 319.631,319.41 310.343,324.594 C 303.36,328.482 304.367,339.498 310.559,351.666 L 170.879,351.666 C 159.791,337.697 144.024,324.521 131.927,319.409 C 115.442,312.424 109.825,321.857 116.665,337.842 C 118.609,342.306 121.346,346.986 124.801,351.666 L 97.945,351.666 L 97.945,351.667 z"
   style="fill:#999999" />
					<path
   id="path3080"
   d="M 288.96,217.099 C 290.039,225.234 290.688,234.091 291.119,243.739 C 284.496,245.179 279.383,251.802 279.383,259.579 C 279.383,268.363 285.936,275.635 293.927,275.635 C 301.919,275.635 308.615,268.364 308.615,259.579 C 308.615,253.603 305.592,248.42 301.199,246.258 C 300.982,235.892 300.551,226.1 299.615,217.028 L 288.96,217.099 z"
   style="fill:#999999" />
					<path
   id="path3082"
   d="M 359.807,217.099 C 360.311,217.243 360.887,217.315 361.463,217.458 C 364.703,223.074 369.311,228.474 374.495,233.37 C 379.751,238.339 384.935,242.226 391.775,245.755 C 398.687,249.354 405.814,250.507 409.342,247.626 C 413.015,244.675 413.878,237.763 411.43,228.329 C 410.423,224.587 408.982,220.843 407.183,217.099 L 396.814,217.099 C 399.55,222.643 399.695,228.042 396.742,230.706 C 392.495,234.667 383.351,231.714 376.367,224.227 C 374.279,221.923 372.623,219.474 371.398,217.099 L 359.807,217.099 L 359.807,217.099 z"
   style="fill:#999999" />
					<path
   id="path3084"
   d="M 72.529,417.259 C 83.329,400.771 97.728,386.298 113.857,372.979 C 107.665,366.067 102.336,358.939 97.945,351.667 L 124.8,351.667 C 133.51,363.546 146.47,375.138 160.007,381.979 C 178.87,391.554 189.67,385.218 180.599,366.714 C 178.222,361.818 174.838,356.706 170.878,351.667 L 310.558,351.667 C 312.575,355.626 315.095,359.73 318.046,363.69 C 329.998,379.961 343.894,388.17 353.687,382.266 C 361.75,377.37 364.775,364.698 358.654,351.666 L 385.367,351.666 C 387.455,357.857 388.031,363.978 387.527,369.881 C 411.863,374.274 434.615,381.041 454.342,393.354 C 465.07,400.049 474.935,408.114 484.222,417.258 L 464.206,417.258 C 459.095,412.434 453.767,408.041 448.078,404.082 C 429.934,391.338 408.55,384.137 385.653,379.746 C 381.406,394.217 371.038,406.601 360.382,413.586 C 357.862,415.241 355.271,416.465 352.679,417.258 L 336.191,417.258 C 322.583,413.154 309.046,399.186 297.167,377.801 C 286.512,383.922 275.063,391.049 261.383,393.498 C 264.839,401.633 269.087,409.553 273.985,417.258 L 257.712,417.258 C 253.896,409.625 250.584,401.85 247.92,393.93 C 239.784,392.922 231.144,390.258 222.216,387.522 C 227.256,400.553 227.328,410.633 223.655,417.258 L 172.464,417.258 C 171.528,416.825 170.593,416.321 169.655,415.818 C 150.576,405.45 134.016,393.282 120.698,380.106 C 107.45,391.41 95.641,403.578 86.498,417.258 L 72.529,417.258 L 72.529,417.259 z"
   style="fill:#999999" />
					<path
   id="path3086"
   d="M 46.321,490.123 C 50.281,467.874 56.113,446.707 66.266,427.77 C 68.209,424.17 70.297,420.642 72.53,417.258 L 86.498,417.258 C 82.897,422.586 79.729,428.129 76.993,433.961 C 69.074,451.098 64.754,470.106 62.378,490.122 L 46.321,490.122 L 46.321,490.123 z"
   style="fill:#999999" />
					<path
   id="path3088"
   d="M 290.039,490.123 C 289.103,489.402 288.31,488.683 287.592,487.961 C 283.199,483.211 282.263,479.395 282.696,475.435 C 282.985,471.403 285.217,467.803 288.815,465.067 C 277.008,449.515 266.135,433.748 257.711,417.259 L 273.984,417.259 C 283.271,432.019 294.935,446.13 307.39,460.027 C 313.87,459.955 320.926,461.252 327.695,463.267 C 334.607,465.355 340.583,467.803 346.991,472.05 C 353.687,476.154 358.15,481.771 357.43,486.378 C 357.214,487.674 356.71,488.899 355.775,490.123 L 328.63,490.123 C 332.806,489.114 335.758,486.882 336.478,483.858 C 337.846,478.17 330.718,471.761 320.71,469.53 C 310.774,467.226 301.558,469.89 300.19,475.578 C 298.893,481.123 306.022,487.674 316.03,489.978 C 316.246,490.049 316.534,490.123 316.75,490.123 L 290.039,490.123 L 290.039,490.123 z"
   style="fill:#999999" />
					<path
   id="path3090"
   d="M 503.52,490.123 C 503.303,482.994 503.952,475.866 505.608,469.674 C 493.008,450.163 479.759,431.946 464.208,417.259 L 484.224,417.259 C 495.24,428.059 505.464,440.227 515.328,452.97 C 518.857,450.235 522.961,449.082 526.993,449.731 C 530.881,450.451 534.409,452.323 537.793,457.722 C 538.297,458.515 538.729,459.378 539.16,460.315 C 539.305,458.731 539.449,456.787 539.521,454.843 C 542.185,455.634 544.848,456.355 547.369,457.074 C 549.961,457.721 552.697,458.442 555.217,459.09 C 555.217,465.355 555.072,471.475 554.497,477.595 C 556.369,478.099 558.24,478.603 560.113,479.107 C 562.705,479.755 565.441,480.474 567.961,481.124 C 567.961,484.147 567.961,487.171 567.816,490.124 L 559.321,490.124 C 558.457,488.035 555.865,486.02 552.409,485.155 C 547.585,483.859 543.264,485.083 542.472,487.891 C 542.256,488.611 542.4,489.403 542.689,490.123 L 531.888,490.123 C 532.176,488.755 532.321,487.242 532.392,485.73 C 532.681,475.506 528.288,466.866 522.529,466.721 C 516.697,466.506 511.8,474.714 511.369,484.938 C 511.297,486.738 511.369,488.465 511.585,490.123 L 503.52,490.123 L 503.52,490.123 z"
   style="fill:#999999" />
					<path
   id="path3092"
   d="M 172.463,417.259 C 197.52,430.147 216.887,429.355 223.654,417.259 L 172.463,417.259 z"
   style="fill:#999999" />
					<path
   id="path3094"
   d="M 336.191,417.259 C 341.735,418.915 347.279,418.987 352.679,417.259 L 336.191,417.259 z"
   style="fill:#999999" />
					<path
   id="path3096"
   d="M 32.641,512.154 C 35.593,510.211 39.265,509.346 43.225,509.923 C 44.089,503.227 45.097,496.603 46.321,490.123 L 62.377,490.123 C 61.513,497.322 60.865,504.666 60.433,512.154 L 32.641,512.154 z"
   style="fill:#999999" />
					<path
   id="path3098"
   d="M 507.335,512.154 C 507.191,511.866 507.119,511.507 506.975,511.146 C 504.671,503.73 503.807,497.322 503.52,490.123 L 511.583,490.123 C 512.592,497.898 516.335,503.803 521.158,503.946 C 526.127,504.163 530.447,498.186 531.887,490.123 L 542.688,490.123 C 543.551,492.211 546.215,494.227 549.671,495.163 C 554.424,496.458 558.815,495.234 559.535,492.427 C 559.751,491.707 559.607,490.915 559.319,490.123 L 567.814,490.123 C 567.742,493.29 567.527,496.458 567.238,499.627 C 569.111,500.13 570.982,500.634 572.855,501.138 C 575.447,501.859 578.111,502.578 580.63,503.155 C 580.63,506.178 580.63,509.203 580.558,512.155 L 572.062,512.155 C 571.126,510.067 568.535,508.124 565.15,507.187 C 560.326,505.891 555.935,507.115 555.214,509.923 C 554.998,510.643 555.142,511.435 555.43,512.154 L 547.439,512.154 C 548.302,508.913 548.951,505.674 549.455,502.721 C 548.375,505.89 547.15,509.058 545.855,512.154 L 507.335,512.154 L 507.335,512.154 z"
   style="fill:#999999" />
					<path
   id="path3100"
   d="M 290.039,490.123 C 294.935,493.937 302.783,497.394 311.062,498.762 C 321.142,500.563 332.374,500.275 341.806,497.755 C 348.646,495.954 353.398,493.219 355.775,490.123 L 328.63,490.123 C 325.246,490.986 321.069,491.059 316.75,490.123 L 290.039,490.123 z"
   style="fill:#999999" />
					<path
   id="path3102"
   d="M 13.201,534.187 C 14.209,533.178 15.289,532.099 16.297,531.09 C 18.169,529.147 20.113,527.275 21.985,525.258 C 23.713,527.923 25.441,530.443 27.241,533.034 C 26.449,530.154 26.089,527.562 26.161,525.258 C 26.377,518.851 28.465,515.538 31.561,512.946 C 31.921,512.658 32.281,512.37 32.641,512.154 L 60.433,512.154 C 60.289,514.602 60.144,517.05 60.001,519.499 C 64.033,523.603 67.705,528.643 70.873,534.187 L 61.729,534.187 C 56.257,526.411 48.481,522.45 43.801,525.402 C 41.281,526.987 40.201,530.227 40.489,534.187 L 13.201,534.187 z"
   style="fill:#999999" />
					<path
   id="path3104"
   d="M 540.023,534.187 C 542.687,527.779 545.062,521.227 546.791,514.603 C 547.008,513.811 547.223,512.947 547.439,512.155 L 555.43,512.155 C 556.294,514.243 558.958,516.259 562.414,517.195 C 567.166,518.491 571.486,517.267 572.278,514.459 C 572.494,513.739 572.35,512.947 572.061,512.155 L 580.557,512.155 C 580.413,515.323 580.27,518.491 579.91,521.659 C 581.854,522.164 583.725,522.667 585.598,523.171 C 588.118,523.891 590.854,524.611 593.373,525.188 C 593.373,528.212 593.373,531.165 593.228,534.188 L 584.804,534.188 C 583.868,532.1 581.277,530.156 577.821,529.22 C 573.068,527.924 568.677,529.148 567.957,531.955 C 567.74,532.675 567.812,533.467 568.102,534.187 L 560.182,534.187 C 560.973,530.947 561.621,527.708 562.198,524.755 C 561.118,527.923 559.966,531.09 558.598,534.187 L 540.023,534.187 L 540.023,534.187 z"
   style="fill:#999999" />
					<path
   id="path3106"
   d="M 507.335,512.154 C 509.711,519.066 513.814,524.394 518.135,524.826 C 519.287,524.97 520.512,524.755 521.735,524.251 C 521.159,525.401 520.655,526.482 520.08,527.563 C 522.672,528.355 525.336,529.003 527.928,529.722 C 530.521,530.443 533.185,531.163 535.704,531.739 C 539.448,525.332 542.975,518.779 545.856,512.155 L 507.335,512.155 L 507.335,512.154 z"
   style="fill:#999999" />
					<path
   id="path3108"
   d="M 11.257,561.546 C 12.913,559.89 14.641,558.234 16.297,556.507 C 17.665,555.211 19.033,553.771 20.401,552.474 C 16.801,547.435 13.633,542.178 10.537,536.779 C 11.401,535.914 12.265,535.05 13.201,534.187 L 40.489,534.187 C 40.705,538.075 42.145,542.539 44.808,546.859 C 50.281,555.5 58.705,560.035 63.673,556.938 C 68.569,553.841 68.065,544.267 62.665,535.627 C 62.377,535.123 62.016,534.618 61.729,534.187 L 70.873,534.187 C 71.232,534.835 71.593,535.554 71.953,536.203 C 75.408,542.539 77.857,548.587 79.513,556.147 C 79.946,558.019 80.233,559.818 80.305,561.546 L 36.025,561.546 C 37.249,559.099 37.321,556.65 35.953,555.282 C 33.865,553.266 29.473,554.419 26.017,557.946 C 24.865,559.098 24.001,560.322 23.353,561.546 L 11.257,561.546 L 11.257,561.546 z"
   style="fill:#999999" />
					<path
   id="path3110"
   d="M 550.391,561.546 C 554.063,553.41 557.231,545.13 559.536,536.634 C 559.752,535.843 559.968,534.979 560.184,534.187 L 568.104,534.187 C 568.967,536.275 571.559,538.291 575.159,539.227 C 579.912,540.523 584.231,539.299 585.024,536.491 C 585.239,535.771 585.096,534.979 584.807,534.187 L 593.231,534.187 C 592.944,543.546 591.936,552.691 589.704,561.546 L 571.488,561.546 C 571.776,560.61 571.992,559.603 572.28,558.666 C 573.36,554.562 574.223,550.458 574.944,546.786 C 573.215,551.826 571.2,556.722 568.824,561.546 L 550.391,561.546 z"
   style="fill:#999999" />
					<path
   id="path3112"
   d="M 540.023,534.187 C 537.863,539.371 535.415,544.483 532.823,549.595 C 535.415,550.386 538.079,551.107 540.671,551.755 C 543.192,552.474 545.927,553.194 548.447,553.771 C 552.262,547.363 555.718,540.882 558.599,534.187 L 540.023,534.187 z"
   style="fill:#999999" />
					<path
   id="path3114"
   d="M 11.257,586.961 C 12.913,585.378 14.569,583.65 16.297,581.994 C 17.665,580.627 19.033,579.258 20.401,577.817 C 16.873,572.85 13.705,567.666 10.537,562.194 C 10.753,561.978 11.041,561.761 11.257,561.546 L 23.353,561.546 C 22.129,563.994 22.129,566.442 23.497,567.811 C 25.513,569.827 29.905,568.674 33.361,565.219 C 34.512,564.067 35.449,562.771 36.025,561.546 L 80.305,561.546 C 80.665,566.874 79.442,571.483 76.705,573.499 C 75.049,574.723 72.745,575.299 69.937,575.011 C 71.665,576.162 73.392,577.315 75.121,578.466 C 73.32,580.483 71.377,582.425 69.505,584.299 C 68.641,585.162 67.777,586.027 66.842,586.961 L 58.705,586.961 C 51.073,582.354 43.801,577.458 37.321,571.698 C 39.769,574.507 42.577,577.602 45.529,580.627 C 47.76,582.858 50.064,584.946 52.369,586.961 L 36.097,586.961 C 37.321,584.515 37.321,582.138 35.953,580.77 C 33.937,578.683 29.545,579.907 26.017,583.363 C 24.865,584.515 24.001,585.739 23.353,586.962 L 11.257,586.962 L 11.257,586.961 z"
   style="fill:#999999" />
					<path
   id="path3116"
   d="M 561.551,586.961 C 565.512,578.683 568.895,570.258 571.488,561.546 L 589.704,561.546 C 589.559,562.123 589.416,562.698 589.272,563.275 C 587.112,571.411 583.872,579.258 579.912,586.962 L 561.551,586.962 L 561.551,586.961 z"
   style="fill:#999999" />
					<path
   id="path3118"
   d="M 550.391,561.546 C 548.879,564.931 547.223,568.315 545.567,571.627 C 548.159,572.419 550.824,573.138 553.343,573.786 C 555.936,574.507 558.671,575.226 561.192,575.803 C 563.927,571.123 566.52,566.37 568.824,561.546 L 550.391,561.546 L 550.391,561.546 z"
   style="fill:#999999" />
					<path
   id="path3120"
   d="M 11.257,612.45 C 12.913,610.795 14.641,609.138 16.297,607.41 C 17.665,606.114 19.033,604.674 20.401,603.378 C 16.801,598.339 13.633,593.082 10.537,587.683 C 10.753,587.466 11.041,587.251 11.257,586.961 L 23.353,586.961 C 22.129,589.482 22.057,591.858 23.425,593.227 C 25.441,595.315 29.833,594.163 33.362,590.707 C 34.586,589.482 35.45,588.257 36.097,586.961 L 52.369,586.961 C 59.497,593.154 67.129,598.698 75.193,603.954 C 73.249,605.97 71.377,607.843 69.505,609.715 C 68.569,610.651 67.633,611.586 66.77,612.45 L 58.706,612.45 C 51.002,607.843 43.73,602.874 37.322,597.114 C 39.77,599.923 42.506,603.09 45.602,606.042 C 47.762,608.274 50.065,610.362 52.442,612.45 L 36.025,612.45 C 37.249,610.003 37.321,607.554 35.953,606.186 C 33.865,604.169 29.473,605.322 26.017,608.85 C 24.865,610.002 24.001,611.226 23.353,612.45 L 11.257,612.45 z"
   style="fill:#999999" />
					<path
   id="path3122"
   d="M 58.705,586.961 C 60.361,587.97 62.016,588.979 63.745,589.914 C 64.753,588.978 65.833,587.97 66.842,586.961 L 58.705,586.961 z"
   style="fill:#999999" />
					<path
   id="path3124"
   d="M 561.551,586.961 C 560.471,589.194 559.391,591.425 558.239,593.658 C 560.904,594.45 563.567,595.17 566.088,595.89 C 568.681,596.538 571.416,597.257 573.937,597.906 C 576.025,594.306 578.041,590.634 579.913,586.961 L 561.551,586.961 L 561.551,586.961 z"
   style="fill:#999999" />
					<path
   id="path3126"
   d="M 11.257,612.45 C 11.041,612.666 10.753,612.882 10.537,613.098 C 16.945,624.474 24.145,635.058 33.073,643.986 C 41.929,652.842 52.441,659.898 63.745,666.306 C 65.617,664.506 67.56,662.562 69.505,660.618 C 71.377,658.747 73.249,656.874 75.193,654.858 C 64.464,647.874 54.384,640.314 45.529,631.53 C 42.577,628.507 39.769,625.482 37.321,622.602 C 45.241,629.585 54.241,635.418 63.745,640.818 C 65.617,639.089 67.633,637.074 69.505,635.202 C 71.377,633.331 73.32,631.386 75.121,629.37 C 67.201,624.186 59.497,618.642 52.441,612.45 L 36.025,612.45 C 35.449,613.674 34.513,614.97 33.361,616.123 C 29.904,619.578 25.512,620.73 23.497,618.715 C 22.129,617.346 22.129,614.899 23.353,612.45 L 11.257,612.45 L 11.257,612.45 z"
   style="fill:#999999" />
					<path
   id="path3128"
   d="M 58.705,612.45 C 60.361,613.458 62.016,614.466 63.745,615.402 C 64.753,614.465 65.761,613.458 66.769,612.45 L 58.705,612.45 z"
   style="fill:#999999" />
				</g>
				<g
   id="g3130">
					<path
   id="path3132"
   d="M 521.734,524.251 C 520.511,524.755 519.287,524.97 518.134,524.826 C 513.599,524.394 509.279,518.49 506.974,511.146 C 504.67,503.73 503.806,497.322 503.519,490.123 C 503.302,482.994 503.951,475.866 505.607,469.674 C 488.831,443.755 470.974,420.067 448.079,404.083 C 429.935,391.339 408.551,384.138 385.654,379.747 C 381.407,394.218 371.039,406.602 360.383,413.587 C 339.503,427.194 316.175,412.003 297.167,377.802 C 286.512,383.923 275.063,391.05 261.383,393.499 C 271.391,417.259 288.383,438.858 307.391,460.026 C 313.871,459.954 320.927,461.251 327.696,463.266 C 334.608,465.354 340.584,467.802 346.992,472.049 C 353.688,476.153 358.151,481.77 357.431,486.377 C 356.784,490.985 351.239,495.233 341.807,497.754 C 332.375,500.274 321.143,500.562 311.063,498.761 C 301.272,497.106 292.055,492.642 287.592,487.96 C 283.199,483.21 282.263,479.394 282.696,475.434 C 282.985,471.402 285.217,467.802 288.815,465.066 C 271.536,442.385 256.272,419.129 247.919,393.93 C 239.783,392.922 231.143,390.258 222.215,387.522 C 236.759,425.178 210.119,437.85 169.654,415.818 C 150.575,405.45 134.015,393.282 120.697,380.106 C 102.265,395.801 86.64,413.297 76.992,433.961 C 65.258,459.306 61.513,488.682 60.001,519.498 C 64.537,524.105 68.569,529.864 71.953,536.201 C 75.408,542.537 77.857,548.585 79.513,556.145 C 81.242,563.632 80.377,570.833 76.705,573.498 C 75.049,574.722 72.745,575.298 69.937,575.01 C 71.665,576.161 73.392,577.314 75.121,578.465 C 73.32,580.482 71.377,582.424 69.505,584.298 C 67.633,586.169 65.617,588.186 63.745,589.913 C 54.241,584.514 45.241,578.682 37.321,571.697 C 39.769,574.506 42.577,577.601 45.529,580.626 C 54.384,589.409 64.465,596.969 75.193,603.953 C 73.249,605.969 71.377,607.842 69.505,609.714 C 67.561,611.657 65.617,613.602 63.745,615.402 C 54.241,610.003 45.169,604.098 37.321,597.114 C 39.769,599.923 42.505,603.09 45.601,606.042 C 54.385,614.898 64.537,622.458 75.121,629.37 C 73.32,631.386 71.377,633.331 69.505,635.202 C 67.633,637.074 65.617,639.09 63.745,640.818 C 54.241,635.419 45.241,629.586 37.321,622.602 C 39.769,625.482 42.577,628.506 45.529,631.53 C 54.384,640.314 64.465,647.874 75.193,654.858 C 73.249,656.874 71.377,658.747 69.505,660.618 C 67.561,662.562 65.617,664.507 63.745,666.306 C 52.441,659.898 41.929,652.842 33.073,643.986 C 24.145,635.058 16.945,624.474 10.537,613.098 C 12.409,611.298 14.425,609.354 16.297,607.41 C 17.665,606.114 19.033,604.674 20.401,603.378 C 16.801,598.339 13.633,593.082 10.537,587.683 C 12.409,585.882 14.353,583.866 16.297,581.995 C 17.665,580.628 19.033,579.259 20.401,577.818 C 16.873,572.851 13.705,567.667 10.537,562.195 C 12.409,560.395 14.425,558.45 16.297,556.507 C 17.665,555.211 19.033,553.771 20.401,552.474 C 16.801,547.435 13.633,542.178 10.537,536.779 C 12.409,534.979 14.425,532.962 16.297,531.091 C 18.169,529.148 20.113,527.276 21.985,525.259 C 23.713,527.924 25.441,530.444 27.241,533.035 C 26.449,530.155 26.089,527.563 26.161,525.259 C 26.377,518.852 28.465,515.539 31.561,512.947 C 34.657,510.426 38.761,509.275 43.225,509.924 C 47.185,480.475 53.161,452.252 66.266,427.772 C 77.425,406.82 94.346,389.108 113.858,372.98 C 102.409,360.236 93.914,346.7 88.729,332.948 C 77.209,302.132 100.106,283.772 118.826,289.892 C 137.616,296.084 130.847,295.508 137.257,299.396 C 133.584,276.788 128.978,252.451 134.448,228.692 C 117.746,219.62 102.553,209.036 90.097,195.715 C 81.817,186.787 74.618,176.924 68.209,166.268 C 63.745,172.316 60.073,178.364 56.905,184.34 C 58.634,186.86 59.641,190.1 59.641,193.556 C 59.641,202.34 52.945,209.612 44.953,209.612 C 36.961,209.612 30.409,202.341 30.409,193.556 C 30.409,184.7 36.961,177.426 44.953,177.426 C 45.601,177.426 46.249,177.5 46.897,177.572 C 51.001,170.372 55.897,162.74 62.089,155.54 C 56.473,144.956 51.361,133.796 46.609,122.349 C 42.505,124.077 38.185,124.077 34.585,122.493 C 30.913,120.765 28.033,118.101 26.161,111.909 C 24.361,105.717 25.081,95.493 28.537,86.205 C 32.065,76.558 37.897,66.981 44.808,59.997 C 51.721,53.228 58.201,50.493 62.521,52.221 C 66.77,53.877 69.361,60.646 69.721,68.35 C 70.081,76.053 69.289,82.461 67.633,89.518 C 65.977,96.43 63.602,103.125 60.362,108.67 C 64.321,120.982 68.57,133.006 73.466,144.381 C 84.267,135.165 97.514,126.741 112.49,118.029 C 112.418,117.452 112.346,116.733 112.346,116.013 C 112.346,107.157 118.897,99.884 126.889,99.884 C 134.879,99.884 141.576,107.156 141.576,116.013 C 141.576,124.796 134.88,132.069 126.889,132.069 C 122.858,132.069 119.186,130.197 116.522,127.245 C 101.545,136.245 88.513,145.029 78.434,154.75 C 84.192,166.558 90.889,177.356 98.954,187.006 C 109.538,199.678 122.642,209.829 137.401,218.398 C 147.336,190.246 169.944,163.894 194.423,137.182 C 178.511,120.91 177.575,99.238 191.327,66.118 C 205.15,32.998 242.303,-1.058 274.704,15.862 C 307.103,32.854 315.6,66.91 297.671,97.15 C 279.887,127.534 250.943,147.549 230.135,154.03 C 220.559,179.518 210.696,204.357 212.423,227.182 C 231.143,214.51 250.511,204.646 271.247,199.75 C 275.711,198.67 280.247,197.877 284.783,197.229 C 282.407,189.166 279.023,181.894 275.351,175.342 C 275.279,175.342 275.279,175.342 275.206,175.342 C 267.216,175.342 260.662,168.07 260.662,159.285 C 260.662,150.428 267.216,143.157 275.206,143.157 C 283.198,143.157 289.894,150.428 289.894,159.285 C 289.894,163.461 288.382,167.277 285.935,170.157 C 290.039,177.861 293.783,186.428 296.158,196.077 C 315.742,194.565 335.974,196.149 356.566,198.813 C 357.07,194.277 359.23,190.677 362.47,188.3 C 365.782,185.996 369.527,184.845 375.863,186.284 C 382.127,187.796 390.623,193.556 396.886,201.188 C 403.511,209.036 408.91,218.9 411.43,228.331 C 413.878,237.765 413.015,244.677 409.342,247.628 C 405.814,250.509 398.687,249.356 391.775,245.757 C 384.935,242.229 379.751,238.341 374.495,233.372 C 369.31,228.476 364.703,223.076 361.463,217.46 C 340.008,212.853 318.911,209.468 298.68,209.612 C 300.263,220.7 300.911,233.012 301.2,246.258 C 305.593,248.42 308.616,253.604 308.616,259.579 C 308.616,268.363 301.92,275.635 293.928,275.635 C 285.937,275.635 279.384,268.364 279.384,259.579 C 279.384,251.803 284.497,245.18 291.12,243.739 C 290.544,231.354 289.681,220.267 287.88,210.258 C 283.344,210.403 278.88,210.98 274.416,211.772 C 253.104,215.516 233.231,225.164 214.224,237.908 C 214.296,238.196 214.369,238.484 214.441,238.7 C 222.001,266.276 247.777,289.1 274.129,312.932 C 275.281,306.379 271.106,304.724 283.993,298.244 C 296.881,291.765 351.744,305.372 376.224,335.54 C 385.513,346.845 388.464,358.796 387.529,369.884 C 411.865,374.277 434.617,381.044 454.344,393.357 C 477.888,407.972 497.185,429.502 515.327,452.972 C 518.856,450.237 522.96,449.084 526.992,449.733 C 530.88,450.453 534.408,452.325 537.792,457.724 C 538.296,458.517 538.728,459.38 539.159,460.317 C 539.304,458.733 539.448,456.789 539.52,454.845 C 542.184,455.636 544.847,456.357 547.368,457.076 C 549.96,457.723 552.696,458.444 555.216,459.092 C 555.216,465.357 555.071,471.477 554.496,477.597 C 556.368,478.101 558.239,478.605 560.112,479.109 C 562.704,479.757 565.44,480.476 567.96,481.126 C 567.96,487.389 567.815,493.51 567.239,499.63 C 569.112,500.133 570.983,500.637 572.856,501.141 C 575.448,501.862 578.112,502.581 580.631,503.158 C 580.703,509.423 580.559,515.542 579.911,521.662 C 581.855,522.167 583.726,522.67 585.599,523.174 C 588.119,523.894 590.855,524.614 593.374,525.191 C 593.446,538.295 592.582,551.039 589.27,563.279 C 586.102,575.303 580.486,586.752 573.934,597.911 C 571.413,597.263 568.678,596.544 566.085,595.895 C 563.564,595.174 560.901,594.455 558.236,593.663 C 564.068,582.358 569.037,570.695 572.277,558.671 C 573.357,554.567 574.22,550.463 574.941,546.791 C 571.556,556.8 566.661,566.447 561.189,575.808 C 558.668,575.232 555.933,574.512 553.34,573.791 C 550.82,573.143 548.155,572.424 545.564,571.632 C 551.324,560.327 556.293,548.663 559.533,536.639 C 560.613,532.535 561.476,528.43 562.197,524.76 C 558.885,534.767 553.989,544.415 548.445,553.776 C 545.924,553.2 543.189,552.479 540.669,551.76 C 538.077,551.112 535.413,550.391 532.821,549.6 C 538.581,538.224 543.621,526.632 546.789,514.608 C 547.941,510.504 548.805,506.4 549.453,502.727 C 546.141,512.664 541.245,522.312 535.701,531.744 C 533.181,531.169 530.517,530.448 527.925,529.727 C 525.333,529.008 522.669,528.36 520.077,527.568 C 520.654,526.482 521.158,525.401 521.734,524.251 z"
   style="fill:none;stroke:#000000;stroke-width:7.19899988" />
					<path
   id="path3134"
   d="M 577.823,529.219 C 573.07,527.923 568.679,529.147 567.959,531.954 C 567.239,534.761 570.335,537.931 575.158,539.226 C 579.911,540.522 584.23,539.298 585.023,536.49 C 585.742,533.755 582.575,530.515 577.823,529.219 z"
   style="fill:none;stroke:#000000;stroke-width:7.19899988" />
					<path
   id="path3136"
   d="M 565.15,507.187 C 560.326,505.891 555.935,507.115 555.214,509.923 C 554.494,512.658 557.662,515.899 562.414,517.194 C 567.166,518.489 571.486,517.266 572.278,514.458 C 572.999,511.722 569.831,508.482 565.15,507.187 z"
   style="fill:none;stroke:#000000;stroke-width:7.19899988" />
					<path
   id="path3138"
   d="M 552.407,485.154 C 547.583,483.858 543.262,485.082 542.47,487.89 C 541.75,490.626 544.918,493.866 549.67,495.162 C 554.423,496.457 558.814,495.233 559.534,492.426 C 560.255,489.618 557.087,486.378 552.407,485.154 z"
   style="fill:none;stroke:#000000;stroke-width:7.19899988" />
					<path
   id="path3140"
   d="M 522.527,466.722 C 516.695,466.507 511.798,474.715 511.367,484.939 C 511.008,495.164 515.326,503.731 521.158,503.947 C 526.991,504.164 531.959,495.955 532.39,485.731 C 532.68,475.507 528.287,466.866 522.527,466.722 z"
   style="fill:none;stroke:#000000;stroke-width:7.19899988" />
					<path
   id="path3142"
   d="M 43.801,525.401 C 38.905,528.499 39.409,538.074 44.808,546.858 C 50.281,555.499 58.705,560.034 63.673,556.937 C 68.569,553.84 68.065,544.266 62.665,535.626 C 57.192,526.913 48.769,522.307 43.801,525.401 z"
   style="fill:none;stroke:#000000;stroke-width:7.19899988" />
					<path
   id="path3144"
   d="M 300.191,475.578 C 298.894,481.123 306.023,487.674 316.031,489.978 C 325.967,492.282 335.183,489.473 336.478,483.858 C 337.846,478.17 330.718,471.761 320.71,469.53 C 310.775,467.227 301.559,469.891 300.191,475.578 z"
   style="fill:none;stroke:#000000;stroke-width:7.19899988" />
					<path
   id="path3146"
   d="M 43.297,107.226 C 48.841,108.882 55.68,102.33 58.705,92.466 C 61.729,82.675 59.784,73.315 54.168,71.587 C 48.697,69.931 41.713,76.483 38.617,86.347 C 35.665,96.138 37.753,105.499 43.297,107.226 z"
   style="fill:none;stroke:#000000;stroke-width:7.19899988" />
					<path
   id="path3148"
   d="M 371.327,203.419 C 367.15,207.378 369.455,216.667 376.367,224.227 C 383.351,231.714 392.495,234.667 396.742,230.706 C 400.991,226.818 398.759,217.386 391.775,209.898 C 384.719,202.41 375.575,199.458 371.327,203.419 z"
   style="fill:none;stroke:#000000;stroke-width:7.19899988" />
					<path
   id="path3150"
   d="M 131.927,319.41 C 115.442,312.425 109.825,321.858 116.665,337.843 C 123.505,353.826 141.215,372.475 160.008,381.979 C 178.871,391.554 189.671,385.218 180.6,366.714 C 171.527,348.21 148.416,326.322 131.927,319.41 z"
   style="fill:none;stroke:#000000;stroke-width:7.19899988" />
					<path
   id="path3152"
   d="M 310.343,324.595 C 301.055,329.779 305.951,347.419 318.047,363.691 C 329.999,379.962 343.895,388.171 353.688,382.267 C 363.408,376.363 365.856,359.011 353.471,343.531 C 341.015,328.05 319.631,319.41 310.343,324.595 z"
   style="fill:none;stroke:#000000;stroke-width:7.19899988" />
					<path
   id="path3154"
   d="M 270.814,57.835 C 255.695,48.906 233.086,57.042 223.654,76.482 C 214.15,95.922 220.342,118.89 234.167,125.586 C 247.847,132.209 264.191,117.737 274.919,100.241 C 285.719,82.747 286.008,66.763 270.814,57.835 z"
   style="fill:none;stroke:#000000;stroke-width:7.19899988" />
					<path
   id="path3156"
   d="M 26.017,608.851 C 22.561,612.307 21.409,616.627 23.497,618.715 C 25.513,620.731 29.905,619.578 33.361,616.123 C 36.817,612.666 37.968,608.274 35.953,606.186 C 33.865,604.17 29.473,605.322 26.017,608.851 z"
   style="fill:none;stroke:#000000;stroke-width:7.19899988" />
					<path
   id="path3158"
   d="M 26.017,583.362 C 22.561,586.817 21.409,591.211 23.425,593.226 C 25.441,595.314 29.833,594.162 33.362,590.706 C 36.889,587.177 38.042,582.857 35.954,580.768 C 33.937,578.683 29.545,579.906 26.017,583.362 z"
   style="fill:none;stroke:#000000;stroke-width:7.19899988" />
					<path
   id="path3160"
   d="M 26.017,557.946 C 22.561,561.401 21.409,565.721 23.497,567.81 C 25.513,569.826 29.905,568.673 33.361,565.218 C 36.817,561.761 37.968,557.369 35.953,555.281 C 33.865,553.267 29.473,554.419 26.017,557.946 z"
   style="fill:none;stroke:#000000;stroke-width:7.19899988" />
				</g>
			</g>
			<g
   id="g3162">
				<g
   id="g3164">
					<path
   id="path3166"
   d="M 38.401,81.667 C 38.689,80.587 39.049,79.507 39.481,78.427 C 43.009,68.779 48.841,59.202 55.753,52.218 C 62.665,45.451 69.145,42.715 73.465,44.443 C 77.713,46.099 80.305,52.867 80.665,60.571 C 81.025,68.275 80.232,74.611 78.577,81.668 L 70.441,81.668 C 72.241,73.027 70.153,65.396 65.113,63.812 C 59.641,62.156 52.657,68.708 49.561,78.572 C 49.273,79.58 48.985,80.661 48.769,81.669 L 38.401,81.669 L 38.401,81.667 z"
   style="fill:#e6e6e6" />
					<path
   id="path3168"
   d="M 194.566,81.738 C 196.15,74.61 198.742,66.835 202.271,58.339 C 212.783,33.067 236.903,7.291 262.103,3.979 L 272.687,3.907 C 277.079,4.555 281.398,5.851 285.646,8.083 C 315.31,23.635 324.958,53.515 312.575,81.667 L 291.263,81.667 C 296.087,68.563 293.784,57.114 281.759,50.059 C 266.639,41.131 244.031,49.267 234.6,68.706 C 232.511,72.954 231.215,77.347 230.567,81.667 L 194.566,81.738 z"
   style="fill:#e6e6e6" />
					<path
   id="path3170"
   d="M 126.312,209.322 C 117.096,203.058 108.601,196.003 101.041,187.938 C 92.761,179.01 85.561,169.146 79.153,158.49 C 74.689,164.538 71.017,170.587 67.849,176.562 C 69.577,179.083 70.584,182.322 70.584,185.778 C 70.584,194.562 63.887,201.835 55.896,201.835 C 47.904,201.835 41.352,194.563 41.352,185.778 C 41.352,176.923 47.904,169.65 55.896,169.65 C 56.544,169.65 57.191,169.722 57.84,169.794 C 61.944,162.595 66.84,154.962 73.032,147.763 C 67.416,137.179 62.303,126.019 57.551,114.571 C 53.448,116.299 49.128,116.299 45.529,114.715 C 41.857,112.987 38.977,110.323 37.105,104.131 C 35.521,98.66 35.881,90.02 38.401,81.668 L 48.769,81.668 C 47.113,90.235 49.273,97.939 54.241,99.451 C 59.783,101.107 66.625,94.555 69.648,84.691 C 69.937,83.683 70.224,82.675 70.441,81.668 L 78.577,81.668 L 78.577,81.739 C 76.921,88.651 74.545,95.347 71.305,100.891 C 75.266,113.203 79.513,125.226 84.409,136.603 C 95.21,127.386 108.458,118.962 123.434,110.251 C 123.362,109.675 123.289,108.954 123.289,108.234 C 123.289,99.378 129.839,92.106 137.831,92.106 C 145.823,92.106 152.519,99.377 152.519,108.234 C 152.519,117.018 145.823,124.29 137.831,124.29 C 133.799,124.29 130.127,122.419 127.465,119.466 C 112.489,128.466 99.457,137.251 89.377,146.971 C 95.137,158.779 101.833,169.578 109.897,179.226 C 119.977,191.251 132.288,201.042 146.184,209.323 L 126.312,209.323 L 126.312,209.322 z"
   style="fill:#e6e6e6" />
					<path
   id="path3172"
   d="M 148.775,209.322 C 158.999,181.675 181.247,155.682 205.367,129.402 C 193.558,117.306 189.959,102.258 194.566,81.738 L 230.566,81.667 C 228.119,97.362 234.31,112.555 245.111,117.811 C 258.791,124.435 275.134,109.962 285.863,92.466 C 288.167,88.794 289.967,85.195 291.262,81.667 L 312.574,81.667 C 311.422,84.259 310.126,86.851 308.614,89.37 C 290.83,119.755 261.885,139.77 241.078,146.251 C 232.87,167.994 224.518,189.306 223.294,209.322 L 148.775,209.322 z"
   style="fill:#e6e6e6" />
					<path
   id="path3174"
   d="M 239.495,209.322 C 253.175,201.546 267.359,195.499 282.191,191.97 C 286.654,190.89 291.191,190.098 295.728,189.449 C 293.351,181.386 289.966,174.114 286.294,167.562 C 286.222,167.562 286.222,167.562 286.149,167.562 C 278.157,167.562 271.606,160.29 271.606,151.506 C 271.606,142.65 278.157,135.377 286.149,135.377 C 294.141,135.377 300.837,142.649 300.837,151.506 C 300.837,155.682 299.325,159.498 296.877,162.377 C 300.981,170.082 304.725,178.649 307.102,188.297 C 326.686,186.785 346.917,188.369 367.51,191.033 C 368.013,186.498 370.173,182.897 373.413,180.521 C 376.725,178.216 380.469,177.065 386.805,178.505 C 393.069,180.017 401.565,185.776 407.829,193.408 C 411.861,198.16 415.389,203.632 418.125,209.32 L 407.757,209.32 C 406.533,206.872 404.877,204.423 402.717,202.12 C 395.661,194.632 386.518,191.681 382.27,195.641 C 379.389,198.376 379.606,203.777 382.341,209.321 L 370.749,209.321 C 349.869,204.929 329.35,201.689 309.621,201.834 C 309.98,204.28 310.269,206.73 310.557,209.25 L 299.902,209.321 C 299.542,207.017 299.254,204.713 298.822,202.481 C 294.286,202.625 289.822,203.201 285.358,203.993 C 278.518,205.217 271.893,207.017 265.341,209.321 L 239.495,209.321 L 239.495,209.322 z"
   style="fill:#e6e6e6" />
					<path
   id="path3176"
   d="M 108.889,343.891 C 105.145,337.771 102.049,331.507 99.673,325.171 C 88.153,294.354 111.049,275.994 129.768,282.113 C 148.559,288.305 141.791,287.73 148.2,291.618 C 144.528,269.011 139.92,244.675 145.391,220.915 C 138.768,217.314 132.431,213.499 126.313,209.322 L 146.184,209.322 C 146.904,209.755 147.623,210.186 148.343,210.618 C 148.488,210.186 148.631,209.755 148.776,209.322 L 223.296,209.322 C 223.08,212.706 223.151,216.091 223.368,219.401 C 228.696,215.801 234.024,212.419 239.496,209.322 L 265.344,209.322 C 251.448,214.218 238.128,221.49 225.168,230.13 C 225.24,230.419 225.312,230.706 225.384,230.923 C 232.945,258.499 258.72,281.322 285.072,305.154 C 286.224,298.602 282.049,296.946 294.937,290.466 C 307.825,283.987 362.689,297.595 387.168,327.763 C 391.488,333.018 394.44,338.491 396.314,343.891 L 369.6,343.891 C 368.303,341.227 366.576,338.419 364.415,335.755 C 351.959,320.275 330.575,311.634 321.287,316.818 C 314.303,320.706 315.31,331.721 321.503,343.89 L 181.823,343.89 C 170.734,329.922 154.967,316.746 142.871,311.633 C 126.385,304.65 120.769,314.082 127.609,330.065 C 129.55,334.53 132.287,339.21 135.742,343.89 L 108.889,343.89 L 108.889,343.891 z"
   style="fill:#e6e6e6" />
					<path
   id="path3178"
   d="M 299.903,209.322 C 300.982,217.458 301.631,226.314 302.062,235.962 C 295.439,237.401 290.327,244.026 290.327,251.802 C 290.327,260.587 296.879,267.859 304.871,267.859 C 312.863,267.859 319.559,260.588 319.559,251.802 C 319.559,245.826 316.536,240.643 312.143,238.483 C 311.927,228.115 311.496,218.323 310.559,209.252 L 299.903,209.322 z"
   style="fill:#e6e6e6" />
					<path
   id="path3180"
   d="M 370.751,209.322 C 371.255,209.466 371.831,209.538 372.407,209.682 C 375.646,215.297 380.255,220.698 385.439,225.594 C 390.695,230.562 395.878,234.448 402.718,237.978 C 409.63,241.578 416.758,242.73 420.287,239.85 C 423.958,236.898 424.823,229.986 422.374,220.553 C 421.366,216.81 419.926,213.066 418.126,209.322 L 407.758,209.322 C 410.494,214.866 410.638,220.266 407.687,222.93 C 403.439,226.89 394.294,223.938 387.312,216.449 C 385.222,214.146 383.566,211.698 382.342,209.322 L 370.751,209.322 L 370.751,209.322 z"
   style="fill:#e6e6e6" />
					<path
   id="path3182"
   d="M 78.721,417.259 C 89.881,397.458 106.154,380.611 124.801,365.202 C 118.61,358.29 113.281,351.163 108.889,343.89 L 135.743,343.89 C 144.456,355.77 157.416,367.362 170.952,374.202 C 189.815,383.778 200.616,377.442 191.544,358.938 C 189.168,354.042 185.784,348.93 181.824,343.89 L 321.504,343.89 C 323.521,347.85 326.04,351.953 328.992,355.914 C 340.944,372.185 354.84,380.393 364.632,374.489 C 372.696,369.593 375.72,356.922 369.601,343.889 L 396.314,343.889 C 398.4,350.081 398.976,356.201 398.472,362.105 C 422.808,366.498 445.56,373.265 465.288,385.577 C 479.04,394.073 491.352,405.017 502.8,417.258 L 482.857,417.258 C 475.513,409.409 467.593,402.281 459.025,396.306 C 440.88,383.562 419.497,376.362 396.601,371.969 C 392.353,386.442 381.984,398.825 371.329,405.81 C 350.449,419.418 327.121,404.226 308.113,370.026 C 297.457,376.146 286.009,383.274 272.329,385.721 C 276.937,396.666 282.986,407.106 290.041,417.258 L 272.833,417.258 C 267.219,407.178 262.393,396.881 258.865,386.154 C 250.728,385.146 242.089,382.482 233.16,379.747 C 241.01,399.978 236.905,413.011 225.169,417.331 L 203.497,417.259 C 196.585,415.603 188.881,412.578 180.601,408.042 C 161.521,397.675 144.96,385.507 131.64,372.331 C 115.947,385.722 102.267,400.41 92.546,417.259 L 78.721,417.259 L 78.721,417.259 z"
   style="fill:#e6e6e6" />
					<path
   id="path3184"
   d="M 57.265,482.347 C 61.225,460.099 67.057,438.931 77.209,419.994 C 77.713,419.058 78.217,418.122 78.721,417.259 L 92.545,417.259 C 90.889,420.21 89.377,423.163 87.936,426.187 C 80.018,443.323 75.698,462.332 73.321,482.347 L 57.265,482.347 z"
   style="fill:#e6e6e6" />
					<path
   id="path3186"
   d="M 300.982,482.347 C 300.046,481.627 299.254,480.907 298.535,480.187 C 294.142,475.435 293.207,471.619 293.639,467.659 C 293.927,463.628 296.159,460.027 299.759,457.291 C 289.823,444.259 280.535,431.012 272.831,417.26 L 290.039,417.26 C 298.391,429.211 308.039,440.804 318.335,452.252 C 324.814,452.179 331.871,453.476 338.639,455.491 C 345.551,457.579 351.528,460.027 357.936,464.275 C 364.631,468.379 369.096,473.995 368.375,478.603 C 368.158,479.899 367.654,481.124 366.719,482.347 L 339.575,482.347 C 343.751,481.339 346.703,479.107 347.423,476.082 C 348.791,470.394 341.663,463.986 331.654,461.755 C 321.718,459.45 312.503,462.114 311.134,467.803 C 309.838,473.347 316.966,479.899 326.974,482.202 C 327.191,482.274 327.478,482.347 327.695,482.347 L 300.982,482.347 L 300.982,482.347 z"
   style="fill:#e6e6e6" />
					<path
   id="path3188"
   d="M 514.463,482.347 C 514.247,475.219 514.895,468.09 516.551,461.899 C 506.039,445.699 495.167,430.363 482.856,417.259 L 502.799,417.259 C 510.936,425.97 518.711,435.403 526.272,445.195 C 529.799,442.459 533.904,441.307 537.936,441.955 C 541.824,442.675 545.352,444.547 548.735,449.947 C 549.239,450.739 549.672,451.603 550.104,452.539 C 550.248,450.955 550.391,449.012 550.463,447.067 C 553.127,447.859 555.791,448.579 558.311,449.299 C 560.904,449.946 563.639,450.666 566.159,451.315 C 566.159,457.579 566.016,463.699 565.44,469.819 C 567.311,470.323 569.184,470.827 571.055,471.332 C 573.647,471.979 576.383,472.699 578.904,473.348 C 578.904,476.371 578.904,479.396 578.759,482.348 L 570.263,482.348 C 569.399,480.259 566.807,478.244 563.352,477.379 C 558.528,476.083 554.207,477.308 553.415,480.115 C 553.199,480.836 553.343,481.628 553.631,482.347 L 542.831,482.347 C 543.119,480.979 543.263,479.466 543.335,477.954 C 543.623,467.73 539.231,459.09 533.471,458.946 C 527.639,458.73 522.742,466.938 522.311,477.163 C 522.239,478.962 522.311,480.69 522.528,482.347 L 514.463,482.347 L 514.463,482.347 z"
   style="fill:#e6e6e6" />
					<path
   id="path3190"
   d="M 203.495,417.259 C 212.135,419.419 219.551,419.347 225.167,417.331 L 203.495,417.259 z"
   style="fill:#e6e6e6" />
					<path
   id="path3192"
   d="M 43.585,504.378 C 46.537,502.435 50.209,501.57 54.168,502.147 C 55.033,495.45 56.04,488.827 57.265,482.347 L 73.32,482.347 C 72.457,489.546 71.808,496.891 71.377,504.378 L 43.585,504.378 z"
   style="fill:#e6e6e6" />
					<path
   id="path3194"
   d="M 518.279,504.378 C 518.134,504.09 518.062,503.731 517.919,503.37 C 515.615,495.954 514.751,489.546 514.463,482.347 L 522.527,482.347 C 523.535,490.123 527.279,496.027 532.103,496.17 C 537.07,496.386 541.39,490.41 542.831,482.347 L 553.631,482.347 C 554.495,484.435 557.158,486.45 560.615,487.386 C 565.367,488.683 569.759,487.458 570.478,484.651 C 570.695,483.931 570.55,483.138 570.262,482.347 L 578.758,482.347 C 578.687,485.515 578.47,488.683 578.183,491.851 C 580.054,492.355 581.926,492.859 583.798,493.363 C 586.39,494.083 589.054,494.803 591.574,495.379 C 591.574,498.403 591.574,501.426 591.502,504.379 L 583.007,504.379 C 582.069,502.291 579.478,500.348 576.095,499.411 C 571.271,498.115 566.878,499.34 566.157,502.147 C 565.942,502.867 566.086,503.659 566.374,504.378 L 558.382,504.378 C 559.246,501.138 559.894,497.899 560.398,494.946 C 559.319,498.114 558.095,501.282 556.798,504.378 L 518.279,504.378 z"
   style="fill:#e6e6e6" />
					<path
   id="path3196"
   d="M 300.982,482.347 C 305.878,486.163 313.726,489.618 322.007,490.987 C 332.086,492.787 343.319,492.5 352.75,489.979 C 359.591,488.178 364.342,485.443 366.718,482.347 L 339.574,482.347 C 336.19,483.211 332.013,483.283 327.694,482.347 L 300.982,482.347 z"
   style="fill:#e6e6e6" />
					<path
   id="path3198"
   d="M 24.145,526.41 C 25.153,525.401 26.233,524.322 27.241,523.314 C 29.113,521.37 31.057,519.499 32.929,517.482 C 34.657,520.146 36.385,522.666 38.185,525.257 C 37.393,522.377 37.033,519.785 37.105,517.482 C 37.321,511.074 39.409,507.761 42.505,505.17 C 42.865,504.882 43.225,504.595 43.585,504.378 L 71.377,504.378 C 71.232,506.826 71.089,509.274 70.945,511.722 C 74.976,515.826 78.648,520.867 81.816,526.41 L 72.672,526.41 C 67.2,518.634 59.423,514.674 54.744,517.627 C 52.224,519.211 51.144,522.449 51.432,526.41 L 24.145,526.41 z"
   style="fill:#e6e6e6" />
					<path
   id="path3200"
   d="M 550.967,526.41 C 553.631,520.003 556.008,513.449 557.735,506.826 C 557.952,506.034 558.168,505.17 558.383,504.378 L 566.375,504.378 C 567.238,506.466 569.903,508.482 573.359,509.419 C 578.111,510.715 582.43,509.49 583.222,506.683 C 583.439,505.961 583.294,505.17 583.007,504.378 L 591.502,504.378 C 591.358,507.546 591.214,510.715 590.855,513.882 C 592.798,514.386 594.67,514.891 596.543,515.395 C 599.063,516.115 601.799,516.835 604.319,517.411 C 604.319,520.435 604.319,523.387 604.174,526.411 L 595.75,526.411 C 594.813,524.323 592.222,522.379 588.767,521.443 C 584.015,520.147 579.622,521.371 578.903,524.178 C 578.687,524.899 578.758,525.691 579.047,526.41 L 571.127,526.41 C 571.919,523.17 572.566,519.931 573.143,516.978 C 572.063,520.146 570.912,523.314 569.543,526.41 L 550.967,526.41 z"
   style="fill:#e6e6e6" />
					<path
   id="path3202"
   d="M 518.279,504.378 C 520.654,511.29 524.758,516.618 529.079,517.05 C 530.23,517.195 531.455,516.979 532.68,516.474 C 532.104,517.627 531.6,518.707 531.024,519.786 C 533.616,520.578 536.28,521.226 538.872,521.946 C 541.464,522.666 544.128,523.385 546.647,523.961 C 550.391,517.554 553.919,511.003 556.799,504.378 L 518.279,504.378 L 518.279,504.378 z"
   style="fill:#e6e6e6" />
					<path
   id="path3204"
   d="M 22.201,553.771 C 23.857,552.115 25.585,550.459 27.241,548.731 C 28.609,547.435 29.977,545.995 31.345,544.699 C 27.745,539.659 24.577,534.402 21.481,529.004 C 22.345,528.139 23.209,527.275 24.145,526.411 L 51.433,526.411 C 51.649,530.3 53.089,534.763 55.753,539.083 C 61.225,547.723 69.649,552.259 74.617,549.164 C 79.513,546.067 79.009,536.491 73.609,527.852 C 73.32,527.348 72.961,526.844 72.672,526.412 L 81.816,526.412 C 82.176,527.06 82.537,527.78 82.896,528.427 C 86.353,534.764 88.8,540.813 90.457,548.372 C 90.889,550.244 91.177,552.044 91.249,553.772 L 46.969,553.772 C 48.192,551.324 48.265,548.876 46.897,547.508 C 44.808,545.491 40.417,546.644 36.961,550.171 C 35.809,551.323 34.945,552.547 34.297,553.772 L 22.201,553.772 L 22.201,553.771 z"
   style="fill:#e6e6e6" />
					<path
   id="path3206"
   d="M 561.335,553.771 C 565.008,545.634 568.175,537.354 570.479,528.859 C 570.696,528.067 570.912,527.203 571.127,526.411 L 579.047,526.411 C 579.911,528.5 582.503,530.515 586.104,531.45 C 590.856,532.748 595.175,531.523 595.967,528.716 C 596.184,527.995 596.039,527.203 595.751,526.411 L 604.175,526.411 C 603.887,535.771 602.879,544.914 600.647,553.771 L 582.431,553.771 C 582.719,552.835 582.936,551.827 583.223,550.89 C 584.303,546.786 585.167,542.683 585.887,539.011 C 584.158,544.05 582.143,548.947 579.768,553.771 L 561.335,553.771 z"
   style="fill:#e6e6e6" />
					<path
   id="path3208"
   d="M 550.967,526.41 C 548.807,531.595 546.36,536.707 543.768,541.818 C 546.36,542.61 549.024,543.331 551.616,543.978 C 554.136,544.698 556.872,545.418 559.391,545.994 C 563.207,539.586 566.663,533.106 569.543,526.41 L 550.967,526.41 z"
   style="fill:#e6e6e6" />
					<path
   id="path3210"
   d="M 22.201,579.187 C 23.857,577.603 25.513,575.875 27.241,574.219 C 28.609,572.851 29.977,571.483 31.345,570.042 C 27.817,565.074 24.649,559.89 21.481,554.419 C 21.697,554.202 21.985,553.986 22.201,553.771 L 34.297,553.771 C 33.073,556.219 33.073,558.667 34.441,560.035 C 36.457,562.051 40.849,560.899 44.305,557.443 C 45.457,556.291 46.393,554.995 46.969,553.771 L 91.249,553.771 C 91.609,559.099 90.385,563.708 87.648,565.722 C 85.992,566.947 83.689,567.523 80.88,567.235 C 82.609,568.386 84.336,569.539 86.064,570.691 C 84.265,572.708 82.32,574.651 80.449,576.523 C 79.585,577.386 78.72,578.252 77.785,579.187 L 69.648,579.187 C 62.016,574.579 54.745,569.683 48.265,563.923 C 50.713,566.731 53.521,569.826 56.473,572.851 C 58.705,575.082 61.009,577.17 63.313,579.187 L 47.041,579.187 C 48.265,576.739 48.265,574.363 46.897,572.995 C 44.881,570.907 40.489,572.132 36.961,575.587 C 35.809,576.739 34.945,577.962 34.297,579.188 L 22.201,579.188 L 22.201,579.187 z"
   style="fill:#e6e6e6" />
					<path
   id="path3212"
   d="M 572.495,579.187 C 576.455,570.907 579.839,562.483 582.431,553.771 L 600.647,553.771 C 600.503,554.347 600.36,554.923 600.215,555.5 C 598.055,563.635 594.815,571.483 590.856,579.188 L 572.495,579.188 L 572.495,579.187 z"
   style="fill:#e6e6e6" />
					<path
   id="path3214"
   d="M 561.335,553.771 C 559.823,557.155 558.167,560.539 556.512,563.851 C 559.104,564.643 561.768,565.363 564.287,566.011 C 566.879,566.731 569.615,567.449 572.135,568.027 C 574.871,563.347 577.463,558.595 579.768,553.771 L 561.335,553.771 z"
   style="fill:#e6e6e6" />
					<path
   id="path3216"
   d="M 22.201,604.674 C 23.857,603.019 25.585,601.362 27.241,599.634 C 28.609,598.339 29.977,596.899 31.345,595.603 C 27.745,590.563 24.577,585.306 21.481,579.907 C 21.697,579.691 21.985,579.474 22.201,579.187 L 34.297,579.187 C 33.073,581.708 33.001,584.083 34.369,585.45 C 36.385,587.54 40.777,586.387 44.305,582.931 C 45.53,581.707 46.393,580.483 47.041,579.187 L 63.313,579.187 C 70.441,585.378 78.073,590.923 86.137,596.178 C 84.192,598.195 82.321,600.067 80.449,601.939 C 79.512,602.875 78.577,603.811 77.713,604.674 L 69.649,604.674 C 61.946,600.067 54.673,595.099 48.266,589.339 C 50.714,592.147 53.45,595.315 56.546,598.267 C 58.706,600.499 61.01,602.586 63.386,604.674 L 46.969,604.674 C 48.192,602.227 48.265,599.778 46.897,598.41 C 44.808,596.394 40.417,597.546 36.961,601.074 C 35.809,602.226 34.945,603.45 34.297,604.674 L 22.201,604.674 z"
   style="fill:#e6e6e6" />
					<path
   id="path3218"
   d="M 69.648,579.187 C 71.304,580.195 72.96,581.203 74.689,582.138 C 75.697,581.202 76.777,580.195 77.785,579.187 L 69.648,579.187 z"
   style="fill:#e6e6e6" />
					<path
   id="path3220"
   d="M 572.495,579.187 C 571.415,581.419 570.335,583.651 569.183,585.882 C 571.846,586.674 574.511,587.395 577.031,588.114 C 579.623,588.761 582.359,589.482 584.879,590.131 C 586.967,586.53 588.983,582.859 590.856,579.187 L 572.495,579.187 L 572.495,579.187 z"
   style="fill:#e6e6e6" />
					<path
   id="path3222"
   d="M 22.201,604.674 C 21.985,604.891 21.697,605.107 21.481,605.322 C 27.889,616.698 35.089,627.282 44.017,636.211 C 52.873,645.066 63.385,652.123 74.689,658.53 C 76.56,656.73 78.504,654.786 80.449,652.842 C 82.32,650.969 84.191,649.098 86.137,647.081 C 75.408,640.098 65.329,632.538 56.473,623.753 C 53.521,620.73 50.713,617.706 48.265,614.825 C 56.185,621.809 65.185,627.641 74.689,633.041 C 76.56,631.313 78.577,629.298 80.449,627.426 C 82.32,625.553 84.265,623.61 86.064,621.594 C 78.144,616.409 70.441,610.865 63.384,604.673 L 46.969,604.673 C 46.393,605.898 45.457,607.194 44.305,608.345 C 40.849,611.802 36.457,612.953 34.441,610.938 C 33.073,609.57 33.073,607.123 34.297,604.673 L 22.201,604.673 L 22.201,604.674 z"
   style="fill:#e6e6e6" />
					<path
   id="path3224"
   d="M 69.648,604.674 C 71.304,605.683 72.96,606.691 74.689,607.627 C 75.697,606.69 76.705,605.683 77.712,604.674 L 69.648,604.674 z"
   style="fill:#e6e6e6" />
				</g>
				<g
   id="g3226">
					<path
   id="path3228"
   d="M 532.68,516.474 C 531.455,516.979 530.231,517.195 529.079,517.05 C 524.543,516.618 520.223,510.715 517.919,503.37 C 515.615,495.954 514.751,489.546 514.463,482.347 C 514.247,475.219 514.895,468.09 516.551,461.899 C 499.776,435.979 481.919,412.291 459.024,396.307 C 440.879,383.563 419.496,376.363 396.6,371.97 C 392.352,386.443 381.983,398.826 371.328,405.811 C 350.448,419.419 327.12,404.227 308.112,370.027 C 297.456,376.147 286.008,383.275 272.328,385.722 C 282.336,409.483 299.328,431.082 318.336,452.251 C 324.815,452.178 331.872,453.475 338.64,455.49 C 345.552,457.578 351.529,460.026 357.937,464.274 C 364.632,468.378 369.097,473.994 368.376,478.602 C 367.728,483.21 362.185,487.457 352.752,489.978 C 343.32,492.499 332.088,492.786 322.009,490.986 C 312.216,489.331 303,484.866 298.536,480.186 C 294.143,475.434 293.208,471.618 293.64,467.658 C 293.928,463.627 296.16,460.026 299.76,457.29 C 282.48,434.61 267.218,411.354 258.864,386.154 C 250.727,385.146 242.088,382.482 233.159,379.747 C 247.704,417.402 221.063,430.074 180.6,408.042 C 161.52,397.675 144.959,385.507 131.639,372.331 C 113.209,388.026 97.585,405.522 87.936,426.186 C 76.202,451.53 72.457,480.906 70.946,511.721 C 75.481,516.33 79.513,522.089 82.897,528.424 C 86.354,534.761 88.801,540.81 90.458,548.369 C 92.187,555.857 91.321,563.057 87.649,565.721 C 85.993,566.946 83.69,567.522 80.881,567.234 C 82.61,568.385 84.337,569.538 86.065,570.69 C 84.266,572.707 82.321,574.65 80.45,576.522 C 78.578,578.394 76.561,580.41 74.69,582.137 C 65.186,576.738 56.186,570.906 48.266,563.922 C 50.714,566.73 53.522,569.825 56.474,572.85 C 65.33,581.633 75.41,589.194 86.138,596.177 C 84.193,598.194 82.322,600.066 80.45,601.938 C 78.506,603.881 76.561,605.826 74.69,607.626 C 65.186,602.226 56.113,596.321 48.266,589.338 C 50.714,592.146 53.45,595.314 56.546,598.266 C 65.33,607.122 75.482,614.682 86.066,621.594 C 84.267,623.61 82.322,625.553 80.451,627.426 C 78.579,629.298 76.562,631.314 74.691,633.041 C 65.187,627.642 56.187,621.81 48.267,614.825 C 50.715,617.706 53.523,620.729 56.475,623.753 C 65.331,632.538 75.411,640.098 86.139,647.081 C 84.194,649.098 82.323,650.969 80.451,652.842 C 78.507,654.785 76.562,656.73 74.691,658.53 C 63.386,652.123 52.875,645.066 44.019,636.211 C 35.091,627.282 27.891,616.698 21.483,605.322 C 23.355,603.522 25.371,601.578 27.243,599.634 C 28.611,598.339 29.979,596.899 31.347,595.603 C 27.747,590.563 24.579,585.306 21.483,579.907 C 23.355,578.107 25.299,576.091 27.243,574.219 C 28.611,572.851 29.979,571.483 31.347,570.042 C 27.819,565.074 24.651,559.89 21.483,554.419 C 23.355,552.618 25.371,550.674 27.243,548.731 C 28.611,547.435 29.979,545.995 31.347,544.699 C 27.747,539.659 24.579,534.402 21.483,529.004 C 23.355,527.203 25.371,525.188 27.243,523.316 C 29.115,521.372 31.059,519.501 32.931,517.484 C 34.659,520.148 36.387,522.668 38.187,525.259 C 37.395,522.379 37.035,519.787 37.107,517.484 C 37.323,511.076 39.411,507.763 42.507,505.172 C 45.603,502.652 49.707,501.501 54.17,502.149 C 58.131,472.701 64.108,444.477 77.211,419.997 C 88.371,399.045 105.291,381.334 124.803,365.205 C 113.356,352.461 104.86,338.926 99.675,325.174 C 88.155,294.357 111.051,275.997 129.77,282.116 C 148.561,288.308 141.793,287.733 148.202,291.621 C 144.53,269.014 139.922,244.678 145.393,220.918 C 128.69,211.846 113.499,201.262 101.043,187.941 C 92.763,179.013 85.563,169.149 79.155,158.493 C 74.691,164.541 71.019,170.59 67.851,176.565 C 69.579,179.086 70.586,182.325 70.586,185.781 C 70.586,194.565 63.889,201.838 55.898,201.838 C 47.906,201.838 41.354,194.566 41.354,185.781 C 41.354,176.926 47.906,169.653 55.898,169.653 C 56.546,169.653 57.193,169.725 57.842,169.797 C 61.946,162.598 66.842,154.965 73.034,147.766 C 67.418,137.182 62.305,126.022 57.553,114.574 C 53.45,116.302 49.13,116.302 45.531,114.718 C 41.859,112.99 38.979,110.326 37.107,104.134 C 35.307,97.943 36.027,87.718 39.483,78.431 C 43.011,68.783 48.843,59.206 55.755,52.222 C 62.667,45.455 69.147,42.719 73.467,44.447 C 77.715,46.103 80.307,52.871 80.667,60.575 C 81.027,68.279 80.234,74.687 78.579,81.743 C 76.923,88.655 74.547,95.351 71.307,100.895 C 75.268,113.207 79.515,125.23 84.411,136.607 C 95.212,127.39 108.46,118.966 123.436,110.255 C 123.364,109.679 123.291,108.958 123.291,108.238 C 123.291,99.382 129.841,92.11 137.833,92.11 C 145.825,92.11 152.521,99.381 152.521,108.238 C 152.521,117.022 145.825,124.294 137.833,124.294 C 133.801,124.294 130.129,122.423 127.467,119.47 C 112.491,128.47 99.459,137.255 89.379,146.975 C 95.139,158.783 101.835,169.582 109.899,179.23 C 120.483,191.903 133.586,202.054 148.345,210.623 C 158.282,182.471 180.889,156.119 205.369,129.407 C 189.457,113.135 188.521,91.463 202.273,58.344 C 216.097,25.223 253.249,-8.833 285.648,8.088 C 318.048,25.08 326.544,59.135 308.617,89.376 C 290.833,119.761 261.888,139.776 241.081,146.257 C 231.505,171.744 221.641,196.584 223.369,219.407 C 242.089,206.736 261.457,196.872 282.193,191.976 C 286.656,190.896 291.193,190.104 295.73,189.455 C 293.353,181.392 289.968,174.12 286.296,167.568 C 286.224,167.568 286.224,167.568 286.151,167.568 C 278.159,167.568 271.608,160.296 271.608,151.512 C 271.608,142.656 278.159,135.383 286.151,135.383 C 294.143,135.383 300.839,142.655 300.839,151.512 C 300.839,155.688 299.327,159.504 296.879,162.383 C 300.983,170.088 304.727,178.655 307.104,188.303 C 326.688,186.791 346.919,188.375 367.512,191.039 C 368.015,186.504 370.175,182.903 373.415,180.527 C 376.727,178.222 380.471,177.071 386.807,178.511 C 393.071,180.023 401.567,185.782 407.831,193.414 C 414.455,201.263 419.855,211.126 422.375,220.558 C 424.824,229.991 423.959,236.903 420.288,239.855 C 416.759,242.735 409.631,241.583 402.719,237.983 C 395.879,234.454 390.696,230.567 385.44,225.599 C 380.255,220.703 375.647,215.302 372.408,209.687 C 350.952,205.079 329.856,201.695 309.624,201.839 C 311.208,212.927 311.856,225.237 312.144,238.486 C 316.537,240.646 319.56,245.83 319.56,251.805 C 319.56,260.59 312.865,267.862 304.872,267.862 C 296.879,267.862 290.328,260.591 290.328,251.805 C 290.328,244.03 295.44,237.405 302.063,235.965 C 301.488,223.581 300.624,212.493 298.824,202.486 C 294.288,202.63 289.824,203.206 285.36,203.998 C 264.048,207.742 244.175,217.39 225.168,230.134 C 225.24,230.423 225.312,230.71 225.384,230.927 C 232.945,258.503 258.72,281.326 285.072,305.158 C 286.224,298.606 282.049,296.95 294.937,290.47 C 307.825,283.991 362.689,297.599 387.168,327.767 C 396.456,339.071 399.408,351.023 398.472,362.111 C 422.808,366.504 445.56,373.271 465.288,385.583 C 488.832,400.199 508.128,421.727 526.272,445.199 C 529.799,442.463 533.904,441.311 537.936,441.959 C 541.824,442.679 545.352,444.551 548.735,449.951 C 549.239,450.743 549.672,451.607 550.104,452.543 C 550.248,450.959 550.391,449.016 550.463,447.071 C 553.127,447.863 555.791,448.583 558.311,449.303 C 560.904,449.95 563.639,450.67 566.159,451.319 C 566.159,457.583 566.016,463.703 565.44,469.823 C 567.311,470.327 569.184,470.831 571.055,471.336 C 573.647,471.983 576.383,472.703 578.904,473.352 C 578.904,479.616 578.759,485.736 578.184,491.856 C 580.055,492.36 581.927,492.864 583.799,493.368 C 586.391,494.088 589.055,494.808 591.575,495.384 C 591.646,501.649 591.503,507.768 590.855,513.888 C 592.798,514.392 594.67,514.897 596.543,515.401 C 599.063,516.121 601.799,516.841 604.319,517.417 C 604.39,530.521 603.527,543.265 600.215,555.506 C 597.047,567.529 591.431,578.977 584.879,590.138 C 582.359,589.49 579.623,588.769 577.031,588.121 C 574.511,587.401 571.846,586.681 569.183,585.889 C 575.015,574.585 579.982,562.92 583.222,550.897 C 584.302,546.793 585.166,542.69 585.886,539.018 C 582.502,549.026 577.607,558.673 572.134,568.034 C 569.614,567.457 566.878,566.738 564.286,566.018 C 561.766,565.37 559.102,564.65 556.511,563.858 C 562.271,552.553 567.238,540.889 570.478,528.866 C 571.558,524.762 572.423,520.658 573.142,516.986 C 569.83,526.994 564.935,536.641 559.39,546.002 C 556.87,545.427 554.134,544.706 551.615,543.986 C 549.023,543.339 546.359,542.618 543.767,541.826 C 549.527,530.45 554.566,518.858 557.734,506.834 C 558.886,502.73 559.751,498.626 560.398,494.954 C 557.086,504.89 552.191,514.538 546.646,523.969 C 544.126,523.394 541.462,522.674 538.871,521.954 C 536.28,521.234 533.615,520.586 531.023,519.794 C 531.6,518.707 532.104,517.627 532.68,516.474 z"
   style="fill:none;stroke:#000000;stroke-width:7.19899988" />
					<path
   id="path3230"
   d="M 588.768,521.442 C 584.016,520.146 579.623,521.37 578.904,524.177 C 578.184,526.986 581.28,530.154 586.104,531.448 C 590.856,532.746 595.175,531.521 595.967,528.714 C 596.688,525.979 593.52,522.738 588.768,521.442 z"
   style="fill:none;stroke:#000000;stroke-width:7.19899988" />
					<path
   id="path3232"
   d="M 576.096,499.41 C 571.272,498.114 566.879,499.339 566.158,502.146 C 565.439,504.881 568.607,508.123 573.359,509.418 C 578.111,510.713 582.43,509.489 583.222,506.682 C 583.943,503.946 580.775,500.707 576.096,499.41 z"
   style="fill:none;stroke:#000000;stroke-width:7.19899988" />
					<path
   id="path3234"
   d="M 563.352,477.378 C 558.528,476.082 554.207,477.307 553.415,480.114 C 552.695,482.85 555.863,486.09 560.615,487.385 C 565.367,488.682 569.759,487.457 570.478,484.65 C 571.199,481.843 568.031,478.603 563.352,477.378 z"
   style="fill:none;stroke:#000000;stroke-width:7.19899988" />
					<path
   id="path3236"
   d="M 533.471,458.946 C 527.639,458.73 522.742,466.938 522.311,477.163 C 521.952,487.386 526.272,495.954 532.104,496.17 C 537.936,496.386 542.904,488.178 543.335,477.954 C 543.623,467.73 539.23,459.09 533.471,458.946 z"
   style="fill:none;stroke:#000000;stroke-width:7.19899988" />
					<path
   id="path3238"
   d="M 54.745,517.627 C 49.849,520.722 50.353,530.299 55.753,539.082 C 61.225,547.722 69.649,552.258 74.617,549.163 C 79.513,546.066 79.009,536.49 73.609,527.851 C 68.137,519.138 59.713,514.53 54.745,517.627 z"
   style="fill:none;stroke:#000000;stroke-width:7.19899988" />
					<path
   id="path3240"
   d="M 311.135,467.803 C 309.839,473.347 316.967,479.899 326.975,482.202 C 336.912,484.507 346.127,481.698 347.423,476.082 C 348.791,470.394 341.663,463.986 331.654,461.755 C 321.719,459.45 312.503,462.114 311.135,467.803 z"
   style="fill:none;stroke:#000000;stroke-width:7.19899988" />
					<path
   id="path3242"
   d="M 54.241,99.45 C 59.783,101.106 66.625,94.554 69.648,84.69 C 72.672,74.898 70.728,65.538 65.113,63.81 C 59.641,62.154 52.657,68.706 49.561,78.57 C 46.609,88.362 48.697,97.723 54.241,99.45 z"
   style="fill:none;stroke:#000000;stroke-width:7.19899988" />
					<path
   id="path3244"
   d="M 382.271,195.643 C 378.095,199.603 380.398,208.891 387.312,216.45 C 394.294,223.939 403.439,226.891 407.687,222.931 C 411.935,219.042 409.704,209.611 402.718,202.122 C 395.663,194.634 386.52,191.683 382.271,195.643 z"
   style="fill:none;stroke:#000000;stroke-width:7.19899988" />
					<path
   id="path3246"
   d="M 142.871,311.634 C 126.385,304.651 120.769,314.083 127.609,330.066 C 134.447,346.05 152.158,364.699 170.951,374.203 C 189.814,383.779 200.615,377.443 191.543,358.939 C 182.471,340.435 159.359,318.546 142.871,311.634 z"
   style="fill:none;stroke:#000000;stroke-width:7.19899988" />
					<path
   id="path3248"
   d="M 321.287,316.818 C 311.999,322.003 316.894,339.642 328.991,355.915 C 340.943,372.186 354.839,380.394 364.631,374.49 C 374.352,368.587 376.799,351.234 364.415,335.755 C 351.959,320.274 330.575,311.634 321.287,316.818 z"
   style="fill:none;stroke:#000000;stroke-width:7.19899988" />
					<path
   id="path3250"
   d="M 281.759,50.059 C 266.639,41.131 244.031,49.267 234.6,68.706 C 225.096,88.146 231.288,111.114 245.112,117.81 C 258.792,124.434 275.135,109.961 285.864,92.465 C 296.663,74.971 296.951,58.986 281.759,50.059 z"
   style="fill:none;stroke:#000000;stroke-width:7.19899988" />
					<path
   id="path3252"
   d="M 36.961,601.074 C 33.505,604.53 32.353,608.85 34.441,610.938 C 36.457,612.954 40.849,611.802 44.305,608.345 C 47.761,604.89 48.913,600.498 46.897,598.409 C 44.808,596.395 40.417,597.546 36.961,601.074 z"
   style="fill:none;stroke:#000000;stroke-width:7.19899988" />
					<path
   id="path3254"
   d="M 36.961,575.586 C 33.505,579.042 32.353,583.435 34.369,585.449 C 36.385,587.539 40.777,586.386 44.305,582.93 C 47.833,579.401 48.985,575.081 46.897,572.993 C 44.881,570.906 40.489,572.131 36.961,575.586 z"
   style="fill:none;stroke:#000000;stroke-width:7.19899988" />
					<path
   id="path3256"
   d="M 36.961,550.17 C 33.505,553.627 32.353,557.946 34.441,560.034 C 36.457,562.05 40.849,560.898 44.305,557.442 C 47.761,553.986 48.913,549.594 46.897,547.506 C 44.808,545.49 40.417,546.643 36.961,550.17 z"
   style="fill:none;stroke:#000000;stroke-width:7.19899988" />
				</g>
			</g>
		</g></svg>