<?xml version="1.0" encoding="UTF-8" standalone="no"?>
<!-- Generator: Adobe Illustrator 10, SVG Export Plug-In . SVG Version: 3.0.0 Build 76)  -->
<svg
   xmlns:dc="http://purl.org/dc/elements/1.1/"
   xmlns:cc="http://creativecommons.org/ns#"
   xmlns:rdf="http://www.w3.org/1999/02/22-rdf-syntax-ns#"
   xmlns:svg="http://www.w3.org/2000/svg"
   xmlns="http://www.w3.org/2000/svg"
   xmlns:sodipodi="http://sodipodi.sourceforge.net/DTD/sodipodi-0.dtd"
   xmlns:inkscape="http://www.inkscape.org/namespaces/inkscape"
   width="527.22198"
   height="564.72369"
   viewBox="0 0 535.359 636.599"
   style="overflow:visible"
   xml:space="preserve"
   id="svg3265"
   sodipodi:version="0.32"
   inkscape:version="0.46"
   sodipodi:docname="ESPd.svg"
   inkscape:output_extension="org.inkscape.output.svg.inkscape"
   version="1.0"><metadata
   id="metadata3399"><rdf:RDF><cc:Work
       rdf:about=""><dc:format>image/svg+xml</dc:format><dc:type
         rdf:resource="http://purl.org/dc/dcmitype/StillImage" /></cc:Work></rdf:RDF></metadata><defs
   id="defs3397"><inkscape:perspective
   sodipodi:type="inkscape:persp3d"
   inkscape:vp_x="0 : 318.2995 : 1"
   inkscape:vp_y="0 : 1000 : 0"
   inkscape:vp_z="535.35901 : 318.2995 : 1"
   inkscape:persp3d-origin="267.6795 : 212.19967 : 1"
   id="perspective3401" />
		
		
	</defs><sodipodi:namedview
   inkscape:window-height="670"
   inkscape:window-width="640"
   inkscape:pageshadow="2"
   inkscape:pageopacity="0.0"
   guidetolerance="10.0"
   gridtolerance="10.0"
   objecttolerance="10.0"
   borderopacity="1.0"
   bordercolor="#666666"
   pagecolor="#ffffff"
   id="base"
   showgrid="false"
   inkscape:zoom="0.72573158"
   inkscape:cx="267.6795"
   inkscape:cy="318.2995"
   inkscape:window-x="184"
   inkscape:window-y="16"
   inkscape:current-layer="svg3265" />
	<style
   type="text/css"
   id="style3267">
	
		@font-face{font-family:'Times-Roman';src:url(B6AA6246.cef)}
	
	</style>
	
<g
   transform="matrix(1.1272752,0,0,1.1272752,-38.654091,5.2971004e-3)"
   style="overflow:visible"
   id="g3286">
			<g
   id="g3288">
				<g
   id="g3290">
					<path
   id="path3292"
   d="M 13.577,84.469 C 14.009,83.03 14.513,81.517 15.017,80.077 C 18.473,70.573 24.233,61.141 31.001,54.229 C 37.84,47.605 44.176,44.941 48.425,46.597 C 52.601,48.253 55.192,54.877 55.551,62.509 C 55.911,70.07 55.121,76.333 53.465,83.318 C 53.393,83.677 53.249,84.11 53.176,84.469 L 45.185,84.469 C 47.489,75.469 45.401,67.333 40.217,65.677 C 34.817,64.022 27.977,70.502 24.953,80.222 C 24.521,81.662 24.161,83.102 23.945,84.542 L 13.577,84.469 z"
   style="fill:#808080" />
					<path
   id="path3294"
   d="M 167.367,84.469 C 168.951,77.198 171.543,69.133 175.215,60.277 C 185.583,35.437 209.271,10.021 234.111,6.781 L 244.479,6.709 C 248.799,7.285 253.047,8.653 257.223,10.813 C 286.887,26.437 296.175,56.461 283.143,84.469 L 262.263,84.469 C 267.663,71.006 265.575,59.269 253.408,52.141 C 238.504,43.357 216.256,51.349 207.04,70.501 C 204.808,75.037 203.44,79.789 202.864,84.469 L 167.367,84.469 L 167.367,84.469 z"
   style="fill:#808080" />
					<path
   id="path3296"
   d="M 100.335,208.813 C 91.263,202.621 82.911,195.709 75.567,187.789 C 67.431,179.005 60.375,169.285 54.041,158.845 C 48.785,165.829 44.681,173.029 41.225,179.869 C 38.201,177.421 35.032,174.829 31.865,172.165 C 36.185,164.389 41.297,156.037 47.992,148.261 C 42.52,137.893 37.48,126.877 32.8,115.645 C 28.768,117.301 24.52,117.301 20.992,115.789 C 17.32,114.061 14.512,111.469 12.64,105.349 C 11.2,100.237 11.488,92.317 13.576,84.469 L 23.944,84.541 C 22.719,92.389 24.88,99.301 29.56,100.741 C 34.96,102.397 41.728,95.917 44.68,86.197 C 44.896,85.621 45.04,85.045 45.184,84.468 L 53.175,84.468 C 51.592,90.804 49.288,96.996 46.336,102.18 C 50.224,114.276 54.4,126.084 59.295,137.316 C 71.39,126.876 86.87,117.444 104.438,107.436 C 106.526,110.1 108.47,112.62 110.342,115.212 C 91.982,125.94 75.926,136.092 64.118,147.468 C 69.806,159.132 76.358,169.716 84.278,179.22 C 94.214,191.028 106.31,200.675 119.918,208.812 L 100.335,208.812 L 100.335,208.813 z"
   style="fill:#808080" />
					<path
   id="path3298"
   d="M 122.655,208.813 C 132.663,181.669 154.479,156.037 178.239,130.189 C 166.863,118.525 163.262,104.053 167.366,84.469 L 202.862,84.469 C 200.99,99.446 206.966,113.772 217.334,118.813 C 230.798,125.293 246.926,111.109 257.438,93.901 C 259.454,90.661 261.038,87.493 262.262,84.469 L 283.142,84.469 C 282.206,86.628 281.054,88.717 279.83,90.805 C 262.334,120.685 233.822,140.413 213.374,146.82 C 205.31,168.205 197.031,189.157 195.878,208.813 L 122.655,208.813 z"
   style="fill:#808080" />
					<path
   id="path3300"
   d="M 211.935,208.813 C 225.399,201.109 239.295,195.205 253.839,191.748 C 258.231,190.741 262.695,189.949 267.159,189.301 C 263.343,176.413 257.079,165.613 250.815,156.397 C 254.415,154.885 258.231,153.445 262.047,151.933 C 268.455,162.085 274.791,173.893 278.319,188.149 C 297.615,186.709 317.558,188.221 337.791,190.885 C 338.295,186.421 340.383,182.82 343.695,180.517 C 346.863,178.213 350.535,177.133 356.799,178.501 C 362.918,180.013 371.271,185.7 377.462,193.189 C 381.423,197.869 384.878,203.269 387.614,208.813 L 377.389,208.813 C 376.165,206.436 374.51,203.989 372.422,201.757 C 365.51,194.412 356.51,191.46 352.334,195.421 C 349.453,198.157 349.669,203.341 352.405,208.813 L 340.957,208.813 C 320.437,204.565 300.205,201.325 280.837,201.469 C 281.197,203.845 281.485,206.293 281.701,208.813 L 271.261,208.813 C 270.902,206.508 270.541,204.277 270.181,202.117 C 265.717,202.261 261.325,202.837 256.933,203.628 C 250.237,204.781 243.685,206.58 237.277,208.813 L 211.935,208.813 L 211.935,208.813 z"
   style="fill:#808080" />
					<path
   id="path3302"
   d="M 72.039,299.533 C 75.783,283.981 90.832,276.205 103.863,280.453 C 122.368,286.573 115.671,285.997 122.079,289.813 C 118.407,267.564 113.871,243.661 119.199,220.261 C 112.647,216.733 106.383,212.917 100.335,208.813 L 119.919,208.813 C 120.639,209.245 121.431,209.676 122.151,210.109 C 122.295,209.676 122.439,209.245 122.655,208.813 L 195.879,208.813 C 195.663,212.125 195.663,215.436 195.951,218.748 C 201.207,215.221 206.535,211.837 211.935,208.813 L 237.279,208.813 C 223.599,213.637 210.496,220.765 197.823,229.333 C 197.823,229.621 197.895,229.909 197.967,230.125 C 205.023,255.901 228.207,277.429 252.759,299.604 L 72.039,299.533 z"
   style="fill:#808080" />
					<path
   id="path3304"
   d="M 256.863,299.604 C 256.791,295.789 256.431,293.701 266.367,288.733 C 274.431,284.629 299.2,288.588 322.384,299.604 L 256.863,299.604 z"
   style="fill:#808080" />
					<path
   id="path3306"
   d="M 271.263,208.813 C 272.847,220.765 273.495,234.013 273.856,248.197 C 277.024,247.837 280.12,247.405 283.431,246.757 C 283.287,233.077 282.927,220.333 281.703,208.813 L 271.263,208.813 z"
   style="fill:#808080" />
					<path
   id="path3308"
   d="M 340.959,208.813 C 341.535,208.957 342.039,209.029 342.615,209.173 C 345.783,214.717 350.319,220.045 355.43,224.869 C 360.615,229.765 365.728,233.581 372.423,237.037 C 379.263,240.565 386.246,241.717 389.703,238.909 C 393.302,235.957 394.166,229.189 391.79,219.901 C 390.782,216.229 389.342,212.484 387.614,208.813 L 377.389,208.813 C 380.053,214.285 380.198,219.541 377.318,222.277 C 373.141,226.165 364.141,223.213 357.301,215.869 C 355.215,213.637 353.557,211.189 352.405,208.813 L 340.959,208.813 L 340.959,208.813 z"
   style="fill:#808080" />
					<path
   id="path3310"
   d="M 84.423,343.237 C 80.247,336.541 76.863,329.701 74.271,322.861 C 70.887,313.932 70.527,306.085 72.039,299.533 L 252.759,299.604 C 254.055,300.756 255.351,301.981 256.647,303.132 C 256.863,301.764 256.935,300.612 256.863,299.604 L 322.384,299.604 C 335.631,305.94 348.375,314.581 357.158,325.38 C 361.982,331.212 365.008,337.261 366.734,343.236 L 340.671,343.236 C 339.303,339.924 337.359,336.54 334.768,333.227 C 322.456,318.036 301.431,309.539 292.288,314.652 C 285.016,318.684 286.6,330.564 293.513,343.236 L 156.567,343.236 C 145.623,328.764 129.207,314.723 116.751,309.54 C 100.551,302.628 95.007,311.916 101.703,327.685 C 103.863,332.724 107.175,338.053 111.207,343.237 L 84.423,343.237 L 84.423,343.237 z"
   style="fill:#808080" />
					<path
   id="path3312"
   d="M 34.457,467.293 C 38.273,449.149 43.745,431.869 52.169,416.173 C 63.111,395.51 79.743,378.085 98.967,362.245 C 93.423,356.054 88.528,349.717 84.423,343.237 L 111.207,343.237 C 119.775,354.253 131.871,364.765 144.399,371.101 C 162.903,380.533 173.559,374.269 164.631,356.053 C 162.615,351.876 159.807,347.557 156.567,343.237 L 293.512,343.237 C 295.311,346.549 297.471,349.861 299.919,353.101 C 311.654,369.084 325.336,377.22 334.982,371.388 C 342.47,366.781 345.566,355.332 340.67,343.237 L 366.733,343.237 C 368.246,348.636 368.678,354.037 368.246,359.22 C 392.222,363.54 414.614,370.164 433.981,382.261 C 457.166,396.66 476.173,417.828 494.03,440.941 C 497.486,438.277 501.518,437.125 505.477,437.771 C 509.293,438.493 512.749,440.292 516.133,445.621 C 519.156,450.373 520.885,458.796 520.669,467.293 L 510.445,467.221 C 509.293,459.95 505.621,454.621 501.085,454.478 C 496.333,454.333 492.229,459.733 490.717,467.221 L 482.653,467.293 C 483.014,463.837 483.591,460.453 484.454,457.357 C 467.966,431.869 450.397,408.541 427.862,392.845 C 410.007,380.316 388.91,373.189 366.446,368.868 C 362.198,383.124 352.046,395.292 341.534,402.204 C 321.013,415.597 298.046,400.62 279.326,366.996 C 268.886,372.973 257.582,380.028 244.118,382.404 C 253.982,405.803 270.686,427.044 289.406,447.924 C 295.741,447.853 302.725,449.076 309.35,451.093 C 316.19,453.108 322.094,455.557 328.359,459.732 C 331.958,461.964 334.981,464.628 336.782,467.293 L 317.63,467.293 C 315.902,462.974 309.998,458.941 302.511,457.212 C 292.718,454.981 283.646,457.573 282.351,463.188 C 282.062,464.558 282.206,465.925 282.783,467.293 L 265.287,467.293 C 264.999,465.854 264.927,464.484 265.071,463.045 C 265.359,459.085 267.592,455.558 271.119,452.82 C 254.127,430.501 239.079,407.677 230.871,382.837 C 222.879,381.829 214.383,379.237 205.599,376.573 C 219.927,413.581 193.719,426.037 153.903,404.365 C 135.111,394.213 118.767,382.189 105.663,369.228 C 87.591,384.708 72.183,401.916 62.679,422.22 C 56.271,436.187 52.241,451.307 49.721,467.292 L 34.457,467.292 L 34.457,467.293 z"
   style="fill:#808080" />
					<path
   id="path3314"
   d="M 16.601,527.701 C 13.936,522.013 12.497,516.396 12.641,512.077 C 12.857,505.741 14.945,502.501 17.969,499.98 C 21.064,497.46 25.097,496.38 29.49,496.957 C 30.858,486.877 32.442,476.941 34.458,467.293 L 49.722,467.293 C 47.706,479.893 46.626,492.997 45.978,506.389 C 50.442,510.925 54.402,516.614 57.713,522.877 C 58.576,524.461 59.44,526.117 60.16,527.701 L 51.306,527.701 C 50.586,525.9 49.722,524.1 48.571,522.301 C 43.243,513.733 34.89,509.197 30.067,512.221 C 26.251,514.598 25.747,520.933 28.267,527.701 L 16.601,527.701 L 16.601,527.701 z"
   style="fill:#808080" />
					<path
   id="path3316"
   d="M 265.287,467.293 C 265.791,469.741 267.159,472.405 269.895,475.357 C 274.287,479.964 283.359,484.357 293.008,486.012 C 302.944,487.812 313.959,487.524 323.247,485.004 C 332.535,482.557 338.008,478.38 338.654,473.845 C 339.015,471.828 338.295,469.524 336.783,467.292 L 317.631,467.292 C 318.135,468.66 318.352,470.028 317.991,471.324 C 316.767,476.868 307.695,479.603 297.903,477.372 C 290.487,475.644 284.654,471.54 282.783,467.292 L 265.287,467.292 L 265.287,467.293 z"
   style="fill:#808080" />
					<path
   id="path3318"
   d="M 482.654,467.293 C 482.367,470.604 482.295,474.062 482.367,477.517 C 482.654,484.574 483.519,490.91 485.823,498.182 C 488.054,505.453 492.302,511.213 496.767,511.646 C 501.302,512.15 506.846,507.974 511.67,499.693 C 516.494,491.414 519.519,480.757 520.454,470.604 C 520.526,469.525 520.599,468.374 520.67,467.293 L 510.446,467.221 C 510.733,469.094 510.878,471.109 510.805,473.198 C 510.373,483.278 505.477,491.342 499.717,491.126 C 494.029,490.91 489.781,482.485 490.141,472.406 C 490.213,470.604 490.429,468.878 490.717,467.221 L 482.654,467.293 z"
   style="fill:#808080" />
					<path
   id="path3320"
   d="M 16.601,527.701 C 17.969,530.509 19.552,533.245 21.353,535.909 C 27.257,544.262 35.249,551.82 43.529,556.645 C 51.881,561.469 58.718,562.333 62.391,559.524 C 65.991,556.932 66.855,549.877 65.199,542.461 C 63.975,536.989 62.319,532.309 60.158,527.701 L 51.304,527.701 C 53.896,534.47 53.392,540.877 49.576,543.253 C 44.68,546.277 36.4,541.813 31,533.316 C 29.848,531.445 28.984,529.573 28.264,527.701 L 16.601,527.701 z"
   style="fill:#808080" />
				</g>
				<g
   id="g3322">
					<path
   id="path3324"
   d="M 368.247,359.221 C 392.223,363.541 414.615,370.165 433.982,382.262 C 457.167,396.661 476.174,417.829 494.031,440.942 C 497.487,438.278 501.519,437.126 505.478,437.772 C 509.294,438.494 512.75,440.293 516.134,445.622 C 519.519,451.021 521.319,461.03 520.454,470.604 C 519.518,480.757 516.494,491.414 511.67,499.693 C 506.846,507.974 501.302,512.15 496.767,511.646 C 492.302,511.213 488.054,505.454 485.823,498.182 C 483.519,490.91 482.654,484.574 482.367,477.517 C 482.15,470.461 482.799,463.478 484.455,457.358 C 467.967,431.87 450.398,408.542 427.863,392.846 C 410.008,380.317 388.911,373.19 366.447,368.869 C 362.199,383.125 352.047,395.293 341.535,402.205 C 321.014,415.598 298.047,400.621 279.327,366.997 C 268.887,372.974 257.583,380.029 244.119,382.405 C 253.983,405.804 270.687,427.045 289.407,447.925 C 295.742,447.854 302.726,449.077 309.351,451.094 C 316.191,453.109 322.095,455.558 328.36,459.733 C 334.982,463.766 339.375,469.308 338.654,473.846 C 338.008,478.381 332.535,482.558 323.247,485.005 C 313.959,487.525 302.943,487.813 293.008,486.013 C 283.36,484.358 274.287,479.965 269.895,475.358 C 265.575,470.676 264.711,466.933 265.071,463.046 C 265.359,459.086 267.592,455.559 271.119,452.821 C 254.127,430.502 239.079,407.678 230.871,382.838 C 222.879,381.83 214.383,379.238 205.599,376.574 C 219.927,413.582 193.719,426.038 153.903,404.366 C 135.111,394.214 118.767,382.19 105.663,369.229 C 87.591,384.709 72.183,401.917 62.679,422.221 C 51.16,447.205 47.489,476.077 45.977,506.389 C 50.441,510.925 54.401,516.614 57.712,522.877 C 61.095,529.069 63.543,535.045 65.199,542.461 C 66.855,549.877 65.991,556.933 62.391,559.524 C 58.719,562.333 51.881,561.469 43.529,556.645 C 35.249,551.82 27.257,544.261 21.353,535.909 C 15.808,527.917 12.425,518.484 12.641,512.077 C 12.857,505.741 14.945,502.501 17.969,499.98 C 21.064,497.46 25.097,496.38 29.49,496.957 C 33.378,468.013 39.21,440.221 52.17,416.173 C 63.112,395.51 79.744,378.085 98.968,362.245 C 87.664,349.717 79.312,336.396 74.272,322.861 C 62.896,292.549 85.432,274.477 103.864,280.453 C 122.369,286.573 115.672,285.997 122.08,289.813 C 118.408,267.564 113.872,243.661 119.2,220.261 C 102.784,211.333 87.808,200.893 75.568,187.789 C 67.432,179.005 60.376,169.285 54.042,158.845 C 48.786,165.829 44.682,173.029 41.226,179.869 C 38.202,177.421 35.033,174.829 31.866,172.165 C 36.186,164.389 41.298,156.037 47.993,148.261 C 42.521,137.893 37.481,126.877 32.801,115.645 C 28.769,117.301 24.521,117.301 20.993,115.789 C 17.321,114.061 14.513,111.469 12.641,105.349 C 10.913,99.229 11.633,89.221 15.017,80.077 C 18.473,70.573 24.233,61.141 31.001,54.229 C 37.84,47.605 44.176,44.941 48.425,46.597 C 52.601,48.253 55.192,54.877 55.551,62.509 C 55.911,70.07 55.121,76.333 53.465,83.318 C 51.881,90.086 49.505,96.71 46.337,102.182 C 50.225,114.278 54.401,126.086 59.296,137.318 C 71.391,126.878 86.871,117.446 104.439,107.438 C 106.527,110.102 108.471,112.622 110.343,115.214 C 91.983,125.942 75.927,136.094 64.119,147.47 C 69.807,159.134 76.359,169.718 84.279,179.222 C 94.718,191.677 107.607,201.686 122.151,210.11 C 131.943,182.461 154.119,156.47 178.239,130.19 C 162.615,114.206 161.679,92.894 175.215,60.278 C 188.823,27.662 225.327,-5.818 257.223,10.814 C 289.119,27.59 297.471,61.07 279.831,90.806 C 262.335,120.686 233.823,140.414 213.375,146.821 C 203.943,171.878 194.223,196.286 195.951,218.749 C 214.384,206.294 233.463,196.574 253.839,191.749 C 258.231,190.742 262.695,189.95 267.159,189.302 C 263.343,176.414 257.079,165.614 250.815,156.398 C 254.415,154.886 258.231,153.446 262.047,151.934 C 268.455,162.086 274.791,173.894 278.319,188.15 C 297.615,186.71 317.558,188.222 337.791,190.886 C 338.295,186.422 340.383,182.821 343.695,180.518 C 346.863,178.214 350.535,177.134 356.799,178.502 C 362.918,180.014 371.271,185.701 377.462,193.19 C 384.015,200.894 389.271,210.614 391.79,219.902 C 394.166,229.19 393.302,235.958 389.703,238.91 C 386.246,241.718 379.263,240.566 372.423,237.038 C 365.728,233.582 360.614,229.766 355.43,224.87 C 350.319,220.046 345.783,214.718 342.615,209.174 C 321.519,204.71 300.711,201.326 280.839,201.47 C 282.711,214.934 283.287,230.126 283.431,246.758 C 280.119,247.406 277.024,247.838 273.856,248.198 C 273.423,231.278 272.631,215.725 270.184,202.118 C 265.72,202.262 261.328,202.838 256.936,203.629 C 235.984,207.302 216.4,216.806 197.824,229.334 C 197.824,229.622 197.896,229.91 197.968,230.126 C 205.385,257.27 230.728,279.734 256.648,303.134 C 257.8,296.727 253.696,295.071 266.368,288.735 C 279.04,282.327 333.04,295.719 357.16,325.382 C 366.303,336.541 369.184,348.277 368.247,359.221 z"
   style="fill:none;stroke:#000000;stroke-width:7.19899988" />
					<path
   id="path3326"
   d="M 253.407,52.141 C 238.503,43.357 216.255,51.349 207.039,70.501 C 197.679,89.652 203.728,112.189 217.335,118.813 C 230.799,125.293 246.927,111.109 257.439,93.901 C 268.095,76.621 268.383,60.925 253.407,52.141 z"
   style="fill:none;stroke:#000000;stroke-width:7.19899988" />
					<path
   id="path3328"
   d="M 292.287,314.653 C 283.142,319.765 287.967,337.117 299.919,353.101 C 311.654,369.084 325.336,377.22 334.982,371.388 C 344.487,365.557 346.935,348.492 334.767,333.228 C 322.455,318.037 301.431,309.541 292.287,314.653 z"
   style="fill:none;stroke:#000000;stroke-width:7.19899988" />
					<path
   id="path3330"
   d="M 116.751,309.541 C 100.551,302.629 95.007,311.917 101.703,327.686 C 108.471,343.381 125.895,361.742 144.399,371.102 C 162.903,380.534 173.559,374.27 164.631,356.054 C 155.703,337.837 132.951,316.309 116.751,309.541 z"
   style="fill:none;stroke:#000000;stroke-width:7.19899988" />
					<path
   id="path3332"
   d="M 352.336,195.421 C 348.231,199.309 350.463,208.453 357.303,215.869 C 364.143,223.213 373.143,226.165 377.32,222.277 C 381.496,218.388 379.336,209.173 372.424,201.757 C 365.512,194.412 356.512,191.46 352.336,195.421 z"
   style="fill:none;stroke:#000000;stroke-width:7.19899988" />
					<path
   id="path3334"
   d="M 29.561,100.741 C 34.961,102.397 41.729,95.917 44.681,86.197 C 47.705,76.549 45.761,67.405 40.217,65.676 C 34.817,64.021 27.977,70.501 24.953,80.221 C 22,89.796 24.089,99.013 29.561,100.741 z"
   style="fill:none;stroke:#000000;stroke-width:7.19899988" />
					<path
   id="path3336"
   d="M 282.352,463.188 C 281.055,468.662 288.04,475.07 297.904,477.374 C 307.696,479.605 316.768,476.87 317.992,471.326 C 319.361,465.782 312.376,459.446 302.513,457.213 C 292.719,454.98 283.646,457.573 282.352,463.188 z"
   style="fill:none;stroke:#000000;stroke-width:7.19899988" />
					<path
   id="path3338"
   d="M 30.065,512.221 C 25.241,515.245 25.745,524.678 31.001,533.317 C 36.401,541.813 44.681,546.278 49.577,543.254 C 54.401,540.23 53.897,530.798 48.569,522.302 C 43.241,513.732 34.889,509.197 30.065,512.221 z"
   style="fill:none;stroke:#000000;stroke-width:7.19899988" />
					<path
   id="path3340"
   d="M 501.087,454.478 C 495.326,454.261 490.503,462.326 490.143,472.406 C 489.784,482.485 494.032,490.91 499.719,491.126 C 505.479,491.342 510.375,483.278 510.807,473.198 C 511.096,463.116 506.775,454.621 501.087,454.478 z"
   style="fill:none;stroke:#000000;stroke-width:7.19899988" />
				</g>
			</g>
			<g
   id="g3342">
				<g
   id="g3344">
					<path
   id="path3346"
   d="M 24.665,81.661 C 25.097,80.149 25.529,78.637 26.105,77.197 C 29.633,67.693 35.321,58.333 42.161,51.421 C 48.929,44.796 55.335,42.061 59.583,43.789 C 63.759,45.373 66.279,52.069 66.639,59.629 C 66.999,67.261 66.208,73.525 64.623,80.509 C 64.551,80.869 64.407,81.301 64.336,81.661 L 56.343,81.661 C 58.575,72.661 56.488,64.453 51.377,62.869 C 45.977,61.213 39.064,67.621 36.041,77.341 C 35.609,78.781 35.249,80.221 35.032,81.661 L 24.665,81.661 z"
   style="fill:#e6e6e6" />
					<path
   id="path3348"
   d="M 178.455,81.661 C 180.039,74.389 182.631,66.325 186.303,57.469 C 196.671,32.629 220.43,7.213 245.271,3.973 L 255.639,3.901 C 259.959,4.477 264.207,5.845 268.384,8.005 C 297.975,23.557 307.336,53.653 294.303,81.661 L 273.352,81.661 C 278.751,68.269 276.736,56.461 264.567,49.333 C 249.663,40.549 227.415,48.541 218.127,67.621 C 215.895,72.229 214.527,76.981 213.951,81.661 L 178.455,81.661 L 178.455,81.661 z"
   style="fill:#e6e6e6" />
					<path
   id="path3350"
   d="M 111.495,206.005 C 102.423,199.813 94.071,192.901 86.727,184.981 C 78.591,176.197 71.463,166.477 65.199,156.037 C 59.943,163.021 55.839,170.149 52.313,177.061 C 49.289,174.541 46.192,172.021 43.025,169.285 C 47.345,161.508 52.385,153.229 59.151,145.453 C 53.609,135.013 48.569,124.069 43.889,112.765 C 39.857,114.493 35.609,114.493 32.081,112.909 C 28.481,111.253 25.673,108.589 23.801,102.541 C 22.289,97.429 22.577,89.509 24.665,81.661 L 35.032,81.661 C 33.881,89.581 35.968,96.493 40.649,97.933 C 46.121,99.517 52.817,93.109 55.839,83.389 C 55.983,82.813 56.2,82.237 56.343,81.661 L 64.336,81.661 C 62.679,87.997 60.447,94.189 57.423,99.301 C 61.311,111.469 65.559,123.277 70.383,134.437 C 82.55,124.069 97.959,114.637 115.527,104.628 C 117.687,107.293 119.559,109.813 121.503,112.333 C 103.071,123.133 87.087,133.285 75.207,144.661 C 80.895,156.253 87.519,166.909 95.439,176.413 C 105.303,188.221 117.399,197.869 131.007,206.005 L 111.495,206.005 L 111.495,206.005 z"
   style="fill:#e6e6e6" />
					<path
   id="path3352"
   d="M 133.743,206.005 C 143.751,178.789 165.639,153.229 189.399,127.381 C 177.951,115.717 174.351,101.245 178.455,81.661 L 213.951,81.661 C 212.151,96.637 218.127,110.965 228.495,116.005 C 241.959,122.485 258.015,108.229 268.599,91.021 C 270.543,87.853 272.127,84.685 273.351,81.661 L 294.302,81.661 C 293.366,83.82 292.214,85.909 290.99,87.997 C 273.494,117.877 244.982,137.604 224.533,143.941 C 216.47,165.397 208.19,186.349 207.037,206.005 L 133.743,206.005 z"
   style="fill:#e6e6e6" />
					<path
   id="path3354"
   d="M 223.023,206.005 C 236.487,198.301 250.383,192.397 264.927,188.941 C 269.32,187.861 273.783,187.069 278.247,186.493 C 274.431,173.604 268.239,162.805 261.903,153.589 C 265.503,152.005 269.319,150.637 273.207,149.125 C 279.543,159.277 285.951,171.085 289.478,185.341 C 308.775,183.829 328.646,185.412 348.878,188.005 C 349.382,183.541 351.542,180.013 354.782,177.709 C 357.95,175.405 361.694,174.253 367.886,175.693 C 374.078,177.205 382.43,182.82 388.622,190.381 C 392.511,195.061 396.038,200.46 398.703,206.005 L 388.477,206.005 C 387.325,203.628 385.669,201.181 383.581,198.949 C 376.598,191.532 367.598,188.652 363.422,192.541 C 360.541,195.277 360.829,200.532 363.565,206.005 L 352.045,206.005 C 331.525,201.685 311.365,198.517 291.925,198.661 C 292.285,201.037 292.573,203.484 292.862,206.005 L 282.35,206.005 C 282.061,203.7 281.702,201.469 281.341,199.309 C 276.877,199.453 272.486,200.029 268.093,200.748 C 261.397,201.973 254.844,203.7 248.364,206.005 L 223.023,206.005 z"
   style="fill:#e6e6e6" />
					<path
   id="path3356"
   d="M 82.623,299.604 C 85.143,282.108 101.199,273.108 114.951,277.645 C 133.455,283.764 126.832,283.188 133.167,287.004 C 129.495,264.756 124.96,240.78 130.359,217.452 C 123.807,213.924 117.543,210.108 111.495,206.004 L 131.007,206.004 C 131.727,206.435 132.519,206.868 133.239,207.3 C 133.383,206.868 133.527,206.435 133.742,206.004 L 207.038,206.004 C 206.822,209.316 206.822,212.627 207.11,215.94 C 212.365,212.411 217.694,209.028 223.022,206.004 L 248.366,206.004 C 234.686,210.828 221.582,217.956 208.91,226.524 C 208.91,226.812 208.983,227.028 209.054,227.244 C 216.398,254.1 241.383,276.42 267.014,299.603 L 82.623,299.603 L 82.623,299.604 z"
   style="fill:#e6e6e6" />
					<path
   id="path3358"
   d="M 267.951,299.604 C 268.671,293.701 265.287,292.044 277.528,285.852 C 286.239,281.46 314.464,286.5 339.088,299.604 L 267.951,299.604 z"
   style="fill:#e6e6e6" />
					<path
   id="path3360"
   d="M 282.352,206.005 C 283.936,217.885 284.583,231.133 285.015,245.317 C 288.112,244.957 291.28,244.597 294.592,243.949 C 294.447,230.197 294.087,217.525 292.863,206.005 L 282.352,206.005 L 282.352,206.005 z"
   style="fill:#e6e6e6" />
					<path
   id="path3362"
   d="M 352.047,206.005 C 352.623,206.149 353.127,206.221 353.704,206.365 C 356.943,211.909 361.478,217.237 366.519,222.061 C 371.704,226.885 376.814,230.773 383.582,234.229 C 390.351,237.757 397.406,238.909 400.862,236.029 C 404.462,233.149 405.325,226.381 402.878,217.093 C 401.942,213.421 400.502,209.676 398.703,206.005 L 388.477,206.005 C 391.215,211.477 391.358,216.733 388.477,219.397 C 384.229,223.285 375.301,220.405 368.389,213.061 C 366.373,210.829 364.717,208.381 363.565,206.005 L 352.047,206.005 z"
   style="fill:#e6e6e6" />
					<path
   id="path3364"
   d="M 95.583,340.357 C 91.407,333.661 87.951,326.821 85.359,319.98 C 82.479,312.348 81.831,305.508 82.623,299.604 L 267.015,299.604 C 267.304,299.821 267.519,300.108 267.807,300.325 C 267.879,300.037 267.879,299.821 267.951,299.604 L 339.087,299.604 C 350.319,305.653 360.759,313.285 368.247,322.573 C 373.07,328.405 376.096,334.381 377.823,340.357 L 351.759,340.357 C 350.391,337.045 348.447,333.661 345.856,330.42 C 333.616,315.228 312.592,306.66 303.448,311.772 C 296.176,315.804 297.76,327.613 304.672,340.357 L 167.655,340.357 C 156.711,325.884 140.367,311.917 127.839,306.661 C 111.639,299.821 106.095,309.108 112.863,324.805 C 115.023,329.846 118.263,335.173 122.295,340.358 L 95.583,340.358 L 95.583,340.357 z"
   style="fill:#e6e6e6" />
					<path
   id="path3366"
   d="M 45.545,464.484 C 49.433,446.34 54.833,429.061 63.256,413.293 C 74.271,392.701 90.903,375.277 110.055,359.437 C 104.511,353.246 99.687,346.837 95.583,340.358 L 122.295,340.358 C 130.791,351.374 142.887,361.958 155.487,368.294 C 174.063,377.654 184.718,371.462 175.791,353.246 C 173.703,349.069 170.967,344.679 167.655,340.358 L 304.671,340.358 C 306.399,343.67 308.559,346.981 311.008,350.294 C 322.742,366.278 336.424,374.342 346.07,368.511 C 353.631,363.975 356.654,352.454 351.758,340.359 L 377.822,340.359 C 379.406,345.758 379.838,351.159 379.406,356.342 C 403.309,360.662 425.702,367.359 445.141,379.454 C 468.325,393.854 487.261,415.021 505.118,438.134 C 508.574,435.398 512.606,434.318 516.638,434.894 C 520.454,435.615 523.91,437.486 527.222,442.814 C 530.246,447.495 531.974,455.918 531.758,464.486 L 521.534,464.486 C 520.382,457.214 516.71,451.814 512.246,451.671 C 507.494,451.526 503.39,456.927 501.878,464.415 L 493.814,464.486 C 494.174,461.031 494.751,457.647 495.543,454.55 C 479.055,429.063 461.487,405.734 438.951,390.038 C 421.096,377.437 400.07,370.382 377.535,366.062 C 373.359,380.317 363.135,392.485 352.695,399.397 C 332.103,412.79 309.134,397.813 290.487,364.118 C 279.974,370.166 268.742,377.222 255.279,379.598 C 265.071,402.997 281.846,424.237 300.495,445.045 C 306.903,444.974 313.814,446.27 320.512,448.212 C 327.28,450.301 333.184,452.676 339.52,456.925 C 343.12,459.157 346.071,461.821 347.872,464.485 L 328.792,464.485 C 326.992,460.165 321.088,456.133 313.601,454.406 C 303.88,452.174 294.808,454.766 293.441,460.382 C 293.152,461.749 293.296,463.117 293.945,464.486 L 276.377,464.486 C 276.089,463.047 276.089,461.677 276.232,460.238 C 276.521,456.279 278.681,452.677 282.281,450.014 C 265.217,427.695 250.24,404.797 242.033,380.031 C 233.969,379.022 225.473,376.43 216.689,373.695 C 231.017,410.773 204.809,423.23 164.993,401.559 C 146.201,391.334 129.929,379.382 116.825,366.422 C 98.681,381.83 83.273,399.11 73.841,419.414 C 67.361,433.309 63.329,448.502 60.809,464.485 L 45.545,464.485 L 45.545,464.484 z"
   style="fill:#e6e6e6" />
					<path
   id="path3368"
   d="M 27.761,524.893 C 25.097,519.205 23.657,513.517 23.801,509.27 C 24.017,502.933 26.033,499.693 29.129,497.101 C 32.153,494.654 36.185,493.501 40.577,494.15 C 41.945,484.07 43.529,474.133 45.545,464.485 L 60.807,464.485 C 58.791,477.086 57.712,490.19 57.063,503.582 C 61.527,508.118 65.559,513.806 68.871,519.998 C 69.735,521.654 70.599,523.238 71.32,524.894 L 62.463,524.894 C 61.743,523.095 60.879,521.222 59.727,519.422 C 54.329,510.855 46.048,506.318 41.153,509.414 C 37.337,511.79 36.833,518.126 39.424,524.893 L 27.761,524.893 z"
   style="fill:#e6e6e6" />
					<path
   id="path3370"
   d="M 276.375,464.484 C 276.951,466.932 278.319,469.597 281.055,472.548 C 285.448,477.156 294.52,481.548 304.167,483.204 C 314.031,484.932 325.119,484.644 334.407,482.196 C 343.695,479.676 349.095,475.5 349.742,470.964 C 350.031,468.948 349.383,466.716 347.871,464.484 L 328.791,464.484 C 329.295,465.781 329.512,467.149 329.15,468.516 C 327.855,474.061 318.783,476.796 308.991,474.565 C 301.575,472.836 295.742,468.732 293.943,464.484 L 276.375,464.484 z"
   style="fill:#e6e6e6" />
					<path
   id="path3372"
   d="M 493.814,464.484 C 493.527,467.796 493.455,471.253 493.527,474.709 C 493.814,481.766 494.679,488.029 496.911,495.373 C 499.215,502.573 503.463,508.405 507.927,508.837 C 512.463,509.341 517.936,505.165 522.759,496.886 C 527.583,488.533 530.608,477.949 531.543,467.796 C 531.615,466.717 531.688,465.566 531.759,464.484 L 521.535,464.484 C 521.823,466.284 521.967,468.3 521.894,470.316 C 521.462,480.396 516.638,488.461 510.878,488.245 C 505.118,488.029 500.87,479.604 501.23,469.598 C 501.302,467.796 501.519,466.07 501.878,464.413 L 493.814,464.484 z"
   style="fill:#e6e6e6" />
					<path
   id="path3374"
   d="M 27.761,524.893 C 29.057,527.702 30.713,530.437 32.513,533.03 C 38.417,541.382 46.409,549.013 54.688,553.838 C 62.967,558.662 69.879,559.454 73.551,556.718 C 77.151,554.126 78.015,546.998 76.288,539.655 C 75.063,534.183 73.48,529.503 71.32,524.894 L 62.463,524.894 C 65.055,531.663 64.551,537.998 60.735,540.447 C 55.839,543.471 47.561,539.007 42.161,530.51 C 41.009,528.638 40.073,526.767 39.425,524.894 L 27.761,524.894 L 27.761,524.893 z"
   style="fill:#e6e6e6" />
				</g>
				<g
   id="g3376">
					<path
   id="path3378"
   d="M 379.407,356.341 C 403.31,360.661 425.703,367.358 445.142,379.453 C 468.326,393.853 487.262,415.02 505.119,438.133 C 508.575,435.397 512.607,434.317 516.639,434.893 C 520.455,435.614 523.911,437.485 527.223,442.813 C 530.608,448.141 532.408,458.15 531.543,467.796 C 530.607,477.949 527.583,488.533 522.759,496.886 C 517.936,505.165 512.463,509.341 507.927,508.837 C 503.463,508.405 499.215,502.573 496.911,495.373 C 494.68,488.029 493.814,481.766 493.527,474.709 C 493.31,467.652 493.959,460.669 495.543,454.549 C 479.055,429.062 461.487,405.733 438.951,390.037 C 421.096,377.436 400.07,370.381 377.535,366.061 C 373.359,380.316 363.135,392.484 352.695,399.396 C 332.103,412.789 309.134,397.812 290.487,364.117 C 279.974,370.165 268.742,377.221 255.279,379.597 C 265.071,402.996 281.846,424.236 300.495,445.044 C 306.903,444.973 313.814,446.269 320.512,448.211 C 327.28,450.3 333.184,452.675 339.52,456.924 C 346.071,460.956 350.463,466.428 349.743,470.964 C 349.097,475.5 343.696,479.677 334.408,482.196 C 325.12,484.644 314.032,484.931 304.168,483.204 C 294.521,481.548 285.448,477.156 281.056,472.548 C 276.737,467.868 275.8,464.124 276.232,460.236 C 276.521,456.277 278.681,452.675 282.281,450.012 C 265.217,427.693 250.24,404.795 242.033,380.029 C 233.969,379.02 225.473,376.428 216.689,373.693 C 231.017,410.771 204.809,423.228 164.993,401.557 C 146.201,391.332 129.929,379.38 116.825,366.42 C 98.681,381.828 83.273,399.108 73.841,419.412 C 62.249,444.324 58.577,473.268 57.065,503.58 C 61.529,508.116 65.561,513.804 68.873,519.996 C 72.258,526.261 74.633,532.236 76.29,539.652 C 78.017,546.996 77.153,554.124 73.553,556.715 C 69.881,559.451 62.969,558.659 54.69,553.835 C 46.411,549.011 38.419,541.379 32.515,533.027 C 26.899,525.106 23.587,515.602 23.803,509.267 C 24.019,502.93 26.035,499.69 29.131,497.098 C 32.155,494.651 36.187,493.498 40.579,494.147 C 44.467,465.203 50.371,437.411 63.258,413.291 C 74.273,392.699 90.905,375.275 110.057,359.435 C 98.826,346.835 90.473,333.515 85.361,319.979 C 74.057,289.667 96.521,271.596 114.953,277.644 C 133.457,283.763 126.834,283.187 133.169,287.003 C 129.497,264.755 124.962,240.779 130.361,217.451 C 113.945,208.523 98.969,198.083 86.729,184.979 C 78.593,176.195 71.465,166.475 65.201,156.035 C 59.945,163.019 55.841,170.147 52.315,177.059 C 49.291,174.539 46.194,172.019 43.027,169.283 C 47.347,161.506 52.387,153.227 59.153,145.451 C 53.611,135.011 48.571,124.067 43.891,112.763 C 39.859,114.491 35.611,114.491 32.083,112.907 C 28.483,111.251 25.675,108.587 23.803,102.539 C 22.002,96.419 22.723,86.339 26.107,77.195 C 29.635,67.691 35.323,58.331 42.163,51.419 C 48.931,44.794 55.337,42.059 59.585,43.787 C 63.761,45.371 66.281,52.067 66.641,59.627 C 67.001,67.259 66.21,73.523 64.625,80.507 C 62.969,87.275 60.665,93.899 57.425,99.299 C 61.313,111.467 65.561,123.275 70.385,134.435 C 82.552,124.067 97.961,114.635 115.529,104.626 C 117.689,107.291 119.561,109.811 121.505,112.331 C 103.073,123.131 87.089,133.283 75.209,144.659 C 80.897,156.251 87.521,166.907 95.441,176.411 C 105.809,188.867 118.697,198.875 133.241,207.299 C 143.033,179.578 165.281,153.659 189.401,127.379 C 173.705,111.395 172.769,90.011 186.305,57.467 C 199.913,24.851 236.489,-8.629 268.385,8.004 C 300.209,24.708 308.633,58.259 290.993,87.996 C 273.497,117.876 244.985,137.603 224.536,143.94 C 215.104,169.068 205.385,193.476 207.113,215.94 C 225.473,203.483 244.552,193.764 264.928,188.94 C 269.321,187.86 273.784,187.068 278.248,186.492 C 274.432,173.603 268.24,162.804 261.904,153.588 C 265.504,152.004 269.32,150.636 273.208,149.124 C 279.544,159.276 285.952,171.084 289.479,185.34 C 308.776,183.828 328.647,185.411 348.879,188.004 C 349.383,183.54 351.543,180.012 354.783,177.708 C 357.951,175.404 361.695,174.252 367.887,175.692 C 374.079,177.204 382.431,182.819 388.623,190.38 C 395.103,198.084 400.431,207.804 402.879,217.092 C 405.326,226.38 404.463,233.148 400.863,236.028 C 397.407,238.908 390.351,237.756 383.583,234.228 C 376.814,230.772 371.704,226.884 366.52,222.06 C 361.479,217.236 356.944,211.908 353.705,206.364 C 332.608,201.828 311.873,198.516 291.928,198.66 C 293.872,212.124 294.449,227.244 294.593,243.948 C 291.281,244.596 288.113,244.956 285.016,245.316 C 284.513,228.396 283.72,212.916 281.344,199.308 C 276.88,199.452 272.489,200.028 268.096,200.747 C 247.072,204.492 227.56,213.924 208.912,226.524 C 208.912,226.812 208.985,227.028 209.056,227.244 C 216.473,254.388 241.889,276.851 267.808,300.324 C 268.96,293.844 264.784,292.26 277.528,285.851 C 290.2,279.515 344.2,292.908 368.248,322.572 C 377.391,333.661 380.271,345.47 379.407,356.341 z"
   style="fill:none;stroke:#000000;stroke-width:7.19899988" />
					<path
   id="path3380"
   d="M 264.567,49.333 C 249.663,40.549 227.415,48.541 218.127,67.621 C 208.767,86.772 214.887,109.381 228.495,116.005 C 241.959,122.485 258.015,108.229 268.599,91.021 C 279.183,73.813 279.471,58.117 264.567,49.333 z"
   style="fill:none;stroke:#000000;stroke-width:7.19899988" />
					<path
   id="path3382"
   d="M 303.447,311.772 C 294.302,316.884 299.127,334.237 311.008,350.293 C 322.742,366.277 336.424,374.341 346.07,368.51 C 355.646,362.749 358.023,345.686 345.855,330.421 C 333.615,315.229 312.592,306.661 303.447,311.772 z"
   style="fill:none;stroke:#000000;stroke-width:7.19899988" />
					<path
   id="path3384"
   d="M 127.839,306.661 C 111.639,299.821 106.095,309.108 112.863,324.805 C 119.559,340.574 136.983,358.933 155.488,368.293 C 174.064,377.653 184.719,371.461 175.792,353.245 C 166.863,335.029 144.111,313.501 127.839,306.661 z"
   style="fill:none;stroke:#000000;stroke-width:7.19899988" />
					<path
   id="path3386"
   d="M 363.424,192.541 C 359.32,196.429 361.623,205.573 368.391,213.061 C 375.303,220.405 384.231,223.285 388.479,219.397 C 392.655,215.58 390.424,206.293 383.583,198.949 C 376.6,191.532 367.6,188.652 363.424,192.541 z"
   style="fill:none;stroke:#000000;stroke-width:7.19899988" />
					<path
   id="path3388"
   d="M 40.649,97.933 C 46.121,99.517 52.817,93.109 55.839,83.389 C 58.791,73.741 56.847,64.525 51.377,62.869 C 45.977,61.213 39.064,67.621 36.041,77.341 C 33.16,86.989 35.177,96.205 40.649,97.933 z"
   style="fill:none;stroke:#000000;stroke-width:7.19899988" />
					<path
   id="path3390"
   d="M 293.439,460.381 C 292.142,465.854 299.199,472.261 308.991,474.566 C 318.783,476.797 327.855,474.062 329.15,468.517 C 330.519,462.901 323.462,456.637 313.599,454.406 C 303.879,452.173 294.807,454.766 293.439,460.381 z"
   style="fill:none;stroke:#000000;stroke-width:7.19899988" />
					<path
   id="path3392"
   d="M 41.153,509.413 C 36.329,512.436 36.833,521.869 42.161,530.509 C 47.561,539.005 55.839,543.47 60.735,540.446 C 65.559,537.35 65.055,527.918 59.727,519.422 C 54.329,510.854 46.048,506.316 41.153,509.413 z"
   style="fill:none;stroke:#000000;stroke-width:7.19899988" />
					<path
   id="path3394"
   d="M 512.247,451.669 C 506.487,451.453 501.663,459.517 501.23,469.598 C 500.871,479.605 505.119,488.03 510.878,488.245 C 516.637,488.46 521.462,480.396 521.894,470.316 C 522.184,460.308 517.863,451.812 512.247,451.669 z"
   style="fill:none;stroke:#000000;stroke-width:7.19899988" />
				</g>
			</g>
		</g></svg>