<?xml version="1.0" encoding="UTF-8" standalone="no"?>
<!-- Generator: Adobe Illustrator 10, SVG Export Plug-In . SVG Version: 3.0.0 Build 76)  -->
<svg
   xmlns:dc="http://purl.org/dc/elements/1.1/"
   xmlns:cc="http://creativecommons.org/ns#"
   xmlns:rdf="http://www.w3.org/1999/02/22-rdf-syntax-ns#"
   xmlns:svg="http://www.w3.org/2000/svg"
   xmlns="http://www.w3.org/2000/svg"
   xmlns:sodipodi="http://sodipodi.sourceforge.net/DTD/sodipodi-0.dtd"
   xmlns:inkscape="http://www.inkscape.org/namespaces/inkscape"
   width="351.31342"
   height="324.2254"
   viewBox="0 0 468.311 495.096"
   style="overflow:visible"
   xml:space="preserve"
   id="svg3987"
   sodipodi:version="0.32"
   inkscape:version="0.46"
   sodipodi:docname="HelloWorld.svg"
   inkscape:output_extension="org.inkscape.output.svg.inkscape"
   version="1.0"><metadata
   id="metadata4029"><rdf:RDF><cc:Work
       rdf:about=""><dc:format>image/svg+xml</dc:format><dc:type
         rdf:resource="http://purl.org/dc/dcmitype/StillImage" /></cc:Work></rdf:RDF></metadata><defs
   id="defs4027"><inkscape:perspective
   sodipodi:type="inkscape:persp3d"
   inkscape:vp_x="0 : 247.548 : 1"
   inkscape:vp_y="0 : 1000 : 0"
   inkscape:vp_z="468.311 : 247.548 : 1"
   inkscape:persp3d-origin="234.1555 : 165.032 : 1"
   id="perspective4031" />
		
	
			
			
			
			
			
			
			
			
		</defs><sodipodi:namedview
   inkscape:window-height="670"
   inkscape:window-width="640"
   inkscape:pageshadow="2"
   inkscape:pageopacity="0.0"
   guidetolerance="10.0"
   gridtolerance="10.0"
   objecttolerance="10.0"
   borderopacity="1.0"
   bordercolor="#666666"
   pagecolor="#ffffff"
   id="base"
   showgrid="false"
   inkscape:zoom="0.93315234"
   inkscape:cx="380.56151"
   inkscape:cy="211.15095"
   inkscape:window-x="70"
   inkscape:window-y="33"
   inkscape:current-layer="svg3987" />
	
<path
   style="fill:none;stroke:#000000;stroke-width:2.02542853;overflow:visible"
   d="M 346.87111,1.0126987 L 309.25928,133.52067 L 164.37488,135.97153 L 135.64568,123.55845 L 102.5309,149.16033 L 54.535387,166.79426 L 66.160527,188.33429 L 142.363,168.06626 L 200.45358,209.57961 L 143.43191,244.95131 L -33.061643,332.33609 L -22.462653,365.93493 L 89.022947,293.93938 L 69.106137,318.2998 L 86.804197,344.07117 L 148.89403,281.80116 L 254.58615,300.10698 L 439.66914,494.08329 L 463.9242,465.22734 L 304.2461,324.40173 L 443.82414,331.00606 L 453.78331,285.11936 L 288.08421,270.94258 L 264.30558,223.85412 L 333.50059,180.51905 L 501.37264,125.19999 L 472.3136,68.190528 L 370.35502,129.90318 L 392.62344,26.364148 L 346.87111,1.0126987 z M 233.1576,251.02882 L 209.82333,246.34242 L 225.67829,239.48003 L 233.1576,251.02882 z M 237.3523,189.76663 L 209.31331,164.3037 L 269.3493,170.18881 L 237.3523,189.76663 z"
   id="path4024" /></svg>