<?xml version="1.0" encoding="UTF-8" standalone="no"?>
<!-- Generator: Adobe Illustrator 10, SVG Export Plug-In . SVG Version: 3.0.0 Build 76)  -->
<svg
   xmlns:dc="http://purl.org/dc/elements/1.1/"
   xmlns:cc="http://creativecommons.org/ns#"
   xmlns:rdf="http://www.w3.org/1999/02/22-rdf-syntax-ns#"
   xmlns:svg="http://www.w3.org/2000/svg"
   xmlns="http://www.w3.org/2000/svg"
   xmlns:sodipodi="http://sodipodi.sourceforge.net/DTD/sodipodi-0.dtd"
   xmlns:inkscape="http://www.inkscape.org/namespaces/inkscape"
   width="273.76822"
   height="286.3504"
   viewBox="0 0 468.311 572.021"
   style="overflow:visible"
   xml:space="preserve"
   id="svg4033"
   sodipodi:version="0.32"
   inkscape:version="0.46"
   sodipodi:docname="Spore.svg"
   inkscape:output_extension="org.inkscape.output.svg.inkscape"
   version="1.0"><metadata
   id="metadata4075"><rdf:RDF><cc:Work
       rdf:about=""><dc:format>image/svg+xml</dc:format><dc:type
         rdf:resource="http://purl.org/dc/dcmitype/StillImage" /></cc:Work></rdf:RDF></metadata><defs
   id="defs4073"><inkscape:perspective
   sodipodi:type="inkscape:persp3d"
   inkscape:vp_x="0 : 286.0105 : 1"
   inkscape:vp_y="0 : 1000 : 0"
   inkscape:vp_z="468.311 : 286.0105 : 1"
   inkscape:persp3d-origin="234.1555 : 190.67367 : 1"
   id="perspective4077" />
		
	
			
			
			
			
			
			
			
			
		</defs><sodipodi:namedview
   inkscape:window-height="670"
   inkscape:window-width="640"
   inkscape:pageshadow="2"
   inkscape:pageopacity="0.0"
   guidetolerance="10.0"
   gridtolerance="10.0"
   objecttolerance="10.0"
   borderopacity="1.0"
   bordercolor="#666666"
   pagecolor="#ffffff"
   id="base"
   showgrid="false"
   inkscape:zoom="0.80766266"
   inkscape:cx="469.75613"
   inkscape:cy="251.33912"
   inkscape:window-x="0"
   inkscape:window-y="0"
   inkscape:current-layer="svg4033" />
	
<path
   style="fill:none;stroke:#000000;stroke-width:2.64965129;overflow:visible"
   d="M 307.9716,91.072164 C 307.9716,91.072164 319.73762,194.21559 317.77395,222.3142 C 315.81028,250.41081 270.62199,334.89241 270.62199,334.89241 L 200.74902,419.2981 L 139.26409,326.82799 L 73.717993,276.56972 C 84.425263,256.86514 71.232943,245.10711 53.198383,229.8892 C 31.054693,211.2034 -18.384547,245.59453 -33.820207,270.11339 C -49.255867,294.63026 -16.586687,327.53115 -16.586687,327.53115 C -16.586687,327.53115 32.880523,313.23215 52.864773,300.88283 L 115.75603,347.41952 L 180.12753,434.83164 L 147.49232,437.67026 L 74.505053,465.51118 C 74.505053,465.51118 48.454013,447.78025 25.752993,454.2206 C -2.1198767,462.1252 17.938283,551.10146 17.938283,551.10146 L 76.554623,570.69617 L 85.685773,497.43923 L 154.84358,469.30467 L 180.8287,465.65301 L 172.11705,525.11834 L 179.12472,528.15273 L 186.27023,531.15117 L 193.52761,534.11365 L 200.92082,537.02419 L 211.65806,468.67741 L 283.88423,518.35638 L 421.59861,551.35116 L 424.11761,546.05746 L 426.76841,540.70781 L 429.52311,535.30224 L 432.39971,529.84073 L 299.26994,499.54473 L 241.81422,462.30099 L 263.38659,460.84472 L 390.68331,428.10563 L 506.27391,339.79858 L 503.35341,335.21003 L 500.50281,330.48764 L 497.70811,325.63541 L 494.97141,320.64334 L 382.64681,406.47933 L 256.57868,435.18721 L 226.88596,435.30707 L 292.12443,349.98247 C 292.12443,349.98247 332.50844,265.87843 340.80461,232.97553 C 349.10071,200.07263 332.77612,96.002314 332.77612,96.002314 L 286.02568,5.9433344 L 266.57679,6.5286444 L 253.89586,1.3248244 L 307.9716,91.072164 z"
   id="path4070" /></svg>