<?xml version="1.0" encoding="UTF-8" standalone="no"?>
<!-- Generator: Adobe Illustrator 10, SVG Export Plug-In . SVG Version: 3.0.0 Build 76)  -->
<svg
   xmlns:dc="http://purl.org/dc/elements/1.1/"
   xmlns:cc="http://creativecommons.org/ns#"
   xmlns:rdf="http://www.w3.org/1999/02/22-rdf-syntax-ns#"
   xmlns:svg="http://www.w3.org/2000/svg"
   xmlns="http://www.w3.org/2000/svg"
   xmlns:sodipodi="http://sodipodi.sourceforge.net/DTD/sodipodi-0.dtd"
   xmlns:inkscape="http://www.inkscape.org/namespaces/inkscape"
   width="543.10846"
   height="774.31482"
   viewBox="0 0 551.879 853.808"
   style="overflow:visible"
   xml:space="preserve"
   id="svg2"
   sodipodi:version="0.32"
   inkscape:version="0.46"
   sodipodi:docname="Acrobat.svg"
   inkscape:output_extension="org.inkscape.output.svg.inkscape"
   version="1.0"><metadata
   id="metadata168"><rdf:RDF><cc:Work
       rdf:about=""><dc:format>image/svg+xml</dc:format><dc:type
         rdf:resource="http://purl.org/dc/dcmitype/StillImage" /></cc:Work></rdf:RDF></metadata><defs
   id="defs166"><inkscape:perspective
   sodipodi:type="inkscape:persp3d"
   inkscape:vp_x="0 : 426.90399 : 1"
   inkscape:vp_y="0 : 1000 : 0"
   inkscape:vp_z="551.87903 : 426.90399 : 1"
   inkscape:persp3d-origin="275.93951 : 284.60266 : 1"
   id="perspective170" />
		
		
	</defs><sodipodi:namedview
   inkscape:window-height="670"
   inkscape:window-width="640"
   inkscape:pageshadow="2"
   inkscape:pageopacity="0.0"
   guidetolerance="10.0"
   gridtolerance="10.0"
   objecttolerance="10.0"
   borderopacity="1.0"
   bordercolor="#666666"
   pagecolor="#ffffff"
   id="base"
   showgrid="false"
   inkscape:zoom="0.54110527"
   inkscape:cx="275.93951"
   inkscape:cy="426.90399"
   inkscape:window-x="76"
   inkscape:window-y="0"
   inkscape:current-layer="svg2" />
	<style
   type="text/css"
   id="style4">
	
		@font-face{font-family:'Times-Roman';src:url(2ED0F074.cef)}
	
	</style>
	
<g
   transform="matrix(1.1026626,0,0,1.1026626,-33.190908,5.7764914e-2)"
   style="overflow:visible"
   id="g23">
			<g
   id="g25">
				<path
   id="path27"
   d="M 237.984,24.374 C 238.847,13.502 244.679,2.702 251.951,2.126 C 259.583,1.478 266.495,15.59 267.143,24.374 L 256.199,24.374 C 256.199,19.262 254.831,15.014 253.103,15.014 C 251.375,15.014 250.007,19.262 250.007,24.374 L 237.984,24.374 z"
   style="fill:#e6e6e6" />
				<path
   id="path29"
   d="M 250.295,80.102 C 250.583,70.094 250.799,59.005 250.799,47.054 C 243.671,46.622 238.054,39.566 237.839,27.686 C 237.839,26.606 237.839,25.454 237.984,24.374 L 250.007,24.374 C 250.007,29.486 251.375,33.662 253.103,33.662 C 254.831,33.662 256.199,29.486 256.199,24.374 L 267.143,24.374 C 267.216,24.806 267.216,25.166 267.216,25.526 C 267.359,34.238 266.638,33.086 265.487,36.11 C 280.607,45.326 296.591,56.27 311.926,68.654 C 316.462,72.326 321.07,76.142 325.607,80.029 L 306.167,80.029 C 303.359,77.798 300.335,76.07 296.52,75.133 C 288.743,73.261 277.872,69.661 273.551,73.333 C 271.751,74.845 270.599,77.221 269.807,79.956 L 250.295,80.102 z"
   style="fill:#e6e6e6" />
				<path
   id="path31"
   d="M 326.471,80.029 C 314.592,71.318 307.175,63.182 307.32,56.341 C 307.608,45.11 328.92,42.445 356.712,59.653 C 366.361,65.557 375.36,72.757 382.992,80.028 L 361.176,80.028 C 353.689,75.421 346.273,71.101 338.857,66.924 C 338.857,68.436 338.712,69.876 338.712,71.46 C 343.752,74.196 348.864,77.076 353.904,80.027 L 326.471,80.027 L 326.471,80.029 z"
   style="fill:#e6e6e6" />
				<path
   id="path33"
   d="M 164.255,103.79 C 192.407,94.646 221.063,87.374 250.223,82.91 C 250.223,81.974 250.295,81.038 250.295,80.102 L 269.807,79.957 C 268.295,85.646 268.511,92.99 268.871,97.957 C 269.015,100.19 269.448,102.134 270.023,103.79 L 164.255,103.79 z"
   style="fill:#e6e6e6" />
				<path
   id="path35"
   d="M 332.375,103.79 C 332.52,103.142 332.592,102.566 332.592,102.062 C 333.167,92.846 322.151,93.35 315.167,87.734 C 311.855,85.07 309.119,82.334 306.167,80.029 L 325.607,80.029 C 334.607,87.662 343.535,95.654 352.462,103.79 L 332.375,103.79 z"
   style="fill:#e6e6e6" />
				<path
   id="path37"
   d="M 366.07,103.79 C 362.255,101.774 358.295,99.614 354.263,97.382 C 343.679,91.478 334.174,85.646 326.47,80.029 L 353.903,80.029 C 361.031,84.206 368.087,88.526 375.216,93.133 C 375.287,91.693 375.359,90.397 375.502,89.029 C 370.751,85.934 365.926,82.91 361.174,80.029 L 382.99,80.029 C 391.918,88.526 398.973,97.093 402.934,103.79 L 366.07,103.79 L 366.07,103.79 z"
   style="fill:#e6e6e6" />
				<path
   id="path39"
   d="M 66.409,135.326 C 94.271,127.838 121.847,118.55 149.207,108.902 C 154.175,107.173 159.216,105.446 164.255,103.79 L 270.023,103.79 C 271.391,107.678 273.767,110.27 277.079,112.358 C 281.039,114.734 286.583,108.614 294.431,112.43 C 301.488,115.814 304.079,132.662 309.047,135.398 L 278.303,135.326 C 277.366,135.182 276.503,135.038 275.783,134.966 C 271.967,134.678 272.471,135.182 270.887,135.254 L 270.96,135.326 L 238.415,135.326 C 240.359,131.438 242.448,128.342 244.535,126.11 C 245.399,123.23 246.551,120.35 247.992,117.614 C 248.352,113.582 248.784,109.909 248.928,105.734 C 215.88,111.133 183.12,119.774 151.152,130.43 C 146.184,132.086 141.288,133.67 136.321,135.326 L 66.409,135.326 z"
   style="fill:#e6e6e6" />
				<path
   id="path41"
   d="M 312.07,135.398 C 320.926,132.302 330.791,113.366 332.375,103.79 L 352.463,103.79 C 360.24,110.918 368.087,118.118 375.863,125.318 C 375.863,125.39 375.863,125.39 375.863,125.39 C 375.863,125.462 375.863,125.534 375.863,125.534 C 368.087,123.374 360.167,121.358 352.679,119.63 C 361.679,124.742 370.679,129.854 379.824,135.326 L 353.543,135.326 C 351.742,135.038 350.303,135.038 349.15,135.326 L 312.07,135.398 z"
   style="fill:#e6e6e6" />
				<path
   id="path43"
   d="M 366.07,103.79 C 387.959,115.166 405.527,121.574 406.39,113.798 C 406.679,111.494 405.382,107.966 402.935,103.79 L 366.07,103.79 z"
   style="fill:#e6e6e6" />
				<path
   id="path45"
   d="M 35.161,137.774 C 37.249,137.702 38.905,137.63 40.345,137.774 L 35.161,137.774 z"
   style="fill:#e6e6e6" />
				<path
   id="path47"
   d="M 57.121,137.774 C 60.217,136.981 63.313,136.19 66.409,135.326 L 136.321,135.326 C 133.8,136.118 131.28,136.981 128.688,137.774 L 57.121,137.774 z"
   style="fill:#e6e6e6" />
				<path
   id="path49"
   d="M 237.192,137.774 C 237.551,136.909 237.984,136.118 238.415,135.326 L 270.96,135.326 C 272.111,136.19 273.551,137.054 275.063,137.774 L 237.192,137.774 z"
   style="fill:#e6e6e6" />
				<path
   id="path51"
   d="M 286.008,137.774 C 283.487,136.694 280.608,135.83 278.303,135.326 L 309.047,135.398 C 309.623,135.686 310.272,135.83 310.919,135.686 C 311.279,135.614 311.711,135.542 312.07,135.398 L 349.15,135.326 C 348.142,135.542 347.422,136.046 347.134,136.837 C 347.062,137.126 346.99,137.414 346.99,137.774 L 286.008,137.774 z"
   style="fill:#e6e6e6" />
				<path
   id="path53"
   d="M 360.742,137.774 C 358.15,136.55 355.631,135.758 353.543,135.326 L 379.824,135.326 C 381.119,136.118 382.487,136.981 383.855,137.774 L 360.742,137.774 z"
   style="fill:#e6e6e6" />
				<path
   id="path55"
   d="M 11.113,151.742 C 12.409,144.83 23.281,138.854 31.849,138.062 C 33.073,137.918 34.153,137.846 35.161,137.774 L 40.345,137.774 C 43.945,137.918 46.105,138.71 49.057,139.79 C 51.721,139.142 54.457,138.494 57.121,137.774 L 128.687,137.774 C 113.352,142.742 97.943,147.422 82.465,151.742 L 41.353,151.742 C 41.353,149.438 38.545,147.566 35.089,147.566 C 31.633,147.566 28.897,149.438 28.897,151.742 L 11.113,151.742 L 11.113,151.742 z"
   style="fill:#e6e6e6" />
				<path
   id="path57"
   d="M 231.863,151.742 C 233.52,146.558 235.32,141.806 237.192,137.774 L 275.063,137.774 C 278.159,139.214 281.615,140.222 284.063,140.438 C 287.736,140.798 288.383,140.51 290.399,140.222 C 289.32,139.358 287.736,138.494 286.008,137.774 L 346.991,137.774 C 347.135,140.654 351.671,145.19 358.079,148.574 C 360.959,150.086 363.911,151.166 366.431,151.742 L 339.143,151.742 C 338.496,151.382 337.776,151.094 337.127,150.806 C 337.055,151.022 337.343,150.374 336.911,151.31 C 336.839,151.454 336.767,151.598 336.695,151.742 L 231.863,151.742 L 231.863,151.742 z"
   style="fill:#e6e6e6" />
				<path
   id="path59"
   d="M 372.768,151.742 C 373.2,151.598 373.488,151.31 373.631,150.95 C 374.856,148.502 369.815,142.67 362.471,138.638 C 361.897,138.35 361.32,138.062 360.742,137.774 L 383.855,137.774 C 385.799,138.926 387.67,140.078 389.615,141.302 C 389.398,141.662 389.255,141.95 389.039,142.31 C 393.646,145.478 398.255,148.574 402.791,151.742 L 389.255,151.742 C 388.175,151.022 387.096,150.302 386.016,149.582 C 385.655,150.302 385.295,151.022 384.864,151.742 L 372.768,151.742 L 372.768,151.742 z"
   style="fill:#e6e6e6" />
				<path
   id="path61"
   d="M 18.673,163.118 C 14.785,160.885 11.833,157.933 11.113,154.622 C 10.897,153.686 10.897,152.678 11.113,151.742 L 28.897,151.742 C 28.897,154.046 31.633,155.846 35.089,155.846 C 38.545,155.846 41.353,154.046 41.353,151.742 L 82.465,151.742 C 73.105,154.334 63.745,156.71 54.313,158.942 C 52.945,160.526 51.577,161.966 49.921,163.118 L 18.673,163.118 z"
   style="fill:#e6e6e6" />
				<path
   id="path63"
   d="M 228.767,163.118 C 229.704,159.158 230.783,155.342 231.863,151.742 L 336.696,151.742 C 336.12,152.75 334.967,154.55 333.96,155.846 C 339.071,157.214 336.912,155.486 349.73,161.822 C 350.521,162.182 351.385,162.686 352.249,163.118 L 325.393,163.118 C 324.817,162.902 324.241,162.686 323.665,162.47 C 323.594,162.686 323.449,162.902 323.377,163.118 L 268.657,163.118 C 268.657,159.086 264.913,155.846 260.377,155.846 C 255.841,155.846 252.169,159.086 252.169,163.118 L 228.767,163.118 z"
   style="fill:#e6e6e6" />
				<path
   id="path65"
   d="M 362.903,163.118 C 354.982,159.086 346.991,155.27 339.142,151.742 L 366.43,151.742 C 369.166,152.39 371.542,152.462 372.767,151.742 L 384.863,151.742 C 382.775,155.774 380.543,159.59 378.24,163.118 L 362.903,163.118 z"
   style="fill:#e6e6e6" />
				<path
   id="path67"
   d="M 406.247,163.118 C 400.559,159.302 394.943,155.558 389.255,151.742 L 402.791,151.742 C 408.335,155.558 413.807,159.374 419.279,163.118 L 406.247,163.118 z"
   style="fill:#e6e6e6" />
				<path
   id="path69"
   d="M 225.24,181.478 C 226.175,175.07 227.399,168.878 228.767,163.118 L 252.167,163.118 C 252.167,167.15 255.839,170.39 260.375,170.39 C 264.911,170.39 268.655,167.15 268.655,163.118 L 323.375,163.118 C 322.367,165.278 321.359,167.51 320.352,169.813 C 330.215,173.198 340.223,177.086 350.303,181.478 L 314.807,181.478 C 312.647,180.254 310.631,178.957 308.831,177.59 C 302.279,178.526 295.799,179.822 289.391,181.478 L 225.24,181.478 L 225.24,181.478 z"
   style="fill:#e6e6e6" />
				<path
   id="path71"
   d="M 361.824,181.478 C 362.327,180.83 362.831,180.182 363.407,179.534 C 350.592,173.27 337.991,167.942 325.39,163.118 L 352.246,163.118 C 360.239,167.51 370.462,174.854 377.374,181.478 L 361.824,181.478 z"
   style="fill:#e6e6e6" />
				<path
   id="path73"
   d="M 433.104,181.478 C 424.248,175.358 415.248,169.238 406.248,163.118 L 419.28,163.118 C 428.063,169.238 436.776,175.358 445.416,181.478 L 433.104,181.478 z"
   style="fill:#e6e6e6" />
				<path
   id="path75"
   d="M 18.673,163.118 C 24.144,166.214 31.489,167.87 37.249,167.222 C 43.441,166.574 47.113,165.134 49.921,163.118 L 18.673,163.118 z"
   style="fill:#e6e6e6" />
				<path
   id="path77"
   d="M 362.903,163.118 C 366.646,164.99 370.463,167.005 374.207,169.022 C 375.575,167.15 376.943,165.134 378.24,163.118 L 362.903,163.118 z"
   style="fill:#e6e6e6" />
				<path
   id="path79"
   d="M 181.247,193.861 C 185.855,191.486 190.463,189.47 194.567,188.029 C 213.719,181.334 216.887,181.981 225.167,181.837 C 225.167,181.694 225.24,181.622 225.24,181.478 L 289.39,181.478 C 279.095,184.286 269.014,188.102 259.366,193.07 C 259.366,193.358 259.294,193.574 259.294,193.861 L 216.022,193.861 C 206.878,193.07 197.518,192.422 188.086,191.918 C 188.086,192.566 188.086,193.214 188.086,193.861 L 181.247,193.861 z"
   style="fill:#e6e6e6" />
				<path
   id="path81"
   d="M 305.735,193.861 C 305.879,193.286 306.023,192.638 306.167,191.99 C 308.615,192.566 311.063,193.214 313.512,193.861 L 305.735,193.861 z"
   style="fill:#e6e6e6" />
				<path
   id="path83"
   d="M 346.271,193.861 C 342.023,192.638 337.775,191.27 333.814,189.83 C 325.966,186.95 319.846,184.358 314.806,181.478 L 350.302,181.478 C 353.183,182.702 356.062,183.998 358.943,185.366 C 359.879,184.07 360.814,182.774 361.824,181.478 L 377.375,181.478 C 381.695,185.582 384.719,189.398 385.079,192.062 C 385.728,192.638 386.447,193.286 387.096,193.861 L 346.271,193.861 z"
   style="fill:#e6e6e6" />
				<path
   id="path85"
   d="M 451.031,193.861 C 445.127,189.758 439.15,185.654 433.103,181.478 L 445.415,181.478 C 451.319,185.654 457.15,189.758 462.982,193.861 L 451.031,193.861 z"
   style="fill:#e6e6e6" />
				<path
   id="path87"
   d="M 186.287,234.47 C 186.287,233.462 186.287,232.382 186.287,231.374 C 164.472,237.35 147.623,234.542 147.047,224.246 C 146.615,216.182 164.327,202.646 181.247,193.861 L 188.087,193.861 C 188.015,206.606 187.799,220.142 187.727,234.542 L 186.287,234.47 z"
   style="fill:#e6e6e6" />
				<path
   id="path89"
   d="M 215.231,234.47 C 224.52,224.822 234.311,217.765 241.655,215.246 C 258.575,209.414 258.575,212.438 265.704,214.526 C 270.023,211.933 274.343,209.342 278.591,207.11 C 278.591,206.966 278.591,206.966 278.591,206.822 C 278.591,206.822 278.663,206.822 278.663,206.75 C 263.543,200.846 248.783,197.318 233.879,195.59 C 227.975,194.942 222.071,194.366 216.023,193.861 L 259.295,193.861 C 259.007,195.806 258.791,197.534 258.431,199.262 C 273.479,197.102 288.959,196.813 304.655,198.398 C 305.015,196.885 305.376,195.374 305.736,193.861 L 313.512,193.861 C 329.063,198.038 344.688,203.438 360.241,210.062 C 360.815,208.981 361.176,207.902 361.825,206.822 C 363.552,203.87 365.784,200.918 367.801,197.894 C 361.753,197.534 354.048,196.022 346.273,193.861 L 387.097,193.861 C 399.912,205.094 412.368,216.254 424.033,227.342 C 426.553,229.717 429.001,232.166 431.521,234.542 L 398.113,234.542 C 398.833,233.822 399.48,233.102 400.129,232.454 C 393.793,223.741 387.315,215.462 380.761,207.254 C 379.969,208.046 383.209,204.446 378.457,209.702 C 375.721,212.726 374.929,224.174 375.865,234.542 L 318.049,234.542 C 319.849,231.302 320.713,227.99 319.705,225.038 C 315.889,214.31 303.361,221.005 295.297,219.278 C 294.505,224.174 293.858,229.142 293.354,234.542 L 260.666,234.47 C 254.546,230.942 247.346,230.15 239.57,232.669 C 237.987,233.174 236.475,233.822 234.963,234.47 L 215.231,234.47 L 215.231,234.47 z"
   style="fill:#e6e6e6" />
				<path
   id="path91"
   d="M 509.566,234.542 C 490.703,221.51 471.119,207.83 451.031,193.861 L 462.982,193.861 C 482.711,207.902 501.935,221.51 520.511,234.542 L 509.566,234.542 L 509.566,234.542 z"
   style="fill:#e6e6e6" />
				<path
   id="path93"
   d="M 186.359,250.022 C 186.287,244.693 186.287,239.51 186.287,234.47 L 187.727,234.542 C 187.727,234.686 187.727,234.902 187.727,235.046 C 187.727,239.942 187.727,244.909 187.727,250.022 L 186.359,250.022 z"
   style="fill:#e6e6e6" />
				<path
   id="path95"
   d="M 202.559,250.094 C 206.447,244.406 210.767,239.15 215.231,234.47 L 234.96,234.47 C 227.903,237.782 221.351,243.182 215.807,250.094 L 202.559,250.094 z"
   style="fill:#e6e6e6" />
				<path
   id="path97"
   d="M 274.415,250.022 C 270.887,243.038 266.207,237.638 260.663,234.47 L 293.351,234.542 C 292.846,238.861 292.487,243.398 292.126,248.294 C 293.351,249.23 291.046,249.302 295.653,250.094 L 274.415,250.022 z"
   style="fill:#e6e6e6" />
				<path
   id="path99"
   d="M 298.535,250.094 C 303.863,249.014 313.726,242.029 318.047,234.542 L 375.863,234.542 C 376.367,241.022 377.592,246.998 379.39,250.31 L 363.335,250.022 C 359.014,246.782 353.974,244.909 348.574,244.909 C 343.174,244.909 338.061,246.782 333.813,250.022 L 298.535,250.094 z"
   style="fill:#e6e6e6" />
				<path
   id="path101"
   d="M 385.223,250.094 C 389.543,244.19 393.864,239.078 398.112,234.542 L 431.52,234.542 C 436.919,239.798 442.248,245.054 447.431,250.094 L 419.927,250.094 C 418.127,249.518 416.326,248.942 414.528,248.366 C 414.383,248.726 414.168,249.23 413.88,250.022 L 385.223,250.094 z"
   style="fill:#e6e6e6" />
				<path
   id="path103"
   d="M 528.215,250.094 C 525.335,247.933 524.399,246.206 523.823,244.334 C 519.142,241.094 514.39,237.854 509.566,234.542 L 520.511,234.542 C 522.886,236.198 525.191,237.854 527.566,239.51 C 531.382,238.861 536.783,240.158 542.47,243.614 C 545.494,245.414 547.943,247.933 549.023,250.166 L 528.215,250.094 z"
   style="fill:#e6e6e6" />
				<path
   id="path105"
   d="M 186.503,276.878 C 186.431,267.446 186.359,258.518 186.359,250.022 L 187.727,250.022 C 187.727,258.518 187.799,267.374 187.799,276.878 L 186.503,276.878 z"
   style="fill:#e6e6e6" />
				<path
   id="path107"
   d="M 189.239,276.95 C 192.119,267.518 196.871,258.374 202.559,250.094 L 215.807,250.094 C 209.903,257.438 205.079,266.654 201.839,276.95 L 189.239,276.95 z"
   style="fill:#e6e6e6" />
				<path
   id="path109"
   d="M 281.111,276.95 C 280.39,266.51 278.014,257.366 274.415,250.022 L 295.654,250.094 C 295.943,250.094 296.302,250.166 296.663,250.238 C 297.167,250.31 297.814,250.31 298.535,250.094 L 333.814,250.022 C 326.254,255.782 321.214,265.717 321.07,276.95 L 301.558,277.166 C 300.334,273.998 299.111,270.758 297.886,267.302 C 297.238,267.302 296.662,267.374 296.086,267.374 C 296.446,271.262 295.942,256.142 296.519,275.654 L 281.111,276.95 z"
   style="fill:#e6e6e6" />
				<path
   id="path111"
   d="M 376.079,276.95 C 375.935,265.717 370.894,255.782 363.336,250.022 L 379.391,250.31 C 379.752,250.957 380.112,251.462 380.471,251.894 C 386.016,258.158 381.911,253.693 382.415,254.054 C 383.352,252.686 384.288,251.39 385.223,250.094 L 413.879,250.022 C 412.223,254.27 408.191,264.782 402.431,276.95 L 376.079,276.95 z"
   style="fill:#e6e6e6" />
				<path
   id="path113"
   d="M 419.927,250.094 C 428.639,252.974 437.495,256.07 446.424,259.094 C 444.983,260.174 443.399,261.326 441.887,262.406 C 450.742,267.59 459.383,272.342 467.879,276.518 C 473.567,273.062 479.688,270.326 486.238,267.878 C 477.383,263.27 468.167,257.87 458.879,252.11 C 456.719,253.118 454.704,254.198 452.688,255.278 C 450.959,253.549 449.231,251.894 447.431,250.094 L 419.927,250.094 L 419.927,250.094 z"
   style="fill:#e6e6e6" />
				<path
   id="path115"
   d="M 528.215,250.094 C 528.936,250.598 529.727,251.102 530.663,251.678 C 535.559,254.558 545.062,256.861 548.447,254.846 C 550.031,253.909 550.103,252.11 549.023,250.166 L 528.215,250.094 z"
   style="fill:#e6e6e6" />
				<path
   id="path117"
   d="M 200.975,358.886 C 191.687,341.246 185.855,320.798 185.711,307.982 C 185.351,281.774 185.927,295.958 186.647,290.27 C 186.575,285.734 186.575,281.27 186.503,276.878 L 187.799,276.878 C 187.871,278.678 187.871,280.478 187.871,282.278 C 188.231,280.478 188.735,278.75 189.239,276.95 L 201.839,276.95 C 199.031,286.094 197.519,296.174 197.663,306.686 C 197.951,328.142 204.719,347.294 214.799,358.886 L 200.975,358.886 z"
   style="fill:#e6e6e6" />
				<path
   id="path119"
   d="M 238.055,358.814 C 237.551,347.582 237.192,336.35 236.759,325.046 C 241.223,323.75 245.615,322.382 250.079,320.942 C 250.439,333.614 250.943,346.214 251.519,358.814 L 238.055,358.814 z"
   style="fill:#e6e6e6" />
				<path
   id="path121"
   d="M 258.071,358.814 C 272.543,343.262 281.688,314.462 281.399,283.358 C 281.399,281.198 281.328,279.038 281.112,276.95 L 296.52,275.654 C 296.592,276.95 296.592,278.39 296.664,280.046 C 297.168,297.254 289.464,332.606 276.36,358.886 L 258.071,358.814 z"
   style="fill:#e6e6e6" />
				<path
   id="path123"
   d="M 301.559,277.166 C 341.879,380.27 382.705,318.71 402.431,276.95 L 376.079,276.95 C 376.079,277.094 376.079,277.238 376.079,277.382 C 376.079,319.574 321.07,319.358 321.07,277.382 C 321.07,277.238 321.07,277.094 321.07,276.95 L 301.559,277.166 z"
   style="fill:#e6e6e6" />
				<path
   id="path125"
   d="M 246.119,740.918 C 245.687,738.758 245.472,736.67 245.399,734.726 C 244.823,719.679 249.935,712.479 257.495,708.951 C 254.543,655.743 251.159,602.895 247.991,550.479 C 244.752,497.918 241.799,445.359 239.279,392.51 C 224.231,392.366 210.695,377.174 200.975,358.886 L 214.799,358.886 C 221.496,366.446 229.704,370.694 238.487,370.118 C 238.342,366.302 238.199,362.558 238.054,358.814 L 251.518,358.814 C 251.59,360.686 251.734,362.63 251.806,364.502 C 253.966,362.918 256.054,360.974 258.07,358.814 L 276.358,358.886 C 269.806,372.134 261.814,383.006 252.886,388.118 C 256.053,441.471 259.87,494.679 263.902,547.67 C 267.934,600.446 271.822,654.014 275.278,707.582 C 284.925,710.389 292.486,719.966 293.206,736.382 C 293.278,737.895 293.278,739.406 293.134,740.918 L 279.022,740.918 C 279.022,733.502 274.774,727.454 269.662,727.454 C 264.55,727.454 260.374,733.502 260.374,740.918 L 246.119,740.918 z"
   style="fill:#e6e6e6" />
				<path
   id="path127"
   d="M 246.119,740.918 C 248.999,755.174 259.295,771.805 270.815,772.095 C 282.839,772.454 292.127,756.254 293.135,740.918 L 279.023,740.918 C 279.023,748.334 274.775,754.382 269.663,754.382 C 264.551,754.382 260.375,748.334 260.375,740.918 L 246.119,740.918 z"
   style="fill:#e6e6e6" />
			</g>
			<g
   id="g129">
				<path
   id="path131"
   d="M 389.039,142.31 C 437.783,175.502 484.583,209.486 527.566,239.51 C 531.382,238.861 536.783,240.158 542.47,243.614 C 548.157,247.07 551.83,252.83 548.447,254.846 C 545.062,256.861 535.558,254.558 530.663,251.678 C 525.767,248.798 524.543,246.638 523.823,244.334 C 481.054,215.029 434.398,181.765 386.015,149.582 C 382.342,156.782 378.382,163.262 374.206,169.022 C 361.823,162.326 349.438,156.35 337.126,150.806 C 337.054,151.022 337.342,150.374 336.91,151.31 C 336.477,152.246 335.11,154.406 333.958,155.846 C 339.069,157.214 336.91,155.486 349.728,161.822 C 362.542,168.158 383.999,184.718 385.079,192.062 C 398.615,203.87 411.719,215.678 424.031,227.342 C 433.967,236.846 443.615,246.35 452.687,255.279 C 454.704,254.199 456.718,253.119 458.878,252.111 C 468.166,257.871 477.382,263.271 486.237,267.879 C 479.686,270.327 473.565,273.063 467.878,276.519 C 459.382,272.343 450.741,267.591 441.886,262.407 C 443.398,261.327 444.982,260.175 446.423,259.095 C 435.622,255.423 424.966,251.679 414.527,248.367 C 410.783,256.862 353.327,423.11 297.886,267.303 C 297.238,267.303 296.662,267.375 296.086,267.375 C 296.446,271.551 295.87,254.055 296.662,280.047 C 297.454,305.967 279.598,372.856 252.886,388.119 C 256.053,441.472 259.87,494.68 263.902,547.671 C 267.934,600.447 271.822,654.015 275.278,707.583 C 284.925,710.39 292.486,719.967 293.206,736.383 C 293.926,752.799 284.061,772.527 270.814,772.096 C 257.566,771.735 245.902,749.774 245.398,734.727 C 244.822,719.68 249.934,712.48 257.494,708.952 C 254.542,655.744 251.158,602.896 247.99,550.48 C 244.751,497.919 241.798,445.36 239.278,392.511 C 209.83,392.295 186.07,334.191 185.71,307.983 C 185.35,281.775 185.926,295.959 186.646,290.271 C 186.43,268.455 186.286,249.015 186.286,231.375 C 164.471,237.351 147.622,234.543 147.046,224.247 C 146.47,214.023 175.342,194.799 194.566,188.03 C 213.718,181.335 216.886,181.982 225.166,181.838 C 228.983,156.135 236.471,134.679 244.534,126.111 C 245.398,123.231 246.55,120.351 247.991,117.615 C 248.351,113.583 248.783,109.91 248.927,105.735 C 215.879,111.134 183.119,119.775 151.151,130.431 C 119.111,141.087 86.857,151.311 54.313,158.943 C 50.713,163.191 47.113,166.143 37.249,167.223 C 27.385,168.303 12.841,162.687 11.113,154.623 C 9.385,146.559 22.129,138.999 31.849,138.063 C 41.569,137.127 44.377,138.063 49.057,139.791 C 82.825,131.655 116.159,120.567 149.207,108.903 C 182.111,97.311 215.879,88.167 250.223,82.911 C 250.512,72.183 250.8,60.159 250.8,47.055 C 243.672,46.623 238.055,39.567 237.84,27.687 C 237.696,15.807 243.961,2.775 251.952,2.127 C 259.944,1.479 267.072,16.815 267.218,25.527 C 267.361,34.239 266.64,33.087 265.489,36.111 C 280.609,45.327 296.593,56.271 311.928,68.655 C 333.456,86.006 354.624,105.807 375.865,125.319 C 375.865,125.391 375.865,125.391 375.865,125.391 C 375.865,125.463 375.865,125.535 375.865,125.535 C 368.089,123.375 360.169,121.359 352.681,119.631 C 364.92,126.543 377.088,133.527 389.617,141.303 C 389.398,141.662 389.255,141.95 389.039,142.31 z"
   style="fill:none;stroke:#000000;stroke-width:4.31899977" />
				<path
   id="path133"
   d="M 269.663,727.454 C 264.551,727.454 260.375,733.502 260.375,740.918 C 260.375,748.334 264.551,754.382 269.663,754.382 C 274.775,754.382 279.023,748.334 279.023,740.918 C 279.023,733.502 274.775,727.454 269.663,727.454 z"
   style="fill:none;stroke:#000000;stroke-width:4.31899977" />
				<path
   id="path135"
   d="M 35.089,147.566 C 31.633,147.566 28.897,149.438 28.897,151.742 C 28.897,154.046 31.633,155.846 35.089,155.846 C 38.545,155.846 41.353,154.046 41.353,151.742 C 41.353,149.438 38.545,147.566 35.089,147.566 z"
   style="fill:none;stroke:#000000;stroke-width:4.31899977" />
				<path
   id="path137"
   d="M 253.103,15.014 C 251.375,15.014 250.007,19.262 250.007,24.374 C 250.007,29.486 251.375,33.662 253.103,33.662 C 254.831,33.662 256.199,29.486 256.199,24.374 C 256.199,19.262 254.831,15.014 253.103,15.014 z"
   style="fill:none;stroke:#000000;stroke-width:4.31899977" />
				<path
   id="path139"
   d="M 260.375,155.846 C 255.839,155.846 252.167,159.086 252.167,163.118 C 252.167,167.15 255.839,170.39 260.375,170.39 C 264.911,170.39 268.655,167.15 268.655,163.118 C 268.655,159.086 264.911,155.846 260.375,155.846 z"
   style="fill:none;stroke:#000000;stroke-width:4.31899977" />
				<path
   id="path141"
   d="M 348.575,244.909 C 363.623,244.909 376.079,259.597 376.079,277.382 C 376.079,319.574 321.07,319.358 321.07,277.382 C 321.07,259.597 333.455,244.909 348.575,244.909 z"
   style="fill:none;stroke:#000000;stroke-width:4.31899977" />
				<path
   id="path143"
   d="M 296.52,75.134 C 288.743,73.262 277.872,69.662 273.551,73.334 C 268.079,77.87 268.295,90.542 268.871,97.957 C 269.448,105.374 272.327,109.406 277.079,112.358 C 281.039,114.734 286.583,108.614 294.431,112.43 C 302.28,116.246 304.655,136.766 310.919,135.686 C 320.639,133.885 332.015,111.278 332.592,102.062 C 333.167,92.846 322.151,93.35 315.167,87.734 C 308.688,82.478 304.367,77.005 296.52,75.134 z"
   style="fill:none;stroke:#000000;stroke-width:4.31899977" />
				<path
   id="path145"
   d="M 363.407,179.534 C 350.014,172.981 336.839,167.438 323.663,162.47 C 322.583,164.846 321.431,167.294 320.351,169.813 C 333.095,174.206 345.982,179.39 358.943,185.366 C 360.384,183.35 361.824,181.334 363.407,179.534 z"
   style="fill:none;stroke:#000000;stroke-width:4.31899977" />
				<path
   id="path147"
   d="M 375.503,89.029 C 363.264,81.11 351.024,73.766 338.856,66.925 C 338.856,68.437 338.711,69.877 338.711,71.461 C 350.879,78.085 363.047,85.285 375.217,93.133 C 375.288,91.694 375.359,90.398 375.503,89.029 z"
   style="fill:none;stroke:#000000;stroke-width:4.31899977" />
				<path
   id="path149"
   d="M 373.631,150.95 C 374.856,148.502 369.815,142.67 362.471,138.638 C 355.127,134.678 348.143,134.029 347.135,136.837 C 346.127,139.646 350.951,144.83 358.079,148.574 C 365.207,152.318 372.407,153.398 373.631,150.95 z"
   style="fill:none;stroke:#000000;stroke-width:4.31899977" />
				<path
   id="path151"
   d="M 406.391,113.798 C 405.383,122.942 381.264,112.43 354.264,97.382 C 327.263,82.334 307.032,67.574 307.32,56.342 C 307.608,45.111 328.92,42.446 356.712,59.654 C 384.503,76.79 407.398,104.582 406.391,113.798 z"
   style="fill:none;stroke:#000000;stroke-width:4.31899977" />
				<path
   id="path153"
   d="M 367.8,197.894 C 358.44,197.39 345.047,193.933 333.815,189.83 C 322.584,185.726 314.879,182.126 308.832,177.59 C 291.552,179.966 274.92,185.078 259.368,193.07 C 259.08,195.302 258.864,197.318 258.432,199.262 C 273.48,197.102 288.96,196.813 304.656,198.398 C 305.16,196.238 305.665,194.15 306.169,191.99 C 324.169,196.382 342.24,202.43 360.242,210.062 C 360.816,208.981 361.177,207.902 361.826,206.822 C 363.551,203.87 365.783,200.918 367.8,197.894 z"
   style="fill:none;stroke:#000000;stroke-width:4.31899977" />
				<path
   id="path155"
   d="M 187.871,282.278 C 194.855,250.669 224.735,221.078 241.655,215.246 C 258.575,209.414 258.575,212.438 265.704,214.526 C 270.023,211.933 274.343,209.342 278.591,207.11 C 278.591,206.966 278.591,206.966 278.591,206.822 C 278.591,206.822 278.663,206.822 278.663,206.75 C 263.543,200.846 248.783,197.318 233.879,195.59 C 219.047,193.933 203.711,192.782 188.087,191.918 C 188.015,205.382 187.799,219.71 187.727,235.046 C 187.727,249.374 187.727,264.782 187.871,282.278 z"
   style="fill:none;stroke:#000000;stroke-width:4.31899977" />
				<path
   id="path157"
   d="M 292.127,248.294 C 293.423,249.302 290.688,249.302 296.663,250.238 C 302.711,251.174 323.375,235.837 319.703,225.038 C 315.887,214.31 303.359,221.005 295.295,219.278 C 293.927,228.134 292.919,237.278 292.127,248.294 z"
   style="fill:none;stroke:#000000;stroke-width:4.31899977" />
				<path
   id="path159"
   d="M 380.759,207.254 C 379.967,208.046 383.207,204.446 378.455,209.702 C 373.775,214.885 374.783,245.558 380.471,251.894 C 386.016,258.158 381.911,253.693 382.415,254.054 C 388.391,245.414 394.295,238.43 400.127,232.454 C 393.791,223.741 387.312,215.462 380.759,207.254 z"
   style="fill:none;stroke:#000000;stroke-width:4.31899977" />
				<path
   id="path161"
   d="M 238.487,370.118 C 237.839,355.07 237.335,340.166 236.758,325.046 C 241.222,323.75 245.614,322.382 250.078,320.942 C 250.51,335.558 251.086,349.958 251.806,364.502 C 269.878,351.11 281.686,318.71 281.397,283.358 C 281.11,248.005 263.11,225.038 239.565,232.669 C 216.021,240.302 197.085,271.118 197.661,306.686 C 198.167,342.254 216.311,371.63 238.487,370.118 z"
   style="fill:none;stroke:#000000;stroke-width:4.31899977" />
				<path
   id="path163"
   d="M 270.887,135.254 C 274.343,137.99 280.39,140.078 284.062,140.438 C 287.735,140.798 288.382,140.51 290.398,140.222 C 287.158,137.63 279.599,135.254 275.783,134.966 C 271.967,134.678 272.471,135.182 270.887,135.254 z"
   style="fill:none;stroke:#000000;stroke-width:4.31899977" />
			</g>
		</g></svg>