<?xml version="1.0" encoding="UTF-8" standalone="no"?>
<!-- Generator: Adobe Illustrator 10, SVG Export Plug-In . SVG Version: 3.0.0 Build 76)  -->
<svg
   xmlns:dc="http://purl.org/dc/elements/1.1/"
   xmlns:cc="http://creativecommons.org/ns#"
   xmlns:rdf="http://www.w3.org/1999/02/22-rdf-syntax-ns#"
   xmlns:svg="http://www.w3.org/2000/svg"
   xmlns="http://www.w3.org/2000/svg"
   xmlns:sodipodi="http://sodipodi.sourceforge.net/DTD/sodipodi-0.dtd"
   xmlns:inkscape="http://www.inkscape.org/namespaces/inkscape"
   width="551.30396"
   height="622.58295"
   viewBox="0 0 558.941 700.41"
   style="overflow:visible"
   xml:space="preserve"
   id="svg2543"
   sodipodi:version="0.32"
   inkscape:version="0.46"
   sodipodi:docname="Alien.svg"
   inkscape:output_extension="org.inkscape.output.svg.inkscape"
   version="1.0"><metadata
   id="metadata2837"><rdf:RDF><cc:Work
       rdf:about=""><dc:format>image/svg+xml</dc:format><dc:type
         rdf:resource="http://purl.org/dc/dcmitype/StillImage" /></cc:Work></rdf:RDF></metadata><defs
   id="defs2835"><inkscape:perspective
   sodipodi:type="inkscape:persp3d"
   inkscape:vp_x="0 : 350.20499 : 1"
   inkscape:vp_y="0 : 1000 : 0"
   inkscape:vp_z="558.94098 : 350.20499 : 1"
   inkscape:persp3d-origin="279.47049 : 233.46999 : 1"
   id="perspective2839" />
		
		
	</defs><sodipodi:namedview
   inkscape:window-height="670"
   inkscape:window-width="640"
   inkscape:pageshadow="2"
   inkscape:pageopacity="0.0"
   guidetolerance="10.0"
   gridtolerance="10.0"
   objecttolerance="10.0"
   borderopacity="1.0"
   bordercolor="#666666"
   pagecolor="#ffffff"
   id="base"
   showgrid="false"
   inkscape:zoom="0.65961368"
   inkscape:cx="279.47049"
   inkscape:cy="350.20499"
   inkscape:window-x="0"
   inkscape:window-y="64"
   inkscape:current-layer="svg2543" />
	<style
   type="text/css"
   id="style2545">
	
		@font-face{font-family:'Times-Roman';src:url(20CC0EC7.cef)}
	
	</style>
	
<g
   style="overflow:visible"
   id="g2564"
   transform="matrix(1.1250067,0,0,1.1250067,-39.232066,5.1626377e-4)">
			<g
   id="g2566">
				<g
   id="g2568">
					<g
   id="g2570">
						<path
   id="path2572"
   d="M 270.868,68.687 C 271.589,61.919 277.277,56.591 284.333,56.591 C 291.317,56.591 297.004,61.919 297.725,68.687 L 290.598,68.687 C 290.598,65.015 287.574,61.919 283.902,61.919 C 280.086,61.919 277.061,65.015 277.061,68.687 L 270.868,68.687 z"
   style="fill:#4d4d4d" />
						<path
   id="path2574"
   d="M 212.117,302.255 C 229.901,288.143 249.341,281.447 263.381,284.183 C 257.261,272.231 253.589,256.319 253.589,238.967 C 253.589,205.99 266.908,178.487 284.548,172.944 C 286.277,158.616 287.429,144.143 286.78,129.743 C 286.059,114.12 283.251,98.496 279.867,82.872 C 274.612,81.071 270.796,75.96 270.796,70.056 C 270.796,69.624 270.796,69.12 270.867,68.688 L 277.059,68.688 C 277.059,72.432 280.083,75.457 283.9,75.457 C 287.572,75.457 290.596,72.433 290.596,68.688 L 297.723,68.688 C 297.795,69.121 297.795,69.625 297.795,70.056 C 297.795,74.52 295.707,78.48 292.467,80.928 C 292.827,81.432 293.188,82.08 293.331,82.728 C 296.787,98.352 299.668,114.048 300.315,129.744 C 300.962,144.217 299.739,158.833 298.011,173.305 C 315.29,179.065 328.395,206.353 328.395,238.969 C 328.395,254.953 325.227,269.713 319.97,281.233 C 334.947,278.21 356.187,285.985 375.05,302.257 L 345.819,302.257 C 333.939,292.105 320.619,287.209 311.115,289.153 C 314.499,281.809 316.515,272.521 316.515,262.37 C 316.515,239.114 305.859,220.034 292.827,220.034 C 279.795,220.034 269.211,239.114 269.211,262.37 C 269.211,273.386 271.515,283.466 275.403,290.954 C 266.618,289.298 254.379,293.401 243.147,302.258 L 212.117,302.258 L 212.117,302.255 z"
   style="fill:#4d4d4d" />
						<path
   id="path2576"
   d="M 178.853,344.879 C 183.461,333.719 191.309,321.91 201.894,311.326 C 205.206,308.014 208.59,304.99 212.118,302.255 L 243.15,302.255 C 240.918,303.983 238.687,305.927 236.526,308.087 C 224.646,320.111 218.238,334.44 219.101,344.879 L 178.853,344.879 z"
   style="fill:#4d4d4d" />
						<path
   id="path2578"
   d="M 265.973,344.879 C 266.981,344.015 267.989,343.078 268.997,342.07 C 268.997,343.007 268.997,343.943 269.069,344.879 L 265.973,344.879 z"
   style="fill:#4d4d4d" />
						<path
   id="path2580"
   d="M 316.229,344.879 C 316.3,343.943 316.3,343.007 316.3,342.07 C 316.3,341.134 316.3,340.198 316.229,339.262 C 316.445,339.406 316.589,339.55 316.661,339.694 C 318.533,341.566 320.477,343.295 322.422,344.879 L 316.229,344.879 z"
   style="fill:#4d4d4d" />
						<path
   id="path2582"
   d="M 367.277,344.879 C 369.22,334.295 362.813,318.959 350.14,306.287 C 348.701,304.847 347.261,303.55 345.821,302.255 L 375.052,302.255 C 377.284,304.199 379.517,306.215 381.677,308.375 C 393.197,319.895 401.477,332.782 405.796,344.879 L 367.277,344.879 L 367.277,344.879 z"
   style="fill:#4d4d4d" />
						<path
   id="path2584"
   d="M 73.949,422.856 C 74.669,419.183 76.973,415.799 80.429,413.783 C 85.541,410.832 91.877,411.624 96.053,415.296 C 111.317,410.4 126.221,405 140.117,397.8 C 152.501,391.392 164.093,383.472 175.325,375.12 C 172.949,366.767 174.317,356.111 178.853,344.88 L 219.1,344.88 C 219.461,348.84 220.901,352.296 223.421,354.816 C 231.772,363.241 250.277,358.92 265.973,344.88 L 269.069,344.88 C 269.861,366.84 280.156,384.407 292.685,384.407 C 305.14,384.407 315.437,366.84 316.229,344.88 L 322.421,344.88 C 337.757,357.336 355.181,361.008 363.317,352.872 C 365.405,350.783 366.701,348.048 367.277,344.88 L 405.797,344.88 C 409.541,355.32 410.405,365.111 408.029,372.816 C 418.901,380.953 430.133,388.585 442.229,394.848 C 456.125,402.048 471.029,407.376 486.292,412.273 C 490.468,408.672 496.804,407.88 501.916,410.76 C 506.308,413.352 508.757,418.104 508.685,422.857 L 503.357,422.857 C 503.285,420.48 502.132,418.176 499.972,416.953 C 496.733,415.153 492.556,416.233 490.685,419.473 C 490.037,420.553 489.748,421.704 489.748,422.858 L 475.925,422.858 C 461.956,418.322 448.204,413.21 435.388,406.586 C 423.076,400.178 411.628,392.33 400.468,383.905 C 384.916,395.785 353.597,386.137 328.685,361.225 C 328.468,361.009 328.325,360.866 328.037,360.577 C 328.109,362.161 328.182,363.53 328.182,364.97 C 328.182,389.665 320.621,411.266 309.461,422.859 L 272.022,422.93 C 260.862,411.338 253.302,389.665 253.302,364.97 C 228.318,389.739 197.43,398.81 182.526,386.497 C 171.222,394.993 159.414,402.985 146.958,409.538 C 136.806,414.794 126.078,419.042 115.134,422.858 L 91.877,422.858 C 91.805,422.713 91.733,422.641 91.661,422.497 C 89.789,419.185 85.613,418.105 82.373,419.905 C 81.148,420.626 80.285,421.634 79.708,422.858 L 73.949,422.858 L 73.949,422.856 z"
   style="fill:#4d4d4d" />
						<path
   id="path2586"
   d="M 283.325,534.815 C 283.252,534.383 283.252,533.952 283.252,533.448 C 283.252,529.055 285.342,525.095 288.58,522.648 C 288.221,522.071 287.861,521.423 287.717,520.776 C 284.333,505.152 281.382,489.456 280.734,473.759 C 280.086,459.36 281.238,444.887 283.038,430.487 C 279.15,428.975 275.406,426.383 272.022,422.927 L 309.461,422.856 C 305.501,426.96 301.109,429.839 296.43,431.135 C 294.773,445.246 293.694,459.503 294.27,473.759 C 294.99,489.383 297.797,505.007 301.182,520.702 C 306.438,522.503 310.253,527.471 310.253,533.447 C 310.253,533.951 310.253,534.383 310.182,534.814 L 303.99,534.814 C 303.99,531.142 300.966,528.046 297.149,528.046 C 293.478,528.046 290.454,531.142 290.454,534.814 L 283.325,534.814 L 283.325,534.815 z"
   style="fill:#4d4d4d" />
						<path
   id="path2588"
   d="M 73.949,422.856 C 73.301,425.952 73.805,429.335 75.533,432.287 C 79.205,438.767 87.484,440.928 93.964,437.256 C 97.853,435.025 100.156,431.208 100.661,427.176 C 101.309,427.247 102.029,427.247 102.676,427.032 C 106.853,425.663 111.029,424.296 115.133,422.856 L 91.877,422.856 C 93.46,425.952 92.309,429.911 89.213,431.639 C 85.973,433.583 81.797,432.431 79.925,429.191 C 78.772,427.175 78.772,424.799 79.709,422.856 L 73.949,422.856 L 73.949,422.856 z"
   style="fill:#4d4d4d" />
						<path
   id="path2590"
   d="M 475.926,422.856 C 477.149,423.287 478.446,423.648 479.67,424.079 C 480.317,424.296 481.037,424.296 481.686,424.224 C 482.19,428.256 484.494,432.072 488.309,434.233 C 494.862,437.976 503.141,435.745 506.814,429.264 C 508.038,427.247 508.614,425.016 508.686,422.857 L 503.358,422.857 C 503.358,424.008 503.07,425.16 502.422,426.241 C 500.549,429.48 496.373,430.56 493.133,428.689 C 490.973,427.464 489.749,425.233 489.749,422.857 L 475.926,422.857 L 475.926,422.856 z"
   style="fill:#4d4d4d" />
						<path
   id="path2592"
   d="M 283.325,534.815 C 284.045,541.656 289.733,546.983 296.789,546.983 C 303.773,546.983 309.461,541.656 310.182,534.815 L 303.99,534.815 C 303.99,538.487 300.966,541.656 297.149,541.656 C 293.478,541.656 290.454,538.487 290.454,534.815 L 283.325,534.815 z"
   style="fill:#4d4d4d" />
					</g>
					<g
   id="g2594">
						<path
   id="path2596"
   d="M 311.117,289.151 C 314.501,281.807 316.517,272.519 316.517,262.368 C 316.517,239.112 305.861,220.032 292.829,220.032 C 279.797,220.032 269.213,239.112 269.213,262.368 C 269.213,273.384 271.517,283.464 275.405,290.952 C 264.821,288.935 249.341,295.344 236.525,308.088 C 220.109,324.648 214.133,345.6 223.421,354.816 C 232.348,363.816 252.725,358.273 268.997,342.072 C 268.997,365.329 279.653,384.408 292.685,384.408 C 305.645,384.408 316.3,365.329 316.3,342.072 C 316.3,341.136 316.3,340.2 316.229,339.264 C 316.445,339.408 316.589,339.552 316.661,339.696 C 333.148,356.184 354.101,362.089 363.317,352.873 C 372.461,343.728 366.629,322.777 350.14,306.289 C 337.325,293.399 321.773,286.991 311.117,289.151 z"
   style="fill:none;stroke:#000000;stroke-width:7.19899988" />
						<path
   id="path2598"
   d="M 408.029,372.815 C 418.901,380.952 430.133,388.584 442.229,394.847 C 456.125,402.047 471.029,407.375 486.292,412.272 C 490.468,408.671 496.804,407.879 501.916,410.759 C 508.324,414.574 510.628,422.782 506.812,429.263 C 503.139,435.743 494.86,437.975 488.307,434.232 C 484.492,432.071 482.188,428.255 481.684,424.223 C 481.036,424.295 480.316,424.295 479.668,424.078 C 464.403,419.182 449.356,413.782 435.387,406.583 C 423.075,400.175 411.627,392.327 400.467,383.902 C 384.915,395.782 353.596,386.134 328.684,361.222 C 328.467,361.006 328.324,360.863 328.036,360.574 C 328.108,362.158 328.181,363.527 328.181,364.967 C 328.181,398.375 314.357,426.167 296.429,431.135 C 294.772,445.246 293.693,459.503 294.269,473.759 C 294.989,489.383 297.796,505.007 301.181,520.702 C 306.437,522.503 310.252,527.471 310.252,533.447 C 310.252,540.934 304.204,546.982 296.788,546.982 C 289.3,546.982 283.251,540.934 283.251,533.447 C 283.251,529.054 285.341,525.094 288.579,522.647 C 288.22,522.07 287.86,521.422 287.716,520.775 C 284.332,505.151 281.381,489.455 280.733,473.758 C 280.085,459.359 281.237,444.886 283.037,430.486 C 266.117,424.078 253.301,397.151 253.301,364.966 C 228.317,389.735 197.429,398.806 182.525,386.493 C 171.221,394.989 159.413,402.981 146.957,409.534 C 132.989,416.734 117.941,422.134 102.676,427.03 C 102.029,427.245 101.309,427.245 100.661,427.174 C 100.156,431.206 97.853,435.023 93.964,437.254 C 87.484,440.926 79.205,438.766 75.533,432.285 C 71.717,425.806 74.021,417.526 80.429,413.781 C 85.541,410.83 91.877,411.622 96.053,415.294 C 111.317,410.398 126.221,404.998 140.117,397.798 C 152.501,391.39 164.093,383.47 175.325,375.118 C 170.573,358.342 180.725,332.565 201.893,311.325 C 222.124,291.094 246.605,280.942 263.381,284.181 C 257.261,272.229 253.589,256.317 253.589,238.965 C 253.589,205.988 266.908,178.485 284.548,172.942 C 286.277,158.614 287.429,144.141 286.78,129.741 C 286.059,114.118 283.251,98.494 279.867,82.87 C 274.612,81.069 270.796,75.958 270.796,70.054 C 270.796,62.638 276.844,56.59 284.332,56.59 C 291.748,56.59 297.796,62.638 297.796,70.054 C 297.796,74.518 295.708,78.478 292.468,80.926 C 292.828,81.43 293.189,82.078 293.332,82.726 C 296.788,98.35 299.669,114.046 300.316,129.742 C 300.963,144.215 299.74,158.831 298.012,173.303 C 315.291,179.063 328.396,206.351 328.396,238.967 C 328.396,254.951 325.228,269.711 319.971,281.231 C 336.747,277.847 361.299,288 381.676,308.376 C 403.133,329.832 413.213,356.111 408.029,372.815 z"
   style="fill:none;stroke:#000000;stroke-width:7.19899988" />
						<path
   id="path2600"
   d="M 283.901,75.456 C 287.573,75.456 290.597,72.432 290.597,68.687 C 290.597,65.015 287.573,61.919 283.901,61.919 C 280.085,61.919 277.06,65.015 277.06,68.687 C 277.061,72.431 280.085,75.456 283.901,75.456 z"
   style="fill:none;stroke:#000000;stroke-width:7.19899988" />
						<path
   id="path2602"
   d="M 490.686,419.471 C 488.814,422.639 489.894,426.887 493.133,428.688 C 496.373,430.559 500.549,429.479 502.422,426.24 C 504.293,423 503.141,418.824 499.973,416.952 C 496.733,415.152 492.557,416.232 490.686,419.471 z"
   style="fill:none;stroke:#000000;stroke-width:7.19899988" />
						<path
   id="path2604"
   d="M 297.148,528.047 C 293.477,528.047 290.453,531.143 290.453,534.815 C 290.453,538.487 293.477,541.656 297.148,541.656 C 300.964,541.656 303.989,538.487 303.989,534.815 C 303.989,531.143 300.965,528.047 297.148,528.047 z"
   style="fill:none;stroke:#000000;stroke-width:7.19899988" />
						<path
   id="path2606"
   d="M 91.661,422.495 C 89.789,419.183 85.613,418.103 82.373,419.903 C 79.205,421.847 78.053,425.952 79.925,429.191 C 81.797,432.431 85.973,433.584 89.213,431.639 C 92.453,429.839 93.533,425.663 91.661,422.495 z"
   style="fill:none;stroke:#000000;stroke-width:7.19899988" />
					</g>
				</g>
				<g
   id="g2608">
					<g
   id="g2610">
						<path
   id="path2612"
   d="M 292.325,242.495 C 295.853,242.495 298.661,245.735 298.661,249.766 C 298.661,253.727 295.853,256.967 292.325,256.967 C 288.868,256.967 286.06,253.727 286.06,249.766 C 286.061,245.735 288.868,242.495 292.325,242.495 z"
   style="fill:#4d4d4d" />
						<path
   id="path2614"
   d="M 342.869,324 C 348.773,324 353.598,328.68 353.598,334.368 C 353.598,340.128 348.774,344.807 342.869,344.807 C 336.893,344.807 331.997,340.127 331.997,334.368 C 331.997,328.679 336.894,324 342.869,324 z"
   style="fill:#4d4d4d" />
						<path
   id="path2616"
   d="M 240.053,324 C 245.453,324 249.917,328.247 249.917,333.432 C 249.917,338.689 245.453,343.008 240.053,343.008 C 234.58,343.008 230.117,338.689 230.117,333.432 C 230.117,328.247 234.58,324 240.053,324 z"
   style="fill:#4d4d4d" />
						<path
   id="path2618"
   d="M 290.094,301.319 C 297.292,301.319 303.198,306.575 303.198,313.055 C 303.198,319.535 297.293,324.791 290.094,324.791 C 282.894,324.791 276.99,319.535 276.99,313.055 C 276.99,306.575 282.894,301.319 290.094,301.319 z"
   style="fill:#4d4d4d" />
						<path
   id="path2620"
   d="M 296.43,348.407 C 301.11,348.407 304.997,352.511 304.997,357.479 C 304.997,362.448 301.109,366.551 296.43,366.551 C 291.676,366.551 287.862,362.447 287.862,357.479 C 287.861,352.511 291.676,348.407 296.43,348.407 z"
   style="fill:#4d4d4d" />
					</g>
					<g
   id="g2622">
						<path
   id="path2624"
   d="M 292.325,242.495 C 295.853,242.495 298.661,245.735 298.661,249.766 C 298.661,253.727 295.853,256.967 292.325,256.967 C 288.868,256.967 286.06,253.727 286.06,249.766 C 286.061,245.735 288.868,242.495 292.325,242.495 z"
   style="fill:none;stroke:#000000;stroke-width:7.19899988" />
						<path
   id="path2626"
   d="M 342.869,324 C 348.773,324 353.598,328.68 353.598,334.368 C 353.598,340.128 348.774,344.807 342.869,344.807 C 336.893,344.807 331.997,340.127 331.997,334.368 C 331.997,328.679 336.894,324 342.869,324 z"
   style="fill:none;stroke:#000000;stroke-width:7.19899988" />
						<path
   id="path2628"
   d="M 296.43,348.407 C 301.11,348.407 304.997,352.511 304.997,357.479 C 304.997,362.448 301.109,366.551 296.43,366.551 C 291.676,366.551 287.862,362.447 287.862,357.479 C 287.861,352.511 291.676,348.407 296.43,348.407 z"
   style="fill:none;stroke:#000000;stroke-width:7.19899988" />
						<path
   id="path2630"
   d="M 240.053,324 C 245.453,324 249.917,328.247 249.917,333.432 C 249.917,338.689 245.453,343.008 240.053,343.008 C 234.58,343.008 230.117,338.689 230.117,333.432 C 230.117,328.247 234.58,324 240.053,324 z"
   style="fill:none;stroke:#000000;stroke-width:7.19899988" />
						<path
   id="path2632"
   d="M 290.094,301.319 C 297.292,301.319 303.198,306.575 303.198,313.055 C 303.198,319.535 297.293,324.791 290.094,324.791 C 282.894,324.791 276.99,319.535 276.99,313.055 C 276.99,306.575 282.894,301.319 290.094,301.319 z"
   style="fill:none;stroke:#000000;stroke-width:7.19899988" />
					</g>
				</g>
				<g
   id="g2634">
					<g
   id="g2636">
						<path
   id="path2638"
   d="M 385.277,211.391 C 388.804,207.862 394.493,207.79 398.021,211.319 C 401.477,214.847 401.405,220.536 397.949,224.063 L 364.469,257.543 C 360.942,260.999 355.325,260.927 351.869,257.471 C 348.342,254.015 348.269,248.399 351.797,244.871 L 385.277,211.391 z"
   style="fill:#4d4d4d" />
						<path
   id="path2640"
   d="M 191.957,212.616 L 225.437,246.095 C 228.893,249.621 228.893,255.239 225.365,258.766 C 221.837,262.223 216.221,262.223 212.693,258.766 L 179.213,225.287 C 175.757,221.831 175.757,216.07 179.213,212.615 C 182.741,209.087 188.429,209.087 191.957,212.616 z"
   style="fill:#4d4d4d" />
						<path
   id="path2642"
   d="M 369.148,465.911 L 345.533,424.944 C 343.013,420.695 344.525,415.223 348.845,412.847 C 353.021,410.255 358.492,411.695 360.941,416.015 L 384.629,456.983 C 387.077,461.303 385.637,466.776 381.389,469.295 C 377.069,471.815 371.67,470.232 369.148,465.911 z"
   style="fill:#4d4d4d" />
						<path
   id="path2644"
   d="M 210.029,462.815 C 207.509,467.135 202.109,468.648 197.789,466.199 C 193.541,463.679 192.1,458.136 194.549,453.887 L 218.237,412.848 C 220.685,408.6 226.156,407.16 230.333,409.68 C 234.653,412.128 236.237,417.529 233.645,421.848 L 210.029,462.815 z"
   style="fill:#4d4d4d" />
					</g>
					<g
   id="g2646">
						<path
   id="path2648"
   d="M 385.277,211.391 C 388.804,207.862 394.493,207.79 398.021,211.319 C 401.477,214.847 401.405,220.536 397.949,224.063 L 364.469,257.543 C 360.942,260.999 355.325,260.927 351.869,257.471 C 348.342,254.015 348.269,248.399 351.797,244.871 L 385.277,211.391 z"
   style="fill:none;stroke:#000000;stroke-width:7.19899988" />
						<path
   id="path2650"
   d="M 369.148,465.911 L 345.533,424.944 C 343.013,420.695 344.525,415.223 348.845,412.847 C 353.021,410.255 358.492,411.695 360.941,416.015 L 384.629,456.983 C 387.077,461.303 385.637,466.776 381.389,469.295 C 377.069,471.815 371.67,470.232 369.148,465.911 z"
   style="fill:none;stroke:#000000;stroke-width:7.19899988" />
						<path
   id="path2652"
   d="M 210.029,462.815 C 207.509,467.135 202.109,468.648 197.789,466.199 C 193.541,463.679 192.1,458.136 194.549,453.887 L 218.237,412.848 C 220.685,408.6 226.156,407.16 230.333,409.68 C 234.653,412.128 236.237,417.529 233.645,421.848 L 210.029,462.815 z"
   style="fill:none;stroke:#000000;stroke-width:7.19899988" />
						<path
   id="path2654"
   d="M 191.957,212.616 L 225.437,246.095 C 228.893,249.621 228.893,255.239 225.365,258.766 C 221.837,262.223 216.221,262.223 212.693,258.766 L 179.213,225.287 C 175.757,221.831 175.757,216.07 179.213,212.615 C 182.741,209.087 188.429,209.087 191.957,212.616 z"
   style="fill:none;stroke:#000000;stroke-width:7.19899988" />
					</g>
				</g>
				<g
   id="g2656">
					<g
   id="g2658">
						<path
   id="path2660"
   d="M 408.174,180 C 410.837,177.407 413.285,175.319 417.749,174.6 C 422.934,173.88 428.549,173.449 432.148,175.033 C 434.165,178.345 433.733,183.816 433.157,188.929 C 432.582,193.465 431.789,197.282 429.485,199.801 C 428.045,203.257 425.957,205.705 423.006,205.561 C 419.621,205.274 415.373,202.897 411.774,199.081 C 407.742,195.554 405.006,191.378 403.926,187.561 C 402.989,184.175 405.653,182.591 408.174,180 z"
   style="fill:#4d4d4d" />
						<path
   id="path2662"
   d="M 163.445,182.807 C 166.037,185.399 168.701,186.911 167.765,190.295 C 166.685,194.111 163.949,198.359 159.917,201.886 C 156.245,205.703 151.997,208.078 148.613,208.367 C 145.733,208.511 143.645,206.062 142.205,202.607 C 139.901,200.014 139.109,196.271 138.533,191.734 C 137.885,186.623 137.453,181.078 139.469,177.765 C 143.141,176.254 148.685,176.686 153.868,177.406 C 158.333,178.127 160.853,180.215 163.445,182.807 z"
   style="fill:#4d4d4d" />
						<path
   id="path2664"
   d="M 382.253,499.536 C 380.453,496.368 378.293,494.136 380.022,491.183 C 382.11,487.727 385.782,484.343 390.606,482.039 C 395.141,479.231 399.894,478.078 403.206,478.655 C 406.015,479.302 407.454,482.182 407.886,485.926 C 409.47,488.95 409.254,492.837 408.679,497.373 C 407.886,502.485 406.95,507.885 404.142,510.55 C 400.183,511.126 394.927,509.254 390.175,507.238 C 385.997,505.368 384.125,502.703 382.253,499.536 z"
   style="fill:#4d4d4d" />
						<path
   id="path2666"
   d="M 198.077,499.751 C 196.133,502.919 194.261,505.583 190.156,507.383 C 185.333,509.399 180.004,511.272 176.117,510.766 C 173.309,508.032 172.373,502.703 171.58,497.519 C 171.004,492.983 170.716,489.167 172.373,486.143 C 172.805,482.327 174.173,479.519 177.053,478.871 C 180.437,478.296 185.117,479.448 189.653,482.256 C 194.405,484.56 198.221,487.944 200.165,491.327 C 201.964,494.35 199.805,496.583 198.077,499.751 z"
   style="fill:#4d4d4d" />
					</g>
					<g
   id="g2668">
						<path
   id="path2670"
   d="M 408.174,180 C 410.837,177.407 413.285,175.319 417.749,174.6 C 422.934,173.88 428.549,173.449 432.148,175.033 C 434.165,178.345 433.733,183.816 433.157,188.929 C 432.582,193.465 431.789,197.282 429.485,199.801 C 428.045,203.257 425.957,205.705 423.006,205.561 C 419.621,205.274 415.373,202.897 411.774,199.081 C 407.742,195.554 405.006,191.378 403.926,187.561 C 402.989,184.175 405.653,182.591 408.174,180 z"
   style="fill:none;stroke:#000000;stroke-width:7.19899988" />
						<path
   id="path2672"
   d="M 382.253,499.536 C 380.453,496.368 378.293,494.136 380.022,491.183 C 382.11,487.727 385.782,484.343 390.606,482.039 C 395.141,479.231 399.894,478.078 403.206,478.655 C 406.015,479.302 407.454,482.182 407.886,485.926 C 409.47,488.95 409.254,492.837 408.679,497.373 C 407.886,502.485 406.95,507.885 404.142,510.55 C 400.183,511.126 394.927,509.254 390.175,507.238 C 385.997,505.368 384.125,502.703 382.253,499.536 z"
   style="fill:none;stroke:#000000;stroke-width:7.19899988" />
						<path
   id="path2674"
   d="M 198.077,499.751 C 196.133,502.919 194.261,505.583 190.156,507.383 C 185.333,509.399 180.004,511.272 176.117,510.766 C 173.309,508.032 172.373,502.703 171.58,497.519 C 171.004,492.983 170.716,489.167 172.373,486.143 C 172.805,482.327 174.173,479.519 177.053,478.871 C 180.437,478.296 185.117,479.448 189.653,482.256 C 194.405,484.56 198.221,487.944 200.165,491.327 C 201.964,494.35 199.805,496.583 198.077,499.751 z"
   style="fill:none;stroke:#000000;stroke-width:7.19899988" />
						<path
   id="path2676"
   d="M 163.445,182.807 C 166.037,185.399 168.701,186.911 167.765,190.295 C 166.685,194.111 163.949,198.359 159.917,201.886 C 156.245,205.703 151.997,208.078 148.613,208.367 C 145.733,208.511 143.645,206.062 142.205,202.607 C 139.901,200.014 139.109,196.271 138.533,191.734 C 137.885,186.623 137.453,181.078 139.469,177.765 C 143.141,176.254 148.685,176.686 153.868,177.406 C 158.333,178.127 160.853,180.215 163.445,182.807 z"
   style="fill:none;stroke:#000000;stroke-width:7.19899988" />
					</g>
				</g>
				<g
   id="g2678">
					<g
   id="g2680">
						<path
   id="path2682"
   d="M 283.829,3.599 C 292.037,3.599 298.661,11.662 298.661,21.528 C 298.661,31.391 292.037,39.311 283.829,39.311 C 275.62,39.311 268.997,31.391 268.997,21.528 C 268.997,11.663 275.62,3.599 283.829,3.599 z"
   style="fill:#4d4d4d" />
						<path
   id="path2684"
   d="M 298.733,575.208 C 306.941,575.208 313.636,583.272 313.636,593.136 C 313.636,603 306.941,610.991 298.733,610.991 C 290.597,610.991 283.901,603 283.901,593.136 C 283.901,583.272 290.598,575.208 298.733,575.208 z"
   style="fill:#4d4d4d" />
						<path
   id="path2686"
   d="M 540.438,423.503 C 548.645,423.503 555.342,431.566 555.342,441.431 C 555.342,451.296 548.645,459.286 540.438,459.286 C 532.301,459.286 525.606,451.295 525.606,441.431 C 525.606,431.567 532.301,423.503 540.438,423.503 z"
   style="fill:#4d4d4d" />
						<path
   id="path2688"
   d="M 34.493,420.624 C 42.629,420.624 49.325,428.688 49.325,438.552 C 49.325,448.416 42.629,456.407 34.493,456.407 C 26.285,456.407 19.589,448.416 19.589,438.552 C 19.589,428.688 26.285,420.624 34.493,420.624 z"
   style="fill:#4d4d4d" />
					</g>
					<g
   id="g2690">
						<path
   id="path2692"
   d="M 283.829,3.599 C 292.037,3.599 298.661,11.662 298.661,21.528 C 298.661,31.391 292.037,39.311 283.829,39.311 C 275.62,39.311 268.997,31.391 268.997,21.528 C 268.997,11.663 275.62,3.599 283.829,3.599 z"
   style="fill:none;stroke:#000000;stroke-width:7.19899988" />
						<path
   id="path2694"
   d="M 298.733,575.208 C 306.941,575.208 313.636,583.272 313.636,593.136 C 313.636,603 306.941,610.991 298.733,610.991 C 290.597,610.991 283.901,603 283.901,593.136 C 283.901,583.272 290.598,575.208 298.733,575.208 z"
   style="fill:none;stroke:#000000;stroke-width:7.19899988" />
						<path
   id="path2696"
   d="M 540.438,423.503 C 548.645,423.503 555.342,431.566 555.342,441.431 C 555.342,451.296 548.645,459.286 540.438,459.286 C 532.301,459.286 525.606,451.295 525.606,441.431 C 525.606,431.567 532.301,423.503 540.438,423.503 z"
   style="fill:none;stroke:#000000;stroke-width:7.19899988" />
						<path
   id="path2698"
   d="M 34.493,420.624 C 42.629,420.624 49.325,428.688 49.325,438.552 C 49.325,448.416 42.629,456.407 34.493,456.407 C 26.285,456.407 19.589,448.416 19.589,438.552 C 19.589,428.688 26.285,420.624 34.493,420.624 z"
   style="fill:none;stroke:#000000;stroke-width:7.19899988" />
					</g>
				</g>
			</g>
			<g
   id="g2700">
				<g
   id="g2702">
					<g
   id="g2704">
						<path
   id="path2706"
   d="M 262.517,76.679 C 263.237,69.91 268.925,64.583 275.981,64.583 C 282.964,64.583 288.653,69.91 289.373,76.679 L 282.245,76.679 C 282.245,73.007 279.221,69.91 275.549,69.91 C 271.733,69.91 268.709,73.007 268.709,76.679 L 262.517,76.679 z"
   style="fill:#999999" />
						<path
   id="path2708"
   d="M 203.765,310.247 C 221.549,296.136 240.989,289.44 255.029,292.176 C 248.908,280.224 245.237,264.312 245.237,246.96 C 245.237,213.983 258.557,186.48 276.196,180.936 C 277.925,166.609 279.077,152.136 278.429,137.736 C 277.709,122.113 274.901,106.488 271.517,90.863 C 266.261,89.064 262.445,83.953 262.445,78.049 C 262.445,77.617 262.445,77.113 262.517,76.681 L 268.709,76.681 C 268.709,80.425 271.733,83.45 275.549,83.45 C 279.221,83.45 282.245,80.426 282.245,76.681 L 289.373,76.681 C 289.445,77.114 289.445,77.618 289.445,78.049 C 289.445,82.513 287.357,86.473 284.117,88.921 C 284.477,89.425 284.837,90.072 284.981,90.721 C 288.437,106.345 291.317,122.041 291.964,137.737 C 292.612,152.21 291.388,166.825 289.66,181.298 C 306.94,187.058 320.044,214.346 320.044,246.962 C 320.044,262.946 316.876,277.706 311.62,289.226 C 326.597,286.203 347.836,293.978 366.7,310.249 L 337.468,310.249 C 325.589,300.098 312.269,295.202 302.765,297.145 C 306.148,289.801 308.164,280.513 308.164,270.362 C 308.164,247.105 297.509,228.026 284.476,228.026 C 271.443,228.026 260.86,247.105 260.86,270.362 C 260.86,281.378 263.164,291.456 267.052,298.946 C 258.268,297.29 246.028,301.393 234.796,310.249 L 203.765,310.249 L 203.765,310.247 z"
   style="fill:#999999" />
						<path
   id="path2710"
   d="M 174.317,344.879 C 178.997,336.167 185.477,327.383 193.541,319.318 C 196.853,316.006 200.237,312.982 203.765,310.246 L 234.797,310.246 C 232.565,311.975 230.333,313.919 228.173,316.078 C 219.1,325.223 213.196,335.735 211.325,344.879 L 174.317,344.879 z"
   style="fill:#999999" />
						<path
   id="path2712"
   d="M 358.997,344.879 C 357.557,335.375 351.582,324.07 341.789,314.279 C 340.35,312.839 338.909,311.543 337.469,310.246 L 366.701,310.246 C 368.933,312.191 371.165,314.207 373.325,316.367 C 382.325,325.367 389.308,335.231 394.06,344.879 L 358.997,344.879 L 358.997,344.879 z"
   style="fill:#999999" />
						<path
   id="path2714"
   d="M 65.597,430.847 C 66.317,427.175 68.621,423.791 72.077,421.776 C 77.189,418.824 83.525,419.615 87.701,423.287 C 102.964,418.391 117.868,412.991 131.765,405.792 C 144.149,399.384 155.741,391.464 166.973,383.111 C 164.021,372.744 166.829,358.92 174.317,344.88 L 211.325,344.88 C 209.812,352.224 210.893,358.703 215.069,362.808 C 223.997,371.808 244.373,366.264 260.645,350.064 C 260.645,373.321 271.301,392.4 284.333,392.4 C 297.292,392.4 307.949,373.321 307.949,350.064 C 307.949,349.128 307.949,348.192 307.877,347.256 C 308.094,347.4 308.237,347.544 308.309,347.689 C 324.797,364.176 345.749,370.08 354.965,360.865 C 358.709,357.121 359.934,351.432 358.997,344.881 L 394.06,344.881 C 400.54,358.2 402.701,371.089 399.677,380.809 C 410.548,388.946 421.781,396.577 433.876,402.841 C 447.772,410.041 462.677,415.369 477.94,420.265 C 482.116,416.664 488.452,415.873 493.564,418.753 C 497.956,421.345 500.404,426.097 500.332,430.849 L 495.005,430.849 C 494.933,428.473 493.78,426.169 491.62,424.946 C 488.38,423.145 484.204,424.225 482.332,427.466 C 481.685,428.546 481.396,429.697 481.396,430.85 L 467.572,430.85 C 453.604,426.314 439.852,421.202 427.036,414.578 C 414.724,408.171 403.276,400.323 392.116,391.898 C 376.564,403.779 345.244,394.13 320.332,369.218 C 320.116,369.002 319.972,368.859 319.685,368.57 C 319.757,370.155 319.829,371.522 319.829,372.963 C 319.829,397.658 312.269,419.259 301.109,430.851 L 263.669,430.923 C 252.509,419.331 244.949,397.658 244.949,372.963 C 219.964,397.731 189.077,406.803 174.173,394.49 C 162.868,402.986 151.06,410.978 138.605,417.531 C 128.453,422.786 117.725,427.035 106.781,430.85 L 83.525,430.85 C 83.453,430.705 83.381,430.634 83.309,430.49 C 81.437,427.178 77.261,426.098 74.021,427.898 C 72.797,428.618 71.933,429.627 71.356,430.85 L 65.597,430.85 L 65.597,430.847 z"
   style="fill:#999999" />
						<path
   id="path2716"
   d="M 274.973,542.807 C 274.901,542.374 274.901,541.944 274.901,541.44 C 274.901,537.047 276.989,533.087 280.229,530.639 C 279.868,530.064 279.509,529.415 279.365,528.766 C 275.981,513.143 273.029,497.448 272.381,481.751 C 271.733,467.35 272.885,452.879 274.685,438.479 C 270.797,436.967 267.053,434.375 263.669,430.919 L 301.109,430.847 C 297.148,434.951 292.757,437.831 288.077,439.127 C 286.422,453.239 285.342,467.494 285.917,481.751 C 286.637,497.374 289.445,512.999 292.829,528.694 C 298.085,530.494 301.901,535.463 301.901,541.439 C 301.901,541.943 301.901,542.374 301.829,542.806 L 295.637,542.806 C 295.637,539.134 292.614,536.038 288.797,536.038 C 285.125,536.038 282.1,539.134 282.1,542.806 L 274.973,542.806 L 274.973,542.807 z"
   style="fill:#999999" />
						<path
   id="path2718"
   d="M 65.597,430.847 C 64.949,433.944 65.453,437.327 67.181,440.28 C 70.853,446.759 79.133,448.92 85.613,445.247 C 89.501,443.016 91.805,439.199 92.309,435.168 C 92.957,435.24 93.676,435.24 94.325,435.024 C 98.501,433.655 102.676,432.287 106.781,430.847 L 83.525,430.847 C 85.109,433.944 83.957,437.903 80.861,439.631 C 77.621,441.574 73.445,440.423 71.573,437.183 C 70.421,435.167 70.421,432.791 71.357,430.847 L 65.597,430.847 L 65.597,430.847 z"
   style="fill:#999999" />
						<path
   id="path2720"
   d="M 467.573,430.847 C 468.797,431.28 470.094,431.639 471.317,432.071 C 471.964,432.287 472.685,432.287 473.333,432.216 C 473.837,436.247 476.141,440.064 479.957,442.224 C 486.51,445.968 494.789,443.737 498.461,437.256 C 499.686,435.24 500.262,433.008 500.333,430.848 L 495.006,430.848 C 495.006,432 494.717,433.153 494.069,434.233 C 492.197,437.472 488.021,438.552 484.781,436.68 C 482.621,435.456 481.397,433.224 481.397,430.848 L 467.573,430.848 L 467.573,430.847 z"
   style="fill:#999999" />
						<path
   id="path2722"
   d="M 274.973,542.807 C 275.693,549.648 281.381,554.975 288.437,554.975 C 295.421,554.975 301.109,549.648 301.829,542.807 L 295.637,542.807 C 295.637,546.479 292.614,549.648 288.797,549.648 C 285.125,549.648 282.1,546.479 282.1,542.807 L 274.973,542.807 z"
   style="fill:#999999" />
					</g>
					<g
   id="g2724">
						<path
   id="path2726"
   d="M 302.766,297.143 C 306.149,289.799 308.165,280.511 308.165,270.36 C 308.165,247.103 297.51,228.024 284.477,228.024 C 271.444,228.024 260.861,247.103 260.861,270.36 C 260.861,281.376 263.165,291.454 267.053,298.944 C 256.469,296.927 240.989,303.336 228.173,316.079 C 211.757,332.64 205.781,353.592 215.069,362.808 C 223.997,371.808 244.373,366.264 260.645,350.064 C 260.645,373.321 271.301,392.4 284.333,392.4 C 297.292,392.4 307.949,373.321 307.949,350.064 C 307.949,349.128 307.949,348.192 307.877,347.256 C 308.094,347.4 308.237,347.544 308.309,347.689 C 324.797,364.176 345.749,370.08 354.965,360.865 C 364.11,351.72 358.277,330.768 341.789,314.281 C 328.973,301.391 313.422,294.983 302.766,297.143 z"
   style="fill:none;stroke:#000000;stroke-width:7.19899988" />
						<path
   id="path2728"
   d="M 399.678,380.807 C 410.549,388.944 421.782,396.575 433.877,402.839 C 447.773,410.039 462.678,415.367 477.941,420.263 C 482.117,416.662 488.453,415.871 493.565,418.751 C 499.972,422.566 502.277,430.775 498.461,437.255 C 494.789,443.735 486.51,445.967 479.957,442.223 C 476.141,440.063 473.837,436.246 473.333,432.215 C 472.686,432.286 471.965,432.286 471.317,432.07 C 456.052,427.174 441.005,421.775 427.037,414.574 C 414.725,408.167 403.277,400.319 392.117,391.894 C 376.565,403.775 345.245,394.126 320.333,369.214 C 320.117,368.998 319.973,368.855 319.686,368.566 C 319.758,370.151 319.83,371.518 319.83,372.959 C 319.83,406.367 306.007,434.158 288.078,439.127 C 286.423,453.239 285.343,467.494 285.918,481.751 C 286.638,497.374 289.446,512.999 292.83,528.694 C 298.086,530.494 301.902,535.463 301.902,541.439 C 301.902,548.926 295.854,554.974 288.438,554.974 C 280.95,554.974 274.902,548.926 274.902,541.439 C 274.902,537.046 276.99,533.086 280.23,530.638 C 279.869,530.063 279.51,529.414 279.366,528.765 C 275.982,513.142 273.03,497.447 272.382,481.75 C 271.734,467.349 272.886,452.878 274.686,438.478 C 257.766,432.07 244.95,405.142 244.95,372.958 C 219.965,397.726 189.078,406.798 174.174,394.485 C 162.869,402.981 151.061,410.973 138.606,417.526 C 124.638,424.725 109.59,430.126 94.326,435.022 C 93.677,435.238 92.958,435.238 92.31,435.166 C 91.806,439.197 89.502,443.014 85.614,445.245 C 79.134,448.918 70.854,446.758 67.182,440.278 C 63.366,433.798 65.67,425.517 72.078,421.774 C 77.19,418.822 83.526,419.613 87.702,423.285 C 102.965,418.389 117.869,412.989 131.766,405.79 C 144.15,399.382 155.742,391.462 166.974,383.109 C 162.222,366.334 172.374,340.557 193.542,319.317 C 213.773,299.086 238.253,288.933 255.03,292.173 C 248.909,280.221 245.238,264.309 245.238,246.957 C 245.238,213.98 258.558,186.477 276.197,180.933 C 277.926,166.606 279.078,152.133 278.43,137.733 C 277.71,122.11 274.902,106.485 271.518,90.86 C 266.262,89.061 262.446,83.95 262.446,78.046 C 262.446,70.63 268.494,64.582 275.982,64.582 C 283.398,64.582 289.446,70.63 289.446,78.046 C 289.446,82.51 287.358,86.47 284.118,88.918 C 284.478,89.422 284.838,90.069 284.982,90.718 C 288.438,106.342 291.318,122.038 291.965,137.734 C 292.613,152.207 291.389,166.822 289.661,181.295 C 306.941,187.055 320.045,214.343 320.045,246.959 C 320.045,262.943 316.877,277.703 311.621,289.223 C 328.397,285.838 352.949,295.991 373.325,316.368 C 394.781,337.824 404.861,364.103 399.678,380.807 z"
   style="fill:none;stroke:#000000;stroke-width:7.19899988" />
						<path
   id="path2730"
   d="M 275.549,83.448 C 279.221,83.448 282.245,80.424 282.245,76.679 C 282.245,73.007 279.221,69.91 275.549,69.91 C 271.733,69.91 268.709,73.007 268.709,76.679 C 268.709,80.423 271.733,83.448 275.549,83.448 z"
   style="fill:none;stroke:#000000;stroke-width:7.19899988" />
						<path
   id="path2732"
   d="M 482.333,427.463 C 480.461,430.631 481.541,434.879 484.781,436.679 C 488.021,438.551 492.197,437.471 494.069,434.232 C 495.941,430.991 494.789,426.815 491.621,424.944 C 488.381,423.143 484.205,424.223 482.333,427.463 z"
   style="fill:none;stroke:#000000;stroke-width:7.19899988" />
						<path
   id="path2734"
   d="M 288.797,536.04 C 285.125,536.04 282.1,539.136 282.1,542.808 C 282.1,546.48 285.125,549.649 288.797,549.649 C 292.613,549.649 295.637,546.48 295.637,542.808 C 295.637,539.136 292.613,536.04 288.797,536.04 z"
   style="fill:none;stroke:#000000;stroke-width:7.19899988" />
						<path
   id="path2736"
   d="M 83.309,430.487 C 81.437,427.175 77.261,426.095 74.021,427.895 C 70.853,429.839 69.701,433.944 71.573,437.183 C 73.445,440.423 77.621,441.575 80.861,439.631 C 84.1,437.832 85.181,433.655 83.309,430.487 z"
   style="fill:none;stroke:#000000;stroke-width:7.19899988" />
					</g>
				</g>
				<g
   id="g2738">
					<g
   id="g2740">
						<path
   id="path2742"
   d="M 222.413,344.879 C 221.981,343.799 221.765,342.648 221.765,341.423 C 221.765,336.239 226.229,331.99 231.701,331.99 C 237.1,331.99 241.565,336.239 241.565,341.423 C 241.565,342.648 241.348,343.799 240.917,344.879 L 222.413,344.879 z"
   style="fill:#808080" />
						<path
   id="path2744"
   d="M 324.006,344.879 C 323.789,344.087 323.646,343.223 323.646,342.359 C 323.646,336.671 328.542,331.99 334.518,331.99 C 340.422,331.99 345.246,336.671 345.246,342.359 C 345.246,343.222 345.102,344.087 344.886,344.879 L 324.006,344.879 z"
   style="fill:#808080" />
						<path
   id="path2746"
   d="M 283.973,250.487 C 287.501,250.487 290.309,253.727 290.309,257.759 C 290.309,261.718 287.501,264.959 283.973,264.959 C 280.517,264.959 277.709,261.718 277.709,257.759 C 277.709,253.727 280.517,250.487 283.973,250.487 z"
   style="fill:#808080" />
						<path
   id="path2748"
   d="M 281.741,309.311 C 288.941,309.311 294.845,314.567 294.845,321.047 C 294.845,327.527 288.941,332.782 281.741,332.782 C 274.541,332.782 268.637,327.527 268.637,321.047 C 268.637,314.567 274.541,309.311 281.741,309.311 z"
   style="fill:#808080" />
						<path
   id="path2750"
   d="M 222.413,344.879 C 223.853,348.406 227.453,350.999 231.701,350.999 C 235.877,350.999 239.477,348.406 240.917,344.879 L 222.413,344.879 z"
   style="fill:#808080" />
						<path
   id="path2752"
   d="M 324.006,344.879 C 325.157,349.415 329.478,352.799 334.518,352.799 C 339.486,352.799 343.734,349.415 344.885,344.879 L 324.006,344.879 z"
   style="fill:#808080" />
						<path
   id="path2754"
   d="M 288.077,356.399 C 292.758,356.399 296.645,360.503 296.645,365.471 C 296.645,370.44 292.757,374.543 288.077,374.543 C 283.325,374.543 279.509,370.439 279.509,365.471 C 279.509,360.503 283.325,356.399 288.077,356.399 z"
   style="fill:#808080" />
					</g>
					<g
   id="g2756">
						<path
   id="path2758"
   d="M 283.973,250.487 C 287.501,250.487 290.309,253.727 290.309,257.759 C 290.309,261.718 287.501,264.959 283.973,264.959 C 280.517,264.959 277.709,261.718 277.709,257.759 C 277.709,253.727 280.517,250.487 283.973,250.487 z"
   style="fill:none;stroke:#000000;stroke-width:7.19899988" />
						<path
   id="path2760"
   d="M 334.518,331.991 C 340.422,331.991 345.246,336.672 345.246,342.36 C 345.246,348.12 340.423,352.799 334.518,352.799 C 328.541,352.799 323.646,348.119 323.646,342.36 C 323.646,336.671 328.541,331.991 334.518,331.991 z"
   style="fill:none;stroke:#000000;stroke-width:7.19899988" />
						<path
   id="path2762"
   d="M 288.077,356.399 C 292.758,356.399 296.645,360.503 296.645,365.471 C 296.645,370.44 292.757,374.543 288.077,374.543 C 283.325,374.543 279.509,370.439 279.509,365.471 C 279.509,360.503 283.325,356.399 288.077,356.399 z"
   style="fill:none;stroke:#000000;stroke-width:7.19899988" />
						<path
   id="path2764"
   d="M 231.701,331.991 C 237.1,331.991 241.565,336.24 241.565,341.424 C 241.565,346.68 237.1,351 231.701,351 C 226.229,351 221.765,346.68 221.765,341.424 C 221.765,336.24 226.229,331.991 231.701,331.991 z"
   style="fill:none;stroke:#000000;stroke-width:7.19899988" />
						<path
   id="path2766"
   d="M 281.741,309.311 C 288.941,309.311 294.845,314.567 294.845,321.047 C 294.845,327.527 288.941,332.782 281.741,332.782 C 274.541,332.782 268.637,327.527 268.637,321.047 C 268.637,314.567 274.541,309.311 281.741,309.311 z"
   style="fill:none;stroke:#000000;stroke-width:7.19899988" />
					</g>
				</g>
				<g
   id="g2768">
					<g
   id="g2770">
						<path
   id="path2772"
   d="M 376.926,219.383 C 380.453,215.856 386.141,215.783 389.67,219.311 C 393.125,222.838 393.053,228.528 389.598,232.055 L 356.118,265.535 C 352.591,268.99 346.973,268.919 343.518,265.463 C 339.99,262.007 339.917,256.391 343.446,252.861 L 376.926,219.383 z"
   style="fill:#808080" />
						<path
   id="path2774"
   d="M 183.605,220.608 L 217.084,254.087 C 220.54,257.615 220.54,263.231 217.012,266.759 C 213.483,270.215 207.867,270.215 204.34,266.759 L 170.86,233.28 C 167.404,229.823 167.404,224.063 170.86,220.608 C 174.388,217.079 180.077,217.079 183.605,220.608 z"
   style="fill:#808080" />
						<path
   id="path2776"
   d="M 360.797,473.903 L 337.182,432.935 C 334.661,428.688 336.174,423.215 340.494,420.839 C 344.671,418.246 350.141,419.688 352.591,424.007 L 376.279,464.975 C 378.726,469.295 377.287,474.767 373.039,477.287 C 368.717,479.807 363.317,478.223 360.797,473.903 z"
   style="fill:#808080" />
						<path
   id="path2778"
   d="M 201.676,470.807 C 199.156,475.127 193.757,476.639 189.437,474.191 C 185.189,471.671 183.749,466.128 186.196,461.879 L 209.885,420.839 C 212.333,416.591 217.805,415.151 221.981,417.671 C 226.301,420.119 227.885,425.519 225.292,429.839 L 201.676,470.807 z"
   style="fill:#808080" />
					</g>
					<g
   id="g2780">
						<path
   id="path2782"
   d="M 376.926,219.383 C 380.453,215.856 386.141,215.783 389.67,219.311 C 393.125,222.838 393.053,228.528 389.598,232.055 L 356.118,265.535 C 352.591,268.99 346.973,268.919 343.518,265.463 C 339.99,262.007 339.917,256.391 343.446,252.861 L 376.926,219.383 z"
   style="fill:none;stroke:#000000;stroke-width:7.19899988" />
						<path
   id="path2784"
   d="M 360.797,473.903 L 337.182,432.935 C 334.661,428.688 336.174,423.215 340.494,420.839 C 344.671,418.246 350.141,419.688 352.591,424.007 L 376.279,464.975 C 378.726,469.295 377.287,474.767 373.039,477.287 C 368.717,479.807 363.317,478.223 360.797,473.903 z"
   style="fill:none;stroke:#000000;stroke-width:7.19899988" />
						<path
   id="path2786"
   d="M 201.676,470.807 C 199.156,475.127 193.757,476.639 189.437,474.191 C 185.189,471.671 183.749,466.128 186.196,461.879 L 209.885,420.839 C 212.333,416.591 217.805,415.151 221.981,417.671 C 226.301,420.119 227.885,425.519 225.292,429.839 L 201.676,470.807 z"
   style="fill:none;stroke:#000000;stroke-width:7.19899988" />
						<path
   id="path2788"
   d="M 183.605,220.608 L 217.084,254.087 C 220.54,257.615 220.54,263.231 217.012,266.759 C 213.483,270.215 207.867,270.215 204.34,266.759 L 170.86,233.28 C 167.404,229.823 167.404,224.063 170.86,220.608 C 174.388,217.079 180.077,217.079 183.605,220.608 z"
   style="fill:none;stroke:#000000;stroke-width:7.19899988" />
					</g>
				</g>
				<g
   id="g2790">
					<g
   id="g2792">
						<path
   id="path2794"
   d="M 399.821,187.991 C 402.485,185.399 404.933,183.311 409.397,182.592 C 414.582,181.872 420.197,181.441 423.796,183.025 C 425.813,186.337 425.38,191.808 424.804,196.921 C 424.229,201.457 423.437,205.274 421.132,207.792 C 419.693,211.248 417.605,213.695 414.653,213.553 C 411.269,213.265 407.021,210.888 403.422,207.073 C 399.389,203.546 396.653,199.37 395.573,195.553 C 394.637,192.167 397.301,190.583 399.821,187.991 z"
   style="fill:#e6e6e6" />
						<path
   id="path2796"
   d="M 155.093,190.799 C 157.685,193.391 160.348,194.903 159.413,198.287 C 158.333,202.102 155.597,206.35 151.565,209.879 C 147.893,213.693 143.645,216.07 140.261,216.359 C 137.381,216.503 135.292,214.054 133.853,210.598 C 131.549,208.006 130.757,204.262 130.181,199.726 C 129.533,194.615 129.1,189.07 131.117,185.758 C 134.789,184.246 140.333,184.678 145.517,185.398 C 149.981,186.12 152.501,188.208 155.093,190.799 z"
   style="fill:#e6e6e6" />
						<path
   id="path2798"
   d="M 373.901,507.528 C 372.101,504.36 369.941,502.128 371.67,499.175 C 373.758,495.719 377.43,492.335 382.253,490.031 C 386.789,487.222 391.541,486.07 394.854,486.647 C 397.662,487.294 399.102,490.174 399.534,493.918 C 401.118,496.942 400.902,500.83 400.326,505.366 C 399.534,510.477 398.598,515.878 395.79,518.542 C 391.83,519.118 386.574,517.246 381.822,515.23 C 377.646,513.36 375.773,510.695 373.901,507.528 z"
   style="fill:#e6e6e6" />
						<path
   id="path2800"
   d="M 189.725,507.744 C 187.781,510.911 185.908,513.575 181.805,515.375 C 176.981,517.392 171.653,519.264 167.765,518.76 C 164.957,516.025 164.021,510.696 163.229,505.512 C 162.653,500.976 162.365,497.159 164.021,494.136 C 164.453,490.321 165.821,487.512 168.701,486.863 C 172.085,486.288 176.765,487.441 181.301,490.249 C 186.053,492.553 189.868,495.937 191.812,499.321 C 193.613,502.343 191.453,504.575 189.725,507.744 z"
   style="fill:#e6e6e6" />
					</g>
					<g
   id="g2802">
						<path
   id="path2804"
   d="M 399.821,187.991 C 402.485,185.399 404.933,183.311 409.397,182.592 C 414.582,181.872 420.197,181.441 423.796,183.025 C 425.813,186.337 425.38,191.808 424.804,196.921 C 424.229,201.457 423.437,205.274 421.132,207.792 C 419.693,211.248 417.605,213.695 414.653,213.553 C 411.269,213.265 407.021,210.888 403.422,207.073 C 399.389,203.546 396.653,199.37 395.573,195.553 C 394.637,192.167 397.301,190.583 399.821,187.991 z"
   style="fill:none;stroke:#000000;stroke-width:7.19899988" />
						<path
   id="path2806"
   d="M 373.901,507.528 C 372.101,504.36 369.941,502.128 371.67,499.175 C 373.758,495.719 377.43,492.335 382.253,490.031 C 386.789,487.222 391.541,486.07 394.854,486.647 C 397.662,487.294 399.102,490.174 399.534,493.918 C 401.118,496.942 400.902,500.83 400.326,505.366 C 399.534,510.477 398.598,515.878 395.79,518.542 C 391.83,519.118 386.574,517.246 381.822,515.23 C 377.646,513.36 375.773,510.695 373.901,507.528 z"
   style="fill:none;stroke:#000000;stroke-width:7.19899988" />
						<path
   id="path2808"
   d="M 189.725,507.744 C 187.781,510.911 185.908,513.575 181.805,515.375 C 176.981,517.392 171.653,519.264 167.765,518.76 C 164.957,516.025 164.021,510.696 163.229,505.512 C 162.653,500.976 162.365,497.159 164.021,494.136 C 164.453,490.321 165.821,487.512 168.701,486.863 C 172.085,486.288 176.765,487.441 181.301,490.249 C 186.053,492.553 189.868,495.937 191.812,499.321 C 193.613,502.343 191.453,504.575 189.725,507.744 z"
   style="fill:none;stroke:#000000;stroke-width:7.19899988" />
						<path
   id="path2810"
   d="M 155.093,190.799 C 157.685,193.391 160.348,194.903 159.413,198.287 C 158.333,202.102 155.597,206.35 151.565,209.879 C 147.893,213.693 143.645,216.07 140.261,216.359 C 137.381,216.503 135.292,214.054 133.853,210.598 C 131.549,208.006 130.757,204.262 130.181,199.726 C 129.533,194.615 129.1,189.07 131.117,185.758 C 134.789,184.246 140.333,184.678 145.517,185.398 C 149.981,186.12 152.501,188.208 155.093,190.799 z"
   style="fill:none;stroke:#000000;stroke-width:7.19899988" />
					</g>
				</g>
				<g
   id="g2812">
					<g
   id="g2814">
						<path
   id="path2816"
   d="M 275.478,11.591 C 283.686,11.591 290.309,19.654 290.309,29.519 C 290.309,39.384 283.686,47.303 275.478,47.303 C 267.27,47.303 260.646,39.383 260.646,29.519 C 260.646,19.655 267.27,11.591 275.478,11.591 z"
   style="fill:#b3b3b3" />
						<path
   id="path2818"
   d="M 290.381,583.199 C 298.59,583.199 305.285,591.263 305.285,601.128 C 305.285,610.991 298.59,618.983 290.381,618.983 C 282.245,618.983 275.549,610.991 275.549,601.128 C 275.549,591.263 282.245,583.199 290.381,583.199 z"
   style="fill:#b3b3b3" />
						<path
   id="path2820"
   d="M 532.086,431.495 C 540.293,431.495 546.989,439.559 546.989,449.424 C 546.989,459.287 540.293,467.279 532.086,467.279 C 523.949,467.279 517.253,459.287 517.253,449.424 C 517.253,439.559 523.949,431.495 532.086,431.495 z"
   style="fill:#b3b3b3" />
						<path
   id="path2822"
   d="M 26.141,428.615 C 34.277,428.615 40.973,436.679 40.973,446.544 C 40.973,456.407 34.277,464.399 26.141,464.399 C 17.933,464.399 11.237,456.407 11.237,446.544 C 11.237,436.679 17.933,428.615 26.141,428.615 z"
   style="fill:#b3b3b3" />
					</g>
					<g
   id="g2824">
						<path
   id="path2826"
   d="M 275.478,11.591 C 283.686,11.591 290.309,19.654 290.309,29.519 C 290.309,39.384 283.686,47.303 275.478,47.303 C 267.27,47.303 260.646,39.383 260.646,29.519 C 260.646,19.655 267.27,11.591 275.478,11.591 z"
   style="fill:none;stroke:#000000;stroke-width:7.19899988" />
						<path
   id="path2828"
   d="M 290.381,583.199 C 298.59,583.199 305.285,591.263 305.285,601.128 C 305.285,610.991 298.59,618.983 290.381,618.983 C 282.245,618.983 275.549,610.991 275.549,601.128 C 275.549,591.263 282.245,583.199 290.381,583.199 z"
   style="fill:none;stroke:#000000;stroke-width:7.19899988" />
						<path
   id="path2830"
   d="M 532.086,431.495 C 540.293,431.495 546.989,439.559 546.989,449.424 C 546.989,459.287 540.293,467.279 532.086,467.279 C 523.949,467.279 517.253,459.287 517.253,449.424 C 517.253,439.559 523.949,431.495 532.086,431.495 z"
   style="fill:none;stroke:#000000;stroke-width:7.19899988" />
						<path
   id="path2832"
   d="M 26.141,428.615 C 34.277,428.615 40.973,436.679 40.973,446.544 C 40.973,456.407 34.277,464.399 26.141,464.399 C 17.933,464.399 11.237,456.407 11.237,446.544 C 11.237,436.679 17.933,428.615 26.141,428.615 z"
   style="fill:none;stroke:#000000;stroke-width:7.19899988" />
					</g>
				</g>
			</g>
		</g></svg>