<?xml version="1.0" encoding="UTF-8" standalone="no"?>
<!-- Generator: Adobe Illustrator 10, SVG Export Plug-In . SVG Version: 3.0.0 Build 76)  -->
<svg
   xmlns:dc="http://purl.org/dc/elements/1.1/"
   xmlns:cc="http://creativecommons.org/ns#"
   xmlns:rdf="http://www.w3.org/1999/02/22-rdf-syntax-ns#"
   xmlns:svg="http://www.w3.org/2000/svg"
   xmlns="http://www.w3.org/2000/svg"
   xmlns:sodipodi="http://sodipodi.sourceforge.net/DTD/sodipodi-0.dtd"
   xmlns:inkscape="http://www.inkscape.org/namespaces/inkscape"
   width="501.8143"
   height="725.9823"
   viewBox="0 0 510.428 804.334"
   style="overflow:visible"
   xml:space="preserve"
   id="svg2841"
   sodipodi:version="0.32"
   inkscape:version="0.46"
   sodipodi:docname="Angel.svg"
   inkscape:output_extension="org.inkscape.output.svg.inkscape"
   version="1.0"><metadata
   id="metadata2923"><rdf:RDF><cc:Work
       rdf:about=""><dc:format>image/svg+xml</dc:format><dc:type
         rdf:resource="http://purl.org/dc/dcmitype/StillImage" /></cc:Work></rdf:RDF></metadata><defs
   id="defs2921"><inkscape:perspective
   sodipodi:type="inkscape:persp3d"
   inkscape:vp_x="0 : 402.16699 : 1"
   inkscape:vp_y="0 : 1000 : 0"
   inkscape:vp_z="510.42801 : 402.16699 : 1"
   inkscape:persp3d-origin="255.214 : 268.11133 : 1"
   id="perspective2925" />
		
		
	</defs><sodipodi:namedview
   inkscape:window-height="670"
   inkscape:window-width="640"
   inkscape:pageshadow="2"
   inkscape:pageopacity="0.0"
   guidetolerance="10.0"
   gridtolerance="10.0"
   objecttolerance="10.0"
   borderopacity="1.0"
   bordercolor="#666666"
   pagecolor="#ffffff"
   id="base"
   showgrid="false"
   inkscape:zoom="0.57438826"
   inkscape:cx="255.214"
   inkscape:cy="402.16699"
   inkscape:window-x="98"
   inkscape:window-y="37"
   inkscape:current-layer="svg2841" />
	<style
   type="text/css"
   id="style2843">
	
		@font-face{font-family:'Times-Roman';src:url(A20D9AF5.cef)}
	
	</style>
	
<g
   transform="matrix(1.1079251,0,0,1.1079251,-32.318084,1.4162233e-3)"
   style="overflow:visible"
   id="g2862">
			<g
   id="g2864">
				<path
   id="path2866"
   d="M 81.967,194.532 C 70.663,152.484 60.151,111.445 50.577,72.277 C 50.577,72.277 50.577,72.277 50.577,72.205 C 72.103,103.093 91.399,137.797 110.407,169.117 C 116.671,179.484 121.856,187.477 126.751,194.532 L 100.256,194.532 C 96.007,187.405 91.759,180.061 87.439,172.717 C 89.239,179.989 91.039,187.261 92.911,194.532 L 81.967,194.532 z"
   style="fill:#999999" />
				<path
   id="path2868"
   d="M 145.903,194.605 C 145.615,185.893 146.839,176.677 150.222,166.885 C 159.078,141.109 183.558,130.813 203.502,139.237 C 223.447,147.661 236.694,163.357 228.558,188.845 C 227.982,190.789 227.262,192.661 226.542,194.532 L 202.134,194.532 C 205.014,181.501 199.686,171.853 190.543,168.253 C 180.75,164.436 169.662,170.412 165.198,185.245 C 164.261,188.268 163.758,191.364 163.469,194.532 L 145.903,194.605 z"
   style="fill:#999999" />
				<path
   id="path2870"
   d="M 289.327,194.532 C 289.903,194.173 290.407,193.885 290.982,193.525 C 347.791,158.316 403.375,115.981 454.711,80.845 C 454.711,80.989 454.711,80.989 454.711,80.989 C 426.775,117.349 397.543,155.293 369.031,194.532 L 338.935,194.532 C 344.695,186.685 350.527,178.837 356.359,170.989 C 345.199,178.909 334.183,186.829 323.167,194.532 L 289.327,194.532 L 289.327,194.532 z"
   style="fill:#999999" />
				<path
   id="path2872"
   d="M 36.537,3.085 C 45.897,7.621 45.176,28.645 42.081,51.469 C 38.985,74.293 35.601,89.773 27.969,84.373 C 20.337,78.973 9.465,54.925 10.905,32.965 C 12.345,11.005 27.177,-1.451 36.537,3.085 z"
   style="fill:#999999" />
				<path
   id="path2874"
   d="M 494.023,24.037 C 505.687,20.581 511.806,35.556 506.119,55.645 C 500.431,75.733 486.031,94.597 474.871,99.133 C 463.711,103.669 458.096,92.221 463.279,71.125 C 468.463,50.029 482.359,27.493 494.023,24.037 z"
   style="fill:#999999" />
				<path
   id="path2876"
   d="M 123.799,343.861 C 114.366,310.885 104.647,276.829 94.999,242.268 C 90.535,226.285 86.143,210.301 81.967,194.532 L 92.911,194.532 C 104.143,239.101 115.951,283.165 129.271,325.285 C 131.287,331.549 133.303,337.741 135.32,343.933 L 123.799,343.861 z"
   style="fill:#999999" />
				<path
   id="path2878"
   d="M 151.807,343.861 C 151.375,341.269 151.015,338.677 150.727,336.085 C 148.495,314.125 154.327,302.101 166.207,305.629 C 177.799,309.085 190.831,323.917 192.343,343.861 L 151.807,343.861 z"
   style="fill:#999999" />
				<path
   id="path2880"
   d="M 239.431,343.861 C 242.815,337.669 246.415,331.405 250.087,325.141 C 275.287,282.301 306.104,239.029 338.936,194.532 L 369.032,194.532 C 356.647,211.525 344.479,228.733 332.528,246.157 C 310.063,278.989 290.263,311.965 272.048,343.861 L 239.431,343.861 z"
   style="fill:#999999" />
				<path
   id="path2882"
   d="M 100.256,194.532 C 107.599,206.845 115.015,218.797 123.223,230.029 C 135.535,246.949 150.223,261.061 166.135,273.085 C 188.167,270.637 216.103,261.637 247.351,243.925 C 272.263,229.813 297.463,212.677 323.167,194.532 L 289.327,194.532 C 241.303,224.268 220.711,234.133 182.983,245.797 C 183.055,245.22 182.911,244.717 182.767,244.069 C 201.271,236.364 217.759,217.501 226.543,194.532 L 202.135,194.532 C 201.919,195.469 201.704,196.333 201.415,197.268 C 197.095,211.669 184.567,224.629 174.559,221.316 C 166.567,218.653 162.535,206.773 163.471,194.532 L 145.904,194.605 C 146.263,208.717 150.655,221.173 156.055,231.469 C 143.528,216.781 135.463,207.133 126.751,194.532 L 100.256,194.532 L 100.256,194.532 z"
   style="fill:#999999" />
				<path
   id="path2884"
   d="M 125.671,350.341 C 125.095,348.181 124.448,346.021 123.799,343.861 L 135.32,343.933 C 136.039,346.093 136.758,348.181 137.479,350.341 L 125.671,350.341 z"
   style="fill:#999999" />
				<path
   id="path2886"
   d="M 153.103,350.341 C 152.599,348.253 152.167,346.093 151.807,343.861 L 192.343,343.861 C 192.343,344.293 192.415,344.725 192.415,345.157 C 192.487,346.885 192.487,348.613 192.415,350.341 L 153.103,350.341 z"
   style="fill:#999999" />
				<path
   id="path2888"
   d="M 235.903,350.341 C 237.054,348.181 238.279,346.021 239.43,343.861 L 272.046,343.861 C 270.75,346.021 269.526,348.181 268.302,350.341 L 235.903,350.341 z"
   style="fill:#999999" />
				<path
   id="path2890"
   d="M 129.487,425.365 C 129.415,424.645 129.415,423.853 129.343,423.061 C 127.182,389.941 125.67,369.493 131.502,370.573 C 129.558,363.878 127.614,357.109 125.67,350.341 L 137.478,350.341 C 146.406,376.838 155.838,401.821 165.054,425.365 L 148.134,425.365 C 145.614,415.861 142.302,408.229 139.566,405.565 C 135.534,401.605 134.382,410.172 135.319,425.294 L 129.487,425.365 z"
   style="fill:#999999" />
				<path
   id="path2892"
   d="M 200.264,425.365 C 210.343,401.677 221.863,376.477 235.904,350.341 L 268.303,350.341 C 264.488,357.109 260.742,363.733 257.071,370.357 C 286.736,354.013 309.488,364.093 309.199,393.83 C 309.127,403.693 305.814,414.565 300.558,425.365 L 280.758,425.365 C 282.63,420.469 283.638,415.502 283.566,410.749 C 283.279,395.197 271.47,390.014 257.935,398.006 C 248.431,403.621 240.727,414.133 237.271,425.365 L 200.264,425.365 L 200.264,425.365 z"
   style="fill:#999999" />
				<path
   id="path2894"
   d="M 153.103,350.341 C 156.919,366.901 164.119,380.941 172.471,382.597 C 182.191,384.54 191.696,368.844 192.415,350.341 L 153.103,350.341 z"
   style="fill:#999999" />
				<path
   id="path2896"
   d="M 129.487,425.365 C 131.43,457.621 130.279,487.429 138.846,494.269 C 147.63,501.252 161.887,485.269 164.046,458.484 C 164.19,493.693 157.854,525.229 140.718,552.733 C 119.766,586.502 92.55,617.101 68.79,649.357 C 101.694,616.885 137.622,585.853 166.35,551.149 C 189.534,523.141 202.566,490.885 209.262,456.685 C 210.126,481.956 223.806,494.484 251.814,478.789 C 270.534,468.276 289.758,447.108 300.558,425.364 L 280.758,425.364 C 276.439,436.668 267.798,447.324 258.582,452.868 C 245.334,460.789 235.758,455.316 235.182,439.62 C 235.038,434.94 235.758,430.116 237.27,425.364 L 200.263,425.364 C 196.374,434.507 192.703,443.436 189.174,452.148 C 183.702,499.308 163.398,539.627 131.862,578.148 C 158.79,539.772 174.918,499.524 175.782,452.004 C 172.254,443.363 168.654,434.436 165.053,425.363 L 148.133,425.363 C 149.717,431.627 151.013,438.683 151.517,445.811 C 152.813,463.739 147.629,472.666 143.381,469.21 C 139.132,465.754 137.333,450.274 135.749,431.411 C 135.605,429.25 135.389,427.234 135.318,425.291 L 129.487,425.365 z"
   style="fill:#999999" />
				<path
   id="path2898"
   d="M 60.583,660.949 C 70.303,660.517 69.295,672.613 60.439,689.965 C 51.585,707.318 38.192,723.23 28.473,723.806 C 18.753,724.382 15.225,708.83 24.225,691.406 C 33.225,673.981 50.865,661.381 60.583,660.949 z"
   style="fill:#999999" />
			</g>
			<g
   id="g2900">
				<path
   id="path2902"
   d="M 156.055,231.469 C 147.343,214.909 141.367,192.661 150.223,166.885 C 159.079,141.109 183.559,130.813 203.503,139.237 C 223.448,147.661 236.695,163.357 228.559,188.845 C 220.423,214.333 202.783,235.717 182.767,244.069 C 182.911,244.717 183.055,245.22 182.983,245.797 C 221.143,233.989 241.735,224.053 290.983,193.525 C 347.792,158.316 403.376,115.981 454.712,80.845 C 454.712,80.989 454.712,80.989 454.712,80.989 C 414.681,133.045 372.056,188.34 332.528,246.157 C 303.799,288.205 279.32,330.469 257.071,370.357 C 286.736,354.013 309.488,364.093 309.199,393.83 C 308.911,423.565 279.823,463.094 251.815,478.79 C 223.807,494.484 210.127,481.957 209.263,456.686 C 202.567,490.886 189.535,523.142 166.351,551.15 C 137.623,585.854 101.695,616.886 68.791,649.358 C 92.551,617.102 119.767,586.503 140.719,552.734 C 157.855,525.23 164.191,493.694 164.047,458.485 C 161.887,485.27 147.631,501.254 138.847,494.27 C 130.063,487.286 131.503,456.182 129.344,423.062 C 127.183,389.942 125.671,369.494 131.503,370.574 C 119.623,329.318 107.239,286.262 94.999,242.269 C 78.655,183.661 63.751,126.133 50.577,72.277 C 50.577,72.277 50.577,72.277 50.577,72.205 C 72.103,103.093 91.399,137.797 110.407,169.117 C 127.832,197.773 136.471,208.501 156.055,231.469 z"
   style="fill:none;stroke:#000000;stroke-width:4.31899977" />
				<path
   id="path2904"
   d="M 190.544,168.253 C 180.751,164.436 169.663,170.412 165.199,185.245 C 160.735,200.077 164.551,218.005 174.559,221.316 C 184.567,224.629 197.095,211.669 201.415,197.268 C 205.735,182.869 200.335,172.069 190.544,168.253 z"
   style="fill:none;stroke:#000000;stroke-width:4.31899977" />
				<path
   id="path2906"
   d="M 257.935,398.005 C 244.399,405.997 234.607,423.925 235.183,439.62 C 235.759,455.316 245.335,460.789 258.583,452.868 C 271.831,444.948 283.855,426.301 283.566,410.748 C 283.279,395.197 271.471,390.013 257.935,398.005 z"
   style="fill:none;stroke:#000000;stroke-width:4.31899977" />
				<path
   id="path2908"
   d="M 139.567,405.565 C 135.031,401.101 134.167,412.548 135.751,431.414 C 137.335,450.277 139.135,465.757 143.383,469.213 C 147.631,472.669 152.815,463.741 151.519,445.814 C 150.223,427.885 144.103,410.029 139.567,405.565 z"
   style="fill:none;stroke:#000000;stroke-width:4.31899977" />
				<path
   id="path2910"
   d="M 131.863,578.149 C 163.399,539.628 183.703,499.309 189.175,452.149 C 204.728,413.773 223.303,370.645 250.087,325.141 C 279.751,274.813 317.119,223.765 356.359,170.989 C 318.991,197.556 282.919,223.765 247.351,243.925 C 216.103,261.637 188.167,270.637 166.135,273.085 C 150.223,261.061 135.535,246.949 123.223,230.029 C 110.263,212.244 99.103,192.661 87.439,172.717 C 100.327,224.701 113.791,276.253 129.271,325.285 C 143.959,371.798 160.303,414.061 175.783,452.006 C 174.919,499.525 158.791,539.773 131.863,578.149 z"
   style="fill:none;stroke:#000000;stroke-width:4.31899977" />
				<path
   id="path2912"
   d="M 166.207,305.629 C 178.087,309.157 191.407,324.565 192.415,345.157 C 193.423,365.749 183.127,384.685 172.471,382.597 C 161.815,380.509 152.959,358.045 150.727,336.085 C 148.495,314.125 154.327,302.101 166.207,305.629 z"
   style="fill:none;stroke:#000000;stroke-width:4.31899977" />
				<path
   id="path2914"
   d="M 60.583,660.949 C 70.303,660.517 69.295,672.613 60.439,689.965 C 51.585,707.318 38.192,723.23 28.473,723.806 C 18.753,724.382 15.225,708.83 24.225,691.406 C 33.225,673.981 50.865,661.381 60.583,660.949 z"
   style="fill:none;stroke:#000000;stroke-width:4.31899977" />
				<path
   id="path2916"
   d="M 36.537,3.085 C 45.897,7.621 45.176,28.645 42.081,51.469 C 38.985,74.293 35.601,89.773 27.969,84.373 C 20.337,78.973 9.465,54.925 10.905,32.965 C 12.345,11.005 27.177,-1.451 36.537,3.085 z"
   style="fill:none;stroke:#000000;stroke-width:4.31899977" />
				<path
   id="path2918"
   d="M 494.023,24.037 C 505.687,20.581 511.806,35.556 506.119,55.645 C 500.431,75.733 486.031,94.597 474.871,99.133 C 463.711,103.669 458.096,92.221 463.279,71.125 C 468.463,50.029 482.359,27.493 494.023,24.037 z"
   style="fill:none;stroke:#000000;stroke-width:4.31899977" />
			</g>
		</g></svg>