<?xml version="1.0" encoding="UTF-8" standalone="no"?>
<!-- Generator: Adobe Illustrator 10, SVG Export Plug-In . SVG Version: 3.0.0 Build 76)  -->
<svg
   xmlns:dc="http://purl.org/dc/elements/1.1/"
   xmlns:cc="http://creativecommons.org/ns#"
   xmlns:rdf="http://www.w3.org/1999/02/22-rdf-syntax-ns#"
   xmlns:svg="http://www.w3.org/2000/svg"
   xmlns="http://www.w3.org/2000/svg"
   xmlns:sodipodi="http://sodipodi.sourceforge.net/DTD/sodipodi-0.dtd"
   xmlns:inkscape="http://www.inkscape.org/namespaces/inkscape"
   width="542.48792"
   height="805.09045"
   viewBox="0 0 545.798 872.21"
   style="overflow:visible"
   xml:space="preserve"
   id="svg2927"
   sodipodi:version="0.32"
   inkscape:version="0.46"
   sodipodi:docname="Arm.svg"
   inkscape:output_extension="org.inkscape.output.svg.inkscape"
   version="1.0"><metadata
   id="metadata3049"><rdf:RDF><cc:Work
       rdf:about=""><dc:format>image/svg+xml</dc:format><dc:type
         rdf:resource="http://purl.org/dc/dcmitype/StillImage" /></cc:Work></rdf:RDF></metadata><defs
   id="defs3047"><inkscape:perspective
   sodipodi:type="inkscape:persp3d"
   inkscape:vp_x="0 : 436.10501 : 1"
   inkscape:vp_y="0 : 1000 : 0"
   inkscape:vp_z="545.79797 : 436.10501 : 1"
   inkscape:persp3d-origin="272.89899 : 290.73667 : 1"
   id="perspective3051" />
		
		
	</defs><sodipodi:namedview
   inkscape:window-height="670"
   inkscape:window-width="640"
   inkscape:pageshadow="2"
   inkscape:pageopacity="0.0"
   guidetolerance="10.0"
   gridtolerance="10.0"
   objecttolerance="10.0"
   borderopacity="1.0"
   bordercolor="#666666"
   pagecolor="#ffffff"
   id="base"
   showgrid="false"
   inkscape:zoom="0.52968894"
   inkscape:cx="272.89899"
   inkscape:cy="436.10501"
   inkscape:window-x="0"
   inkscape:window-y="0"
   inkscape:current-layer="svg2927" />
	<style
   type="text/css"
   id="style2929">
	
		@font-face{font-family:'Times-Roman';src:url(18703206.cef)}
	
	</style>
	
<g
   transform="matrix(1.083369,0,0,1.083369,-24.54315,8.8159929)"
   style="overflow:visible"
   id="g2948">
			<g
   id="g2950">
				<path
   id="path2952"
   d="M 340.629,344 C 309.957,333.199 279.213,327.728 248.181,332.119 C 168.981,343.279 98.637,396.559 25.125,416.863 C 21.885,417.727 19.148,421.327 19.148,426.08 C 19.148,429.68 19.148,433.279 19.148,436.808 C 19.148,441.776 21.885,446.024 25.125,445.303 C 98.277,426.944 168.837,378.92 247.245,367.184 C 278.997,362.502 310.749,367.616 342.213,377.695 C 342.285,379.64 342.358,383.744 342.358,387.704 C 342.43,515.144 312.477,641.433 302.038,768.368 C 301.534,774.2 305.278,779.24 309.454,779.457 C 312.694,779.601 316.006,779.816 319.03,779.888 C 323.278,779.961 326.446,775.424 326.878,769.737 C 336.094,645.105 362.733,521.265 362.806,396.345 C 362.806,392.384 362.734,388.497 362.662,384.536 C 396.358,397.856 400.678,394.616 433.438,410.384 C 436.606,411.824 438.837,409.304 438.694,404.481 C 438.622,400.953 437.901,393.681 438.19,390.225 C 438.549,385.329 434.95,381.296 431.854,379.641 C 398.301,362.503 395.782,365.671 361.149,351.489 C 353.086,240.968 318.093,130.737 300.813,20.289 C 299.877,14.674 296.278,7.113 291.381,4.306 C 287.781,2.289 284.11,0.058 280.365,-2.102 C 275.469,-4.838 270.933,-1.67 271.941,4.162 C 291.669,117.631 331.773,230.599 340.629,344 z"
   style="fill:#3f5149;stroke:#4a5660;stroke-width:10.07999992" />
				<g
   id="g2954">
					<g
   id="g2956">
						<path
   id="path2958"
   d="M 288.213,202.159 C 302.469,176.599 321.908,150.535 339.261,145.783 C 363.741,139.015 377.35,158.527 382.893,178.76 C 402.837,190.28 423.358,193.736 444.165,187.4 C 453.453,164.719 466.125,137.072 490.102,125.84 C 514.149,114.68 544.606,158.959 540.358,194.024 C 539.998,196.904 539.493,199.568 538.846,202.16 L 496.725,202.16 C 503.782,196.328 509.469,188.12 510.909,178.616 C 513.214,163.136 503.854,151.257 491.83,156.872 C 479.733,162.417 468.79,180.417 465.838,194.169 C 465.191,197.265 464.974,199.929 465.262,202.16 L 347.253,202.16 C 348.477,200.36 349.484,198.488 350.277,196.544 C 355.173,184.232 347.541,174.44 335.3,178.04 C 325.941,180.849 315.933,191.36 309.237,202.16 L 288.213,202.16 L 288.213,202.159 z"
   style="fill:#464950" />
						<path
   id="path2960"
   d="M 276.621,225.199 C 279.861,218 283.749,210.08 288.213,202.159 L 309.237,202.159 C 307.148,205.471 305.421,208.855 304.125,212.023 C 301.461,218.574 301.245,222.966 303.261,225.199 L 276.621,225.199 z"
   style="fill:#464950" />
						<path
   id="path2962"
   d="M 315.934,225.199 C 316.149,225.127 316.366,225.055 316.581,224.983 C 327.525,220.879 340.557,212.168 347.253,202.159 L 465.261,202.159 C 466.198,210.008 472.389,212.959 482.181,210.08 C 487.149,208.64 492.19,205.903 496.725,202.159 L 538.846,202.159 C 536.397,211.447 532.005,219.08 526.317,225.199 L 365.829,225.199 C 364.533,224.623 363.237,224.047 361.941,223.399 C 361.077,223.975 360.285,224.623 359.42,225.199 L 315.934,225.199 L 315.934,225.199 z"
   style="fill:#464950" />
						<path
   id="path2964"
   d="M 178.053,383.312 C 202.03,353.215 236.805,317.647 273.309,287.264 C 267.189,268.039 261.573,261.992 273.741,231.967 C 274.605,229.808 275.613,227.504 276.621,225.199 L 303.261,225.199 C 305.278,227.504 309.597,227.504 315.934,225.199 L 359.421,225.199 C 347.686,233.263 333.285,240.176 319.029,245.431 C 308.804,262.783 298.365,279.991 288.573,296.983 C 248.397,324.847 213.621,359.406 203.469,383.311 L 178.053,383.311 L 178.053,383.312 z"
   style="fill:#464950" />
						<path
   id="path2966"
   d="M 337.461,383.312 C 317.085,376.04 301.245,358.184 304.845,344.43 C 308.733,330.176 331.557,327.295 353.085,332.551 C 374.686,337.879 387.285,348.752 383.686,364.375 C 381.742,372.655 375.622,379.64 367.053,383.383 L 337.461,383.312 z"
   style="fill:#464950" />
						<path
   id="path2968"
   d="M 484.484,383.312 C 488.085,353.936 469.077,318.081 434.517,303.824 C 441.644,285.753 449.06,267.392 456.117,249.177 C 443.517,249.609 435.381,244.496 432.789,235.065 C 410.181,239.313 387.789,234.993 365.829,225.201 L 526.316,225.201 C 514.293,238.161 496.365,244.426 478.869,246.153 C 475.342,256.233 471.885,266.17 468.285,276.177 C 497.589,300.153 518.829,344.36 529.269,383.313 L 484.484,383.313 L 484.484,383.312 z"
   style="fill:#464950" />
						<path
   id="path2970"
   d="M 157.245,412.688 C 162.573,403.904 169.629,393.967 178.053,383.312 L 203.469,383.312 C 202.605,385.4 201.885,387.416 201.381,389.36 C 195.333,413.264 223.485,414.416 263.517,401.24 C 264.381,405.055 265.245,408.872 266.181,412.688 L 157.245,412.688 z"
   style="fill:#464950" />
						<path
   id="path2972"
   d="M 469.077,412.688 C 476.925,406.352 482.037,397.64 484.053,386.336 C 484.198,385.327 484.413,384.319 484.485,383.312 L 529.27,383.312 C 532.078,393.68 534.093,403.616 535.317,412.76 L 469.077,412.688 z"
   style="fill:#464950" />
						<path
   id="path2974"
   d="M 337.461,383.312 C 338.253,383.6 339.117,383.887 339.981,384.176 C 350.061,387.416 359.494,386.623 367.053,383.383 L 337.461,383.312 z"
   style="fill:#464950" />
						<path
   id="path2976"
   d="M 222.261,612.848 C 226.221,585.344 242.277,554.024 266.757,529.976 C 255.525,498.44 245.157,467.192 237.309,436.375 C 180.645,460.928 138.237,463.879 147.237,433.496 C 148.965,427.735 152.349,420.68 157.245,412.687 L 266.181,412.687 C 274.029,445.015 285.261,477.703 297.717,510.751 C 309.957,508.374 321.549,510.822 330.766,516.87 C 356.614,516.654 381.957,527.526 407.446,541.927 C 412.342,534.583 424.366,534.439 441.43,543.151 C 429.118,504.054 418.317,465.463 411.405,427.159 C 436.317,427.375 456.261,423.128 469.078,412.687 L 535.317,412.759 C 537.046,425.574 537.19,436.735 535.606,444.943 C 528.549,480.871 492.622,467.983 439.053,455.239 C 446.541,490.447 456.19,525.799 466.774,561.51 C 482.11,575.983 496.87,593.767 507.742,612.847 L 484.343,612.847 C 478.006,602.118 469.15,591.678 460.655,585.559 C 446.831,575.551 439.127,578.863 442.222,592.47 C 443.59,598.374 446.83,605.574 451.15,612.847 L 429.623,612.847 C 428.398,610.687 427.175,608.455 425.951,606.223 C 398.519,586.71 371.014,574.903 342.863,578.718 C 336.31,590.382 330.262,599.598 318.959,612.847 L 287.207,612.847 C 288.863,611.479 290.447,609.966 292.103,608.311 C 307.15,592.903 317.374,572.598 313.846,559.639 C 310.318,546.895 294.838,545.455 279.79,559.494 C 264.67,573.678 255.67,598.157 258.91,612.127 C 258.982,612.414 259.054,612.631 259.126,612.847 L 222.261,612.847 L 222.261,612.848 z"
   style="fill:#464950" />
						<path
   id="path2978"
   d="M 502.557,682.688 C 493.198,681.896 482.181,676.784 472.317,667.423 C 449.782,646.04 439.702,630.776 429.622,612.848 L 451.149,612.848 C 456.766,622.352 464.326,631.928 472.102,638.696 C 485.782,650.576 495.645,647.984 492.549,632.504 C 491.325,626.527 488.301,619.616 484.342,612.849 L 507.741,612.849 C 515.373,626.241 521.133,640.281 523.797,654.177 C 527.181,671.961 519.549,681.393 507.957,682.689 L 502.557,682.689 L 502.557,682.688 z"
   style="fill:#464950" />
						<path
   id="path2980"
   d="M 222.261,612.848 C 220.821,622.928 220.965,632.503 222.981,641.072 C 230.397,672.968 268.269,666.992 296.133,637.833 C 305.709,627.753 313.053,619.761 318.957,612.849 L 287.205,612.849 C 274.173,623.865 262.437,624.512 259.125,612.849 L 222.261,612.849 L 222.261,612.848 z"
   style="fill:#464950" />
					</g>
					<g
   id="g2982">
						<path
   id="path2984"
   d="M 466.773,561.511 C 492.908,586.135 517.388,620.623 523.796,654.176 C 530.132,687.655 497.66,691.4 472.316,667.423 C 447.045,643.447 437.468,627.176 425.949,606.224 C 398.517,586.711 371.012,574.904 342.861,578.719 C 332.853,596.503 324.068,608.599 296.132,637.832 C 268.268,666.991 230.396,672.968 222.98,641.071 C 215.564,609.248 233.276,562.879 266.756,529.975 C 255.524,498.439 245.156,467.191 237.308,436.374 C 180.644,460.927 138.236,463.878 147.236,433.495 C 156.164,403.183 212.324,338.022 273.308,287.263 C 267.188,268.038 261.572,261.991 273.74,231.966 C 285.979,201.798 314.78,152.55 339.26,145.782 C 363.74,139.014 377.349,158.526 382.892,178.759 C 402.836,190.279 423.357,193.735 444.164,187.399 C 453.452,164.718 466.124,137.071 490.101,125.839 C 514.148,114.679 544.605,158.958 540.357,194.023 C 536.037,228.943 506.877,243.343 478.869,246.151 C 475.342,256.231 471.885,266.168 468.285,276.175 C 516.237,315.415 542.589,408.943 535.605,444.943 C 528.548,480.871 492.621,467.983 439.052,455.239 C 446.541,490.447 456.189,525.799 466.773,561.511 z"
   style="fill:none;stroke:#6d5237;stroke-width:10.07999992" />
						<path
   id="path2986"
   d="M 456.117,249.176 C 443.517,249.608 435.381,244.495 432.789,235.064 C 408.812,239.527 385.125,234.488 361.941,223.4 C 349.773,232.256 334.365,239.816 319.029,245.432 C 308.804,262.784 298.365,279.992 288.573,296.984 C 244.869,327.296 207.501,365.527 201.381,389.36 C 195.333,413.264 223.485,414.416 263.517,401.24 C 271.437,437.312 283.749,473.816 297.717,510.753 C 309.957,508.376 321.549,510.824 330.766,516.872 C 356.614,516.656 381.957,527.528 407.446,541.929 C 412.342,534.585 424.366,534.441 441.43,543.153 C 429.118,504.056 418.317,465.465 411.405,427.161 C 451.582,427.521 478.798,416.217 484.053,386.338 C 489.381,356.457 470.301,318.586 434.518,303.825 C 441.645,285.752 449.061,267.392 456.117,249.176 z"
   style="fill:none;stroke:#6d5237;stroke-width:10.07999992" />
						<path
   id="path2988"
   d="M 335.301,178.039 C 323.061,181.711 309.669,198.56 304.125,212.023 C 298.581,225.486 303.621,229.878 316.581,224.983 C 329.541,220.088 345.381,208.855 350.277,196.543 C 355.173,184.231 347.541,174.439 335.301,178.039 z"
   style="fill:none;stroke:#6d5237;stroke-width:10.07999992" />
						<path
   id="path2990"
   d="M 460.653,585.56 C 446.829,575.552 439.125,578.864 442.22,592.471 C 445.46,606.08 458.349,626.743 472.101,638.696 C 485.781,650.576 495.644,647.984 492.548,632.504 C 489.309,616.951 474.477,595.567 460.653,585.56 z"
   style="fill:none;stroke:#6d5237;stroke-width:10.07999992" />
						<path
   id="path2992"
   d="M 279.789,559.495 C 264.669,573.679 255.669,598.158 258.909,612.128 C 262.293,626.024 276.981,623.791 292.102,608.312 C 307.149,592.904 317.373,572.599 313.845,559.64 C 310.316,546.896 294.837,545.456 279.789,559.495 z"
   style="fill:none;stroke:#6d5237;stroke-width:10.07999992" />
						<path
   id="path2994"
   d="M 491.829,156.871 C 479.732,162.416 468.789,180.416 465.837,194.168 C 462.885,207.848 469.509,213.823 482.181,210.08 C 494.854,206.407 508.534,194.168 510.909,178.615 C 513.213,163.135 503.854,151.256 491.829,156.871 z"
   style="fill:none;stroke:#6d5237;stroke-width:10.07999992" />
						<path
   id="path2996"
   d="M 353.085,332.551 C 374.686,337.879 387.285,348.752 383.686,364.375 C 380.013,379.928 361.509,391.016 339.981,384.176 C 318.381,377.479 301.102,358.76 304.845,344.43 C 308.732,330.176 331.557,327.295 353.085,332.551 z"
   style="fill:none;stroke:#6d5237;stroke-width:10.07999992" />
					</g>
				</g>
			</g>
			<g
   id="g2998">
				<path
   id="path3000"
   d="M 329.829,356.023 C 299.157,345.223 268.413,339.752 237.381,344.143 C 158.181,355.302 87.837,408.583 14.325,428.886 C 11.085,429.751 8.349,433.351 8.349,438.103 C 8.349,441.703 8.349,445.302 8.349,448.832 C 8.349,453.799 11.085,458.048 14.325,457.327 C 87.476,438.967 158.037,390.943 236.445,379.207 C 268.197,374.526 299.949,379.64 331.413,389.719 C 331.484,391.664 331.557,395.768 331.557,399.728 C 331.629,527.168 301.677,653.457 291.238,780.392 C 290.733,786.224 294.477,791.264 298.654,791.48 C 301.893,791.624 305.206,791.84 308.229,791.912 C 312.477,791.984 315.645,787.448 316.078,781.761 C 325.294,657.129 351.934,533.288 352.006,408.368 C 352.006,404.408 351.935,400.52 351.862,396.56 C 385.557,409.879 389.878,406.64 422.637,422.408 C 425.805,423.848 428.037,421.328 427.893,416.504 C 427.821,412.977 427.102,405.704 427.389,402.249 C 427.749,397.353 424.149,393.32 421.053,391.665 C 387.501,374.527 384.981,377.695 350.35,363.513 C 342.286,252.992 307.293,142.761 290.013,32.313 C 289.077,26.697 285.477,19.136 280.581,16.329 C 276.981,14.313 273.309,12.082 269.565,9.922 C 264.669,7.186 260.133,10.354 261.141,16.186 C 280.869,129.655 320.973,242.623 329.829,356.023 z"
   style="fill:#965d62;stroke:#292f31;stroke-width:10.07999992" />
				<g
   id="g3002">
					<g
   id="g3004">
						<path
   id="path3006"
   d="M 277.413,214.184 C 291.669,188.623 311.109,162.559 328.461,157.808 C 352.941,151.039 366.549,170.551 372.093,190.784 C 392.037,202.304 412.557,205.761 433.365,199.425 C 442.653,176.744 455.325,149.097 479.301,137.864 C 503.35,126.704 533.805,170.984 529.557,206.048 C 529.198,208.929 528.694,211.593 528.045,214.185 L 485.925,214.185 C 492.981,208.353 498.669,200.145 500.11,190.641 C 502.414,175.161 493.053,163.281 481.03,168.897 C 468.934,174.441 457.99,192.441 455.038,206.193 C 454.39,209.289 454.174,211.953 454.462,214.185 L 336.453,214.185 C 337.677,212.384 338.685,210.513 339.476,208.569 C 344.372,196.257 336.741,186.465 324.5,190.065 C 315.14,192.873 305.132,203.384 298.437,214.185 L 277.413,214.185 L 277.413,214.184 z"
   style="fill:#fe9929" />
						<path
   id="path3008"
   d="M 265.821,237.224 C 269.061,230.024 272.949,222.104 277.413,214.184 L 298.437,214.184 C 296.349,217.496 294.621,220.879 293.325,224.047 C 290.661,230.599 290.445,234.991 292.461,237.224 L 265.821,237.224 z"
   style="fill:#fe9929" />
						<path
   id="path3010"
   d="M 305.133,237.224 C 305.35,237.152 305.565,237.08 305.781,237.008 C 316.724,232.904 329.757,224.192 336.453,214.184 L 454.461,214.184 C 455.397,222.032 461.589,224.984 471.381,222.104 C 476.35,220.665 481.389,217.928 485.925,214.184 L 528.045,214.184 C 525.597,223.471 521.205,231.104 515.518,237.224 L 355.029,237.224 C 353.732,236.647 352.437,236.072 351.14,235.424 C 350.277,236 349.484,236.647 348.62,237.224 L 305.133,237.224 L 305.133,237.224 z"
   style="fill:#fe9929" />
						<path
   id="path3012"
   d="M 167.253,395.336 C 191.229,365.239 226.005,329.67 262.509,299.287 C 256.389,280.063 250.773,274.016 262.941,243.991 C 263.805,241.832 264.813,239.526 265.821,237.223 L 292.461,237.223 C 294.477,239.526 298.797,239.526 305.133,237.223 L 348.621,237.223 C 336.885,245.286 322.484,252.199 308.228,257.454 C 298.004,274.807 287.564,292.015 277.773,309.007 C 237.596,336.87 202.82,371.429 192.669,395.335 L 167.253,395.335 L 167.253,395.336 z"
   style="fill:#fe9929" />
						<path
   id="path3014"
   d="M 326.661,395.336 C 306.285,388.064 290.445,370.207 294.045,356.455 C 297.934,342.199 320.757,339.319 342.285,344.574 C 363.885,349.903 376.484,360.775 372.885,376.399 C 370.942,384.679 364.821,391.664 356.253,395.407 L 326.661,395.336 z"
   style="fill:#fe9929" />
						<path
   id="path3016"
   d="M 473.686,395.336 C 477.286,365.959 458.278,330.104 423.717,315.848 C 430.846,297.776 438.261,279.416 445.317,261.2 C 432.717,261.632 424.582,256.52 421.99,247.089 C 399.382,251.337 376.99,247.017 355.03,237.225 L 515.518,237.225 C 503.493,250.185 485.565,256.449 468.07,258.177 C 464.542,268.257 461.086,278.193 457.485,288.2 C 486.79,312.177 508.03,356.384 518.469,395.337 L 473.686,395.337 L 473.686,395.336 z"
   style="fill:#fe9929" />
						<path
   id="path3018"
   d="M 154.293,412.688 C 158.109,407.215 162.501,401.383 167.253,395.336 L 192.669,395.336 C 191.805,397.423 191.085,399.44 190.581,401.383 C 189.429,405.991 189.501,409.736 190.725,412.688 L 154.293,412.688 L 154.293,412.688 z"
   style="fill:#fe9929" />
						<path
   id="path3020"
   d="M 468.357,412.688 C 470.661,408.511 472.316,403.688 473.253,398.36 C 473.397,397.352 473.613,396.344 473.686,395.337 L 518.469,395.337 C 520.125,401.313 521.421,407.072 522.501,412.689 L 468.357,412.689 L 468.357,412.688 z"
   style="fill:#fe9929" />
						<path
   id="path3022"
   d="M 326.661,395.336 C 327.453,395.623 328.316,395.911 329.182,396.199 C 339.261,399.439 348.694,398.647 356.253,395.407 L 326.661,395.336 z"
   style="fill:#fe9929" />
						<path
   id="path3024"
   d="M 211.461,624.872 C 215.421,597.367 231.477,566.048 255.957,541.999 C 244.725,510.463 234.357,479.215 226.509,448.399 C 169.845,472.951 127.436,475.903 136.436,445.519 C 138.956,436.951 145.221,425.647 154.293,412.687 L 190.725,412.687 C 195.765,425.214 220.389,423.918 252.717,413.263 C 260.637,449.335 272.949,485.839 286.917,522.775 C 299.157,520.399 310.749,522.847 319.965,528.895 C 345.813,528.679 371.157,539.551 396.645,553.951 C 401.541,546.607 413.565,546.464 430.629,555.176 C 418.317,516.08 407.518,477.488 400.606,439.184 C 433.582,439.471 457.846,431.912 468.358,412.688 L 522.502,412.688 C 526.03,430.544 526.894,446.312 524.806,456.967 C 517.75,492.896 481.822,480.007 428.254,467.264 C 435.742,502.471 445.39,537.824 455.974,573.535 C 471.31,588.007 486.071,605.791 496.943,624.872 L 473.543,624.872 C 467.207,614.143 458.352,603.703 449.855,597.584 C 436.031,587.574 428.327,590.887 431.422,604.495 C 432.79,610.399 436.03,617.599 440.351,624.872 L 418.82,624.872 C 417.596,622.711 416.373,620.479 415.148,618.248 C 387.716,598.735 360.212,586.928 332.06,590.743 C 325.508,602.407 319.46,611.623 308.157,624.872 L 276.405,624.872 C 278.06,623.503 279.644,621.99 281.301,620.336 C 296.35,604.928 306.573,584.623 303.045,571.664 C 299.518,558.919 284.037,557.479 268.989,571.519 C 253.869,585.703 244.869,610.182 248.109,624.151 C 248.181,624.439 248.253,624.655 248.325,624.872 L 211.461,624.872 L 211.461,624.872 z"
   style="fill:#fe9929" />
						<path
   id="path3026"
   d="M 491.758,694.711 C 482.397,693.919 471.381,688.808 461.518,679.447 C 438.981,658.063 428.901,642.799 418.821,624.872 L 440.35,624.872 C 445.965,634.375 453.526,643.951 461.301,650.719 C 474.981,662.6 484.846,660.007 481.749,644.528 C 480.525,638.552 477.501,631.64 473.541,624.873 L 496.941,624.873 C 504.573,638.265 510.333,652.304 512.997,666.2 C 516.381,683.984 508.749,693.416 497.157,694.712 L 491.758,694.712 L 491.758,694.711 z"
   style="fill:#fe9929" />
						<path
   id="path3028"
   d="M 211.461,624.872 C 210.021,634.951 210.165,644.527 212.181,653.095 C 219.597,684.991 257.469,679.016 285.333,649.856 C 294.908,639.776 302.253,631.784 308.157,624.873 L 276.405,624.873 C 263.373,635.888 251.637,636.536 248.325,624.873 L 211.461,624.873 L 211.461,624.872 z"
   style="fill:#fe9929" />
					</g>
					<g
   id="g3030">
						<path
   id="path3032"
   d="M 455.973,573.535 C 482.11,598.158 506.589,632.646 512.997,666.199 C 519.333,699.678 486.861,703.423 461.518,679.447 C 436.246,655.47 426.669,639.199 415.149,618.248 C 387.717,598.735 360.213,586.928 332.061,590.743 C 322.053,608.526 313.27,620.623 285.333,649.855 C 257.469,679.015 219.597,684.991 212.181,653.094 C 204.765,621.271 222.477,574.903 255.957,541.998 C 244.725,510.462 234.357,479.214 226.509,448.398 C 169.845,472.95 127.436,475.902 136.436,445.518 C 145.365,415.206 201.525,350.045 262.509,299.286 C 256.389,280.062 250.773,274.015 262.941,243.99 C 275.181,213.822 303.981,164.574 328.461,157.806 C 352.941,151.037 366.549,170.549 372.093,190.782 C 392.037,202.302 412.557,205.759 433.365,199.423 C 442.653,176.742 455.325,149.095 479.301,137.862 C 503.35,126.702 533.805,170.982 529.557,206.046 C 525.238,240.966 496.078,255.366 468.07,258.175 C 464.542,268.255 461.086,278.191 457.485,288.198 C 505.438,327.438 531.79,420.966 524.805,456.966 C 517.749,492.895 481.821,480.006 428.253,467.263 C 435.741,502.471 445.389,537.823 455.973,573.535 z"
   style="fill:none;stroke:#3f486e;stroke-width:10.07999992" />
						<path
   id="path3034"
   d="M 445.316,261.199 C 432.716,261.631 424.581,256.519 421.989,247.088 C 398.012,251.551 374.325,246.512 351.14,235.424 C 338.972,244.279 323.564,251.84 308.228,257.455 C 298.004,274.808 287.564,292.016 277.773,309.008 C 234.068,339.32 196.701,377.551 190.581,401.383 C 184.533,425.287 212.685,426.44 252.717,413.264 C 260.637,449.336 272.949,485.84 286.917,522.776 C 299.157,520.4 310.749,522.848 319.965,528.896 C 345.813,528.68 371.157,539.552 396.645,553.952 C 401.541,546.608 413.565,546.465 430.629,555.177 C 418.317,516.081 407.518,477.489 400.606,439.185 C 440.782,439.545 467.998,428.241 473.253,398.361 C 478.581,368.48 459.501,330.609 423.717,315.849 C 430.846,297.775 438.261,279.416 445.316,261.199 z"
   style="fill:none;stroke:#3f486e;stroke-width:10.07999992" />
						<path
   id="path3036"
   d="M 324.501,190.063 C 312.261,193.735 298.869,210.584 293.325,224.046 C 287.781,237.511 292.82,241.902 305.781,237.007 C 318.741,232.111 334.581,220.878 339.476,208.567 C 344.373,196.256 336.741,186.463 324.501,190.063 z"
   style="fill:none;stroke:#3f486e;stroke-width:10.07999992" />
						<path
   id="path3038"
   d="M 449.854,597.584 C 436.03,587.574 428.326,590.887 431.421,604.495 C 434.661,618.103 447.549,638.767 461.301,650.719 C 474.981,662.6 484.846,660.007 481.749,644.528 C 478.509,628.976 463.677,607.591 449.854,597.584 z"
   style="fill:none;stroke:#3f486e;stroke-width:10.07999992" />
						<path
   id="path3040"
   d="M 268.989,571.52 C 253.869,585.704 244.869,610.183 248.109,624.152 C 251.493,638.048 266.181,635.816 281.301,620.337 C 296.35,604.929 306.573,584.624 303.045,571.665 C 299.518,558.919 284.037,557.479 268.989,571.52 z"
   style="fill:none;stroke:#3f486e;stroke-width:10.07999992" />
						<path
   id="path3042"
   d="M 481.029,168.896 C 468.933,174.44 457.989,192.44 455.037,206.192 C 452.085,219.872 458.709,225.848 471.381,222.104 C 484.053,218.432 497.733,206.192 500.11,190.64 C 502.413,175.159 493.053,163.279 481.029,168.896 z"
   style="fill:none;stroke:#3f486e;stroke-width:10.07999992" />
						<path
   id="path3044"
   d="M 342.285,344.574 C 363.885,349.903 376.484,360.775 372.885,376.399 C 369.213,391.951 350.709,403.04 329.182,396.199 C 307.581,389.504 290.301,370.783 294.045,356.455 C 297.934,342.199 320.757,339.319 342.285,344.574 z"
   style="fill:none;stroke:#3f486e;stroke-width:10.07999992" />
					</g>
				</g>
			</g>
		</g></svg>