<?xml version="1.0" encoding="UTF-8" standalone="no"?>
<!-- Generator: Adobe Illustrator 10, SVG Export Plug-In . SVG Version: 3.0.0 Build 76)  -->
<svg
   xmlns:dc="http://purl.org/dc/elements/1.1/"
   xmlns:cc="http://creativecommons.org/ns#"
   xmlns:rdf="http://www.w3.org/1999/02/22-rdf-syntax-ns#"
   xmlns:svg="http://www.w3.org/2000/svg"
   xmlns="http://www.w3.org/2000/svg"
   xmlns:sodipodi="http://sodipodi.sourceforge.net/DTD/sodipodi-0.dtd"
   xmlns:inkscape="http://www.inkscape.org/namespaces/inkscape"
   width="541.68579"
   height="539.76666"
   viewBox="0 0 548.426 616.261"
   style="overflow:visible"
   xml:space="preserve"
   id="svg3053"
   sodipodi:version="0.32"
   inkscape:version="0.46"
   sodipodi:docname="DentalisArrows.svg"
   inkscape:output_extension="org.inkscape.output.svg.inkscape"
   version="1.0"><metadata
   id="metadata3447"><rdf:RDF><cc:Work
       rdf:about=""><dc:format>image/svg+xml</dc:format><dc:type
         rdf:resource="http://purl.org/dc/dcmitype/StillImage" /></cc:Work></rdf:RDF></metadata><defs
   id="defs3445"><inkscape:perspective
   sodipodi:type="inkscape:persp3d"
   inkscape:vp_x="0 : 308.13049 : 1"
   inkscape:vp_y="0 : 1000 : 0"
   inkscape:vp_z="548.42603 : 308.13049 : 1"
   inkscape:persp3d-origin="274.21301 : 205.42033 : 1"
   id="perspective3449" />
		
		
	</defs><sodipodi:namedview
   inkscape:window-height="670"
   inkscape:window-width="640"
   inkscape:pageshadow="2"
   inkscape:pageopacity="0.0"
   guidetolerance="10.0"
   gridtolerance="10.0"
   objecttolerance="10.0"
   borderopacity="1.0"
   bordercolor="#666666"
   pagecolor="#ffffff"
   id="base"
   showgrid="false"
   inkscape:zoom="0.74968238"
   inkscape:cx="274.21301"
   inkscape:cy="308.13049"
   inkscape:window-x="70"
   inkscape:window-y="0"
   inkscape:current-layer="svg3053" />
	<style
   type="text/css"
   id="style3055">
	
		@font-face{font-family:'Times-Roman';src:url(8791E72.cef)}
	
	</style>
	
<g
   transform="matrix(1.1417174,0,0,1.1417174,-43.300117,6.7225332e-4)"
   style="overflow:visible"
   id="g3074">
			<g
   id="g3076">
				<g
   id="g3078">
					<path
   id="path3080"
   d="M 235.997,317.37 C 237.797,316.507 239.597,315.786 241.253,315.066 C 242.981,314.345 244.781,313.553 246.365,312.906 C 247.517,312.473 248.453,313.05 248.453,314.131 C 248.093,323.418 247.301,333.139 244.637,343.146 C 241.973,353.514 236.861,364.747 230.957,376.266 C 230.237,377.635 228.077,379.434 226.493,380.155 C 224.189,381.092 221.669,382.171 219.292,383.251 C 216.916,384.331 214.469,385.483 212.093,386.563 C 210.436,387.284 210.005,386.636 210.724,385.196 C 217.349,373.1 223.397,361.364 227.069,350.636 C 230.597,340.051 232.469,330.043 233.765,320.396 C 233.837,319.314 234.845,317.803 235.997,317.37 z"
   style="fill:#4d4d4d;stroke:#000000;stroke-width:7.99100018" />
					<path
   id="path3082"
   d="M 273.077,309.307 C 274.805,309.739 276.605,310.17 278.333,310.819 C 280.061,311.395 281.934,312.187 283.732,312.907 C 284.884,313.339 286.037,314.636 286.325,315.716 C 288.701,324.787 291.652,334.075 295.181,343.435 C 298.636,352.795 303.029,362.515 307.348,372.308 C 307.852,373.532 306.989,374.036 305.332,373.604 C 302.811,372.956 300.364,372.379 297.988,371.804 C 295.54,371.228 293.02,370.579 290.643,370.147 C 288.988,369.86 287.259,368.636 286.899,367.484 C 283.227,357.763 279.7,348.044 277.107,338.755 C 274.588,329.396 272.572,320.107 271.132,310.892 C 270.989,309.883 271.925,309.018 273.077,309.307 z"
   style="fill:#4d4d4d;stroke:#000000;stroke-width:7.99100018" />
					<path
   id="path3084"
   d="M 305.045,254.514 C 305.19,252.786 305.333,251.13 305.333,249.474 C 305.478,247.818 305.549,246.162 305.621,244.505 C 305.693,243.426 306.485,243.426 307.493,244.146 C 315.917,249.834 324.125,253.218 332.045,252.066 C 339.82,250.914 347.31,245.01 354.438,237.162 C 355.374,236.226 355.95,236.298 355.806,237.882 C 355.589,240.186 355.373,242.49 355.229,244.794 C 355.014,247.026 354.725,249.402 354.509,251.706 C 354.438,253.29 353.573,255.594 352.709,256.385 C 345.725,263.082 338.093,267.546 330.533,267.762 C 322.685,268.05 314.693,264.234 306.701,258.186 C 305.693,257.466 305.045,255.594 305.045,254.514 z"
   style="fill:#4d4d4d;stroke:#000000;stroke-width:7.99100018" />
					<path
   id="path3086"
   d="M 304.253,304.194 C 303.82,302.61 303.533,300.954 303.173,299.298 C 302.813,297.714 302.598,296.058 302.381,294.33 C 302.236,293.25 303.029,292.962 304.037,293.393 C 312.893,297.354 321.82,300.09 330.39,299.585 C 338.813,299.01 346.589,294.905 353.717,289.576 C 354.509,288.93 355.589,289.431 356.022,290.728 C 356.813,292.817 357.677,294.976 358.614,296.993 C 359.55,299.081 360.557,301.097 361.71,303.185 C 362.431,304.481 362.502,306.281 361.565,306.857 C 354.078,311.464 345.582,314.56 336.366,314.489 C 326.934,314.417 316.926,311.249 307.061,307.144 C 305.837,306.714 304.541,305.274 304.253,304.194 z"
   style="fill:#4d4d4d;stroke:#000000;stroke-width:7.99100018" />
					<path
   id="path3088"
   d="M 150.532,348.258 C 151.613,346.099 152.765,343.794 153.845,341.562 C 154.925,339.403 156.005,337.099 157.012,334.938 C 157.733,333.499 159.532,331.626 160.901,330.979 C 172.421,324.93 183.149,318.883 192.868,313.699 C 202.445,308.587 211.373,304.051 219.941,300.092 C 220.877,299.659 221.597,300.236 221.309,301.459 C 220.949,303.188 220.445,304.987 220.085,306.715 C 219.797,308.371 219.365,310.171 219.005,311.971 C 218.789,313.123 217.493,314.563 216.484,315.068 C 207.125,319.46 197.405,324.427 186.964,330.188 C 176.309,336.092 164.501,342.716 151.973,349.555 C 150.461,350.346 149.885,349.77 150.532,348.258 z"
   style="fill:#4d4d4d;stroke:#000000;stroke-width:7.99100018" />
					<path
   id="path3090"
   d="M 166.877,253.433 C 166.445,251.274 166.012,249.114 165.509,246.954 C 165.077,244.794 164.573,242.634 164.141,240.546 C 163.709,239.106 164.141,238.314 165.077,238.89 C 173.069,243.282 181.493,247.314 190.493,251.274 C 199.421,255.162 208.781,259.194 217.709,263.298 C 218.717,263.874 219.724,265.242 219.797,266.394 C 220.012,268.122 220.012,269.923 220.085,271.649 C 220.085,273.45 220.085,275.25 219.868,276.977 C 219.797,278.129 218.933,278.706 218.069,278.274 C 210.365,274.529 201.797,270.93 193.445,267.618 C 184.877,264.234 176.669,260.778 168.964,256.89 C 168.029,256.457 167.165,254.874 166.877,253.433 z"
   style="fill:#4d4d4d;stroke:#000000;stroke-width:7.99100018" />
					<path
   id="path3092"
   d="M 152.909,164.226 C 156.149,163.434 159.82,162.786 163.853,162.066 C 165.365,161.778 166.517,162.21 166.733,163.146 C 169.108,171.354 173.717,180.714 180.772,189.138 C 188.333,198.066 198.197,205.41 208.853,211.962 C 210.149,212.754 211.229,214.05 211.229,214.842 C 211.085,217.362 211.085,219.882 211.517,222.33 C 211.733,223.122 210.436,223.409 208.853,222.69 C 195.532,216.21 183.509,208.218 173.861,198.138 C 164.789,188.562 157.733,177.186 152.045,166.818 C 151.397,165.594 151.829,164.37 152.909,164.226 z"
   style="fill:#4d4d4d;stroke:#000000;stroke-width:7.99100018" />
					<path
   id="path3094"
   d="M 311.885,328.746 C 313.469,327.378 315.197,326.011 316.925,324.642 C 317.501,324.21 319.157,324.787 320.31,325.794 C 330.03,334.219 339.965,342.498 351.198,350.346 C 363.294,358.77 377.91,366.979 395.261,375.762 C 397.421,376.842 399.581,378.426 399.725,379.219 C 400.085,381.739 400.518,384.474 400.806,386.922 C 400.95,387.786 398.645,387.426 395.982,386.202 C 376.182,376.554 359.549,367.338 346.229,358.265 C 334.061,349.913 323.405,340.841 313.182,331.625 C 312.029,330.547 311.453,329.179 311.885,328.746 z"
   style="fill:#4d4d4d;stroke:#000000;stroke-width:7.99100018" />
					<path
   id="path3096"
   d="M 211.589,340.05 C 208.781,342.354 205.829,344.37 202.877,345.883 C 202.012,346.387 200.213,348.403 198.772,350.418 C 187.181,366.547 175.373,381.091 162.916,393.69 C 151.685,405.066 139.805,413.274 129.437,417.882 C 128.357,418.386 127.781,420.041 128.285,421.553 C 130.085,426.306 132.676,430.409 135.916,433.65 C 136.997,434.658 139.157,434.513 140.309,433.433 C 151.181,423.209 163.205,410.682 174.724,396.425 C 187.469,380.73 199.421,362.946 210.941,343.073 C 212.453,340.554 212.669,339.258 211.589,340.05 z"
   style="fill:#4d4d4d;stroke:#000000;stroke-width:7.99100018" />
					<path
   id="path3098"
   d="M 357.316,141.258 C 355.3,143.562 353.356,145.649 351.268,147.522 C 350.548,148.17 349.325,150.474 348.533,152.49 C 341.621,169.482 334.925,183.738 327.221,194.178 C 320.813,202.818 313.11,207.642 306.125,209.73 C 305.478,209.946 305.333,211.17 306.053,212.538 C 308.285,216.786 310.518,220.89 312.677,224.418 C 313.325,225.498 314.694,226.146 315.341,225.498 C 322.253,219.378 329.741,210.45 336.077,198.426 C 343.637,184.098 350.261,165.954 357.173,144.714 C 358.037,141.906 358.037,140.394 357.316,141.258 z"
   style="fill:#4d4d4d;stroke:#000000;stroke-width:7.99100018" />
					<path
   id="path3100"
   d="M 277.253,144.714 C 280.997,146.586 284.813,148.89 288.701,150.906 C 289.925,151.553 290.933,153.066 290.933,154.146 C 290.716,172.721 290.788,191.226 290.861,209.73 C 290.861,210.882 289.924,211.314 288.845,210.666 C 285.46,208.721 282.148,206.706 278.765,204.978 C 277.756,204.474 276.675,203.178 276.675,202.026 C 275.884,183.378 275.164,164.586 274.948,145.794 C 274.949,144.714 276.029,144.138 277.253,144.714 z"
   style="fill:#4d4d4d;stroke:#000000;stroke-width:7.99100018" />
					<path
   id="path3102"
   d="M 225.989,156.378 C 229.517,155.802 233.189,155.082 236.717,154.218 C 237.941,154.002 238.949,154.649 239.021,155.658 C 240.461,174.018 242.837,192.306 245.429,210.594 C 245.501,211.673 244.781,212.898 243.845,213.258 C 240.676,214.338 237.509,215.346 234.413,216.282 C 233.405,216.498 232.253,215.85 232.037,214.77 C 228.868,196.194 225.772,177.474 223.757,158.754 C 223.685,157.673 224.693,156.522 225.989,156.378 z"
   style="fill:#4d4d4d;stroke:#000000;stroke-width:7.99100018" />
				</g>
				<g
   id="g3104">
					<g
   id="g3106">
						<path
   id="path3108"
   d="M 204.388,260.562 C 202.733,251.85 199.853,243.138 197.261,234.498 C 192.58,218.874 186.893,202.962 182.429,186.906 C 180.197,178.697 184.229,173.082 190.853,175.745 C 202.589,180.426 214.397,185.466 226.06,187.986 C 237.221,190.434 248.237,190.218 259.253,188.562 C 269.765,186.978 280.35,190.866 291.941,194.322 C 303.172,197.778 315.052,196.77 325.924,192.738 C 332.332,190.29 334.348,193.026 332.403,200.226 C 328.588,213.618 325.347,226.577 322.9,239.25 C 321.532,246.378 320.452,253.505 319.443,260.562 L 312.1,260.562 C 312.747,255.09 313.467,249.618 314.331,244.218 C 315.987,233.922 318.219,223.481 320.81,212.898 C 322.179,207.426 319.586,204.546 314.115,204.978 C 305.691,205.553 296.978,203.826 288.482,200.442 C 279.914,197.058 271.779,194.61 263.858,195.834 C 263.498,203.466 263.354,211.098 263.57,218.658 C 263.786,226.218 264.289,233.778 264.65,241.266 C 269.834,242.922 274.298,249.474 272.93,259.194 C 272.858,259.625 272.786,260.13 272.714,260.562 L 265.874,260.562 C 266.018,259.986 266.162,259.481 266.234,258.906 C 266.81,254.298 264.218,251.058 261.337,252.138 C 258.89,253.074 257.018,256.673 255.938,260.562 L 249.746,260.562 C 251.186,253.721 252.986,248.682 256.37,245.01 C 255.721,237.234 254.93,229.529 254.282,221.754 C 253.634,214.05 253.346,206.13 253.202,198.21 C 245.066,199.002 236.642,199.074 228.146,197.778 C 219.433,196.41 210.65,193.673 201.794,191.154 C 196.178,189.642 192.938,193.818 194.81,200.586 C 198.481,213.834 202.874,226.938 206.474,240.042 C 208.346,246.81 210.29,253.649 211.514,260.562 L 204.388,260.562 L 204.388,260.562 z"
   style="fill:#4d4d4d" />
						<path
   id="path3110"
   d="M 205.037,282.738 C 205.181,282.162 205.253,281.514 205.325,280.938 C 206.189,274.169 205.685,267.33 204.388,260.562 L 211.517,260.562 C 212.669,266.682 213.101,272.874 212.381,279.066 C 212.237,280.29 212.021,281.514 211.805,282.738 L 205.037,282.738 L 205.037,282.738 z"
   style="fill:#4d4d4d" />
						<path
   id="path3112"
   d="M 309.652,282.738 C 309.869,280.217 310.157,277.625 310.444,275.106 C 311.021,270.282 311.525,265.385 312.101,260.562 L 319.444,260.562 C 318.724,265.818 318.077,271.002 317.501,276.187 C 317.213,278.347 317.068,280.578 316.925,282.739 L 309.652,282.739 L 309.652,282.738 z"
   style="fill:#4d4d4d" />
						<path
   id="path3114"
   d="M 249.749,260.562 C 249.317,262.505 248.957,264.594 248.525,266.898 C 246.724,276.978 248.741,282.954 256.085,279.931 C 262.997,276.978 270.845,269.634 272.717,260.562 L 265.877,260.562 C 264.724,264.45 261.484,267.834 258.82,268.914 C 255.868,270.138 254.645,267.762 255.436,263.01 C 255.58,262.218 255.724,261.354 255.941,260.562 L 249.749,260.562 z"
   style="fill:#4d4d4d" />
						<path
   id="path3116"
   d="M 186.388,327.738 C 194.525,312.402 202.661,297.498 205.037,282.738 L 211.805,282.738 C 209.357,295.339 202.589,308.082 196.397,321.33 C 195.388,323.49 194.381,325.578 193.373,327.738 L 186.388,327.738 z"
   style="fill:#4d4d4d" />
						<path
   id="path3118"
   d="M 236.357,327.738 C 242.621,322.769 248.741,318.521 255.149,315.858 C 264.653,311.826 275.669,315.066 286.973,321.186 C 290.789,323.274 294.677,325.506 298.637,327.738 L 286.397,327.738 C 275.958,322.842 266.022,320.105 257.166,323.49 C 254.214,324.57 251.262,326.011 248.31,327.738 L 236.357,327.738 z"
   style="fill:#4d4d4d" />
						<path
   id="path3120"
   d="M 323.981,327.738 C 319.085,320.682 314.909,313.626 312.101,306.21 C 309.148,298.65 309.004,290.658 309.652,282.738 L 316.924,282.738 C 316.42,292.889 317.86,303.114 322.972,312.618 C 325.781,317.73 329.092,322.769 332.909,327.738 L 323.981,327.738 z"
   style="fill:#4d4d4d" />
						<path
   id="path3122"
   d="M 186.388,327.738 C 185.669,328.962 185.021,330.258 184.373,331.482 C 174.941,349.41 163.637,367.986 153.628,386.49 C 148.517,395.994 154.277,400.386 164.285,393.547 C 182.429,381.091 199.421,366.906 215.189,353.803 C 226.781,344.082 237.436,334.074 248.309,327.739 L 236.357,327.739 C 231.605,331.483 226.709,335.659 221.669,339.762 C 209.285,349.987 195.964,361.219 181.781,371.37 C 173.789,377.202 169.469,374.682 173.501,366.762 C 180.197,353.658 187.181,340.483 193.373,327.739 L 186.388,327.739 L 186.388,327.738 z"
   style="fill:#4d4d4d" />
						<path
   id="path3124"
   d="M 286.396,327.738 C 289.924,329.322 293.453,331.194 297.052,333.138 C 312.172,341.274 328.732,349.841 345.22,355.89 C 354.724,359.345 356.164,354.882 350.404,348.546 C 344.14,341.561 338.092,334.722 332.909,327.737 L 323.981,327.737 C 326.068,330.76 328.228,333.857 330.533,336.882 C 334.493,342.138 332.261,344.945 324.772,341.561 C 315.772,337.53 307.06,332.561 298.636,327.738 L 286.396,327.738 L 286.396,327.738 z"
   style="fill:#4d4d4d" />
					</g>
					<g
   id="g3126">
						<path
   id="path3128"
   d="M 264.653,241.266 C 269.837,242.922 274.301,249.474 272.933,259.194 C 271.637,268.914 263.357,276.834 256.085,279.93 C 248.741,282.953 246.724,276.977 248.525,266.897 C 250.325,256.817 251.981,249.761 256.373,245.009 C 255.724,237.233 254.933,229.528 254.285,221.753 C 253.637,214.049 253.349,206.129 253.205,198.209 C 245.069,199.001 236.645,199.073 228.149,197.777 C 219.436,196.409 210.653,193.672 201.797,191.153 C 196.181,189.641 192.941,193.817 194.813,200.585 C 198.484,213.833 202.877,226.937 206.477,240.041 C 210.005,252.929 213.964,265.961 212.381,279.065 C 210.653,292.888 203.165,306.785 196.397,321.329 C 189.557,336.09 181.349,351.425 173.501,366.761 C 169.469,374.682 173.789,377.201 181.781,371.369 C 195.964,361.218 209.285,349.985 221.669,339.761 C 233.405,330.186 243.916,320.537 255.149,315.858 C 264.653,311.826 275.669,315.066 286.973,321.186 C 298.925,327.738 311.598,335.658 324.773,341.561 C 332.261,344.946 334.494,342.138 330.534,336.882 C 322.973,326.73 316.134,316.793 312.102,306.209 C 308.213,296.201 309.221,285.545 310.445,275.105 C 311.67,264.737 312.677,254.369 314.334,244.217 C 315.99,233.921 318.222,223.48 320.813,212.897 C 322.182,207.425 319.589,204.545 314.118,204.977 C 305.694,205.552 296.981,203.825 288.485,200.441 C 279.917,197.057 271.782,194.609 263.861,195.833 C 263.501,203.465 263.357,211.097 263.573,218.657 C 263.789,226.218 264.292,233.778 264.653,241.266 z"
   style="fill:none;stroke:#000000;stroke-width:7.99100018" />
						<path
   id="path3130"
   d="M 190.853,175.745 C 202.589,180.426 214.397,185.466 226.06,187.986 C 237.221,190.434 248.237,190.218 259.253,188.562 C 269.765,186.978 280.35,190.866 291.941,194.322 C 303.172,197.778 315.052,196.77 325.924,192.738 C 332.332,190.29 334.348,193.026 332.403,200.226 C 328.588,213.618 325.347,226.577 322.9,239.25 C 320.524,251.634 318.939,263.946 317.5,276.187 C 315.988,288.427 316.78,301.027 322.972,312.619 C 329.668,324.859 339.605,336.596 350.404,348.548 C 356.165,354.884 354.724,359.347 345.22,355.892 C 328.732,349.843 312.172,341.276 297.052,333.14 C 282.652,325.364 268.972,319.028 257.164,323.492 C 242.98,328.748 229.876,341.492 215.188,353.804 C 199.42,366.908 182.428,381.092 164.284,393.548 C 154.276,400.388 148.516,395.995 153.627,386.491 C 163.636,367.987 174.94,349.411 184.372,331.483 C 193.516,314.203 203.164,297.499 205.324,280.939 C 207.339,265.458 201.867,249.907 197.26,234.499 C 192.579,218.875 186.892,202.963 182.428,186.907 C 180.197,178.697 184.229,173.082 190.853,175.745 z"
   style="fill:none;stroke:#000000;stroke-width:7.99100018" />
						<path
   id="path3132"
   d="M 261.34,252.138 C 258.388,253.29 256.229,258.258 255.436,263.01 C 254.645,267.762 255.868,270.137 258.82,268.914 C 261.845,267.69 265.589,263.514 266.237,258.906 C 266.813,254.298 264.221,251.058 261.34,252.138 z"
   style="fill:none;stroke:#000000;stroke-width:7.99100018" />
					</g>
				</g>
			</g>
			<g
   id="g3134">
				<g
   id="g3136">
					<path
   id="path3138"
   d="M 241.325,310.818 C 243.125,310.026 244.925,309.306 246.58,308.586 C 248.309,307.866 250.108,307.074 251.693,306.355 C 252.845,305.995 253.781,306.499 253.781,307.579 C 253.421,316.938 252.628,326.587 249.964,336.667 C 247.301,347.035 242.189,358.267 236.285,369.787 C 235.565,371.155 233.405,372.955 231.82,373.603 C 229.517,374.611 226.997,375.691 224.621,376.77 C 222.317,377.779 219.797,379.002 217.421,380.082 C 215.765,380.73 215.333,380.082 216.053,378.715 C 222.676,366.618 228.724,354.883 232.397,344.082 C 235.925,333.498 237.797,323.49 239.093,313.842 C 239.165,312.762 240.244,311.322 241.325,310.818 z"
   style="fill:#a3bdc3;stroke:#677270;stroke-width:7.99100018" />
					<path
   id="path3140"
   d="M 278.404,302.755 C 280.205,303.187 281.933,303.691 283.661,304.267 C 285.389,304.914 287.261,305.706 289.06,306.355 C 290.212,306.859 291.365,308.155 291.652,309.235 C 294.029,318.307 296.98,327.522 300.508,336.955 C 303.964,346.315 308.356,355.963 312.676,365.827 C 313.181,366.979 312.316,367.555 310.66,367.123 C 308.139,366.475 305.692,365.899 303.315,365.323 C 300.868,364.747 298.348,364.099 295.971,363.595 C 294.387,363.307 292.587,362.155 292.227,360.93 C 288.555,351.283 285.028,341.562 282.434,332.202 C 279.914,322.914 277.899,313.626 276.459,304.41 C 276.317,303.402 277.253,302.538 278.404,302.755 z"
   style="fill:#a3bdc3;stroke:#677270;stroke-width:7.99100018" />
					<path
   id="path3142"
   d="M 310.373,247.962 C 310.518,246.306 310.661,244.577 310.661,242.994 C 310.806,241.338 310.877,239.682 310.949,238.026 C 311.021,236.946 311.812,236.874 312.82,237.666 C 321.245,243.282 329.453,246.738 337.373,245.514 C 345.148,244.362 352.637,238.529 359.765,230.682 C 360.702,229.745 361.278,229.745 361.133,231.402 C 360.917,233.634 360.701,236.01 360.557,238.314 C 360.341,240.546 360.053,242.922 359.91,245.226 C 359.765,246.738 358.973,249.114 358.038,249.906 C 351.054,256.529 343.422,261.066 335.861,261.282 C 328.086,261.57 320.022,257.682 312.03,251.706 C 311.021,250.914 310.373,249.042 310.373,247.962 z"
   style="fill:#a3bdc3;stroke:#677270;stroke-width:7.99100018" />
					<path
   id="path3144"
   d="M 309.581,297.714 C 309.221,296.058 308.86,294.474 308.501,292.818 C 308.141,291.234 307.925,289.505 307.709,287.85 C 307.564,286.77 308.356,286.481 309.365,286.913 C 318.22,290.873 327.148,293.537 335.717,293.033 C 344.141,292.456 351.917,288.426 359.045,283.097 C 359.909,282.449 360.917,282.952 361.349,284.248 C 362.141,286.335 363.005,288.496 363.941,290.44 C 364.878,292.598 365.885,294.616 367.038,296.631 C 367.758,297.999 367.83,299.799 366.894,300.375 C 359.405,304.911 350.91,308.008 341.694,308.008 C 332.261,307.936 322.254,304.768 312.39,300.663 C 311.165,300.234 309.869,298.794 309.581,297.714 z"
   style="fill:#a3bdc3;stroke:#677270;stroke-width:7.99100018" />
					<path
   id="path3146"
   d="M 155.861,341.778 C 156.941,339.547 158.093,337.314 159.173,335.082 C 160.253,332.85 161.333,330.618 162.413,328.458 C 163.06,326.946 164.861,325.146 166.229,324.426 C 177.749,318.378 188.477,312.403 198.197,307.146 C 207.772,302.107 216.701,297.571 225.269,293.611 C 226.205,293.107 226.925,293.756 226.637,294.907 C 226.277,296.635 225.772,298.508 225.413,300.235 C 225.125,301.89 224.693,303.691 224.333,305.419 C 224.117,306.643 222.82,308.012 221.813,308.516 C 212.453,312.908 202.805,317.948 192.293,323.707 C 181.637,329.539 169.829,336.235 157.301,343.075 C 155.861,343.866 155.213,343.29 155.861,341.778 z"
   style="fill:#a3bdc3;stroke:#677270;stroke-width:7.99100018" />
					<path
   id="path3148"
   d="M 172.205,246.954 C 171.772,244.794 171.341,242.634 170.837,240.474 C 170.405,238.314 169.901,236.154 169.469,234.066 C 169.108,232.553 169.469,231.834 170.405,232.338 C 178.397,236.802 186.82,240.834 195.82,244.794 C 204.749,248.61 214.108,252.714 223.037,256.818 C 224.045,257.322 225.053,258.762 225.125,259.914 C 225.34,261.57 225.34,263.442 225.413,265.17 C 225.413,266.898 225.413,268.697 225.269,270.427 C 225.125,271.65 224.333,272.226 223.397,271.794 C 215.693,268.05 207.125,264.45 198.772,261.066 C 190.205,257.682 181.997,254.298 174.293,250.409 C 173.357,249.978 172.493,248.322 172.205,246.954 z"
   style="fill:#a3bdc3;stroke:#677270;stroke-width:7.99100018" />
					<path
   id="path3150"
   d="M 158.237,157.673 C 161.477,156.954 165.221,156.234 169.181,155.586 C 170.693,155.298 171.845,155.73 172.06,156.666 C 174.436,164.874 179.045,174.234 186.101,182.586 C 193.661,191.514 203.525,198.858 214.181,205.481 C 215.477,206.274 216.557,207.57 216.557,208.362 C 216.413,210.81 216.413,213.402 216.845,215.85 C 217.06,216.642 215.765,216.93 214.181,216.138 C 200.861,209.73 188.837,201.738 179.261,191.658 C 170.117,182.01 163.06,170.634 157.373,160.266 C 156.797,159.114 157.157,157.89 158.237,157.673 z"
   style="fill:#a3bdc3;stroke:#677270;stroke-width:7.99100018" />
					<path
   id="path3152"
   d="M 317.213,322.266 C 318.797,320.827 320.525,319.531 322.325,318.162 C 322.829,317.73 324.485,318.307 325.637,319.242 C 335.43,327.666 345.293,336.017 356.526,343.794 C 368.622,352.29 383.237,360.498 400.589,369.21 C 402.749,370.29 404.909,371.874 405.053,372.738 C 405.413,375.258 405.846,377.922 406.133,380.442 C 406.278,381.234 403.973,380.946 401.31,379.65 C 381.509,370.002 364.877,360.858 351.557,351.714 C 339.39,343.433 328.733,334.289 318.581,325.145 C 317.356,324.066 316.781,322.698 317.213,322.266 z"
   style="fill:#a3bdc3;stroke:#677270;stroke-width:7.99100018" />
					<path
   id="path3154"
   d="M 216.916,333.57 C 214.108,335.874 211.157,337.818 208.277,339.402 C 207.34,339.834 205.541,341.922 204.101,343.937 C 192.509,359.994 180.701,374.61 168.245,387.209 C 157.012,398.513 145.133,406.793 134.765,411.401 C 133.685,411.905 133.108,413.56 133.613,415.073 C 135.413,419.753 138.077,423.928 141.245,427.097 C 142.325,428.177 144.484,428.033 145.637,426.952 C 156.509,416.728 168.532,404.129 180.053,389.944 C 192.797,374.248 204.749,356.464 216.269,336.592 C 217.781,334.074 217.997,332.778 216.916,333.57 z"
   style="fill:#a3bdc3;stroke:#677270;stroke-width:7.99100018" />
					<path
   id="path3156"
   d="M 362.645,134.706 C 360.629,137.082 358.686,139.17 356.598,141.042 C 355.877,141.69 354.653,143.922 353.861,146.01 C 346.95,163.002 340.254,177.186 332.549,187.625 C 326.141,196.338 318.438,201.162 311.453,203.25 C 310.806,203.394 310.661,204.69 311.381,206.058 C 313.613,210.306 315.917,214.41 318.005,217.866 C 318.725,218.946 320.022,219.594 320.669,219.018 C 327.581,212.898 335.068,203.97 341.404,191.946 C 348.965,177.618 355.589,159.474 362.501,138.162 C 363.365,135.426 363.365,133.914 362.645,134.706 z"
   style="fill:#a3bdc3;stroke:#677270;stroke-width:7.99100018" />
					<path
   id="path3158"
   d="M 282.58,138.234 C 286.325,140.034 290.141,142.338 294.029,144.426 C 295.253,145.074 296.26,146.586 296.26,147.666 C 296.116,166.242 296.116,184.745 296.189,203.25 C 296.189,204.33 295.325,204.762 294.245,204.186 C 290.789,202.242 287.476,200.226 284.093,198.498 C 283.085,197.922 282.077,196.625 282.077,195.546 C 281.213,176.826 280.493,158.106 280.277,139.314 C 280.277,138.234 281.357,137.658 282.58,138.234 z"
   style="fill:#a3bdc3;stroke:#677270;stroke-width:7.99100018" />
					<path
   id="path3160"
   d="M 231.317,149.826 C 234.845,149.322 238.517,148.601 242.117,147.738 C 243.269,147.522 244.277,148.098 244.349,149.178 C 245.861,167.538 248.165,185.826 250.757,204.114 C 250.829,205.194 250.108,206.418 249.173,206.778 C 246.005,207.858 242.837,208.866 239.741,209.73 C 238.733,210.018 237.58,209.37 237.436,208.218 C 234.197,189.714 231.101,170.994 229.085,152.202 C 229.012,151.122 230.021,150.042 231.317,149.826 z"
   style="fill:#a3bdc3;stroke:#677270;stroke-width:7.99100018" />
				</g>
				<g
   id="g3162">
					<g
   id="g3164">
						<path
   id="path3166"
   d="M 209.717,254.082 C 208.06,245.37 205.181,236.658 202.661,228.018 C 197.981,212.394 192.221,196.481 187.829,180.426 C 185.525,172.218 189.557,166.529 196.253,169.194 C 207.916,173.946 219.724,178.986 231.388,181.505 C 242.549,183.882 253.565,183.738 264.58,182.082 C 275.093,180.498 285.676,184.314 297.269,187.842 C 308.5,191.226 320.453,190.218 331.252,186.186 C 337.66,183.738 339.676,186.546 337.731,193.673 C 333.916,207.066 330.675,220.098 328.227,232.697 C 326.859,239.898 325.78,247.026 324.771,254.082 L 317.428,254.082 C 318.075,248.538 318.795,243.066 319.659,237.666 C 321.388,227.442 323.547,216.93 326.138,206.346 C 327.506,200.874 324.914,198.066 319.442,198.498 C 311.09,199.074 302.306,197.274 293.81,193.962 C 285.242,190.577 277.105,188.058 269.186,189.282 C 268.826,196.986 268.682,204.618 268.898,212.106 C 269.114,219.738 269.618,227.226 270.05,234.786 C 275.162,236.442 279.625,242.994 278.33,252.714 C 278.258,253.146 278.186,253.649 278.114,254.082 L 271.202,254.082 C 271.346,253.505 271.49,253.002 271.562,252.426 C 272.138,247.818 269.546,244.505 266.666,245.658 C 264.218,246.522 262.346,250.194 261.337,254.082 L 255.074,254.082 C 256.514,247.242 258.314,242.202 261.698,238.457 C 261.05,230.754 260.258,222.978 259.61,215.274 C 258.961,207.57 258.673,199.649 258.529,191.73 C 250.394,192.45 241.97,192.594 233.546,191.226 C 224.762,189.93 215.978,187.122 207.122,184.673 C 201.506,183.09 198.266,187.338 200.138,194.106 C 203.81,207.354 208.274,220.457 211.802,233.49 C 213.673,240.33 215.618,247.17 216.842,254.082 L 209.717,254.082 L 209.717,254.082 z"
   style="fill:#ca7b41" />
						<path
   id="path3168"
   d="M 210.365,276.187 C 210.509,275.611 210.58,274.962 210.653,274.386 C 211.517,267.618 211.012,260.85 209.717,254.082 L 216.845,254.082 C 217.997,260.202 218.429,266.394 217.709,272.515 C 217.565,273.739 217.349,274.962 217.133,276.187 L 210.365,276.187 L 210.365,276.187 z"
   style="fill:#ca7b41" />
						<path
   id="path3170"
   d="M 314.981,276.187 C 315.197,273.666 315.485,271.075 315.772,268.554 C 316.348,263.731 316.852,258.907 317.429,254.083 L 324.772,254.083 C 324.052,259.267 323.404,264.451 322.829,269.635 C 322.541,271.795 322.397,274.028 322.253,276.188 L 314.981,276.188 L 314.981,276.187 z"
   style="fill:#ca7b41" />
						<path
   id="path3172"
   d="M 255.077,254.082 C 254.645,256.026 254.285,258.114 253.853,260.418 C 252.053,270.498 254.141,276.402 261.413,273.378 C 268.325,270.427 276.173,263.082 278.117,254.082 L 271.205,254.082 C 270.053,257.97 266.813,261.354 264.149,262.361 C 261.197,263.658 259.973,261.21 260.837,256.529 C 260.981,255.738 261.125,254.874 261.34,254.082 L 255.077,254.082 L 255.077,254.082 z"
   style="fill:#ca7b41" />
						<path
   id="path3174"
   d="M 188.261,327.738 C 188.765,326.802 189.197,325.937 189.701,325.002 C 198.484,308.37 207.772,292.242 210.365,276.187 L 217.133,276.187 C 214.685,288.787 207.916,301.603 201.724,314.779 C 199.781,319.027 197.693,323.346 195.532,327.739 L 188.261,327.739 L 188.261,327.738 z"
   style="fill:#ca7b41" />
						<path
   id="path3176"
   d="M 233.693,327.738 C 242.837,320.105 251.405,313.05 260.477,309.306 C 270.053,305.274 280.997,308.514 292.301,314.705 C 299.789,318.737 307.493,323.345 315.486,327.737 L 304.398,327.737 C 303.677,327.377 303.03,327.016 302.381,326.657 C 287.981,318.809 274.301,312.546 262.493,316.936 C 256.157,319.313 250.108,323.129 243.989,327.737 L 233.693,327.737 L 233.693,327.738 z"
   style="fill:#ca7b41" />
						<path
   id="path3178"
   d="M 333.917,327.738 C 327.148,318.45 321.173,309.306 317.43,299.729 C 314.478,292.169 314.333,284.178 314.982,276.186 L 322.253,276.186 C 321.82,286.336 323.19,296.561 328.301,306.137 C 332.333,313.482 337.518,320.61 343.278,327.738 L 333.917,327.738 z"
   style="fill:#ca7b41" />
						<path
   id="path3180"
   d="M 188.261,327.738 C 179.117,344.802 168.461,362.37 158.957,379.937 C 153.845,389.442 159.605,393.906 169.613,386.994 C 187.757,374.61 204.749,360.426 220.517,347.322 C 228.653,340.482 236.357,333.498 243.989,327.738 L 233.693,327.738 C 231.461,329.538 229.229,331.41 226.997,333.282 C 214.613,343.433 201.293,354.666 187.108,364.818 C 179.117,370.722 174.797,368.202 178.829,360.282 C 184.445,349.338 190.205,338.466 195.532,327.738 L 188.261,327.738 z"
   style="fill:#ca7b41" />
						<path
   id="path3182"
   d="M 304.397,327.738 C 318.94,335.513 334.781,343.65 350.548,349.41 C 360.052,352.866 361.492,348.402 355.732,342.066 C 351.413,337.242 347.236,332.49 343.277,327.738 L 333.917,327.738 C 334.564,328.602 335.213,329.466 335.86,330.33 C 339.82,335.658 337.589,338.466 330.101,335.082 C 325.132,332.85 320.309,330.33 315.485,327.738 L 304.397,327.738 L 304.397,327.738 z"
   style="fill:#ca7b41" />
					</g>
					<g
   id="g3184">
						<path
   id="path3186"
   d="M 270.053,234.786 C 275.165,236.442 279.628,242.994 278.333,252.714 C 276.964,262.361 268.685,270.282 261.413,273.378 C 254.141,276.402 252.053,270.498 253.853,260.418 C 255.653,250.338 257.309,243.282 261.701,238.457 C 261.053,230.754 260.261,222.978 259.613,215.274 C 258.964,207.57 258.676,199.649 258.532,191.73 C 250.397,192.45 241.973,192.594 233.549,191.226 C 224.765,189.93 215.981,187.122 207.125,184.673 C 201.509,183.09 198.269,187.338 200.141,194.106 C 203.813,207.354 208.277,220.457 211.805,233.49 C 215.333,246.45 219.292,259.481 217.709,272.514 C 215.981,286.336 208.493,300.305 201.724,314.778 C 194.885,329.61 186.676,344.946 178.829,360.282 C 174.797,368.202 179.117,370.722 187.108,364.818 C 201.293,354.666 214.613,343.433 226.997,333.282 C 238.733,323.635 249.244,313.986 260.477,309.306 C 270.053,305.274 280.997,308.514 292.301,314.705 C 304.253,321.185 316.925,329.104 330.102,335.081 C 337.589,338.465 339.821,335.657 335.861,330.329 C 328.301,320.178 321.534,310.241 317.43,299.728 C 313.541,289.72 314.549,278.993 315.773,268.552 C 316.998,258.257 318.005,247.817 319.662,237.665 C 321.391,227.441 323.55,216.929 326.141,206.345 C 327.509,200.873 324.917,198.065 319.445,198.497 C 311.093,199.073 302.309,197.273 293.813,193.961 C 285.245,190.576 277.108,188.057 269.189,189.281 C 268.829,196.985 268.685,204.617 268.901,212.105 C 269.117,219.738 269.621,227.226 270.053,234.786 z"
   style="fill:none;stroke:#705d3c;stroke-width:7.99100018" />
						<path
   id="path3188"
   d="M 196.253,169.194 C 207.916,173.946 219.724,178.986 231.388,181.505 C 242.549,183.882 253.565,183.738 264.58,182.082 C 275.093,180.498 285.676,184.314 297.269,187.842 C 308.5,191.226 320.453,190.218 331.252,186.186 C 337.66,183.738 339.676,186.546 337.731,193.673 C 333.916,207.066 330.675,220.098 328.227,232.697 C 325.851,245.154 324.267,257.466 322.828,269.634 C 321.389,281.946 322.108,294.546 328.3,306.138 C 334.996,318.378 344.933,330.042 355.732,342.067 C 361.493,348.403 360.052,352.867 350.548,349.411 C 334.06,343.363 317.5,334.795 302.38,326.659 C 287.98,318.811 274.3,312.548 262.492,316.938 C 248.308,322.266 235.204,335.011 220.516,347.323 C 204.748,360.427 187.756,374.611 169.612,386.995 C 159.604,393.907 153.844,389.443 158.956,379.938 C 168.963,361.434 180.268,342.93 189.7,325.002 C 198.844,307.722 208.492,291.019 210.652,274.386 C 212.668,258.907 207.196,243.427 202.66,228.018 C 197.98,212.394 192.22,196.481 187.828,180.426 C 185.525,172.218 189.557,166.529 196.253,169.194 z"
   style="fill:none;stroke:#705d3c;stroke-width:7.99100018" />
						<path
   id="path3190"
   d="M 266.669,245.658 C 263.717,246.738 261.628,251.778 260.837,256.529 C 259.973,261.21 261.197,263.658 264.149,262.361 C 267.173,261.21 270.916,257.034 271.565,252.426 C 272.141,247.818 269.549,244.505 266.669,245.658 z"
   style="fill:none;stroke:#705d3c;stroke-width:7.99100018" />
					</g>
				</g>
			</g>
			<g
   id="g3192">
				<g
   id="g3194">
					<g
   id="g3196">
						<path
   id="path3198"
   d="M 136.565,95.178 C 136.637,95.034 136.637,94.89 136.709,94.745 C 137.645,91.578 138.437,88.554 139.373,85.242 C 136.133,80.778 131.453,77.178 124.973,74.514 C 127.133,72.714 129.365,70.842 131.669,69.042 C 127.205,64.65 123.173,59.682 118.205,55.722 C 112.661,51.258 106.108,47.802 101.357,43.194 C 105.029,40.458 108.916,37.722 112.661,34.986 C 117.053,39.81 123.029,43.698 127.493,48.594 C 131.525,53.274 134.549,58.602 138.437,63.426 C 140.813,61.554 143.045,59.61 145.349,57.666 C 145.925,65.01 145.565,72.642 143.837,80.994 C 145.205,82.794 146.645,84.522 148.229,86.322 C 149.885,88.194 151.829,89.994 153.701,91.794 C 161.189,88.842 169.108,85.962 177.749,84.594 C 176.237,86.97 174.58,89.49 173.069,92.442 C 180.701,93.81 188.261,95.178 194.093,91.938 C 200.357,88.482 204.245,80.346 207.484,68.898 C 207.34,76.242 206.909,82.578 206.549,88.41 C 205.181,90.858 203.741,93.162 202.157,95.178 L 149.813,95.178 C 150.101,95.034 150.317,94.89 150.605,94.745 C 148.445,92.298 145.709,90.138 143.549,87.618 C 142.757,90.21 141.893,92.73 141.029,95.178 L 136.565,95.178 L 136.565,95.178 z"
   style="fill:#170c42" />
						<path
   id="path3200"
   d="M 136.565,95.178 C 135.269,99.21 133.973,103.314 132.676,107.274 C 126.916,113.322 120.797,119.154 114.389,124.986 C 116.477,125.994 118.565,126.93 120.868,127.938 C 113.597,141.402 107.045,152.13 96.82,152.778 C 104.813,157.818 110.069,159.402 115.037,160.266 C 118.637,153.714 122.957,143.13 128.717,130.026 C 131.381,130.53 134.189,131.25 137.213,131.61 C 136.565,124.266 136.709,116.346 137.501,108.21 C 139.661,106.626 141.964,105.114 144.197,103.458 C 146.429,102.018 148.589,100.434 150.749,98.85 C 154.925,103.673 159.749,108.138 165.293,112.026 C 166.517,108.858 167.813,105.474 169.108,102.306 C 176.309,102.522 183.941,104.178 191.213,102.882 C 195.461,102.09 199.06,99.21 202.157,95.178 L 149.813,95.178 C 145.853,97.554 142.181,100.506 138.365,102.738 C 139.229,100.362 140.165,97.842 141.029,95.178 L 136.565,95.178 z"
   style="fill:#170c42" />
					</g>
					<g
   id="g3202">
						<path
   id="path3204"
   d="M 143.549,87.618 C 145.709,90.138 148.445,92.298 150.605,94.745 C 146.357,97.194 142.469,100.362 138.365,102.738 C 140.021,98.202 141.893,93.018 143.549,87.618 z"
   style="fill:none;stroke:#000000;stroke-width:7.99100018" />
						<path
   id="path3206"
   d="M 132.676,107.274 C 126.916,113.322 120.797,119.154 114.389,124.986 C 116.477,125.994 118.565,126.93 120.868,127.938 C 113.597,141.402 107.045,152.13 96.82,152.778 C 104.813,157.818 110.069,159.402 115.037,160.266 C 118.637,153.714 122.957,143.13 128.717,130.026 C 131.381,130.53 134.189,131.25 137.213,131.61 C 136.565,124.266 136.709,116.346 137.501,108.21 C 139.661,106.626 141.964,105.114 144.197,103.458 C 146.429,102.018 148.589,100.434 150.749,98.85 C 154.925,103.673 159.749,108.138 165.293,112.026 C 166.517,108.858 167.813,105.474 169.108,102.306 C 176.309,102.522 183.941,104.178 191.213,102.882 C 197.621,101.658 202.445,95.754 206.549,88.41 C 206.909,82.578 207.34,76.242 207.484,68.898 C 204.245,80.346 200.357,88.482 194.093,91.938 C 188.261,95.178 180.701,93.81 173.069,92.442 C 174.58,89.49 176.237,86.97 177.749,84.594 C 169.108,85.962 161.189,88.842 153.701,91.794 C 151.829,89.994 149.885,88.194 148.229,86.322 C 146.645,84.522 145.205,82.794 143.837,80.994 C 145.565,72.642 145.925,65.01 145.349,57.666 C 143.045,59.61 140.813,61.554 138.437,63.426 C 134.549,58.602 131.525,53.274 127.493,48.594 C 123.029,43.698 117.053,39.81 112.661,34.986 C 108.916,37.722 105.029,40.458 101.357,43.194 C 106.108,47.802 112.661,51.258 118.205,55.722 C 123.173,59.682 127.205,64.65 131.669,69.042 C 129.365,70.842 127.133,72.713 124.973,74.514 C 131.453,77.178 136.133,80.778 139.373,85.242 C 138.437,88.554 137.645,91.578 136.709,94.745 C 135.341,98.922 134.045,103.17 132.676,107.274 z"
   style="fill:none;stroke:#000000;stroke-width:7.99100018" />
					</g>
				</g>
				<g
   id="g3208">
					<g
   id="g3210">
						<path
   id="path3212"
   d="M 134.045,97.77 C 134.045,97.626 134.117,97.41 134.189,97.266 C 135.197,94.098 136.06,91.002 136.925,87.834 C 133.613,83.298 129.005,79.626 122.525,77.034 C 124.685,75.162 126.916,73.434 129.221,71.562 C 124.829,67.098 120.797,62.202 115.685,58.242 C 110.141,53.778 103.661,50.322 98.837,45.642 C 102.653,42.906 106.397,40.314 110.213,37.506 C 114.676,42.33 120.509,46.29 125.045,51.114 C 129.077,55.65 132.029,61.122 135.989,65.874 C 138.293,64.074 140.597,62.202 142.901,60.258 C 143.477,67.458 143.045,75.162 141.389,83.514 C 142.757,85.242 144.197,87.114 145.709,88.842 C 147.436,90.642 149.309,92.442 151.325,94.17 C 158.669,91.29 166.517,88.41 175.373,87.186 C 173.789,89.49 172.133,92.01 170.621,94.962 C 178.181,96.33 185.741,97.554 191.645,94.458 C 197.837,91.074 201.724,82.866 205.037,71.418 C 204.893,78.69 204.532,85.026 203.957,90.858 C 202.589,93.378 201.149,95.682 199.493,97.77 L 147.149,97.77 C 147.436,97.626 147.724,97.41 148.012,97.266 C 145.925,94.818 143.189,92.586 141.029,90.21 C 140.237,92.73 139.373,95.25 138.58,97.77 L 134.045,97.77 L 134.045,97.77 z"
   style="fill:#ffff00" />
						<path
   id="path3214"
   d="M 134.045,97.77 C 132.749,101.658 131.453,105.762 130.301,109.794 C 124.469,115.842 118.349,121.745 111.941,127.506 C 113.957,128.586 116.189,129.45 118.421,130.386 C 111.149,143.922 104.525,154.721 94.301,155.298 C 102.365,160.338 107.549,161.85 112.445,162.786 C 116.189,156.234 120.437,145.649 126.125,132.546 C 128.861,133.122 131.669,133.77 134.693,134.13 C 133.973,126.786 134.189,118.938 134.981,110.73 C 137.285,109.146 139.517,107.706 141.676,105.978 C 143.909,104.61 146.069,102.954 148.229,101.37 C 152.477,106.194 157.301,110.586 162.772,114.546 C 163.997,111.306 165.365,107.994 166.589,104.826 C 173.789,105.042 181.493,106.842 188.621,105.474 C 192.868,104.61 196.469,101.658 199.493,97.77 L 147.149,97.77 C 143.261,100.074 139.661,103.026 135.916,105.258 C 136.781,102.954 137.717,100.362 138.58,97.77 L 134.045,97.77 z"
   style="fill:#ffff00" />
					</g>
					<g
   id="g3216">
						<path
   id="path3218"
   d="M 141.029,90.21 C 143.189,92.586 145.925,94.818 148.012,97.266 C 143.837,99.642 139.949,102.882 135.916,105.258 C 137.645,100.721 139.373,95.394 141.029,90.21 z"
   style="fill:none;stroke:#000000;stroke-width:7.99100018" />
						<path
   id="path3220"
   d="M 130.301,109.794 C 124.469,115.842 118.349,121.745 111.941,127.506 C 113.957,128.586 116.189,129.45 118.421,130.386 C 111.149,143.922 104.525,154.721 94.301,155.298 C 102.365,160.338 107.549,161.85 112.445,162.786 C 116.189,156.234 120.437,145.649 126.125,132.546 C 128.861,133.122 131.669,133.77 134.693,134.13 C 133.973,126.786 134.189,118.938 134.981,110.73 C 137.285,109.146 139.517,107.706 141.676,105.978 C 143.909,104.61 146.069,102.954 148.229,101.37 C 152.477,106.194 157.301,110.586 162.772,114.546 C 163.997,111.306 165.365,107.994 166.589,104.826 C 173.789,105.042 181.493,106.842 188.621,105.474 C 195.101,104.106 199.997,98.13 203.957,90.858 C 204.532,85.026 204.893,78.69 205.037,71.418 C 201.724,82.866 197.837,91.074 191.645,94.458 C 185.741,97.554 178.181,96.33 170.621,94.962 C 172.133,92.01 173.789,89.49 175.373,87.186 C 166.517,88.41 158.669,91.29 151.325,94.17 C 149.309,92.442 147.436,90.642 145.709,88.842 C 144.197,87.114 142.757,85.242 141.389,83.514 C 143.045,75.162 143.477,67.458 142.901,60.258 C 140.597,62.202 138.293,64.074 135.989,65.874 C 132.029,61.122 129.077,55.65 125.045,51.114 C 120.509,46.29 114.676,42.33 110.213,37.506 C 106.397,40.314 102.653,42.906 98.837,45.642 C 103.661,50.322 110.141,53.778 115.685,58.242 C 120.797,62.202 124.829,67.098 129.221,71.562 C 126.916,73.434 124.685,75.162 122.525,77.034 C 129.005,79.626 133.613,83.298 136.925,87.834 C 136.06,91.002 135.197,94.098 134.189,97.266 C 132.893,101.298 131.525,105.618 130.301,109.794 z"
   style="fill:none;stroke:#000000;stroke-width:7.99100018" />
					</g>
				</g>
				<g
   id="g3222">
					<path
   id="path3224"
   d="M 149.165,110.37 L 159.461,121.89 L 154.925,123.114 L 160.541,143.994 L 156.005,145.218 L 150.317,124.338 L 145.781,125.562 L 149.165,110.37 z"
   style="fill:#503a00;stroke:#000000;stroke-width:7.99100018" />
					<path
   id="path3226"
   d="M 155.861,80.562 L 168.964,72.138 L 164.789,69.834 L 175.661,50.97 L 171.484,48.594 L 160.685,67.386 L 156.58,65.01 L 155.861,80.562 z"
   style="fill:#503a00;stroke:#000000;stroke-width:7.99100018" />
					<path
   id="path3228"
   d="M 130.661,96.258 L 115.469,99.642 L 116.693,94.962 L 95.741,89.418 L 97.037,84.81 L 117.989,90.354 L 119.141,85.745 L 130.661,96.258 z"
   style="fill:#503a00;stroke:#000000;stroke-width:7.99100018" />
				</g>
				<g
   id="g3230">
					<path
   id="path3232"
   d="M 146.645,112.89 L 157.012,124.41 L 152.405,125.634 L 158.093,146.586 L 153.413,147.738 L 147.797,126.786 L 143.189,128.01 L 146.645,112.89 z"
   style="fill:#210d81;stroke:#000000;stroke-width:7.99100018" />
					<path
   id="path3234"
   d="M 153.341,83.082 L 166.373,74.658 L 162.413,72.282 L 173.141,53.562 L 168.964,51.114 L 158.165,69.834 L 154.06,67.53 L 153.341,83.082 z"
   style="fill:#210d81;stroke:#000000;stroke-width:7.99100018" />
					<path
   id="path3236"
   d="M 128.141,98.85 L 113.093,102.09 L 114.245,97.554 L 93.365,91.938 L 94.589,87.33 L 115.469,92.946 L 116.765,88.266 L 128.141,98.85 z"
   style="fill:#210d81;stroke:#000000;stroke-width:7.99100018" />
				</g>
				<g
   id="g3238">
					<path
   id="path3240"
   d="M 97.397,26.49 C 100.637,24.618 104.597,25.338 106.181,28.146 C 107.765,30.882 106.469,34.698 103.157,36.57 C 99.916,38.442 95.957,37.722 94.373,34.914 C 92.789,32.178 94.085,28.362 97.397,26.49 z"
   style="fill:#0d2810;stroke:#000000;stroke-width:7.99100018" />
					<path
   id="path3242"
   d="M 93.724,163.434 C 96.964,161.562 100.925,162.282 102.509,165.09 C 104.093,167.826 102.797,171.642 99.485,173.514 C 96.245,175.386 92.285,174.666 90.701,171.858 C 89.117,169.122 90.413,165.306 93.724,163.434 z"
   style="fill:#0d2810;stroke:#000000;stroke-width:7.99100018" />
					<path
   id="path3244"
   d="M 214.829,70.05 C 218.069,68.178 222.029,68.898 223.613,71.706 C 225.197,74.442 223.901,78.258 220.589,80.13 C 217.349,82.002 213.388,81.282 211.805,78.474 C 210.221,75.738 211.517,71.922 214.829,70.05 z"
   style="fill:#0d2810;stroke:#000000;stroke-width:7.99100018" />
				</g>
				<g
   id="g3246">
					<path
   id="path3248"
   d="M 94.949,28.938 C 98.189,27.066 102.149,27.786 103.733,30.594 C 105.317,33.33 104.021,37.146 100.709,39.018 C 97.469,40.89 93.509,40.17 91.925,37.362 C 90.341,34.626 91.637,30.81 94.949,28.938 z"
   style="fill:#fc1922;stroke:#000000;stroke-width:7.99100018" />
					<path
   id="path3250"
   d="M 91.349,165.954 C 94.589,164.082 98.549,164.802 100.133,167.61 C 101.717,170.346 100.421,174.162 97.108,176.034 C 93.868,177.906 89.909,177.186 88.325,174.378 C 86.741,171.642 88.037,167.826 91.349,165.954 z"
   style="fill:#fc1922;stroke:#000000;stroke-width:7.99100018" />
					<path
   id="path3252"
   d="M 212.381,72.642 C 215.621,70.77 219.58,71.49 221.165,74.298 C 222.749,77.034 221.453,80.85 218.141,82.721 C 214.901,84.594 210.941,83.874 209.357,81.066 C 207.772,78.33 209.069,74.514 212.381,72.642 z"
   style="fill:#fc1922;stroke:#000000;stroke-width:7.99100018" />
				</g>
			</g>
			<g
   id="g3254">
				<g
   id="g3256">
					<g
   id="g3258">
						<path
   id="path3260"
   d="M 80.981,473.322 C 81.053,472.745 81.197,472.242 81.341,471.666 C 82.277,467.274 83.285,463.026 84.149,458.778 C 82.133,450.641 79.829,442.507 77.165,434.299 C 79.469,434.443 81.772,434.658 84.221,434.874 C 84.653,419.683 84.293,407.082 75.867,401.395 C 85.3,401.035 90.556,402.331 95.308,404.058 C 95.164,411.547 93.652,422.85 92.068,437.035 C 94.66,437.971 97.396,438.763 100.204,439.987 C 96.028,445.963 92.212,452.803 88.828,460.291 C 89.908,462.812 91.132,465.259 92.212,467.779 C 93.076,469.579 93.94,471.451 94.804,473.323 L 90.627,473.323 C 89.404,470.659 88.18,467.995 86.812,465.547 C 86.38,467.995 85.876,470.659 85.372,473.323 L 80.981,473.323 L 80.981,473.322 z"
   style="fill:#170c42" />
						<path
   id="path3262"
   d="M 101.357,473.322 C 105.676,472.17 110.141,471.306 114.749,470.874 C 114.605,471.666 114.532,472.458 114.389,473.322 L 101.357,473.322 z"
   style="fill:#170c42" />
						<path
   id="path3264"
   d="M 80.981,473.322 C 80.333,475.914 79.613,478.433 78.964,481.17 C 73.925,483.402 68.021,484.194 61.108,483.258 C 62.117,485.923 63.125,488.658 64.133,491.395 C 58.085,492.907 52.108,495.209 45.845,496.146 C 38.717,497.227 31.373,496.938 24.964,498.595 C 26.837,502.77 28.781,507.091 30.653,511.338 C 36.845,509.322 43.972,508.962 50.309,506.946 C 56.141,504.929 61.469,501.761 67.229,499.674 C 68.309,502.41 69.317,505.219 70.325,508.027 C 74.501,501.907 78.029,495.21 80.693,487.075 C 82.709,486.21 84.868,485.419 87.101,484.627 C 89.477,483.907 92.069,483.259 94.589,482.755 C 99.557,489.019 105.029,495.355 111.868,500.9 C 111.724,498.092 111.509,495.068 111.724,491.828 C 118.997,494.348 126.197,497.013 129.653,502.699 C 133.325,508.82 132.676,517.892 129.797,529.412 C 133.325,523.004 136.06,517.244 138.653,512.059 C 138.797,503.636 137.573,496.147 132.676,491.828 C 126.989,487.004 119.573,484.699 113.165,481.244 C 113.525,478.651 113.957,475.916 114.389,473.324 L 101.357,473.324 C 99.413,473.828 97.469,474.475 95.597,475.124 C 95.309,474.548 95.093,473.9 94.805,473.324 L 90.628,473.324 C 91.493,475.124 92.357,476.851 93.365,478.58 C 90.341,479.517 86.813,480.093 83.717,481.172 C 84.293,478.509 84.868,475.844 85.373,473.324 L 80.981,473.324 L 80.981,473.322 z"
   style="fill:#170c42" />
					</g>
					<g
   id="g3266">
						<path
   id="path3268"
   d="M 83.717,481.17 C 86.813,480.091 90.341,479.515 93.365,478.578 C 90.916,474.33 89.117,469.65 86.813,465.546 C 85.949,470.299 84.941,475.626 83.717,481.17 z"
   style="fill:none;stroke:#000000;stroke-width:7.99100018" />
						<path
   id="path3270"
   d="M 84.149,458.778 C 82.133,450.641 79.829,442.507 77.165,434.299 C 79.469,434.443 81.772,434.658 84.221,434.874 C 84.653,419.683 84.293,407.082 75.867,401.395 C 85.3,401.035 90.556,402.331 95.308,404.058 C 95.164,411.547 93.652,422.85 92.068,437.035 C 94.66,437.971 97.396,438.763 100.204,439.987 C 96.028,445.963 92.212,452.803 88.828,460.291 C 89.908,462.812 91.132,465.259 92.212,467.779 C 93.364,470.155 94.516,472.603 95.596,475.123 C 101.572,472.963 108.052,471.522 114.748,470.875 C 114.244,474.259 113.668,477.859 113.164,481.243 C 119.572,484.698 126.988,487.003 132.675,491.827 C 137.572,496.146 138.796,503.636 138.652,512.058 C 136.059,517.243 133.324,523.002 129.796,529.411 C 132.675,517.891 133.324,508.819 129.652,502.698 C 126.196,497.011 118.996,494.346 111.723,491.827 C 111.508,495.067 111.723,498.092 111.867,500.899 C 105.028,495.354 99.556,489.018 94.588,482.754 C 92.068,483.258 89.476,483.906 87.1,484.626 C 84.867,485.418 82.708,486.209 80.692,487.074 C 78.028,495.209 74.5,501.906 70.324,508.026 C 69.316,505.218 68.308,502.41 67.228,499.673 C 61.468,501.761 56.14,504.929 50.308,506.945 C 43.972,508.961 36.844,509.321 30.652,511.337 C 28.779,507.09 26.836,502.769 24.963,498.594 C 31.372,496.937 38.716,497.226 45.844,496.145 C 52.107,495.208 58.084,492.906 64.132,491.394 C 63.124,488.658 62.115,485.922 61.107,483.257 C 68.02,484.194 73.924,483.402 78.963,481.169 C 79.756,477.857 80.62,474.833 81.34,471.665 C 82.277,467.274 83.285,463.026 84.149,458.778 z"
   style="fill:none;stroke:#000000;stroke-width:7.99100018" />
					</g>
				</g>
				<g
   id="g3272">
					<g
   id="g3274">
						<path
   id="path3276"
   d="M 80.045,469.866 C 80.189,469.362 80.261,468.786 80.405,468.209 C 81.341,464.034 82.277,459.642 83.285,455.322 C 81.341,447.186 78.964,439.05 76.301,430.842 C 78.605,430.914 80.981,431.346 83.357,431.635 C 83.789,416.299 83.501,403.554 74.933,397.938 C 84.437,397.579 89.693,398.947 94.301,400.531 C 94.301,408.092 92.717,419.395 91.133,433.579 C 93.797,434.443 96.461,435.308 99.341,436.459 C 95.021,442.508 91.277,449.419 87.893,456.907 C 89.045,459.354 90.269,461.803 91.277,464.395 C 92.285,466.123 93.077,467.995 93.941,469.867 L 89.765,469.867 C 88.469,467.203 87.317,464.539 85.877,462.092 C 85.517,464.539 85.085,467.203 84.509,469.867 L 80.045,469.867 L 80.045,469.866 z"
   style="fill:#ffff00" />
						<path
   id="path3278"
   d="M 100.493,469.866 C 104.813,468.786 109.277,467.923 113.885,467.49 C 113.741,468.282 113.597,469.074 113.525,469.866 L 100.493,469.866 z"
   style="fill:#ffff00" />
						<path
   id="path3280"
   d="M 80.045,469.866 C 79.469,472.53 78.82,475.122 78.101,477.715 C 72.989,480.018 67.157,480.811 60.245,479.803 C 61.181,482.538 62.261,485.131 63.341,487.938 C 57.22,489.595 51.388,491.827 44.908,492.762 C 37.852,493.842 30.58,493.554 24.029,495.209 C 25.972,499.458 27.845,503.635 29.789,507.883 C 36.053,506.011 43.108,505.507 49.445,503.49 C 55.277,501.618 60.533,498.378 66.293,496.219 C 67.445,498.954 68.453,501.762 69.461,504.571 C 73.637,498.595 77.093,491.755 79.757,483.619 C 81.845,482.827 84.005,482.035 86.237,481.171 C 88.613,480.523 91.133,479.947 93.797,479.371 C 98.621,485.562 104.093,491.971 111.077,497.443 C 110.789,494.635 110.645,491.683 110.861,488.371 C 118.06,490.892 125.189,493.698 128.861,499.388 C 132.461,505.364 131.741,514.435 128.861,525.955 C 132.389,519.547 135.197,513.931 137.717,508.602 C 137.861,500.25 136.637,492.691 131.741,488.299 C 126.197,483.546 118.637,481.242 112.229,477.786 C 112.661,475.265 113.093,472.53 113.525,469.866 L 100.493,469.866 C 98.549,470.37 96.605,470.946 94.733,471.595 C 94.445,471.018 94.157,470.443 93.941,469.866 L 89.765,469.866 C 90.557,471.666 91.421,473.394 92.429,475.05 C 89.405,476.202 85.877,476.706 82.853,477.642 C 83.429,475.05 84.005,472.458 84.509,469.867 L 80.045,469.867 L 80.045,469.866 z"
   style="fill:#ffff00" />
					</g>
					<g
   id="g3282">
						<path
   id="path3284"
   d="M 82.853,477.642 C 85.877,476.706 89.405,476.203 92.429,475.05 C 89.981,470.946 88.253,466.195 85.877,462.091 C 85.229,466.914 84.005,472.387 82.853,477.642 z"
   style="fill:none;stroke:#000000;stroke-width:7.99100018" />
						<path
   id="path3286"
   d="M 83.285,455.322 C 81.341,447.186 78.964,439.05 76.301,430.842 C 78.605,430.914 80.981,431.346 83.357,431.635 C 83.789,416.299 83.501,403.554 74.933,397.938 C 84.437,397.579 89.693,398.947 94.301,400.531 C 94.301,408.092 92.717,419.395 91.133,433.579 C 93.797,434.443 96.461,435.308 99.341,436.459 C 95.021,442.508 91.277,449.419 87.893,456.907 C 89.045,459.354 90.269,461.803 91.277,464.395 C 92.573,466.698 93.58,469.146 94.733,471.595 C 100.781,469.578 107.189,468.138 113.885,467.491 C 113.309,470.875 112.805,474.474 112.229,477.787 C 118.637,481.243 126.197,483.547 131.741,488.3 C 136.637,492.692 137.861,500.251 137.717,508.603 C 135.197,513.931 132.389,519.547 128.861,525.956 C 131.741,514.435 132.461,505.364 128.861,499.389 C 125.189,493.7 118.06,490.893 110.861,488.372 C 110.645,491.684 110.789,494.637 111.077,497.444 C 104.093,491.971 98.621,485.563 93.797,479.372 C 91.133,479.948 88.613,480.523 86.237,481.172 C 84.005,482.036 81.845,482.828 79.757,483.62 C 77.093,491.756 73.637,498.597 69.461,504.572 C 68.453,501.763 67.445,498.956 66.293,496.22 C 60.533,498.379 55.277,501.619 49.445,503.491 C 43.108,505.508 36.053,506.012 29.789,507.884 C 27.845,503.636 25.973,499.459 24.029,495.21 C 30.581,493.555 37.853,493.843 44.908,492.763 C 51.388,491.827 57.22,489.596 63.341,487.939 C 62.261,485.132 61.18,482.54 60.245,479.804 C 67.157,480.812 72.989,480.019 78.101,477.716 C 78.964,474.547 79.757,471.379 80.405,468.21 C 81.341,464.034 82.277,459.642 83.285,455.322 z"
   style="fill:none;stroke:#000000;stroke-width:7.99100018" />
					</g>
				</g>
				<g
   id="g3288">
					<path
   id="path3290"
   d="M 99.916,464.322 L 114.676,459.498 L 111.293,456.114 L 126.628,440.922 L 123.245,437.538 L 107.909,452.803 L 104.597,449.418 L 99.916,464.322 z"
   style="fill:#503a00;stroke:#000000;stroke-width:7.99100018" />
					<path
   id="path3292"
   d="M 90.845,493.482 L 97.973,507.306 L 93.221,507.233 L 93.221,528.906 L 88.469,528.978 L 88.469,507.233 L 83.789,507.233 L 90.845,493.482 z"
   style="fill:#503a00;stroke:#000000;stroke-width:7.99100018" />
					<path
   id="path3294"
   d="M 76.877,467.202 L 65.429,456.69 L 64.133,461.37 L 43.253,455.754 L 42.029,460.434 L 62.981,466.05 L 61.685,470.586 L 76.877,467.202 z"
   style="fill:#503a00;stroke:#000000;stroke-width:7.99100018" />
				</g>
				<g
   id="g3296">
					<path
   id="path3298"
   d="M 98.981,460.866 L 113.741,456.114 L 110.429,452.729 L 125.765,437.394 L 122.309,434.082 L 107.045,449.418 L 103.589,446.106 L 98.981,460.866 z"
   style="fill:#210d81;stroke:#000000;stroke-width:7.99100018" />
					<path
   id="path3300"
   d="M 89.909,490.026 L 97.037,503.849 L 92.357,503.922 L 92.357,525.449 L 87.533,525.52 L 87.533,503.85 L 82.781,503.85 L 89.909,490.026 z"
   style="fill:#210d81;stroke:#000000;stroke-width:7.99100018" />
					<path
   id="path3302"
   d="M 76.012,463.818 L 64.565,453.45 L 63.341,457.914 L 42.461,452.37 L 41.165,456.906 L 62.117,462.521 L 60.821,467.202 L 76.012,463.818 z"
   style="fill:#210d81;stroke:#000000;stroke-width:7.99100018" />
				</g>
				<g
   id="g3304">
					<path
   id="path3306"
   d="M 13.157,511.05 C 15.029,514.362 18.845,515.658 21.581,514.074 C 24.389,512.49 25.108,508.53 23.237,505.29 C 21.365,501.978 17.549,500.683 14.813,502.266 C 12.005,503.85 11.285,507.811 13.157,511.05 z"
   style="fill:#0d2810;stroke:#000000;stroke-width:7.99100018" />
					<path
   id="path3308"
   d="M 78.533,390.666 C 80.405,393.978 84.221,395.274 86.957,393.69 C 89.765,392.105 90.485,388.145 88.613,384.906 C 86.741,381.594 82.925,380.299 80.189,381.883 C 77.381,383.466 76.661,387.426 78.533,390.666 z"
   style="fill:#0d2810;stroke:#000000;stroke-width:7.99100018" />
					<path
   id="path3310"
   d="M 136.637,532.074 C 138.509,535.386 142.325,536.682 145.06,535.098 C 147.868,533.514 148.589,529.553 146.717,526.314 C 144.845,523.002 141.029,521.706 138.293,523.29 C 135.484,524.874 134.765,528.834 136.637,532.074 z"
   style="fill:#0d2810;stroke:#000000;stroke-width:7.99100018" />
				</g>
				<g
   id="g3312">
					<path
   id="path3314"
   d="M 12.293,507.738 C 14.165,511.05 17.981,512.345 20.717,510.761 C 23.525,509.178 24.245,505.218 22.373,501.978 C 20.501,498.666 16.685,497.37 13.949,498.954 C 11.141,500.538 10.421,504.498 12.293,507.738 z"
   style="fill:#fc1922;stroke:#000000;stroke-width:7.99100018" />
					<path
   id="path3316"
   d="M 77.597,387.21 C 79.47,390.522 83.285,391.818 86.021,390.234 C 88.829,388.65 89.549,384.69 87.676,381.45 C 85.805,378.138 81.989,376.842 79.253,378.426 C 76.445,380.011 75.724,383.97 77.597,387.21 z"
   style="fill:#fc1922;stroke:#000000;stroke-width:7.99100018" />
					<path
   id="path3318"
   d="M 135.772,528.474 C 137.645,531.786 141.461,533.082 144.197,531.498 C 147.005,529.914 147.724,525.954 145.853,522.715 C 143.981,519.403 140.165,518.107 137.429,519.691 C 134.621,521.274 133.901,525.233 135.772,528.474 z"
   style="fill:#fc1922;stroke:#000000;stroke-width:7.99100018" />
				</g>
			</g>
			<g
   id="g3320">
				<g
   id="g3322">
					<g
   id="g3324">
						<path
   id="path3326"
   d="M 456.39,411.402 C 456.606,410.178 456.821,409.026 457.11,407.874 C 457.469,405.139 458.046,402.402 458.405,399.738 C 453.221,393.402 447.75,387.715 442.134,382.962 C 444.51,381.091 446.958,379.65 449.191,378.066 C 444.006,364.746 439.615,354.234 437.599,347.034 C 441.63,344.154 446.454,341.561 455.67,339.473 C 448.902,347.178 451.926,359.345 456.246,374.034 C 458.55,373.098 460.71,372.306 462.87,371.586 C 462.438,380.154 462.294,388.65 462.582,397.002 C 464.454,400.891 466.542,404.778 468.558,408.738 C 469.062,409.674 469.495,410.538 469.998,411.402 L 465.102,411.402 C 463.877,408.882 462.797,406.506 461.717,404.274 C 461.069,406.578 460.637,408.954 460.205,411.402 L 456.39,411.402 L 456.39,411.402 z"
   style="fill:#170c42" />
						<path
   id="path3328"
   d="M 456.39,411.402 C 456.102,412.841 455.885,414.282 455.669,415.722 C 449.333,415.289 442.781,415.506 436.085,416.658 C 437.453,419.754 438.894,423.138 440.261,426.234 C 435.005,431.202 428.453,435.378 424.205,441.498 C 420.605,446.898 421.325,454.53 423.629,462.595 C 427.518,466.987 431.693,471.811 436.733,477.067 C 430.902,466.698 427.95,458.131 429.894,451.291 C 431.765,444.884 438.102,440.491 444.438,436.1 C 445.445,439.123 446.093,442.147 446.669,444.884 C 451.853,437.827 455.453,430.196 458.549,422.851 C 461.213,422.78 463.877,422.707 466.325,422.78 C 468.701,422.924 471.005,423.212 473.165,423.5 C 477.917,430.628 483.029,436.244 488.644,440.996 C 488.86,438.044 489.077,435.093 489.437,432.141 C 495.628,432.717 501.533,434.372 507.652,434.876 C 514.277,435.164 521.26,433.652 527.741,433.939 C 528.533,429.404 529.325,424.724 529.972,420.188 C 523.42,420.259 516.292,422.419 509.236,423.211 C 502.901,423.931 496.564,423.283 490.228,423.355 C 490.588,420.404 490.876,417.523 491.092,414.716 C 484.685,417.451 478.78,418.171 473.309,417.308 C 472.157,415.291 471.077,413.347 469.997,411.404 L 465.101,411.404 C 466.252,413.78 467.404,416.156 468.701,418.532 C 465.389,418.316 461.933,418.676 458.693,418.532 C 459.34,416.156 459.772,413.78 460.205,411.404 L 456.39,411.404 L 456.39,411.402 z"
   style="fill:#170c42" />
					</g>
					<g
   id="g3330">
						<path
   id="path3332"
   d="M 468.701,418.53 C 465.389,418.314 461.933,418.674 458.693,418.53 C 459.989,413.778 460.493,408.81 461.716,404.274 C 463.806,408.595 466.037,413.635 468.701,418.53 z"
   style="fill:none;stroke:#000000;stroke-width:7.99100018" />
						<path
   id="path3334"
   d="M 462.581,397.002 C 462.293,388.65 462.437,380.154 462.869,371.586 C 460.709,372.307 458.549,373.099 456.245,374.034 C 451.925,359.346 448.901,347.179 455.669,339.473 C 446.453,341.561 441.629,344.154 437.598,347.034 C 439.614,354.234 444.005,364.746 449.19,378.066 C 446.958,379.65 444.509,381.09 442.133,382.962 C 447.749,387.715 453.221,393.402 458.404,399.738 C 458.045,402.402 457.468,405.138 457.109,407.874 C 456.533,410.395 456.029,413.058 455.669,415.723 C 449.333,415.29 442.781,415.507 436.085,416.659 C 437.453,419.755 438.894,423.139 440.261,426.235 C 435.005,431.203 428.453,435.379 424.205,441.499 C 420.605,446.899 421.325,454.531 423.629,462.596 C 427.518,466.988 431.693,471.812 436.733,477.068 C 430.902,466.699 427.95,458.132 429.894,451.292 C 431.765,444.885 438.102,440.492 444.438,436.101 C 445.445,439.124 446.093,442.148 446.669,444.885 C 451.853,437.828 455.453,430.197 458.549,422.852 C 461.213,422.781 463.877,422.708 466.325,422.781 C 468.701,422.925 471.005,423.213 473.165,423.501 C 477.917,430.629 483.029,436.245 488.644,440.997 C 488.86,438.045 489.077,435.094 489.437,432.142 C 495.628,432.718 501.533,434.373 507.652,434.877 C 514.277,435.165 521.26,433.653 527.741,433.94 C 528.533,429.405 529.325,424.725 529.972,420.189 C 523.42,420.26 516.292,422.42 509.236,423.212 C 502.901,423.932 496.564,423.284 490.228,423.356 C 490.588,420.405 490.876,417.524 491.092,414.717 C 484.685,417.452 478.78,418.172 473.309,417.309 C 471.652,414.356 470.068,411.621 468.556,408.741 C 466.541,404.778 464.453,400.891 462.581,397.002 z"
   style="fill:none;stroke:#000000;stroke-width:7.99100018" />
					</g>
				</g>
				<g
   id="g3336">
					<g
   id="g3338">
						<path
   id="path3340"
   d="M 456.316,407.803 C 456.533,406.578 456.749,405.426 457.037,404.275 C 457.397,401.539 457.901,398.875 458.404,396.211 C 453.148,389.804 447.82,384.115 442.133,379.363 C 444.509,377.491 446.957,376.051 449.19,374.467 C 444.005,361.22 439.542,350.707 437.598,343.435 C 441.629,340.627 446.381,338.036 455.669,335.948 C 448.901,343.58 451.853,355.82 456.245,370.58 C 458.477,369.643 460.637,368.708 462.869,368.059 C 462.437,376.627 462.293,385.123 462.437,393.548 C 464.525,397.291 466.613,401.396 468.556,405.14 C 468.989,406.076 469.493,406.939 469.924,407.804 L 465.028,407.804 C 463.804,405.427 462.651,402.98 461.643,400.675 C 461.067,402.98 460.635,405.355 460.204,407.804 L 456.316,407.804 L 456.316,407.803 z"
   style="fill:#ffff00" />
						<path
   id="path3342"
   d="M 456.316,407.803 C 456.101,409.242 455.884,410.683 455.669,412.122 C 449.261,411.762 442.781,412.122 436.085,413.131 C 437.453,416.299 438.894,419.61 440.261,422.706 C 435.005,427.674 428.31,431.778 424.205,437.826 C 420.605,443.37 421.397,451.074 423.629,458.994 C 427.444,463.53 431.693,468.282 436.661,473.466 C 430.901,463.099 427.949,454.53 429.893,447.834 C 431.836,441.426 438.101,436.891 444.365,432.57 C 445.373,435.738 446.021,438.618 446.525,441.425 C 451.852,434.226 455.453,426.737 458.548,419.465 C 461.212,419.249 463.876,419.178 466.324,419.249 C 468.628,419.394 471.004,419.682 473.164,419.897 C 477.916,427.025 483.028,432.785 488.5,437.393 C 488.788,434.441 489.076,431.489 489.437,428.609 C 495.556,429.185 501.533,430.985 507.652,431.273 C 514.205,431.56 521.189,430.193 527.741,430.409 C 528.461,425.802 529.253,421.264 529.972,416.657 C 523.349,416.729 516.292,418.889 509.236,419.681 C 502.757,420.472 496.493,419.825 490.228,419.752 C 490.517,416.801 490.805,413.992 491.092,411.185 C 484.613,413.92 478.78,414.64 473.236,413.777 C 472.085,411.76 471.005,409.817 469.924,407.801 L 465.028,407.801 C 466.18,410.177 467.403,412.552 468.628,414.928 C 465.46,414.784 462.004,415.144 458.692,414.928 C 459.412,412.624 459.844,410.177 460.204,407.801 L 456.316,407.801 L 456.316,407.803 z"
   style="fill:#ffff00" />
					</g>
					<g
   id="g3344">
						<path
   id="path3346"
   d="M 468.629,414.93 C 465.461,414.786 462.005,415.146 458.693,414.93 C 460.06,410.323 460.421,405.21 461.644,400.674 C 463.661,405.21 466.182,410.105 468.629,414.93 z"
   style="fill:none;stroke:#000000;stroke-width:7.99100018" />
						<path
   id="path3348"
   d="M 462.438,393.547 C 462.293,385.122 462.438,376.626 462.87,368.058 C 460.638,368.706 458.478,369.642 456.246,370.579 C 451.853,355.819 448.902,343.579 455.67,335.947 C 446.382,338.035 441.63,340.627 437.599,343.434 C 439.542,350.706 444.006,361.219 449.191,374.466 C 446.959,376.05 444.51,377.49 442.134,379.362 C 447.822,384.114 453.15,389.802 458.405,396.21 C 457.902,398.874 457.398,401.538 457.038,404.274 C 456.391,406.794 456.102,409.53 455.67,412.122 C 449.262,411.762 442.782,412.122 436.086,413.131 C 437.454,416.299 438.895,419.61 440.262,422.706 C 435.006,427.674 428.311,431.778 424.206,437.826 C 420.606,443.37 421.398,451.074 423.63,458.994 C 427.445,463.53 431.694,468.282 436.662,473.466 C 430.902,463.099 427.95,454.53 429.894,447.834 C 431.837,441.426 438.102,436.891 444.366,432.57 C 445.374,435.738 446.022,438.618 446.526,441.425 C 451.853,434.226 455.454,426.737 458.549,419.465 C 461.213,419.249 463.877,419.178 466.325,419.249 C 468.629,419.394 471.005,419.682 473.165,419.897 C 477.917,427.025 483.029,432.785 488.501,437.393 C 488.789,434.441 489.077,431.489 489.438,428.609 C 495.557,429.185 501.534,430.985 507.653,431.273 C 514.206,431.56 521.19,430.193 527.742,430.409 C 528.462,425.802 529.254,421.264 529.973,416.657 C 523.35,416.729 516.293,418.889 509.237,419.681 C 502.758,420.472 496.494,419.825 490.229,419.752 C 490.518,416.801 490.806,413.992 491.093,411.185 C 484.614,413.92 478.781,414.64 473.237,413.777 C 471.582,410.897 470.069,408.089 468.557,405.137 C 466.613,401.395 464.525,397.29 462.438,393.547 z"
   style="fill:none;stroke:#000000;stroke-width:7.99100018" />
					</g>
				</g>
				<g
   id="g3350">
					<path
   id="path3352"
   d="M 448.686,406.507 L 433.278,405.642 L 435.582,401.466 L 416.861,390.738 L 419.237,386.634 L 437.958,397.433 L 440.334,393.329 L 448.686,406.507 z"
   style="fill:#503a00;stroke:#000000;stroke-width:7.99100018" />
					<path
   id="path3354"
   d="M 465.029,432.282 L 461.717,447.473 L 466.325,446.178 L 471.94,467.13 L 476.548,465.978 L 470.933,445.026 L 475.468,443.73 L 465.029,432.282 z"
   style="fill:#503a00;stroke:#000000;stroke-width:7.99100018" />
					<path
   id="path3356"
   d="M 471.725,403.338 L 480.078,390.234 L 482.526,394.338 L 501.246,383.538 L 503.622,387.715 L 484.902,398.586 L 487.278,402.618 L 471.725,403.338 z"
   style="fill:#503a00;stroke:#000000;stroke-width:7.99100018" />
				</g>
				<g
   id="g3358">
					<path
   id="path3360"
   d="M 448.686,402.906 L 433.206,402.114 L 435.582,398.01 L 416.718,387.209 L 419.238,383.105 L 437.959,393.906 L 440.406,389.802 L 448.686,402.906 z"
   style="fill:#210d81;stroke:#000000;stroke-width:7.99100018" />
					<path
   id="path3362"
   d="M 465.029,428.754 L 461.717,443.874 L 466.182,442.794 L 471.87,463.603 L 476.55,462.378 L 470.935,441.498 L 475.542,440.202 L 465.029,428.754 z"
   style="fill:#210d81;stroke:#000000;stroke-width:7.99100018" />
					<path
   id="path3364"
   d="M 471.652,399.811 L 480.005,386.85 L 482.453,390.811 L 501.173,380.082 L 503.549,384.114 L 484.757,394.986 L 487.205,399.162 L 471.652,399.811 z"
   style="fill:#210d81;stroke:#000000;stroke-width:7.99100018" />
				</g>
				<g
   id="g3366">
					<path
   id="path3368"
   d="M 544.661,429.187 C 543.724,432.787 540.413,435.091 537.245,434.299 C 534.148,433.434 532.421,429.762 533.43,426.162 C 534.366,422.561 537.677,420.258 540.845,421.05 C 543.941,421.914 545.669,425.586 544.661,429.187 z"
   style="fill:#0d2810;stroke:#000000;stroke-width:7.99100018" />
					<path
   id="path3370"
   d="M 450.341,329.754 C 449.404,333.354 446.093,335.658 442.925,334.866 C 439.829,334.002 438.102,330.33 439.11,326.73 C 440.046,323.13 443.357,320.826 446.526,321.618 C 449.621,322.482 451.349,326.154 450.341,329.754 z"
   style="fill:#0d2810;stroke:#000000;stroke-width:7.99100018" />
					<path
   id="path3372"
   d="M 430.829,481.458 C 429.893,485.058 426.581,487.362 423.413,486.57 C 420.316,485.706 418.589,482.034 419.598,478.433 C 420.534,474.833 423.846,472.53 427.014,473.322 C 430.109,474.186 431.837,477.858 430.829,481.458 z"
   style="fill:#0d2810;stroke:#000000;stroke-width:7.99100018" />
				</g>
				<g
   id="g3374">
					<path
   id="path3376"
   d="M 544.589,425.73 C 543.652,429.33 540.341,431.634 537.173,430.841 C 534.077,429.978 532.35,426.306 533.357,422.705 C 534.294,419.104 537.606,416.802 540.773,417.594 C 543.869,418.458 545.598,422.131 544.589,425.73 z"
   style="fill:#fc1922;stroke:#000000;stroke-width:7.99100018" />
					<path
   id="path3378"
   d="M 450.269,326.227 C 449.333,329.827 446.022,332.131 442.853,331.338 C 439.757,330.474 438.03,326.803 439.038,323.202 C 439.974,319.602 443.286,317.299 446.454,318.091 C 449.549,318.954 451.277,322.626 450.269,326.227 z"
   style="fill:#fc1922;stroke:#000000;stroke-width:7.99100018" />
					<path
   id="path3380"
   d="M 430.686,477.858 C 429.749,481.458 426.438,483.761 423.269,482.969 C 420.173,482.106 418.445,478.433 419.454,474.833 C 420.391,471.232 423.702,468.929 426.87,469.72 C 429.965,470.586 431.693,474.258 430.686,477.858 z"
   style="fill:#fc1922;stroke:#000000;stroke-width:7.99100018" />
				</g>
			</g>
			<g
   id="g3382">
				<g
   id="g3384">
					<g
   id="g3386">
						<path
   id="path3388"
   d="M 318.94,73.794 C 317.356,71.778 315.845,69.474 314.477,66.954 C 314.117,61.122 313.685,54.786 313.54,47.442 C 316.78,58.89 320.668,67.026 326.933,70.482 C 332.764,73.721 340.325,72.354 347.956,70.986 C 346.517,68.106 344.788,65.514 343.276,63.138 C 351.988,64.506 359.908,67.386 367.324,70.338 C 369.196,68.538 371.139,66.738 372.868,64.866 C 374.452,63.138 375.819,61.338 377.188,59.538 C 375.459,51.186 375.1,43.626 375.675,36.282 C 377.98,38.154 380.211,40.098 382.587,41.97 C 386.476,37.218 389.571,31.89 393.531,27.21 C 397.995,22.242 403.97,18.355 408.363,13.53 C 412.179,16.266 415.995,19.002 419.667,21.738 C 414.987,26.346 408.436,29.802 402.818,34.266 C 397.85,38.298 393.818,43.194 389.354,47.586 C 391.659,49.386 393.891,51.258 396.05,53.13 C 389.571,55.722 384.891,59.394 381.65,63.858 C 382.587,67.098 383.379,70.122 384.314,73.29 C 384.387,73.434 384.459,73.65 384.459,73.794 L 379.995,73.794 C 379.131,71.346 378.339,68.826 377.547,66.234 C 375.315,68.682 372.579,70.914 370.419,73.29 C 370.707,73.434 371.066,73.65 371.355,73.794 L 318.94,73.794 z"
   style="fill:#170c42" />
						<path
   id="path3390"
   d="M 318.94,73.794 C 322.037,77.754 325.564,80.634 329.812,81.498 C 337.084,82.794 344.716,81.066 351.989,80.85 C 353.213,84.018 354.509,87.474 355.732,90.57 C 361.277,86.682 366.101,82.218 370.277,77.466 C 372.437,79.05 374.597,80.562 376.829,82.002 C 379.06,83.658 381.365,85.242 383.525,86.826 C 384.316,94.962 384.461,102.81 383.812,110.154 C 386.909,109.794 389.644,109.146 392.38,108.642 C 398.14,121.745 402.389,132.258 405.988,138.81 C 410.956,137.946 416.212,136.434 424.204,131.322 C 414.052,130.673 407.5,119.946 400.156,106.482 C 402.46,105.545 404.548,104.538 406.635,103.53 C 400.227,97.77 394.108,91.866 388.347,85.818 C 387.051,81.858 385.755,77.826 384.459,73.794 L 379.995,73.794 C 380.858,76.386 381.795,78.906 382.659,81.282 C 378.915,79.05 375.314,76.17 371.354,73.794 L 318.94,73.794 L 318.94,73.794 z"
   style="fill:#170c42" />
					</g>
					<g
   id="g3392">
						<path
   id="path3394"
   d="M 377.549,66.234 C 375.317,68.682 372.581,70.914 370.421,73.29 C 374.741,75.738 378.629,78.906 382.661,81.282 C 381.005,76.745 379.133,71.562 377.549,66.234 z"
   style="fill:none;stroke:#000000;stroke-width:7.99100018" />
						<path
   id="path3396"
   d="M 388.349,85.818 C 394.11,91.866 400.229,97.77 406.637,103.53 C 404.549,104.538 402.461,105.546 400.158,106.482 C 407.502,119.946 414.054,130.673 424.206,131.322 C 416.214,136.434 410.958,137.946 405.99,138.81 C 402.39,132.258 398.141,121.745 392.382,108.642 C 389.646,109.146 386.91,109.794 383.814,110.154 C 384.462,102.81 384.318,94.962 383.527,86.826 C 381.367,85.242 379.062,83.658 376.831,82.002 C 374.6,80.563 372.439,79.05 370.279,77.466 C 366.103,82.218 361.279,86.682 355.734,90.57 C 354.51,87.474 353.214,84.018 351.991,80.85 C 344.719,81.066 337.087,82.794 329.814,81.498 C 323.406,80.202 318.583,74.298 314.479,66.954 C 314.119,61.122 313.687,54.786 313.542,47.442 C 316.782,58.89 320.67,67.026 326.935,70.482 C 332.766,73.721 340.327,72.354 347.958,70.986 C 346.519,68.106 344.79,65.514 343.278,63.138 C 351.99,64.506 359.91,67.386 367.326,70.338 C 369.198,68.538 371.141,66.738 372.87,64.866 C 374.454,63.138 375.821,61.338 377.19,59.538 C 375.461,51.186 375.102,43.626 375.677,36.282 C 377.982,38.154 380.213,40.098 382.589,41.97 C 386.478,37.218 389.573,31.89 393.533,27.21 C 397.997,22.242 403.972,18.355 408.365,13.53 C 412.181,16.266 415.997,19.002 419.669,21.738 C 414.989,26.346 408.438,29.802 402.82,34.266 C 397.852,38.298 393.82,43.194 389.356,47.586 C 391.661,49.386 393.893,51.258 396.052,53.13 C 389.573,55.722 384.893,59.394 381.652,63.858 C 382.589,67.098 383.381,70.122 384.316,73.29 C 385.686,77.466 386.981,81.714 388.349,85.818 z"
   style="fill:none;stroke:#000000;stroke-width:7.99100018" />
					</g>
				</g>
				<g
   id="g3398">
					<g
   id="g3400">
						<path
   id="path3402"
   d="M 321.533,76.314 C 319.949,74.298 318.437,71.922 317.068,69.474 C 316.564,63.57 316.132,57.306 315.989,50.034 C 319.301,61.41 323.26,69.618 329.381,73.002 C 335.285,76.098 342.917,74.946 350.404,73.506 C 348.893,70.554 347.309,68.107 345.724,65.731 C 354.508,67.027 362.356,69.835 369.701,72.787 C 371.717,71.059 373.661,69.187 375.316,67.459 C 376.829,65.659 378.34,63.859 379.636,62.059 C 377.981,53.707 377.548,46.075 378.197,38.803 C 380.501,40.747 382.732,42.691 385.037,44.419 C 388.997,39.739 391.949,34.267 395.981,29.731 C 400.517,24.835 406.42,20.875 410.812,16.123 C 414.701,18.859 418.373,21.451 422.189,24.259 C 417.365,28.867 410.957,32.323 405.34,36.787 C 400.228,40.819 396.268,45.643 391.805,50.107 C 394.109,52.051 396.34,53.779 398.5,55.579 C 392.021,58.243 387.412,61.843 384.101,66.379 C 384.964,69.547 385.829,72.643 386.909,75.811 C 386.981,75.955 386.981,76.171 387.053,76.315 L 382.445,76.315 C 381.653,73.867 380.79,71.275 379.998,68.755 C 377.838,71.203 375.102,73.363 373.015,75.883 C 373.302,76.027 373.519,76.171 373.807,76.315 L 321.533,76.315 L 321.533,76.314 z"
   style="fill:#ffff00" />
						<path
   id="path3404"
   d="M 321.533,76.314 C 324.629,80.202 328.157,83.154 332.404,84.018 C 339.533,85.386 347.236,83.586 354.437,83.37 C 355.661,86.538 357.029,89.922 358.252,93.09 C 363.724,89.13 368.548,84.738 372.796,79.986 C 374.956,81.498 377.116,83.226 379.348,84.522 C 381.508,86.25 383.812,87.762 386.044,89.274 C 386.836,97.554 387.052,105.33 386.332,112.745 C 389.429,112.386 392.164,111.666 394.9,111.162 C 400.588,124.266 404.836,134.85 408.58,141.33 C 413.476,140.466 418.731,138.954 426.724,133.914 C 416.5,133.266 409.876,122.466 402.605,108.93 C 404.836,107.994 407.068,107.13 409.084,106.05 C 402.676,100.362 396.556,94.386 390.796,88.338 C 389.644,84.306 388.276,80.202 387.052,76.314 L 382.444,76.314 C 383.381,78.978 384.245,81.498 385.181,83.874 C 381.365,81.642 377.693,78.618 373.805,76.314 L 321.533,76.314 L 321.533,76.314 z"
   style="fill:#ffff00" />
					</g>
					<g
   id="g3406">
						<path
   id="path3408"
   d="M 379.997,68.754 C 377.837,71.202 375.101,73.362 373.014,75.882 C 377.19,78.186 381.077,81.498 385.182,83.874 C 383.381,79.266 381.652,74.01 379.997,68.754 z"
   style="fill:none;stroke:#000000;stroke-width:7.99100018" />
						<path
   id="path3410"
   d="M 390.797,88.338 C 396.557,94.386 402.677,100.362 409.085,106.05 C 407.068,107.13 404.837,107.994 402.606,108.93 C 409.877,122.466 416.502,133.266 426.725,133.914 C 418.733,138.954 413.478,140.466 408.581,141.33 C 404.837,134.85 400.589,124.266 394.901,111.162 C 392.165,111.666 389.429,112.386 386.333,112.745 C 387.053,105.33 386.837,97.554 386.045,89.274 C 383.813,87.762 381.509,86.25 379.349,84.522 C 377.118,83.226 374.957,81.498 372.797,79.986 C 368.549,84.738 363.725,89.13 358.253,93.09 C 357.029,89.922 355.661,86.538 354.438,83.37 C 347.237,83.586 339.534,85.386 332.405,84.018 C 325.926,82.65 321.102,76.674 317.069,69.474 C 316.565,63.57 316.133,57.306 315.99,50.034 C 319.302,61.41 323.261,69.618 329.382,73.002 C 335.286,76.098 342.918,74.946 350.405,73.506 C 348.894,70.554 347.31,68.107 345.725,65.731 C 354.509,67.027 362.357,69.835 369.702,72.787 C 371.718,71.059 373.662,69.187 375.317,67.459 C 376.83,65.659 378.341,63.859 379.637,62.059 C 377.982,53.707 377.549,46.075 378.198,38.803 C 380.502,40.747 382.733,42.691 385.038,44.419 C 388.998,39.739 391.95,34.267 395.982,29.731 C 400.518,24.835 406.421,20.875 410.813,16.123 C 414.702,18.859 418.374,21.451 422.19,24.259 C 417.366,28.867 410.958,32.323 405.341,36.787 C 400.229,40.819 396.269,45.643 391.806,50.107 C 394.11,52.051 396.341,53.779 398.501,55.579 C 392.022,58.243 387.413,61.843 384.102,66.379 C 384.965,69.547 385.83,72.643 386.91,75.811 C 388.133,79.842 389.573,84.162 390.797,88.338 z"
   style="fill:none;stroke:#000000;stroke-width:7.99100018" />
					</g>
				</g>
				<g
   id="g3412">
					<path
   id="path3414"
   d="M 371.934,88.914 L 361.565,100.434 L 366.173,101.658 L 360.485,122.538 L 365.092,123.762 L 370.708,102.882 L 375.244,104.106 L 371.934,88.914 z"
   style="fill:#503a00;stroke:#000000;stroke-width:7.99100018" />
					<path
   id="path3416"
   d="M 365.236,59.106 L 352.132,50.753 L 356.236,48.377 L 345.437,29.585 L 349.541,27.137 L 360.413,45.929 L 364.444,43.625 L 365.236,59.106 z"
   style="fill:#503a00;stroke:#000000;stroke-width:7.99100018" />
					<path
   id="path3418"
   d="M 390.365,74.802 L 405.556,78.258 L 404.332,73.578 L 425.284,67.962 L 423.988,63.355 L 403.036,68.899 L 401.884,64.363 L 390.365,74.802 z"
   style="fill:#503a00;stroke:#000000;stroke-width:7.99100018" />
				</g>
				<g
   id="g3420">
					<path
   id="path3422"
   d="M 374.381,91.434 L 364.014,102.954 L 368.621,104.178 L 362.933,125.13 L 367.613,126.282 L 373.228,105.402 L 377.836,106.554 L 374.381,91.434 z"
   style="fill:#210d81;stroke:#000000;stroke-width:7.99100018" />
					<path
   id="path3424"
   d="M 367.686,61.626 L 354.653,53.274 L 358.614,50.826 L 347.885,32.106 L 352.061,29.73 L 362.861,48.45 L 366.965,46.074 L 367.686,61.626 z"
   style="fill:#210d81;stroke:#000000;stroke-width:7.99100018" />
					<path
   id="path3426"
   d="M 392.885,77.394 L 407.934,80.706 L 406.782,76.098 L 427.662,70.482 L 426.438,65.946 L 405.557,71.49 L 404.261,66.882 L 392.885,77.394 z"
   style="fill:#210d81;stroke:#000000;stroke-width:7.99100018" />
				</g>
				<g
   id="g3428">
					<path
   id="path3430"
   d="M 423.701,5.034 C 420.461,3.162 416.501,3.882 414.917,6.69 C 413.333,9.426 414.629,13.242 417.94,15.114 C 421.181,16.986 425.14,16.266 426.724,13.458 C 428.31,10.722 427.014,6.906 423.701,5.034 z"
   style="fill:#0d2810;stroke:#000000;stroke-width:7.99100018" />
					<path
   id="path3432"
   d="M 427.301,141.978 C 424.061,140.106 420.102,140.826 418.518,143.634 C 416.934,146.37 418.229,150.186 421.541,152.058 C 424.781,153.93 428.741,153.21 430.325,150.402 C 431.909,147.666 430.613,143.85 427.301,141.978 z"
   style="fill:#0d2810;stroke:#000000;stroke-width:7.99100018" />
					<path
   id="path3434"
   d="M 306.197,48.594 C 302.957,46.722 298.997,47.442 297.413,50.25 C 295.829,52.986 297.125,56.802 300.437,58.674 C 303.676,60.546 307.636,59.826 309.22,57.018 C 310.806,54.282 309.509,50.466 306.197,48.594 z"
   style="fill:#0d2810;stroke:#000000;stroke-width:7.99100018" />
				</g>
				<g
   id="g3436">
					<path
   id="path3438"
   d="M 426.077,7.482 C 422.837,5.609 418.877,6.33 417.293,9.138 C 415.709,11.874 417.005,15.69 420.316,17.562 C 423.556,19.434 427.517,18.713 429.101,15.906 C 430.686,13.17 429.39,9.354 426.077,7.482 z"
   style="fill:#fc1922;stroke:#000000;stroke-width:7.99100018" />
					<path
   id="path3440"
   d="M 429.749,144.57 C 426.509,142.697 422.549,143.418 420.965,146.226 C 419.381,148.962 420.677,152.778 423.989,154.649 C 427.228,156.522 431.189,155.802 432.772,152.994 C 434.356,150.258 433.061,146.442 429.749,144.57 z"
   style="fill:#fc1922;stroke:#000000;stroke-width:7.99100018" />
					<path
   id="path3442"
   d="M 308.717,51.186 C 305.478,49.314 301.518,50.034 299.934,52.842 C 298.35,55.578 299.645,59.394 302.957,61.266 C 306.197,63.138 310.157,62.418 311.741,59.61 C 313.325,56.874 312.029,53.058 308.717,51.186 z"
   style="fill:#fc1922;stroke:#000000;stroke-width:7.99100018" />
				</g>
			</g>
		</g></svg>