<?xml version="1.0" encoding="UTF-8" standalone="no"?>
<!-- Generator: Adobe Illustrator 10, SVG Export Plug-In . SVG Version: 3.0.0 Build 76)  -->
<svg
   xmlns:dc="http://purl.org/dc/elements/1.1/"
   xmlns:cc="http://creativecommons.org/ns#"
   xmlns:rdf="http://www.w3.org/1999/02/22-rdf-syntax-ns#"
   xmlns:svg="http://www.w3.org/2000/svg"
   xmlns="http://www.w3.org/2000/svg"
   xmlns:sodipodi="http://sodipodi.sourceforge.net/DTD/sodipodi-0.dtd"
   xmlns:inkscape="http://www.inkscape.org/namespaces/inkscape"
   width="730.70435"
   height="1055.6097"
   viewBox="0 0 736.128 1128.86"
   style="overflow:visible"
   xml:space="preserve"
   id="svg3451"
   sodipodi:version="0.32"
   inkscape:version="0.46"
   sodipodi:docname="FadingStars.svg"
   inkscape:output_extension="org.inkscape.output.svg.inkscape"
   version="1.0"><metadata
   id="metadata3525"><rdf:RDF><cc:Work
       rdf:about=""><dc:format>image/svg+xml</dc:format><dc:type
         rdf:resource="http://purl.org/dc/dcmitype/StillImage" /></cc:Work></rdf:RDF></metadata><defs
   id="defs3523"><inkscape:perspective
   sodipodi:type="inkscape:persp3d"
   inkscape:vp_x="0 : 564.42999 : 1"
   inkscape:vp_y="0 : 1000 : 0"
   inkscape:vp_z="736.12799 : 564.42999 : 1"
   inkscape:persp3d-origin="368.064 : 376.28666 : 1"
   id="perspective3527" />
		
		
	</defs><sodipodi:namedview
   inkscape:window-height="670"
   inkscape:window-width="640"
   inkscape:pageshadow="2"
   inkscape:pageopacity="0.0"
   guidetolerance="10.0"
   gridtolerance="10.0"
   objecttolerance="10.0"
   borderopacity="1.0"
   bordercolor="#666666"
   pagecolor="#ffffff"
   id="base"
   showgrid="false"
   inkscape:zoom="0.40926245"
   inkscape:cx="368.064"
   inkscape:cy="564.42999"
   inkscape:window-x="0"
   inkscape:window-y="64"
   inkscape:current-layer="svg3451" />
	<style
   type="text/css"
   id="style3453">
	
		@font-face{font-family:'Times-Roman';src:url(A6AD19EA.cef)}
	
	</style>
	
<g
   style="overflow:visible"
   id="g3472"
   transform="matrix(1.0693914,0,0,1.0693914,-28.809744,2.6950661)">
			<g
   id="g3474">
				<path
   id="path3476"
   d="M 611.305,468.974 C 607.442,464.809 597.537,468.083 589.633,476.8 C 572.625,499.044 557.035,522.982 541.807,547.372 C 526.576,571.765 509.975,594.477 489.959,613.055 C 469.943,631.633 446.51,646.072 421.701,658.827 C 396.889,671.585 372.439,684.783 349.395,699.684 C 340.185,706.836 336.203,716.439 340.066,720.604 C 343.564,724.374 347.062,728.144 350.56,731.915 C 354.423,736.08 364.671,733.303 373.888,726.422 C 396.965,712.785 421.462,701.44 446.324,690.687 C 471.186,679.934 494.445,660.411 514.461,641.833 C 534.476,623.254 551.251,605.623 566.43,579.227 C 581.61,552.831 597.15,527.041 614.127,503.536 C 622.023,494.548 625.662,484.45 621.799,480.286 C 618.301,476.515 614.803,472.743 611.305,468.974 z"
   style="fill:#addd95;stroke:#999999;stroke-width:10" />
				<path
   id="path3478"
   d="M 200.295,733.4 C 203.194,736.369 206.509,739 210.009,741.503 C 213.509,744.007 217.174,746.414 220.961,748.733 C 224.747,751.053 228.628,753.311 232.573,755.535 C 236.516,757.759 240.495,759.969 244.46,762.172 C 248.425,764.375 252.359,766.606 256.22,768.879 C 260.082,771.152 263.84,773.488 267.464,775.914 C 271.089,778.339 274.554,780.877 277.813,783.54 C 281.072,786.204 284.097,789.011 286.862,791.993 C 289.627,794.976 292.128,798.128 294.397,801.427 C 296.666,804.727 298.735,808.156 300.638,811.691 C 302.542,815.227 304.311,818.851 305.978,822.538 C 307.646,826.225 309.243,829.957 310.805,833.711 C 312.368,837.466 313.927,841.23 315.515,844.967 C 317.102,848.706 318.749,852.404 320.493,856.043 C 322.237,859.683 324.107,863.241 326.135,866.693 C 328.164,870.145 330.386,873.481 333.022,876.466 C 335.807,879.469 340.524,879.498 343.401,876.331 C 345.858,873.356 348.218,870.254 350.452,866.99 C 352.684,863.727 354.815,860.321 356.86,856.815 C 358.905,853.31 360.893,849.718 362.84,846.085 C 364.786,842.45 366.719,838.79 368.656,835.141 C 370.594,831.492 372.558,827.878 374.576,824.33 C 376.594,820.782 378.68,817.329 380.864,813.997 C 383.049,810.667 385.344,807.489 387.783,804.491 C 390.222,801.493 392.822,798.701 395.601,796.148 C 398.381,793.595 401.345,791.273 404.462,789.159 C 407.581,787.043 410.831,785.111 414.199,783.32 C 417.568,781.529 421.025,779.863 424.553,778.284 C 428.081,776.705 431.655,775.192 435.256,773.706 C 438.859,772.22 442.467,770.737 446.053,769.231 C 449.639,767.725 453.18,766.172 456.662,764.53 C 460.144,762.888 463.538,761.141 466.826,759.249 C 470.115,757.356 473.277,755.295 476.34,753.108 C 479.64,750.489 479.887,745.786 476.936,742.855 C 473.949,740.057 470.877,737.322 467.688,734.697 C 464.498,732.073 461.206,729.541 457.825,727.089 C 454.444,724.639 450.979,722.274 447.455,719.974 C 443.932,717.675 440.36,715.433 436.745,713.256 C 433.13,711.079 429.493,708.942 425.845,706.847 C 422.199,704.752 418.548,702.7 414.914,700.665 C 411.28,698.63 407.673,696.613 404.108,694.605 C 400.544,692.598 397.03,690.606 394.261,687.627 C 391.491,684.648 389.471,680.69 387.505,676.736 C 385.539,672.78 383.616,668.838 381.72,664.906 C 379.824,660.976 377.941,657.075 376.06,653.208 C 374.178,649.341 372.288,645.516 370.37,641.735 C 368.453,637.955 366.5,634.215 364.494,630.552 C 362.488,626.888 360.419,623.304 358.271,619.794 C 356.124,616.283 353.887,612.846 351.545,609.515 C 349.204,606.183 346.746,602.946 344.205,599.784 C 341.521,596.641 336.793,596.522 333.973,599.703 C 331.619,602.722 329.404,605.889 327.37,609.248 C 325.336,612.607 323.456,616.132 321.696,619.782 C 319.936,623.432 318.265,627.187 316.652,631 C 315.039,634.813 313.455,638.67 311.864,642.505 C 310.273,646.342 308.648,650.137 306.954,653.867 C 305.26,657.596 303.469,661.211 301.547,664.693 C 299.625,668.175 297.547,671.49 295.272,674.589 C 292.996,677.688 290.501,680.557 287.749,683.144 C 284.998,685.731 281.987,688.035 278.75,690.097 C 275.513,692.159 272.085,694.022 268.487,695.698 C 264.89,697.374 261.157,698.901 257.323,700.321 C 253.49,701.741 249.592,703.09 245.648,704.393 C 241.704,705.696 237.749,706.982 233.818,708.297 C 229.886,709.611 226.015,710.993 222.222,712.457 C 218.43,713.922 214.76,715.519 211.233,717.271 C 207.706,719.023 204.358,720.962 201.149,723.062 C 197.732,725.6 197.444,730.327 200.295,733.4 z M 340.494,653.744 C 341.85,651.385 344.158,651.202 345.605,653.346 C 348.403,657.59 351.151,661.88 353.83,666.236 C 356.51,670.591 359.133,674.998 361.705,679.452 C 364.278,683.907 366.812,688.394 369.324,692.906 C 371.835,697.418 374.639,702.294 378.605,705.79 C 382.571,709.286 386.985,712.172 391.181,714.869 C 395.378,717.566 399.564,720.326 403.73,723.146 C 407.896,725.967 412.029,728.855 416.114,731.82 C 420.2,734.786 424.221,737.84 428.196,740.953 C 430.207,742.557 429.978,744.969 427.697,746.297 C 423.594,748.64 419.48,750.945 415.357,753.257 C 411.236,755.569 407.14,757.913 403.107,760.337 C 399.075,762.762 395.127,765.316 391.125,768.199 C 387.123,771.084 383.262,774.186 379.592,777.534 C 375.922,780.882 372.445,784.498 369.129,788.342 C 365.814,792.188 362.755,796.106 359.93,800.045 C 357.104,803.985 354.367,808.016 351.67,812.096 C 348.975,816.177 346.295,820.27 343.601,824.352 C 342.084,826.626 339.871,826.709 338.684,824.538 C 336.399,820.253 334.147,815.953 331.891,811.665 C 329.634,807.378 327.329,803.135 324.907,798.974 C 322.484,794.813 319.898,790.766 317.086,786.88 C 314.273,782.994 310.917,779.008 307.304,775.105 C 303.692,771.201 299.943,767.217 295.892,763.452 C 291.84,759.686 287.528,756.091 283.369,753.008 C 279.211,749.924 275.013,747.06 270.742,744.268 C 266.471,741.476 262.166,738.713 257.869,735.945 C 255.688,734.525 255.934,732.399 258.423,731.219 C 262.908,729.155 267.402,727.103 271.883,725.035 C 276.364,722.969 280.778,720.827 285.078,718.564 C 289.377,716.302 293.525,713.874 297.455,711.212 C 301.385,708.55 305.055,705.607 308.429,702.346 C 311.803,699.086 314.991,695.412 318.022,691.42 C 321.052,687.429 323.68,683.416 326.17,679.273 C 328.66,675.13 331.051,670.883 333.403,666.585 C 335.754,662.287 338.106,658.006 340.494,653.744 z"
   style="fill:#ffff99;stroke:#fb9a8f;stroke-width:10" />
			</g>
			<g
   id="g3480">
				<path
   id="path3482"
   d="M 215.125,154.557 C 215.117,160.238 224.598,164.588 236.322,163.592 C 263.927,158.893 291.646,151.988 319.41,144.507 C 347.178,137.025 374.804,131.705 402.111,131.74 C 429.42,131.775 456.41,137.168 483.263,144.729 C 510.117,152.291 537.007,159.284 564.029,164.074 C 575.644,165.111 585.101,160.794 585.109,155.114 C 585.117,149.971 585.125,144.828 585.132,139.685 C 585.141,134.004 575.747,129.055 564.312,127.814 C 538.128,122.076 512.464,113.695 486.939,104.631 C 461.414,95.567 431.085,94.015 403.777,93.982 C 376.469,93.949 352.177,95.429 323.084,104.413 C 293.991,113.397 265.044,121.691 236.604,127.334 C 224.7,128.535 215.157,133.448 215.149,139.129 C 215.141,144.271 215.133,149.414 215.125,154.557 z"
   style="fill:#c2e7ad;stroke:#b3b3b3;stroke-width:10" />
				<path
   id="path3484"
   d="M 696.151,240.96 C 696.05,236.811 695.417,232.627 694.56,228.409 C 693.703,224.192 692.659,219.934 691.467,215.656 C 690.277,211.378 688.972,207.081 687.6,202.767 C 686.228,198.453 684.821,194.124 683.419,189.81 C 682.017,185.496 680.655,181.183 679.378,176.888 C 678.101,172.593 676.94,168.323 675.939,164.078 C 674.938,159.833 674.13,155.615 673.558,151.446 C 672.987,147.276 672.685,143.16 672.693,139.093 C 672.7,135.026 673.016,131.015 673.602,127.054 C 674.189,123.093 675.009,119.173 676.025,115.287 C 677.039,111.401 678.213,107.544 679.504,103.709 C 680.795,99.874 682.167,96.055 683.581,92.241 C 684.995,88.427 686.417,84.61 687.802,80.792 C 689.186,76.974 690.499,73.146 691.701,69.292 C 692.903,65.439 693.96,61.561 694.826,57.652 C 695.692,53.742 696.339,49.787 696.443,45.806 C 696.45,41.71 693.016,38.476 688.753,38.834 C 684.929,39.338 681.087,40.002 677.229,40.87 C 673.372,41.738 669.492,42.78 665.606,43.953 C 661.721,45.126 657.819,46.401 653.918,47.736 C 650.018,49.07 646.109,50.434 642.205,51.785 C 638.3,53.136 634.4,54.443 630.506,55.666 C 626.613,56.89 622.733,57.997 618.865,58.947 C 614.996,59.898 611.151,60.66 607.323,61.193 C 603.496,61.726 599.689,62 595.916,61.974 C 592.143,61.949 588.391,61.63 584.668,61.055 C 580.943,60.479 577.248,59.68 573.563,58.696 C 569.876,57.713 566.209,56.577 562.551,55.33 C 558.892,54.083 555.246,52.756 551.598,51.39 C 547.948,50.024 544.295,48.652 540.645,47.311 C 536.995,45.97 533.344,44.695 529.676,43.525 C 526.008,42.355 522.333,41.322 518.636,40.466 C 514.94,39.611 511.219,38.966 507.489,38.482 C 503.29,38.151 499.905,41.425 500.069,45.582 C 500.349,49.665 500.734,53.76 501.282,57.854 C 501.83,61.949 502.514,66.045 503.319,70.143 C 504.124,74.241 505.051,78.332 506.064,82.416 C 507.077,86.5 508.165,90.574 509.328,94.63 C 510.491,98.687 511.698,102.729 512.942,106.747 C 514.186,110.766 515.459,114.755 516.734,118.72 C 518.008,122.684 519.274,126.619 520.516,130.517 C 521.758,134.415 522.973,138.266 522.972,142.333 C 522.969,146.4 521.752,150.674 520.498,154.908 C 519.242,159.142 517.965,163.34 516.675,167.509 C 515.386,171.678 514.107,175.817 512.85,179.93 C 511.593,184.042 510.371,188.131 509.2,192.205 C 508.028,196.278 506.911,200.347 505.885,204.395 C 504.858,208.443 503.931,212.477 503.113,216.509 C 502.294,220.542 501.589,224.583 501.033,228.616 C 500.478,232.649 500.072,236.693 499.778,240.74 C 499.603,244.869 502.983,248.178 507.215,247.77 C 510.994,247.163 514.774,246.355 518.55,245.28 C 522.326,244.206 526.105,242.908 529.88,241.433 C 533.654,239.958 537.436,238.349 541.214,236.656 C 544.992,234.964 548.779,233.22 552.557,231.496 C 556.335,229.771 560.111,228.1 563.891,226.523 C 567.672,224.946 571.446,223.52 575.225,222.28 C 579.004,221.04 582.784,220.029 586.561,219.311 C 590.338,218.593 594.119,218.192 597.896,218.172 C 601.672,218.152 605.446,218.517 609.221,219.213 C 612.996,219.908 616.773,220.88 620.549,222.104 C 624.324,223.327 628.096,224.753 631.87,226.325 C 635.644,227.896 639.417,229.564 643.191,231.297 C 646.966,233.029 650.738,234.782 654.511,236.498 C 658.284,238.213 662.061,239.838 665.835,241.351 C 669.608,242.863 673.383,244.194 677.158,245.313 C 680.933,246.432 684.706,247.293 688.485,247.943 C 692.714,248.415 696.145,245.151 696.151,240.96 z M 539.252,203.77 C 536.651,204.572 534.837,203.134 535.237,200.579 C 536.08,195.566 536.99,190.554 537.996,185.539 C 539.002,180.525 540.084,175.513 541.234,170.499 C 542.384,165.485 543.588,160.473 544.822,155.46 C 546.056,150.446 547.325,144.966 546.802,139.705 C 546.281,134.444 545.015,129.325 543.781,124.491 C 542.547,119.657 541.362,114.787 540.234,109.883 C 539.105,104.98 538.046,100.051 537.076,95.097 C 536.105,90.142 535.241,85.168 534.453,80.181 C 534.073,77.637 535.883,76.027 538.457,76.609 C 543.057,77.689 547.641,78.803 552.232,79.919 C 556.825,81.035 561.42,82.108 566.024,83.081 C 570.628,84.054 575.257,84.873 580.152,85.488 C 585.048,86.103 589.987,86.462 594.955,86.511 C 599.922,86.561 604.931,86.282 609.976,85.726 C 615.023,85.17 619.931,84.385 624.684,83.426 C 629.437,82.467 634.187,81.38 638.939,80.23 C 643.693,79.08 648.443,77.908 653.196,76.755 C 655.855,76.123 657.533,77.57 656.922,79.968 C 655.676,84.663 654.395,89.345 653.127,94.021 C 651.857,98.696 650.654,103.373 649.594,108.069 C 648.532,112.765 647.669,117.49 647.081,122.251 C 646.493,127.012 646.235,132.216 646.221,137.535 C 646.206,142.854 646.237,148.324 646.638,153.841 C 647.038,159.358 647.746,164.928 648.69,170.019 C 649.634,175.109 650.756,180.065 651.981,185.019 C 653.206,189.973 654.475,194.928 655.735,199.881 C 656.365,202.406 654.736,203.795 652.111,202.964 C 647.421,201.421 642.734,199.862 638.046,198.322 C 633.357,196.782 628.667,195.343 623.978,194.071 C 619.289,192.799 614.598,191.751 609.908,191.022 C 605.219,190.293 600.527,189.948 595.836,190.037 C 591.145,190.125 586.308,190.643 581.37,191.501 C 576.432,192.359 571.775,193.505 567.129,194.843 C 562.484,196.181 557.841,197.66 553.191,199.204 C 548.541,200.744 543.902,202.275 539.252,203.77 z"
   style="fill:#ffffb3;stroke:#fcb4a7;stroke-width:10" />
			</g>
			<g
   id="g3486">
				<path
   id="path3488"
   d="M 235.457,595.598 C 232.057,600.148 237.059,609.301 247.056,615.508 C 271.997,628.237 298.349,639.264 325.082,649.856 C 351.816,660.45 377.147,672.693 399.022,689.04 C 420.897,705.386 439.317,725.839 456.33,747.948 C 473.344,770.058 490.726,791.734 509.531,811.722 C 518.224,819.493 528.385,821.683 531.787,817.134 C 534.867,813.015 537.946,808.896 541.025,804.777 C 544.427,800.227 539.851,790.645 531.424,782.817 C 513.859,762.57 498.289,740.514 483.237,717.993 C 468.186,695.472 444.798,676.105 422.921,659.76 C 401.043,643.415 380.681,630.085 351.984,619.903 C 323.288,609.721 295.122,599.075 268.946,586.604 C 258.683,580.454 248.096,578.691 244.694,583.241 C 241.616,587.358 238.537,591.478 235.457,595.598 z"
   style="fill:#85cb6b;stroke:#666666;stroke-width:10" />
				<path
   id="path3490"
   d="M 569.523,952.322 C 571.922,948.935 573.914,945.202 575.748,941.308 C 577.581,937.414 579.289,933.376 580.89,929.235 C 582.491,925.092 584.014,920.868 585.491,916.589 C 586.969,912.31 588.427,907.999 589.882,903.702 C 591.335,899.405 592.821,895.134 594.362,890.927 C 595.905,886.719 597.526,882.602 599.259,878.601 C 600.992,874.599 602.865,870.734 604.899,867.049 C 606.932,863.363 609.15,859.882 611.587,856.626 C 614.023,853.369 616.674,850.343 619.511,847.517 C 622.348,844.691 625.349,842.039 628.485,839.531 C 631.621,837.021 634.867,834.631 638.193,832.327 C 641.52,830.023 644.903,827.781 648.316,825.568 C 651.728,823.355 655.149,821.144 658.541,818.91 C 661.932,816.677 665.273,814.39 668.54,812.02 C 671.806,809.649 674.971,807.17 678.002,804.553 C 681.032,801.937 683.914,799.151 686.377,796.022 C 688.829,792.741 688.01,788.096 684.377,785.835 C 681.008,783.954 677.531,782.19 673.92,780.581 C 670.309,778.972 666.574,777.488 662.758,776.107 C 658.942,774.726 655.051,773.418 651.125,772.156 C 647.2,770.894 643.252,769.652 639.313,768.402 C 635.375,767.152 631.467,765.87 627.615,764.525 C 623.762,763.179 619.989,761.748 616.319,760.198 C 612.649,758.65 609.111,756.963 605.723,755.102 C 602.335,753.243 599.12,751.188 596.11,748.913 C 593.098,746.638 590.281,744.14 587.639,741.454 C 584.997,738.767 582.512,735.918 580.144,732.927 C 577.776,729.935 575.515,726.834 573.327,723.648 C 571.139,720.46 569.009,717.219 566.898,713.943 C 564.787,710.667 562.68,707.384 560.553,704.128 C 558.426,700.872 556.262,697.668 554.02,694.537 C 551.778,691.407 549.45,688.384 546.997,685.489 C 544.544,682.594 541.946,679.854 539.244,677.236 C 536.075,674.461 531.403,675.064 529.052,678.495 C 526.837,681.936 524.698,685.449 522.691,689.06 C 520.684,692.67 518.785,696.364 516.982,700.13 C 515.179,703.896 513.476,707.731 511.849,711.611 C 510.22,715.491 508.658,719.406 507.167,723.355 C 505.676,727.302 504.228,731.265 502.823,735.23 C 501.418,739.195 500.055,743.155 498.71,747.095 C 497.362,751.035 496.026,754.947 494.692,758.815 C 493.36,762.682 492.033,766.497 489.6,769.756 C 487.168,773.017 483.639,775.717 480.102,778.361 C 476.566,781.006 473.034,783.607 469.508,786.179 C 465.983,788.752 462.484,791.306 459.018,793.853 C 455.553,796.4 452.129,798.949 448.756,801.514 C 445.383,804.08 442.056,806.675 438.813,809.307 C 435.571,811.939 432.417,814.62 429.351,817.364 C 426.284,820.108 423.305,822.926 420.45,825.829 C 417.595,828.732 414.851,831.732 412.198,834.801 C 409.59,838.007 410.323,842.68 413.96,844.881 C 417.353,846.652 420.866,848.263 424.536,849.658 C 428.207,851.054 432.013,852.27 435.92,853.344 C 439.827,854.418 443.821,855.387 447.862,856.287 C 451.903,857.187 455.982,858.052 460.042,858.927 C 464.101,859.802 468.127,860.718 472.101,861.713 C 476.076,862.708 479.954,863.819 483.724,865.084 C 487.495,866.348 491.13,867.795 494.587,869.477 C 498.044,871.159 501.316,873.097 504.357,875.338 C 507.397,877.578 510.205,880.125 512.816,882.939 C 515.427,885.753 517.876,888.789 520.171,892.026 C 522.468,895.263 524.64,898.66 526.727,902.176 C 528.814,905.692 530.842,909.283 532.834,912.928 C 534.825,916.573 536.802,920.233 538.802,923.863 C 540.804,927.494 542.86,931.053 544.983,934.521 C 547.105,937.988 549.337,941.31 551.695,944.463 C 554.053,947.617 556.564,950.563 559.206,953.342 C 562.312,956.247 567.015,955.68 569.523,952.322 z M 465.941,828.744 C 463.377,827.834 462.781,825.597 464.629,823.786 C 468.3,820.271 472.026,816.797 475.828,813.377 C 479.63,809.957 483.493,806.585 487.412,803.252 C 491.33,799.92 495.29,796.619 499.275,793.338 C 503.261,790.056 507.553,786.419 510.278,781.889 C 513.005,777.36 515.049,772.497 516.946,767.884 C 518.844,763.271 520.805,758.657 522.831,754.052 C 524.856,749.446 526.954,744.861 529.136,740.309 C 531.318,735.756 533.598,731.251 535.947,726.781 C 537.162,724.514 539.576,724.305 541.292,726.31 C 544.334,729.923 547.344,733.556 550.359,737.196 C 553.374,740.836 556.418,744.441 559.528,747.972 C 562.638,751.502 565.861,754.927 569.419,758.345 C 572.977,761.763 576.723,765.002 580.676,768.01 C 584.629,771.019 588.812,773.788 593.191,776.357 C 597.57,778.927 601.973,781.231 606.358,783.302 C 610.743,785.372 615.2,787.339 619.698,789.257 C 624.198,791.175 628.706,793.074 633.206,794.989 C 635.717,796.072 636.196,798.235 634.274,799.793 C 630.469,802.812 626.644,805.802 622.833,808.792 C 619.022,811.782 615.263,814.814 611.605,817.946 C 607.948,821.077 604.432,824.349 601.116,827.815 C 597.8,831.281 594.483,835.3 591.293,839.555 C 588.103,843.812 584.858,848.216 581.884,852.879 C 578.908,857.542 576.148,862.431 573.863,867.076 C 571.578,871.722 569.515,876.367 567.538,881.07 C 565.561,885.773 563.617,890.506 561.667,895.23 C 560.662,897.631 558.527,897.771 556.92,895.537 C 554.08,891.496 551.254,887.445 548.415,883.409 C 545.575,879.372 542.674,875.417 539.676,871.594 C 536.676,867.772 533.541,864.128 530.216,860.741 C 526.891,857.354 523.334,854.274 519.521,851.542 C 515.708,848.809 511.519,846.334 507.047,844.071 C 502.574,841.808 498.156,839.945 493.631,838.242 C 489.108,836.538 484.5,834.95 479.85,833.409 C 475.2,831.868 470.564,830.325 465.941,828.744 z"
   style="fill:#ffff66;stroke:#fa6762;stroke-width:10" />
			</g>
			<g
   id="g3492">
				<path
   id="path3494"
   d="M 217.824,554.577 C 212.319,553.177 205.777,561.302 203.868,572.913 C 201.654,600.826 201.552,629.392 201.997,658.143 C 202.442,686.897 200.826,714.985 194.096,741.451 C 187.367,767.916 175.521,792.761 161.606,816.939 C 147.69,841.12 134.318,865.475 123.049,890.497 C 119.195,901.505 121.062,911.73 126.567,913.131 C 131.551,914.401 136.535,915.668 141.519,916.937 C 147.024,918.338 154.125,910.445 158.132,899.663 C 170.114,875.685 184.533,852.861 199.578,830.337 C 214.623,807.813 223.564,778.792 230.293,752.324 C 237.021,725.857 241.542,701.944 239.966,671.536 C 238.391,641.128 237.446,611.032 238.949,582.076 C 240.704,570.241 238.28,559.785 232.775,558.384 C 227.792,557.114 222.809,555.847 217.824,554.577 z"
   style="fill:#99d47f;stroke:#7f7f7f;stroke-width:10" />
				<path
   id="path3496"
   d="M 16.114,999.734 C 20.161,1000.655 24.373,1001.065 28.671,1001.268 C 32.97,1001.472 37.354,1001.503 41.794,1001.397 C 46.233,1001.292 50.719,1001.082 55.237,1000.809 C 59.756,1000.536 64.297,1000.233 68.823,999.932 C 73.349,999.63 77.865,999.369 82.342,999.183 C 86.819,998.996 91.243,998.918 95.604,998.989 C 99.965,999.059 104.252,999.311 108.435,999.779 C 112.618,1000.247 116.682,1000.964 120.623,1001.968 C 124.564,1002.972 128.374,1004.262 132.071,1005.801 C 135.767,1007.341 139.366,1009.098 142.884,1011.035 C 146.402,1012.972 149.854,1015.055 153.255,1017.247 C 156.656,1019.438 160.023,1021.706 163.373,1024.012 C 166.724,1026.318 170.076,1028.632 173.437,1030.91 C 176.798,1033.188 180.189,1035.4 183.629,1037.512 C 187.069,1039.621 190.57,1041.597 194.148,1043.396 C 197.726,1045.194 201.402,1046.79 205.236,1047.868 C 209.205,1048.878 213.183,1046.344 213.882,1042.122 C 214.33,1038.29 214.629,1034.402 214.734,1030.45 C 214.839,1026.497 214.779,1022.48 214.595,1018.426 C 214.41,1014.372 214.13,1010.277 213.794,1006.167 C 213.457,1002.059 213.093,997.935 212.741,993.818 C 212.388,989.701 212.077,985.6 211.846,981.525 C 211.615,977.451 211.493,973.418 211.52,969.434 C 211.547,965.45 211.751,961.536 212.172,957.694 C 212.594,953.852 213.262,950.096 214.212,946.444 C 215.162,942.792 216.391,939.233 217.862,935.763 C 219.333,932.295 221.014,928.909 222.872,925.575 C 224.73,922.241 226.729,918.967 228.835,915.725 C 230.942,912.484 233.122,909.275 235.341,906.071 C 237.56,902.868 239.786,899.664 241.981,896.454 C 244.175,893.243 246.307,890.017 248.341,886.747 C 250.374,883.478 252.277,880.17 254.012,876.796 C 255.747,873.421 257.284,869.973 258.669,866.475 C 260.02,862.485 257.675,858.401 253.605,857.54 C 249.579,856.811 245.515,856.18 241.411,855.707 C 237.307,855.234 233.168,854.894 228.998,854.67 C 224.828,854.445 220.634,854.34 216.427,854.321 C 212.219,854.301 208.003,854.356 203.785,854.49 C 199.567,854.624 195.352,854.802 191.152,855.022 C 186.952,855.243 182.772,855.5 178.615,855.763 C 174.458,856.026 170.334,856.288 166.251,856.537 C 162.168,856.786 158.136,857.02 154.193,856.02 C 150.25,855.02 146.405,852.793 142.608,850.539 C 138.811,848.283 135.056,846.016 131.33,843.743 C 127.604,841.47 123.905,839.217 120.226,836.989 C 116.547,834.761 112.882,832.575 109.221,830.441 C 105.559,828.306 101.889,826.225 98.216,824.237 C 94.543,822.249 90.86,820.362 87.151,818.579 C 83.443,816.796 79.698,815.122 75.923,813.595 C 72.149,812.068 68.328,810.683 64.477,809.406 C 60.517,808.222 56.48,810.689 55.838,814.891 C 55.5,818.703 55.357,822.566 55.473,826.491 C 55.589,830.416 55.921,834.397 56.425,838.418 C 56.928,842.439 57.562,846.5 58.277,850.578 C 58.992,854.655 59.754,858.755 60.499,862.84 C 61.245,866.926 61.939,870.996 62.541,875.048 C 63.143,879.101 63.6,883.109 63.875,887.076 C 64.151,891.044 64.205,894.956 63.975,898.793 C 63.745,902.63 63.206,906.396 62.299,910.061 C 61.392,913.728 60.114,917.296 58.514,920.786 C 56.914,924.276 55.046,927.7 52.934,931.059 C 50.822,934.419 48.515,937.727 46.066,941 C 43.616,944.273 41.074,947.521 38.469,950.758 C 35.865,953.992 33.24,957.218 30.652,960.456 C 28.063,963.694 25.562,966.956 23.171,970.245 C 20.78,973.532 18.565,976.865 16.553,980.251 C 14.542,983.637 12.782,987.083 11.226,990.588 C 9.729,994.573 12.052,998.7 16.114,999.734 z M 90.64,856.743 C 90.5,854.025 92.338,852.618 94.718,853.634 C 99.371,855.68 104.007,857.792 108.621,859.996 C 113.235,862.2 117.829,864.477 122.408,866.822 C 126.987,869.168 131.551,871.561 136.108,873.988 C 140.666,876.415 145.668,878.988 150.897,879.772 C 156.125,880.556 161.399,880.584 166.388,880.572 C 171.376,880.56 176.389,880.606 181.419,880.715 C 186.449,880.824 191.487,881.006 196.528,881.28 C 201.569,881.552 206.604,881.935 211.632,882.393 C 214.192,882.649 215.308,884.798 214.113,887.151 C 211.938,891.345 209.734,895.516 207.526,899.694 C 205.318,903.873 203.151,908.065 201.079,912.29 C 199.008,916.515 197.077,920.803 195.281,925.397 C 193.485,929.992 191.926,934.693 190.66,939.497 C 189.394,944.301 188.436,949.224 187.738,954.253 C 187.04,959.282 186.597,964.232 186.362,969.075 C 186.127,973.918 186.015,978.789 185.966,983.679 C 185.915,988.569 185.886,993.461 185.839,998.352 C 185.799,1001.085 183.985,1002.357 181.811,1001.176 C 177.565,998.817 173.339,996.427 169.118,994.051 C 164.896,991.673 160.657,989.361 156.365,987.181 C 152.072,985.001 147.703,983.005 143.232,981.268 C 138.76,979.531 133.778,978.005 128.626,976.686 C 123.473,975.368 118.162,974.056 112.715,973.092 C 107.269,972.127 101.695,971.448 96.528,971.115 C 91.361,970.782 86.281,970.655 81.179,970.627 C 76.076,970.601 70.961,970.616 65.85,970.623 C 63.247,970.613 62.3,968.694 63.75,966.353 C 66.396,962.184 69.057,958.023 71.699,953.855 C 74.341,949.687 76.886,945.493 79.269,941.258 C 81.653,937.025 83.819,932.734 85.676,928.366 C 87.532,923.997 89.016,919.533 90.081,914.964 C 91.146,910.395 91.83,905.578 92.209,900.58 C 92.587,895.583 92.618,890.787 92.46,885.955 C 92.302,881.124 92.006,876.259 91.65,871.374 C 91.295,866.49 90.948,861.618 90.64,856.743 z"
   style="fill:#ffff7f;stroke:#fa8076;stroke-width:10" />
			</g>
			<g
   id="g3498">
				<path
   id="path3500"
   d="M 604.136,326.192 C 607.048,321.315 601.124,312.729 590.539,307.59 C 564.414,297.512 537.061,289.274 509.376,281.506 C 481.688,273.738 455.227,264.184 431.777,250.192 C 408.326,236.199 387.888,217.763 368.677,197.535 C 349.466,177.305 329.933,157.546 309.159,139.613 C 299.708,132.782 289.374,131.657 286.462,136.535 C 283.825,140.951 281.19,145.366 278.553,149.783 C 275.641,154.66 281.184,163.717 290.376,170.63 C 309.944,188.949 327.713,209.274 345.015,230.114 C 362.318,250.956 387.585,267.797 411.038,281.788 C 434.489,295.78 456.122,306.929 485.718,314.085 C 515.314,321.241 544.431,328.913 571.757,338.606 C 582.601,343.661 593.314,344.317 596.226,339.44 C 598.863,335.024 601.5,330.608 604.136,326.192 z"
   style="fill:#47ab3a;stroke:#1a1a1a;stroke-width:10" />
				<path
   id="path3502"
   d="M 234.931,5.982 C 232.896,9.599 231.301,13.519 229.881,17.581 C 228.461,21.643 227.182,25.837 226.018,30.122 C 224.854,34.408 223.778,38.767 222.751,43.176 C 221.724,47.585 220.72,52.024 219.719,56.448 C 218.718,60.872 217.682,65.275 216.585,69.619 C 215.487,73.964 214.301,78.226 212.991,82.386 C 211.681,86.546 210.218,90.584 208.577,94.459 C 206.936,98.334 205.091,102.027 203.005,105.518 C 200.919,109.009 198.597,112.294 196.067,115.398 C 193.538,118.502 190.828,121.451 187.968,124.271 C 185.11,127.092 182.128,129.806 179.058,132.441 C 175.987,135.077 172.855,137.657 169.69,140.212 C 166.525,142.766 163.351,145.32 160.209,147.893 C 157.067,150.466 153.981,153.085 150.977,155.781 C 147.974,158.477 145.083,161.27 142.34,164.186 C 139.596,167.103 137.019,170.172 134.893,173.54 C 132.794,177.057 134.09,181.592 137.937,183.464 C 141.482,184.985 145.123,186.38 148.882,187.607 C 152.641,188.834 156.508,189.922 160.447,190.9 C 164.385,191.878 168.391,192.777 172.426,193.625 C 176.461,194.473 180.516,195.3 184.563,196.135 C 188.609,196.97 192.629,197.841 196.601,198.781 C 200.573,199.721 204.473,200.753 208.284,201.914 C 212.094,203.075 215.789,204.386 219.351,205.885 C 222.913,207.384 226.323,209.095 229.553,211.046 C 232.783,212.998 235.845,215.19 238.75,217.588 C 241.655,219.987 244.423,222.564 247.087,225.294 C 249.753,228.024 252.323,230.874 254.829,233.817 C 257.336,236.759 259.79,239.763 262.227,242.803 C 264.665,245.842 267.102,248.889 269.555,251.908 C 272.006,254.926 274.492,257.888 277.045,260.77 C 279.599,263.65 282.229,266.417 284.969,269.042 C 287.708,271.667 290.575,274.123 293.533,276.446 C 296.973,278.879 301.556,277.796 303.541,274.139 C 305.387,270.487 307.15,266.772 308.773,262.973 C 310.396,259.174 311.902,255.303 313.305,251.369 C 314.708,247.437 316.003,243.447 317.222,239.419 C 318.439,235.391 319.588,231.335 320.661,227.254 C 321.735,223.172 322.765,219.081 323.752,214.992 C 324.737,210.903 325.683,206.824 326.614,202.765 C 327.546,198.706 328.47,194.677 329.395,190.692 C 330.321,186.707 331.246,182.776 333.327,179.282 C 335.409,175.788 338.639,172.737 341.884,169.74 C 345.128,166.743 348.372,163.789 351.612,160.865 C 354.852,157.941 358.067,155.039 361.25,152.147 C 364.434,149.255 367.574,146.366 370.664,143.464 C 373.754,140.562 376.794,137.637 379.746,134.684 C 382.699,131.73 385.558,128.737 388.324,125.69 C 391.09,122.643 393.762,119.531 396.301,116.349 C 398.841,113.167 401.258,109.898 403.579,106.572 C 405.842,103.113 404.628,98.541 400.783,96.728 C 397.224,95.317 393.563,94.08 389.768,93.072 C 385.973,92.064 382.062,91.248 378.064,90.585 C 374.066,89.922 369.994,89.372 365.881,88.895 C 361.769,88.418 357.622,87.98 353.494,87.53 C 349.366,87.08 345.266,86.587 341.212,86.008 C 337.155,85.43 333.184,84.726 329.302,83.859 C 325.42,82.992 321.656,81.929 318.042,80.614 C 314.43,79.3 310.976,77.711 307.72,75.797 C 304.464,73.883 301.408,71.64 298.519,69.112 C 295.63,66.584 292.88,63.818 290.262,60.836 C 287.643,57.854 285.13,54.7 282.691,51.419 C 280.252,48.138 277.862,44.776 275.503,41.357 C 273.144,37.939 270.8,34.503 268.434,31.1 C 266.068,27.696 263.654,24.368 261.184,21.14 C 258.714,17.911 256.15,14.838 253.478,11.945 C 250.806,9.052 248.004,6.383 245.088,3.892 C 241.697,1.333 237.079,2.383 234.931,5.982 z M 350.751,118.169 C 353.397,118.809 354.221,120.972 352.569,122.964 C 349.281,126.84 345.935,130.683 342.508,134.477 C 339.08,138.272 335.587,142.026 332.034,145.746 C 328.482,149.466 324.886,153.159 321.262,156.836 C 317.637,160.514 313.745,164.575 311.503,169.362 C 309.262,174.15 307.732,179.197 306.321,183.983 C 304.911,188.768 303.438,193.559 301.901,198.35 C 300.363,203.141 298.752,207.918 297.053,212.672 C 295.354,217.426 293.553,222.143 291.68,226.832 C 290.705,229.212 288.326,229.671 286.412,227.854 C 283.012,224.574 279.642,221.272 276.266,217.965 C 272.89,214.657 269.49,211.385 266.031,208.196 C 262.571,205.007 259.011,201.934 255.12,198.903 C 251.227,195.872 247.166,193.038 242.923,190.455 C 238.68,187.873 234.233,185.551 229.611,183.449 C 224.989,181.347 220.371,179.511 215.796,177.906 C 211.221,176.301 206.584,174.805 201.911,173.364 C 197.238,171.923 192.557,170.5 187.883,169.061 C 185.274,168.244 184.572,166.142 186.324,164.394 C 189.796,160.997 193.29,157.627 196.771,154.258 C 200.252,150.889 203.677,147.485 206.99,143.991 C 210.303,140.498 213.461,136.879 216.401,133.088 C 219.341,129.297 222.223,124.957 224.956,120.394 C 227.688,115.83 230.458,111.113 232.935,106.168 C 235.412,101.222 237.652,96.073 239.443,91.215 C 241.236,86.358 242.805,81.525 244.285,76.642 C 245.765,71.759 247.209,66.851 248.659,61.95 C 249.409,59.458 251.519,59.097 253.349,61.154 C 256.59,64.878 259.822,68.614 263.064,72.335 C 266.306,76.056 269.601,79.69 272.98,83.182 C 276.359,86.674 279.854,89.973 283.511,92.997 C 287.169,96.021 291.025,98.716 295.102,101.039 C 299.178,103.362 303.6,105.39 308.283,107.177 C 312.965,108.965 317.553,110.361 322.229,111.586 C 326.906,112.812 331.652,113.914 336.437,114.965 C 341.222,116.019 345.99,117.075 350.751,118.169 z"
   style="fill:#ffff1a;stroke:#fb1b2d;stroke-width:10" />
			</g>
			<g
   id="g3504">
				<path
   id="path3506"
   d="M 443.701,228.179 C 439.051,224.917 430.053,230.194 424.149,240.372 C 412.178,265.686 401.951,292.358 392.17,319.398 C 382.387,346.44 370.914,372.127 355.234,394.485 C 339.555,416.843 319.667,435.872 298.081,453.543 C 276.494,471.216 255.352,489.243 235.939,508.642 C 228.433,517.566 226.55,527.789 231.201,531.052 C 235.411,534.005 239.621,536.959 243.832,539.913 C 248.482,543.176 257.921,538.314 265.492,529.654 C 285.2,511.486 306.776,495.259 328.833,479.536 C 350.89,463.813 369.543,439.85 385.221,417.491 C 400.899,395.132 413.609,374.377 422.921,345.387 C 432.233,316.397 442.025,287.923 453.701,261.383 C 459.539,250.94 460.981,240.304 456.332,237.041 C 452.121,234.087 447.912,231.134 443.701,228.179 z"
   style="fill:#5cb648;stroke:#333333;stroke-width:10" />
				<path
   id="path3508"
   d="M 97.213,572.847 C 100.67,575.143 104.462,577.021 108.409,578.736 C 112.356,580.451 116.444,582.036 120.632,583.511 C 124.82,584.986 129.089,586.381 133.41,587.728 C 137.732,589.077 142.085,590.404 146.424,591.728 C 150.762,593.052 155.077,594.408 159.329,595.823 C 163.581,597.237 167.745,598.733 171.797,600.345 C 175.849,601.957 179.769,603.713 183.513,605.635 C 187.258,607.556 190.804,609.667 194.132,612.004 C 197.461,614.341 200.566,616.9 203.476,619.65 C 206.386,622.4 209.127,625.32 211.73,628.379 C 214.333,631.438 216.82,634.61 219.223,637.865 C 221.626,641.121 223.969,644.435 226.284,647.779 C 228.598,651.123 230.912,654.476 233.247,657.799 C 235.582,661.122 237.968,664.393 240.435,667.586 C 242.904,670.778 245.476,673.867 248.183,676.818 C 250.89,679.768 253.762,682.564 256.964,684.931 C 260.317,687.284 264.935,686.325 267.085,682.624 C 268.863,679.201 270.522,675.673 272.022,672.014 C 273.522,668.356 274.891,664.579 276.156,660.723 C 277.422,656.867 278.613,652.939 279.756,648.977 C 280.899,645.015 282.021,641.032 283.152,637.057 C 284.282,633.083 285.446,629.138 286.675,625.246 C 287.904,621.354 289.221,617.54 290.658,613.825 C 292.095,610.11 293.676,606.522 295.431,603.081 C 297.188,599.639 299.146,596.363 301.328,593.285 C 303.512,590.206 305.923,587.314 308.529,584.594 C 311.134,581.872 313.908,579.302 316.827,576.845 C 319.745,574.389 322.776,572.034 325.895,569.751 C 329.014,567.468 332.191,565.24 335.402,563.032 C 338.613,560.825 341.831,558.618 345.022,556.395 C 348.211,554.17 351.349,551.911 354.411,549.575 C 357.472,547.24 360.424,544.821 363.243,542.282 C 366.063,539.743 368.723,537.063 371.259,534.284 C 373.937,531.032 373.193,526.382 369.693,524.134 C 366.187,522.025 362.611,519.993 358.942,518.095 C 355.273,516.198 351.523,514.411 347.704,512.722 C 343.885,511.034 340.001,509.449 336.074,507.938 C 332.146,506.427 328.185,504.984 324.193,503.613 C 320.203,502.242 316.199,500.914 312.193,499.63 C 308.187,498.346 304.188,497.104 300.209,495.875 C 296.23,494.648 292.279,493.43 288.374,492.215 C 284.469,490.998 280.615,489.787 277.284,487.455 C 273.952,485.121 271.146,481.676 268.396,478.221 C 265.646,474.765 262.939,471.313 260.261,467.867 C 257.583,464.421 254.925,461.001 252.275,457.614 C 249.626,454.226 246.974,450.882 244.308,447.588 C 241.641,444.294 238.948,441.046 236.219,437.884 C 233.49,434.723 230.716,431.652 227.88,428.669 C 225.045,425.687 222.138,422.794 219.151,420.026 C 216.164,417.259 213.082,414.609 209.935,412.049 C 206.652,409.538 202.004,410.412 199.913,414.113 C 198.245,417.558 196.741,421.118 195.457,424.829 C 194.173,428.539 193.072,432.38 192.116,436.318 C 191.16,440.256 190.313,444.277 189.535,448.343 C 188.756,452.409 188.014,456.513 187.263,460.597 C 186.512,464.681 185.717,468.732 184.843,472.734 C 183.968,476.737 182.974,480.646 181.824,484.455 C 180.674,488.262 179.337,491.939 177.761,495.445 C 176.184,498.951 174.345,502.279 172.197,505.385 C 170.049,508.491 167.588,511.374 164.854,514.07 C 162.121,516.765 159.16,519.303 155.993,521.696 C 152.826,524.09 149.496,526.363 146.045,528.554 C 142.594,530.746 139.065,532.882 135.482,534.984 C 131.899,537.084 128.301,539.17 124.732,541.279 C 121.163,543.388 117.668,545.55 114.266,547.777 C 110.865,550.004 107.611,552.334 104.53,554.786 C 101.448,557.238 98.581,559.836 95.882,562.561 C 93.073,565.757 93.781,570.439 97.213,572.847 z M 217.611,465.587 C 218.444,462.995 220.662,462.333 222.528,464.126 C 226.152,467.689 229.737,471.309 233.27,475.006 C 236.802,478.703 240.29,482.463 243.739,486.278 C 247.188,490.094 250.606,493.953 254.007,497.839 C 257.407,501.724 261.172,505.903 265.782,508.491 C 270.392,511.079 275.313,512.975 279.981,514.733 C 284.65,516.492 289.32,518.313 293.985,520.199 C 298.65,522.085 303.296,524.042 307.912,526.086 C 312.528,528.13 317.1,530.273 321.64,532.485 C 323.943,533.631 324.224,536.038 322.272,537.813 C 318.751,540.963 315.21,544.081 311.664,547.205 C 308.118,550.329 304.604,553.479 301.17,556.694 C 297.734,559.91 294.408,563.234 291.1,566.893 C 287.791,570.551 284.666,574.393 281.779,578.436 C 278.891,582.478 276.249,586.743 273.813,591.197 C 271.375,595.651 269.207,600.122 267.269,604.567 C 265.331,609.011 263.499,613.527 261.718,618.081 C 259.936,622.635 258.174,627.199 256.395,631.756 C 255.388,634.297 253.241,634.842 251.626,632.968 C 248.494,629.255 245.391,625.523 242.286,621.803 C 239.181,618.083 236.038,614.418 232.798,610.857 C 229.558,607.296 226.181,603.88 222.617,600.669 C 219.052,597.459 214.935,594.265 210.585,591.205 C 206.234,588.144 201.734,585.035 196.984,582.201 C 192.234,579.368 187.264,576.756 182.551,574.612 C 177.838,572.467 173.134,570.547 168.373,568.712 C 163.612,566.876 158.823,565.077 154.042,563.271 C 151.612,562.339 151.408,560.209 153.593,558.535 C 157.546,555.576 161.51,552.629 165.458,549.668 C 169.407,546.709 173.274,543.689 177.004,540.576 C 180.734,537.463 184.282,534.221 187.566,530.795 C 190.851,527.369 193.822,523.722 196.439,519.826 C 199.055,515.931 201.403,511.672 203.53,507.133 C 205.656,502.596 207.386,498.122 208.952,493.549 C 210.518,488.975 211.967,484.322 213.367,479.628 C 214.767,474.933 216.17,470.254 217.611,465.587 z"
   style="fill:#ffff33;stroke:#fa343d;stroke-width:10" />
			</g>
			<g
   id="g3510">
				<path
   id="path3512"
   d="M 243.065,603.239 C 244.314,608.78 254.523,610.925 265.736,607.359 C 291.617,596.671 317.122,583.803 342.544,570.365 C 367.968,556.926 393.732,545.626 420.371,539.618 C 447.01,533.611 474.525,532.898 502.387,534.332 C 530.248,535.767 558.02,536.636 585.432,535.329 C 596.989,533.77 605.256,527.469 604.007,521.927 C 602.877,516.91 601.746,511.894 600.615,506.876 C 599.367,501.333 589.111,498.585 577.685,499.905 C 550.88,500.102 523.998,497.606 497.1,494.414 C 470.202,491.223 440.282,496.418 413.642,502.427 C 387.002,508.437 363.64,515.255 337.255,530.452 C 310.869,545.649 284.476,560.141 257.987,571.937 C 246.644,575.742 238.425,582.645 239.674,588.186 C 240.805,593.204 241.936,598.222 243.065,603.239 z"
   style="fill:#70c059;stroke:#4d4d4d;stroke-width:10" />
				<path
   id="path3514"
   d="M 731.289,581.081 C 730.274,577.057 728.73,573.116 726.961,569.194 C 725.193,565.27 723.232,561.348 721.125,557.44 C 719.017,553.532 716.795,549.629 714.502,545.726 C 712.209,541.823 709.879,537.913 707.558,534.016 C 705.237,530.119 702.954,526.213 700.758,522.307 C 698.562,518.402 696.486,514.495 694.57,510.577 C 692.654,506.659 690.933,502.723 689.454,498.784 C 687.974,494.845 686.768,490.896 685.877,486.929 C 684.983,482.961 684.404,478.98 684.1,474.988 C 683.796,470.996 683.73,466.991 683.86,462.976 C 683.99,458.962 684.282,454.941 684.692,450.915 C 685.102,446.889 685.596,442.861 686.131,438.83 C 686.666,434.798 687.207,430.761 687.713,426.731 C 688.219,422.701 688.652,418.676 688.973,414.653 C 689.294,410.63 689.465,406.614 689.446,402.61 C 689.427,398.606 689.18,394.605 688.402,390.7 C 687.503,386.704 683.439,384.309 679.359,385.601 C 675.741,386.94 672.141,388.437 668.571,390.136 C 665.001,391.836 661.448,393.711 657.919,395.714 C 654.39,397.718 650.866,399.825 647.357,401.989 C 643.848,404.153 640.339,406.347 636.83,408.529 C 633.321,410.711 629.807,412.847 626.281,414.902 C 622.754,416.957 619.215,418.894 615.652,420.677 C 612.091,422.46 608.509,424.054 604.894,425.421 C 601.279,426.788 597.628,427.896 593.943,428.706 C 590.256,429.517 586.527,430.036 582.769,430.298 C 579.01,430.562 575.229,430.599 571.416,430.455 C 567.603,430.311 563.776,430.015 559.933,429.608 C 556.089,429.201 552.241,428.713 548.378,428.188 C 544.518,427.665 540.652,427.133 536.796,426.634 C 532.939,426.135 529.097,425.697 525.261,425.368 C 521.425,425.039 517.613,424.845 513.818,424.828 C 510.024,424.812 506.254,425.007 502.508,425.359 C 498.339,425.965 495.763,429.908 496.842,433.925 C 498.019,437.844 499.3,441.752 500.74,445.624 C 502.18,449.495 503.754,453.339 505.446,457.157 C 507.137,460.974 508.946,464.761 510.837,468.518 C 512.73,472.278 514.691,476.009 516.723,479.707 C 518.755,483.406 520.827,487.081 522.929,490.725 C 525.031,494.369 527.155,497.978 529.275,501.562 C 531.396,505.147 533.5,508.704 535.574,512.23 C 537.648,515.756 539.685,519.243 540.583,523.209 C 541.48,527.177 541.24,531.613 540.953,536.021 C 540.666,540.429 540.348,544.804 540.013,549.155 C 539.678,553.507 539.346,557.825 539.03,562.114 C 538.715,566.403 538.428,570.661 538.186,574.893 C 537.946,579.124 537.755,583.339 537.65,587.514 C 537.544,591.689 537.533,595.828 537.626,599.942 C 537.72,604.056 537.926,608.153 538.276,612.21 C 538.628,616.266 539.126,620.3 539.735,624.311 C 540.477,628.377 544.506,630.856 548.542,629.523 C 552.094,628.094 555.601,626.469 559.046,624.586 C 562.491,622.702 565.889,620.601 569.244,618.327 C 572.599,616.055 575.931,613.647 579.24,611.161 C 582.551,608.675 585.858,606.136 589.161,603.619 C 592.464,601.101 595.776,598.636 599.114,596.262 C 602.453,593.888 605.817,591.662 609.229,589.616 C 612.639,587.571 616.102,585.749 619.625,584.214 C 623.15,582.678 626.749,581.451 630.428,580.596 C 634.107,579.742 637.867,579.262 641.702,579.105 C 645.537,578.948 649.436,579.06 653.389,579.418 C 657.342,579.775 661.336,580.331 665.364,581.029 C 669.393,581.727 673.442,582.519 677.507,583.373 C 681.572,584.227 685.637,585.102 689.696,585.94 C 693.757,586.779 697.798,587.528 701.813,588.168 C 705.828,588.808 709.803,589.271 713.733,589.527 C 717.663,589.783 721.532,589.789 725.362,589.586 C 729.587,589.112 732.211,585.17 731.289,581.081 z M 570.049,579.523 C 567.692,580.88 565.604,579.88 565.428,577.299 C 565.142,572.224 564.921,567.134 564.792,562.022 C 564.664,556.911 564.609,551.783 564.623,546.639 C 564.635,541.494 564.699,536.34 564.795,531.178 C 564.89,526.016 564.914,520.391 563.24,515.375 C 561.568,510.359 559.201,505.646 556.928,501.207 C 554.655,496.766 552.422,492.277 550.237,487.746 C 548.051,483.213 545.929,478.641 543.886,474.023 C 541.844,469.407 539.901,464.746 538.028,460.057 C 537.094,457.66 538.505,455.69 541.143,455.688 C 545.868,455.723 550.584,455.796 555.309,455.869 C 560.036,455.941 564.754,455.971 569.458,455.9 C 574.163,455.83 578.859,455.605 583.77,455.123 C 588.68,454.64 593.577,453.896 598.432,452.846 C 603.286,451.795 608.11,450.415 612.908,448.756 C 617.707,447.098 622.319,445.246 626.742,443.26 C 631.165,441.272 635.557,439.162 639.937,436.989 C 644.318,434.815 648.691,432.622 653.071,430.446 C 655.526,429.241 657.481,430.282 657.416,432.755 C 657.239,437.609 657.026,442.46 656.823,447.3 C 656.62,452.141 656.481,456.968 656.486,461.782 C 656.491,466.596 656.694,471.395 657.174,476.169 C 657.653,480.941 658.554,486.073 659.716,491.264 C 660.878,496.455 662.118,501.783 663.73,507.074 C 665.341,512.366 667.264,517.64 669.311,522.396 C 671.358,527.152 673.548,531.738 675.838,536.296 C 678.128,540.857 680.462,545.408 682.787,549.96 C 683.96,552.284 682.679,553.998 679.934,553.768 C 675.019,553.301 670.103,552.818 665.19,552.353 C 660.277,551.888 655.384,551.523 650.53,551.32 C 645.676,551.116 640.87,551.132 636.134,551.459 C 631.4,551.785 626.747,552.488 622.193,553.611 C 617.637,554.735 613.035,556.31 608.41,558.24 C 603.784,560.169 599.496,562.316 595.262,564.649 C 591.028,566.982 586.826,569.452 582.633,571.986 C 578.439,574.519 574.254,577.038 570.049,579.523 z"
   style="fill:#ffff4d;stroke:#fa4e4e;stroke-width:10" />
			</g>
			<g
   id="g3516">
				<path
   id="path3518"
   d="M 470.276,691.965 C 475.957,691.965 480.292,682.477 479.278,670.754 C 474.539,643.157 467.591,615.449 460.068,587.696 C 452.546,559.941 447.184,532.323 447.177,505.016 C 447.171,477.708 452.523,450.709 460.044,423.846 C 467.565,396.981 474.519,370.08 479.267,343.053 C 480.287,331.436 475.956,321.987 470.276,321.987 C 465.133,321.987 459.99,321.987 454.847,321.987 C 449.166,321.987 444.232,331.387 443.008,342.825 C 437.31,369.016 428.967,394.692 419.942,420.23 C 410.918,445.769 409.41,476.098 409.418,503.407 C 409.427,530.716 410.943,555.005 419.971,584.084 C 428.998,613.164 437.335,642.097 443.021,670.527 C 444.241,682.429 449.167,691.965 454.848,691.965 C 459.99,691.965 465.133,691.965 470.276,691.965 z"
   style="fill:#33a02c;stroke:#000000;stroke-width:10" />
				<path
   id="path3520"
   d="M 555.955,210.818 C 551.807,210.924 547.623,211.565 543.407,212.428 C 539.191,213.291 534.934,214.342 530.658,215.539 C 526.383,216.737 522.088,218.046 517.775,219.425 C 513.463,220.804 509.137,222.217 504.826,223.626 C 500.514,225.034 496.203,226.402 491.91,227.686 C 487.617,228.97 483.349,230.137 479.106,231.145 C 474.863,232.153 470.646,232.965 466.477,233.543 C 462.308,234.121 458.193,234.43 454.126,234.428 C 450.059,234.428 446.047,234.117 442.085,233.537 C 438.124,232.957 434.202,232.141 430.315,231.132 C 426.428,230.123 422.569,228.955 418.733,227.67 C 414.895,226.385 411.075,225.018 407.258,223.609 C 403.443,222.201 399.623,220.785 395.804,219.406 C 391.984,218.028 388.153,216.72 384.299,215.523 C 380.444,214.327 376.564,213.276 372.653,212.416 C 368.742,211.556 364.786,210.916 360.804,210.817 C 356.708,210.817 353.48,214.255 353.844,218.518 C 354.355,222.341 355.024,226.182 355.898,230.039 C 356.771,233.895 357.819,237.773 358.998,241.657 C 360.178,245.541 361.459,249.44 362.799,253.34 C 364.139,257.238 365.508,261.145 366.865,265.047 C 368.222,268.949 369.535,272.848 370.763,276.739 C 371.993,280.631 373.105,284.51 374.062,288.376 C 375.019,292.242 375.787,296.086 376.326,299.913 C 376.865,303.74 377.144,307.545 377.125,311.319 C 377.105,315.092 376.792,318.844 376.222,322.569 C 375.653,326.294 374.858,329.99 373.88,333.677 C 372.901,337.365 371.772,341.032 370.529,344.694 C 369.288,348.355 367.967,352.002 366.606,355.654 C 365.246,359.304 363.878,362.959 362.544,366.612 C 361.209,370.265 359.939,373.917 358.774,377.587 C 357.61,381.256 356.583,384.933 355.733,388.631 C 354.883,392.328 354.245,396.049 353.765,399.78 C 353.44,403.98 356.719,407.36 360.875,407.189 C 364.958,406.903 369.052,406.512 373.146,405.959 C 377.24,405.404 381.334,404.714 385.431,403.902 C 389.528,403.091 393.618,402.158 397.7,401.139 C 401.782,400.119 405.854,399.027 409.909,397.857 C 413.964,396.687 418.005,395.474 422.02,394.224 C 426.037,392.975 430.024,391.696 433.987,390.415 C 437.95,389.134 441.883,387.862 445.778,386.614 C 449.673,385.366 453.523,384.145 457.59,384.141 C 461.656,384.137 465.932,385.346 470.168,386.595 C 474.404,387.844 478.604,389.116 482.774,390.399 C 486.944,391.682 491.086,392.955 495.2,394.206 C 499.314,395.457 503.406,396.673 507.48,397.837 C 511.556,399.003 515.626,400.114 519.675,401.136 C 523.724,402.157 527.759,403.077 531.793,403.89 C 535.827,404.703 539.868,405.402 543.902,405.951 C 547.936,406.501 551.981,406.9 556.028,407.188 C 560.157,407.357 563.461,403.972 563.048,399.742 C 562.435,395.964 561.62,392.185 560.54,388.41 C 559.46,384.636 558.155,380.859 556.677,377.086 C 555.197,373.315 553.581,369.535 551.883,365.76 C 550.185,361.985 548.435,358.199 546.704,354.425 C 544.975,350.651 543.298,346.877 541.715,343.099 C 540.133,339.32 538.701,335.549 537.456,331.772 C 536.21,327.995 535.192,324.216 534.47,320.441 C 533.746,316.666 533.339,312.885 533.314,309.108 C 533.289,305.332 533.648,301.557 534.337,297.782 C 535.026,294.006 535.993,290.227 537.21,286.45 C 538.429,282.673 539.849,278.898 541.415,275.122 C 542.981,271.346 544.644,267.57 546.369,263.793 C 548.096,260.016 549.844,256.241 551.554,252.466 C 553.263,248.689 554.883,244.911 556.389,241.135 C 557.895,237.359 559.22,233.583 560.334,229.806 C 561.447,226.029 562.303,222.254 562.947,218.474 C 563.415,214.244 560.146,210.818 555.955,210.818 z M 519,367.771 C 519.807,370.371 518.372,372.187 515.815,371.791 C 510.801,370.955 505.788,370.052 500.773,369.055 C 495.757,368.057 490.744,366.983 485.728,365.839 C 480.712,364.695 475.699,363.501 470.683,362.274 C 465.668,361.047 460.186,359.788 454.926,360.317 C 449.665,360.846 444.548,362.12 439.716,363.362 C 434.885,364.604 430.016,365.796 425.114,366.93 C 420.213,368.067 415.285,369.132 410.333,370.11 C 405.38,371.089 400.406,371.961 395.421,372.756 C 392.877,373.14 391.265,371.332 391.843,368.757 C 392.916,364.156 394.024,359.57 395.133,354.977 C 396.241,350.383 397.308,345.786 398.273,341.181 C 399.239,336.577 400.052,331.945 400.66,327.049 C 401.268,322.153 401.619,317.213 401.66,312.246 C 401.703,307.278 401.417,302.27 400.852,297.225 C 400.289,292.18 399.497,287.273 398.531,282.522 C 397.564,277.771 396.47,273.022 395.312,268.272 C 394.155,263.52 392.976,258.772 391.816,254.021 C 391.18,251.362 392.625,249.682 395.023,250.29 C 399.72,251.53 404.404,252.803 409.082,254.065 C 413.76,255.327 418.437,256.522 423.136,257.577 C 427.834,258.63 432.559,259.487 437.322,260.067 C 442.084,260.648 447.288,260.898 452.606,260.905 C 457.925,260.912 463.395,260.872 468.911,260.464 C 474.428,260.056 479.997,259.339 485.086,258.388 C 490.175,257.436 495.129,256.306 500.08,255.075 C 505.032,253.844 509.985,252.566 514.936,251.299 C 517.461,250.666 518.852,252.292 518.024,254.918 C 516.489,259.61 514.936,264.3 513.403,268.99 C 511.871,273.681 510.439,278.374 509.174,283.064 C 507.907,287.755 506.867,292.448 506.146,297.138 C 505.424,301.829 505.087,306.522 505.182,311.212 C 505.277,315.903 505.802,320.739 506.667,325.676 C 507.532,330.612 508.687,335.267 510.03,339.91 C 511.376,344.554 512.862,349.195 514.412,353.842 C 515.962,358.489 517.5,363.122 519,367.771 z"
   style="fill:#ffff00;stroke:#fb001f;stroke-width:10" />
			</g>
		</g></svg>