<?xml version="1.0" encoding="UTF-8" standalone="no"?>
<!-- Generator: Adobe Illustrator 10, SVG Export Plug-In . SVG Version: 3.0.0 Build 76)  -->
<svg
   xmlns:dc="http://purl.org/dc/elements/1.1/"
   xmlns:cc="http://creativecommons.org/ns#"
   xmlns:rdf="http://www.w3.org/1999/02/22-rdf-syntax-ns#"
   xmlns:svg="http://www.w3.org/2000/svg"
   xmlns="http://www.w3.org/2000/svg"
   xmlns:sodipodi="http://sodipodi.sourceforge.net/DTD/sodipodi-0.dtd"
   xmlns:inkscape="http://www.inkscape.org/namespaces/inkscape"
   width="565.73145"
   height="527.19916"
   viewBox="0 0 570.587 603.551"
   style="overflow:visible"
   xml:space="preserve"
   id="svg3529"
   sodipodi:version="0.32"
   inkscape:version="0.46"
   sodipodi:docname="Noentry.svg"
   inkscape:output_extension="org.inkscape.output.svg.inkscape"
   version="1.0"><metadata
   id="metadata3577"><rdf:RDF><cc:Work
       rdf:about=""><dc:format>image/svg+xml</dc:format><dc:type
         rdf:resource="http://purl.org/dc/dcmitype/StillImage" /></cc:Work></rdf:RDF></metadata><defs
   id="defs3575"><inkscape:perspective
   sodipodi:type="inkscape:persp3d"
   inkscape:vp_x="0 : 301.77551 : 1"
   inkscape:vp_y="0 : 1000 : 0"
   inkscape:vp_z="570.58698 : 301.77551 : 1"
   inkscape:persp3d-origin="285.29349 : 201.18368 : 1"
   id="perspective3579" />
		
		
	</defs><sodipodi:namedview
   inkscape:window-height="670"
   inkscape:window-width="640"
   inkscape:pageshadow="2"
   inkscape:pageopacity="0.0"
   guidetolerance="10.0"
   gridtolerance="10.0"
   objecttolerance="10.0"
   borderopacity="1.0"
   bordercolor="#666666"
   pagecolor="#ffffff"
   id="base"
   showgrid="false"
   inkscape:zoom="0.76546966"
   inkscape:cx="285.29349"
   inkscape:cy="301.77551"
   inkscape:window-x="64"
   inkscape:window-y="0"
   inkscape:current-layer="svg3529" />
	<style
   type="text/css"
   id="style3531">
	
		@font-face{font-family:'Times-Roman';src:url(5887FEA5.cef)}
	
	</style>
	
<g
   transform="matrix(1.1448254,0,0,1.1448254,-44.096521,1.0875361e-3)"
   style="overflow:visible"
   id="g3550">
			<g
   id="g3552">
				<path
   id="path3554"
   d="M 460.197,128.915 C 454.808,140.116 449.777,150.674 444.812,160.424 C 439.847,170.173 434.584,179.273 428.587,187.891 C 422.589,196.51 415.44,204.772 406.982,212.821 C 398.523,220.87 388.661,228.809 377.711,236.733 C 360.719,227.926 343.018,219.204 324.563,210.598 C 306.107,201.991 287.188,193.534 268.04,185.244 C 248.891,176.955 229.677,168.889 210.519,161.117 C 191.36,153.346 172.303,145.941 153.296,138.839 C 142.186,134.842 128.989,135.437 123.792,140.408 C 121.686,142.41 119.562,144.416 117.441,146.429 C 112.087,150.904 117.072,156.46 128.645,160.154 C 148.287,167.361 167.74,174.844 186.91,182.683 C 206.079,190.521 224.867,198.648 243.112,207.013 C 261.358,215.378 278.863,223.947 295.296,232.689 C 311.729,241.429 326.777,250.339 340.626,259.367 C 325.026,267.659 308.116,276.134 289.683,284.868 C 271.25,293.603 251.764,301.414 231.694,307.465 C 211.624,313.518 191.363,319.334 171.363,324.975 C 151.363,330.616 131.969,336.188 113.212,341.752 C 102.585,345.043 98.136,352 104.629,357.467 C 106.721,359.709 108.837,361.979 110.962,364.26 C 116.364,370.071 127.971,372.551 135.869,369.635 C 151.959,364.586 169.988,359.406 189.305,353.947 C 208.621,348.488 228.89,342.668 249.689,336.445 C 270.487,330.22 291.447,321.507 311.997,312.479 C 332.548,303.45 352.392,294.559 371.557,285.831 C 379.952,295.467 387.204,305.196 393.085,315.173 C 398.966,325.15 403.776,335.408 407.733,345.69 C 411.69,355.972 415.19,366.737 418.683,378.014 C 422.176,389.289 426.075,401.241 430.412,413.721 C 433.306,421.34 444.803,422.475 456.336,416.088 C 461.084,413.494 465.897,410.908 470.807,408.34 C 483.258,402.856 492.27,393.692 490.729,386.426 C 488.186,374.563 485.58,363.371 482.581,352.946 C 479.582,342.521 475.804,331.237 470.852,320.647 C 465.901,310.057 459.456,299.988 451.111,290.31 C 442.767,280.631 432.144,271.237 419.982,262.046 C 434.544,253.924 447.752,245.887 458.789,237.885 C 469.825,229.883 478.992,221.818 486.529,213.569 C 494.066,205.319 500.185,196.758 505.297,187.311 C 510.407,177.863 514.815,166.666 519.011,154.76 C 521.457,147.412 513.4,138.024 501.248,134.082 C 496.435,132.492 491.687,130.845 486.988,128.219 C 475.523,121.634 463.588,122.036 460.197,128.915 z"
   style="fill:#213b8b;stroke:#2168ad;stroke-width:11.8032999" />
				<path
   id="path3556"
   d="M 534.008,94.908 C 553.44,84.881 562.913,57.852 564.57,36.041 C 566.226,14.229 549.756,2.756 529.269,6.652 C 508.783,10.549 486.486,37.949 488.767,64.47 C 491.048,90.991 514.576,103.39 534.008,94.908 z"
   style="fill:#213b8b;stroke:#2168ad;stroke-width:11.8032999" />
				<path
   id="path3558"
   d="M 485.593,520.673 C 503.249,525.146 516.003,504.802 523.018,483.743 C 530.034,462.682 525.732,437.905 506.456,430.368 C 487.179,422.831 461.624,439.53 456.247,464.843 C 450.87,490.156 467.943,516.203 485.593,520.673 z"
   style="fill:#213b8b;stroke:#2168ad;stroke-width:11.8032999" />
				<path
   id="path3560"
   d="M 56.915,139.548 C 80.439,136.115 91.736,123.452 89.102,111.542 C 86.467,99.634 65.042,93.424 44.457,97.444 C 23.872,101.465 9.305,113.301 10.872,125.681 C 12.439,138.061 32.606,143.873 56.915,139.548 z"
   style="fill:#213b8b;stroke:#2168ad;stroke-width:11.8032999" />
				<path
   id="path3562"
   d="M 72.592,410.289 C 90.249,413.281 99.894,405.555 95.534,392.143 C 91.174,378.731 77.046,365.666 57.219,364.383 C 37.392,363.1 21.449,373.434 28.335,385.713 C 35.221,397.99 54.936,408.431 72.592,410.289 z"
   style="fill:#213b8b;stroke:#2168ad;stroke-width:11.8032999" />
			</g>
			<path
   id="path3564"
   d="M 554.115,244.674 C 562.945,243.052 567.385,236.221 563.388,229.429 C 559.057,222.56 548.652,219.044 540.556,220.646 C 531.548,222.689 524.043,225.03 518.488,227.725 C 512.933,230.42 508.129,233.358 503.361,236.353 C 498.593,239.347 493.372,242.298 487.14,245.056 C 480.911,247.812 473.242,250.249 464.317,252.384 C 455.271,253.976 448.658,261.273 449.47,269.359 C 448.882,277.927 456.486,283.939 466.595,282.009 C 476.753,279.443 485.668,276.489 493.058,273.116 C 500.447,269.744 506.703,266.206 512.338,262.684 C 517.974,259.164 523.503,255.751 529.692,252.658 C 535.881,249.565 544.117,246.923 554.115,244.674 z"
   style="fill:#ff3600;stroke:#660047;stroke-width:10" />
			<path
   id="path3566"
   d="M 265.957,273.648 C 272.488,275.322 282.186,269.774 286.1,261.736 C 288.84,253.881 283.835,246.633 276.189,245.168 C 265.813,243.119 254.49,240.928 243.651,242.039 C 232.813,243.152 221.833,244.265 210.714,245.383 C 199.595,246.501 188.013,244.759 176.147,242.426 C 164.28,240.094 152.164,237.725 139.893,235.4 C 128.915,233.386 121.629,238.942 123.278,247.996 C 124.262,256.211 132.553,263.184 142.611,264.469 C 153.794,266.263 164.756,268.361 175.443,270.775 C 186.13,273.191 197.807,272.689 209.381,272.3 C 220.955,271.911 232.422,271.586 242.548,270.474 C 252.677,269.361 259.174,271.371 265.957,273.648 z"
   style="fill:#ff3600;stroke:#660047;stroke-width:10" />
			<path
   id="path3568"
   d="M 370.398,316.509 C 374.906,307.98 363.41,301.49 344.783,301.919 C 333.341,302.442 321.543,309.81 316.403,318.45 C 310.388,328.284 303.949,338.171 297.973,348.104 C 291.998,358.04 286.786,367.166 279.946,377.051 C 273.106,386.934 266.859,396.684 262.169,406.274 C 257.48,415.864 254.715,425.249 253.5,434.547 C 253.851,442.594 270.805,452.258 290.273,454.91 C 309.515,457.174 323.659,450.799 323.099,440.953 C 323.474,429.894 324.831,418.961 327.39,408.232 C 329.95,397.505 333.578,386.976 338.04,376.634 C 342.503,366.29 347.663,356.155 353.351,346.134 C 359.039,336.113 364.964,326.277 370.398,316.509 z"
   style="fill:#ff3600;stroke:#660047;stroke-width:10" />
			<path
   id="path3570"
   d="M 293.529,92.593 C 288.256,77.64 278.459,64.714 269.97,65.491 C 261.427,66.299 257.572,80.553 262.75,95.577 C 265.905,103.162 269.235,110.295 272.719,116.864 C 276.203,123.434 279.681,129.468 283.02,134.913 C 289.698,145.802 295.193,154.82 300.7,163.608 C 306.208,172.395 311.756,181.011 317.418,189.521 C 323.08,198.032 328.863,206.5 334.163,214.971 C 338.237,222.469 348.126,227.325 359.87,225.975 C 374.667,224.671 382.318,217.873 377.1,211.084 C 370.934,203.757 363.883,195.596 356.904,187.203 C 349.925,178.812 343.274,170.445 336.56,161.613 C 329.846,152.781 322.831,143.072 315.427,131.894 C 308.025,120.72 300.545,107.537 293.529,92.593 z"
   style="fill:#ff3600;stroke:#660047;stroke-width:10" />
			<path
   id="path3572"
   d="M 469.461,179.07 C 457.934,179.064 446.406,179.058 434.879,179.052 C 423.352,179.046 411.832,179.041 400.211,179.035 C 388.589,179.03 376.963,179.024 365.407,179.018 C 353.851,179.012 342.344,179.006 330.838,179 C 319.332,178.995 307.836,178.99 296.301,178.984 C 284.766,178.978 273.178,178.972 261.512,178.966 C 249.846,178.961 238.073,178.955 226.166,178.95 C 214.26,178.944 202.194,178.938 190.005,178.932 C 181.596,178.928 177.996,183.664 181.915,189.557 C 185.244,194.848 188.412,200.196 191.259,205.604 C 194.106,211.012 196.597,216.495 198.673,222.053 C 200.748,227.613 202.371,233.266 203.468,239.005 C 204.565,244.744 205.11,250.526 204.887,255.868 C 204.664,261.21 203.541,266.549 201.63,271.89 C 199.719,277.231 197.119,282.57 193.963,287.911 C 190.807,293.253 187.196,298.593 183.147,303.933 C 179.098,309.275 174.763,314.614 170.334,319.954 C 165.35,325.938 167.803,331.796 175.789,333.056 C 187.45,334.976 199.111,336.927 210.772,338.867 C 222.433,340.806 234.093,342.67 245.75,344.379 C 257.407,346.09 269.068,347.574 280.676,348.449 C 292.285,349.324 303.83,349.607 315.428,349.89 C 327.026,350.173 338.679,350.456 350.346,350.761 C 362.013,351.064 373.734,351.423 385.526,351.663 C 397.319,351.903 408.979,352.167 420.639,352.563 C 432.301,352.961 443.961,353.516 455.621,354.208 C 463.617,354.747 476.212,349.614 483.644,342.659 C 490.172,335.704 496.466,328.719 502.349,321.87 C 508.232,315.02 513.566,308.305 518.208,301.696 C 522.85,295.087 526.683,288.598 529.531,282.199 C 532.38,275.799 534.122,269.491 534.648,263.546 C 535.174,257.601 534.42,251.714 532.613,245.854 C 530.806,239.994 528.018,234.132 524.392,228.234 C 520.766,222.336 516.426,216.384 511.518,210.354 C 506.608,204.324 501.216,198.191 495.614,191.976 C 489.127,184.904 477.365,179.074 469.461,179.07 z M 450.92,315 C 446.823,319.941 438.922,323.778 433.432,323.59 C 425.436,323.322 417.395,323.083 409.301,322.871 C 401.207,322.66 393.154,322.473 385.117,322.296 C 377.08,322.119 369.089,321.969 361.101,321.822 C 353.113,321.675 345.116,321.525 337.156,321.377 C 329.197,321.229 321.258,321.081 313.331,320.934 C 305.403,320.786 297.449,320.637 289.448,320.49 C 281.447,320.343 273.449,320.194 265.448,319.344 C 257.447,318.494 249.45,317.403 241.452,316.302 C 235.962,315.528 234.244,311.502 237.482,307.319 C 242.938,299.85 247.839,292.381 251.668,284.366 C 255.497,276.35 257.961,268.059 258.742,260.05 C 259.522,252.04 258.788,244.255 256.932,236.62 C 255.077,228.985 252.23,221.474 248.83,214.047 C 246.695,209.91 249.387,206.632 254.978,206.716 C 263.09,206.837 271.18,206.958 279.235,207.079 C 287.29,207.201 295.299,207.323 303.297,207.444 C 311.293,207.565 319.272,207.686 327.233,207.808 C 335.194,207.93 343.162,208.051 351.126,208.172 C 359.091,208.293 367.071,208.415 375.054,208.537 C 383.035,208.658 391.021,208.779 399.058,208.901 C 407.096,209.023 415.162,209.144 423.238,209.265 C 431.314,209.386 439.3,209.508 447.285,209.63 C 452.767,209.712 459.892,213.362 463.017,217.755 C 468.009,225.553 472.206,233.331 474.919,241.109 C 477.632,248.887 478.624,256.711 477.554,264.689 C 476.483,272.668 473.417,280.906 468.667,289.304 C 463.919,297.703 457.791,306.291 450.92,315 z"
   style="fill:#ffff00;stroke:#000000;stroke-width:10" />
		</g></svg>