<?xml version="1.0" encoding="UTF-8" standalone="no"?>
<!-- Generator: Adobe Illustrator 10, SVG Export Plug-In . SVG Version: 3.0.0 Build 76)  -->
<svg
   xmlns:dc="http://purl.org/dc/elements/1.1/"
   xmlns:cc="http://creativecommons.org/ns#"
   xmlns:rdf="http://www.w3.org/1999/02/22-rdf-syntax-ns#"
   xmlns:svg="http://www.w3.org/2000/svg"
   xmlns="http://www.w3.org/2000/svg"
   xmlns:sodipodi="http://sodipodi.sourceforge.net/DTD/sodipodi-0.dtd"
   xmlns:inkscape="http://www.inkscape.org/namespaces/inkscape"
   width="415.53088"
   height="398.25183"
   viewBox="0 0 468.311 479.349"
   style="overflow:visible"
   xml:space="preserve"
   id="svg3581"
   sodipodi:version="0.32"
   inkscape:version="0.46"
   sodipodi:docname="Probe.svg"
   inkscape:output_extension="org.inkscape.output.svg.inkscape"
   version="1.0"><metadata
   id="metadata3631"><rdf:RDF><cc:Work
       rdf:about=""><dc:format>image/svg+xml</dc:format><dc:type
         rdf:resource="http://purl.org/dc/dcmitype/StillImage" /></cc:Work></rdf:RDF></metadata><defs
   id="defs3629"><inkscape:perspective
   sodipodi:type="inkscape:persp3d"
   inkscape:vp_x="0 : 239.6745 : 1"
   inkscape:vp_y="0 : 1000 : 0"
   inkscape:vp_z="468.311 : 239.6745 : 1"
   inkscape:persp3d-origin="234.1555 : 159.783 : 1"
   id="perspective3633" />
		
		
	</defs><sodipodi:namedview
   inkscape:window-height="670"
   inkscape:window-width="640"
   inkscape:pageshadow="2"
   inkscape:pageopacity="0.0"
   guidetolerance="10.0"
   gridtolerance="10.0"
   objecttolerance="10.0"
   borderopacity="1.0"
   bordercolor="#666666"
   pagecolor="#ffffff"
   id="base"
   showgrid="false"
   inkscape:zoom="0.96380717"
   inkscape:cx="234.1555"
   inkscape:cy="239.6745"
   inkscape:window-x="0"
   inkscape:window-y="0"
   inkscape:current-layer="svg3581" />
	<style
   type="text/css"
   id="style3583">
	
		@font-face{font-family:'Times-Roman';src:url(2640C4C2.cef)}
	
	</style>
	
<g
   transform="matrix(1.2036329,0,0,1.2036329,-26.359603,1.9598806e-2)"
   style="overflow:visible"
   id="g3602">
			<g
   id="g3604">
				<path
   id="path3606"
   d="M 408.671,193.522 C 409.466,189.905 406.879,185.444 401.407,180.631 C 398.671,178.223 395.199,175.824 391.053,173.464 C 386.907,171.104 382.123,168.832 376.742,166.69 C 371.361,164.548 365.404,162.579 358.947,160.784 C 355.718,159.887 352.369,159.071 348.899,158.304 C 345.428,157.536 341.841,156.824 338.154,156.189 C 334.467,155.554 330.683,154.98 326.672,154.472 C 322.662,153.962 318.511,153.525 314.307,153.276 C 310.103,153.027 305.846,152.975 301.547,152.955 C 297.249,152.935 292.893,152.941 288.511,152.984 C 293.518,148.502 298.297,144.066 302.701,139.685 C 307.106,135.303 311.13,130.972 314.549,126.691 C 317.969,122.411 321.009,118.175 323.703,113.986 C 326.397,109.797 328.758,105.652 330.816,101.546 C 332.877,97.44 334.695,93.383 336.3,89.368 C 337.905,85.353 339.327,81.383 340.687,77.472 C 342.046,73.56 343.361,69.702 344.732,66.229 C 346.103,62.754 347.588,60.033 349.211,57.27 C 345.075,53.781 340.957,50.24 336.879,47.927 C 334.992,51.749 333.294,55.624 331.775,59.562 C 330.255,63.499 328.828,67.488 327.429,71.076 C 326.029,74.664 324.575,78.16 323.001,81.842 C 321.426,85.524 319.694,89.412 317.716,93.544 C 315.738,97.676 313.487,102.061 310.933,106.707 C 308.379,111.353 305.49,116.268 302.204,121.274 C 298.917,126.28 295.127,130.659 290.954,135.081 C 286.782,139.503 282.228,143.973 277.446,148.477 C 276.73,145.181 275.87,141.955 274.815,138.802 C 273.76,135.649 272.53,132.159 271.153,127.823 C 269.774,123.489 268.186,119.237 266.454,115.088 C 264.724,110.939 262.887,106.88 260.975,102.942 C 259.063,99.004 257.1,95.163 255.079,91.444 C 253.059,87.723 250.999,84.125 248.911,80.651 C 244.735,73.704 240.551,67.268 236.458,61.421 C 232.365,55.572 228.383,50.325 224.612,45.748 C 220.841,41.171 217.3,37.266 214.869,34.134 C 210.007,27.872 204.877,24.62 201.378,24.959 C 197.899,25.296 196.312,29.111 196.347,35.748 C 196.365,39.067 195.503,43.084 196.052,47.712 C 196.601,52.34 197.707,57.577 199.017,63.347 C 200.327,69.116 201.773,75.414 203.33,82.17 C 204.108,85.548 204.865,89.037 205.613,92.632 C 206.361,96.228 207.103,99.927 207.754,103.722 C 208.405,107.519 208.983,111.41 209.516,115.391 C 210.049,119.373 210.526,123.439 210.945,127.591 C 211.364,131.743 211.716,135.976 211.986,140.047 C 212.256,144.119 212.437,147.394 212.576,150.728 C 208.457,148.276 204.253,145.82 199.935,142.503 C 195.618,139.187 191.193,135.677 186.638,132.177 C 182.083,128.678 177.41,125.204 172.614,121.73 C 167.818,118.254 162.884,114.783 157.815,111.296 C 152.747,107.81 147.526,104.304 142.151,100.757 C 136.775,97.21 131.233,93.616 125.5,89.947 C 119.768,86.278 113.844,82.518 107.699,78.657 C 101.554,74.797 95.971,70.802 91.205,66.718 C 87.853,68.519 84.482,70.255 81.082,71.911 C 86.712,76.222 93.065,80.417 99.19,84.468 C 105.315,88.519 111.227,92.446 116.94,96.268 C 122.652,100.09 128.176,103.825 133.529,107.492 C 138.883,111.158 144.07,114.773 149.103,118.349 C 154.137,121.924 159.024,125.474 163.771,129.009 C 168.518,132.546 173.132,136.079 177.615,139.613 C 182.097,143.147 186.445,146.695 190.672,149.483 C 194.899,152.27 199.001,154.698 203.021,157.135 C 198.374,157.527 193.757,157.944 189.168,158.383 C 184.58,158.822 180.013,159.291 175.472,159.772 C 170.931,160.251 166.415,160.606 161.945,160.441 C 157.474,160.276 153.043,160.071 148.668,159.837 C 144.292,159.604 139.975,159.345 135.724,159.052 C 131.473,158.758 127.303,158.447 123.202,158.095 C 115.001,157.391 107.241,156.712 100.029,156.075 C 92.817,155.438 86.201,154.905 80.341,154.557 C 74.481,154.209 69.41,154.092 65.288,154.28 C 57.043,154.656 52.799,156.494 53.393,160.038 C 54.004,163.683 59.509,168.732 68.708,174.608 C 73.308,177.546 78.684,180.614 84.719,183.764 C 90.755,186.914 97.408,190.125 104.514,193.33 C 111.621,196.537 119.142,199.705 127.03,202.832 C 130.974,204.395 134.962,205.041 139.006,205.563 C 143.051,206.085 147.157,207.418 151.308,208.691 C 155.459,209.964 159.663,211.185 163.91,212.365 C 168.156,213.543 172.44,214.662 176.758,215.69 C 181.076,216.718 185.44,217.681 189.827,218.548 C 194.215,219.414 198.646,220.208 203.118,220.902 C 197.767,225.517 192.452,230.017 187.186,234.338 C 181.919,238.659 176.74,242.812 171.651,246.777 C 166.562,250.742 161.581,254.527 156.727,257.865 C 151.872,261.205 147.146,264.15 142.512,267.008 C 145.193,270.588 147.849,274.192 150.476,277.807 C 154.556,275.178 158.711,272.471 162.99,269.623 C 167.269,266.775 171.657,263.797 176.157,260.172 C 180.656,256.549 185.244,252.703 189.926,248.693 C 194.607,244.681 199.373,240.543 204.179,236.297 C 203.58,241.029 203.018,245.711 202.513,250.367 C 202.009,255.023 201.567,259.668 201.191,264.262 C 200.815,268.856 200.528,273.026 200.316,276.887 C 200.105,280.747 199.983,284.526 199.954,288.211 C 199.926,291.898 199.995,295.501 200.156,298.992 C 200.317,302.481 200.574,305.881 200.956,309.166 C 201.721,315.738 202.813,321.891 204.246,327.519 C 205.679,333.148 207.4,338.28 209.344,342.82 C 211.287,347.36 213.386,351.299 215.602,354.571 C 220.034,361.115 224.259,364.931 227.69,365.431 C 231.252,365.95 233.566,362.794 235.036,356.561 C 235.772,353.444 236.464,349.536 237.179,344.948 C 237.894,340.359 238.734,335.089 239.784,329.202 C 240.834,323.315 242.186,316.858 243.8,309.869 C 244.607,306.374 245.535,302.741 246.564,299.004 C 247.592,295.266 248.716,291.406 249.925,287.443 C 251.135,283.479 252.416,279.407 253.772,274.817 C 255.128,270.226 256.552,265.087 258.023,259.929 C 259.495,254.772 260.99,249.565 262.502,244.356 C 264.014,239.147 265.517,233.912 267.007,228.672 C 270.017,233.205 273.007,237.755 275.972,242.326 C 278.936,246.897 281.894,251.495 284.906,256.148 C 287.918,260.8 291.001,265.519 294.203,269.811 C 297.405,274.104 300.763,277.71 304.328,281.294 C 307.893,284.876 311.184,288.44 314.436,292.015 C 317.687,295.59 321.104,299.195 324.746,302.859 C 328.389,306.522 332.279,310.291 336.468,314.189 C 340.658,318.088 345.176,322.168 349.959,326.372 C 351.827,324.084 353.792,321.896 355.877,319.787 C 351.703,315.332 347.732,311.014 344.035,306.912 C 340.338,302.81 336.892,298.868 333.642,295.053 C 330.392,291.239 327.32,287.527 324.374,283.872 C 321.429,280.219 318.576,276.615 315.806,273.019 C 313.036,269.423 309.821,264.724 306.65,260.087 C 303.478,255.45 300.414,250.915 297.42,246.468 C 294.425,242.02 291.475,237.654 288.512,233.301 C 285.549,228.948 282.574,224.651 279.558,220.35 C 283.889,219.709 288.191,219.019 292.466,218.294 C 296.74,217.571 301.018,216.855 305.248,216.11 C 309.479,215.364 313.701,214.626 317.891,213.915 C 322.08,213.206 326.168,212.522 329.843,211.86 C 333.518,211.2 337.114,210.593 340.608,210.002 C 344.102,209.409 347.504,208.878 350.803,208.396 C 357.402,207.431 363.578,206.576 369.264,205.82 C 374.951,205.062 380.149,204.37 384.772,203.675 C 389.393,202.981 393.446,202.236 396.838,201.396 C 403.623,199.716 407.769,197.19 408.671,193.522 z M 374.268,177.699 C 379.732,178.534 384.557,180.232 387.899,182.303 C 391.241,184.373 393.1,186.742 392.639,188.811 C 392.178,190.88 389.529,192.281 385.623,192.948 C 381.719,193.614 376.596,193.653 371.191,192.96 C 365.785,192.267 361.095,190.93 357.871,189.264 C 354.647,187.598 352.844,185.512 353.248,183.369 C 353.652,181.226 356.17,179.438 359.958,178.364 C 363.746,177.288 368.81,176.992 374.268,177.699 z M 208.433,42.325 C 210.375,42.169 213.32,44.359 216.483,48.02 C 219.647,51.682 222.97,56.813 225.658,62.512 C 228.346,68.211 229.851,73.399 230.133,77.188 C 230.415,80.977 229.529,83.362 227.508,83.47 C 225.487,83.577 222.737,81.393 219.87,77.778 C 217.003,74.163 213.959,69.118 211.354,63.475 C 208.749,57.83 207.076,52.635 206.494,48.801 C 205.913,44.967 206.492,42.497 208.433,42.325 z M 231.268,93.867 C 233.414,93.77 236.215,95.692 239.45,99.326 C 242.684,102.961 246.272,108.3 249.933,115.022 C 251.763,118.383 253.56,122.085 255.222,126.095 C 256.883,130.105 258.38,134.41 259.724,137.856 C 261.067,141.301 262.201,144.68 263.098,148.235 C 263.994,151.79 264.602,155.535 264.963,160.015 C 259.186,166.466 253.199,172.961 247.014,179.442 C 243.822,176.011 240.561,172.605 237.178,169.227 C 233.795,165.85 230.293,162.528 226.717,159.541 C 226.904,155.726 227.044,152.049 227.102,148.539 C 227.159,145.029 227.147,141.676 227.084,137.574 C 227.021,133.472 226.941,129.368 226.848,125.538 C 226.756,121.709 226.614,118.154 226.5,114.914 C 226.271,108.434 226.434,103.223 227.125,99.603 C 227.816,95.983 229.16,93.963 231.268,93.867 z M 105.506,181.514 C 98.499,179.625 91.991,177.061 87.089,174.42 C 82.188,171.777 78.979,169.138 78.764,167.189 C 78.55,165.239 81.424,164.368 86.2,164.487 C 90.976,164.606 97.563,165.631 104.719,167.458 C 111.874,169.286 118.215,171.574 122.705,173.872 C 127.196,176.169 129.918,178.534 129.917,180.487 C 129.916,182.439 127.234,183.592 122.871,183.821 C 118.508,184.05 112.384,183.294 105.506,181.514 z M 140.55,183.48 C 140.59,181.461 142.783,179.948 146.774,178.74 C 150.765,177.532 156.497,175.858 163.568,174.284 C 167.104,173.498 170.938,172.736 175.035,171.997 C 179.133,171.259 183.493,170.564 188.05,170.126 C 192.606,169.687 197.36,169.325 202.272,168.978 C 207.185,168.631 212.243,168.275 217.446,167.954 C 220.99,171.414 224.447,174.906 227.777,178.433 C 231.107,181.96 234.323,185.526 237.439,189.11 C 231.007,195.391 224.513,201.593 217.964,207.68 C 212.717,207.127 207.625,206.438 202.699,205.598 C 197.774,204.76 193.017,203.797 188.46,202.723 C 183.902,201.647 179.544,200.487 175.437,199.248 C 171.329,198.01 167.474,196.717 163.904,195.378 C 156.762,192.702 150.925,190.766 146.84,189.318 C 142.755,187.87 140.499,185.583 140.55,183.48 z M 224.224,351.093 C 222.286,350.807 220.121,348.231 218.331,344.302 C 216.542,340.373 215.283,335.132 215.051,329.486 C 214.818,323.839 215.635,318.84 217.047,315.323 C 218.459,311.803 220.346,309.732 222.254,309.935 C 224.16,310.136 225.719,312.598 226.797,316.42 C 227.875,320.242 228.602,325.468 228.862,331.171 C 229.122,336.874 228.877,341.966 228.177,345.591 C 227.479,349.215 226.16,351.324 224.224,351.093 z M 223.457,296.565 C 219.654,296.128 217.16,288.64 216.35,276.358 C 216.147,273.288 216.09,269.376 216.162,265.201 C 216.234,261.027 216.416,256.589 216.723,251.962 C 217.03,247.336 217.447,242.526 217.962,237.547 C 218.477,232.568 219.066,227.431 219.748,222.191 C 223.937,218.271 228.144,214.322 232.338,210.298 C 236.531,206.274 240.714,202.209 244.869,198.095 C 249.254,203.706 253.487,209.36 257.576,215.009 C 256.015,220.877 254.375,226.608 252.687,232.189 C 250.999,237.771 249.278,243.168 247.583,248.359 C 245.888,253.55 244.224,258.516 242.618,263.173 C 241.013,267.831 239.469,272.185 238.02,275.659 C 235.122,282.608 232.454,287.847 230.061,291.384 C 227.67,294.922 225.453,296.743 223.457,296.565 z M 269.455,206.525 C 264.732,200.399 259.834,194.273 254.746,188.196 C 258.388,184.454 261.984,180.723 265.508,177.005 C 269.029,173.285 272.476,169.605 275.856,165.944 C 280.733,166.027 285.438,166.194 289.976,166.476 C 294.514,166.758 298.865,167.122 303.005,167.593 C 307.147,168.065 311.067,168.619 314.727,169.256 C 318.385,169.894 321.796,170.619 324.805,171.43 C 336.836,174.672 343.371,178.821 342.589,183.2 C 341.803,187.604 333.859,191.759 320.511,195.581 C 317.173,196.537 313.49,197.528 309.58,198.518 C 305.669,199.507 301.537,200.487 297.219,201.439 C 292.901,202.392 288.416,203.328 283.778,204.186 C 279.141,205.044 274.363,205.837 269.455,206.525 z"
   style="fill:#4d0e02;stroke:#1b330e;stroke-width:8" />
				<path
   id="path3608"
   d="M 381.201,340.81 C 373.109,332.005 366.803,331.047 367.532,345.529 C 367.896,352.77 370.697,359.911 374.541,366.124 C 378.383,372.338 383.117,377.579 387.643,381.852 C 392.17,386.125 398.652,390.724 403.721,392.942 C 408.789,395.159 412.254,394.869 410.918,389.353 C 409.584,383.838 403.617,372.848 397.613,363.021 C 391.611,353.194 385.498,345.491 381.201,340.81 z"
   style="fill:#4d0e02;stroke:#1b330e;stroke-width:8" />
				<path
   id="path3610"
   d="M 352.725,21.264 C 346.87,17.002 338.715,23.219 337.924,27.895 C 337.528,30.233 338.158,33.011 339.515,36.12 C 340.872,39.229 344.139,43.405 349.631,48.006 C 360.615,57.206 366.593,57.87 365.697,51.153 C 365.249,47.794 363.238,41.686 360.869,35.552 C 358.5,29.419 355.394,23.782 352.725,21.264 z"
   style="fill:#4d0e02;stroke:#1b330e;stroke-width:8" />
				<path
   id="path3612"
   d="M 59.865,52.596 C 73.927,53.52 75.692,47.315 66.058,38.504 C 61.242,34.1 51.771,27.696 41.893,21.704 C 32.015,15.712 21.779,10.096 16.789,9.137 C 11.799,8.178 11.864,11.833 14.256,16.897 C 16.648,21.961 21.256,28.292 25.393,32.644 C 29.53,36.997 34.526,41.546 40.304,45.247 C 46.081,48.948 52.583,51.706 59.865,52.596 z"
   style="fill:#4d0e02;stroke:#1b330e;stroke-width:8" />
				<path
   id="path3614"
   d="M 117.501,271.129 C 114.236,272.652 110.963,277.21 109.145,282.18 C 107.326,287.15 106.911,292.219 108.955,295.096 C 110.999,297.973 115.042,299.443 119.147,300.411 C 123.252,301.379 127.447,301.324 129.872,300.473 C 132.296,299.621 134.611,298.143 135.846,295.487 C 137.081,292.832 137.265,289.014 135.382,283.552 C 131.614,272.627 124.156,268.076 117.501,271.129 z"
   style="fill:#4d0e02;stroke:#1b330e;stroke-width:8" />
			</g>
			<g
   id="g3616">
				<path
   id="path3618"
   d="M 418.671,187.522 C 419.466,183.905 416.879,179.444 411.407,174.631 C 408.671,172.223 405.199,169.824 401.053,167.464 C 396.907,165.104 392.123,162.832 386.742,160.69 C 381.361,158.548 375.404,156.579 368.947,154.784 C 365.718,153.887 362.369,153.071 358.899,152.304 C 355.428,151.536 351.841,150.824 348.154,150.189 C 344.467,149.554 340.683,148.98 336.672,148.472 C 332.662,147.962 328.511,147.525 324.307,147.276 C 320.103,147.027 315.846,146.975 311.547,146.955 C 307.249,146.935 302.893,146.941 298.511,146.984 C 303.518,142.502 308.297,138.066 312.701,133.685 C 317.106,129.303 321.13,124.972 324.549,120.691 C 327.969,116.411 331.009,112.175 333.703,107.986 C 336.397,103.797 338.758,99.652 340.816,95.546 C 342.877,91.44 344.695,87.383 346.3,83.368 C 347.905,79.353 349.327,75.383 350.687,71.472 C 352.046,67.56 353.361,63.702 354.732,60.229 C 356.103,56.754 357.588,54.033 359.211,51.27 C 355.075,47.781 350.957,44.24 346.879,41.927 C 344.992,45.749 343.294,49.624 341.775,53.562 C 340.255,57.499 338.828,61.488 337.429,65.076 C 336.029,68.664 334.575,72.16 333.001,75.842 C 331.426,79.524 329.694,83.412 327.716,87.544 C 325.738,91.676 323.487,96.061 320.933,100.707 C 318.379,105.353 315.49,110.268 312.204,115.274 C 308.917,120.28 305.127,124.659 300.954,129.081 C 296.782,133.503 292.228,137.973 287.446,142.477 C 286.73,139.181 285.87,135.955 284.815,132.802 C 283.76,129.649 282.53,126.159 281.153,121.823 C 279.774,117.489 278.186,113.237 276.454,109.088 C 274.724,104.939 272.887,100.88 270.975,96.942 C 269.063,93.004 267.1,89.163 265.079,85.444 C 263.059,81.723 260.999,78.125 258.911,74.651 C 254.735,67.704 250.551,61.268 246.458,55.421 C 242.365,49.572 238.383,44.325 234.612,39.748 C 230.841,35.171 227.3,31.266 224.869,28.134 C 220.008,21.872 214.877,18.62 211.379,18.959 C 207.9,19.296 206.313,23.111 206.348,29.748 C 206.366,33.067 205.504,37.084 206.053,41.712 C 206.602,46.34 207.708,51.577 209.018,57.347 C 210.328,63.116 211.774,69.414 213.331,76.17 C 214.109,79.548 214.866,83.037 215.614,86.632 C 216.362,90.228 217.104,93.927 217.756,97.722 C 218.407,101.519 218.985,105.41 219.519,109.391 C 220.052,113.373 220.529,117.439 220.948,121.591 C 221.367,125.743 221.719,129.976 221.988,134.047 C 222.259,138.119 222.439,141.394 222.578,144.728 C 218.459,142.276 214.255,139.82 209.938,136.503 C 205.621,133.187 201.196,129.677 196.641,126.177 C 192.086,122.678 187.413,119.204 182.617,115.73 C 177.821,112.254 172.887,108.783 167.818,105.296 C 162.75,101.81 157.529,98.304 152.154,94.757 C 146.778,91.21 141.236,87.616 135.503,83.947 C 129.771,80.278 123.847,76.518 117.702,72.657 C 111.557,68.797 105.974,64.802 101.208,60.718 C 97.856,62.519 94.485,64.255 91.085,65.911 C 96.715,70.222 103.068,74.417 109.193,78.468 C 115.318,82.519 121.23,86.446 126.943,90.268 C 132.655,94.09 138.179,97.825 143.532,101.492 C 148.886,105.158 154.073,108.773 159.106,112.349 C 164.14,115.924 169.027,119.474 173.774,123.009 C 178.521,126.546 183.135,130.079 187.618,133.613 C 192.1,137.147 196.448,140.695 200.675,143.483 C 204.902,146.27 209.004,148.698 213.024,151.135 C 208.377,151.527 203.76,151.944 199.171,152.383 C 194.583,152.822 190.016,153.291 185.475,153.772 C 180.934,154.251 176.418,154.606 171.948,154.441 C 167.477,154.276 163.046,154.071 158.671,153.837 C 154.295,153.604 149.978,153.345 145.727,153.052 C 141.476,152.758 137.306,152.447 133.205,152.095 C 125.004,151.391 117.244,150.712 110.032,150.075 C 102.82,149.438 96.204,148.905 90.344,148.557 C 84.484,148.209 79.413,148.092 75.291,148.28 C 67.046,148.656 62.802,150.494 63.396,154.038 C 64.007,157.683 69.512,162.732 78.711,168.608 C 83.311,171.546 88.687,174.614 94.722,177.764 C 100.758,180.914 107.411,184.125 114.517,187.33 C 121.624,190.537 129.145,193.705 137.033,196.832 C 140.977,198.395 144.965,199.041 149.009,199.563 C 153.054,200.085 157.16,201.418 161.311,202.691 C 165.462,203.964 169.666,205.185 173.913,206.365 C 178.159,207.543 182.443,208.662 186.761,209.69 C 191.079,210.718 195.443,211.681 199.83,212.548 C 204.218,213.414 208.649,214.208 213.121,214.902 C 207.77,219.517 202.455,224.017 197.189,228.338 C 191.922,232.659 186.743,236.812 181.654,240.777 C 176.565,244.742 171.584,248.527 166.73,251.865 C 161.875,255.205 157.149,258.15 152.515,261.008 C 155.196,264.588 157.852,268.192 160.479,271.807 C 164.559,269.178 168.714,266.471 172.993,263.623 C 177.272,260.775 181.66,257.797 186.16,254.172 C 190.659,250.549 195.247,246.703 199.929,242.693 C 204.61,238.681 209.376,234.543 214.182,230.297 C 213.583,235.029 213.021,239.711 212.516,244.367 C 212.012,249.023 211.57,253.668 211.194,258.262 C 210.818,262.856 210.531,267.026 210.319,270.887 C 210.108,274.747 209.986,278.526 209.957,282.211 C 209.929,285.898 209.998,289.501 210.159,292.992 C 210.32,296.481 210.577,299.881 210.959,303.166 C 211.724,309.738 212.816,315.891 214.249,321.519 C 215.681,327.148 217.403,332.28 219.347,336.82 C 221.29,341.36 223.388,345.299 225.605,348.571 C 230.037,355.115 234.262,358.931 237.693,359.431 C 241.255,359.95 243.569,356.794 245.039,350.561 C 245.775,347.444 246.467,343.536 247.182,338.948 C 247.897,334.359 248.737,329.089 249.787,323.202 C 250.837,317.315 252.189,310.858 253.803,303.869 C 254.61,300.374 255.538,296.741 256.567,293.004 C 257.595,289.266 258.719,285.406 259.928,281.442 C 261.138,277.479 262.419,273.407 263.775,268.817 C 265.131,264.226 266.555,259.087 268.026,253.929 C 269.498,248.772 270.993,243.565 272.505,238.356 C 274.017,233.147 275.52,227.912 277.01,222.672 C 280.02,227.205 283.01,231.755 285.975,236.326 C 288.939,240.897 291.897,245.495 294.909,250.148 C 297.921,254.8 301.004,259.519 304.206,263.811 C 307.408,268.104 310.766,271.71 314.331,275.294 C 317.896,278.876 321.187,282.44 324.439,286.015 C 327.69,289.59 331.107,293.195 334.749,296.859 C 338.392,300.522 342.282,304.291 346.471,308.189 C 350.661,312.088 355.179,316.168 359.962,320.372 C 361.83,318.084 363.795,315.896 365.88,313.787 C 361.706,309.332 357.735,305.014 354.038,300.912 C 350.341,296.81 346.895,292.868 343.645,289.053 C 340.395,285.239 337.323,281.527 334.377,277.872 C 331.432,274.219 328.579,270.615 325.809,267.019 C 323.039,263.423 319.824,258.724 316.653,254.087 C 313.481,249.45 310.417,244.915 307.423,240.468 C 304.428,236.02 301.478,231.654 298.515,227.301 C 295.552,222.948 292.577,218.651 289.561,214.35 C 293.892,213.709 298.194,213.019 302.469,212.294 C 306.743,211.571 311.021,210.855 315.251,210.11 C 319.482,209.364 323.704,208.626 327.894,207.915 C 332.083,207.206 336.171,206.522 339.846,205.86 C 343.521,205.2 347.117,204.593 350.611,204.002 C 354.105,203.409 357.507,202.878 360.806,202.396 C 367.405,201.431 373.581,200.576 379.267,199.82 C 384.954,199.062 390.152,198.37 394.775,197.675 C 399.396,196.981 403.449,196.236 406.841,195.396 C 413.623,193.716 417.769,191.19 418.671,187.522 z M 384.268,171.699 C 389.732,172.534 394.557,174.232 397.899,176.303 C 401.241,178.373 403.1,180.742 402.639,182.811 C 402.178,184.88 399.529,186.281 395.623,186.948 C 391.719,187.614 386.596,187.653 381.191,186.96 C 375.785,186.267 371.095,184.93 367.871,183.264 C 364.647,181.598 362.844,179.512 363.248,177.369 C 363.652,175.226 366.17,173.438 369.958,172.364 C 373.746,171.288 378.81,170.992 384.268,171.699 z M 218.434,36.325 C 220.375,36.169 223.321,38.359 226.484,42.02 C 229.648,45.682 232.971,50.813 235.659,56.512 C 238.347,62.211 239.852,67.399 240.134,71.188 C 240.416,74.977 239.53,77.362 237.509,77.47 C 235.488,77.577 232.738,75.393 229.871,71.778 C 227.004,68.163 223.96,63.118 221.355,57.475 C 218.751,51.83 217.077,46.635 216.495,42.801 C 215.913,38.967 216.492,36.497 218.434,36.325 z M 241.268,87.867 C 243.414,87.77 246.215,89.692 249.45,93.326 C 252.684,96.961 256.272,102.3 259.933,109.022 C 261.763,112.383 263.56,116.085 265.222,120.095 C 266.883,124.105 268.38,128.41 269.724,131.856 C 271.067,135.301 272.201,138.68 273.098,142.235 C 273.994,145.79 274.602,149.535 274.963,154.015 C 269.186,160.466 263.199,166.961 257.014,173.442 C 253.822,170.011 250.561,166.605 247.178,163.227 C 243.795,159.85 240.293,156.528 236.717,153.541 C 236.904,149.726 237.044,146.049 237.102,142.539 C 237.159,139.029 237.147,135.676 237.084,131.574 C 237.021,127.472 236.941,123.368 236.848,119.538 C 236.756,115.709 236.614,112.154 236.5,108.914 C 236.271,102.434 236.434,97.223 237.125,93.603 C 237.816,89.983 239.16,87.963 241.268,87.867 z M 115.506,175.514 C 108.499,173.625 101.991,171.061 97.089,168.42 C 92.188,165.777 88.979,163.138 88.764,161.189 C 88.55,159.239 91.424,158.368 96.2,158.487 C 100.976,158.606 107.563,159.631 114.719,161.458 C 121.874,163.286 128.215,165.574 132.705,167.872 C 137.196,170.169 139.918,172.534 139.917,174.487 C 139.916,176.439 137.234,177.592 132.871,177.821 C 128.508,178.05 122.384,177.294 115.506,175.514 z M 150.55,177.48 C 150.59,175.461 152.783,173.948 156.774,172.74 C 160.765,171.532 166.497,169.858 173.568,168.284 C 177.104,167.498 180.938,166.736 185.035,165.997 C 189.133,165.259 193.493,164.564 198.05,164.126 C 202.606,163.687 207.36,163.325 212.272,162.978 C 217.185,162.631 222.242,162.275 227.446,161.954 C 230.99,165.414 234.447,168.906 237.777,172.433 C 241.107,175.96 244.323,179.526 247.439,183.11 C 241.007,189.391 234.513,195.593 227.964,201.68 C 222.718,201.127 217.624,200.438 212.699,199.598 C 207.774,198.76 203.017,197.797 198.46,196.723 C 193.902,195.647 189.544,194.487 185.437,193.248 C 181.329,192.01 177.474,190.717 173.904,189.378 C 166.762,186.702 160.925,184.766 156.84,183.318 C 152.755,181.87 150.499,179.583 150.55,177.48 z M 234.224,345.093 C 232.286,344.807 230.121,342.231 228.331,338.302 C 226.542,334.373 225.283,329.132 225.051,323.486 C 224.819,317.839 225.635,312.84 227.047,309.323 C 228.459,305.803 230.346,303.732 232.254,303.935 C 234.16,304.136 235.719,306.598 236.797,310.42 C 237.875,314.242 238.602,319.468 238.862,325.171 C 239.122,330.874 238.877,335.966 238.177,339.591 C 237.479,343.215 236.16,345.324 234.224,345.093 z M 233.457,290.565 C 229.654,290.128 227.16,282.64 226.35,270.358 C 226.147,267.288 226.09,263.376 226.162,259.201 C 226.234,255.027 226.416,250.589 226.723,245.962 C 227.03,241.336 227.447,236.526 227.962,231.547 C 228.477,226.568 229.066,221.431 229.748,216.191 C 233.937,212.271 238.144,208.322 242.338,204.298 C 246.531,200.274 250.714,196.209 254.869,192.095 C 259.254,197.706 263.487,203.36 267.576,209.009 C 266.015,214.877 264.375,220.608 262.687,226.189 C 260.999,231.771 259.278,237.168 257.583,242.359 C 255.888,247.55 254.224,252.516 252.618,257.173 C 251.013,261.831 249.469,266.185 248.02,269.659 C 245.122,276.608 242.454,281.847 240.061,285.384 C 237.67,288.922 235.453,290.743 233.457,290.565 z M 279.455,200.525 C 274.732,194.399 269.834,188.273 264.746,182.196 C 268.388,178.454 271.984,174.723 275.508,171.005 C 279.029,167.285 282.476,163.605 285.856,159.944 C 290.733,160.027 295.438,160.194 299.976,160.476 C 304.514,160.758 308.865,161.122 313.005,161.593 C 317.147,162.065 321.067,162.619 324.727,163.256 C 328.385,163.894 331.796,164.619 334.805,165.43 C 346.836,168.672 353.371,172.821 352.589,177.2 C 351.803,181.604 343.859,185.759 330.511,189.581 C 327.173,190.537 323.49,191.528 319.58,192.518 C 315.669,193.507 311.537,194.487 307.219,195.439 C 302.901,196.392 298.416,197.328 293.778,198.186 C 289.141,199.044 284.363,199.837 279.455,200.525 z"
   style="fill:#6a4ea2;stroke:#ed171f;stroke-width:6" />
				<path
   id="path3620"
   d="M 391.201,334.81 C 383.109,326.005 376.803,325.047 377.532,339.529 C 377.896,346.77 380.697,353.911 384.541,360.124 C 388.383,366.338 393.117,371.579 397.643,375.852 C 402.17,380.125 408.652,384.724 413.721,386.942 C 418.789,389.159 422.254,388.869 420.918,383.353 C 419.584,377.838 413.617,366.848 407.613,357.021 C 401.611,347.194 395.498,339.491 391.201,334.81 z"
   style="fill:#6a4ea2;stroke:#ed171f;stroke-width:6" />
				<path
   id="path3622"
   d="M 362.725,15.264 C 356.87,11.002 348.715,17.219 347.924,21.895 C 347.528,24.233 348.158,27.011 349.515,30.12 C 350.872,33.229 354.139,37.405 359.631,42.006 C 370.615,51.206 376.593,51.87 375.697,45.153 C 375.249,41.794 373.238,35.686 370.869,29.552 C 368.5,23.419 365.394,17.782 362.725,15.264 z"
   style="fill:#6a4ea2;stroke:#ed171f;stroke-width:6" />
				<path
   id="path3624"
   d="M 69.865,46.596 C 83.927,47.52 85.692,41.315 76.058,32.504 C 71.242,28.1 61.771,21.696 51.893,15.704 C 42.015,9.712 31.779,4.096 26.789,3.137 C 21.799,2.178 21.864,5.833 24.256,10.897 C 26.648,15.961 31.256,22.292 35.393,26.644 C 39.53,30.997 44.526,35.546 50.304,39.247 C 56.081,42.948 62.583,45.706 69.865,46.596 z"
   style="fill:#6a4ea2;stroke:#ed171f;stroke-width:6" />
				<path
   id="path3626"
   d="M 127.501,265.129 C 124.236,266.652 120.963,271.21 119.145,276.18 C 117.326,281.15 116.911,286.219 118.955,289.096 C 120.999,291.973 125.042,293.443 129.147,294.411 C 133.252,295.379 137.447,295.324 139.872,294.473 C 142.296,293.621 144.611,292.143 145.846,289.487 C 147.081,286.832 147.265,283.014 145.382,277.552 C 141.614,266.627 134.156,262.076 127.501,265.129 z"
   style="fill:#6a4ea2;stroke:#ed171f;stroke-width:6" />
			</g>
		</g></svg>