<?xml version="1.0" encoding="UTF-8" standalone="no"?>
<!-- Generator: Adobe Illustrator 10, SVG Export Plug-In . SVG Version: 3.0.0 Build 76)  -->
<svg
   xmlns:dc="http://purl.org/dc/elements/1.1/"
   xmlns:cc="http://creativecommons.org/ns#"
   xmlns:rdf="http://www.w3.org/1999/02/22-rdf-syntax-ns#"
   xmlns:svg="http://www.w3.org/2000/svg"
   xmlns="http://www.w3.org/2000/svg"
   xmlns:sodipodi="http://sodipodi.sourceforge.net/DTD/sodipodi-0.dtd"
   xmlns:inkscape="http://www.inkscape.org/namespaces/inkscape"
   width="512.1886"
   height="552.45697"
   viewBox="0 0 523.117 633.68"
   style="overflow:visible"
   xml:space="preserve"
   id="svg3635"
   sodipodi:version="0.32"
   inkscape:version="0.46"
   sodipodi:docname="Storm.svg"
   inkscape:output_extension="org.inkscape.output.svg.inkscape"
   version="1.0"><metadata
   id="metadata3859"><rdf:RDF><cc:Work
       rdf:about=""><dc:format>image/svg+xml</dc:format><dc:type
         rdf:resource="http://purl.org/dc/dcmitype/StillImage" /></cc:Work></rdf:RDF></metadata><defs
   id="defs3857"><inkscape:perspective
   sodipodi:type="inkscape:persp3d"
   inkscape:vp_x="0 : 316.84 : 1"
   inkscape:vp_y="0 : 1000 : 0"
   inkscape:vp_z="523.117 : 316.84 : 1"
   inkscape:persp3d-origin="261.5585 : 211.22666 : 1"
   id="perspective3861" />
		
		
	</defs><sodipodi:namedview
   inkscape:window-height="670"
   inkscape:window-width="640"
   inkscape:pageshadow="2"
   inkscape:pageopacity="0.0"
   guidetolerance="10.0"
   gridtolerance="10.0"
   objecttolerance="10.0"
   borderopacity="1.0"
   bordercolor="#666666"
   pagecolor="#ffffff"
   id="base"
   showgrid="false"
   inkscape:zoom="0.72907462"
   inkscape:cx="261.5585"
   inkscape:cy="316.84"
   inkscape:window-x="207"
   inkscape:window-y="0"
   inkscape:current-layer="svg3635" />
	<style
   type="text/css"
   id="style3637">
	
		@font-face{font-family:'Times-Roman';src:url(DB1D5AD.cef)}
	
	</style>
	
<g
   transform="matrix(1.1470215,0,0,1.1470215,-44.725125,-1.0903007)"
   style="overflow:visible"
   id="g3656">
			<g
   id="g3658">
				<g
   id="g3660">
					<path
   id="path3662"
   d="M 132.43,108.876 C 146.83,74.39 169.15,42.709 193.27,12.397 C 196.294,14.413 199.462,16.285 202.342,18.444 C 205.582,20.893 208.318,23.772 211.342,26.653 C 193.558,49.045 176.998,72.877 164.11,98.293 C 176.493,98.005 189.453,101.533 201.046,108.876 L 132.43,108.876 z"
   style="fill:#666666" />
					<path
   id="path3664"
   d="M 340.582,108.876 C 347.566,101.821 353.326,94.693 357.143,87.421 C 358.223,85.405 360.743,83.966 363.838,84.757 C 367.006,84.398 369.598,85.837 368.662,87.781 C 364.99,94.909 359.374,101.966 352.605,108.876 L 340.582,108.876 z"
   style="fill:#666666" />
					<path
   id="path3666"
   d="M 425.182,108.876 C 442.462,89.293 456.286,69.925 467.59,51.709 C 470.613,49.837 473.71,47.821 476.662,45.877 C 479.613,43.933 482.638,41.845 485.59,40.045 C 473.422,61.933 458.158,85.333 438.143,108.876 L 425.182,108.876 z"
   style="fill:#666666" />
					<path
   id="path3668"
   d="M 117.165,149.629 C 114.862,137.894 116.589,125.509 125.662,115.501 C 127.678,113.197 129.91,111.181 132.214,109.31 C 132.286,109.165 132.357,109.021 132.43,108.876 L 201.046,108.876 C 205.798,111.901 210.261,115.573 214.438,119.821 C 224.734,130.333 230.566,140.629 233.23,149.629 L 200.83,149.629 C 199.246,144.373 195.718,138.901 190.246,133.789 C 178.942,123.133 162.598,120.901 151.294,127.885 C 148.63,135.013 146.397,142.213 144.453,149.629 L 117.165,149.629 L 117.165,149.629 z"
   style="fill:#666666" />
					<path
   id="path3670"
   d="M 286.51,149.629 C 296.662,145.021 303.863,142.501 307.391,142.285 C 311.35,141.997 310.63,144.516 305.95,149.629 L 286.51,149.629 z"
   style="fill:#666666" />
					<path
   id="path3672"
   d="M 327.046,149.629 C 337.414,144.876 347.926,140.485 357.574,136.741 C 383.998,126.589 395.517,131.053 382.99,148.692 C 382.773,148.981 382.486,149.34 382.269,149.629 L 327.046,149.629 z"
   style="fill:#666666" />
					<path
   id="path3674"
   d="M 383.638,149.629 C 399.407,136.165 413.159,122.485 425.182,108.876 L 438.143,108.876 C 426.55,122.485 413.374,136.165 398.327,149.629 L 383.638,149.629 z"
   style="fill:#666666" />
					<path
   id="path3676"
   d="M 340.582,108.876 C 333.887,115.646 326.038,122.269 317.613,128.965 C 314.877,131.125 315.383,132.853 318.982,133.142 C 322.509,132.566 327.622,130.693 330.286,128.534 C 338.494,121.982 346.126,115.502 352.605,108.877 L 340.582,108.877 L 340.582,108.876 z"
   style="fill:#666666" />
					<path
   id="path3678"
   d="M 117.598,163.813 C 117.814,161.221 118.174,158.557 118.606,155.893 C 118.606,155.748 118.678,155.604 118.606,155.46 C 118.03,153.516 117.526,151.572 117.165,149.628 L 144.453,149.628 C 143.734,152.508 143.086,155.46 142.438,158.412 C 143.374,160.284 144.598,162.156 146.11,163.812 L 117.598,163.812 L 117.598,163.813 z"
   style="fill:#666666" />
					<path
   id="path3680"
   d="M 199.606,163.813 C 201.982,159.709 202.342,154.741 200.83,149.628 L 233.23,149.628 C 234.814,154.884 235.318,159.637 235.03,163.813 L 199.606,163.813 z"
   style="fill:#666666" />
					<path
   id="path3682"
   d="M 257.998,163.813 C 269.086,157.909 278.662,153.157 286.51,149.628 L 305.949,149.628 C 302.71,153.156 297.525,157.908 290.758,163.813 L 257.998,163.813 z"
   style="fill:#666666" />
					<path
   id="path3684"
   d="M 298.391,163.813 C 307.102,159.061 316.967,154.237 327.046,149.628 L 382.27,149.628 C 380.975,151.356 379.319,153.012 377.518,154.74 C 379.606,153.011 381.622,151.355 383.638,149.628 L 398.326,149.628 C 394.437,153.084 390.478,156.54 386.374,159.924 C 384.79,161.221 383.206,162.516 381.622,163.813 L 366.07,163.813 C 367.15,162.949 368.23,162.157 369.238,161.365 C 368.086,162.157 366.933,162.949 365.71,163.813 L 343.967,163.813 C 346.055,162.229 347.926,160.645 349.294,159.061 C 355.126,152.365 351.742,149.557 341.59,152.796 C 334.319,155.172 325.246,159.42 318.334,163.813 L 298.391,163.813 z"
   style="fill:#666666" />
					<path
   id="path3686"
   d="M 119.902,192.397 C 117.526,183.397 116.734,173.821 117.598,163.813 L 146.11,163.813 C 147.837,165.828 149.998,167.628 152.446,169.212 C 166.414,178.212 185.638,176.7 195.574,168.492 C 197.302,167.124 198.598,165.54 199.606,163.812 L 235.03,163.812 C 234.526,170.795 231.863,175.98 228.19,178.572 C 218.47,185.34 226.966,179.435 226.75,179.58 C 227.614,179.652 228.694,179.725 229.63,179.725 C 239.854,173.748 249.357,168.42 257.998,163.813 L 290.758,163.813 C 286.798,167.34 282.19,171.229 277.078,175.477 C 278.158,175.332 279.238,175.117 280.39,174.828 C 285.286,171.373 291.478,167.629 298.39,163.813 L 318.333,163.813 C 315.669,165.541 313.365,167.268 311.565,168.852 C 305.085,174.613 308.756,177.565 319.413,175.26 C 327.548,173.532 337.268,168.852 343.966,163.813 L 365.709,163.813 C 346.196,176.557 318.188,187.932 306.164,189.803 C 289.532,192.54 300.692,190.741 298.39,190.956 C 298.029,191.46 297.597,191.893 297.238,192.396 L 148.054,192.396 C 148.558,191.892 148.99,191.316 149.492,190.812 C 146.901,189.802 157.989,196.211 141.644,187.427 C 141.068,187.068 140.492,186.779 139.845,185.988 C 140.061,188.148 140.349,190.308 140.709,192.396 L 119.902,192.396 L 119.902,192.397 z"
   style="fill:#666666" />
					<path
   id="path3688"
   d="M 324.021,192.397 C 338.853,183.325 352.966,173.821 366.07,163.813 L 381.622,163.813 C 369.094,173.821 355.702,183.325 341.734,192.397 L 324.021,192.397 z"
   style="fill:#666666" />
					<path
   id="path3690"
   d="M 24.357,232.429 C 41.781,221.845 79.006,217.238 122.854,223.429 C 125.014,220.261 127.39,217.093 129.766,213.925 C 125.302,207.23 121.99,200.029 119.902,192.398 L 140.71,192.398 C 141.069,194.558 141.574,196.717 142.222,198.804 C 144.094,196.646 146.038,194.558 148.054,192.398 L 297.238,192.398 C 291.189,199.814 285.79,207.301 281.254,214.861 C 282.406,214.861 283.486,214.933 284.638,215.006 C 298.174,207.661 311.35,200.174 324.022,192.399 L 341.735,192.399 C 329.063,200.606 315.887,208.382 302.423,215.942 C 334.392,218.319 358.799,224.367 372.191,232.43 L 234.31,232.43 C 240.862,231.709 255.19,226.742 257.205,221.918 C 259.222,216.877 252.598,213.926 241.438,215.294 C 230.278,216.661 218.758,221.486 215.589,226.094 C 215.158,226.166 214.654,226.166 214.222,226.239 C 217.894,218.102 219.261,212.919 215.589,213.423 C 211.846,213.855 203.566,220.191 195.069,229.047 C 194.71,229.119 194.278,229.191 193.846,229.191 C 194.062,229.12 192.694,231.351 194.135,228.976 C 195.574,226.527 190.751,221.847 179.447,222.351 C 172.751,222.71 165.407,224.295 160.007,226.599 C 162.239,228.615 164.686,230.56 167.351,232.431 L 24.357,232.431 L 24.357,232.429 z"
   style="fill:#666666" />
					<path
   id="path3692"
   d="M 14.062,249.78 C 12.694,243.085 16.582,237.18 24.357,232.428 L 167.35,232.428 C 177.43,239.557 190.39,245.389 206.518,249.78 L 178.222,249.78 C 176.781,249.205 175.414,248.629 174.046,248.053 C 174.118,248.268 174.118,248.412 174.19,248.557 C 172.39,248.989 170.662,249.348 169.006,249.78 L 120.549,249.78 C 116.158,243.803 100.966,239.341 82.966,239.341 C 64.966,239.341 49.63,243.804 45.237,249.78 L 14.062,249.78 z"
   style="fill:#666666" />
					<path
   id="path3694"
   d="M 216.31,249.78 C 222.502,246.756 228.837,243.66 235.03,240.493 C 233.95,240.493 232.942,240.421 231.863,240.421 C 231.287,237.685 230.711,235.237 230.711,232.646 C 231.646,232.646 227.471,233.005 233.735,232.501 C 233.951,232.501 234.095,232.429 234.311,232.429 L 372.19,232.429 C 378.815,236.461 382.703,240.925 383.567,245.749 C 383.782,247.188 383.782,248.485 383.495,249.78 L 350.015,249.78 C 350.736,248.917 351.095,247.981 351.095,247.045 C 351.095,241.285 337.631,236.533 321.215,236.533 C 304.799,236.533 291.263,241.285 291.263,247.045 C 291.263,247.982 291.623,248.917 292.343,249.78 L 273.838,249.78 C 273.984,249.348 273.911,248.844 273.694,248.413 C 272.327,245.604 264.623,243.229 252.959,241.717 C 247.487,244.453 242.015,247.189 236.471,249.78 L 216.31,249.78 L 216.31,249.78 z"
   style="fill:#666666" />
					<path
   id="path3696"
   d="M 471.55,249.78 C 451.967,249.563 432.383,249.061 412.798,248.413 C 408.262,248.268 403.87,245.173 403.366,241.501 C 403.15,237.901 406.75,234.949 411.286,234.949 C 442.894,235.02 474.502,234.949 505.894,234.516 C 510.501,234.516 514.461,237.901 514.533,242.149 C 514.75,245.821 512.303,248.989 508.702,249.78 L 471.55,249.78 L 471.55,249.78 z"
   style="fill:#666666" />
					<path
   id="path3698"
   d="M 26.589,265.909 C 20.182,261.373 16.006,256.405 14.422,251.149 C 14.278,250.716 14.134,250.212 14.062,249.78 L 45.238,249.78 C 44.374,250.932 43.942,252.085 43.942,253.309 C 43.942,258.924 53.23,263.676 66.549,265.909 L 26.589,265.909 z"
   style="fill:#666666" />
					<path
   id="path3700"
   d="M 99.382,265.909 C 112.63,263.677 121.845,258.925 121.845,253.309 C 121.845,252.084 121.413,250.932 120.549,249.78 L 169.006,249.78 C 149.998,254.533 138.549,259.356 141.069,263.893 C 141.502,264.612 142.294,265.332 143.446,265.909 L 99.382,265.909 L 99.382,265.909 z"
   style="fill:#666666" />
					<path
   id="path3702"
   d="M 195.214,265.909 C 196.942,264.037 198.741,262.093 200.542,260.221 C 201.549,259.212 202.774,258.492 203.926,257.772 C 194.566,255.54 186.069,252.949 178.222,249.78 L 206.518,249.78 C 208.606,250.356 210.694,250.932 212.926,251.436 C 214.078,250.86 215.158,250.356 216.31,249.78 L 236.47,249.78 C 233.301,251.293 230.205,252.803 227.038,254.317 C 232.582,255.54 238.414,256.621 244.174,257.917 C 261.741,256.045 272.972,253.237 273.837,249.78 L 292.342,249.78 C 295.798,254.173 307.533,257.485 321.214,257.485 C 334.895,257.485 346.559,254.173 350.014,249.78 L 383.494,249.78 C 381.91,257.053 372.046,262.524 355.773,265.909 L 243.886,265.909 C 240.574,264.828 237.261,263.749 233.877,262.669 C 228.766,261.085 223.654,260.869 218.47,259.86 C 216.526,261.876 214.582,263.893 212.781,265.909 L 195.214,265.909 L 195.214,265.909 z"
   style="fill:#666666" />
					<path
   id="path3704"
   d="M 471.55,249.78 C 483.358,249.925 495.094,249.997 506.83,249.997 C 507.478,249.997 508.126,249.925 508.702,249.78 L 471.55,249.78 z"
   style="fill:#666666" />
					<path
   id="path3706"
   d="M 71.734,283.981 C 52.51,279.444 36.814,273.18 26.589,265.909 L 66.549,265.909 C 71.518,266.772 77.134,267.205 82.966,267.205 C 88.798,267.205 94.341,266.772 99.382,265.909 L 143.445,265.909 C 149.709,269.077 166.053,269.725 185.78,266.845 C 187.149,268.574 188.588,270.23 190.101,271.886 C 191.757,269.869 193.485,267.925 195.213,265.909 L 212.78,265.909 C 207.452,271.741 202.773,277.789 198.525,283.981 L 180.813,283.981 C 181.965,282.325 183.117,280.741 184.341,279.157 C 182.396,280.524 180.525,282.18 179.229,283.981 L 71.734,283.981 z"
   style="fill:#666666" />
					<path
   id="path3708"
   d="M 219.406,283.981 C 219.91,282.18 219.622,280.669 218.685,279.803 C 216.165,277.428 218.326,279.444 218.182,279.372 C 218.758,279.228 219.406,279.228 219.91,279.156 C 222.43,280.956 224.877,282.611 227.11,283.98 L 219.406,283.98 L 219.406,283.981 z"
   style="fill:#666666" />
					<path
   id="path3710"
   d="M 243.526,283.981 C 242.301,281.749 240.43,279.012 238.054,275.844 C 238.558,275.772 239.062,275.628 239.422,275.557 C 239.71,275.989 237.837,274.26 240.357,276.78 C 242.734,279.157 255.91,283.477 266.35,283.981 L 243.526,283.981 L 243.526,283.981 z"
   style="fill:#666666" />
					<path
   id="path3712"
   d="M 271.102,283.981 C 277.079,283.621 280.967,282.108 281.397,279.731 C 269.446,274.836 256.99,270.229 243.887,265.909 L 355.774,265.909 C 340.51,269.077 319.487,270.444 294.358,269.725 C 297.239,273.612 300.118,277.428 303.069,281.245 C 304.942,282.108 306.815,283.045 308.686,283.981 L 271.102,283.981 L 271.102,283.981 z"
   style="fill:#666666" />
					<path
   id="path3714"
   d="M 144.958,296.869 C 143.589,295.213 142.222,293.557 140.854,291.901 C 115.51,291.612 91.75,288.731 71.734,283.981 L 179.23,283.981 C 178.15,285.563 177.502,287.221 177.645,288.731 C 178.654,287.149 179.734,285.563 180.814,283.981 L 198.526,283.981 C 195.862,287.94 193.414,291.973 191.182,296.004 C 196.438,296.292 202.558,295.5 208.03,293.7 C 215.014,291.396 218.47,287.221 219.406,283.98 L 227.11,283.98 C 235.03,288.875 241.294,291.396 243.886,290.963 C 246.117,290.603 245.83,288.083 243.526,283.98 L 266.35,283.98 C 266.998,284.052 267.719,284.052 268.367,284.052 C 269.302,284.052 270.239,284.052 271.102,283.98 L 308.686,283.98 C 317.327,288.156 325.606,292.476 333.598,296.868 L 319.055,296.868 C 317.11,295.859 315.094,294.851 313.078,293.916 C 313.87,294.852 314.734,295.859 315.525,296.868 L 144.958,296.868 L 144.958,296.869 z"
   style="fill:#666666" />
					<path
   id="path3716"
   d="M 159.574,326.604 C 160.511,323.436 161.589,320.413 162.814,317.46 C 156.694,310.691 150.718,303.779 144.958,296.868 L 315.525,296.868 C 315.958,297.372 316.318,297.875 316.75,298.38 C 318.982,298.668 308.109,295.716 323.734,299.532 C 324.021,299.603 324.382,299.676 324.67,299.748 C 322.798,298.74 320.926,297.803 319.055,296.868 L 333.598,296.868 C 350.518,306.3 366.071,316.236 380.254,326.603 L 360.67,326.603 C 353.399,320.412 343.174,314.507 334.102,312.131 C 321.214,308.747 316.03,312.778 322.727,319.763 C 324.815,321.995 327.837,324.299 331.294,326.603 L 313.727,326.603 C 305.446,322.211 299.039,318.539 296.374,316.164 C 288.814,309.467 293.998,313.859 293.205,312.779 C 292.126,312.779 290.973,312.779 289.75,312.779 C 294.43,317.82 298.462,322.427 301.918,326.603 L 247.414,326.603 C 246.406,325.956 245.326,325.308 244.246,324.659 C 242.95,325.308 241.582,326.027 240.214,326.603 L 239.71,326.603 C 238.846,325.812 235.39,322.931 239.566,326.459 L 159.574,326.604 z"
   style="fill:#666666" />
					<path
   id="path3718"
   d="M 135.165,359.869 C 138.118,344.892 149.493,331.789 159.214,327.684 C 159.357,327.325 159.43,326.964 159.574,326.604 L 239.566,326.46 C 240.069,326.964 240.645,327.469 241.438,328.116 C 245.973,332.004 247.774,344.891 243.814,359.868 L 219.334,359.868 C 220.63,354.252 219.549,349.067 215.877,345.612 C 208.03,338.196 190.318,339.204 176.422,346.836 C 175.558,347.34 174.766,347.772 173.973,348.275 C 173.47,352.091 173.11,355.979 172.894,359.868 L 135.165,359.868 L 135.165,359.869 z"
   style="fill:#666666" />
					<path
   id="path3720"
   d="M 409.055,359.869 C 404.662,355.476 400.055,351.229 395.231,347.053 C 403.294,362.678 391.342,362.965 367.151,351.949 C 350.879,344.604 329.063,334.596 313.727,326.604 L 331.294,326.604 C 338.854,331.573 348.647,336.397 356.854,339.637 C 368.878,344.46 373.846,342.733 368.014,334.38 C 366.286,331.932 363.766,329.268 360.67,326.604 L 380.254,326.604 C 394.727,337.26 407.758,348.349 419.35,359.869 L 409.055,359.869 z"
   style="fill:#666666" />
					<path
   id="path3722"
   d="M 239.71,326.604 C 239.854,326.749 239.926,326.821 239.854,326.749 C 239.998,326.677 240.069,326.677 240.214,326.604 L 239.71,326.604 z"
   style="fill:#666666" />
					<path
   id="path3724"
   d="M 247.414,326.604 C 280.174,346.621 304.006,355.548 311.926,352.957 C 318.262,350.869 314.086,341.509 301.918,326.604 L 247.414,326.604 z"
   style="fill:#666666" />
					<path
   id="path3726"
   d="M 134.589,363.613 C 134.734,362.388 134.877,361.092 135.165,359.869 L 172.894,359.869 C 172.822,361.093 172.75,362.317 172.678,363.613 L 134.589,363.613 z"
   style="fill:#666666" />
					<path
   id="path3728"
   d="M 218.182,363.613 C 218.685,362.388 219.118,361.092 219.334,359.869 L 243.814,359.869 C 243.453,361.093 243.094,362.317 242.662,363.613 L 218.182,363.613 z"
   style="fill:#666666" />
					<path
   id="path3730"
   d="M 319.055,363.613 C 319.63,363.037 320.35,362.533 321.214,362.173 C 321.286,362.173 321.358,362.101 321.358,362.101 C 324.598,360.734 329.135,361.742 331.223,363.614 L 319.055,363.614 L 319.055,363.613 z"
   style="fill:#666666" />
					<path
   id="path3732"
   d="M 412.727,363.613 C 411.502,362.317 410.278,361.092 409.055,359.869 L 419.35,359.869 C 420.575,361.093 421.798,362.389 423.022,363.613 L 412.727,363.613 z"
   style="fill:#666666" />
					<path
   id="path3734"
   d="M 134.589,363.613 C 133.726,371.965 135.67,380.749 141.934,388.741 C 145.462,393.276 149.566,397.093 154.102,400.262 C 154.246,401.917 154.534,403.574 154.822,405.158 C 163.967,458.438 188.158,505.166 214.15,550.526 C 216.814,550.238 219.622,549.733 222.142,549.301 C 224.806,548.869 227.47,547.43 230.205,545.989 C 207.453,504.517 186.645,459.877 176.926,409.837 C 192.549,412.142 209.397,407.749 223.15,394.645 C 233.086,385.142 239.278,374.053 242.662,363.614 L 218.182,363.614 C 216.094,368.942 212.134,374.414 206.446,379.022 C 195.934,387.734 182.542,388.814 173.182,383.629 C 172.678,376.861 172.462,370.165 172.678,363.613 L 134.589,363.613 z"
   style="fill:#666666" />
					<path
   id="path3736"
   d="M 319.055,363.613 C 317.542,365.197 317.397,367.141 318.983,368.652 C 333.455,382.261 346.127,395.941 352.823,409.909 C 353.831,411.925 356.423,412.068 359.375,410.125 C 359.446,410.125 359.519,410.053 359.519,410.053 C 362.472,408.541 365.064,406.237 364.127,404.293 C 357.575,390.541 345.407,377.148 331.367,363.757 C 331.295,363.685 331.295,363.685 331.223,363.613 L 319.055,363.613 z"
   style="fill:#666666" />
					<path
   id="path3738"
   d="M 412.727,363.613 C 414.958,365.917 417.118,368.221 419.206,370.525 C 460.605,416.533 481.63,462.972 494.158,502.068 C 496.678,504.589 499.269,507.325 501.933,509.989 C 504.382,512.509 507.045,514.957 509.566,517.261 C 497.974,476.221 478.029,428.628 438.142,380.46 C 433.461,374.772 428.421,369.156 423.021,363.612 L 412.727,363.612 L 412.727,363.613 z"
   style="fill:#666666" />
				</g>
				<g
   id="g3740">
					<path
   id="path3742"
   d="M 160.006,226.597 C 165.406,224.293 172.75,222.708 179.446,222.349 C 190.75,221.845 195.574,226.525 194.134,228.974 C 192.694,231.349 194.062,229.118 193.845,229.189 C 194.277,229.189 194.709,229.118 195.068,229.045 C 203.565,220.189 211.845,213.853 215.588,213.421 C 219.26,212.917 217.893,218.101 214.221,226.237 C 214.653,226.165 215.157,226.165 215.588,226.092 C 218.757,221.485 230.277,216.659 241.437,215.292 C 252.597,213.924 259.221,216.875 257.204,221.916 C 255.117,226.885 239.925,231.996 233.733,232.5 C 227.469,233.004 231.644,232.645 230.709,232.645 C 230.709,235.237 231.285,237.684 231.861,240.42 C 232.941,240.42 233.948,240.492 235.028,240.492 C 227.683,244.236 220.268,247.836 212.924,251.435 C 189.453,245.821 172.03,237.397 160.006,226.597 z"
   style="fill:none;stroke:#000000;stroke-width:5.75899982" />
					<path
   id="path3744"
   d="M 139.846,185.989 C 140.493,186.78 141.069,187.069 141.645,187.428 C 157.99,196.212 146.902,189.803 149.493,190.813 C 147.046,193.477 144.526,196.141 142.222,198.803 C 140.998,194.701 140.278,190.453 139.846,185.989 z"
   style="fill:none;stroke:#000000;stroke-width:5.75899982" />
					<path
   id="path3746"
   d="M 151.294,127.885 C 162.598,120.902 178.942,123.133 190.246,133.789 C 203.278,146.029 205.51,160.285 195.574,168.493 C 185.638,176.701 166.414,178.213 152.446,169.213 C 147.91,166.333 144.526,162.589 142.438,158.413 C 144.67,147.901 147.622,137.749 151.294,127.885 z"
   style="fill:none;stroke:#000000;stroke-width:5.75899982" />
					<path
   id="path3748"
   d="M 132.214,109.31 C 129.91,111.181 127.678,113.198 125.662,115.501 C 115.078,127.165 114.502,142.142 118.606,155.461 C 118.678,155.605 118.606,155.749 118.606,155.894 C 115.006,177.566 118.606,197.366 129.766,213.925 C 127.39,217.093 125.014,220.261 122.854,223.429 C 57.91,214.213 7.654,228.828 14.422,251.15 C 21.118,273.47 76.054,291.109 140.854,291.902 C 147.91,300.541 155.254,309.038 162.814,317.462 C 161.446,320.774 160.294,324.158 159.214,327.686 C 143.374,334.382 123.214,364.838 141.934,388.743 C 145.462,393.278 149.566,397.095 154.102,400.264 C 154.246,401.919 154.534,403.576 154.822,405.16 C 163.967,458.44 188.158,505.168 214.15,550.528 C 216.814,550.24 219.622,549.735 222.142,549.303 C 224.806,548.871 227.47,547.432 230.205,545.991 C 207.453,504.519 186.645,459.879 176.926,409.839 C 192.549,412.144 209.397,407.751 223.15,394.647 C 248.854,370.095 249.502,334.959 241.438,328.12 C 233.374,321.208 240.502,327.183 239.854,326.752 C 241.366,326.176 242.806,325.384 244.246,324.663 C 278.589,346.048 303.719,355.624 311.926,352.96 C 320.063,350.296 310.918,335.607 289.75,312.783 C 290.973,312.783 292.126,312.783 293.205,312.783 C 293.998,313.863 288.814,309.471 296.374,316.168 C 303.862,322.863 342.021,340.648 367.15,351.952 C 391.341,362.968 403.294,362.681 395.23,347.056 C 403.941,354.617 411.933,362.464 419.206,370.529 C 460.605,416.537 481.63,462.976 494.158,502.072 C 496.678,504.593 499.269,507.329 501.933,509.993 C 504.382,512.513 507.045,514.961 509.566,517.265 C 497.974,476.225 478.029,428.632 438.142,380.464 C 407.109,342.88 361.966,309.111 303.068,281.248 C 300.117,277.432 297.238,273.615 294.357,269.728 C 351.021,271.312 386.517,262.456 383.566,245.751 C 380.974,231.135 350.158,219.543 302.421,215.942 C 332.733,199.022 361.317,180.663 386.373,159.926 C 434.253,120.254 464.493,77.918 485.589,40.046 C 482.637,41.846 479.612,43.934 476.661,45.878 C 473.709,47.822 470.612,49.838 467.589,51.71 C 447.429,84.109 419.421,120.326 377.517,154.742 C 379.677,152.726 381.549,150.71 382.99,148.693 C 395.517,131.054 383.998,126.589 357.574,136.742 C 331.15,146.966 297.597,162.59 280.39,174.829 C 279.238,175.118 278.158,175.334 277.078,175.478 C 303.142,153.662 315.741,141.638 307.39,142.286 C 299.037,142.861 269.661,156.326 229.629,179.726 C 228.693,179.726 227.613,179.654 226.749,179.581 C 226.965,179.436 218.469,185.341 228.189,178.573 C 237.836,171.731 240.644,146.604 214.437,119.821 C 200.181,105.133 181.605,97.861 164.109,98.293 C 176.997,72.877 193.557,49.045 211.341,26.653 C 208.317,23.772 205.581,20.893 202.341,18.444 C 199.461,16.285 196.293,14.413 193.269,12.397 C 169.078,42.853 146.614,74.677 132.214,109.31 z"
   style="fill:none;stroke:#000000;stroke-width:5.75899982" />
					<path
   id="path3750"
   d="M 190.102,271.886 C 188.589,270.23 187.15,268.574 185.781,266.845 C 162.383,270.23 143.806,268.717 141.069,263.894 C 138.334,258.998 152.086,253.669 174.19,248.558 C 174.118,248.413 174.118,248.269 174.046,248.054 C 182.973,251.941 192.91,255.181 203.926,257.773 C 202.774,258.494 201.549,259.213 200.542,260.222 C 196.87,264.037 193.342,267.925 190.102,271.886 z"
   style="fill:none;stroke:#000000;stroke-width:5.75899982" />
					<path
   id="path3752"
   d="M 177.645,288.731 C 177.286,285.492 180.598,281.749 184.342,279.157 C 181.966,282.253 179.734,285.492 177.645,288.731 z"
   style="fill:none;stroke:#000000;stroke-width:5.75899982" />
					<path
   id="path3754"
   d="M 173.973,348.276 C 174.766,347.772 175.558,347.34 176.422,346.837 C 190.318,339.205 208.03,338.197 215.877,345.613 C 223.798,353.029 219.622,368.221 206.446,379.021 C 195.934,387.733 182.542,388.813 173.182,383.628 C 172.246,371.604 172.39,359.797 173.973,348.276 z"
   style="fill:none;stroke:#000000;stroke-width:5.75899982" />
					<path
   id="path3756"
   d="M 281.396,279.731 C 280.894,282.469 275.925,284.053 268.366,284.053 C 257.71,284.053 242.877,279.3 240.357,276.78 C 237.837,274.26 239.71,275.989 239.422,275.557 C 239.062,275.628 238.558,275.772 238.054,275.844 C 244.678,284.628 247.342,290.389 243.886,290.964 C 240.502,291.539 231.142,287.221 219.91,279.156 C 219.406,279.228 218.758,279.228 218.182,279.372 C 218.326,279.443 216.165,277.428 218.685,279.803 C 221.278,282.18 218.758,290.172 208.03,293.7 C 202.558,295.5 196.438,296.292 191.182,296.004 C 198.165,283.332 207.238,271.236 218.47,259.859 C 223.654,260.868 228.766,261.084 233.877,262.668 C 250.654,267.925 266.422,273.612 281.396,279.731 z"
   style="fill:none;stroke:#000000;stroke-width:5.75899982" />
					<path
   id="path3758"
   d="M 324.67,299.749 C 324.383,299.677 324.022,299.604 323.734,299.533 C 308.109,295.717 318.982,298.669 316.75,298.381 C 315.525,296.869 314.301,295.357 313.078,293.917 C 317.038,295.789 320.854,297.731 324.67,299.749 z"
   style="fill:none;stroke:#000000;stroke-width:5.75899982" />
					<path
   id="path3760"
   d="M 252.958,241.717 C 264.622,243.23 272.326,245.605 273.693,248.413 C 275.71,252.517 263.973,255.828 244.174,257.917 C 238.414,256.621 232.582,255.54 227.038,254.317 C 235.678,250.213 244.39,246.037 252.958,241.717 z"
   style="fill:none;stroke:#000000;stroke-width:5.75899982" />
					<path
   id="path3762"
   d="M 284.638,215.005 C 283.487,214.933 282.407,214.86 281.254,214.86 C 286.078,206.797 291.91,198.876 298.391,190.957 C 300.694,190.741 289.534,192.541 306.165,189.804 C 318.91,187.789 349.798,175.117 369.238,161.366 C 344.038,181.021 315.165,198.444 284.638,215.005 z"
   style="fill:none;stroke:#000000;stroke-width:5.75899982" />
					<path
   id="path3764"
   d="M 334.102,312.133 C 346.991,315.517 362.254,326.029 368.014,334.381 C 373.846,342.734 368.878,344.461 356.854,339.638 C 344.903,334.886 329.422,326.749 322.727,319.765 C 316.029,312.78 321.214,308.749 334.102,312.133 z"
   style="fill:none;stroke:#000000;stroke-width:5.75899982" />
					<path
   id="path3766"
   d="M 341.59,152.797 C 351.742,149.558 355.126,152.365 349.294,159.062 C 343.462,165.685 330.143,172.958 319.414,175.261 C 308.758,177.566 305.086,174.614 311.566,168.853 C 317.973,163.021 331.51,156.037 341.59,152.797 z"
   style="fill:none;stroke:#000000;stroke-width:5.75899982" />
					<path
   id="path3768"
   d="M 82.966,239.341 C 104.35,239.341 121.845,245.677 121.845,253.31 C 121.845,261.013 104.349,267.206 82.966,267.206 C 61.51,267.206 43.942,261.014 43.942,253.31 C 43.942,245.677 61.51,239.341 82.966,239.341 z"
   style="fill:none;stroke:#000000;stroke-width:5.75899982" />
					<path
   id="path3770"
   d="M 321.214,236.533 C 337.63,236.533 351.094,241.285 351.094,247.045 C 351.094,252.732 337.63,257.485 321.214,257.485 C 304.798,257.485 291.262,252.731 291.262,247.045 C 291.262,241.285 304.798,236.533 321.214,236.533 z"
   style="fill:none;stroke:#000000;stroke-width:5.75899982" />
					<path
   id="path3772"
   d="M 330.286,128.533 C 347.135,115.141 361.462,101.749 368.662,87.781 C 369.598,85.837 367.006,84.397 363.838,84.757 C 360.742,83.966 358.223,85.405 357.143,87.421 C 349.727,101.605 334.895,115.285 317.614,128.965 C 314.878,131.125 315.384,132.853 318.983,133.142 C 322.51,132.565 327.622,130.692 330.286,128.533 z"
   style="fill:none;stroke:#000000;stroke-width:5.75899982" />
					<path
   id="path3774"
   d="M 364.126,404.293 C 357.574,390.541 345.406,377.148 331.366,363.757 C 329.349,361.814 324.67,360.661 321.357,362.101 C 321.357,362.101 321.286,362.173 321.213,362.173 C 317.829,363.685 316.821,366.638 318.982,368.652 C 333.454,382.261 346.126,395.941 352.822,409.909 C 353.83,411.925 356.422,412.068 359.374,410.125 C 359.445,410.125 359.518,410.053 359.518,410.053 C 362.471,408.541 365.062,406.236 364.126,404.293 z"
   style="fill:none;stroke:#000000;stroke-width:5.75899982" />
					<path
   id="path3776"
   d="M 505.895,234.517 C 474.502,234.95 442.895,235.021 411.287,234.95 C 406.751,234.95 403.151,237.902 403.367,241.502 C 403.871,245.174 408.263,248.27 412.799,248.414 C 444.118,249.494 475.511,249.998 506.831,249.998 C 511.438,249.998 514.823,246.471 514.534,242.15 C 514.462,237.901 510.502,234.517 505.895,234.517 z"
   style="fill:none;stroke:#000000;stroke-width:5.75899982" />
				</g>
			</g>
			<g
   id="g3778">
				<path
   id="path3780"
   d="M 218.542,242.869 C 274.559,215.293 330.502,187.356 374.926,152.725 C 421.438,116.365 451.822,77.557 473.278,43.141 C 476.303,41.197 479.399,39.18 482.35,37.237 C 485.303,35.293 488.327,33.277 491.278,31.405 C 470.182,69.277 439.942,111.613 392.063,151.285 C 346.774,188.797 289.823,218.461 232.727,245.677 C 242.302,247.837 252.671,249.277 262.463,252.949 C 344.327,283.981 405.023,324.949 443.831,371.821 C 483.72,419.989 503.663,467.581 515.255,508.621 C 512.735,506.316 510.071,503.869 507.623,501.35 C 504.959,498.685 502.367,495.95 499.847,493.43 C 487.32,454.333 466.295,407.893 424.896,361.885 C 384.72,317.318 322.511,280.093 239.567,254.101 C 234.454,252.517 229.343,252.23 224.087,251.293 C 185.135,290.605 172.607,338.485 180.527,389.173 C 189.095,444.11 211.415,492.638 235.895,537.35 C 233.159,538.789 230.494,540.23 227.831,540.662 C 225.311,541.094 222.503,541.598 219.838,541.886 C 193.847,496.527 169.583,449.798 160.511,396.59 C 151.511,344.246 164.831,293.99 206.231,251.582 C 207.239,250.574 208.463,249.926 209.615,249.134 C 143.375,233.51 116.303,195.063 124.295,147.254 C 133.295,93.758 164.327,47.318 198.959,3.83 C 201.983,5.773 205.151,7.646 208.031,9.807 C 211.271,12.327 214.007,15.206 217.031,18.014 C 184.775,58.695 156.479,104.054 146.903,155.678 C 138.982,198.013 160.798,228.974 218.542,242.869 z"
   style="fill:#b3b3b3;stroke:#000000;stroke-width:5.75899982" />
				<g
   id="g3782">
					<g
   id="g3784">
						<path
   id="path3786"
   d="M 122.854,140.989 C 120.622,129.253 122.278,116.869 131.35,106.861 C 153.526,82.237 193.99,84.325 220.126,111.18 C 230.422,121.764 236.254,131.989 238.918,141.061 L 206.518,140.989 C 204.934,135.733 201.406,130.26 195.934,125.149 C 182.83,112.909 162.958,111.756 152.086,123.132 C 147.118,128.317 145.03,134.725 145.606,140.988 L 122.854,140.988 L 122.854,140.989 z"
   style="fill:#cccccc" />
						<path
   id="path3788"
   d="M 292.197,140.989 C 302.349,136.381 309.549,133.86 313.078,133.645 C 317.038,133.356 316.318,135.875 311.638,140.989 L 292.197,140.989 z"
   style="fill:#cccccc" />
						<path
   id="path3790"
   d="M 332.734,140.989 C 343.101,136.309 353.613,131.844 363.261,128.173 C 389.685,117.949 401.205,122.413 388.677,140.054 C 388.461,140.341 388.245,140.701 387.957,140.99 L 332.734,140.99 L 332.734,140.989 z"
   style="fill:#cccccc" />
						<path
   id="path3792"
   d="M 127.534,155.173 C 125.446,150.709 123.79,145.885 122.854,140.989 L 145.606,140.989 C 145.966,146.029 148.126,150.997 151.798,155.173 L 127.534,155.173 z"
   style="fill:#cccccc" />
						<path
   id="path3794"
   d="M 205.294,155.173 C 207.67,151.069 208.03,146.101 206.518,140.989 L 238.918,141.061 C 240.502,146.245 241.006,150.997 240.718,155.172 L 205.294,155.172 L 205.294,155.173 z"
   style="fill:#cccccc" />
						<path
   id="path3796"
   d="M 263.685,155.173 C 274.702,149.269 284.35,144.517 292.197,140.989 L 311.637,140.989 C 308.396,144.516 303.285,149.268 296.517,155.1 L 263.685,155.173 z"
   style="fill:#cccccc" />
						<path
   id="path3798"
   d="M 304.078,155.173 C 312.79,150.421 322.654,145.597 332.734,140.989 L 387.958,140.989 C 384.357,145.669 378.454,150.493 371.326,155.173 L 349.654,155.173 C 351.742,153.589 353.613,152.005 354.982,150.421 C 360.814,143.726 357.429,140.917 347.277,144.157 C 340.006,146.533 330.933,150.78 324.021,155.173 L 304.078,155.173 L 304.078,155.173 z"
   style="fill:#cccccc" />
						<path
   id="path3800"
   d="M 21.622,246.108 C 20.973,244.957 20.47,243.731 20.11,242.508 C 13.342,220.188 63.598,205.572 128.542,214.86 C 136.03,203.917 145.03,193.045 155.182,182.172 C 152.589,181.236 163.678,187.572 147.334,178.788 C 140.493,175.116 132.645,166.187 127.534,155.172 L 151.798,155.172 C 153.526,157.188 155.685,158.988 158.134,160.572 C 172.102,169.572 191.325,168.06 201.261,159.851 C 202.99,158.484 204.286,156.9 205.294,155.171 L 240.718,155.171 C 240.214,162.155 237.549,167.339 233.877,169.931 C 224.158,176.7 232.654,170.795 232.438,170.939 C 233.301,171.011 234.382,171.084 235.246,171.084 C 245.47,165.107 255.046,159.779 263.685,155.172 L 296.518,155.1 C 292.487,158.628 287.877,162.588 282.766,166.836 C 283.846,166.691 284.926,166.477 286.078,166.188 C 290.973,162.731 297.165,158.989 304.078,155.172 L 324.021,155.172 C 321.357,156.901 319.054,158.628 317.253,160.212 C 310.773,166.044 314.444,168.924 325.101,166.62 C 333.238,164.892 342.957,160.212 349.654,155.172 L 371.326,155.172 C 351.887,167.988 323.806,179.292 311.853,181.236 C 295.222,183.9 306.382,182.099 304.078,182.316 C 297.598,190.236 291.766,198.228 286.941,206.22 C 346.558,207.73 386.302,220.476 389.253,237.179 C 389.829,240.491 388.894,243.443 386.661,246.107 L 346.99,246.107 C 352.967,244.236 356.781,241.427 356.781,238.404 C 356.781,232.644 343.318,227.892 326.902,227.892 C 310.486,227.892 296.949,232.644 296.949,238.404 C 296.949,241.427 300.765,244.236 306.814,246.107 L 269.734,246.107 C 276.933,244.308 280.533,242.22 279.382,239.771 C 277.293,235.523 260.445,232.211 237.549,231.779 C 236.973,229.044 236.397,226.595 236.397,224.004 C 237.334,224.004 233.158,224.364 239.422,223.859 C 245.614,223.355 260.806,218.244 262.894,213.275 C 264.91,208.236 258.286,205.284 247.126,206.652 C 235.966,208.019 224.446,212.843 221.278,217.452 C 220.846,217.523 220.342,217.596 219.91,217.668 C 223.582,209.46 224.95,204.275 221.278,204.779 C 217.534,205.212 209.254,211.548 200.758,220.476 C 200.325,220.547 199.966,220.547 199.533,220.547 C 199.749,220.547 198.382,222.706 199.821,220.331 C 201.26,217.883 196.437,213.203 185.133,213.706 C 173.829,214.283 160.797,218.388 157.988,223.787 C 155.18,229.186 169.364,232.283 175.628,231.634 C 181.964,230.915 177.572,231.419 178.652,231.275 C 178.436,234.084 179.156,237.036 179.875,239.988 C 171.02,242.004 163.532,244.092 157.916,246.107 L 127.316,246.107 C 127.46,245.603 127.532,245.171 127.532,244.668 C 127.532,237.036 110.036,230.7 88.58,230.7 C 67.196,230.7 49.628,237.036 49.628,244.668 C 49.628,245.172 49.7,245.604 49.844,246.107 L 21.622,246.107 L 21.622,246.108 z"
   style="fill:#cccccc" />
						<path
   id="path3802"
   d="M 167.493,318.037 C 181.175,313.069 171.814,316.597 174.694,315.588 C 164.83,304.933 155.47,294.205 146.542,283.333 C 85.27,282.54 32.854,266.701 21.622,246.108 L 49.846,246.108 C 51.863,253.092 68.566,258.563 88.582,258.563 C 108.67,258.563 125.302,253.092 127.318,246.108 L 157.918,246.108 C 149.422,249.205 145.102,252.3 146.758,255.253 C 149.492,260.077 168.069,261.588 191.47,258.276 C 193.845,261.229 196.582,264.037 199.246,266.917 C 198.094,267.133 201.91,265.981 195.862,267.636 C 189.741,269.293 179.445,277.789 184.702,283.045 C 189.886,288.301 202.99,288.66 213.718,285.062 C 224.446,281.534 226.894,273.613 224.374,271.166 C 221.854,268.79 224.014,270.877 223.87,270.805 C 224.446,270.661 225.094,270.589 225.598,270.518 C 236.83,278.582 246.19,282.903 249.574,282.327 C 253.03,281.823 250.366,275.991 243.741,267.207 C 244.246,267.135 244.75,266.991 245.109,266.919 C 245.397,267.351 243.526,265.623 246.046,268.144 C 248.566,270.734 263.397,275.415 274.055,275.415 C 284.638,275.415 289.895,272.392 285.719,267.638 C 281.542,262.816 264.262,258.566 258.286,258.566 C 252.31,258.566 256.558,258.638 255.622,258.638 C 252.958,255.542 250.294,252.59 247.846,249.495 C 256.846,248.631 264.334,247.479 269.735,246.11 L 306.815,246.11 C 312.143,247.839 319.198,248.846 326.903,248.846 C 334.606,248.846 341.663,247.838 346.991,246.11 L 386.663,246.11 C 377.446,256.911 345.551,262.382 300.047,261.087 C 307.175,270.733 314.59,280.312 322.439,289.743 C 324.671,290.03 313.799,287.079 329.423,290.895 C 339.935,293.487 363.551,305.223 380.976,318.039 L 366.43,318.039 C 359.159,311.847 348.863,305.871 339.79,303.494 C 326.902,300.182 321.719,304.215 328.414,311.199 C 330.574,313.43 333.598,315.733 337.126,318.039 L 319.559,318.039 C 311.205,313.647 304.727,309.903 302.063,307.526 C 294.502,300.83 299.686,305.223 298.895,304.143 C 297.815,304.214 296.663,304.214 295.438,304.143 C 300.118,309.182 304.223,313.862 307.678,318.039 L 253.246,318.039 C 252.165,317.392 251.014,316.743 249.934,316.022 C 248.638,316.743 247.27,317.391 245.902,318.039 L 245.47,318.039 C 244.75,317.319 240.934,314.224 245.325,317.967 L 167.493,318.037 z"
   style="fill:#cccccc" />
						<path
   id="path3804"
   d="M 140.278,355.045 C 142.006,337.909 155.182,322.501 165.91,318.612 C 166.486,318.397 166.99,318.18 167.493,318.037 L 245.326,317.965 C 245.83,318.325 246.406,318.902 247.126,319.478 C 252.094,323.654 253.75,338.558 248.35,355.045 L 223.87,355.045 C 226.678,347.989 226.102,341.222 221.566,336.974 C 213.718,329.558 196.006,330.566 182.11,338.198 C 174.334,342.518 169.654,348.638 168.43,355.046 L 140.278,355.046 L 140.278,355.045 z"
   style="fill:#cccccc" />
						<path
   id="path3806"
   d="M 245.47,318.037 C 245.614,318.181 245.614,318.253 245.542,318.181 C 245.685,318.109 245.758,318.037 245.902,318.037 L 245.47,318.037 z"
   style="fill:#cccccc" />
						<path
   id="path3808"
   d="M 253.246,318.037 C 285.79,337.981 309.693,346.909 317.613,344.317 C 323.949,342.229 319.773,332.869 307.677,318.037 L 253.246,318.037 z"
   style="fill:#cccccc" />
						<path
   id="path3810"
   d="M 319.559,318.037 C 334.895,326.028 356.567,336.037 372.838,343.381 C 397.967,354.685 409.918,353.965 399.838,336.47 C 396.526,330.709 389.471,324.23 380.975,318.037 L 366.43,318.037 C 369.526,320.629 372.046,323.293 373.702,325.741 C 379.533,334.093 374.566,335.821 362.542,330.997 C 354.406,327.757 344.613,323.005 337.126,318.037 L 319.559,318.037 z"
   style="fill:#cccccc" />
						<path
   id="path3812"
   d="M 140.134,359.869 C 140.062,358.213 140.134,356.629 140.278,355.045 L 168.43,355.045 C 168.142,356.629 168.142,358.285 168.286,359.869 L 140.134,359.869 z"
   style="fill:#cccccc" />
						<path
   id="path3814"
   d="M 221.422,359.869 C 222.43,358.285 223.222,356.629 223.87,355.045 L 248.35,355.045 C 247.846,356.629 247.27,358.285 246.622,359.869 L 221.422,359.869 z"
   style="fill:#cccccc" />
						<path
   id="path3816"
   d="M 186.718,401.557 C 171.67,400.262 157.414,392.629 147.622,380.101 C 142.582,373.622 140.35,366.709 140.134,359.87 L 168.286,359.87 C 168.645,363.326 170.086,366.782 172.678,369.95 C 181.39,380.318 198.958,381.254 212.134,370.382 C 216.094,367.143 219.19,363.542 221.422,359.87 L 246.622,359.87 C 242.95,368.798 237.261,378.015 228.837,386.006 C 218.902,395.439 207.453,400.406 195.934,401.485 L 186.718,401.557 z"
   style="fill:#cccccc" />
					</g>
					<g
   id="g3818">
						<path
   id="path3820"
   d="M 339.79,303.492 C 352.605,306.876 367.941,317.389 373.702,325.741 C 379.533,334.093 374.566,335.821 362.542,330.997 C 350.59,326.245 335.109,318.181 328.414,311.197 C 321.719,304.213 326.902,300.181 339.79,303.492 z"
   style="fill:none;stroke:#000000;stroke-width:5.75899982" />
						<path
   id="path3822"
   d="M 182.11,338.197 C 196.006,330.565 213.718,329.557 221.566,336.973 C 229.486,344.388 225.31,359.58 212.134,370.38 C 198.958,381.252 181.39,380.317 172.678,369.948 C 164.038,359.509 168.214,345.9 182.11,338.197 z"
   style="fill:none;stroke:#000000;stroke-width:5.75899982" />
						<path
   id="path3824"
   d="M 195.934,125.149 C 208.966,137.389 211.198,151.645 201.261,159.852 C 191.325,168.061 172.102,169.573 158.134,160.573 C 144.165,151.645 141.214,134.509 152.086,123.133 C 162.958,111.757 182.83,112.909 195.934,125.149 z"
   style="fill:none;stroke:#000000;stroke-width:5.75899982" />
						<path
   id="path3826"
   d="M 347.277,144.157 C 357.429,140.917 360.814,143.725 354.982,150.421 C 349.15,157.045 335.83,164.317 325.101,166.621 C 314.445,168.925 310.773,166.045 317.253,160.213 C 323.662,154.381 337.197,147.397 347.277,144.157 z"
   style="fill:none;stroke:#000000;stroke-width:5.75899982" />
						<path
   id="path3828"
   d="M 282.766,166.837 C 308.83,145.093 321.43,132.997 313.078,133.646 C 304.726,134.222 275.349,147.685 235.246,171.085 C 234.382,171.085 233.301,171.013 232.438,170.94 C 232.654,170.796 224.158,176.701 233.877,169.932 C 243.526,163.164 246.334,138.036 220.126,111.18 C 193.99,84.325 153.526,82.237 131.35,106.861 C 109.174,131.413 131.062,170.077 147.334,178.789 C 163.678,187.573 152.589,181.237 155.182,182.173 C 145.03,193.045 136.03,203.917 128.542,214.861 C 63.598,205.574 13.342,220.189 20.11,242.509 C 26.806,264.828 81.741,282.47 146.542,283.333 C 155.47,294.205 164.83,304.933 174.694,315.588 C 171.741,316.669 181.894,312.78 165.91,318.612 C 149.998,324.444 128.47,355.692 147.622,380.1 C 166.774,404.58 203.134,410.556 228.837,386.004 C 254.542,361.525 255.19,326.316 247.126,319.477 C 239.062,312.635 246.19,318.539 245.542,318.18 C 247.054,317.533 248.493,316.813 249.934,316.02 C 284.205,337.405 309.406,346.98 317.613,344.317 C 325.75,341.652 316.605,326.964 295.437,304.141 C 296.662,304.212 297.814,304.212 298.894,304.141 C 299.685,305.221 294.501,300.828 302.062,307.524 C 309.548,314.221 347.709,332.004 372.837,343.38 C 397.966,354.684 409.917,353.964 399.837,336.469 C 389.685,318.901 345.045,294.707 329.421,290.893 C 313.797,287.077 324.669,290.028 322.437,289.741 C 314.588,280.309 307.173,270.731 300.045,261.085 C 356.709,262.669 392.205,253.886 389.253,237.181 C 386.302,220.478 346.558,207.732 286.941,206.222 C 291.765,198.23 297.597,190.238 304.078,182.318 C 306.383,182.101 295.223,183.902 311.853,181.238 C 328.486,178.574 376.15,157.693 388.677,140.054 C 401.205,122.413 389.685,117.95 363.261,128.173 C 336.837,138.325 303.285,153.949 286.077,166.189 C 284.926,166.478 283.846,166.692 282.766,166.837 z"
   style="fill:none;stroke:#000000;stroke-width:5.75899982" />
						<path
   id="path3830"
   d="M 219.91,217.669 C 220.342,217.597 220.846,217.524 221.278,217.453 C 224.446,212.845 235.966,208.02 247.126,206.653 C 258.286,205.285 264.91,208.237 262.894,213.276 C 260.806,218.245 245.614,223.356 239.422,223.86 C 233.158,224.365 237.334,224.005 236.397,224.005 C 236.397,226.597 236.973,229.045 237.549,231.78 C 260.445,232.213 277.294,235.524 279.382,239.772 C 281.396,244.02 268.797,247.405 247.845,249.493 C 250.293,252.588 252.957,255.54 255.621,258.636 C 256.557,258.636 252.309,258.564 258.285,258.564 C 264.261,258.564 281.541,262.814 285.718,267.636 C 289.894,272.39 284.637,275.413 274.054,275.413 C 263.396,275.413 248.565,270.731 246.045,268.142 C 243.525,265.621 245.396,267.349 245.108,266.917 C 244.749,266.989 244.245,267.133 243.74,267.205 C 250.365,275.989 253.029,281.821 249.573,282.325 C 246.189,282.901 236.829,278.581 225.597,270.516 C 225.093,270.587 224.445,270.66 223.869,270.803 C 224.013,270.875 221.853,268.788 224.373,271.164 C 226.893,273.611 224.445,281.532 213.717,285.06 C 202.988,288.659 189.885,288.299 184.701,283.043 C 179.445,277.787 189.74,269.291 195.861,267.634 C 201.909,265.98 198.093,267.131 199.245,266.915 C 196.581,264.035 193.845,261.227 191.469,258.274 C 168.068,261.586 149.491,260.075 146.757,255.251 C 144.021,250.355 157.773,245.026 179.876,239.987 C 179.157,237.035 178.437,234.083 178.653,231.274 C 177.573,231.419 181.965,230.915 175.629,231.633 C 169.365,232.282 155.181,229.186 157.989,223.786 C 160.797,218.387 173.829,214.282 185.134,213.705 C 196.438,213.202 201.261,217.882 199.822,220.33 C 198.383,222.705 199.75,220.546 199.534,220.546 C 199.967,220.546 200.326,220.546 200.759,220.475 C 209.255,211.546 217.534,205.21 221.279,204.778 C 224.95,204.276 223.582,209.461 219.91,217.669 z"
   style="fill:none;stroke:#000000;stroke-width:5.75899982" />
						<path
   id="path3832"
   d="M 88.582,230.701 C 110.038,230.701 127.534,237.037 127.534,244.669 C 127.534,252.373 110.038,258.564 88.582,258.564 C 67.198,258.564 49.63,252.374 49.63,244.669 C 49.63,237.037 67.198,230.701 88.582,230.701 z"
   style="fill:none;stroke:#000000;stroke-width:5.75899982" />
						<path
   id="path3834"
   d="M 326.902,227.894 C 343.318,227.894 356.781,232.646 356.781,238.406 C 356.781,244.166 343.318,248.845 326.902,248.845 C 310.486,248.845 296.949,244.165 296.949,238.406 C 296.949,232.647 310.486,227.894 326.902,227.894 z"
   style="fill:none;stroke:#000000;stroke-width:5.75899982" />
					</g>
				</g>
				<g
   id="g3836">
					<g
   id="g3838">
						<path
   id="path3840"
   d="M 324.525,359.869 C 322.582,357.853 323.588,355.045 326.902,353.533 C 326.972,353.533 327.046,353.461 327.046,353.461 C 330.358,352.022 335.038,353.245 337.055,355.117 C 338.71,356.701 340.367,358.285 341.95,359.869 L 324.525,359.869 z"
   style="fill:#e6e6e6" />
						<path
   id="path3842"
   d="M 335.975,119.965 C 352.823,106.501 367.151,93.109 374.35,79.142 C 375.287,77.198 372.694,75.757 369.526,76.118 C 366.43,75.326 363.838,76.765 362.831,78.782 C 355.415,92.967 340.583,106.646 323.302,120.326 C 320.493,122.558 321.07,124.214 324.671,124.502 C 328.197,123.997 333.311,122.054 335.975,119.965 z"
   style="fill:#e6e6e6" />
						<path
   id="path3844"
   d="M 511.582,225.949 C 480.189,226.309 448.582,226.381 416.975,226.309 C 412.438,226.309 408.838,229.26 409.055,232.86 C 409.559,236.533 413.95,239.629 418.487,239.772 C 449.807,240.852 481.198,241.428 512.518,241.428 C 517.126,241.428 520.51,237.827 520.223,233.508 C 520.15,229.261 516.189,225.949 511.582,225.949 z"
   style="fill:#e6e6e6" />
						<path
   id="path3846"
   d="M 324.525,359.869 C 324.597,359.941 324.597,359.941 324.67,360.014 C 339.143,373.621 351.815,387.301 358.51,401.27 C 359.518,403.286 362.11,403.501 365.063,401.485 C 365.135,401.485 365.207,401.414 365.207,401.414 C 368.159,399.901 370.751,397.598 369.815,395.653 C 364.055,383.557 353.903,371.75 341.95,359.87 L 324.525,359.87 L 324.525,359.869 z"
   style="fill:#e6e6e6" />
					</g>
					<g
   id="g3848">
						<path
   id="path3850"
   d="M 335.975,119.965 C 352.823,106.501 367.151,93.109 374.35,79.142 C 375.287,77.198 372.694,75.757 369.526,76.118 C 366.43,75.326 363.838,76.765 362.831,78.782 C 355.415,92.967 340.583,106.646 323.302,120.326 C 320.493,122.558 321.07,124.214 324.671,124.502 C 328.197,123.997 333.311,122.054 335.975,119.965 z"
   style="fill:none;stroke:#000000;stroke-width:5.75899982" />
						<path
   id="path3852"
   d="M 369.814,395.652 C 363.261,381.9 351.093,368.581 337.054,355.117 C 335.037,353.245 330.357,352.021 327.045,353.461 C 327.045,353.461 326.972,353.533 326.901,353.533 C 323.516,355.045 322.508,357.997 324.669,360.013 C 339.142,373.62 351.814,387.3 358.509,401.269 C 359.517,403.285 362.109,403.5 365.062,401.484 C 365.134,401.484 365.206,401.413 365.206,401.413 C 368.158,399.9 370.75,397.597 369.814,395.652 z"
   style="fill:none;stroke:#000000;stroke-width:5.75899982" />
						<path
   id="path3854"
   d="M 511.582,225.949 C 480.189,226.309 448.582,226.381 416.975,226.309 C 412.438,226.309 408.838,229.26 409.055,232.86 C 409.559,236.533 413.95,239.629 418.487,239.772 C 449.807,240.852 481.198,241.428 512.518,241.428 C 517.126,241.428 520.51,237.827 520.223,233.508 C 520.15,229.261 516.189,225.949 511.582,225.949 z"
   style="fill:none;stroke:#000000;stroke-width:5.75899982" />
					</g>
				</g>
			</g>
		</g></svg>